<?xml version="1.0" encoding="utf-8"?>
<!-- Generator: Adobe Illustrator 28.1.0, SVG Export Plug-In . SVG Version: 6.00 Build 0)  -->
<svg version="1.1" id="Layer_1" xmlns="http://www.w3.org/2000/svg" xmlns:xlink="http://www.w3.org/1999/xlink" x="0px" y="0px"
	 viewBox="0 0 850.4 850.4" style="enable-background:new 0 0 850.4 850.4;" xml:space="preserve">
<style type="text/css">
	.st0{fill:#FFFFFF;}
</style>
<g id="Layer_1_00000152229540293815217960000006512781525581921461_">
	<path id="path909" d="M405.5,7.3c-2.2,0.4-4.5,1.4-7.3,3.1c-117.8,61.7-235.6,123.8-353,185.9c0.6,143.3-0.2,285.5,0,428.1
		c-0.1,4.1,0.2,5.1,4.5,7.5c126.2,72,253.9,142.6,380.3,213.4C546.5,772.9,663,700.7,779.9,628c6-4.4,7.1-5.3,6.5-11.8
		c4.5-143,8.5-286.5,12.5-429.3C672.7,127.1,545.3,68.9,417.7,9.9C412.5,7.6,409.2,6.7,405.5,7.3L405.5,7.3z"/>
	<path id="path903" class="st0" d="M405.6,23.6c-2.2,0.4-4.5,1.4-7.3,3.1L82.2,192.8c-2.7,1.2-2.3,2,0.4,3.3l346,178.1
		c6.4,3.4,9.1,3.5,16.3-0.5l311-183.1c7.1-4.3,7.5-5.1-1.5-8.8L417.8,26.2C412.7,23.9,409.3,23,405.6,23.6L405.6,23.6z"/>
	<path id="path901" d="M373.1,60.1c6.7-1.4,13.9-2.1,21.6-1.9c30.6,0.5,54.9,14.2,54.3,30.6s-26,29.1-56.6,28.5
		c-30.6-0.5-54.9-14.1-54.2-30.4C338.6,74.6,353,64.3,373.1,60.1z"/>
	<path id="path899" d="M195.4,155.8c6.7-1.4,14.1-2.1,21.7-1.9c30.6,0.5,54.8,14.1,54.1,30.4c-0.6,16.3-25.9,29.2-56.5,28.7
		c-30.6-0.5-54.8-14.2-54.2-30.6C161,170.1,175.3,159.9,195.4,155.8z"/>
	<path id="path897" d="M485.1,112.7c6.7-1.4,14.1-1.9,21.7-1.8c30.6,0.5,54.8,14.1,54.1,30.4c-0.6,16.3-26,29.1-56.6,28.5
		c-30.6-0.5-54.8-14.1-54.1-30.4C450.8,127.2,465.1,116.9,485.1,112.7z"/>
	<path id="path895" class="st0" d="M65,216.4c-0.5,0.3-0.5,1.3-0.6,3.3l0.5,394c-0.1,4.1,0.2,5.1,4.5,7.5l337.5,190.1
		c8,5,9.4,4.7,8.7-3.4l6.5-401c0.7-5.6-1.7-8.1-5.2-9.9L68.5,217.7C66.7,216.7,65.6,216.2,65,216.4L65,216.4z"/>
	<path id="path893" d="M307.4,212.7c6.7-1.4,14.1-2.1,21.7-1.9c30.6,0.5,54.8,14.1,54.1,30.4c-0.6,16.3-26,29.1-56.6,28.5
		c-30.6-0.5-54.8-14.1-54.1-30.4C273,227,287.3,216.8,307.4,212.7z"/>
	<path id="path891" d="M599.8,167c6.7-1.4,14.1-2.1,21.7-1.9c30.6,0.5,54.8,14.1,54.1,30.4c-0.6,16.3-25.9,29.2-56.5,28.7
		c-30.6-0.5-54.8-14.2-54.2-30.6C565.5,181.4,579.8,171.1,599.8,167z"/>
	<path id="path889" d="M97.7,282.5c1.1-0.3,2.4-0.6,3.5-0.7c13.9-2,31.5,7.9,44.3,26.8c17.2,25.2,19.5,57.1,5.4,70.9
		c-14.1,13.8-39.5,4.6-56.7-20.7c-17.2-25.2-19.5-57.1-5.4-70.9C91.5,285.4,94.4,283.5,97.7,282.5L97.7,282.5z"/>
	<path id="path887" d="M422.4,268.9c6.7-1.4,14.1-2.1,21.7-1.9c30.6,0.5,54.8,14.1,54.1,30.4c-0.6,16.3-26,29.1-56.6,28.5
		c-30.6-0.5-54.8-14.1-54.1-30.4C388.1,283.3,402.3,273.1,422.4,268.9z"/>
	<path id="path885" class="st0" d="M775.8,208.8c-0.7,0.2-1.5,0.7-2.5,1.3L454,398.3c-6.4,4.3-6,5.4-6.1,10.9l-6.7,399.7
		c0.8,5.7-0.7,8.7,5.3,4.4l312.9-194.5c6-4.4,7.1-5.3,6.5-11.8l11.8-395.2C778.1,209,777.7,208,775.8,208.8L775.8,208.8z"/>
	<path id="path883" d="M732.6,282.1c9.7-1.8,18.2,1.4,23.4,9.8c10.3,16.7,3.3,48.3-16,70.5c-19.3,22.2-43.3,26.5-53.6,9.8
		s-3.3-48.3,16-70.5C712.1,290.7,722.9,284,732.6,282.1z"/>
	<path id="path881" d="M323.1,399c14-2.4,31.9,7.6,45,26.9c17.2,25.3,19.7,57,5.5,70.9c-14.1,13.8-39.6,4.4-56.7-20.8
		c-17.2-25.2-19.5-56.9-5.4-70.7c2.7-2.6,5.5-4.4,8.9-5.4C321.3,399.4,322.1,399.2,323.1,399z"/>
	<path id="path879" d="M209.4,467.9c14-2.4,31.9,7.6,45,26.9c17.2,25.2,19.7,57,5.5,70.9c-14.2,13.8-39.6,4.4-56.7-20.8
		c-17.2-25.2-19.5-56.9-5.4-70.7c2.7-2.6,5.5-4.4,8.9-5.4C207.6,468.3,208.4,468.1,209.4,467.9z"/>
	<path id="path877" d="M97.5,528.2c1.1-0.3,2.4-0.6,3.5-0.7c13.9-2,31.3,8.1,44.2,27c17.2,25.3,19.7,56.8,5.5,70.7
		c-14.1,13.8-39.5,4.6-56.7-20.7c-17.2-25.2-19.5-57.1-5.4-70.9C91.2,531.1,94.1,529.3,97.5,528.2L97.5,528.2z"/>
	<path id="path875" d="M635.5,465.9c9.5-1.6,18,1.6,23.1,9.8c10.3,16.7,3.1,48.3-16.1,70.5c-19.3,22.2-43.3,26.5-53.6,9.8
		c-10.3-16.7-3.1-48.3,16.1-70.5c8.4-9.7,17.7-16,26.4-18.7C632.8,466.5,634.1,466.2,635.5,465.9z"/>
	<path id="path873" d="M317.8,649.6c1.1-0.3,2.3-0.6,3.5-0.7c13.9-2,31.5,7.9,44.3,26.8c17.2,25.2,19.5,57.1,5.4,70.9
		c-14.1,13.8-39.4,4.6-56.6-20.7c-17.2-25.2-19.7-57-5.5-70.9C311.6,652.5,314.5,650.7,317.8,649.6z"/>
	<path id="path3924" d="M528.3,656.4c9.7-1.8,18.2,1.3,23.4,9.6c10.3,16.7,3.3,48.3-16,70.5c-19.3,22.2-43.2,26.7-53.6,10
		c-10.3-16.7-3.3-48.3,16-70.5C507.7,664.9,518.6,658.1,528.3,656.4L528.3,656.4z"/>
</g>
</svg>
