<?xml version="1.0" encoding="utf-8"?>
<!-- Generator: Adobe Illustrator 28.0.0, SVG Export Plug-In . SVG Version: 6.00 Build 0)  -->
<svg version="1.1" xmlns="http://www.w3.org/2000/svg" xmlns:xlink="http://www.w3.org/1999/xlink" x="0px" y="0px"
  viewBox="0 0 850.4 850.4" style="enable-background:new 0 0 850.4 850.4;" xml:space="preserve">
  <g id="Layer_2">
    <path d="M629.3,346.9c-0.6-2.7-0.3-5.5,0.7-8c10.3-26.6,64.7-192.9-132.5-321.3c0,0-24-16-65,5c0,0-73.5,40.6-135.8,90.5
		c-2,1.6-4.3,2.6-6.8,3c-21.1,3.2-129.3,29.8-176.2,240.8c-0.1,0.5-0.2,1-0.3,1.5c-0.8,7-8.9,65.2-58.3,52.8
		c-1.2-0.3-2.5-0.5-3.7-0.5c-7.3,0-31.7,1.7-38.7,21.5c-0.1,0.3-0.2,0.6-0.4,1C10.4,437.2-5,475.5,38.1,506c5.7,4.1,7.6,11.8,4.4,18
		c-6.8,13.4-17.4,34.9-20,45.5c0,0-8.8,32.2,23.7,31.1c0.9,0,1.9-0.2,2.8-0.4c2.9-0.7,9.2-2.6,14.4-5.9c1.3-0.8,2.7-1.4,4.1-1.8
		c7.4-2,27.1-3.3,43,30.1c0,0,24.6,50.8,48.3,66.8c4.7,3.2,7.2,8.9,6.2,14.5c-4,21.1-8.2,71.9,26.6,129.2c1.5,2.4,3.6,4.4,6.2,5.5
		c3.3,1.4,8.2,1.9,14.7-1.4c0.7-0.3,1.3-0.7,2-0.9c6.6-2.3,44.3-17,63.7-54.4c3.9-7.5,13.5-10.1,20.5-5.4
		c28.2,18.7,93.4,57.6,151.8,59.1c0,0,72.7,4,114.8-27.8c0.1-0.1,0.3-0.2,0.4-0.3c3-2,45.5-32.8,36.8-113.9c0,0-4.5-31.4-12.2-50.3
		c-2.1-5-1-10.8,2.6-14.9c8.1-9,22.3-24.8,33.3-37c3.2-3.6,8.1-5.3,12.8-4.6c11.7,1.8,32,10.8,38.4,50.1c0.1,0.4,0.1,0.8,0.1,1.2
		c0.3,4.3,3.2,33.8,19,50.5c0,0,39,47,71,50c0,0,29,4,33-33c0,0,7-34.9-45.7-137.4c-0.2-0.3-0.4-0.7-0.6-1
		c-3.2-5.2-31.7-54.5-1-111.9c0.2-0.4,0.4-0.8,0.7-1.2c4-6.1,39.8-60.5,75.6-110.4c0,0,17.6-23.8,3.3-36.6c-1.8-1.6-4-2.6-6.4-3.1
		c-10.6-2.2-47.1-6.5-84.9,23.7c0,0-39,33-66,74c0,0-13.6,19.4-21.6,2.8c-0.3-0.5-0.5-1-0.8-1.5
		C650.2,398.3,634.8,372.8,629.3,346.9z" />
</svg>