<?xml version="1.0" encoding="utf-8"?>
<!-- Generator: Adobe Illustrator 28.0.0, SVG Export Plug-In . SVG Version: 6.00 Build 0)  -->
<svg version="1.1" xmlns="http://www.w3.org/2000/svg" xmlns:xlink="http://www.w3.org/1999/xlink" x="0px" y="0px"
	 viewBox="0 0 850.4 850.4" style="enable-background:new 0 0 850.4 850.4;" xml:space="preserve">
<style type="text/css">
	.st0{display:none;}
	.st1{fill:#DD0B43;}
</style>
<g id="Layer_1" class="st0">
	
		<image style="display:inline;overflow:visible;opacity:0.42;" width="1227" height="992" xlink:href="../../../Froggie1004/clipart archive/heart1.jpeg"  transform="matrix(0.6929 0 0 0.7786 7.2126 38.99)">
	</image>
</g>
<g id="Layer_2">
	<g>
		<path class="st1" d="M258.3,162.6c0,0,19-108.5,116.9-98.9c0,0,126.7,5.2,128.5,161.7c0,0,105.8-15.7,126.7,171.3
			c0,0,116.2-64.7,186.2,61.2c0,0,45.4,104-31.5,198.4c0,0-31.5,69-174.8,70.8c0,0-99.6,13.1-152.8,64.3c0,0,28.1-87.4-18.7-202.6
			c0,0-41.2-79-52.6-146.4c0,0-70.2,59.5-86.5,164.4c0,0-42.2-90.6-126.7-130.1c0,0-113.5-40.6-130.4-161.1c0,0-17.2-103.4,43.7-170
			C86.2,145.4,162,74.5,258.3,162.6z"/>
		<path d="M246.2,131.7c0,0-87.8-83.5-162.8-28.9c0,0-80.2,47.1-80.2,166c0,0-5.4,158.5,161.6,221.7c0,0,97.1,41,131.7,116.7
			c0,0,3.1,7.1,6.1-4.3c0,0,21.5-65.8,77.8-127.5c0,0,9,55.5,35.7,142.9c0,0,31.1,73,21.9,193.1c0,0,63.2-74.9,183.4-75.9
			c0,0,80.4,7.1,132.3-29.5c0,0,129.3-86.6,82.5-258.1c0,0-31.2-113.1-169.3-89.9c0,0,141.9-18.7,154.7,163.3
			c0,0,9.4,161.2-152.7,191.2c0,0-145.5,8.1-223.7,86.9c0,0,24-133-20.4-228.5c0,0-33.9-67.9-39.4-100.7c0,0,141-121.1,127.4-259.4
			c0,0,86.2,0.9,122,145c0,0,6.3,4.4,6.3-7.5c0,0-9.7-155.3-129.6-145.7c0,0,0-153.6-131.8-173c0,0-79-13.2-129.4,102.4
			c0,0,46.9-110.2,140.1-82c0,0,110.7,28.8,96.7,207.8c0,0-5.9,90.7-91,176.9c0,0-60.1,68.1-96.9,169.6c0,0-44.1-85.3-134.7-122
			c0,0-80.2-34.8-113.6-102.3c0,0-50.8-80.7-15.3-191.3c0,0,26.4-80,104.4-90.4c0,0,61.2-7.3,117,49.4c0,0,5.7,2.2,1.6-2.8
			C258.5,145.1,251.5,136.4,246.2,131.7z"/>
	</g>
</g>
</svg>
