<?xml version="1.0" encoding="utf-8"?>
<!-- Generator: Adobe Illustrator 28.1.0, SVG Export Plug-In . SVG Version: 6.00 Build 0)  -->
<svg version="1.1" xmlns="http://www.w3.org/2000/svg" xmlns:xlink="http://www.w3.org/1999/xlink" x="0px" y="0px"
	 viewBox="0 0 850.4 850.4" style="enable-background:new 0 0 850.4 850.4;" xml:space="preserve">
<style type="text/css">
	.st0{display:none;}
	.st1{display:inline;}
	.st2{display:inline;opacity:0.59;}
	
		.st3{fill:url(#path3854_00000140011830232547670600000004389972502339919276_);stroke:#000000;stroke-width:4.4797;stroke-miterlimit:3.9409;}
	.st4{fill:url(#path3854-8_00000110472938456950992560000015748815639060017044_);stroke:#5B3316;stroke-width:1.5467;}
	.st5{fill:none;stroke:#5B3316;stroke-width:1.746;}
	.st6{stroke:#5B3316;stroke-width:0.873;stroke-miterlimit:10;}
	.st7{fill-opacity:0.3137;stroke:#5B3316;stroke-width:0.873;stroke-miterlimit:10;}
	.st8{fill-opacity:0.3137;stroke:#5B3316;stroke-width:1.746;}
	.st9{fill:#C45C16;stroke:#000000;stroke-width:5;stroke-miterlimit:3.9409;}
	.st10{fill:#EA8B49;stroke:#AA3D00;stroke-width:4.736;stroke-miterlimit:3.9409;}
	.st11{fill:#B24F0B;}
	.st12{fill:none;stroke:#B24F0B;stroke-width:15.2787;}
</style>
<g id="svg2" xmlns:rdf="http://www.w3.org/1999/02/22-rdf-syntax-ns#" xmlns:dc="http://purl.org/dc/elements/1.1/" xmlns:cc="http://creativecommons.org/ns#" xmlns:svg="http://www.w3.org/2000/svg" class="st0">
	<g id="flowRoot3006" class="st1">
	</g>
	<g id="g4110" class="st2">
		
			<linearGradient id="path3854_00000183213498606884588950000000327207877818479287_" gradientUnits="userSpaceOnUse" x1="59.9" y1="370.2401" x2="904.511" y2="370.2401" gradientTransform="matrix(0.9852 0 0 -0.9852 -49.1852 789.9678)">
			<stop  offset="0" style="stop-color:#D47440"/>
			<stop  offset="1.562500e-02" style="stop-color:#D27341"/>
			<stop  offset="3.125000e-02" style="stop-color:#DD7D48"/>
			<stop  offset="6.250000e-02" style="stop-color:#F27733"/>
			<stop  offset="0.125" style="stop-color:#DF6E2F"/>
			<stop  offset="0.25" style="stop-color:#E8996E"/>
			<stop  offset="0.5" style="stop-color:#DD5C10"/>
			<stop  offset="0.75" style="stop-color:#DB6C2A"/>
			<stop  offset="1" style="stop-color:#DE9260"/>
		</linearGradient>
		
			<path id="path3854" style="fill:url(#path3854_00000183213498606884588950000000327207877818479287_);stroke:#000000;stroke-width:4.4797;stroke-miterlimit:3.9409;" d="
			M840.5,425.2c0,229.4-185.9,415.3-415.3,415.3C195.8,840.5,9.8,654.6,9.8,425.2C9.8,195.8,195.8,9.9,425.2,9.9
			C654.5,9.9,840.5,195.8,840.5,425.2z"/>
		
			<linearGradient id="path3854-8_00000074433663130234608740000006590845306393173645_" gradientUnits="userSpaceOnUse" x1="99.2013" y1="561.7575" x2="846.761" y2="191.6662" gradientTransform="matrix(0.9085 0 0 -0.9055 -8.2341 763.2293)">
			<stop  offset="0" style="stop-color:#FF8C4E"/>
			<stop  offset="1.562500e-02" style="stop-color:#FF8C4E"/>
			<stop  offset="3.125000e-02" style="stop-color:#FF8643"/>
			<stop  offset="6.250000e-02" style="stop-color:#FF8E50"/>
			<stop  offset="0.125" style="stop-color:#FF7325"/>
			<stop  offset="0.25" style="stop-color:#FFAC7E"/>
			<stop  offset="0.5" style="stop-color:#FF6F1B"/>
			<stop  offset="0.75" style="stop-color:#FF8E4A"/>
			<stop  offset="1" style="stop-color:#FFAE7A"/>
		</linearGradient>
		
			<path id="path3854-8" style="fill:url(#path3854-8_00000074433663130234608740000006590845306393173645_);stroke:#5B3316;stroke-width:1.5467;" d="
			M808.1,424c0,210.8-171.5,381.7-383,381.7c-211.5,0-383-170.9-383-381.7c0-210.8,171.5-381.7,383-381.7
			C636.7,42.2,808.1,213.1,808.1,424z"/>
		<g id="text2998" transform="matrix(1.0893 0 -.19541 .91798 -.000014286 -11.429)">
			<path id="path4194" class="st5" d="M492.9,147.6v9.2h-3.9c-0.6-1.8-1.2-3.1-1.6-3.7c-0.4-0.6-1-1.2-1.6-1.5
				c-0.6-0.4-1.7-0.6-3.1-0.6h-6.3v13.8h3.8c0.8,0,1.5-0.1,2-0.4c0.5-0.2,0.9-0.6,1.2-1.2c0.3-0.6,0.6-1.4,0.9-2.6h3.3v11.7h-3.3
				c-0.3-1.1-0.6-2-0.9-2.5c-0.3-0.6-0.7-1-1.2-1.3c-0.5-0.2-1.1-0.4-2-0.4h-3.8v15.4h6.2c0.7,0,1.2,0,1.7-0.1
				c0.5-0.1,0.9-0.2,1.2-0.4s0.7-0.5,1.1-0.9c0.3-0.4,0.6-0.8,0.9-1.2c0.3-0.4,0.5-1,0.8-1.7c0.3-0.7,0.6-1.6,1-2.9h3.9l-0.5,10.5
				h-28.3v-1.9c0.7-0.2,1.3-0.4,1.7-0.6c0.4-0.2,0.7-0.5,0.9-0.9c0.2-0.4,0.3-0.9,0.4-1.5c0.1-0.6,0.1-1.4,0.1-2.3v-24.8
				c0-0.9,0-1.7-0.1-2.3c0-0.6-0.2-1.1-0.4-1.5c-0.2-0.4-0.5-0.7-0.9-0.9c-0.4-0.2-1-0.5-1.7-0.6v-1.9L492.9,147.6z"/>
			<path id="path4196" class="st5" d="M523.8,154.9c0-1.4-0.1-2.4-0.2-3c-0.1-0.6-0.4-1-0.7-1.4c-0.4-0.3-1.1-0.7-2.1-1v-1.9h12.7
				v1.9c-0.7,0.2-1.2,0.4-1.6,0.6c-0.4,0.2-0.7,0.5-0.9,0.9c-0.2,0.4-0.3,0.9-0.4,1.5c-0.1,0.6-0.1,1.4-0.1,2.3v18
				c0,2.4-0.2,4.4-0.6,6c-0.4,1.6-1,3-1.8,4c-0.8,1.1-1.8,2-3,2.6s-2.5,1.2-4,1.4c-1.5,0.3-3.2,0.4-5,0.4c-2.7,0-5-0.3-6.9-0.8
				c-1.9-0.6-3.4-1.4-4.6-2.6s-2.1-2.5-2.6-4.2c-0.6-1.6-0.8-3.7-0.8-6.3v-18.6c0-0.9,0-1.7-0.1-2.3c0-0.6-0.2-1.1-0.4-1.5
				c-0.2-0.4-0.5-0.7-0.9-0.9c-0.4-0.2-1-0.5-1.7-0.6v-1.9h15.1v1.9c-0.8,0.2-1.4,0.4-1.7,0.7c-0.4,0.2-0.7,0.5-0.8,0.9
				c-0.2,0.3-0.3,0.8-0.4,1.4c-0.1,0.6-0.1,1.4-0.1,2.4v19c0,1.5,0.1,2.9,0.3,4.1s0.5,2.3,1.1,3.2c0.5,0.9,1.2,1.6,2.1,2.1
				c0.9,0.5,2.1,0.7,3.5,0.7c2,0,3.4-0.4,4.4-1.2c1-0.8,1.6-1.9,2-3.3c0.4-1.4,0.6-3.5,0.6-6.3L523.8,154.9z"/>
			<path id="path4198" class="st5" d="M553.4,187h-15.1v-1.9c0.7-0.2,1.3-0.4,1.7-0.6c0.4-0.2,0.7-0.5,0.9-0.9
				c0.2-0.4,0.3-0.9,0.4-1.5c0.1-0.6,0.1-1.4,0.1-2.3v-24.8c0-0.9,0-1.7-0.1-2.3c0-0.6-0.2-1.1-0.4-1.5c-0.2-0.4-0.5-0.7-0.9-0.9
				c-0.4-0.2-1-0.5-1.7-0.6v-1.9h16.8c2.3,0,4.2,0.2,5.8,0.5c1.6,0.3,3,0.8,4.2,1.5c1,0.5,1.8,1.2,2.5,2c0.7,0.8,1.2,1.8,1.6,2.9
				c0.4,1.1,0.6,2.3,0.6,3.8c0,1.9-0.3,3.5-1,4.8c-0.7,1.3-1.6,2.5-2.7,3.4c-1.1,0.9-2.6,1.7-4.5,2.5v0.3c1.4,0.6,2.6,1.4,3.5,2.5
				c0.9,1,1.8,2.3,2.5,3.9l1.8,3.9c0.8,1.7,1.6,3.1,2.4,3.9c0.8,0.9,1.7,1.4,2.8,1.6v1.9h-11.1c-1.1-1.5-2.4-3.8-3.8-6.9l-2.2-4.9
				c-0.7-1.5-1.2-2.5-1.7-3.1c-0.5-0.6-1-1-1.5-1.3c-0.5-0.2-1.3-0.3-2.3-0.3h-1.7v9.3c0,1.4,0.1,2.4,0.2,3c0.1,0.6,0.4,1,0.8,1.4
				c0.4,0.3,1.1,0.7,2.1,0.9L553.4,187z M550.3,151.1v16h2.9c1.5,0,2.8-0.2,3.8-0.6c1-0.4,1.8-1,2.4-1.7c0.6-0.7,1-1.6,1.2-2.6
				c0.2-1,0.3-2.1,0.3-3.3c0-2.6-0.6-4.6-1.8-5.9c-1.2-1.3-3.1-2-5.5-2C551.9,151,550.8,151,550.3,151.1L550.3,151.1z"/>
			<path id="path4200" class="st5" d="M594.6,187.4c-5.6,0-9.9-1.7-12.7-5c-2.8-3.3-4.2-8.2-4.2-14.8c0-4.3,0.7-8,2.1-11.1
				c1.4-3.1,3.4-5.4,6.1-7c2.7-1.6,5.8-2.4,9.5-2.4c5.7,0,10.1,1.6,12.9,4.9c2.9,3.3,4.3,8.2,4.3,14.7c0,3.6-0.4,6.7-1.3,9.3
				c-0.9,2.6-2.1,4.7-3.6,6.4s-3.5,2.9-5.7,3.7C599.7,187,597.3,187.4,594.6,187.4L594.6,187.4z M586.8,166.9
				c0,5.8,0.7,10.1,2.1,12.9c1.4,2.8,3.5,4.2,6.4,4.2c1.5,0,2.7-0.4,3.8-1.2c1-0.8,1.9-1.9,2.5-3.3c0.6-1.4,1.1-3.1,1.4-5.1
				c0.3-2,0.4-4.1,0.4-6.5c0-3.8-0.3-7-0.9-9.6c-0.6-2.6-1.5-4.5-2.7-5.8c-1.2-1.3-2.8-2-4.7-2c-2.8,0-4.9,1.3-6.2,4
				C587.4,157.2,586.8,161.3,586.8,166.9L586.8,166.9z"/>
		</g>
		<g id="text3023" transform="matrix(1.0497 0 -.15038 .95261 -.000014286 -11.429)">
			<path id="path4191" class="st5" d="M518.5,193.3v15.9h-6.8c-1.1-3.2-2-5.3-2.8-6.4c-0.8-1.1-1.7-2-2.7-2.6c-1.1-0.6-2.9-1-5.4-1
				h-10.9v24h6.6c1.5,0,2.6-0.2,3.4-0.6c0.8-0.4,1.5-1.1,2.1-2.1c0.5-1,1.1-2.5,1.6-4.5h5.6v20.3h-5.6c-0.5-1.9-1-3.4-1.5-4.4
				c-0.6-1-1.2-1.7-2-2.2c-0.8-0.4-2-0.6-3.5-0.6h-6.6v26.7h10.8c1.2,0,2.1-0.1,2.9-0.2c0.8-0.1,1.5-0.4,2.1-0.8
				c0.6-0.4,1.2-0.9,1.8-1.5c0.6-0.6,1.1-1.3,1.5-2c0.4-0.7,0.9-1.7,1.4-2.9c0.5-1.2,1-2.8,1.6-4.9h6.8l-0.9,18.2H469v-3.3
				c1.2-0.3,2.2-0.7,2.9-1.1c0.7-0.4,1.2-0.9,1.6-1.6c0.3-0.7,0.6-1.5,0.7-2.6c0.1-1,0.1-2.4,0.1-4v-43c0-1.6,0-2.9-0.1-3.9
				c-0.1-1.1-0.3-1.9-0.6-2.6c-0.3-0.7-0.9-1.2-1.6-1.6c-0.7-0.4-1.7-0.8-3-1.1v-3.3L518.5,193.3z"/>
		</g>
		<g id="text3039" transform="matrix(1.0562 0 -.15231 .94680 -.000014286 -11.429)">
			<path id="path4188" class="st5" d="M585.9,194.5v3.3c-1.3,0.4-3.7,0.3-5.2,1.1c-0.6,0.3-1,0.7-1.4,1.2c-0.4,0.5-0.7,1.3-0.9,2.3
				c-0.2,1-0.3,2.6-0.3,4.7v56h-12.8L542.7,224c-3-5.3-5.3-9.4-6.7-12.5h-0.5c0.3,7.2,0.5,14.8,0.5,22.8v16.2c0,2.5,0.1,4.3,0.4,5.3
				c0.3,1,0.7,1.8,1.4,2.4c0.7,0.6,1.9,1.1,3.7,1.6v3.3h-19v-3.3c1.2-0.3,2.2-0.7,2.9-1.1c0.7-0.4,1.3-0.9,1.6-1.6s0.6-1.5,0.7-2.6
				s0.2-2.3,0.2-3.9v-43.4c0-2.5-0.1-4.2-0.3-5.2c-0.2-1-0.7-1.7-1.4-2.4c-0.7-0.6-6.4-1.2-8.1-1.7l-0.5-3.3h25.3l17.8,30.9
				c1.1,1.9,2.5,4.6,4.3,7.9c1.8,3.3,3.3,6.4,4.7,9.4h0.8c-0.4-8-0.6-16.7-0.6-26.2v-9.3c0-2.2-0.1-3.8-0.3-4.7
				c-0.2-1-0.4-1.7-0.8-2.2c-0.4-0.5-0.9-1-1.4-1.3c-2.8-1.3-7.4-0.7-8.8-1.1l-0.4-3.3L585.9,194.5z"/>
		</g>
		<g id="text3043-0" transform="matrix(1.1466 0 -.20567 .87218 -3.1881 -11.576)">
			<path id="path4182-2" class="st5" d="M437.9,176.2l-2.4,37.7h-5.5c-1.3-6.2-6.7-24.6-9.6-27.5c-2.9-2.9-6.6-4.4-11.2-4.4
				c-8.7,0-18.8,4.2-24.7,12.2c-5.5,7.4-8.2,18.9-7.9,30.4c0.3,14.5,3.5,31.7,11.9,44.1c3,4.4,7.7,6.9,11.8,8.2
				c6.5,2.1,13.3,1.5,18.9-1.1c3.9-1.8,6.9-5.5,9.2-9.6c2.7-4.8,4.3-11.9,5.4-16.8l6,3.9l-1.9,30.4c-6.1,1.4-11.6,2.5-16.6,3.1
				c-5,0.7-14,2.3-21.3,0.4c-6-1.6-12.3-4.8-17.8-9.7c-5.9-5.3-11.2-12.5-14.9-20.3c-5.2-11.3-8.5-24.1-8.9-36
				c-0.3-7.7,1.3-15.2,4.1-21.2c4.1-8.9,10.6-15.9,17.9-20.5c8.3-5.2,17.3-7.2,28.3-7.2c5.6,0,10.6,0.3,15.1,0.9
				C428.3,173.8,433,174.8,437.9,176.2L437.9,176.2z"/>
		</g>
		<g id="text3051" transform="matrix(1.0023 0 -.17980 .99768 -.000014286 -11.429)">
			<path id="path4185" class="st5" d="M637.9,249.7v-3.1c1.3-0.2,2.4-0.5,3.2-0.9c0.8-0.4,1.4-0.9,1.7-1.5c0.4-0.7,0.6-1.5,0.7-2.6
				c0.1-1,0.1-2.3,0.1-3.8v-47.5h-3.9c-1.9,0-3.4,0.2-4.4,0.7c-1,0.4-1.9,1.1-2.6,2.1c-0.7,1-1.4,2.2-1.9,3.8
				c-0.5,1.6-1,3.1-1.3,4.6H623v-16.7h56.1v16.7h-6.5c-0.6-2.2-1.1-3.7-1.4-4.8c-0.4-1-0.7-1.9-1.2-2.6c-0.4-0.7-0.9-1.3-1.4-1.8
				c-0.5-0.5-1-0.9-1.5-1.1c-0.5-0.3-1.2-0.5-2-0.6c-0.8-0.1-1.9-0.2-3.2-0.2h-3.4v47.5c0,1.7,0,3,0.1,3.8c0.1,0.9,0.3,1.6,0.5,2.1
				c0.3,0.5,0.6,1,0.9,1.3c0.4,0.3,0.9,0.6,1.5,0.9c0.7,0.3,1.5,0.5,2.6,0.6v3.1L637.9,249.7z"/>
		</g>
		<path id="path3064" class="st6" d="M654.6,224.5c-0.8,0-1.6,0.3-2.3,1L493.9,375.3c-0.2,0.2-0.3,0.4-0.5,0.7
			c-58.6,26.7-99.4,85.7-99.4,154.3c0,87.8,66.9,160.1,152.5,168.7c5.7,0.6,11.4,0.9,17.2,0.9c4.1,0,8.1-0.2,12.1-0.4
			c1.3-0.1,2.5-0.2,3.7-0.3c86.3-8,153.9-80.5,153.9-168.8c0-29.7-7.7-57.6-21.1-81.9l33.4-31.6c1.3-1.2,1.5-3.3,0.3-4.6l-1.5-1.6
			c-1.2-1.3-3.3-1.2-4.6,0L708,440.9c-6-9.6-13-18.6-20.7-26.8l48.2-45.6c1.3-1.2,1.5-3.3,0.3-4.6l-1.5-1.6c-1.2-1.3-3.3-1.2-4.6,0
			L681.3,408c-8.1-7.8-17-14.8-26.6-20.9l63.3-59.8c1.3-1.2,1.5-3.3,0.3-4.6l-1.5-1.6c-1.2-1.3-3.3-1.2-4.6,0l-64.9,61.4
			c-10-5.6-20.5-10.3-31.6-13.8l82.1-77.7c1.3-1.2,1.5-3.3,0.3-4.5l-1.5-1.6c-1.2-1.3-3.3-1.2-4.6,0l-85.7,81.1
			c-9-2.3-18.4-3.9-27.9-4.7c-1.6-0.1-3.2-0.3-4.9-0.4c-1.3-0.1-2.7-0.1-4-0.2l108.7-102.8c1.3-1.2,1.5-3.3,0.3-4.6l-1.5-1.6
			c-1.2-1.3-3.3-1.2-4.6,0L557.1,360.9c-9.4,0.4-18.7,1.5-27.6,3.4c-0.9,0.2-1.9,0.4-2.8,0.6c-0.2,0-0.3,0.1-0.5,0.1
			c-0.6,0.1-1.2,0.3-1.9,0.4c-1,0.2-2,0.5-3,0.7c0,0-0.1,0-0.1,0c-1,0.3-2.1,0.6-3.1,0.8c-1.6,0.4-3.1,0.9-4.7,1.3l144.6-136.7
			c1.3-1.2,1.5-3.3,0.2-4.5l-1.5-1.6C656.2,224.8,655.4,224.5,654.6,224.5L654.6,224.5z M654.6,226.3c0.4,0,0.7,0.1,1,0.4l1.5,1.6
			c0.5,0.5,0.5,1.4-0.2,2.1L509.7,369.6l0,0c-4.1,1.4-8.1,2.9-12,4.5l155.8-147.4C653.8,226.4,654.2,226.3,654.6,226.3L654.6,226.3z
			 M674.5,252.8c0.4,0,0.8,0.1,1,0.4l1.5,1.6c0.5,0.5,0.5,1.5-0.2,2.1l-110,104c-1.1,0-2.2-0.1-3.2-0.1c-1.3,0-2.7,0-4,0.1
			l113.8-107.6C673.8,253,674.1,252.8,674.5,252.8L674.5,252.8z M694.2,285.8c0.4,0,0.8,0.1,1,0.4l1.5,1.6c0.5,0.5,0.5,1.4-0.2,2.1
			l-82.9,78.4c-1.8-0.6-3.7-1.1-5.5-1.6l85-80.4C693.4,286,693.8,285.8,694.2,285.8L694.2,285.8z M714.5,322c0.4,0,0.8,0.1,1,0.4
			l1.5,1.6c0.5,0.5,0.5,1.5-0.2,2.1L653,386.4c-1.5-0.9-2.9-1.8-4.4-2.7l64.7-61.2C713.7,322.2,714.1,322,714.5,322L714.5,322z
			 M563.6,362.4c1.1,0,2.2,0,3.2,0.1c0.1,0.1,0.3,0.1,0.4,0.1c12.4,0.3,24.4,1.9,36,4.7c-3.2,0.8-8.2,2.1-11.3,3.4
			c-7.3,2.9-14.3,6.5-20.9,10.7c-4.7,3-9.2,6.4-13.4,10.1c-8.7-10-17.2-19-17.6-19.3c0.4-1.2,0.7-2.2,0.7-2.2c0.2-0.6-0.4-1.2-1-1.1
			c-0.3,0.1-0.6,0.3-0.7,0.7c0,0-0.3,1.3-0.8,2.7c-0.5,1.5-1.3,3.1-2,3.8c-0.8,0.8-2.3,1.1-3.8,1.5c-2.5,0.6-5.3,0.4-8.2,0.3
			c-2.9-0.1-5.8-0.2-8.6,1c-1.8,0.7-3,2.1-4.1,3.3c-1.1,1.3-2.2,2.4-3.5,3c-0.7,0.3-1.8,0.3-2.9,0.3c-1.2,0-2.6,0-3.7,1
			c-0.7,0.7-1,1.6-1.2,2.5c-0.1,0.9-0.2,1.8-0.2,2.6c0,0.8,0,1.6-0.2,2c-0.1,0.5-0.3,0.7-0.7,0.8c-3.5,1.2-10.9,0.8-17.2,0.1
			c-6.3-0.7-11.7-1.8-11.7-1.8c-0.4-0.1-0.9,0.3-1,0.7c-0.1,0.4,0.2,0.9,0.7,1c0,0,5.4,1.1,11.8,1.8c4.6,0.5,9.7,0.9,13.8,0.5
			c0.2,1.6,1.7,11.7,3.9,17.1c0,0,0,0.1,0.1,0.1c-6.3,4-12.5,8.3-18.3,12.9c-7.3,5.7-13.9,12.3-20.4,19c-4.9,5.1-9.4,10.4-13.8,16
			c-4.7,6-9.4,12.1-13.3,18.7c-2.4,4-4.6,8.2-6.6,12.5c-9.5-12.2-18.6-26.2-18.6-26.2c0,0,0-0.1-0.1-0.1c1.4-3.4,2.9-6.8,4.5-10.1
			c0.2-0.4,0.4-0.8,0.6-1.2c0.2-0.5,0.5-1,0.8-1.5c17.3-33.6,45.5-60.6,80-76.2c0.1-0.1,0.2-0.1,0.3-0.2c0,0,0,0,0,0
			c5-2.3,10.2-4.3,15.5-6.1c0.1,0,0.3,0,0.4,0c14.8-4.9,30.6-7.9,47-8.5c0.1,0,0.2,0,0.4-0.1C559.8,362.4,561.7,362.4,563.6,362.4
			L563.6,362.4z M731.9,363.1c0.4,0,0.8,0.1,1,0.4l1.5,1.6c0.5,0.5,0.5,1.5-0.2,2.1L685.9,413c-1.2-1.2-2.3-2.4-3.5-3.6l48.4-45.8
			C731.1,363.3,731.5,363.1,731.9,363.1L731.9,363.1z M606.5,367.9c0,0,0.1,0,0.1,0c2.3,0.6,4.5,1.2,6.8,1.9c0,0,0.1,0,0.1,0.1
			c0.1,0.1,0.1,0.1,0.2,0.2c0,0,1.4,1,3.1,2.5c0.9,2.3,2.5,6.5,2.9,8.9c0.3,1.7,0.6,3.4,0.8,5.1c-0.9,0-1.8-0.1-2.7-0.1
			c-6.1-0.2-12.2-0.1-18.3,0.2c-11.9,0.6-32.4,3.6-39.1,4.6c3.7-3.1,7.6-6,11.6-8.6c6.5-4.2,13.4-7.7,20.6-10.5
			c4.4-1.7,13.9-4,13.9-4L606.5,367.9L606.5,367.9z M618.5,371.8c4.2,1.4,10.9,3.9,19.8,8.2c6.4,3.1,13.1,7.3,19,11.3
			c-5.5-1.1-15.2-3-21.2-3.6c-2.7-0.3-5.4-0.5-8.1-0.7c0.1-0.2,0.1-0.4,0.2-0.7c0.2-2.1-0.6-4.2-1.9-6.2c-1.2-2-3-3.9-4.7-5.6
			C620.4,373.4,619.5,372.7,618.5,371.8L618.5,371.8z M539.4,373.9c1.3,1.3,8.3,8.8,16.1,17.7c-8-0.9-15.9-3.2-24.1-4.1
			c-6.1-0.7-15.7-1-22.3-1.2c1.5-0.8,2.5-2.1,3.6-3.2c1.1-1.3,2.2-2.4,3.5-2.9c2.4-1,5-0.9,7.9-0.8c2.8,0.1,5.8,0.4,8.6-0.3
			c1.5-0.3,3.3-0.6,4.7-1.9C538.3,376.4,538.9,375.1,539.4,373.9L539.4,373.9z M619.6,375.1c0.2,0.2,0.5,0.4,0.7,0.7
			c1.7,1.6,3.3,3.5,4.4,5.3c1.1,1.8,1.7,3.6,1.6,5.1c0,0.3-0.1,0.5-0.2,0.7c-1.3-0.1-2.6-0.1-3.9-0.2c-0.2-1.8-0.5-3.7-0.8-5.5
			C621.1,379.5,620.3,377.2,619.6,375.1L619.6,375.1z M502.3,387.9C502.3,387.9,502.3,387.9,502.3,387.9c0,0,19.4,0.4,28.9,1.4
			c6.9,0.7,13.8,2.6,20.8,3.7c-6.1,1.2-15.2,3.2-21,5.1c-6.4,2.1-12.5,4.8-18.4,8c-4,2.2-7.9,4.4-11.8,6.8
			c-1.9-4.9-3.4-14.6-3.7-16.4c0.9-0.1,1.7-0.4,2.5-0.6c0.9-0.3,1.5-1.1,1.8-2c0.2-0.8,0.3-1.7,0.3-2.5s0-1.7,0.1-2.3
			C502,388.5,502.1,388.2,502.3,387.9L502.3,387.9z M608.6,388.2c4,0,8,0,12,0.2c0.1,0.5,0.1,1,0.1,1.6c-0.2,0.1-0.4,0.2-0.6,0.4
			c-0.9,0.6-1.7,1.4-2,2.5c-0.7,2.2-0.9,4.8-0.4,7.2c0.3,1.6,1,3.2,2.2,4.5c-0.1,0.6-0.3,1.3-0.4,1.9c-4.7-2.6-9.5-4.9-14.5-6.9
			c-9.9-3.9-20.4-6.4-30.9-7.7c-1.4-0.2-2.7-0.2-4-0.2c9.3-1.3,21.6-2.8,29.5-3.2C602.5,388.3,605.6,388.2,608.6,388.2L608.6,388.2z
			 M622.4,388.5c0.5,0,0.9,0.1,1.4,0.1c-0.3,0.1-0.5,0.3-0.8,0.4c-0.2,0.1-0.3,0.2-0.5,0.2C622.4,388.9,622.4,388.7,622.4,388.5
			L622.4,388.5z M626.8,388.7c3,0.2,6.1,0.4,9.1,0.7c8.2,0.8,24.3,4.3,25,4.4c2,1.4,3.8,2.7,5.4,4c14.6,11.1,27.4,25.3,37.6,40.5
			c0,0,0.1,0.1,0.1,0.1c-0.2,0.9-1.8,10.4-4.9,21.9c-1.3,4.9-2.9,10.1-4.6,15.1c-5.3-8.3-11.1-16.3-17.6-23.8
			c-6-6.9-12.7-13-19.6-19c-6.5-5.6-13.2-11-20.4-15.7c-2-1.3-4.1-2.7-6.2-4c-0.4-1-1-2-1.7-2.9c-1.7-2.3-4.2-4.2-6.4-5.5
			c-0.3-0.2-0.7-0.5-1-0.7c0.1-0.5,0.2-1,0.3-1.6c0.7-3.7,0.8-7.6,0.5-11.4c0.4-0.2,0.7-0.3,1.1-0.5c0.9-0.4,1.9-0.9,2.7-1.5
			C626.5,388.9,626.7,388.8,626.8,388.7L626.8,388.7z M620.9,392c0.1,3.4,0,6.8-0.6,10.1c0,0,0,0,0,0.1c-0.4-0.8-0.7-1.6-0.9-2.5
			c-0.4-2.1-0.2-4.4,0.4-6.3C619.9,392.8,620.3,392.4,620.9,392L620.9,392z M569.9,393.4c1.3,0,2.6,0,3.9,0.2
			c10.4,1.3,20.8,3.8,30.5,7.6c5,2,9.9,4.4,14.7,7c-1.5,5.5-3.8,10.9-7.1,15.4c-5.7,7.6-13.1,14.3-21.4,19.2
			c-0.8-1.6-1.5-3.3-2.3-4.9c0.5,0,1,0.1,1.6,0.1c1.7,0,3.4,0,4.8-0.5c0.7-0.2,1.4-0.5,1.9-1c0.5-0.5,0.9-1.1,1-1.9
			c0.4-2.6-0.7-4.7-2.3-6c-1.7-1.3-3.9-2-6.1-2.3c-3.1-0.5-5.7-0.5-7.2-0.4c-0.2-0.3-0.3-0.6-0.5-1c0-0.2,0-0.3,0-0.5
			c0.1-1.4,0.1-3.1-1-4.3c-0.9-1-2-1.9-3.3-2.5c-1.8-3-3.7-5.9-5.6-8.8c-2.9-4.4-7.3-9.8-11.8-15.1
			C563.2,393.8,566.6,393.5,569.9,393.4L569.9,393.4z M557.5,393.9c4.8,5.6,9.5,11.4,12.6,15.9c1.5,2.3,3,4.6,4.4,6.9
			c-1.5-0.4-3.2-0.5-4.7-0.4c-1.3,0.1-2.6,0.3-3.8,0.7c-5.5,1.7-11.1,7.5-15.5,12.8c-4,4.9-6.6,9-7.1,9.8c-0.5-0.2-1.5-0.6-3.3-1.1
			c-2.2-0.6-4.8-1.1-6.8-0.2c-2.2,1-3.4,3.2-4.1,5.4c-0.1,0-0.1-0.1-0.2-0.1c-2.6-1.2-5.1-2.6-7.5-4.3c2.8-4.9,5.7-9.7,8.9-14.3
			c7-9.9,14.9-19.3,23.6-27.8C555.1,396,556.3,394.9,557.5,393.9L557.5,393.9z M554.4,394.2c-0.6,0.5-1.2,1.1-1.7,1.6
			c-8.8,8.5-16.7,18-23.8,28c-3.2,4.6-6.2,9.4-8.9,14.2c-3.1-2.4-6-5.1-8.6-7.9c-4.1-4.6-7.3-10.1-9.8-15.8
			c3.9-2.4,7.9-4.7,11.9-6.9c5.8-3.1,11.9-5.8,18.1-7.9C537.8,397.6,548.7,395.4,554.4,394.2L554.4,394.2z M621.3,405.9
			c0.2,0.1,0.3,0.2,0.5,0.3c2,1.2,4.2,3,5.8,5c-2.2-1.3-4.4-2.6-6.6-3.8C621.1,406.8,621.2,406.4,621.3,405.9L621.3,405.9z
			 M620.5,409.1c3,1.7,5.9,3.5,8.8,5.3c0.3,1.1,0.4,2.2,0.1,3.2c-0.4,1.5-1.4,2.5-2.8,3.3c-1.4,0.8-3.3,1.3-5.3,1.7
			c-2.6,0.6-5.5,1-8.1,2C616.7,420,619,414.6,620.5,409.1L620.5,409.1z M742.2,411.5c0.4,0,0.8,0.1,1,0.4l1.5,1.6
			c0.5,0.5,0.5,1.5-0.2,2.1L711.3,447c-0.8-1.5-1.7-2.9-2.6-4.4l32.4-30.7C741.4,411.7,741.8,411.5,742.2,411.5L742.2,411.5z
			 M500.1,415.4c2.5,5.8,5.8,11.3,10,16c2.7,3,5.7,5.8,9,8.3c-2.6,4.6-5,9.4-7.4,14.1c-0.3,0.7-0.7,1.3-1,2
			c-0.9,0.4-1.8,0.9-2.5,1.4c-1.8,1.3-3.2,3.2-3.8,5.2c-0.3,1-0.1,2,0.2,2.9c0.2,0.6,0.5,1.1,0.8,1.6c-1.2,2.9-2.4,5.8-3.4,8.8
			c-1.2,3.5-2.3,7-3.3,10.5c-1.1,0.1-2.2,0.4-3.3,1c-2.5,1.3-3.6,3.9-4.7,6.3c-1,2.4-1.9,4.7-3.6,6c-2.7,2.1-7.1,2.2-11.4,2.6
			c-2.1,0.2-4.3,0.5-6.1,1.2s-3.5,1.9-4.4,3.8c-0.9,1.9-1,3.7-0.5,5.1c0.4,1.5,1.3,2.7,2.3,3.7c2,2.1,4.2,3.8,4.6,5.9
			c0.4,2-0.1,4.2-0.3,6.6c-0.1,0.6-0.3,1.3-0.5,2c-11.7-6.7-22.6-15.3-32.4-24.6c-3.1-3-6.8-7.2-10.3-11.7c2.1-4.5,4.4-8.9,6.9-13.1
			c3.8-6.5,8.5-12.5,13.2-18.4c4.3-5.5,8.8-10.8,13.7-15.9c6.4-6.6,13-13.1,20.2-18.8C487.9,423.6,493.9,419.3,500.1,415.4
			L500.1,415.4z M631.3,415.6c1.5,1,3.1,2,4.6,3c7.1,4.6,13.7,10,20.2,15.5c6.8,5.9,13.5,12,19.4,18.8c6.7,7.7,12.7,16.1,18.2,24.7
			c-2.4,6.6-5.2,12.7-8.3,16.9c-15.2,21.1-38.8,36.5-62.9,46.5c-1.5,0.6-3,1.2-4.5,1.7c-1.3-10.4-3.1-20.8-5.3-31
			c-3.9-18.4-8.9-36.6-15.9-54.1c-1.6-4.1-3.4-8.1-5.2-12.1c0.8,0,1.7,0,2.6,0c2.3,0.1,4.7,0.1,6.7-1.2c2.9-1.9,4.2-5.1,5.4-8.2
			s2.4-6.1,4.5-8c2.4-2.2,6.8-2.9,10.9-3.8c2.1-0.4,4.1-1,5.7-1.9c1.7-0.9,3-2.3,3.6-4.3C631.4,417.2,631.4,416.4,631.3,415.6
			L631.3,415.6z M569.8,418.1c2.1-0.1,4.3,0.2,6.1,1c1.2,2,2.5,4.1,3.6,6.2c-0.1,0.8-0.2,1.4-0.2,1.4c-0.1,0.5,0.4,1.1,1,1
			c0,0,0.3,0,0.6-0.1c1.5,2.7,2.9,5.4,4.3,8.2c-0.9-0.1-1.7-0.2-1.7-0.2c-0.4-0.1-0.9,0.2-1,0.6c0,0-1.8,5.6-4.8,11.4
			c-0.2,0.3-0.4,0.7-0.5,1c-0.4,0.8-0.7,1.3-1.1,2c-2.8,4.7-6.3,9-9.9,9.9c-1.4,0.4-4-0.8-6.2-2.3c-2.1-1.5-3.8-3.1-3.8-3.1
			c-0.5-0.5-1.6,0.1-1.5,0.8c0,0,0.4,2,0.4,4.3c0,2.3-0.4,4.8-1.3,5.7c-0.4,0.4-0.9,0.6-1.6,0.6c-0.7,0-1.6-0.1-2.5-0.2
			c-0.9-0.1-1.9-0.3-2.9-0.3c-1,0-2,0.3-2.8,1c-1.3,1.2-2.3,2.9-2.8,4.7s-0.5,3.8,0.4,5.5c0.6,1.1,1.7,1.7,2.8,2
			c1.1,0.3,2.4,0.3,3.5,0.3c1.2,0,2.3,0.1,3.2,0.3c0.9,0.2,1.5,0.5,1.9,1.1c1.2,1.9,1.3,4.4,0.8,6.9c-0.5,2.5-1.7,5.1-3.1,7
			c-0.7,0.9-1.8,1.4-3.3,1.8c-1.4,0.4-3.1,0.8-4.5,1.8c-2.6,2-4,4.9-6,6.8c-5.1,4.8-12,7.9-17,13.5c-1.3,1.4-1.9,3.3-2.6,4.9
			c-0.7,1.6-1.4,2.9-2.6,3.5c-0.8,0.4-2.1,0.1-3.6-0.4c-0.8-0.2-1.5-0.5-2.3-0.5c-0.8-0.1-1.7,0.1-2.5,0.7c-0.9,0.7-1.4,1.7-1.5,2.8
			c-0.2,1-0.1,2.1-0.1,3.1s0.1,2,0,2.8c-0.1,0.8-0.3,1.4-0.8,1.8c-1.1,0.9-2.7,0.8-4.6,0.6c-2-0.3-4.2-0.7-5.9,0.1
			c-1.3,0.6-2,2.2-2.7,3.4c-0.2,0.3-0.6,0.7-0.8,0.9c-0.3,0.3-0.9,0.5-1.4,0.5c-0.6,0-1.2-0.2-1.8-0.5c-0.6-0.3-0.9-0.9-1.3-1.4
			c-0.6-0.7-1.2-1.4-2-2.1c-1.2-1-2-1.2-3.1-1.5c-1.5-0.3-3.3-0.1-4.6,0c-0.9,0.1-1.7,0.1-2.3,0c-0.6-0.1-1.1-0.3-1.4-0.8
			c-0.3-0.4-0.4-0.8-0.4-1.3s0.2-1.3,0.4-1.9c0.2-0.6,0.4-1.2,0.6-1.8c0.3-0.9,0.6-1.8,0.7-2.8c0.2-2.2,0.8-4.6,0.3-7.1
			c-0.6-3-3.2-4.9-5.1-6.8c-0.9-1-1.6-1.9-2-3s-0.3-2.3,0.5-3.9c0.7-1.5,1.8-2.4,3.4-3c1.6-0.6,3.5-0.9,5.6-1.1
			c4.2-0.4,9-0.5,12.3-3c2.2-1.7,3.2-4.4,4.2-6.7c1-2.4,2-4.4,3.8-5.4c0.6-0.3,1.3-0.5,1.9-0.7c0.6-0.1,1.3-0.2,1.9-0.2
			c2,0,3.8,0.4,5.9,0.9c3.6,0.8,7.5,1.8,11,0.3c8.5-3.5,14.9-11.5,18.9-19.6c1.1-2.2,1.5-5.4,1.7-8.1c0.2-2.7,0.2-5,0.2-5
			c0-0.4-0.3-0.8-0.7-0.9c-0.4-0.1-0.8,0.1-1,0.5c0,0-0.8,1.6-2,3.2c-1.2,1.6-2.9,3.2-3.9,3.4c-0.7,0.1-1.6-0.1-2.3-0.4
			c-0.8-0.4-1.3-1-1.5-1.5c-0.2-0.5-0.2-1,0.1-1.6c0.2-0.6,0.6-1.2,1.1-1.9c1-1.3,2.2-2.8,2.6-4.6c0.2-1.2,0.1-2.3-0.1-3.4
			c-0.1-1-0.2-1.9,0-2.7c0-0.2,0.1-0.3,0.1-0.5l0.5-1.7c0.7-2,1.7-3.8,3.2-4.5c1.1-0.5,3.6-0.2,5.6,0.3c2.1,0.5,3.8,1.3,3.8,1.3
			c0.4,0.1,0.9,0,1.1-0.4c0,0,3-4.9,7.3-10.2c4.3-5.3,10-10.9,14.7-12.3C567.5,418.3,568.7,418.1,569.8,418.1L569.8,418.1z
			 M582.8,427.5c1.6,0,3.8,0,5.9,0.4c2.1,0.3,4,1,5.3,2c1.3,1,2,2.3,1.7,4.4c0,0.3-0.2,0.6-0.5,0.8s-0.7,0.5-1.3,0.6
			c-1.1,0.3-2.7,0.5-4.3,0.4c-0.9,0-1.8-0.1-2.6-0.2C585.8,433.2,584.4,430.3,582.8,427.5L582.8,427.5z M605.7,433.3
			c-0.3,0.7-0.6,1.4-0.8,2.1c-1.2,3.1-2.5,5.9-4.8,7.4c-1.5,1-3.5,1-5.7,0.9c-0.7,0-1.4-0.1-2.1-0.1
			C597.1,440.8,601.6,437.3,605.7,433.3L605.7,433.3z M583.9,437.3c0.3,0.1,1.1,0.2,2.2,0.4c1,2,1.9,4,2.8,5.9
			c-2.3,1.3-4.8,2.5-7.2,3.5c-0.7,0.3-1.5,0.6-2.2,0.8C582.1,442.7,583.6,438.2,583.9,437.3L583.9,437.3z M705.3,440.6
			c5.9,9.5,15.7,28.8,19.6,43.3c4.7,17.2,6.6,34.6,6.5,48.4c0,0,0,0,0,0c0,0,0,0,0,0c-0.2,0-0.8-0.1-1.5-0.2
			c-0.7-0.2-1.5-0.4-2.3-0.5c-0.8-0.1-1.6-0.2-2.4,0.1c-1.2,0.4-2,1.2-2.8,1.9c-0.7,0.7-1.4,1.5-2.1,1.9c-0.3,0.2-0.9,0.3-1.6,0.4
			c-1.1-6.3-2.8-12.5-4.6-18.6c-1.9-6.3-4.2-12.6-6.9-18.7c-3.3-7.3-7.1-14.4-11.4-21.2c2-5.5,3.7-11.2,5.1-16.6
			C703.1,451.9,704.6,444.2,705.3,440.6L705.3,440.6z M520.5,440.8c2.4,1.7,5,3.2,7.6,4.4c0.1,0.1,0.3,0.1,0.4,0.2
			c-0.1,0.3-0.2,0.5-0.2,0.8c-0.3,1.2-0.2,2.3,0,3.4c0.1,1,0.3,2,0.1,2.8c-0.2,1.2-1.3,2.5-2.3,4c-0.5,0.7-1,1.4-1.3,2.3
			c-0.3,0.8-0.4,1.8-0.1,2.7c0.4,1.2,1.4,2,2.4,2.5c1.1,0.5,2.3,0.8,3.4,0.6c2.1-0.4,3.7-2.3,5-4.1c0.2-0.3,0.2-0.3,0.4-0.6
			c0,0.7,0,0.7-0.1,1.6c-0.2,2.6-0.7,5.8-1.6,7.4c-3.8,7.8-10.1,15.5-18,18.8c-2.9,1.2-6.3,0.4-10-0.4c-1.9-0.4-3.8-0.9-5.8-0.9
			c1-3.3,2-6.6,3.1-9.9c0.8-2.6,1.8-5.1,2.9-7.6c0.7,1.1,1.3,2.1,1.2,3.1c-0.1,1.4-1.2,2.8-2.6,4.2s-2.8,3.1-2.7,5.4
			c0.1,1.1,0.4,2.1,1,3.1c0.6,0.9,1.5,1.8,2.6,2c2.2,0.5,4.1-0.7,5.6-2c1.6-1.3,3.1-2.8,4.5-3.5c0.5-0.2,1.5-0.3,2.5-0.5
			c0.5-0.1,1-0.2,1.5-0.5c0.5-0.2,1-0.7,1.2-1.2c0.5-1,0.4-2,0.2-2.9c-0.3-0.9-0.7-1.8-1.3-2.6c-1-1.7-2.1-3.3-2.3-4.6
			c-0.2-1.3,0.3-2.8,0.7-4.4s0.8-3.4,0-5.2c-0.8-1.8-2.5-3.7-4.7-3.7c-0.4,0-0.8,0-1.2,0.1c0.1-0.2,0.2-0.4,0.3-0.5
			C515.6,449.9,518,445.3,520.5,440.8L520.5,440.8z M589.9,445.7c1.9,4.1,3.7,8.3,5.3,12.5c7,17.3,12,35.5,15.9,53.8
			c2.2,10.3,3.9,20.8,5.3,31.3c-12.1,4.2-25,6.4-37.9,7.4c-1.1-2.7-1.9-6-1.8-9.2c0-3.2,0.9-6.1,2.8-8.1c1.1-1.1,2.6-1.5,4.5-1.4
			s4.1,0.6,6.4,1.1c2.2,0.5,4.5,1,6.6,1c2.1,0,4.1-0.7,5.3-2.5c0.5-0.7,0.5-1.6,0.4-2.3c-0.2-0.8-0.6-1.4-1-2.1
			c-0.8-1.4-1.9-2.7-2.2-3.8c-0.3-1-0.1-2.6-0.1-4.1c0-0.8-0.1-1.6-0.4-2.3c-0.3-0.8-0.8-1.5-1.7-1.9c-0.8-0.4-1.7-0.4-2.5-0.2
			c-0.8,0.2-1.5,0.6-2.1,1.1c-1.3,0.9-2.6,1.8-3.6,2c-1.6,0.3-3.4-0.2-5.4-0.5c-2-0.4-4-0.6-6,0.4c-2.2,1.2-3.9,4-5.2,6.4
			c-1.1,2.1-1.6,3.4-1.8,4l-6.5-1.4c-0.6-0.1-1.3,0.6-1,1.2c0,0,2.1,4.4,3.9,9.1c0.9,2.3,1.7,4.7,2.2,6.6c0.2,0.9,0.4,1.8,0.4,2.4
			c0,0.4-0.1,0.7-0.1,0.8c0,0-0.3,0.2-0.8,0.4c-0.6,0.2-1.3,0.3-2.2,0.4c-1.8,0.2-4,0.4-6.2,0.4c-2.2,0-4.5,0-6.2-0.2
			c-0.9-0.1-1.6-0.2-2.2-0.4c-0.5-0.1-0.7-0.3-0.8-0.3c0-0.1-0.1-0.4-0.1-0.8c0-0.6,0.1-1.5,0.3-2.4c0.4-2,1.1-4.4,1.9-6.9
			c1.5-4.9,3.2-9.5,3.2-9.5c0.2-0.7-0.7-1.4-1.3-1c0,0-0.7,0.5-1.6,0.9c-0.9,0.4-2,0.8-2.4,0.7c-1.9-0.3-3.9-2-4.7-3.8
			c-0.9-1.9-0.6-4.6,0.1-6.8c0.4-1.3,1.5-2.4,2.7-3.6c1.2-1.2,2.5-2.6,2.8-4.5c0.3-1.6-0.5-3-1.1-4.2c-0.6-1.2-1.1-2.2-0.8-3
			c0.2-0.9,1-1.6,2.1-2.4c1.1-0.8,2.4-1.5,3.3-2.9c1.7-2.7,2.1-5.9,2.7-8.9c0.6-3,1.3-5.5,3.3-7.1c0.4-0.3,1.3-0.3,2.4-0.1
			c0.6,0.1,1.2,0.2,1.8,0.1c0.6,0,1.3-0.2,1.9-0.7c2-1.8,2.2-4.3,2.3-6.8c0.1-2.5,0.1-4.9,1-6.5c1.6-3,4.9-5,7.5-8
			c3.8-4.3,5.7-10.1,10.1-12.6C588.8,446.1,589.3,445.9,589.9,445.7L589.9,445.7z M583.5,448.2c-2.5,3-4.2,6.8-6.6,9.5
			c-2.3,2.7-5.8,4.8-7.7,8.3c-1.2,2.3-1.1,4.9-1.2,7.3s-0.3,4.3-1.7,5.6c-0.2,0.2-0.4,0.3-0.8,0.3c-0.4,0-0.9-0.1-1.5-0.1
			c-1.1-0.2-2.5-0.4-3.7,0.5c-2.6,2-3.4,5.1-4,8.1c-0.6,3-1,6.1-2.4,8.3c-0.6,0.9-1.7,1.6-2.8,2.4c-1.1,0.8-2.4,1.8-2.8,3.4
			c-0.4,1.6,0.3,3,1,4.3c0.6,1.2,1.1,2.3,1,3.1c-0.2,1.3-1.2,2.4-2.3,3.5c-1.2,1.2-2.6,2.4-3.1,4.3c-0.8,2.5-1.3,5.6-0.1,8.2
			c1.1,2.3,3.4,4.4,6.1,4.8c1.2,0.2,2.3-0.3,3.2-0.8c-0.5,1.5-1.3,3.6-2.5,7.4c-0.8,2.5-1.5,5-1.9,7.1c-0.2,1-0.4,1.9-0.4,2.7
			c0,0.8-0.1,1.4,0.5,2c0.5,0.5,1,0.6,1.7,0.8c0.7,0.2,1.5,0.3,2.4,0.4c1.9,0.2,4.2,0.3,6.5,0.2s4.6-0.2,6.5-0.4
			c0.9-0.1,1.8-0.3,2.4-0.5c0.7-0.2,1.2-0.3,1.7-0.8c0.6-0.6,0.6-1.3,0.5-2.1c0-0.8-0.2-1.7-0.5-2.7c-0.5-2-1.4-4.4-2.3-6.8
			c-1.5-3.9-2.7-6.5-3.2-7.6l5.5,1.2c0.4,0.1,0.9-0.2,1-0.5c0,0,0.8-2.1,2-4.4c1.2-2.3,3-4.9,4.5-5.7c1.3-0.7,3-0.6,4.9-0.2
			c1.9,0.3,3.9,0.9,6,0.5c1.7-0.3,3.1-1.4,4.3-2.2c0.6-0.4,1.2-0.7,1.7-0.9c0.5-0.1,0.8-0.1,1.3,0.1c0.5,0.2,0.7,0.5,0.8,0.9
			c0.2,0.4,0.2,1.1,0.2,1.7c0,1.4-0.3,3,0.2,4.6c0.5,1.5,1.6,2.9,2.3,4.2c0.4,0.6,0.7,1.2,0.8,1.6c0.1,0.4,0.1,0.7-0.1,1
			c-0.9,1.3-2.1,1.7-3.9,1.8c-1.8,0-3.9-0.4-6.1-0.9s-4.6-1-6.7-1.1c-2.2-0.1-4.3,0.4-5.8,1.9c-2.4,2.4-3.3,5.8-3.3,9.3
			c0,3.2,0.7,6.5,1.7,9.3c-7.9,0.5-15.8,0.6-23.6,0.4c-20.3-0.6-40.9-3.8-60.1-10.7c0.3-0.5,0.5-0.8,0.9-1c1.3-0.6,3.2-0.3,5.2,0
			c2,0.3,4.3,0.5,6-1c0.9-0.8,1.2-1.8,1.4-2.9c0.1-1,0.1-2.1,0.1-3.1c0-1-0.1-2,0.1-2.8c0.1-0.8,0.4-1.3,0.9-1.7
			c0.3-0.3,0.7-0.3,1.3-0.3c0.6,0,1.2,0.2,2,0.4c1.5,0.4,3.2,1.1,4.9,0.2c1.8-0.9,2.7-2.7,3.4-4.4c0.7-1.7,1.3-3.3,2.3-4.4
			c4.7-5.2,11.6-8.3,16.9-13.4c2.3-2.2,3.7-5,5.9-6.7c1-0.7,2.4-1.1,3.9-1.5c1.5-0.4,3.2-1,4.2-2.4c1.6-2.1,2.8-4.9,3.4-7.7
			c0.6-2.8,0.4-5.8-1.1-8.2c-0.7-1.1-1.8-1.7-2.9-1.9c-1.1-0.3-2.4-0.3-3.5-0.3c-1.2,0-2.3-0.1-3.2-0.3c-0.9-0.2-1.4-0.5-1.7-1.1
			c-0.6-1.1-0.7-2.6-0.3-4.2c0.4-1.5,1.3-3,2.3-3.9c0.4-0.4,1-0.5,1.7-0.5c0.7,0,1.6,0.1,2.5,0.3c0.9,0.1,1.9,0.3,2.9,0.2
			c1,0,2-0.3,2.8-1.1c1.7-1.7,1.8-4.5,1.7-7c0-1.3-0.1-1.6-0.2-2.4c0.7,0.6,1.1,1,2.4,1.9c2.3,1.6,5.1,3.2,7.6,2.5
			c4.9-1.2,8.8-6.6,11.8-12.1c1.4-0.4,2.7-0.8,4-1.3C582.7,448.6,583.1,448.4,583.5,448.2L583.5,448.2z M514.2,456.8
			c1.2,0,2.6,1.3,3.2,2.6c0.5,1.1,0.3,2.5-0.1,4.1c-0.4,1.6-0.9,3.3-0.7,5.1c0.3,2,1.6,3.8,2.5,5.3c0.5,0.8,0.9,1.5,1,2.2
			c0.2,0.6,0.2,1.2-0.1,1.7c-0.1,0.2-0.2,0.3-0.4,0.4c-0.2,0.1-0.6,0.2-1,0.3c-0.8,0.1-1.9,0.2-2.9,0.7c-1.9,0.9-3.4,2.5-4.9,3.8
			c-1.5,1.2-2.8,2-4.1,1.7c-0.5-0.1-1.1-0.6-1.5-1.3c-0.4-0.7-0.7-1.5-0.8-2.2c-0.1-1.4,1-2.6,2.3-4.1s2.9-3.1,3-5.3
			c0.1-2-1.1-3.7-2.2-5.1c-0.5-0.6-0.9-1.3-1.1-1.8c0-0.1-0.1-0.2-0.1-0.2c-0.3-0.6-0.3-1.1-0.2-1.7c0.4-1.6,1.6-3.1,3.1-4.3
			c0.8-0.6,1.6-1.2,2.5-1.5C512.6,456.8,513.5,456.8,514.2,456.8L514.2,456.8z M497.3,463.3c-1.7,0.2-3,1.5-3.9,2.9
			c-1.1,1.7-1.7,3.7-1.8,5.5c-0.1,1.5,0.2,3.4,1,5c0.7,1.6,2,3,3.8,3.1c1.9,0.1,3.5-1.3,4.5-2.9c1-1.6,1.6-3.6,1.7-5.2
			c0.1-1.6-0.1-3.4-0.8-5.1c-0.7-1.7-1.9-3.2-3.7-3.3C497.8,463.3,497.6,463.3,497.3,463.3L497.3,463.3z M497.5,465.1
			c0.1,0,0.3,0,0.4,0c0.9,0.1,1.7,0.9,2.3,2.2c0.6,1.3,0.8,3.1,0.7,4.3c-0.1,1.3-0.7,3.1-1.5,4.4c-0.8,1.3-1.8,2.1-2.9,2
			c-0.9-0.1-1.7-0.9-2.3-2.1c-0.6-1.3-0.9-2.9-0.8-4.1c0.1-1.4,0.7-3.2,1.5-4.6C495.6,466,496.6,465.2,497.5,465.1z M407.6,468.4
			c1.2,1.8,9.5,14.5,18.6,26.1c-1.6,3.5-3.1,7-4.5,10.5c0,0,0,0,0,0c-9.7,25.6-12.1,44.9-10.5,70.1c0.2,3.3,0.5,6.6,1,9.8
			c-5.6-7.2-11.5-15.6-11.5-15.6c-0.1-0.1-0.2-0.2-0.3-0.3c-0.7-3-1.4-6-1.9-9.1c-0.5-2.8-0.9-5.5-1.3-8.3c-0.9-7-1.3-14.1-1.3-21.4
			C395.8,508.4,400,487.5,407.6,468.4L407.6,468.4z M694.9,479.5c3.9,6.4,7.5,13,10.6,19.8c2.7,6,4.9,12.2,6.8,18.4
			c1.8,6,3.5,12.1,4.6,18.3c-0.5,0.1-1,0.2-1.4,0.5c-0.6,0.3-1,1.1-0.9,1.9c1.1,8.5,3.6,14.8,2.6,21.9c-0.5,3.6-0.8,8.5-1.8,12.4
			c-0.5,2-1.2,3.7-2.1,4.9c-0.9,1.2-2,1.9-3.6,2c-1.8,0.1-3.2-0.4-4.5-1.3c-1.2-0.9-2.2-2.3-3-3.6c-1.2-2.1-1.1-4.5-0.9-7.3
			c0.3-2.7,0.8-5.7,0.2-8.5c-0.4-2-1.7-4.4-3.6-6.5c-1.8-2.1-4.2-3.8-6.8-4c-4.8-0.4-7.1,3.1-7.7,4.1c-0.6,0-13.5,0.2-20.2,0.6
			c-2.2,0.1-3.4,1.3-4.7,2.2c-1.3,0.9-2.8,1.7-6.1,1.7c-2.8,0-4.7-0.9-6.5-1.9c-1.8-0.9-3.7-2-6.1-1.6c-2.3,0.4-5,1.7-5.9,4.2
			c-0.5,1.4-0.6,3.2-0.2,4.7c0.4,1.6,1.2,3.1,2.5,4c1.7,1.1,3.5,1.4,5.4,1.1s3.8-0.9,5.7-1.6c3.8-1.4,7.4-3,10.1-2.5
			c2.4,0.4,4.3,2.3,5.5,4.6s1.4,5.1,0.7,7.1c-1.3,3.8-5.2,7.9-10,10.9c-4.8,3.1-10.5,5.1-15.4,5.1c-7.5,0-12.7-2.2-16.8-5.5
			c-0.1-4.1-0.3-8.1-0.5-12.2c-0.6-9.7-1.4-19.4-2.6-29.1c1.6-0.6,3.3-1.2,4.9-1.9c24.4-10.1,48.2-25.6,63.7-47.1
			C689.9,491.4,692.6,485.7,694.9,479.5L694.9,479.5z M427.4,496c3.4,4.3,6.9,8.3,10,11.2c10,9.4,21,18.1,33,25
			c-0.1,0.2-0.1,0.3-0.2,0.5c-0.2,0.8-0.4,1.6-0.4,2.4c0,0.8,0.2,1.7,0.8,2.4c0.6,0.8,1.6,1.3,2.5,1.5c0.9,0.2,1.9,0.1,2.8,0.1
			c1.9-0.2,3.7-0.4,5,0.1c1.1,0.4,2.1,1.7,3.3,2.9c0.6,0.7,1.4,1.4,2.2,1.9c-0.1,0.6-0.2,1.3-0.2,1.9c-0.1,0.5-0.1,0.9-0.2,1.4
			c-6.4,0.2-11.8,2.2-17.4,3.9c-5.8,1.8-13.6,2.8-17.5,7.4c-5.4,6.3-5.9,16.2-3.7,24c1,3.5,3.5,6,6.1,8.3c2.6,2.3,5.3,4.5,6.9,7.1
			c2.3,3.8,3.2,9,4.3,13.9c1.2,4.9,2.7,9.7,6.8,12.7c3.2,2.3,7.1,2.4,10.9,2.2c1.8-0.1,3.7-0.3,5.5-0.4c0.1,0.6,0.2,1.2,0.3,1.8
			c0.7,4.5,1.6,9.1,2.5,13.6c-14.2-5.2-27.7-12.8-40.2-21.3c-11.9-8-22.5-18-32.4-28.5c-1.1-1.2-2.3-2.7-3.6-4.2
			c-0.6-4.2-1-8.4-1.3-12.5c-1.6-25,0.8-43.9,10.4-69.3C424.6,502.4,426,499.2,427.4,496L427.4,496z M543,506.6
			c-0.8,0-1.6,0.2-2.4,0.5c-1.6,0.5-3.4,1.5-5.2,2.6c-3.6,2.2-7.2,5.2-9.6,7.3c-1.1,1-1.2,2.4-1.3,3.6c-0.1,1.2-0.3,2.1-0.7,2.5
			c-0.3,0.3-0.9,0.4-1.7,0.4c-0.9,0.1-2,0.1-2.8,1.1c-0.9,1-0.6,2.3-0.5,3.2c0.1,0.9,0.1,1.6-0.1,1.9c-0.4,0.5-1.1,0.7-2,0.8
			s-2.1,0.1-3.2,0c-1.1,0-2.3,0-3.3,0.2c-1,0.3-2,1.1-2.2,2.3c-0.4,2.3,0.8,4.4,2.7,5.8c1.9,1.4,4.5,2.3,7.2,2.3
			c3.3,0,5.5-1.7,7.3-3c0.9-0.7,1.7-1.2,2.4-1.6c0.8-0.3,1.4-0.5,2.3-0.2c0.8,0.2,1.4,0.8,2,1.7c0.6,1,1.1,2.3,1.7,3.5
			c0.6,1.3,1.1,2.5,2,3.4c0.8,0.9,2.2,1.5,3.6,1.1c0.9-0.2,1.5-0.9,2-1.5c0.5-0.7,1-1.5,1.5-2.3c1.1-1.6,2.4-3.4,4.9-4.6
			c0.6-0.3,1.1-0.8,1.3-1.4c0.2-0.6,0.1-1.2-0.1-1.8c-0.3-1.2-1.1-2.4-2-3.7c-1.7-2.6-3.8-5.6-3.9-7.5c-0.1-3.1,0.4-6.4,2.3-8.8
			c0.8-1,1.3-2.4,1.4-3.8c0.1-0.7,0-1.4-0.2-2c-0.2-0.7-0.6-1.3-1.3-1.6C544.5,506.7,543.8,506.6,543,506.6L543,506.6z M543.1,508.4
			c0.5,0,0.9,0.1,1.3,0.2c0.2,0.1,0.4,0.3,0.5,0.6c0.1,0.3,0.2,0.8,0.1,1.4c-0.1,1.1-0.6,2.3-1.1,2.9c-2.3,2.9-2.9,6.6-2.7,10
			c0.1,2.9,2.5,5.8,4.1,8.3c0.8,1.3,1.5,2.4,1.7,3.2c0.1,0.4,0.1,0.7,0.1,0.8c0,0.1-0.1,0.2-0.4,0.4c-2.9,1.4-4.5,3.5-5.6,5.3
			c-0.6,0.9-1,1.6-1.4,2.2c-0.4,0.5-0.7,0.8-1.1,0.9c-0.9,0.2-1.3,0-1.9-0.6c-0.6-0.6-1.1-1.7-1.7-2.9c-0.5-1.2-1.1-2.6-1.8-3.7
			c-0.7-1.2-1.7-2.2-3.1-2.5c-1.3-0.3-2.4-0.1-3.4,0.4c-1,0.4-1.9,1.1-2.8,1.7c-1.8,1.3-3.5,2.6-6.3,2.6c-2.3,0-4.6-0.7-6.1-1.9
			c-1.6-1.2-2.3-2.6-2-4.1c0.1-0.6,0.3-0.7,1-0.9s1.7-0.2,2.8-0.2c1.1,0,2.3,0.1,3.5-0.1s2.3-0.5,3.1-1.4c0.9-1,0.7-2.2,0.5-3.2
			c-0.1-0.9-0.1-1.6,0.1-1.9c0.2-0.3,0.8-0.4,1.6-0.5c0.9-0.1,2-0.1,2.9-0.9c1.1-1,1.1-2.5,1.2-3.6c0.1-1.1,0.3-2,0.7-2.4
			c2.4-2,6-5,9.4-7.1c1.7-1.1,3.4-2,4.8-2.4C541.9,508.5,542.5,508.4,543.1,508.4L543.1,508.4z M726.3,533.2c0.3,0,0.6,0,0.9,0.1
			c0.7,0.1,1.4,0.3,2.2,0.5c0.7,0.2,1.3,0.3,2,0.3c-0.1,6.3-0.6,12.4-1.4,18.5c-0.2,0.1-0.3,0.2-0.4,0.4c0,0-4,7.4-9,15.5
			c0.1-9.8-0.2-19.6-1.6-29.3c-0.1-0.5-0.2-1.1-0.2-1.6c0.8-0.1,1.5-0.2,2.2-0.6c1-0.6,1.8-1.4,2.5-2.1s1.4-1.3,2.1-1.6
			C725.8,533.2,726,533.2,726.3,533.2L726.3,533.2z M717.1,537.8c0.1,0.6,0.2,1.1,0.3,1.7c0.5,3.8,0.9,7.7,1.1,11.6
			c-0.7-4.1-1.7-8.2-2.3-12.8c0-0.2-0.1,0,0.1-0.1C716.4,537.9,716.8,537.8,717.1,537.8L717.1,537.8z M526.8,540c-0.3,0-0.6,0-0.9,0
			c-0.6,0-1.3,0.2-1.9,0.4c-1.2,0.4-2.4,1.2-2.6,2.6c-0.2,1.5,0.7,2.7,1.9,3.5c1.1,0.8,2.4,1.3,3.7,1.4c1,0.1,2.2-0.2,3.2-0.7
			c1-0.5,2-1.4,2.1-2.6c0.1-1.3-0.6-2.3-1.5-3.1c-0.9-0.7-2-1.2-3-1.4C527.4,540,527.1,540,526.8,540L526.8,540z M526,541.7
			c0.5,0,1,0,1.4,0.1c0.7,0.1,1.6,0.5,2.2,1s1,1.1,0.9,1.5c0,0.4-0.5,0.9-1.2,1.3c-0.7,0.4-1.6,0.5-2.3,0.5c-0.8-0.1-2-0.5-2.8-1.1
			c-0.8-0.6-1.2-1.2-1.1-1.8c0.1-0.5,0.6-0.9,1.4-1.2C525,541.8,525.5,541.8,526,541.7L526,541.7z M492.1,542.1
			c19.4,7,40.3,10.3,60.9,10.9c8.1,0.2,16.3,0.1,24.4-0.4c1.1,1.7,2.9,3.2,4.6,4.4c0.8,0.6,1,0.6,1.6,1c-4.1,0.4-40.4,3.6-59.6,0.8
			c-6.2-0.9-12.1-3.8-18.1-6.5c-5.8-2.6-11.8-5.1-18.3-5.2c0-0.4,0.1-0.8,0.1-1.1c0.1-0.5,0.1-1,0.2-1.6c0.2,0,0.4,0,0.6,0
			c1,0,1.8-0.4,2.4-0.9C491.5,543.1,491.8,542.6,492.1,542.1L492.1,542.1z M616.6,545.1c1.2,9.5,2,19,2.6,28.6
			c0.2,3.5,0.3,7,0.5,10.5c-3.3-3.2-5.9-7.1-8.6-11.1c-0.6-1-0.6-2.4-0.6-4.1c0-1.7,0.1-3.6-1.2-5c-1.2-1.3-2.9-2.5-4.8-3.1
			c-1.8-0.6-3.9-0.8-5.6,0.2c-3.6,2.1-5.2,7.3-2.8,12c6.4,12.2,9.1,22.3,20.1,29.5c1.1,0.7,2.3,1.2,3.6,1.5
			c-0.1,11.3-0.7,22.6-1.6,33.8c-0.2,2-0.4,4.2-0.7,6.6c-0.8,0.6-1.4,1.2-2,2c-10.8,3.2-21.9,5.6-33,6.8
			c-19.4,2.2-39.3,0.8-58.7-2.9c0-1.9,0-3.8,0-5.7c0-4.6-0.3-9.2-3.5-12.7c-3.2-3.5-7.8-5-12.5-5.7c-4.7-0.8-9.8-0.8-14.1-1.6
			c-1.5-0.3-3-0.3-4.4-0.3c-1.3-8.6-2.2-17.3-2.6-26c-0.7-16.5-1-33.1,0.7-49.5c6.1,0.1,11.9,2.5,17.8,5.1c6,2.7,12,5.6,18.6,6.6
			c20.9,3.1,62.6-1,62.6-1c0.7-0.1,0.9-1.2,0.3-1.6c0,0-1.7-1-3.7-2.4c-1.3-0.9-2.6-2.1-3.5-3.1
			C592.2,551.4,604.7,549.1,616.6,545.1L616.6,545.1z M485.7,548.9c-1.8,16.5-1.5,33.1-0.8,49.6c0.4,8.7,1.3,17.4,2.6,26
			c-1.8,0.1-3.6,0.3-5.3,0.4c-3.7,0.2-7.2,0.1-9.8-1.9c-3.6-2.6-5-6.9-6.1-11.7c-1.1-4.8-1.9-10.1-4.5-14.4c-1.8-3-4.7-5.3-7.2-7.5
			c-2.5-2.3-4.7-4.5-5.6-7.5c-2.1-7.3-1.5-16.7,3.3-22.3c3.3-3.8,10.7-5,16.8-6.8C474.6,551,479.7,549.1,485.7,548.9L485.7,548.9z
			 M690.1,550c0.3,0,0.6,0,0.8,0c1.9,0.1,4,1.6,5.6,3.4c1.6,1.9,2.8,4.2,3.2,5.7c0.5,2.4,0.1,5.2-0.2,8c-0.3,2.8-0.4,5.8,1.1,8.3
			c0.9,1.5,2,3,3.5,4.1c1.5,1.1,3.4,1.9,5.6,1.7c1.2-0.1,2.3-0.5,3.2-1.1c-1.3,1.8-2.5,3.4-3.7,4.8c-13.3,15.6-28.4,30.3-46.1,40.5
			c-13.7,7.9-28.4,14.6-43.5,19.5c1.6-1,3.6-1.6,5.6-2.3c3.5-1.1,7.2-2.2,9.9-4.9c4.9-4.9,5.9-12.2,9.2-17.5
			c0.9-1.5,2.4-2.9,3.8-4.4c1.4-1.5,2.7-3.1,3.2-5.3c0.3-1.7,0.5-3.7,0.1-5.6c-0.3-1.9-1.1-3.7-2.7-4.9c-1.9-1.4-4.4-1.6-7.1-1.3
			c-2.7,0.3-5.6,1.1-8.6,1.9c-4,1-8,1.9-11.4,1.6c0-4.8,0-9.7-0.1-14.5c4.2,3,9.5,5,16.7,5c5.4,0,11.4-2.2,16.4-5.4
			c5-3.2,9.1-7.5,10.7-11.8c0.9-2.6,0.5-5.7-0.8-8.5c-1.3-2.7-3.6-5-6.7-5.6c-3.6-0.7-7.4,1.2-11.1,2.6c-1.8,0.7-3.6,1.3-5.2,1.5
			s-3,0-4.3-0.9c-0.9-0.6-1.5-1.7-1.8-2.9c-0.3-1.3-0.2-2.7,0.2-3.7c0.6-1.5,2.7-2.8,4.6-3.1c1.8-0.3,3.2,0.4,5,1.3
			c1.8,1,4.1,2.1,7.3,2.1c3.6,0,5.6-1,7.1-2c1.4-1,2.2-1.8,3.8-1.9c6.7-0.4,20.6-0.7,20.6-0.7c0.3,0,0.7-0.2,0.8-0.5
			C684.6,553.6,686.1,550.1,690.1,550L690.1,550z M729.3,557.1c-2.1,12.8-5.6,25.2-10.4,36.9c0.5-5.5,1.4-14.9,1.6-22.1
			C724.2,566.1,727.4,560.6,729.3,557.1z M718.9,560.2c0,2.7,0.1,5.5,0,8.2c0,0.9,0,1.9-0.1,3c-0.8,1.3-1.6,2.6-2.5,3.8
			c0.2-0.7,0.5-1.4,0.7-2.1c1.1-4.2,1.3-9.1,1.8-12.6C718.9,560.4,718.9,560.3,718.9,560.2L718.9,560.2z M601.6,562
			c0.7,0,1.5,0.1,2.2,0.4c1.5,0.5,3.1,1.6,4,2.6c0.8,0.8,0.8,2.2,0.8,3.8c0,1.6-0.2,3.5,0.9,5.1c3,4.5,6,9,10.1,12.6
			c0.1,5.2,0.2,10.4,0.2,15.6c-1-0.2-1.9-0.6-2.7-1.1c-10.6-6.9-13-16.5-19.6-28.9c-2.1-3.9-0.6-8.1,2.1-9.7
			C600.3,562.2,600.9,562,601.6,562L601.6,562z M401.4,573.5c2.6,3.6,7,9.7,11.2,14.7c0.2,1.4,0.4,2.9,0.7,4.3
			c0.9,5.7,1.9,11.3,3.3,16.9c0.2,0.9,0.6,2.1,1,3.3C410.6,600.6,405.1,587.4,401.4,573.5z M718.7,574.9
			c-0.6,10.3-1.9,23.5-1.9,23.5c0,0.2,0,0.4,0,0.5c-13.6,30.3-36,55.9-63.9,73.4c-1.2,0.8-2.5,1.5-3.7,2.3c0,0-0.1,0-0.1,0.1
			c0,0-0.1,0.1-0.1,0.1c-1.2,0.7-2.5,1.5-3.8,2.2c-1.3,0.7-2.6,1.4-4,2.1c-1.1,0.6-2.3,1.2-3.4,1.7c-0.2,0.1-0.4,0.2-0.6,0.3
			c-0.2,0.1-0.4,0.2-0.6,0.3c-1.1,0.6-2.3,1.1-3.5,1.6c-0.1,0-0.1,0.1-0.2,0.1c-0.7,0.3-1.4,0.6-2.2,0.9c-0.5,0.2-1.1,0.5-1.6,0.7
			c-0.1,0-0.1,0.1-0.2,0.1c-1.2,0.5-2.4,1-3.6,1.4c-0.2,0.1-0.4,0.2-0.6,0.2c-1.1,0.4-2.1,0.8-3.2,1.2c-0.3,0.1-0.7,0.3-1,0.4
			c-0.9,0.3-1.9,0.7-2.8,1c0,0,0,0,0,0c-1.9,0.7-3.9,1.2-5.8,1.8c0.5-2.7,4.9-26,7.2-44c15.8-5,31-11.9,45.2-20.1
			c17.9-10.4,33.1-25.2,46.5-40.9C713.1,583.2,716,579.2,718.7,574.9L718.7,574.9z M414.8,590.9c0.6,0.7,1.3,1.4,1.9,2.1
			c9.9,10.6,20.6,20.7,32.7,28.8c13,8.7,26.8,16.7,41.6,21.9c1.5,7.4,3.2,14.7,5.3,21.9c1.9,6.6,6,17.8,7.3,21.5
			c-34.4-13.2-63.4-37.4-82.6-68.3c0.1-0.2,0.1-0.4,0.1-0.6c0,0-2-6-2.8-9c-1.4-5.5-2.4-11.1-3.3-16.8
			C414.9,591.8,414.8,591.3,414.8,590.9L414.8,590.9z M643.6,600.7c1.7,0,3.1,0.3,4.1,1c1.1,0.8,1.7,2.1,2,3.8
			c0.3,1.6,0.2,3.4-0.1,4.9c-0.3,1.6-1.4,3-2.7,4.5c-1.3,1.4-2.9,2.8-4,4.6c-3.6,5.8-4.6,12.8-8.9,17.2c-2.3,2.3-5.7,3.3-9.2,4.4
			c-1.8,0.6-3.6,1.2-5.3,2.1c0.2-1.9,0.4-3.6,0.5-5.3c0.9-11.2,1.5-22.4,1.6-33.7c3.8,0.3,7.9-0.7,11.9-1.7c3-0.8,5.9-1.5,8.3-1.8
			C642.5,600.7,643.1,600.7,643.6,600.7L643.6,600.7z M489.6,626.1c1.3,0,2.6,0,3.9,0.2c4.5,0.8,9.6,0.9,14.1,1.6
			c4.6,0.7,8.7,2,11.5,5.2c2.7,2.9,3,7,3,11.5c0,1.7,0,3.5,0,5.3c-8.2-1.6-16.4-3.6-24.3-6c-1.8-0.5-3.6-1.1-5.3-1.7
			c-1-4.8-1.8-9.7-2.6-14.5C489.7,627.2,489.6,626.6,489.6,626.1L489.6,626.1z M492.9,644.3c1.5,0.5,2.9,1,4.4,1.4
			c8.2,2.4,16.5,4.4,24.9,6.1c0.1,2.2,0.4,4.5,1.1,6.5c1.5,4.2,4.8,7.2,6.3,10.8c1,2.5,1,6.4,1.3,10c0.1,1.8,0.4,3.5,0.9,4.9
			c0.5,1.4,1.5,2.6,3,3c3.4,0.9,4.6,3.4,5.9,6.1c0.6,1.3,1.2,2.6,2,3.8c-12.8-1.6-25.2-4.6-37-8.9c-0.2-0.6-5.7-15.2-7.8-22.8
			C496,658.2,494.3,651.2,492.9,644.3L492.9,644.3z M617.2,647.7c-2.4,18.6-7.2,43.4-7.3,44c-1.3,0.4-2.7,0.7-4,1.1
			c0.1-0.2,0.1-0.3,0.1-0.5c0.3-1.3,0.3-2.8,0.2-4.4c-0.2-3.2-0.5-6.7,0.3-8.8c1-2.5,3.8-4.4,5.2-7.5c1.7-4,1.8-8.5,2-12.8
			c0.3-4.1,0.7-8,2.8-11C616.7,647.8,616.9,647.8,617.2,647.7L617.2,647.7z M614.1,648.6c-1.6,3.1-1.9,6.6-2.1,10.1
			c-0.3,4.3-0.3,8.6-1.9,12.2c-1.1,2.5-3.9,4.4-5.2,7.5c-1.1,2.8-0.6,6.4-0.4,9.5c0.1,1.5,0.1,2.9-0.1,3.9c-0.2,0.9-0.5,1.3-1.2,1.5
			c-6.9,1.7-16.1,3.2-23.8,4c-0.9,0.1-1.8,0.2-2.7,0.2c-0.1,0-0.2,0-0.3,0c-0.6,0-1.3,0.1-1.9,0.1c-0.7,0-1.5,0.1-2.1,0.1
			c-7.9,0.3-15.4,0.2-24.4-0.5c-0.4,0-0.9-0.1-1.3-0.1c-0.1,0-0.2,0-0.3,0c-0.9-0.2-1.5-0.7-2.1-1.4c-0.7-0.9-1.2-2.1-1.9-3.5
			c-1.2-2.7-2.9-5.9-7-7c-0.9-0.2-1.4-0.8-1.9-1.9c-0.4-1.1-0.6-2.6-0.8-4.3c-0.3-3.4-0.2-7.5-1.4-10.5c-1.7-4.1-4.9-7.1-6.3-10.8
			c-0.6-1.7-0.9-3.6-1-5.6c19.4,3.6,39.3,5,58.8,2.8C593.3,653.7,603.8,651.6,614.1,648.6L614.1,648.6z"/>
		<path id="path3954" class="st6" d="M674.8,180.7c-0.1,0-0.1,0-0.2,0c-0.3,0.1-0.5,0.3-0.6,0.6l-4.3,12.5l-13.3,0
			c-0.5,0-0.9,0.4-0.8,0.9c0,0.3,0.1,0.5,0.3,0.7l10.5,8l-4.1,12.5c-0.2,0.5,0.1,1,0.5,1.1c0.3,0.1,0.5,0.1,0.8-0.1l10.9-7.6
			l10.7,7.8c0.4,0.3,0.9,0.2,1.2-0.2c0.1-0.2,0.2-0.5,0.1-0.7l-3.8-12.7l10.7-7.7c0,0,0.1,0,0.1-0.1c0,0,0,0,0.1,0
			c0.1,0,0.1-0.1,0.2-0.1l9.9-8c1.4-1.1,1.7-3.2,0.6-4.6c0,0,0,0,0,0l-0.1-0.2c-0.6-0.7-1.4-1-2.2-1.1c-0.8,0-1.7,0.2-2.3,0.8
			l-12.2,9.8c-0.5,0.4-0.9,1-1.1,1.6l-6.5-0.1l-4.1-12.6C675.6,181,675.2,180.7,674.8,180.7L674.8,180.7z M701.5,183.6
			c0.1,0,0.2,0,0.3,0c0.4,0,0.7,0.2,1,0.5l0.1,0.2c0.5,0.6,0.4,1.5-0.4,2.1l-9.6,7.8l-4.5-0.1c0,0,0-0.1,0.1-0.2l12.2-9.8
			C700.9,183.7,701.2,183.6,701.5,183.6L701.5,183.6z M674.8,184.3l3.4,10.7c0.1,0.4,0.4,0.6,0.8,0.6l11.3,0.2l-9.1,6.6
			c-0.3,0.2-0.5,0.6-0.4,1l3.3,10.8l-9.1-6.6c-0.3-0.2-0.7-0.2-1,0l-9.2,6.4l3.5-10.7c0.1-0.3,0-0.7-0.3-1l-9-6.8l11.3,0.1
			c0.4,0,0.7-0.2,0.8-0.6L674.8,184.3L674.8,184.3z"/>
		<path id="path3957" class="st6" d="M695.5,212.6c-0.4,0-0.7,0.3-0.8,0.6l-4.4,12.5l-13.2-0.1c-0.5,0-0.9,0.4-0.9,0.9
			c0,0.3,0.1,0.6,0.4,0.7l10.5,8l-4.1,12.6c-0.1,0.5,0.1,0.9,0.6,1.1c0.2,0.1,0.5,0,0.7-0.1l10.9-7.6l10.7,7.8
			c0.4,0.3,0.9,0.2,1.2-0.2c0.2-0.2,0.2-0.5,0.1-0.8l-3.8-12.7l10.7-7.7c0.4-0.3,0.5-0.8,0.2-1.2c-0.2-0.2-0.4-0.4-0.7-0.4
			l-13.2-0.3l-4.1-12.6C696.3,212.8,695.9,212.6,695.5,212.6L695.5,212.6z M695.5,216.2l3.5,10.7c0.1,0.3,0.4,0.6,0.8,0.6l11.3,0.2
			l-9.1,6.6c-0.3,0.2-0.4,0.6-0.3,1l3.2,10.7l-9.1-6.6c-0.3-0.2-0.7-0.2-1,0l-9.2,6.4l3.5-10.7c0.1-0.3,0-0.7-0.3-1l-9-6.8l11.3,0.1
			c0.4,0,0.7-0.2,0.8-0.6L695.5,216.2L695.5,216.2z"/>
		<path id="path3959" class="st6" d="M719.3,245.7c-0.3,0.1-0.6,0.3-0.7,0.6l-4.4,12.5l-13.3,0c-0.5,0-0.9,0.4-0.8,0.9
			c0,0.3,0.1,0.5,0.3,0.7l10.6,8l-4.1,12.6c-0.1,0.5,0.1,1,0.6,1.1c0.3,0.1,0.6,0,0.8-0.1l10.9-7.5l10.7,7.8
			c0.4,0.3,0.9,0.2,1.2-0.2c0.2-0.2,0.2-0.5,0.1-0.8l-3.8-12.7l10.7-7.7c0.4-0.3,0.5-0.8,0.2-1.2c-0.2-0.2-0.4-0.4-0.7-0.4
			l-13.2-0.3l-4.1-12.6C720.1,245.9,719.7,245.6,719.3,245.7L719.3,245.7z M719.4,249.3l3.5,10.7c0.1,0.4,0.4,0.6,0.8,0.6l11.2,0.2
			l-9.1,6.6c-0.3,0.2-0.4,0.6-0.3,1l3.2,10.7l-9.1-6.6c-0.3-0.2-0.7-0.2-1,0l-9.2,6.4l3.5-10.7c0.1-0.4,0-0.8-0.3-1l-8.9-6.8l11.2,0
			c0.4,0,0.7-0.2,0.8-0.6L719.4,249.3L719.4,249.3z"/>
		<path id="path3961" class="st6" d="M738.1,280.3c-0.4,0-0.7,0.3-0.8,0.6l-4.4,12.5l-13.2-0.1c-0.5,0-0.9,0.4-0.9,0.9
			c0,0.3,0.1,0.6,0.4,0.7l10.5,8l-4.1,12.6c-0.1,0.5,0.1,0.9,0.6,1.1c0.2,0.1,0.5,0,0.7-0.1l10.9-7.6l10.7,7.8
			c0.4,0.3,0.9,0.2,1.2-0.2c0.2-0.2,0.2-0.5,0.1-0.8l-3.8-12.7l10.7-7.7c0.4-0.3,0.5-0.8,0.2-1.2c-0.2-0.2-0.4-0.4-0.7-0.4
			l-13.2-0.3l-4.1-12.6C738.9,280.5,738.5,280.2,738.1,280.3L738.1,280.3z M738.1,283.9l3.5,10.7c0.1,0.3,0.4,0.6,0.8,0.6l11.3,0.2
			l-9.1,6.6c-0.3,0.2-0.4,0.6-0.3,1l3.2,10.7l-9.1-6.6c-0.3-0.2-0.7-0.2-1,0l-9.2,6.4l3.5-10.7c0.1-0.3,0-0.7-0.3-1l-9-6.8l11.3,0.1
			c0.4,0,0.7-0.2,0.8-0.6L738.1,283.9L738.1,283.9z"/>
		<path id="path3963" class="st6" d="M754.6,325c-0.4,0-0.7,0.3-0.8,0.6l-4.4,12.5l-13.2-0.1c-0.5,0-0.9,0.4-0.9,0.8
			c0,0.3,0.1,0.6,0.4,0.7l10.6,8l-4.1,12.6c-0.1,0.5,0.1,1,0.6,1.1c0.3,0.1,0.6,0,0.8-0.1l10.9-7.5l10.7,7.8
			c0.4,0.3,0.9,0.2,1.2-0.2c0.2-0.2,0.2-0.5,0.1-0.8l-3.8-12.6l10.7-7.7c0.4-0.3,0.5-0.8,0.2-1.2c-0.2-0.2-0.4-0.4-0.7-0.4
			l-13.3-0.3l-4-12.6C755.4,325.2,755,325,754.6,325L754.6,325z M754.6,328.6l3.4,10.7c0.1,0.4,0.4,0.6,0.8,0.6l11.2,0.2l-9.1,6.6
			c-0.3,0.2-0.4,0.6-0.3,1l3.2,10.8l-9.1-6.7c-0.3-0.2-0.7-0.2-1,0l-9.2,6.4l3.5-10.7c0.1-0.3,0-0.7-0.3-1l-9-6.8l11.3,0.1
			c0.4,0,0.7-0.2,0.8-0.6L754.6,328.6L754.6,328.6z"/>
		<path id="path3965" class="st6" d="M762.8,371.2c-0.3,0-0.6,0.3-0.7,0.6l-4.3,12.5l-13.3,0c-0.5,0-0.9,0.4-0.9,0.9
			c0,0.3,0.1,0.5,0.3,0.7l10.6,8l-4.1,12.6c-0.1,0.5,0.1,1,0.6,1.1c0.3,0.1,0.6,0,0.8-0.1l10.9-7.5l10.7,7.8
			c0.4,0.3,0.9,0.2,1.2-0.2c0.1-0.2,0.2-0.5,0.1-0.7l-3.8-12.7l10.7-7.7c0.4-0.3,0.5-0.8,0.2-1.2c-0.2-0.2-0.4-0.4-0.7-0.4
			l-13.3-0.3l-4-12.6C763.6,371.4,763.2,371.1,762.8,371.2L762.8,371.2z M762.9,374.8l3.4,10.7c0.1,0.4,0.4,0.6,0.8,0.6l11.2,0.2
			l-9.1,6.6c-0.3,0.2-0.4,0.6-0.3,1l3.3,10.8l-9.1-6.6c-0.3-0.2-0.7-0.2-1,0l-9.2,6.4l3.5-10.7c0.1-0.4,0-0.8-0.3-1l-8.9-6.8l11.2,0
			c0.4,0,0.7-0.2,0.8-0.6L762.9,374.8L762.9,374.8z"/>
		<path id="rect3993" class="st6" d="M712,214.8c-1.6,1.3-1.9,3.7-0.6,5.3c1.3,1.6,3.7,1.9,5.3,0.6l4.8-3.9c1.6-1.3,1.9-3.7,0.6-5.3
			c-1.3-1.6-3.7-1.9-5.3-0.6L712,214.8z M713.1,216.1l4.8-3.9c0.9-0.7,2.2-0.6,2.9,0.3c0.7,0.9,0.6,2.1-0.3,2.9l-4.8,3.9
			c-0.9,0.7-2.2,0.6-2.9-0.3C712,218.1,712.2,216.9,713.1,216.1z"/>
		<path id="rect3995" class="st6" d="M733.6,243.4c-1.6,1.3-1.9,3.7-0.6,5.3c1.3,1.6,3.7,1.9,5.3,0.6l2.2-1.8
			c1.6-1.3,1.9-3.7,0.6-5.3c-1.3-1.6-3.7-1.9-5.3-0.6C735.7,241.6,733.6,243.4,733.6,243.4z M734.7,244.7l2.2-1.8
			c0.9-0.7,2.2-0.6,2.9,0.3c0.7,0.9,0.6,2.1-0.3,2.9l-2.2,1.8c-0.9,0.7-2.2,0.6-2.9-0.3C733.6,246.7,733.8,245.5,734.7,244.7z"/>
		<path id="rect3997" class="st6" d="M755.1,281.6c-1.6,1.3-1.9,3.7-0.6,5.3c1.3,1.6,3.8,1.9,5.4,0.6l2.2-1.8
			c1.6-1.3,1.9-3.7,0.5-5.3c-1.3-1.6-3.7-1.9-5.3-0.6L755.1,281.6L755.1,281.6z M756.2,282.9l2.2-1.8c0.9-0.7,2.2-0.6,2.9,0.3
			c0.7,0.9,0.6,2.2-0.3,2.9l-2.2,1.8c-0.9,0.7-2.2,0.6-2.9-0.3C755.1,284.9,755.3,283.7,756.2,282.9L756.2,282.9z"/>
		<path id="rect3999" class="st6" d="M770.5,322.9c-1.6,1.3-1.9,3.7-0.6,5.4s3.7,1.9,5.4,0.5l2.2-1.8c1.6-1.3,1.9-3.7,0.6-5.3
			s-3.7-1.9-5.4-0.6L770.5,322.9L770.5,322.9z M771.6,324.2l2.2-1.8c0.9-0.7,2.2-0.6,2.9,0.3c0.7,0.9,0.6,2.1-0.3,2.9l-2.2,1.8
			c-0.9,0.7-2.2,0.6-2.9-0.3C770.6,326.3,770.7,325,771.6,324.2L771.6,324.2z"/>
		<path id="rect4001" class="st6" d="M779.7,373.9c-1.6,1.3-1.9,3.7-0.6,5.4c1.3,1.6,3.7,1.9,5.4,0.5l2.2-1.8
			c1.6-1.3,1.9-3.7,0.6-5.3c-1.3-1.6-3.7-1.9-5.4-0.6L779.7,373.9L779.7,373.9z M780.8,375.2l2.2-1.8c0.9-0.7,2.2-0.6,2.9,0.3
			c0.7,0.9,0.6,2.1-0.3,2.9l-2.2,1.8c-0.9,0.7-2.2,0.6-2.9-0.3C779.8,377.2,779.9,375.9,780.8,375.2L780.8,375.2z"/>
		<path id="rect4015" class="st6" d="M759.7,438.4c-1.4,0.1-2.7,1.2-2.9,2.7l-4.1,23.4c-0.3,1.5,0.4,2.9,1.7,3.5
			c-0.1,0,0.1,0,0.1,0.1c0,0,0,0,0.1,0.1v0c0.4,0.2,0.9,0.4,1.5,0.4h4.8l-1.3,7c0,0,0,0,0,0c-0.2,1.4,0.3,2.7,1.4,3.4v0
			c0,0,0,0,0.1,0c0.5,0.4,1.2,0.6,1.9,0.6l12.7,0c1.8,0,3.3-1.3,3.3-3v-0.9c0-1.7-1.6-3-3.3-3h-8.5l0.7-4.1h2.7c1.8,0,3.3-1.3,3.3-3
			v-0.9c0-1.7-1.5-3-3.3-3h-1.4l1.4-8.1c0.3-1.7-0.7-3.5-2.4-3.8h0l-0.9-0.2c0,0,0,0,0,0c-1.7-0.3-3.2,1-3.5,2.7l-1.6,9.3h-1.8
			l3.4-19.1c0.3-1.7-0.7-3.4-2.4-3.7h0l-0.9-0.2c0,0,0,0,0,0C760.1,438.4,759.9,438.4,759.7,438.4L759.7,438.4z M759.8,440.2
			c0.1,0,0.2,0,0.2,0v0l0.9,0.2c0,0,0,0,0,0c0.7,0.1,1.1,0.8,1,1.7l-3.6,20.2c-0.1,0.5,0.2,0.9,0.7,1c0.1,0,0.1,0,0.2,0h3.6
			c0.4,0,0.8-0.3,0.9-0.7l1.8-10c0.2-0.9,0.8-1.4,1.5-1.3h0l0.9,0.2c0,0,0,0,0,0c0.7,0.1,1.1,0.8,1,1.7l-1.6,9.1
			c-0.1,0.5,0.2,0.9,0.7,1c0.1,0,0.1,0,0.2,0h2.5c0.9,0,1.6,0.6,1.6,1.3v0.9c0,0.7-0.6,1.3-1.5,1.3h-3.4c-0.4,0-0.8,0.3-0.9,0.7
			l-1,5.8c-0.1,0.5,0.2,0.9,0.7,1c0.1,0,0.1,0,0.2,0h9.5c0.9,0,1.6,0.6,1.6,1.3v0.9c0,0.7-0.6,1.3-1.5,1.3l-12.7,0
			c-0.4,0-0.7-0.1-1-0.3c0,0,0,0-0.1,0c-0.4-0.3-0.8-0.9-0.6-1.6h0l1.4-8.1c0.1-0.5-0.2-0.9-0.7-1c-0.1,0-0.1,0-0.2,0H756
			c-0.3,0-0.5-0.1-0.8-0.2c0,0-0.1,0-0.1-0.1c0.2,0.1,0.2,0.1-0.1-0.1c-0.5-0.2-0.8-0.8-0.7-1.6l4.1-23.4
			C758.6,440.7,759.3,440.2,759.8,440.2L759.8,440.2z"/>
		<path id="path4048" class="st6" d="M194,631.3c-0.3,0.1-0.6,0.3-0.7,0.6l-4.4,12.5l-13.3,0c-0.5,0-0.9,0.4-0.8,0.9
			c0,0.3,0.1,0.5,0.3,0.7l10.6,8l-4.1,12.6c-0.1,0.5,0.1,1,0.6,1.1c0.3,0.1,0.6,0,0.8-0.1l10.9-7.5l10.7,7.8
			c0.4,0.3,0.9,0.2,1.2-0.2c0.2-0.2,0.2-0.5,0.1-0.8l-3.8-12.7l10.7-7.7c0.4-0.3,0.5-0.8,0.2-1.2c-0.2-0.2-0.4-0.4-0.7-0.4
			l-13.2-0.3l-4.1-12.6C194.9,631.5,194.5,631.2,194,631.3L194,631.3z M194.1,634.9l3.5,10.7c0.1,0.4,0.4,0.6,0.8,0.6l11.2,0.2
			l-9.1,6.6c-0.3,0.2-0.4,0.6-0.3,1l3.2,10.7l-9.1-6.6c-0.3-0.2-0.7-0.2-1,0l-9.2,6.4l3.5-10.7c0.1-0.4,0-0.8-0.3-1l-8.9-6.8l11.2,0
			c0.4,0,0.7-0.2,0.8-0.6L194.1,634.9L194.1,634.9z"/>
		<path id="path4050" class="st6" d="M223,657.3c-0.3,0.1-0.6,0.3-0.7,0.6l-4.4,12.5l-13.3,0c-0.5,0-0.9,0.4-0.8,0.9
			c0,0.3,0.1,0.5,0.3,0.7l10.6,8l-4.1,12.6c-0.1,0.5,0.1,1,0.6,1.1c0.3,0.1,0.6,0,0.8-0.1l10.9-7.5l10.7,7.8
			c0.4,0.3,0.9,0.2,1.2-0.2c0.2-0.2,0.2-0.5,0.1-0.8l-3.8-12.7l10.7-7.7c0.4-0.3,0.5-0.8,0.2-1.2c-0.2-0.2-0.4-0.4-0.7-0.4
			l-13.2-0.3l-4.1-12.6C223.9,657.5,223.5,657.2,223,657.3L223,657.3z M223.1,660.9l3.5,10.7c0.1,0.4,0.4,0.6,0.8,0.6l11.2,0.2
			l-9.1,6.6c-0.3,0.2-0.4,0.6-0.3,1l3.2,10.7l-9.1-6.6c-0.3-0.2-0.7-0.2-1,0l-9.2,6.4l3.5-10.7c0.1-0.4,0-0.8-0.3-1l-8.9-6.8l11.2,0
			c0.4,0,0.7-0.2,0.8-0.6L223.1,660.9L223.1,660.9z"/>
		<path id="path4052" class="st6" d="M255.1,681c-0.3,0.1-0.6,0.3-0.7,0.6l-4.4,12.5l-13.3,0c-0.5,0-0.9,0.4-0.8,0.9
			c0,0.3,0.1,0.5,0.3,0.7l10.6,8l-4.1,12.6c-0.1,0.5,0.1,1,0.6,1.1c0.3,0.1,0.6,0,0.8-0.1l10.9-7.5l10.7,7.8
			c0.4,0.3,0.9,0.2,1.2-0.2c0.2-0.2,0.2-0.5,0.1-0.8l-3.8-12.7l10.7-7.7c0.4-0.3,0.5-0.8,0.2-1.2c-0.2-0.2-0.4-0.4-0.7-0.4
			l-13.2-0.3l-4.1-12.6C255.9,681.2,255.5,680.9,255.1,681L255.1,681z M255.2,684.6l3.5,10.7c0.1,0.4,0.4,0.6,0.8,0.6l11.2,0.2
			l-9.1,6.6c-0.3,0.2-0.4,0.6-0.3,1l3.2,10.7l-9.1-6.6c-0.3-0.2-0.7-0.2-1,0l-9.2,6.4l3.5-10.7c0.1-0.4,0-0.8-0.3-1l-8.9-6.8l11.2,0
			c0.4,0,0.7-0.2,0.8-0.6L255.2,684.6L255.2,684.6z"/>
		<path id="path4054" class="st6" d="M289.7,701.5c-0.3,0.1-0.6,0.3-0.7,0.6l-4.4,12.5l-13.3,0c-0.5,0-0.9,0.4-0.8,0.9
			c0,0.3,0.1,0.5,0.3,0.7l10.6,8l-4.1,12.6c-0.1,0.5,0.1,1,0.6,1.1c0.3,0.1,0.6,0,0.8-0.1l10.9-7.5l10.7,7.8
			c0.4,0.3,0.9,0.2,1.2-0.2c0.2-0.2,0.2-0.5,0.1-0.8l-3.8-12.7l10.7-7.7c0.4-0.3,0.5-0.8,0.2-1.2c-0.2-0.2-0.4-0.4-0.7-0.4
			l-13.2-0.3l-4.1-12.6C290.5,701.7,290.1,701.4,289.7,701.5L289.7,701.5z M289.8,705.1l3.5,10.7c0.1,0.4,0.4,0.6,0.8,0.6l11.2,0.2
			l-9.1,6.6c-0.3,0.2-0.4,0.6-0.3,1l3.2,10.7l-9.1-6.6c-0.3-0.2-0.7-0.2-1,0l-9.2,6.4l3.5-10.7c0.1-0.4,0-0.8-0.3-1l-8.9-6.8l11.2,0
			c0.4,0,0.7-0.2,0.8-0.6L289.8,705.1L289.8,705.1z"/>
		<path id="path4056" class="st6" d="M331.6,718.6c-0.3,0.1-0.6,0.3-0.7,0.6l-4.4,12.5l-13.3,0c-0.5,0-0.9,0.4-0.8,0.9
			c0,0.3,0.1,0.5,0.3,0.7l10.6,8l-4.1,12.6c-0.1,0.5,0.1,1,0.6,1.1c0.3,0.1,0.6,0,0.8-0.1l10.9-7.5l10.7,7.8
			c0.4,0.3,0.9,0.2,1.2-0.2c0.2-0.2,0.2-0.5,0.1-0.8l-3.8-12.7l10.7-7.7c0.4-0.3,0.5-0.8,0.2-1.2c-0.2-0.2-0.4-0.4-0.7-0.4
			l-13.2-0.3l-4.1-12.6C332.4,718.8,332,718.5,331.6,718.6L331.6,718.6z M331.7,722.2l3.5,10.7c0.1,0.4,0.4,0.6,0.8,0.6l11.2,0.2
			l-9.1,6.6c-0.3,0.2-0.4,0.6-0.3,1L341,752l-9.1-6.6c-0.3-0.2-0.7-0.2-1,0l-9.2,6.4l3.5-10.7c0.1-0.4,0-0.8-0.3-1l-8.9-6.8l11.2,0
			c0.4,0,0.7-0.2,0.8-0.6L331.7,722.2L331.7,722.2z"/>
		<path id="path4058" class="st6" d="M381.5,730.6c-0.3,0.1-0.6,0.3-0.7,0.6l-4.4,12.5l-13.3,0c-0.5,0-0.9,0.4-0.8,0.9
			c0,0.3,0.1,0.5,0.3,0.7l10.6,8l-4.1,12.6c-0.1,0.5,0.1,1,0.6,1.1c0.3,0.1,0.6,0,0.8-0.1l10.9-7.5L392,767c0.4,0.3,0.9,0.2,1.2-0.2
			c0.2-0.2,0.2-0.5,0.1-0.8l-3.8-12.7l10.7-7.7c0.4-0.3,0.5-0.8,0.2-1.2c-0.2-0.2-0.4-0.4-0.7-0.4l-13.2-0.3l-4.1-12.6
			C382.4,730.8,382,730.5,381.5,730.6L381.5,730.6z M381.6,734.2l3.5,10.7c0.1,0.4,0.4,0.6,0.8,0.6l11.2,0.2l-9.1,6.6
			c-0.3,0.2-0.4,0.6-0.3,1L391,764l-9.1-6.6c-0.3-0.2-0.7-0.2-1,0l-9.2,6.4l3.5-10.7c0.1-0.4,0-0.8-0.3-1l-8.9-6.8l11.2,0
			c0.4,0,0.7-0.2,0.8-0.6L381.6,734.2L381.6,734.2z"/>
		<path id="rect4060" class="st6" d="M216,630.2c-1.7,1.6-1.8,4.3-0.2,6c1.6,1.7,4.3,1.8,6,0.2l79.6-75.3c1.7-1.6,1.8-4.3,0.2-6
			c-1.6-1.7-4.3-1.8-6-0.2L216,630.2L216,630.2z M217.2,631.4l79.6-75.3c1-1,2.6-0.9,3.5,0.1c1,1,0.9,2.5-0.1,3.5L220.6,635
			c-1,1-2.6,0.9-3.5-0.1C216.1,633.9,216.2,632.4,217.2,631.4L217.2,631.4z"/>
		<path id="rect4062" class="st6" d="M240.4,655.1c-1.7,1.6-1.7,4.3-0.1,6c1.6,1.7,4.3,1.8,6,0.2l101.6-96c1.7-1.6,1.8-4.3,0.2-6
			c-1.6-1.7-4.3-1.8-6-0.2L240.4,655.1L240.4,655.1z M241.6,656.4l101.6-96c1-1,2.6-0.9,3.5,0.1c1,1,0.9,2.5-0.1,3.5l-101.6,96
			c-1,1-2.6,0.9-3.5-0.1C240.6,658.9,240.6,657.3,241.6,656.4L241.6,656.4z"/>
		<path id="rect4064" class="st6" d="M270.9,676.3c-1.7,1.6-1.8,4.3-0.2,6c1.6,1.7,4.3,1.8,6,0.2l117.1-110.7c1.7-1.6,1.8-4.3,0.2-6
			c-1.6-1.7-4.3-1.8-6-0.2L270.9,676.3L270.9,676.3z M272.1,677.5l117.1-110.7c1-1,2.6-0.9,3.5,0.1c1,1,0.9,2.5-0.1,3.5L275.5,681.1
			c-1,1-2.6,0.9-3.5-0.1C271,680,271,678.5,272.1,677.5L272.1,677.5z"/>
		<path id="rect4066" class="st6" d="M306.4,698.5c-1.7,1.6-1.8,4.3-0.2,6s4.3,1.8,6,0.2l95.9-90.7c1.7-1.6,1.7-4.3,0.1-6
			c-1.6-1.7-4.3-1.8-6-0.2L306.4,698.5L306.4,698.5z M307.6,699.8l95.9-90.7c1-1,2.6-0.9,3.5,0.1c1,1,0.9,2.6-0.1,3.5L311,703.4
			c-1,1-2.6,0.9-3.5-0.1C306.5,702.3,306.5,700.7,307.6,699.8L307.6,699.8z"/>
		<path id="rect4068" class="st6" d="M347.6,716.4c-1.7,1.6-1.8,4.3-0.2,6c1.6,1.7,4.3,1.8,6,0.2l79.2-74.9c1.7-1.6,1.8-4.3,0.2-6
			c-1.6-1.7-4.3-1.8-6-0.2L347.6,716.4z M348.8,717.6l79.2-74.9c1-1,2.6-0.9,3.5,0.1s0.9,2.5-0.1,3.5l-79.2,74.9
			c-1,1-2.6,0.9-3.5-0.1C347.7,720.1,347.8,718.6,348.8,717.6z"/>
		<path id="rect4070" class="st6" d="M398.7,729.4c-1.7,1.6-1.8,4.3-0.2,6s4.3,1.8,6,0.2l61.1-57.8c1.7-1.6,1.8-4.3,0.2-6
			c-1.6-1.7-4.3-1.8-6-0.2L398.7,729.4L398.7,729.4z M399.9,730.7l61.1-57.8c1-1,2.6-0.9,3.5,0.1s0.9,2.5-0.1,3.5l-61.1,57.8
			c-1,1-2.6,0.9-3.5-0.1S398.9,731.6,399.9,730.7z"/>
		<path id="rect4074" class="st6" d="M352.6,769.8c-1.7,1.6-1.8,4.3-0.2,6c1.6,1.7,4.3,1.8,6,0.2l1.9-1.8c1.7-1.6,1.8-4.3,0.2-6
			c-1.6-1.7-4.3-1.8-6-0.2L352.6,769.8z M353.9,771l1.9-1.8c1-1,2.6-0.9,3.5,0.1c1,1,0.9,2.5-0.1,3.5l-1.9,1.8c-1,1-2.6,0.9-3.5-0.1
			C352.8,773.5,352.8,772,353.9,771z"/>
		<path id="rect4076" class="st6" d="M302.4,756.9c-1.7,1.6-1.8,4.3-0.2,6c1.6,1.7,4.3,1.8,6,0.2l1.9-1.8c1.7-1.6,1.8-4.3,0.2-6
			c-1.6-1.7-4.3-1.8-6-0.2L302.4,756.9z M303.6,758.2l1.9-1.8c1-1,2.6-0.9,3.5,0.1c1,1,0.9,2.5-0.1,3.5l-1.9,1.8
			c-1,1-2.6,0.9-3.5-0.1C302.5,760.7,302.6,759.2,303.6,758.2L303.6,758.2z"/>
		<path id="rect4078" class="st6" d="M261.6,740c-1.7,1.6-1.8,4.3-0.2,6s4.3,1.8,6,0.2l1.9-1.8c1.7-1.6,1.8-4.3,0.2-6
			s-4.3-1.8-6-0.2L261.6,740z M262.8,741.2l1.9-1.8c1-1,2.6-0.9,3.5,0.1c1,1,0.9,2.5-0.1,3.5l-1.9,1.8c-1,1-2.6,0.9-3.5-0.1
			C261.8,743.7,261.8,742.2,262.8,741.2z"/>
		<path id="rect4080" class="st6" d="M225.4,716.6c-1.7,1.6-1.8,4.3-0.2,6c1.6,1.7,4.3,1.8,6,0.2l1.9-1.8c1.7-1.6,1.8-4.3,0.2-6
			c-1.6-1.7-4.3-1.8-6-0.2L225.4,716.6z M226.7,717.9l1.9-1.8c1-1,2.6-0.9,3.5,0.1c1,1,0.9,2.5-0.1,3.5l-1.9,1.8
			c-1,1-2.6,0.9-3.5-0.1C225.6,720.4,225.6,718.8,226.7,717.9z"/>
		<path id="rect4082" class="st6" d="M196.3,694.8c-1.7,1.6-1.8,4.3-0.2,6c1.6,1.7,4.3,1.8,6,0.2l1.9-1.8c1.7-1.6,1.8-4.3,0.2-6
			c-1.6-1.7-4.3-1.8-6-0.2L196.3,694.8z M197.5,696.1l1.9-1.8c1-1,2.6-0.9,3.5,0.1c1,1,0.9,2.5-0.1,3.5l-1.9,1.8
			c-1,1-2.6,0.9-3.5-0.1C196.5,698.6,196.5,697,197.5,696.1z"/>
		<path id="rect4084" class="st6" d="M171.2,672.1c-1.7,1.6-1.8,4.3-0.2,6c1.6,1.7,4.3,1.8,6,0.2l1.9-1.8c1.7-1.6,1.8-4.3,0.2-6
			c-1.6-1.7-4.3-1.8-6-0.2L171.2,672.1L171.2,672.1z M172.4,673.3l1.9-1.8c1-1,2.6-0.9,3.5,0.1c1,1,0.9,2.5-0.1,3.5l-1.9,1.8
			c-1,1-2.6,0.9-3.5-0.1S171.4,674.3,172.4,673.3L172.4,673.3z"/>
		<path id="path4095" class="st7" d="M733,530c0,93.5-76.1,169.3-170,169.3s-170-75.8-170-169.3c0-93.5,76.1-169.3,170-169.3
			S733,436.4,733,530z"/>
		<path id="path4097" class="st7" d="M652.9,225.8c3.2-1.2,5.7,2.3,4.9,5.1L510,370.4l-15,5.7L652.9,225.8z"/>
		<path id="path4097-9" class="st7" d="M673,252.3c3.2-1.2,5.7,2.3,4.9,5.1L567.7,361.6l-10.1,0L673,252.3z"/>
		<path id="path4097-9-7" class="st7" d="M692.7,285.4c3.2-1.2,5.7,2.3,4.9,5.1L614,369l-7.5-2L692.7,285.4z"/>
		<path id="path4097-9-7-5" class="st7" d="M713.1,321.5c3.2-1.2,5.7,2.3,4.9,5.1l-64.6,60.6l-6.2-3.3L713.1,321.5z"/>
		<path id="path4097-9-7-5-3" class="st7" d="M730.5,362.6c3.2-1.2,5.7,2.3,4.9,5.1l-49.6,46.7l-4.6-4.9L730.5,362.6z"/>
		<path id="path4097-9-7-5-3-6" class="st7" d="M740.7,410.7c3.2-1.2,5.7,2.3,4.9,5.1L711,448.4l-3.3-6L740.7,410.7z"/>
		<path id="path4232" class="st7" d="M656.9,193.7l13.4,0.2l4.8-12.8l4.2,12.9l13.3,0.3l-10.8,8.1l3.7,12.6l-11.1-7.5l-11.1,7.6
			l4.1-12.9L656.9,193.7z"/>
		<path id="path4232-2" class="st7" d="M677.1,226.6l13.4,0.2l4.8-12.8l4.2,12.9l13.3,0.3l-10.8,8.1l3.7,12.6l-11.1-7.5l-11.1,7.6
			l4.1-12.9L677.1,226.6z"/>
		<path id="path4232-0" class="st7" d="M701.6,259l13.4,0.2l4.8-12.8l4.2,12.9l13.3,0.3l-10.8,8.1l3.7,12.6l-11.1-7.5l-11.1,7.6
			l4.1-12.9L701.6,259z"/>
		<path id="path4232-24" class="st7" d="M720.1,294.3l13.4,0.2l4.8-12.8l4.2,12.9l13.3,0.3l-10.8,8.1l3.7,12.6l-11.1-7.5l-11.1,7.6
			l4.1-12.9L720.1,294.3z"/>
		<path id="path4232-4" class="st7" d="M736.6,338.6l13.4,0.2l4.8-12.8l4.2,12.9l13.3,0.3l-10.8,8.1l3.7,12.6l-11.1-7.5l-11.1,7.6
			l4.1-12.9L736.6,338.6z"/>
		<path id="path4232-3" class="st7" d="M745,384.2l13.4,0.2l4.8-12.8l4.2,12.9l13.3,0.3L770,393l3.7,12.6l-11.1-7.5l-11.1,7.6
			l4.1-12.9L745,384.2z"/>
		<path id="path4232-45" class="st7" d="M176.4,644.4l13.4,0.2l4.8-12.8l4.2,12.9l13.3,0.3l-10.8,8.1l3.7,12.6l-11.1-7.5l-11.1,7.6
			L187,653L176.4,644.4z"/>
		<path id="path4232-6" class="st7" d="M205.8,670.9l13.4,0.2l4.8-12.8l4.2,12.9l13.3,0.3l-10.8,8.1l3.7,12.6l-11.1-7.5l-11.1,7.6
			l4.1-12.9L205.8,670.9z"/>
		<path id="path4232-34" class="st7" d="M237.5,694.2l13.4,0.2l4.8-12.8l4.2,12.9l13.3,0.3l-10.8,8.1l3.7,12.6l-11.1-7.5l-11.1,7.6
			l4.1-12.9L237.5,694.2z"/>
		<path id="path4232-8" class="st7" d="M272.1,715.4l13.4,0.2l4.8-12.8l4.2,12.9l13.3,0.3l-10.8,8.1l3.7,12.6l-11.1-7.5l-11.1,7.6
			l4.1-12.9L272.1,715.4z"/>
		<path id="path4232-86" class="st7" d="M314,731.9l13.4,0.2l4.8-12.8l4.2,12.9l13.3,0.3l-10.8,8.1l3.7,12.6l-11.1-7.5l-11.1,7.6
			l4.1-12.9L314,731.9z"/>
		<path id="path4232-62" class="st7" d="M363.6,744.7l13.4,0.2l4.8-12.8l4.2,12.9l13.3,0.3l-10.8,8.1l3.7,12.6l-11.1-7.5l-11.1,7.6
			l4.1-12.9L363.6,744.7z"/>
		<path id="path4097-9-0" class="st7" d="M296.8,554.7c3.2-1.2,5.7,2.3,4.9,5.1l-80.4,75.8c-5.8,2.7-6.4-3-4.9-5L296.8,554.7z"/>
		<path id="path4097-9-0-0" class="st7" d="M343.1,559.1c3.2-1.2,5.7,2.3,4.9,5.1l-102.3,96.7c-5.8,2.7-6.4-3-4.9-5L343.1,559.1z"/>
		<path id="path4097-9-0-2" class="st7" d="M388.7,565.5c3.2-1.2,5.7,2.3,4.9,5.1L276,682c-5.8,2.7-6.4-3-4.9-5L388.7,565.5z"/>
		<path id="path4097-9-0-8" class="st7" d="M403.8,607.5c3.2-1.2,5.7,2.3,4.9,5.1L311.5,704c-5.8,2.7-6.4-3-4.9-5L403.8,607.5z"/>
		<path id="path4097-9-0-1" class="st7" d="M428.3,641c3.2-1.2,5.7,2.3,4.9,5.1l-80.4,75.8c-5.8,2.7-6.4-3-4.9-5L428.3,641z"/>
		<path id="path4097-9-0-5" class="st7" d="M461.4,671.4c3.2-1.2,5.7,2.3,4.9,5.1l-62.1,58.4c-5.8,2.7-6.4-3-4.9-5L461.4,671.4z"/>
		<path id="path4097-9-0-5-4" class="st7" d="M356,767.9c3.3-1.5,5.8,2.6,4.6,4.6l-3,3c-4.9,2.6-6.2-3-4.7-5L356,767.9z"/>
		<path id="path4097-9-0-5-4-2" class="st7" d="M305.5,755.2c3.3-1.5,5.8,2.6,4.6,4.6l-3,3c-4.9,2.6-6.2-3-4.7-5L305.5,755.2z"/>
		<path id="path4097-9-0-5-4-0" class="st7" d="M264.6,738.3c3.3-1.5,5.8,2.6,4.6,4.6l-3,3c-4.9,2.6-6.2-3-4.7-5L264.6,738.3z"/>
		<path id="path4097-9-0-5-4-1" class="st7" d="M228.8,714.6c3.3-1.5,5.8,2.6,4.6,4.6l-3,3c-4.9,2.6-6.2-3-4.7-5L228.8,714.6z"/>
		<path id="path4097-9-0-5-4-9" class="st7" d="M199.8,693.1c3.3-1.5,5.8,2.6,4.6,4.6l-3,3c-4.9,2.6-6.2-3-4.7-5L199.8,693.1z"/>
		<path id="path4097-9-0-5-4-5" class="st7" d="M174.5,670.1c3.3-1.5,5.8,2.6,4.6,4.6l-3,3c-4.9,2.6-6.2-3-4.7-5L174.5,670.1z"/>
		<path id="path4097-9-0-5-4-97" class="st7" d="M782.5,372c3.3-1.5,5.8,2.6,4.6,4.6l-3,3c-4.9,2.6-6.2-3-4.7-5L782.5,372z"/>
		<path id="path4097-9-0-5-4-6" class="st7" d="M773.2,321.2c3.3-1.5,5.8,2.6,4.6,4.6l-3,3c-4.9,2.6-6.2-3-4.7-5L773.2,321.2z"/>
		<path id="path4097-9-0-5-4-17" class="st7" d="M757.9,279.7c3.3-1.5,5.8,2.6,4.6,4.6l-3,3c-4.9,2.6-6.2-3-4.7-5L757.9,279.7z"/>
		<path id="path4097-9-0-5-4-15" class="st7" d="M736.7,241.3c3.3-1.5,5.8,2.6,4.6,4.6l-3,3c-4.9,2.6-6.2-3-4.7-5L736.7,241.3z"/>
		<path id="path4097-9-0-5-4-3" class="st7" d="M717.4,211.1c3.3-1.5,5.8,2.6,4.6,4.6l-5.5,4.5c-4.9,2.6-6.2-3-4.7-5L717.4,211.1z"
			/>
		<path id="path4097-9-0-5-4-69" class="st7" d="M700,183.3c3.3-1.5,4.6,1.5,3.4,3.5l-10.2,8.2c-4.4-0.1-8,0.6-5.5-1.8L700,183.3z"
			/>
		<path id="path3107" class="st7" d="M445.9,174.7l6.8-0.2l9.4-32.4c-15.5-2.2-30-4.3-42.2-2.8c-36.8,4.5-57.3,25.4-58.3,46.6
			c-0.5,10.2,0.8,23.9,7.6,34.9c6.7,10.7,18.7,18.8,34.8,18.6c12.5,0.4,24.3-1.9,36.2-3.7l8.7-26.2l-5.6-3.1
			c-6.6,13.9-18.3,24-37.3,25c-27.7-2.5-25.3-25.7-25.5-37.5c-0.2-13.5,7.1-32.4,24.7-41.2c6.4-2.3,9.3-5.5,25.6-5.6
			c6.7,1.4,10.9,2.9,11.7,9.3C444.4,162.3,445.2,169.5,445.9,174.7L445.9,174.7z"/>
		<path id="path3877" class="st7" d="M476.5,125.9l0.4-1.8l31.2,0l-1.5,8.2l-4.5,0.1c-0.8-4.2-2.7-5.2-5-4.9h-7.5l-2.6,12.3h4.6
			c2.9,0.2,3.6-1.9,4.6-3.6l3.3-0.1l-2.1,10.8h-3.6c0.1-1.8-0.5-3.2-2.2-4h-5.3l-3.2,14l9.1-0.2c4.1-1.5,4.5-4.1,6.2-6.4l4.4,0.1
			l-2.6,9.7l-30.9,0.2l0.2-1.8c2.4-0.2,3.2-1.5,4-2.9l5.7-26.9C479.4,127,478.2,126.2,476.5,125.9L476.5,125.9z"/>
		<path id="path3879" class="st7" d="M512.9,125.9l0.5-1.9l16.3,0.2l-0.4,1.5c-2.6,0.7-3.8,2.1-3.9,3.9l-4.6,21.7
			c-0.4,3.4,1,5.8,4.8,6.2c5,0.6,9.3-1.9,9.9-5.4l5-23.6c0.2-2-1.3-2.2-2.6-2.7l0.5-1.8l13.9,0.1l-0.4,1.6c-2.1,0.4-4.1,0.9-4.3,3.7
			l-4.9,22.4c-2,3.8-5,6.3-8.7,7.6c-2.7,0.4-3.9,1-8.1,1.2c-9.9,0.1-11.4-2.4-12.9-3.4c-2.4-4-1.6-5.2-1.6-7.2l4.4-22.2
			C515.7,126.2,514,126.4,512.9,125.9L512.9,125.9z"/>
		<path id="path3881" class="st7" d="M557.4,123.9l-0.3,1.9c1.2,0.4,2.5,0.7,2.7,2.3l-5.7,27.2c-0.4,1.7-1.8,2.7-4.3,3l-0.3,1.8
			l16.8,0.1l0.2-2c-3-0.6-2.6-1.7-2.6-2.7l2.1-10.6l3.2,0.2c1.2,0,2.4,0.3,3.5,3.2c0.7,4.3,2.7,8.1,4.3,12l12.1-0.2l0.7-1.9
			c-1-0.2-2.5-0.7-3.3-1.7c-1-1.2-1.3-3.2-2.3-5.5c-0.5-3.6-2.9-5.5-5.2-7.6c2.8-0.2,10.3-4.3,10.8-10.1c0.4-4.3-0.2-7.2-8.6-9.1
			L557.4,123.9L557.4,123.9z M575.6,127.3c3.3,0.7,5.4,2.6,4.5,7.4c-2.6,7.7-7.5,7.1-9.7,7.5l-3.6-0.2l3.1-14.6L575.6,127.3
			L575.6,127.3z"/>
		<path id="path3886" class="st7" d="M619.1,123.5c-14.6,1-19.5,8.4-22.4,17.4c-4.7,20,10.4,19.9,15.3,19.8
			c7.9-0.8,18.5-2.1,22.3-18.6C637,129.5,632.4,124.4,619.1,123.5z M619.4,126.8c8.3,1.1,5.8,10.5,5.2,16.5
			c-4.9,15.5-9.9,13.8-12.8,14.1c-6.1-0.5-7.5-6.6-4.9-17.4C609.1,133.5,611.2,126.8,619.4,126.8L619.4,126.8z"/>
		<path id="path3877-7" class="st7" d="M462.8,176l0.4-3.3l51.8,0.1l-2.2,15l-7.2,0c-1.3-7.6-4.4-10-8-9.4l-13.4-0.1l-3.6,22.9
			l8.1-0.4c4.7,0.4,5.8-3.4,7.4-6.5l5.8,0.1l-3,19.2l-6.2,0.2c0.2-3.3-1.4-5.7-4.2-7.1h-8.9l-4.4,25.5l15.6,0
			c6.6-2.7,7.6-7.9,10.2-12l6.7,0.2l-3.7,17.4L453,238l0.4-3.2c3.9-0.4,6.2-3,6.4-5.2l7.6-48.3c0.5-3.2-0.6-4.3-3.4-5L462.8,176z"/>
		<path id="path3909" class="st7" d="M516.9,172.6l0.1,3l7.7,1.7c0.8,1,2.2,0.8,1.6,4.1l-7.9,48.9c-1.2,1.5-0.6,3-6,4.3l-0.5,3
			l19.7,0.2l0.2-3.3c-5.2-1.2-4.1-3-4.7-4.6l6.2-40.8l23.5,48.5l13.6,0.2l9.3-56.8c1.3-5.7,5.4-4.4,8.7-5.1l0.5-3.2l-29.1,0.2
			l-0.1,3.1l6.5,0.4c2.7,0.2,5.2,0.7,4.4,5.4l-5.4,36.6l-0.4,0.1c-5.8-13.9-13.8-30-21.3-45.7L516.9,172.6z"/>
		<path id="path3911" class="st7" d="M588.2,189.3l3-16.7l56,0.3l-2.6,16.2l-6.7,0.1c-0.3-9.4-3.4-10.8-7.2-11l-5.2,0.1l-9,50.7
			c-0.5,5.2,2.5,4.9,5,5.5l-0.5,3.3l-26.6-0.2l0.4-3c6-1.2,6.1-3.5,6.9-5.7l9-50.7l-4.9-0.1c-6.2,0.4-8.5,6.2-11.4,11.1L588.2,189.3
			z"/>
		<path id="path4227" class="st7" d="M757.8,441.1c1.8-2.1,3.5-2.4,4.9,0.5l-3.9,20.8l4,0.1l1.9-10.4c1-2.2,3.7-2.4,4.7,0.3
			l-1.3,10.1l3.5-0.1c2.1,1.3,1.4,4.2-0.6,4.7l-4.1,0.4l-0.8,5.5l9.7,0.3c2.2,0.1,3.9,4.6-0.4,5.3h-13c-2.4-0.9-2.3-2.3-1.8-3.9
			l1.2-7.4h-5.5c-1.7-0.5-3.1-1.1-2.4-3.7L757.8,441.1z"/>
		<path id="path3918" class="st8" d="M170.7,169.6c3-8.6,5.9-13.2,20-12.5l93.5,5c30.2,0.6,40-11.2,51.8-21.8l18.1,11.2l-31.5,74.2
			L194.4,222l-33,79.5c9.3-11.7,38.9-10.1,43.7-10c20.6,0.4,108.3,26,108.5,108.2c0.1,37.8-18.5,77.8-46.1,103.5
			c-29.3,27.2-72.9,40.2-112.9,40.5c-25.7,0.2-52.9-8.9-73-24.9c-10.9-8.7-21.2-23.8-22.1-35.2c-1.2-14.8,1.2-32.8,17.5-38.7
			c18.5-6.7,26.5-2.5,38.7,8.7c9.5,8.8,10.2,23.3,14.7,39c3.6,12.6,14.9,23.2,28.1,23.1c35.3-0.4,65.6-28.9,79.2-70.5
			c9-27.4,6.2-63.2-20.6-84.2c-18.3-14.3-45.7-15.3-68.6-11.8c-10.8,1.6-29.3,15-29.3,15l-12.5-6.9L170.7,169.6z"/>
	</g>
</g>
<g id="Layer_2">
	<circle class="st9" cx="425.4" cy="426.9" r="394.6"/>
	<circle class="st10" cx="425.4" cy="426.9" r="362.7"/>
</g>
<g id="Layer_3">
	<g>
		<path id="path3107_00000108991406587644319020000017946156610614481034_" class="st11" d="M444.8,187.4l6.4-0.2l8.9-30.7
			c-14.7-2.1-28.4-4-39.9-2.6c-34.8,4.2-54.3,24-55.2,44.1c-0.4,9.6,0.7,22.7,7.2,33.1c6.3,10.1,17.8,17.8,33,17.6
			c11.8,0.4,23-1.8,34.3-3.5l8.3-24.8l-5.3-3c-6.3,13.1-17.4,22.8-35.3,23.7c-26.3-2.4-23.9-24.4-24.1-35.5
			c-0.2-12.8,6.7-30.7,23.4-39c6.1-2.2,8.8-5.2,24.2-5.3c6.3,1.3,10.3,2.7,11.1,8.8C443.5,175.6,444.2,182.4,444.8,187.4
			L444.8,187.4z"/>
		<path id="path3877_00000180338362443991449170000007742755694151572904_" class="st11" d="M473.8,141.1l0.3-1.7l29.5,0l-1.5,7.7
			l-4.3,0c-0.8-3.9-2.6-5-4.7-4.6h-7.1l-2.5,11.7h4.4c2.8,0.2,3.4-1.8,4.4-3.4l3.2-0.1l-2,10.3h-3.4c0.1-1.7-0.4-3.1-2.1-3.8h-5
			l-3,13.3l8.6-0.1c3.9-1.4,4.3-3.9,5.8-6.1l4.2,0.1l-2.5,9.2l-29.3,0.1l0.2-1.7c2.2-0.2,3.1-1.4,3.8-2.7l5.4-25.5
			C476.6,142.1,475.5,141.4,473.8,141.1L473.8,141.1z"/>
		<path id="path3879_00000026883023076616181270000005161155471802450096_" class="st11" d="M508.3,141.1l0.5-1.8l15.4,0.1l-0.4,1.4
			c-2.5,0.7-3.6,2-3.7,3.7l-4.4,20.5c-0.4,3.3,1,5.4,4.6,5.9c4.7,0.6,8.8-1.8,9.4-5.1l4.7-22.4c0.1-1.9-1.3-2.1-2.4-2.5l0.4-1.7
			l13.1,0.1l-0.4,1.6c-2,0.4-3.8,0.9-4.1,3.5l-4.7,21.3c-1.9,3.6-4.8,6-8.3,7.2c-2.5,0.4-3.7,1-7.7,1.2c-9.4,0.1-10.8-2.2-12.3-3.2
			c-2.3-3.7-1.5-5-1.6-6.9l4.1-21C511,141.4,509.4,141.5,508.3,141.1L508.3,141.1z"/>
		<path id="path3881_00000034072349783245504880000014776711662549706660_" class="st11" d="M550.5,139.2l-0.3,1.8
			c1.1,0.4,2.4,0.7,2.6,2.2l-5.4,25.8c-0.4,1.7-1.7,2.6-4.1,2.9l-0.3,1.7l15.9,0.1l0.2-1.9c-2.8-0.6-2.5-1.6-2.4-2.6l2-10l3,0.2
			c1.1,0,2.2,0.3,3.3,3c0.6,4.1,2.5,7.7,4.1,11.4l11.4-0.2l0.7-1.8c-0.9-0.2-2.4-0.7-3.2-1.6c-0.9-1.2-1.2-3-2.2-5.2
			c-0.5-3.4-2.8-5.2-4.9-7.2c2.6-0.1,9.7-4,10.2-9.6c0.3-4-0.2-6.8-8.1-8.6L550.5,139.2L550.5,139.2z M567.7,142.4
			c3.1,0.6,5.1,2.5,4.3,7c-2.5,7.3-7.1,6.8-9.2,7.1l-3.4-0.2l2.9-13.8L567.7,142.4L567.7,142.4z"/>
		<path id="path3886_00000059994542737649045390000012231590419657938573_" class="st11" d="M608.9,138.8
			c-13.8,0.9-18.5,8-21.2,16.5c-4.4,18.9,9.9,18.9,14.5,18.7c7.5-0.8,17.6-2,21.1-17.6C625.9,144.5,621.5,139.7,608.9,138.8z
			 M609.2,142c7.9,1.1,5.5,10,4.9,15.6c-4.6,14.7-9.4,13.1-12.2,13.4c-5.8-0.5-7.1-6.3-4.7-16.5C599.4,148.3,601.5,142,609.2,142
			L609.2,142z"/>
		<path id="path3877-7_00000086677427878643869080000016779481358720828088_" class="st11" d="M460.9,188.5l0.4-3.1l49.1,0.1
			l-2.1,14.2l-6.8,0c-1.2-7.2-4.2-9.5-7.6-8.9l-12.7-0.1l-3.4,21.7l7.7-0.4c4.4,0.3,5.5-3.3,7-6.2l5.5,0.1l-2.8,18.2l-5.8,0.2
			c0.2-3.1-1.3-5.4-3.9-6.7H477l-4.2,24.1l14.8,0c6.3-2.6,7.2-7.5,9.7-11.4l6.3,0.2l-3.5,16.5l-48.5,0.2l0.3-3
			c3.7-0.3,5.9-2.8,6-4.9l7.2-45.8c0.5-3.1-0.5-4.1-3.2-4.7L460.9,188.5z"/>
		<path id="path3909_00000152966407673220330440000000492206151784986258_" class="st11" d="M512.1,185.3l0.1,2.8l7.3,1.6
			c0.7,0.9,2.1,0.8,1.6,3.8l-7.5,46.3c-1.1,1.4-0.6,2.9-5.7,4.1l-0.4,2.9l18.7,0.2l0.2-3.1c-5-1.2-3.9-2.8-4.4-4.4l5.9-38.6
			l22.2,45.9l12.8,0.2l8.8-53.8c1.3-5.4,5.1-4.1,8.2-4.8l0.4-3l-27.5,0.1l-0.1,3l6.2,0.4c2.5,0.2,4.9,0.6,4.1,5.1l-5.1,34.6
			l-0.4,0.1c-5.5-13.2-13.1-28.5-20.2-43.3L512.1,185.3z"/>
		<path id="path3911_00000120553739801047769900000015361579203284546450_" class="st11" d="M579.6,201.2l2.9-15.8l53,0.3l-2.4,15.4
			l-6.3,0.1c-0.3-8.9-3.2-10.2-6.8-10.4l-4.9,0.1l-8.5,48.1c-0.5,4.9,2.4,4.6,4.7,5.2l-0.4,3.1l-25.2-0.2l0.4-2.8
			c5.6-1.1,5.8-3.3,6.5-5.4l8.5-48l-4.7-0.1c-5.9,0.4-8.1,5.8-10.8,10.6L579.6,201.2z"/>
		<path id="path4097_00000060722502161149174140000006822730448579770782_" class="st11" d="M640.8,236.4c3.1-1.1,5.4,2.2,4.6,4.8
			L505.5,373.4l-14.2,5.4L640.8,236.4z"/>
		<path id="path4097-9_00000146466263022855794630000014361069551897635737_" class="st11" d="M660,261.5c3.1-1.1,5.4,2.2,4.6,4.8
			l-104.4,98.8h-9.6L660,261.5z"/>
		<path id="path4097-9-7_00000031184893022392485690000000517444657123149990_" class="st11" d="M678.6,292.9
			c3.1-1.1,5.4,2.2,4.6,4.8L604,372l-7.1-1.9L678.6,292.9z"/>
		<path id="path4097-9-7-5_00000045578053349363909530000014396817264741567365_" class="st11" d="M697.9,327
			c3.1-1.1,5.4,2.2,4.6,4.8l-61.2,57.4l-5.8-3.1L697.9,327z"/>
		<path id="path4097-9-7-5-3_00000016033328784346745950000000781338191936383630_" class="st11" d="M714.4,366
			c3.1-1.1,5.4,2.2,4.6,4.8L672,415l-4.4-4.6L714.4,366z"/>
		<path id="path4097-9-7-5-3-6_00000170982905025100250170000014176697882952729790_" class="st11" d="M724.1,411.6
			c3.1-1.1,5.4,2.2,4.6,4.8l-32.8,30.9l-3.1-5.6L724.1,411.6z"/>
		<path id="path4232_00000128447992595572189310000009902995159747764105_" class="st11" d="M644.7,206l12.7,0.1L662,194l4,12.3
			l12.6,0.3l-10.2,7.7l3.5,12l-10.5-7.1l-10.5,7.2l3.8-12.3L644.7,206z"/>
		<path id="path4232-2_00000173142167805878102800000002686634541188627076_" class="st11" d="M663.8,237.2l12.7,0.1l4.6-12.1
			l4,12.3l12.6,0.3l-10.2,7.7l3.5,12l-10.5-7.1l-10.5,7.2l3.8-12.3L663.8,237.2z"/>
		<path id="path4232-0_00000157306164578291776560000016703178859965405360_" class="st11" d="M687,267.9l12.7,0.1l4.6-12.1l4,12.3
			l12.6,0.3l-10.2,7.7l3.5,12l-10.5-7.1l-10.5,7.2L697,276L687,267.9z"/>
		<path id="path4232-24_00000076564158089912242130000003566856600973947025_" class="st11" d="M704.6,301.3l12.7,0.1l4.6-12.1
			l4,12.3l12.6,0.3l-10.2,7.7l3.5,12l-10.5-7.1l-10.5,7.2l3.8-12.3L704.6,301.3z"/>
		<path id="path4232-4_00000049933806129014966040000017164034826323081119_" class="st11" d="M720.2,343.3l12.7,0.1l4.6-12.1
			l4,12.3l12.6,0.3l-10.2,7.7l3.5,12l-10.5-7.1l-10.5,7.2l3.8-12.3L720.2,343.3z"/>
		<path id="path4232-3_00000148662431637772304910000002957556617222694313_" class="st11" d="M728.1,386.5l12.7,0.1l4.6-12.1
			l4,12.3l12.6,0.3l-10.2,7.7l3.5,12l-10.5-7.1l-10.5,7.2l3.8-12.3L728.1,386.5z"/>
		<path id="path4232-45_00000129902192472526965930000007528625680862401932_" class="st11" d="M189.6,632.9l12.7,0.1l4.6-12.1
			l4,12.3l12.6,0.3l-10.2,7.7l3.5,12l-10.5-7.1l-10.5,7.2l3.8-12.3L189.6,632.9z"/>
		<path id="path4232-6_00000112609778243937010250000017411698754033752228_" class="st11" d="M217.4,658l12.7,0.1l4.6-12.1l4,12.3
			l12.6,0.3l-10.2,7.7l3.5,12l-10.5-7.1l-10.5,7.2l3.8-12.3L217.4,658z"/>
		<path id="path4232-34_00000130638682789956219900000017065253810113244563_" class="st11" d="M247.4,680.1l12.7,0.1l4.6-12.1
			l4,12.3l12.6,0.3l-10.2,7.7l3.5,12l-10.5-7.1l-10.5,7.2l3.8-12.3L247.4,680.1z"/>
		<path id="path4232-8_00000072265972174012194880000001409112467052290231_" class="st11" d="M280.2,700.2l12.7,0.1l4.6-12.1
			l4,12.3l12.6,0.3l-10.2,7.7l3.5,12l-10.5-7.1l-10.5,7.2l3.8-12.3L280.2,700.2z"/>
		<path id="path4232-86_00000104706435835499976340000012140389343431771783_" class="st11" d="M319.9,715.8l12.7,0.1l4.6-12.1
			l4,12.3l12.6,0.3l-10.2,7.7l3.5,12l-10.5-7.1l-10.5,7.2l3.8-12.3L319.9,715.8z"/>
		<path id="path4232-62_00000013179985974183224240000015251744320354579358_" class="st11" d="M366.9,727.9l12.7,0.1l4.6-12.1
			l4,12.3l12.6,0.3l-10.2,7.7l3.5,12l-10.5-7.1l-10.5,7.2l3.8-12.3L366.9,727.9z"/>
		<path id="path4097-9-0_00000096060235764160918860000009752579774369299638_" class="st11" d="M303.6,548c3.1-1.1,5.4,2.2,4.6,4.8
			l-76.1,71.8c-5.5,2.6-6.1-2.8-4.6-4.7L303.6,548z"/>
		<path id="path4097-9-0-0_00000052068754666191362890000017869206097478153908_" class="st11" d="M347.5,552.1
			c3.1-1.1,5.4,2.2,4.6,4.8l-96.9,91.6c-5.5,2.6-6.1-2.8-4.6-4.7L347.5,552.1z"/>
		<path id="path4097-9-0-2_00000057127168845336299540000013725641691246778510_" class="st11" d="M390.7,558.2
			c3.1-1.1,5.4,2.2,4.6,4.8L283.9,668.5c-5.5,2.6-6.1-2.8-4.6-4.7L390.7,558.2z"/>
		<path id="path4097-9-0-8_00000116196363060581732660000009473671821852326814_" class="st11" d="M404.9,597.9
			c3.1-1.1,5.4,2.2,4.6,4.8l-92,86.7c-5.5,2.6-6.1-2.8-4.6-4.7L404.9,597.9z"/>
		<path id="path4097-9-0-1_00000147915737062737448200000005980515347661716414_" class="st11" d="M428.2,629.7
			c3.1-1.1,5.4,2.2,4.6,4.8l-76.1,71.8c-5.5,2.6-6.1-2.8-4.6-4.7L428.2,629.7z"/>
		<path id="path4097-9-0-5_00000046316699748644623240000015165145748334250115_" class="st11" d="M459.5,658.5
			c3.1-1.1,5.4,2.2,4.6,4.8l-58.8,55.3c-5.5,2.6-6.1-2.8-4.6-4.7L459.5,658.5z"/>
		<path id="path4097-9-0-5-4_00000030480091518203302400000004008351183205153973_" class="st11" d="M359.7,749.9
			c3.1-1.4,5.5,2.5,4.4,4.3l-2.9,2.8c-4.6,2.4-5.9-2.9-4.4-4.8L359.7,749.9z"/>
		<path id="path4097-9-0-5-4-2_00000183939008727733602230000012171547948052697491_" class="st11" d="M311.8,737.8
			c3.1-1.4,5.5,2.5,4.4,4.3l-2.9,2.8c-4.6,2.4-5.9-2.9-4.4-4.8L311.8,737.8z"/>
		<path id="path4097-9-0-5-4-0_00000109028044014566344720000017809691264007726245_" class="st11" d="M273.1,721.9
			c3.1-1.4,5.5,2.5,4.4,4.3l-2.9,2.8c-4.6,2.4-5.9-2.9-4.4-4.8L273.1,721.9z"/>
		<path id="path4097-9-0-5-4-1_00000077304706076160616860000003126483137837702060_" class="st11" d="M239.1,699.4
			c3.1-1.4,5.5,2.5,4.4,4.3l-2.9,2.8c-4.6,2.4-5.9-2.9-4.4-4.8L239.1,699.4z"/>
		<path id="path4097-9-0-5-4-9_00000079456127600524099490000002822885581771488655_" class="st11" d="M211.7,679.1
			c3.1-1.4,5.5,2.5,4.4,4.3l-2.9,2.8c-4.6,2.4-5.9-2.9-4.4-4.8L211.7,679.1z"/>
		<path id="path4097-9-0-5-4-5_00000109730557609990061320000005130434167771477409_" class="st11" d="M187.8,657.2
			c3.1-1.4,5.5,2.5,4.4,4.3l-2.9,2.8c-4.6,2.4-5.9-2.9-4.4-4.8L187.8,657.2z"/>
		<path id="path4097-9-0-5-4-97_00000011727024505226824770000007711066359838444672_" class="st11" d="M763.7,374.9
			c3.1-1.4,5.5,2.5,4.4,4.3l-2.9,2.8c-4.6,2.4-5.9-2.9-4.4-4.8L763.7,374.9z"/>
		<path id="path4097-9-0-5-4-6_00000134934327600702829140000002196646923673922439_" class="st11" d="M754.8,326.7
			c3.1-1.4,5.5,2.5,4.4,4.3l-2.9,2.8c-4.6,2.4-5.9-2.9-4.4-4.8L754.8,326.7z"/>
		<path id="path4097-9-0-5-4-17_00000183216651635405679800000018309001526405907074_" class="st11" d="M740.3,287.5
			c3.1-1.4,5.5,2.5,4.4,4.3l-2.9,2.8c-4.6,2.4-5.9-2.9-4.4-4.8L740.3,287.5z"/>
		<path id="path4097-9-0-5-4-15_00000044874758336066548020000011913332615845317027_" class="st11" d="M720.2,251.1
			c3.1-1.4,5.5,2.5,4.4,4.3l-2.9,2.8c-4.6,2.4-5.9-2.9-4.4-4.8L720.2,251.1z"/>
		<path id="path4097-9-0-5-4-3_00000142169340556192275190000015806239676005215650_" class="st11" d="M701.9,222.5
			c3.1-1.4,5.5,2.5,4.4,4.3l-5.2,4.3c-4.6,2.4-5.9-2.9-4.4-4.8L701.9,222.5z"/>
		<path id="path4097-9-0-5-4-69_00000182496210219636154520000010198808179953783173_" class="st11" d="M685.5,196.1
			c3.1-1.4,4.4,1.4,3.2,3.3l-9.7,7.8c-4.1-0.1-7.5,0.6-5.2-1.7L685.5,196.1z"/>
	</g>
	<g id="layer1" transform="translate(-163.82485,-265.4736)">
		<g id="g4154">
			<path id="path3620" class="st12" d="M695.8,633.4c-86.3,78.7-90.5,243,13.7,308.9"/>
			<path id="path3935" class="st12" d="M695.3,635.3c115.4,42.8,137.7,197.8,82,294.7"/>
			<path id="path4227_00000027566101087141097470000013706814097973076413_" class="st12" d="M694.5,633.1l50.4,307.7"/>
			<path id="path4229" class="st12" d="M612.3,677.8c52.8,49.5,141.9,27.5,183.4-25.6"/>
			<path id="path4231" class="st12" d="M577.2,739.7c82.7,53.8,205.1,38.5,268.2-38.8"/>
			<path id="path4233" class="st12" d="M569,815.8c95.1,53,232.2,41.4,300.5-49.6"/>
			<path id="path4750" class="st12" d="M865.9,825.6c-21.6,83.2-104.7,133.7-185.8,112.9C599,917.7,550.5,833.4,571.6,750.1
				c21.1-83.3,104-134.3,185.2-114C838,656.4,887,740.4,866.3,823.9"/>
			<path id="path4235" class="st12" d="M594.9,880.3c81.9,56.6,208.5,40.4,267.6-41.8"/>
			<path id="path4152" class="st12" d="M857.7,849.1c3.9-9,7-18.4,9.2-27.9"/>
		</g>
	</g>
	<path id="path3934" class="st11" d="M145.3,252l18.8,10.6c10.2-11.9,35.3-43.1,71.3-43.9c20.1-0.4,49.7,16.2,46.1,45.3
		c-9,72.8-75,148.4-94,164.7l-99.9,85.8c-4.8,5.3-6,16.8,8.2,17.7l216.6,3.5l38.8-94.2l-21.2-10.6c0,0-10.2,17.9-16.5,25.5
		c-7,8.6-8,13.9-18.1,18.5c-18.4,8.4-113.7,4.2-113.7,4.2s60.7-49,88.3-76.5c20.3-20.2,41.8-40.2,56.5-64.7
		c12.5-20.9,24-44,25.9-68.3c2-25.2,0.3-54.3-15.3-74.1c-16.7-21.2-44.7-34.9-73.2-34.7c-47.1,0.2-65.6,20.1-88.1,43
		C158.7,221.4,145.3,252,145.3,252L145.3,252z"/>
</g>
</svg>
