<?xml version="1.0" encoding="utf-8"?>
<!-- Generator: Adobe Illustrator 28.1.0, SVG Export Plug-In . SVG Version: 6.00 Build 0)  -->
<svg version="1.1" xmlns="http://www.w3.org/2000/svg" xmlns:xlink="http://www.w3.org/1999/xlink" x="0px" y="0px"
	 viewBox="0 0 850.4 850.4" style="enable-background:new 0 0 850.4 850.4;" xml:space="preserve">
<style type="text/css">
	.st0{fill:#D8AE3A;stroke:#000000;stroke-width:5;}
	.st1{fill:#F4C356;stroke:#AA7F09;stroke-width:2;}
	.st2{fill:url(#path7998-6_00000165940865189206501240000009003353574273684139_);}
	.st3{fill:#261908;fill-opacity:0.1294;}
	.st4{fill:#160C00;fill-opacity:0.1294;}
	.st5{fill:#261908;fill-opacity:0.3137;}
</style>
<g id="Layer_1">
	<g id="g7815">
		<path id="path7026" class="st0" d="M319.5,684.6c0,0,3.5,6,9.6,8.1c6.1,2.2,10.8-0.6,10.8-0.6s5.7-4.2,12-2.5
			c6.2,1.7,9.1,8.3,9.1,8.3c5.4,7.9,12.6,2.3,12.6,2.3s2.6-3.8,9-2.8c6.4,1.1,8.8,6.1,8.8,6.1s4.9,4.7,11.3,5.3
			c6.4,0.6,10.3-3.3,10.3-3.3s5.2-3.8,11.7-3.7c6.5,0.1,10.1,4,10.1,4s5.5,3.9,12,3.5c6.4-0.4,9.7-4.9,9.7-4.9s4.5-4.4,10.9-5.4
			c6.4-1,10.6,2.3,10.6,2.3s6.2,3.1,12.4,1.7c6.3-1.4,8.8-6.3,8.8-6.3s3.8-5.1,10-7c6.2-1.9,10.8,0.7,10.8,0.7s6.5,2.1,12.5-0.2
			c6-2.3,7.8-7.5,7.8-7.5s3-5.7,8.8-8.5c5.8-2.8,10.8-0.9,10.8-0.9s6.8,1.1,12.4-2.2c5.5-3.3,6.5-8.6,6.5-8.6s2.1-6,7.3-9.7
			c5.3-3.7,10.6-2.6,10.6-2.6s6.8,0,11.9-4c5-4,5.1-9.5,5.1-9.5s1.1-6.3,5.8-10.7c4.7-4.4,10-4.1,10-4.1s6.7-1,11.1-5.8
			c4.4-4.7,3.6-10.2,3.6-10.2s0.1-6.3,4-11.4c3.9-5.1,9.3-5.7,9.3-5.7s6.6-2.1,10.1-7.5c3.5-5.4,1.9-10.6,1.9-10.6s-0.9-6.3,2.2-12
			c3.1-5.7,8.2-7.1,8.2-7.1s6.1-3.1,8.7-8.9c2.6-5.9,0.2-10.8,0.2-10.8s-1.9-6.1,0.2-12.2c2.2-6.1,7-8.2,7-8.2s5.5-4,7.2-10.2
			c1.7-6.2-1.5-10.7-1.5-10.7s-2.8-5.8-1.7-12.1c1.2-6.3,5.7-9.2,5.7-9.2s4.8-4.8,5.5-11.2c0.7-6.4-3.1-10.4-3.1-10.4
			s-3.7-5.3-3.5-11.7c0.2-6.4,4.1-10,4.1-10s4-5.4,3.7-11.9c-0.3-6.4-4.7-9.8-4.7-9.8s-4.4-4.6-5.3-10.9c-0.9-6.4,2.5-10.6,2.5-10.6
			s3.2-6.1,1.8-12.4c-1.4-6.3-6.2-8.9-6.2-8.9s-5.1-3.8-7-10c-1.8-6.2,0.8-10.8,0.8-10.8s2.1-6.4-0.2-12.5c-2.3-6-7.5-7.8-7.5-7.8
			s-5.7-3-8.4-8.9c-2.7-5.8-0.8-10.8-0.8-10.8s1.2-6.8-2.1-12.4c-3.2-5.6-8.6-6.6-8.6-6.6s-6-2.1-9.7-7.4
			c-3.6-5.3-2.5-10.6-2.5-10.6s0.1-6.8-3.9-11.9c-4-5.1-9.5-5.2-9.5-5.2s-6.4-1.1-10.7-5.9c-4.4-4.7-4.1-10-4.1-10s-1-6.7-5.7-11.1
			c-4.7-4.4-10.2-3.7-10.2-3.7s-6.3-0.2-11.4-4.2c-5.1-4-5.6-9.3-5.6-9.3s-2-6.6-7.3-10.2c-5.4-3.6-10.6-2.1-10.6-2.1
			s-6.3,0.8-12-2.4c-5.6-3.2-6.9-8.4-6.9-8.4s-3-6.2-8.8-8.9c-5.8-2.7-10.8-0.5-10.8-0.5s-6.2,1.8-12.2-0.5c-6-2.3-8.1-7.2-8.1-7.2
			s-3.8-5.6-10-7.5c-6.2-1.9-10.8,1.1-10.8,1.1s-5.8,2.6-12.1,1.3c-6.3-1.4-9.1-6-9.1-6s-4.6-5-11-5.9c-6.4-0.9-10.5,2.7-10.5,2.7
			s-5.4,3.5-11.8,3.1c-6.4-0.4-9.9-4.5-9.9-4.5s-5.3-4.2-11.8-4.2c-6.5,0-10,4.3-10,4.3s-4.8,4.3-11.2,4.8
			c-6.4,0.5-10.4-2.9-10.4-2.9s-5.9-3.3-12.3-2.4c-6.4,1-9.2,5.8-9.2,5.8s-4.1,4.9-10.3,6.5c-6.3,1.6-10.8-1.3-10.8-1.3
			s-6.4-2.5-12.5-0.4c-6.1,2-8.2,7.1-8.2,7.1s-3.3,5.5-9.2,8c-6,2.5-10.9,0.3-10.9,0.3s-6.6-1.4-12.4,1.5c-5.8,2.9-7,8.3-7,8.3
			s-2.4,6-7.9,9.3c-5.5,3.3-10.6,2-10.6,2s-6.9-0.4-12.1,3.4c-5.2,3.8-5.6,9.2-5.6,9.2s-1.4,6.2-6.4,10.4
			c-4.9,4.2-10.3,3.6-10.3,3.6s-6.8,0.7-11.4,5.2c-4.6,4.5-4.2,10-4.2,10s-0.4,6.4-4.7,11.3c-4.2,4.8-9.5,5.1-9.5,5.1
			s-6.5,1.7-10.4,6.8c-3.9,5.1-2.5,10.6-2.5,10.6s0.5,6.3-2.8,11.8c-3.3,5.5-8.6,6.6-8.6,6.6s-6.3,2.7-9.2,8.5
			c-2.9,5.7-0.8,10.8-0.8,10.8s1.5,6.2-0.9,12.1c-2.5,5.9-7.5,7.9-7.5,7.9s-5.8,3.7-7.8,9.8c-2,6.1,0.9,10.8,0.9,10.8
			s2.5,5.9,1,12.1c-1.5,6.3-6.2,8.9-6.2,8.9s-5.1,4.5-6.2,10.9c-1,6.4,2.5,10.5,2.5,10.5s3.4,5.4,2.9,11.9c-0.5,6.4-4.7,9.8-4.7,9.8
			s-4.3,5.2-4.4,11.7c-0.1,6.4,4.2,10,4.2,10s4.3,4.9,4.7,11.3c0.4,6.4-3.1,10.3-3.1,10.3s-3.6,5.9-2.5,12.3
			c1.1,6.4,5.7,9.2,5.7,9.2s4.9,4.1,6.4,10.4c1.5,6.3-1.4,10.8-1.4,10.8s-2.5,6.4-0.5,12.5c2,6.1,7,8.2,7,8.2s5.5,3.3,7.9,9.3
			c2.4,6,0.2,10.8,0.2,10.8s-1.5,6.6,1.4,12.4c2.8,5.8,8.3,7.1,8.3,7.1s5.8,2.4,9.2,7.9c3.4,5.5,2,10.7,2,10.7s-0.5,6.8,3.3,12.1
			c3.8,5.2,9.2,5.7,9.2,5.7s6.2,1.5,10.4,6.4c4.1,5,3.5,10.3,3.5,10.3s0.6,6.8,5.1,11.4c4.5,4.7,10,4.3,10,4.3s6.5,0.5,11.3,4.8
			c4.8,4.3,5,9.6,5,9.6s1.6,6.7,6.8,10.6c5.2,3.8,10.5,2.6,10.5,2.6s6.3-0.4,11.8,3c5.5,3.4,6.5,8.7,6.5,8.7s2.6,6.4,8.3,9.4
			c5.7,3,10.8,1,10.8,1s6.2-1.4,12.1,1.2c5.9,2.6,7.7,7.7,7.7,7.7"/>
		<path id="path7998" class="st1" d="M695.1,426.9c0,146.7-120.5,265.7-269.2,265.7s-269.2-119-269.2-265.7
			c0-146.7,120.5-265.7,269.2-265.7S695.1,280.1,695.1,426.9z"/>
		
			<linearGradient id="path7998-6_00000047052436108764221210000017343678787346734486_" gradientUnits="userSpaceOnUse" x1="1312.1951" y1="-787.0673" x2="3150.0481" y2="-787.0673" gradientTransform="matrix(0.1226 0 0 -0.1871 148.3 417.7525)">
			<stop  offset="0" style="stop-color:#E6E6E6"/>
			<stop  offset="1" style="stop-color:#CCCCCC;stop-opacity:0.7459"/>
		</linearGradient>
		<path id="path7998-6" style="fill:url(#path7998-6_00000047052436108764221210000017343678787346734486_);" d="M534.5,559.3
			c-1,1.8-1.6,3.8-1.8,5.9c-0.1,2,0.1,3.8,0.4,5.5C533.8,567,534.2,563.2,534.5,559.3L534.5,559.3z"/>
	</g>
</g>
<g id="Layer_2">
	<g id="layer1_00000158735772847276487130000011746899284967514558_" transform="translate(-135.66 -346.14)">
		<g id="g7815_00000127724415597725688650000009482394756512651168_">
			<path id="path7759_00000125560762432991889180000002506808246418016444_" class="st3" d="M347.5,764.3c4,0.1,7.8-1.8,11.7-2.6
				c1.7-0.4,3.4-0.6,5-1c1.2-0.3,2.4-1,3.7-1c1.8,0,3.7,0.6,5.4,1.3c0.8,0.3,1.6,1.8,2.3,1.3c0.9-0.5,0-2,0-3
				c-0.1-1.3-1.2-2.9-0.3-4c0.8-1,2.5-0.2,3.7-0.7c1.5-0.5,3.5-0.9,4-2.3c0.4-1.1,1-3.3-1-3.3c-2,0-4.9,0.3-7-0.7
				c-1.2-0.5-2.6-1.4-3-2.6c-0.8-2.5,2.6-5.1,2-7.6c-0.7-2.7-4.6-3.7-5.7-6.3c-0.7-1.5,0.1-3.4-0.3-5c-0.4-1.3-1.3-2.4-2-3.6
				c-0.9-1.6-2.9-2.8-3-4.6c-0.1-2.6,2.3-6.6,3.7-6.9c1.3-0.3,3.3-1.3,3-2.6c-0.4-2-3.9-1.9-6-2c-0.8,0-1.6,1.1-2.3,0.7
				c-0.7-0.4-0.9-1.5-0.7-2.3c0.4-1.7,4-2.2,3.7-4c-0.2-1.1-1.9-1.6-3-1.7c-1.2-0.1-2.4,0.6-3.4,1.3c-1.5,1.1-2.5,2.8-3.7,4.3
				c-0.6,0.7-1.7,1.4-1.7,2.3c0,0.9,1.7,1.1,1.7,2c-0.1,1.4-2.2,1.9-3,3c-0.5,0.7-1.6,1.5-1.3,2.3c0.3,0.9,1.9,0.5,2.7,1
				c0.8,0.6,1.8,1.3,2,2.3c0.2,1-0.8,1.9-1,3c-0.1,0.5-0.3,1.2,0,1.7c0.4,0.6,1.8,0.3,2,1c0.4,1-2.2,2.3-1.3,3c1.5,1.3,3.1-2.5,5-3
				c0.5-0.1,1.2-0.3,1.7,0c0.8,0.6,0.6,2,0.7,3c0.1,1,0,1.7,0,3c0,1.3-0.2,3.1,0,4.6c0.1,1,0.9,2,0.7,3c-0.3,1.5-1.4,2.8-2.7,3.6
				c-1,0.7-2.5,0.6-3.7,1c-0.9,0.3-2.3,0.1-2.7,1c-0.6,1.3,2,2.6,1.7,4c-0.3,1.4-1.7,2.4-3,3c-1.3,0.5-3.5-1.2-4.4,0
				c-0.4,0.6,0.1,1.6,0.7,2c1.8,1.2,4.5-0.6,6.7-0.3c1.7,0.2,4,0,5,1.3c0.5,0.7,0.1,1.8,0,2.6c-0.1,0.7-0.1,1.5-0.7,2
				c-2.3,1.9-6.3,0-9,1.3c-2.1,1-5.6,2.4-5,4.6C345.3,764.4,346.6,764.2,347.5,764.3L347.5,764.3z"/>
			<path id="path7761_00000106143092293274156160000013019447882676455582_" class="st3" d="M328.3,747.4c-1.3-1.9-0.3-5.1,1.3-6.6
				c1.7-1.6,4.8-0.3,7-1c1-0.3,2.5-0.3,2.7-1.3c0.1-0.8-1-1.3-1.7-1.7c-1.4-0.7-3.8,0.6-4.7-0.7c-1.2-1.7-0.3-4.7,1.3-6
				c1-0.8,2.8-0.6,4,0c0.8,0.4,0.8,1.8,1.7,2c1.2,0.3,2.7-0.3,3.4-1.3c0.9-1.3-1.1-3.5,0-4.6c1-1,2.9-0.3,4.4,0
				c1.6,0.3,3.5,0.7,4.4,2c0.9,1.4,0.7,3.5,0,5c-0.6,1.1-2.5,1.2-3,2.3c-0.8,1.7,0.1,3.7,0,5.6c-0.1,1.7,0.8,3.7-0.3,5
				c-1.3,1.5-3.8,0.9-5.7,1.3c-2.8,0.5-5.6,1.4-8.4,1.3C332.5,748.7,329.5,749.2,328.3,747.4L328.3,747.4z"/>
			<path id="path7745_00000103982961706668423830000005289082925993312689_" class="st3" d="M373.4,830.2c-0.7,0-1.5,0.5-2,1
				c-0.5,0.4-1,1-1,1.7c0,1,0.9,1.9,1.7,2.6c1.3,1.2,3,2.9,4.7,2.3c1.2-0.4,1.2-2.2,1.7-3.3c0.3-0.6,1-1.4,0.7-2
				C378.2,830.7,375.4,830.2,373.4,830.2L373.4,830.2z"/>
			<path id="path7747_00000058556751632431470160000004690498584537528475_" class="st3" d="M409,823.3c1.2-1.1,0.8-3.1,1-4.6
				c0.2-1.4,0.8-3,0.3-4.3c-0.2-0.4-0.6-0.8-1-1c-1.2-0.5-2.9-0.7-4,0c-1.2,0.8-1.4,2.6-1.7,4c-0.3,1.6-0.5,3.5,0.3,5
				c0.4,0.7,1.2,1.1,2,1.3C407,823.8,408.3,823.9,409,823.3L409,823.3z"/>
			<path id="path7749_00000119830806079683334730000010558518724458620323_" class="st3" d="M409.7,828.9c0.1,0.7-1.1,1-1.3,1.7
				c-0.4,1.1,0.2,2.4,0,3.6c-0.1,0.9-0.7,1.3-0.7,2.6s0.2,2.6-0.7,3.3c-0.9,0.7-2.2,0-3.4,0c-0.8,0-2.3,1.7-2.3,0
				c0-1.7-0.1-2.9,0-4.3c0.1-1.5,0-3.1,0.3-4.6c0.4-1.6,0.7-3.5,2-4.6c0.6-0.5,1.5-0.8,2.3-0.7C407.6,826.2,409.5,827.3,409.7,828.9
				L409.7,828.9z"/>
			<path id="path7755_00000133508801975631741660000006195959270037709209_" class="st3" d="M440.8,845.2c1.5,1.5-0.1,4.2-0.3,6.3
				c-0.1,1.1,0.2,2.5-0.7,3.3c-1.1,1-2.9,0.7-4.4,0.7c-1.9,0-3.8-0.5-5.7-1c-1.8-0.5-4-0.7-5.4-2c-1-0.9-1.3-2.4-1.7-3.6
				c-0.3-1-0.8-2.1-0.3-3c0.3-0.7,1-1.3,2-1.3c1,0-1.7-0.7,4,0c5.7,0.7,4.2,0.6,6.4,0.7C436.7,845.3,439.4,843.7,440.8,845.2
				L440.8,845.2z"/>
			<path id="path7757_00000070099292849293737840000012708553012352301441_" class="st3" d="M491.5,855c0,2.3-2.6,4.1-4.7,5
				c-1.7,0.7-3.8,0-5.7,0c-1.8,0-4,1.7-5.4,0c-1.3-1.7-3.4-1.9-3-3.3c0.5-1.6,3.3-0.9,5-1.3c2.1-0.5,4.7-0.7,6.4-1.3
				c1.7-0.7,3.6-1.9,5.4-1.3C490.4,853,491.5,854,491.5,855z"/>
			<path id="path7757-8_00000127029975079350931680000007591805770032450455_" class="st3" d="M490.7,870c0,2.3-2.6,4.1-4.7,5
				c-1.7,0.7-3.8,0-5.7,0c-1.8,0-4,1.7-5.4,0c-1.3-1.7-3.4-1.9-3-3.3c0.5-1.6,3.3-0.9,5-1.3c2.1-0.5,4.7-0.7,6.4-1.3
				c1.7-0.7,3.6-1.9,5.4-1.3C489.7,868,490.7,869,490.7,870z"/>
			<path id="path7745-1_00000130615218734605076730000008522133454721976762_" class="st3" d="M431.1,858.8c-0.7,0-1.5,0.5-2,1
				c-0.5,0.4-1,1-1,1.7c0,1,0.9,1.9,1.7,2.6c1.3,1.2,3,2.9,4.7,2.3c1.2-0.4,1.2-2.2,1.7-3.3c0.3-0.6,1-1.4,0.7-2
				C436,859.2,433.2,858.7,431.1,858.8L431.1,858.8z"/>
			<path id="path7763_00000067210162247201203790000010374357557408813735_" class="st3" d="M441.9,717.3c-1.1,1.7-0.5,4,0,6
				c0.2,0.6,0.4,1.6,1,1.7c1.2,0.1,1.8-1.6,2.3-2.6c0.8-1.7,1.1-3.7,1-5.6c0-0.5,0.1-1.1-0.3-1.3C444.6,714.7,442.7,716,441.9,717.3
				L441.9,717.3z"/>
			<path id="path7769_00000031920905068758472140000016846023369389518228_" class="st3" d="M414,732.8c-0.6,1.3-0.3,3.3,0.7,4.3
				c0.4,0.4,1.1,0.5,1.7,0.3c0.8-0.2,1.4-0.9,1.7-1.7c0.4-0.9,0.3-2,0-3c-0.2-0.7-0.6-1.5-1.3-1.7
				C415.7,730.9,414.5,731.8,414,732.8L414,732.8z"/>
			<path id="path7769-0_00000156585988684676687100000001375116525185711546_" class="st3" d="M420.8,732.8
				c-0.6,1.3-0.3,3.3,0.7,4.3c0.4,0.4,1.1,0.5,1.7,0.3c0.8-0.2,1.4-0.9,1.7-1.7c0.4-0.9,0.3-2,0-3c-0.2-0.7-0.6-1.5-1.3-1.7
				C422.4,730.9,421.2,731.8,420.8,732.8L420.8,732.8z"/>
			<path id="path5532_00000058557617381476251040000008395589532359388312_" class="st3" d="M324.4,864.1c-1-3.3-2.9-6.5,6.8-9.8
				c8.6-0.5,13.9,0.8,13.5,5.3c-2,3.8-3.6,5.5-6,6.8C330.7,865.6,328.9,864.9,324.4,864.1L324.4,864.1z"/>
			<path id="path5536_00000132078278124613413600000001878843524409237892_" class="st4" d="M491.1,1015
				c67.6,30.1,311.8,10,326.1-239.8c6.7-116.5-95.6-283.6-328.3-245.8l0.8,105.1l0.3,0.1c0.2-3.4-25.9-6.4-25.6-3
				c-0.5-1.4-2.5-2.2-2.5-3.7c0-0.7,1-1,1.3-1.6c0.4-0.9,1.1-2,0.5-2.8c-0.4-0.5-1-0.6-1.7-0.5h0c-0.7,0-1.4,0.2-2,0.4
				c-1.3,0.3-2.4,1.1-3.5,1.9l0.3,0l-3.5,3l0.6,4.5l-4-2.3l-1.8,0.8c-1.3,1-2.7,2-4.1,3c-1.7,1.2-3.6,2.2-5.2,3.6
				c-3.7,3.5-6.8,7.6-9.6,11.8c-1.4,2-3,4.1-3.6,6.5c-0.3,1.2,0.6,2.6,0,3.7c-0.5,1-2.5,0.8-2.8,1.9c-0.2,0.8,1.1,1.4,1.1,2.1
				c0,0.7,0.6,2.3,0.6,2.9c0,0.5-1.7,0.2-2.2,0.8c-0.2,0.3-0.2,0.7-0.1,1.1c0.1,0.7,1,1.4,0.5,1.9c-0.7,0.9-2.5-0.5-3.5,0
				c-1.9,1-2,3.8-3.5,5.4c-1.8,1.9-4.2,3.2-6.3,4.8c-3.1,2.5-7.6,3.9-9.1,7.6c-0.4,0.9,0.9,2.1,0.4,2.9c-0.3,0.5-1.3,0.1-1.7,0.5
				c-0.9,1-0.6,2.5-0.7,3.8c-0.1,1.1-0.8,2.5,0,3.3c0.8,0.8,2.7-0.9,3.5,0c0.3,0.3-0.2,0.8-0.3,1.2c-0.2,0.7-0.3,1.4-0.7,2.1
				c-0.2,0.3-0.4,0.5-0.7,0.7c-0.3,0.3-1,0.4-1.1,0.8c-0.1,0.5,0.4,1.1,0.8,1.4c0.5,0.3,1.4-0.1,1.7,0.4c0.6,0.9-0.6,2.1-0.6,3.2
				c0,1.1-0.1,2.6,0.8,3.2c1.3,0.7,3.1-0.4,4.3-1.2c0.6-0.4,0.8-1,1.3-1.5c0.5-0.6,0.9-1.2,1.4-1.6c1.1-1.1,2.7-1.7,3.8-2.9
				c0.9-1,0.6-3.6,1.9-3.6c1,0,0.8,1.7,1.1,2.6c0.3,0.7,0.3,1.5,0.7,2.2c0.5,0.8,1.6,1.1,2.1,1.9c1.4,2.1,1.9,4.8,2.8,7.1
				c0.5,1.2,0.9,2.5,1.4,3.7c0.7,1.6,1.8,3.8,2.1,4.8c0.3,1,1.5,1.6,1.8,2.6c0.4,1.3,0.1,3.4,0.1,4c0,0.5,0.2,1,0.5,1.1
				c0.6,0.2,1.3-0.5,1.7-1c0.9-1.1,0.5-2.8,1.1-4c0.3-0.6,0.8-1.1,1.3-1.5c0.8-0.7,1.9-1.1,2.5-1.9c0.5-0.7,0.7-1.7,0.8-2.6
				c0.3-2.1,0.1-4.3,0-6.5c0-1.2-0.8-2.6-0.3-3.7c0.3-0.7,1.3-1,1.9-1.5c0.7-0.6,1.3-1.2,1.9-1.8c0.5-0.4,1.1-0.8,1.5-1.2
				c0.7-0.7,1.5-1.5,1.8-2.5c0.2-0.7,0.5-1.5,0-2.1c-0.2-0.2-0.8,0.1-1-0.1c-0.2-0.2,0.1-0.5,0.1-0.8c0.1-0.4,0.2-0.7,0.1-1.1
				c0-0.3,0-0.7-0.3-1c-0.7-0.6-2.1,0.1-2.9-0.4c-0.8-0.5-1.2-1.6-1.5-2.5c-0.3-0.7-0.4-1.5-0.4-2.3c0-0.9,0.4-1.8,0.5-2.8
				c0.1-1-0.1-2.1,0.1-3.1c0.3-1,1-1.9,1.4-2.9c0.2-0.7,0.3-1.4,0.6-2.1c0.4-0.9,0.9-1.7,1.4-2.5c0.6-1,1.4-1.8,2.1-2.7
				c0.4-0.6,0.8-1.2,1.1-1.9c0.3-0.7,0.2-1.6,0.6-2.3c0.3-0.6,0.7-1,1.1-1.5c0.6-0.7,1.5-1.2,1.8-2.1c0.2-0.5,0.1-1.2-0.1-1.6
				c-0.1-0.2-0.4-0.2-0.6-0.4c-0.4-0.6-0.5-1.4-0.4-2.1c0.1-0.6,0.5-1.1,0.8-1.7c0.6-1,1.7-1.8,2.2-2.9c0.3-0.6,0.3-1.3,0.5-1.9
				c0.2-0.4,0.5-0.7,0.7-1.1c0.5-1,0.2-2.5,1.1-3.2c0.7-0.5,1.7-0.1,2.5-0.3c0.5-0.1,0.9-0.5,1.3-0.4c1.4,0.4,1.9,2.2,2.7,3.4
				c0.9,1.3,1.9,2.6,2.2,4.1c0.2,1.1,0,2.2-0.3,3.3c-0.6,2.5-1.7,4.8-2.8,7.1c-0.8,1.7-1.4,3.4-2.5,5c-1,1.4-2.9,2.3-3.6,3.8
				c-1.1,2.3-1.3,5-0.8,7.4c0.6,3.6,1.8,7.7,4.7,9.9c1.6,1.2,3.9,1.6,5.8,1.1c1.8-0.5,2.6-2.8,4.2-3.8c2-1.3,4.1-2.5,6.4-3
				c1.2-0.3,2.4-0.2,3.6,0c2.1,0.3,4.5,0.3,6.1,1.6c0.7,0.6,0.9,1.6,1.1,2.5c0.2,0.9,0.5,2,0,2.8c-1.4,2.4-4.6,3.2-7.2,4.1
				c-1.2,0.4-2.4,0.4-3.6,0.6c-2.8,0.3-6.7-1.9-8.4,0.3c-0.5,0.6,0.2,1.5,0.6,2.2c0.7,1.3,2.3,2,2.8,3.3c0.4,1.2-0.3,2.5,0,3.8
				c0.3,1.4,1.6,1,2.2,1.6c1.3,1.3,4.2,2.8,3.3,4.4c-0.4,0.7-1.7,0.2-2.5,0c-1-0.2-1.8-1.1-2.8-1.4c-1.5-0.4-3.1-0.6-4.7-0.6
				c-1.8,0-4.1-0.5-5.3,0.8c-1.2,1.3-0.4,3.5-0.3,5.2c0.2,2.1,0.4,4.2,1.4,6c1,1.8,3.6,2.5,4.2,4.4c0.2,0.8-0.2,1.7-0.6,2.5
				c-0.8,1.6-2,2.9-3.3,4.1c-1.1,1-2.4,2.2-3.9,2.5c-2.1,0.4-4.1-1-6.1-1.4c-3-0.5-6.1-1.3-9.2-1.1c-3.8,0.2-10,2.8-11.1,2.8
				s-4.7,1.4-5.8,1.4c-1.1,0-2.5,1.3-3.6,0.8c-2.2-0.9-2.8-3.9-3.6-6c-0.7-1.8-1.3-3.8-1.1-5.8c0.1-1.6,1.2-2.9,1.7-4.4
				c0.5-1.6,1.3-3.3,1.1-4.9c-0.2-1.3-0.7-3-1.9-3.6c-1.2-0.6-2.8-0.2-3.9,0.5c-1.6,1.2-2.3,3.5-2.5,5.5c-0.2,1.7,0.8,3.3,1.1,4.9
				c0.4,2.2,0.4,4.5,1.1,6.6c0.8,2.5,4.3,4.6,3.6,7.1c-0.3,1-1.8,0.9-2.5,1.6c-1,1.1-1,3.1-2.2,3.8c-1.1,0.7-2.6,0.2-3.9,0.3
				c-0.8,0-1.7,0.2-2.5,0c-1.6-0.4-3.4-3.4-4.4-2.2c-1,1.2,3,2.3,2.8,3.8c-0.2,1.2-2,1.5-3.1,2.2c-2,1.5-3.9,3.2-6.1,4.4
				c-1.3,0.7-3.2,1.4-5.3,2.1c-3.6,1.4-5.9,3.3-11.1,4.2c0,0-0.1,0-0.1,0.1c-1.6,0.6-4.2,1.4-5.7,2.2c-1.9,1-3.3,2.7-5.3,3.6
				c-0.8,0.3-1.7,0.7-2.5,0.6c-1.6-0.3-2.6-2-4.2-2.5c-1-0.3-2.1-0.1-3.1,0c-0.7,0.1-1.4,0.1-1.9,0.6c-1,0.8-1.7,2.1-1.7,3.3
				c0,0.7,0.7,1.2,1.1,1.6c1.1,1.2,2.4,2,3.6,3c1.6,1.3,3.6,2.3,5,3.8c0.5,0.6,0.8,1.2,1.1,1.9c0.8,1.9,1.7,3.8,1.9,5.8
				c0.1,1.2-0.3,2.5-0.3,3.6c0,1.1-0.1,3-0.6,4.4c-0.7,2-2,3.8-3.3,5.5c-1.3,1.6-2.5,3.6-4.5,4.1c-1,0.3-2.1-0.3-3.1-0.6
				c-1.5-0.5-3-1.3-4.4-1.9c-1.8-0.8-3.7-1.6-5.6-2.2c-1.3-0.4-2.6-0.7-3.9-1.1c-2.5-0.7-4.9-1.7-7.5-1.9c-1.7-0.2-3.3,0.1-5,0.3
				c-0.9,0.1-2.4-0.3-2.8,0.5c-0.6,1.3,1.9,2.4,1.9,3.8c0,1.4-0.8,2.7-1.7,3.8c-0.9,1.1-2.6,1.3-3.3,2.5c-0.4,0.6-0.1,1.5-0.3,2.2
				c-0.3,1.5-0.5,3.1-1.4,4.4c-0.4,0.6-1.1,0.9-1.7,1.4c-1.1,0.9-2.6,1.3-3.4,2.5c-1.3,1.9-1.2,4.4-1.7,6.6
				c-0.1,0.6-0.2,1.3-0.3,1.9c-0.3,1.7-0.6,3.3-0.8,5c-0.1,1-0.7,2.1-0.3,3c1.3,2.7,7,3.8,7.5,4.9c0.6,1.1,2.6,2.8,4.2,3.8
				c0.8,0.5,1.8,0.9,2.8,1.1c1.9,0.5,3.9,0.5,5.8,0.6c2.5,0.1,5,0,7.5,0c3.3,0,6.8,1.2,10,0.3c1.6-0.5,2.7-2,4.2-2.7
				c1.2-0.7,2.7-0.9,3.9-1.6c1.3-0.8,2.2-2.8,3.6-3c1.4-0.3,0.3-2.2,0.3-3.3c0-1.5-0.6-3-0.3-4.4c0.3-1.4,1.4-2.6,2.2-3.8
				c0.8-1.3,1.5-2.8,2.8-3.6c1-0.6,1.9,0,3.3-0.6c1.4-0.5,2.9-1.9,4.5-2.7c1.3-0.6,2.6-1.1,3.9-1.6c1-0.4,2.5-0.2,3.1-1.1
				c0.7-1.1-0.4-2.6-0.3-3.8c0.1-1.3-0.2-3,0.8-3.8c1.5-1.3,3.9-0.5,5.8-0.5c1.5,0,3,0.4,4.5,0.3c2.7-0.3,5.5-0.9,7.8-2.5
				c1.1-0.7,1.6-2.1,2.5-3c1.5-1.5,2.7-3.6,4.7-4.1c1.5-0.4,3.5-0.1,4.5,1.1c1,1.2-0.6,3.2,0,4.7c0.3,0.7,1.1,1.1,1.7,1.7
				c0.6,0.5,1.1,1.1,1.7,1.6c0.8,0.8,1.7,1.6,2.5,2.5c0.8,0.9,1.5,2,2.2,3c0.7,0.9,1.3,2,2.2,2.7c1,0.8,2.4,0.9,3.3,1.7
				c1.2,1,1.6,2.7,2.8,3.6c1,0.8,2.4,0.9,3.6,1.4c0.7,0.3,1.4,0.4,1.9,0.8c0.5,0.4,0.9,0.9,1.4,1.4c1,0.9,2,1.7,3.1,2.5
				c1.6,1.1,3.5,1.6,5,2.7c1.1,0.8,2.5,1.5,3.1,2.8c0.3,0.8,0.1,1.6,0,2.5c-0.1,1.1-0.6,2.2-0.8,3.3c-0.2,1-1.2,2.2-0.6,3
				c0.4,0.4,1.1,0,1.7,0c1.4,0,1.4-0.8,1.9-1.4c1.1-1.2,2.2-2.5,2.5-4.1c0.2-1.1,0-2.3-0.6-3.3c-0.4-0.7-1.3-0.9-1.7-1.6
				c-0.4-0.9-0.8-2.2-0.3-3c0.3-0.5,1.1-0.6,1.7-0.6c0.7,0.1,1,0.9,1.7,1.1c1.7,0.6,3.9,1.6,5.3,0.6c0.5-0.4,0.6-1.3,0.3-1.9
				c-1-2-4-2.3-6.1-3.3c-1.6-0.7-3.6-0.8-5-1.9c-1.4-1.1-1.6-3.4-3.1-4.4c-2-1.3-4.9-0.5-7-1.7c-1.8-1-3.5-2.6-4.4-4.4
				c-0.9-1.6-0.2-3.9-1.1-5.5c-0.1-0.1,0.2-0.9-0.1-1.9c-1.3-1.3-1.1-0.8-2.3-1.5c-0.8-0.9-1.5-2.4-1.7-2.5
				c-0.9-1.3-2.2-0.8-2.1-2.3c0.1-1.1,1.2-2,1.7-3c0.7-1.5,0.5-3.8,1.9-4.7c1.3-0.7,3,0.1,4.5,0.6c1,0.3,1.8,1.2,2.8,1.6
				c1.3,0.6,3,0.5,4.2,1.4c0.4,3.6,0.1,4.5,2.3,3.3c0.5,1.1,1,2.3,1.6,3.3c0.6,1,1.1,2.2,1.9,3c1,0.9,2.5,1.2,3.6,1.9
				c2.5,1.5,4.9,3.2,7.2,4.9c1.9,1.4,4.8,2.2,5.6,4.4c0.4,1.1-0.9,2.2-0.8,3.3c0.1,1.7,1.1,3.1,1.7,4.7c0.4,1.2,0.9,2.4,1.4,3.6
				c0.6,1.3,1.1,2.7,1.9,3.8c1.3,1.8,4.2,3.9,4.5,5c0.3,1.1-0.7,1.3-0.6,1.9c0.3,1.3,2.3,1.5,2.8,2.7c0.4,1-0.4,2.3,0,3.3
				c0.6,1.4,1.9,2.8,3.3,3.3c1.7,0.6,3.7,0.3,5.3-0.6c1-0.6,1.8-1.7,2.2-2.8c0.3-0.8,0.2-1.6,0.3-2.5c0.1-1.1,0.3-2.2,0-3.3
				c-0.3-1.1-1.4-1.9-1.9-3c-0.6-1.3-0.8-2.8-1.4-4.1c-0.5-1.2-1.5-2.3-1.7-3.6c-0.1-1.2-0.3-3.1,0.8-3.6c1-0.4,1.7,1.7,2.8,1.6
				c1.1-0.1,1.6-1.6,2.5-2.2c1.4-0.9,3.2-1.1,4.5-2.2c0.6-0.5,0.6-1.7,1.4-1.9c0.8-0.2,3.4,0.1,3.1-0.8L491.1,1015z"/>
			<path id="path3019_00000040547286042315577070000010415440225482515846_" class="st5" d="M366.2,664.9l-4.8-2.7l-5.1,2.3l1.2-5.3
				l-3.8-3.9l5.6-0.6l2.7-4.8l2.3,5l5.5,1l-4.2,3.6L366.2,664.9z"/>
			<path id="path3019-8_00000043447369899049100030000000771903386409822113_" class="st5" d="M387.9,635.2l-4.8-2.7l-5.1,2.3
				l1.2-5.3l-3.8-3.9l5.6-0.6l2.7-4.8l2.3,5l5.5,1l-4.2,3.6L387.9,635.2z"/>
			<path id="path3019-3_00000054242095653169107170000015326994005893846668_" class="st5" d="M408.1,618.2l-4.8-2.7l-5.1,2.3
				l1.2-5.3l-3.8-3.9l5.6-0.6l2.7-4.8l2.3,5l5.5,1l-4.2,3.6L408.1,618.2z"/>
			<path id="path3019-6_00000011746062958818673460000004713509892579160719_" class="st5" d="M428.8,598.6l-4.8-2.7l-5.1,2.3
				l1.2-5.3l-3.8-3.9l5.6-0.6l2.7-4.8l2.3,5l5.5,1l-4.2,3.6L428.8,598.6z"/>
			<path id="path3019-2_00000124121959629609432420000012880846362452081829_" class="st5" d="M449.5,586.4l-4.8-2.7l-5.1,2.3
				l1.2-5.3l-3.8-3.9l5.6-0.6l2.7-4.8l2.3,5l5.5,1l-4.2,3.6L449.5,586.4z"/>
			<path id="path3019-30_00000149368165590695643990000015742601486644552616_" class="st5" d="M470.7,577.4l-4.8-2.7l-5.1,2.3
				l1.2-5.3l-3.8-3.9l5.6-0.6l2.7-4.8l2.3,5l5.5,1L470,572L470.7,577.4z"/>
			<path id="path3019-5_00000034081439206365420940000000776803456419906721_" class="st5" d="M366.2,880.4l-4.8-2.7l-5.1,2.3
				l1.2-5.3l-3.8-3.9l5.6-0.6l2.7-4.8l2.3,5l5.5,1l-4.2,3.6L366.2,880.4z"/>
			<path id="path3019-0_00000018224002271328755020000018403044320063277446_" class="st5" d="M387.9,909l-4.8-2.7l-5.1,2.3l1.2-5.3
				l-3.8-3.9l5.6-0.6l2.7-4.8l2.3,5l5.5,1l-4.2,3.6L387.9,909z"/>
			<path id="path3019-31_00000142884793456040783380000014281702014148247741_" class="st5" d="M406,931.9l-4.8-2.7l-5.1,2.3
				l1.2-5.3l-3.8-3.9l5.6-0.6l2.7-4.8l2.3,5l5.5,1l-4.2,3.6L406,931.9z"/>
			<path id="path3019-35_00000085250928555874847930000017643563937788560312_" class="st5" d="M428.8,951.5l-4.8-2.7l-5.1,2.3
				l1.2-5.3l-3.8-3.9l5.6-0.6l2.7-4.8l2.3,5l5.5,1l-4.2,3.6L428.8,951.5z"/>
			<path id="path3019-9_00000049222955194261249510000012128614036645181607_" class="st5" d="M451.1,967.9l-4.8-2.7l-5.1,2.3
				l1.2-5.3l-3.8-3.9l5.6-0.6l2.7-4.8l2.3,5l5.5,1l-4.2,3.6L451.1,967.9z"/>
			<path id="path3019-22_00000139280437034321999960000010969062241776165040_" class="st5" d="M470.7,978.6l-4.8-2.7l-5.1,2.3
				l1.2-5.3l-3.8-3.9l5.6-0.6l2.7-4.8l2.3,5l5.5,1l-4.2,3.6L470.7,978.6z"/>
			<path id="rect3882-67_00000127011874910735601580000008939873947430968251_" class="st5" d="M463.8,859.6h0.5
				c0.7,0,1.2,0.5,1.2,1.2v89.4c0,0.7-0.5,1.2-1.2,1.2h-0.5c-0.7,0-1.2-0.5-1.2-1.2v-89.4C462.6,860.2,463.1,859.6,463.8,859.6z"/>
			<path id="rect3882-67-8_00000080887543170276308590000002924538744989858189_" class="st5" d="M443.1,858.1h0.5
				c0.7,0,1.2,0.5,1.2,1.2v78.3c0,0.7-0.5,1.2-1.2,1.2h-0.5c-0.7,0-1.2-0.5-1.2-1.2v-78.3C441.9,858.6,442.4,858.1,443.1,858.1z"/>
			<path id="rect3882-67-5_00000029015029213105139020000006381294383552003212_" class="st5" d="M422.9,858.1h0.5
				c0.7,0,1.2,0.5,1.2,1.2v65.5c0,0.7-0.5,1.2-1.2,1.2h-0.5c-0.7,0-1.2-0.5-1.2-1.2v-65.5C421.7,858.6,422.3,858.1,422.9,858.1z"/>
			<path id="rect3882-67-4_00000151507029118490558400000012320353972317552787_" class="st5" d="M402.2,857.5h0.5
				c0.7,0,1.2,0.5,1.2,1.2v45.9c0,0.7-0.5,1.2-1.2,1.2h-0.5c-0.7,0-1.2-0.5-1.2-1.2v-45.9C401,858.1,401.6,857.5,402.2,857.5z"/>
			<path id="rect3882-67-2_00000007424216049184073070000003530345117666083501_" class="st5" d="M381.5,858.1h0.5
				c0.7,0,1.2,0.5,1.2,1.2v23.1c0,0.7-0.5,1.2-1.2,1.2h-0.5c-0.7,0-1.2-0.5-1.2-1.2v-23.1C380.3,858.6,380.9,858.1,381.5,858.1z"/>
			<path id="rect3882-67-53_00000091723851077417855090000007650247138532914095_" class="st5" d="M361.4,887.2h0.5
				c0.7,0,1.2,0.5,1.2,1.2V928c0,0.7-0.5,1.2-1.2,1.2h-0.5c-0.7,0-1.2-0.5-1.2-1.2v-39.5C360.2,887.8,360.7,887.2,361.4,887.2z"/>
			<path id="rect3882-67-6_00000182487145612123314650000010589170626749311883_" class="st5" d="M382.1,914.8h0.5
				c0.7,0,1.2,0.5,1.2,1.2v33.7c0,0.7-0.5,1.2-1.2,1.2h-0.5c-0.7,0-1.2-0.5-1.2-1.2V916C380.9,915.4,381.4,914.8,382.1,914.8z"/>
			<path id="rect3882-67-7_00000031921168032277500860000000579303728713505719_" class="st5" d="M402.2,936.1h0.5
				c0.7,0,1.2,0.5,1.2,1.2v29.5c0,0.7-0.5,1.2-1.2,1.2h-0.5c-0.7,0-1.2-0.5-1.2-1.2v-29.5C401,936.6,401.6,936.1,402.2,936.1z"/>
			<path id="rect3882-67-3_00000168825523224749339530000001645066242583321221_" class="st5" d="M424.5,956.7h0.5
				c0.7,0,1.2,0.5,1.2,1.2v21c0,0.7-0.5,1.2-1.2,1.2h-0.5c-0.7,0-1.2-0.5-1.2-1.2v-21C423.3,957.3,423.8,956.7,424.5,956.7z"/>
			<path id="rect3882-67-0_00000129897840955693151930000009287112160957432223_" class="st5" d="M444.7,971.6h0.5
				c0.7,0,1.2,0.5,1.2,1.2v20.4c0,0.7-0.5,1.2-1.2,1.2h-0.5c-0.7,0-1.2-0.5-1.2-1.2v-20.4C443.5,972.1,444,971.6,444.7,971.6z"/>
			<path id="rect3882-67-87_00000111884282395667716340000005137327905977868453_" class="st5" d="M464.8,983.3h0.5
				c0.7,0,1.2,0.5,1.2,1.2v16.7c0,0.7-0.5,1.2-1.2,1.2h-0.5c-0.7,0-1.2-0.5-1.2-1.2v-16.7C463.6,983.8,464.2,983.3,464.8,983.3z"/>
			<path id="rect3882-67-06_00000091727262449793817540000003899170989572453304_" class="st5" d="M402.3,623.3h0.5
				c0.7,0,1.2,0.5,1.2,1.2v52c0,0.7-0.5,1.2-1.2,1.2h-0.5c-0.7,0-1.2-0.5-1.2-1.2v-52C401.1,623.8,401.6,623.3,402.3,623.3z"/>
			<path id="rect3882-67-00_00000114044401060012910830000010108764467618853772_" class="st5" d="M382.8,640.7h0.5
				c0.7,0,1.2,0.5,1.2,1.2v34.8c0,0.7-0.5,1.2-1.2,1.2h-0.5c-0.7,0-1.2-0.5-1.2-1.2v-34.8C381.7,641.3,382.2,640.7,382.8,640.7z"/>
			<path id="rect3882-67-63_00000111890351498668849290000015404424729365083836_" class="st5" d="M361.9,666.2h0.5
				c0.7,0,1.2,0.5,1.2,1.2v10.1c0,0.7-0.5,1.2-1.2,1.2h-0.5c-0.7,0-1.2-0.5-1.2-1.2v-10.1C360.7,666.7,361.2,666.2,361.9,666.2z"/>
			<path id="rect3882-67-69_00000098917819259075787770000008666376181846006408_" class="st5" d="M362.2,615.8h0.5
				c0.7,0,1.2,0.5,1.2,1.2v20.4c0,0.7-0.5,1.2-1.2,1.2h-0.5c-0.7,0-1.2-0.5-1.2-1.2V617C361,616.3,361.5,615.8,362.2,615.8z"/>
			<path id="rect3882-67-694_00000017490915103849979560000008348213384878043534_" class="st5" d="M383.1,589.3h0.5
				c0.7,0,1.2,0.5,1.2,1.2v16.5c0,0.7-0.5,1.2-1.2,1.2h-0.5c-0.7,0-1.2-0.5-1.2-1.2v-16.5C381.9,589.8,382.4,589.3,383.1,589.3z"/>
			<path id="rect3882-67-694-6_00000175300853285684844770000017166002802553981839_" class="st5" d="M402.5,574.5h0.5
				c0.7,0,1.2,0.5,1.2,1.2v16.5c0,0.7-0.5,1.2-1.2,1.2h-0.5c-0.7,0-1.2-0.5-1.2-1.2v-16.5C401.3,575.1,401.8,574.5,402.5,574.5z"/>
			<path id="rect3882-67-694-2_00000023966434024770020400000007547777220380324762_" class="st5" d="M424.5,556.5h0.5
				c0.7,0,1.2,0.5,1.2,1.2v16.5c0,0.7-0.5,1.2-1.2,1.2h-0.5c-0.7,0-1.2-0.5-1.2-1.2v-16.5C423.3,557,423.8,556.5,424.5,556.5z"/>
			<path id="rect3882-67-694-7_00000168796525232311749340000015284511834534774936_" class="st5" d="M443.6,545.6h0.5
				c0.7,0,1.2,0.5,1.2,1.2v14.6c0,0.7-0.5,1.2-1.2,1.2h-0.5c-0.7,0-1.2-0.5-1.2-1.2v-14.6C442.4,546.2,443,545.6,443.6,545.6z"/>
			<path id="rect3882-67-694-28_00000106868058755339067910000005004160030691067037_" class="st5" d="M466.2,537.7h0.5
				c0.7,0,1.2,0.5,1.2,1.2v13.3c0,0.7-0.5,1.2-1.2,1.2h-0.5c-0.7,0-1.2-0.5-1.2-1.2v-13.3C465,538.2,465.5,537.7,466.2,537.7z"/>
			<path id="rect3882-67-694-64_00000010997183034257734830000011318235547573452173_" class="st5" d="M464.6,583.8h0.5
				c0.7,0,1.2,0.5,1.2,1.2v34c0,0.7-0.5,1.2-1.2,1.2h-0.5c-0.7,0-1.2-0.5-1.2-1.2v-34C463.4,584.4,463.9,583.8,464.6,583.8z"/>
			<path id="rect3882-67-694-26_00000078758788682100402800000010795839849800773550_" class="st5" d="M444.1,592.3h0.5
				c0.7,0,1.2,0.5,1.2,1.2v26.3c0,0.7-0.5,1.2-1.2,1.2h-0.5c-0.7,0-1.2-0.5-1.2-1.2v-26.3C442.9,592.9,443.5,592.3,444.1,592.3z"/>
			<path id="rect3882-67-694-1_00000003063074845672079670000017192971037468791984_" class="st5" d="M425,606.1h0.5
				c0.7,0,1.2,0.5,1.2,1.2v34.2c0,0.7-0.5,1.2-1.2,1.2H425c-0.7,0-1.2-0.5-1.2-1.2v-34.2C423.8,606.6,424.4,606.1,425,606.1z"/>
			<path id="path5835_00000004517476756001809350000018414093266321697960_" class="st5" d="M642.3,815.2
				c-2.1,22.3,4.3,69.1,49.8,66.9c12.3-0.6,38.9-13,52-30.1c17.2-22.4,33.1-45.5,40.9-73.2c7.6-27.1,14.6-47.2,6.9-86
				c-2.1-10.6-8.8-34.2-37.4-37.8c-23.2-2.9-40.7,12-50.7,18.8c-9.5,6.4-35.4,29.7-47.5,65.9c-6.6,19.8-9.9,32.2-10.7,40.4
				L642.3,815.2z M740.5,665.9c0.9,0,1.7,0.1,2.5,0.4c28.7,9.7,15.3,73.4,6.9,108.8c-8.3,34.7-34.3,97.2-54.1,92.3
				c-28.4-7.1-15.9-75.6-6.9-112C696.8,723.2,723.1,666.1,740.5,665.9L740.5,665.9z"/>
			<path id="path9175_00000075843100043602647250000010816477083611257760_" class="st5" d="M689.2,896.9c-8,0-14.4,6-15.1,14.6
				c-0.5,10.1,5,15.9,11.1,16c6.7-0.1,12-3.7,14.4-14.3C699.2,912.9,701.6,899.3,689.2,896.9L689.2,896.9z M687.4,898.6
				c0.5,0,1,0,1.5,0.1c7.8,3.8,6.6,7,6.6,13.9c-1.2,6-3.6,13.8-10.3,12.6c0,0-8.9-0.4-7-14.5C679.9,903.2,682.8,898.7,687.4,898.6
				L687.4,898.6z"/>
			<path id="path7994-4_00000005985009586636141490000009472039005292367267_" class="st5" d="M605.6,903.4l0-3.6l0.1-2.6
				c0-0.4-21-0.2-21-0.2s-0.7,0.6-0.8,1c-0.1,0.4,0.1,0.9,0.4,1.2c0.4,0.3,1.5,0.4,1.5,0.4l2.3-0.1c0,0-0.5,15.8-3.5,23.1
				c-0.2,0.5-0.5,1-0.9,1.3c-0.3,0.3-0.8,0.5-1.2,0.7c-0.8,0.4-2.7,0.4-2.5,1.2c0.3,1.1,2.6,0.2,3.9,0.2c1.5,0.1,4.7,0.1,4.7,0.1
				h4.5l5.2,0.2l3.6-0.2l2.4-1.5c0,0,0.5-1.4,0.7-2.1c0.2-0.7,0.6-1.4,0.5-2.1c-0.1-0.4-0.2-1-0.7-1.2c-0.2-0.1-0.6-0.1-0.8,0
				c-0.9,0.6-0.2,2.2-0.8,3c-0.4,0.5-1.7,1.1-1.7,1.1l-1.7,0.7l-3.7,0.5h-5.2l-1.1-0.5l-1.1-1.2l0.5-2.8l1.5-7.7l1.3-0.5h6.4
				l0.5,0.5v3.3l0.9,0.8l0.9-0.8l-0.3-4.6l1.7-3.4l-0.7-1.1h-0.5l-1.2,1.8l-0.9,1.1l-1.2,0.5l-3.5,0.4h-2l-0.9-0.2l2-10.9l3.5-0.5
				h3.9l2.4,0.1l0.7,1.5l0.4,3.2C604.4,904,605,903.7,605.6,903.4L605.6,903.4z"/>
			<path id="path7996_00000146498695632221889960000009891462720739917757_" class="st5" d="M612.6,897.5l4.7,0.1l4,0h2.1l0.3,0.5
				l-0.1,0.5c0,0-0.4,0-0.6,0h-0.9l-1.5,0.3l-0.8,0.5l-0.1,0.3l-0.3,1.5l-2.6,16.1l-0.2,2.3l0.1,1.9l0.8,1.4l2.5,1.5l3.6,0.3l3-0.6
				l1.8-1.4l1.5-1.7l1.1-2.6l0.9-4.4l1.1-6.1l0.6-3c0-1.5,0-1.5,0-2.4l0.1-1.5l0-0.9l-0.1-0.8l-0.7-0.3h-1.4l-0.8-0.2l-0.1-0.6
				l0-0.5l0.7-0.1l2.9,0l3.3,0l1.6,0l0,0.7l-0.2,0.4c-0.5,0-1,0-1.6,0c-1,0.2-1,1.2-1.4,1.8l-1.4,5.4l-2.5,12.9l-2.1,4.6
				c-1.4,1.5-3,2.2-4.6,2.5c-1.9,0.4-3.8,0.6-5.6,0.4c-2-0.2-3.6-0.9-5.1-1.8c-1-0.8-1.7-2.1-2.4-3.5c0.1-3.3,0.3-6.5,0.8-9.7
				l1.8-11c0.3-1.1,0.1-1.6-0.5-1.8l-2.4-0.1l0-0.6L612.6,897.5z"/>
			<path id="path9170_00000080185867235114127650000010383823228942463155_" class="st5" d="M647.9,897.5c-0.5,0.3-0.8,0.7-0.5,1.3
				l2.7,0.7l-3.7,23.6c0,0.2,0,0.4-0.1,0.6c-0.1,0.2-0.2,0.1-0.6,0.2c-0.7,0.3-1.9,0.8-2.5,1.3c-0.2,0.1,0.1,0.7,0.4,0.8
				c4.7,0.8,10.6,0,10.8,0.2l0.2-1l-3.5-0.7c-0.4-0.1-0.9-0.7-0.8-1.2c1-3.9,1.8-11.7,2.7-11.8l1.5,0.6c0.8,0.4,1,0.7,1.2,0.7
				c0,0,2.9,10,7.2,12.7c1.6,1,4,1.2,5.9,0.6c0.4-0.1,1-0.4,0.9-0.8c-0.1-0.4-0.9-0.3-1.3-0.5l-3-1.2l-6.3-11.7
				c8.7-4,9-10.7,2.3-14.1L647.9,897.5L647.9,897.5z M654.5,926.3L654.5,926.3C654.5,926.3,654.5,926.3,654.5,926.3z M657,899
				c0.5,0,1.1,0.1,1.4,0.1c1,0,1.9,0,2.7,0.5c0.9,0.6,1.3,1.5,1.5,2.5c0.2,1,0,2.1-0.2,3.1c-0.3,1.2-0.5,2.6-1.3,3.6
				c-0.7,0.8-1.7,1.5-2.7,1.9c-0.9,0.3-2,0.4-3,0.3c-0.7,0-2.1,0.2-2-0.4c0.5-4.5,1.9-9.9,1.8-10.9C655.3,899.1,656.1,899,657,899z"
				/>
			<path id="path6400_00000049919459068903358720000006216787045595151535_" class="st5" d="M559.4,934.5c0.6,3.7,4,3.1,4.2,0
				l4.2-15.1c3.2-7.6-1.8-7-4-3.7c-31.3-3.3-43.1,1.2-47.5,4.2c-14.7,10.3-18.1,21.2-17.8,32.4c0.6,22.3,18.9,27.7,27.3,29.5
				c5.8,1.2,15.7,1.1,23.6-0.5c3.1-0.7,5.1-2.1,7.2-4.5c4-4.8,7.2-17.8,7.2-17.8c-1.1-2.4-2.7-1.9-4.5-0.8
				c-3.9,8.6-9.7,17.7-17.5,17.8c0,0-24.4,1.7-27.3-22.3c-2.4-19.9,13.5-33.4,28.4-34.8c16.8-1.5,16.7,9,16.7,9L559.4,934.5z"/>
			<path id="path7994-4-8_00000161629192811065568510000018204402582826805910_" class="st5" d="M604.6,945.3l0-5.3l0.1-3.9
				c0-0.6-32.9-0.3-32.9-0.3s-1.1,0.8-1.2,1.4c-0.1,0.6,0.1,1.4,0.6,1.8c0.6,0.5,2.3,0.5,2.3,0.5l3.5-0.2c0,0-0.8,23.5-5.4,34.3
				c-0.3,0.7-0.8,1.4-1.5,2c-0.5,0.5-1.2,0.7-1.9,1.1c-1.3,0.7-4.3,0.5-4,1.8c0.4,1.7,4,0.3,6,0.4c2.4,0.1,7.3,0.2,7.3,0.2h7.1
				l8.1,0.4l5.6-0.4l3.7-2.2c0,0,0.7-2,1-3.1c0.3-1,1-2,0.8-3.1c-0.1-0.7-0.4-1.4-1-1.8c-0.4-0.2-0.9-0.2-1.2,0
				c-1.4,1-0.2,3.2-1.2,4.5c-0.6,0.8-2.7,1.6-2.7,1.6l-2.7,1.1l-5.8,0.7h-8.1l-1.7-0.7l-1.7-1.8l0.8-4.1l2.3-11.5l2.1-0.7h10
				l0.8,0.7v4.9l1.5,1.3l1.5-1.3l-0.4-6.8l2.7-5l-1-1.6h-0.8l-1.9,2.7l-1.5,1.6l-1.9,0.7l-5.4,0.5h-3.1l-1.5-0.4l3.1-16.2l5.4-0.7h6
				l3.7,0.2l1,2.2l0.6,4.7C602.8,946.2,603.7,945.7,604.6,945.3L604.6,945.3z"/>
			<path id="path6420_00000103961538514293634030000017179828541086848173_" class="st5" d="M605.8,976.1l4-0.3
				c1.1-0.1,2.3,1.5,3.4-2.7l8.5-26.3c1.3-5.9-3.2-6.5-9-6.4v-4.2h16.2l16.2,32.1l4.5-22c1.7-5.7-0.6-4.4-2.1-5.6h-5.8v-4l22.3-0.3
				l-0.3,4c-2.2,0.5-4.8-1.4-6.4,2.9l-7.1,30.3l2.7,4c1.6,2,2.4,3.6-0.3,3.4l-9.8,0.3l-17.5-32.1l-6.1,22c-2.6,5.6,1,4.3,3.7,4.2
				l7.2,0.3v4.2l-24.4,0.5L605.8,976.1z"/>
			<path id="path6422_00000024713198210284083230000007495277224065056148_" class="st5" d="M668.2,980.1v-3.4l6.9-1.6
				c1.6,0.6,2.5-1.9,3.4-4l8.2-27.6c2.9-6.6-3.4-4.4-6.4-4.5c-4,2.1-8,4.8-9.3,10.3c-4.6,1.7-4.2-0.2-4-1.9l3.2-8.8
				c1.2-1.4,1-3.4,4.8-3.4l35,0.3c2.8-0.1,3.3,2.4,2.6,5l-1.3,7.2c-2.6,4.3-3.8,1.6-5-0.3l0.8-4.5c-0.1-4.5-9.5-5.5-11.4-0.8
				l-8.2,30c-1.6,3.6,2.4,2.6,4.8,2.9c3.2,1.9,4.1,3.9,4.5,5.8L668.2,980.1z"/>
			<path id="path7813_00000093152265548332398280000002973756089863233419_" class="st5" d="M572.9,682.2c-11.9-1-13.1-3.9-0.2-8.1
				l74.3-24c2.5-0.1,8.3-4.1,5.8,1.7L606,832.1c-3.4,13.2-8.6,29.1,15.9,35.5l17.4,4.5c4.5,0.5,6.7,8.6,0.6,9.4l-116.1-0.9
				c-10.7,0.7-10.5-10.3,0.2-11.3l13.7-0.2c8.4,0.2,22.9-10.1,27.6-28.5l36.6-144.1c2.7-9.1-0.1-11.7-5.3-12.2L572.9,682.2z"/>
		</g>
	</g>
</g>
</svg>
