<?xml version="1.0" encoding="utf-8"?>
<!-- Generator: Adobe Illustrator 28.1.0, SVG Export Plug-In . SVG Version: 6.00 Build 0)  -->
<svg version="1.1" xmlns="http://www.w3.org/2000/svg" xmlns:xlink="http://www.w3.org/1999/xlink" x="0px" y="0px"
	 viewBox="0 0 850.4 850.4" style="enable-background:new 0 0 850.4 850.4;" xml:space="preserve">
<style type="text/css">
	.st0{fill:#D8AE3A;stroke:#000000;stroke-width:5;}
	.st1{fill:#F4C356;stroke:#AA7F09;stroke-width:4;}
	.st2{fill:#261908;fill-opacity:0.1294;}
	.st3{fill:#160C00;fill-opacity:0.1294;}
	.st4{fill:#261908;fill-opacity:0.3137;}
</style>
<g id="Layer_1">
	<g id="g10141" transform="matrix(.96996 0 0 .96469 10.05 22.06)">
		<path id="path3182" class="st0" d="M110.3,658.5c0,0-49.6-11.4-83.9-138.6c-33.7-125,8.5-168.6,8.5-168.6c6.3-3.7,6.2-2,8.4-14.8
			c0.8-9.5,0.9-4.7-2-15.3c0,0-23.3-47.2,56.6-152C176.3,66.2,235,71.1,235,71.1c6.7,2.8,5.2,3.5,16.7-2.5c8-5.2,4.6-2.3,11-11.2
			c0,0,22.6-49.7,154.4-50.2c129.5-0.5,162,46.6,162,46.6c2.1,7,0.5,6.5,12.5,11.5c9.1,2.9,4.4,1.9,15.4,1.5c0,0,51.4-12,135.2,89.7
			c82.4,99.9,64.3,155.8,64.3,155.8c-4.2,5.9-4.7,4.7-1.9,13.7c2.3,5.6,0.5,1.5,7.7,9.8c0,0,42.2,32.2,16.5,161.4
			c-25.2,127-79.6,148.6-79.6,148.6c-7.3,0.5-6.3-0.8-13.9,9.7c-4.9,8.2-3.1,4.1-4.9,14.9c0,0,0.3,51.1-115.9,113.2
			c-114.2,60.9-166.2,30.1-166.2,30.1c-5-5.3-3-5.2-16-4.8c-9.5,1.1-5.1,0.2-14.8,5.4c0,0-41,33.9-161-20.6
			C138.7,740.1,130,682.3,130,682.3c1.1-7.2,2.2-5.9-6.3-15.7C116.8,660,120.5,662.6,110.3,658.5L110.3,658.5z"/>
		<path id="path3182-0" class="st1" d="M123.6,650.7c0,0-47.4-10.9-80.2-132.4c-32.2-119.4,8.1-161.1,8.1-161.1
			c6-3.5,5.9-1.9,8-14.1c0.7-9.1,0.9-4.5-1.9-14.6c0,0-22.2-45.1,54.1-145.3c75-98.4,131.1-93.7,131.1-93.7c6.4,2.6,5,3.3,16-2.4
			c7.7-4.9,4.4-2.2,10.5-10.7c0,0,21.6-47.5,147.5-48c123.7-0.5,154.8,44.5,154.8,44.5c2.1,6.6,0.5,6.2,11.9,11
			c8.7,2.8,4.2,1.8,14.7,1.5c0,0,49.1-11.4,129.2,85.7c78.7,95.4,61.5,148.9,61.5,148.9c-4,5.7-4.5,4.5-1.8,13.1
			c2.2,5.3,0.4,1.5,7.4,9.3c0,0,40.3,30.7,15.8,154.2c-24.1,121.3-76.1,142-76.1,142c-6.9,0.5-6-0.8-13.3,9.3
			c-4.7,7.8-3,3.9-4.7,14.2c0,0,0.3,48.9-110.8,108.2c-109.2,58.2-158.8,28.8-158.8,28.8c-4.8-5-2.9-5-15.3-4.6
			c-9.1,1.1-4.9,0.2-14.1,5.2c0,0-39.1,32.4-153.8-19.6c-112.7-51.1-121-106.3-121-106.3c1.1-6.9,2.1-5.7-6-15
			C129.9,652.1,133.3,654.6,123.6,650.7L123.6,650.7z"/>
	</g>
</g>
<g id="Layer_2">
	<g id="layer1_00000039104535573305115690000002093071951238417334_" transform="translate(-135.66 -346.14)">
		<g id="g7815_00000103266374862731695790000018203107942854582944_">
			<path id="path7759_00000145023552608055087420000012086674558761646743_" class="st2" d="M269.3,760.4c5.5,0.1,10.6-2.5,16-3.6
				c2.3-0.5,4.6-0.8,6.8-1.4c1.7-0.4,3.3-1.3,5-1.4c2.5,0,5,0.9,7.3,1.8c1.1,0.5,2.1,2.4,3.2,1.8c1.2-0.7,0.1-2.7,0-4.1
				c-0.1-1.8-1.6-4-0.5-5.4c1-1.3,3.4-0.3,5-0.9c2-0.7,4.7-1.2,5.5-3.2c0.6-1.5,1.4-4.5-1.4-4.5s-6.6,0.4-9.6-0.9
				c-1.7-0.7-3.6-1.9-4.1-3.6c-1-3.4,3.6-6.9,2.7-10.4c-0.9-3.7-6.3-5-7.8-8.6c-0.9-2.1,0.2-4.6-0.5-6.8c-0.5-1.8-1.8-3.3-2.7-5
				c-1.3-2.1-4-3.8-4.1-6.3c-0.2-3.6,3.2-9,5-9.5c1.8-0.5,4.5-1.8,4.1-3.6c-0.6-2.8-5.3-2.6-8.2-2.7c-1.1,0-2.2,1.4-3.2,0.9
				c-1-0.5-1.2-2.1-0.9-3.2c0.6-2.4,5.4-3,5-5.4c-0.3-1.5-2.5-2.2-4.1-2.3c-1.6-0.1-3.2,0.9-4.6,1.8c-2.1,1.5-3.4,3.8-5,5.9
				c-0.8,1-2.3,1.9-2.3,3.2c0,1.2,2.3,1.5,2.3,2.7c-0.1,1.9-2.9,2.5-4.1,4.1c-0.7,1-2.2,2-1.8,3.2c0.4,1.2,2.6,0.6,3.7,1.4
				c1.1,0.8,2.5,1.8,2.7,3.2c0.3,1.4-1.1,2.6-1.4,4.1c-0.1,0.7-0.4,1.6,0,2.3c0.5,0.9,2.4,0.4,2.7,1.4c0.5,1.4-2.9,3.1-1.8,4.1
				c2,1.7,4.3-3.4,6.8-4.1c0.7-0.2,1.7-0.5,2.3,0c1.1,0.9,0.8,2.7,0.9,4.1c0.1,1.3,0,2.3,0,4.1c0,1.8-0.2,4.2,0,6.3
				c0.2,1.4,1.2,2.7,0.9,4.1c-0.4,2-1.9,3.8-3.7,5c-1.4,1-3.4,0.8-5,1.4c-1.2,0.4-3.1,0.2-3.7,1.4c-0.8,1.8,2.7,3.5,2.3,5.4
				c-0.4,1.9-2.3,3.3-4.1,4.1c-1.8,0.7-4.8-1.6-5.9,0c-0.6,0.8,0.1,2.2,0.9,2.7c2.5,1.7,6.1-0.8,9.1-0.5c2.3,0.2,5.4,0,6.8,1.8
				c0.7,1,0.2,2.4,0,3.6c-0.2,0.9-0.2,2.1-0.9,2.7c-3.2,2.6-8.6,0-12.3,1.8c-2.8,1.3-7.6,3.3-6.8,6.3
				C266.4,760.5,268.2,760.3,269.3,760.4L269.3,760.4z"/>
			<path id="path7761_00000066482419937875292650000012911895416080421808_" class="st2" d="M243.2,737.5c-1.7-2.6-0.4-6.9,1.8-9
				c2.3-2.2,6.5-0.4,9.6-1.4c1.3-0.4,3.4-0.5,3.7-1.8c0.2-1-1.3-1.8-2.3-2.3c-1.9-0.9-5.2,0.8-6.4-0.9c-1.6-2.3-0.4-6.4,1.8-8.1
				c1.4-1.1,3.8-0.8,5.5,0c1.1,0.5,1.1,2.4,2.3,2.7c1.6,0.4,3.6-0.5,4.6-1.8c1.2-1.7-1.5-4.8,0-6.3c1.4-1.4,4-0.4,5.9,0
				c2.1,0.5,4.8,0.9,5.9,2.7c1.2,1.9,1,4.7,0,6.8c-0.8,1.5-3.3,1.6-4.1,3.2c-1.1,2.3,0.1,5.1,0,7.7c-0.1,2.3,1,5-0.5,6.8
				c-1.7,2-5.2,1.3-7.8,1.8c-3.8,0.7-7.6,1.9-11.4,1.8C248.9,739.2,244.8,739.9,243.2,737.5L243.2,737.5z"/>
			<path id="path7745_00000151540481185833977020000010724083001375118525_" class="st2" d="M304.6,850.2c-1,0-2,0.7-2.7,1.4
				c-0.7,0.6-1.4,1.4-1.4,2.3c0,1.4,1.2,2.6,2.3,3.6c1.8,1.6,4.1,3.9,6.4,3.2c1.6-0.5,1.6-3,2.3-4.5c0.4-0.9,1.3-1.8,0.9-2.7
				C311.2,850.8,307.4,850.1,304.6,850.2L304.6,850.2z"/>
			<path id="path7747_00000115472611041805046480000004509098751501922480_" class="st2" d="M353.1,840.7c1.6-1.4,1.1-4.2,1.4-6.3
				c0.3-1.9,1.1-4,0.5-5.9c-0.2-0.6-0.8-1.1-1.4-1.4c-1.7-0.7-4-1-5.5,0c-1.6,1.1-2,3.5-2.3,5.4c-0.4,2.2-0.7,4.8,0.5,6.8
				c0.5,0.9,1.7,1.5,2.7,1.8C350.4,841.5,352.1,841.6,353.1,840.7L353.1,840.7z"/>
			<path id="path7749_00000002381757647409862890000013703113265182439579_" class="st2" d="M354.1,848.3c0.1,1-1.5,1.3-1.8,2.3
				c-0.6,1.6,0.2,3.3,0,5c-0.2,1.2-0.9,1.8-0.9,3.6c0,1.8,0.3,3.5-0.9,4.5c-1.2,1-3,0-4.6,0c-1.1,0-3.2,2.3-3.2,0
				c0-2.3-0.1-3.9,0-5.9c0.1-2.1,0-4.3,0.5-6.3c0.5-2.2,1-4.8,2.7-6.3c0.8-0.7,2.1-1.1,3.2-0.9C351.2,844.7,353.8,846.2,354.1,848.3
				L354.1,848.3z"/>
			<path id="path7755_00000070094841930081808530000007374113925739096731_" class="st2" d="M396.3,870.5c2,2.1-0.1,5.7-0.5,8.6
				c-0.2,1.5,0.2,3.4-0.9,4.5c-1.4,1.4-3.9,0.9-5.9,0.9c-2.6,0-5.2-0.7-7.8-1.4c-2.5-0.7-5.4-1-7.3-2.7c-1.3-1.2-1.8-3.2-2.3-5
				c-0.4-1.3-1-2.8-0.5-4.1c0.5-1,1.4-1.8,2.7-1.8c1.4,0-2.3-0.9,5.5,0c7.8,0.9,5.8,0.8,8.7,0.9
				C390.9,870.7,394.5,868.6,396.3,870.5L396.3,870.5z"/>
			<path id="path7757_00000090989605504311677260000010468796353760001950_" class="st2" d="M465.4,883.9c-0.1,3.1-3.5,5.5-6.4,6.8
				c-2.4,1-5.2,0-7.8,0c-2.4,0-5.5,2.3-7.3,0c-1.8-2.3-4.7-2.6-4.1-4.5c0.7-2.2,4.5-1.3,6.8-1.8c2.9-0.7,6.4-0.9,8.7-1.8
				c2.3-0.9,4.9-2.6,7.3-1.8C464,881.1,465.4,882.5,465.4,883.9z"/>
			<path id="path7757-8_00000087375927019868308350000014300531557863329170_" class="st2" d="M464.4,904.3
				c-0.1,3.1-3.5,5.5-6.4,6.8c-2.4,1-5.2,0-7.8,0c-2.4,0-5.5,2.3-7.3,0c-1.8-2.3-4.7-2.6-4.1-4.5c0.7-2.2,4.5-1.3,6.8-1.8
				c2.9-0.7,6.4-0.9,8.7-1.8c2.3-0.9,4.9-2.6,7.3-1.8C463,901.6,464.4,902.9,464.4,904.3z"/>
			<path id="path7745-1_00000150802993487438225620000008029578131256578960_" class="st2" d="M383.2,889c-1,0-2,0.7-2.7,1.4
				c-0.7,0.6-1.4,1.4-1.4,2.3c0,1.4,1.2,2.6,2.3,3.6c1.8,1.6,4.1,3.9,6.4,3.2c1.6-0.5,1.6-3,2.3-4.5c0.4-0.9,1.3-1.8,0.9-2.7
				C389.8,889.6,386,888.9,383.2,889L383.2,889z"/>
			<path id="path7763_00000036216581045674090490000018228998753460943034_" class="st2" d="M397.9,696.4c-1.4,2.3-0.7,5.5,0,8.1
				c0.2,0.8,0.5,2.2,1.4,2.3c1.6,0.1,2.5-2.2,3.2-3.6c1.1-2.3,1.5-5.1,1.4-7.7c0-0.6,0.1-1.5-0.5-1.8
				C401.5,692.8,399,694.7,397.9,696.4L397.9,696.4z"/>
			<path id="path7769_00000085958737748147053300000018298159426015055526_" class="st2" d="M359.9,717.4c-0.8,1.8-0.5,4.4,0.9,5.9
				c0.5,0.6,1.5,0.7,2.3,0.5c1-0.3,1.9-1.3,2.3-2.3c0.5-1.2,0.5-2.8,0-4.1c-0.3-0.9-0.9-2.1-1.8-2.3
				C362.2,715,360.5,716.2,359.9,717.4L359.9,717.4z"/>
			<path id="path7769-0_00000132809263415525331060000005656527424093457337_" class="st2" d="M369.1,717.4
				c-0.8,1.8-0.5,4.4,0.9,5.9c0.5,0.6,1.5,0.7,2.3,0.5c1-0.3,1.9-1.3,2.3-2.3c0.5-1.2,0.5-2.8,0-4.1c-0.3-0.9-0.9-2.1-1.8-2.3
				C371.4,715,369.7,716.2,369.1,717.4L369.1,717.4z"/>
			<path id="path5532_00000108290645018397547760000009500020595372042896_" class="st2" d="M238,896.3c-1.3-4.4-4-8.9,9.2-13.3
				c11.7-0.7,19,1,18.4,7.2c-2.7,5.1-4.9,7.5-8.2,9.2C246.5,898.3,244,897.3,238,896.3L238,896.3z"/>
			<path id="path5536_00000061435321599981792970000013689557018396549039_" class="st3" d="M464.8,1101.7
				c92,40.9,424.6,13.6,444-326.5c9.1-158.6-130.2-386.1-447-334.6l1,143.1l0.4,0.1c0.3-4.7-35.3-8.8-34.9-4.1
				c-0.7-1.9-3.5-3-3.4-5.1c0-0.9,1.3-1.4,1.7-2.2c0.5-1.2,1.5-2.8,0.7-3.7c-0.5-0.6-1.4-0.8-2.3-0.7l0,0c-0.9,0.1-1.9,0.3-2.7,0.5
				c-1.8,0.4-3.3,1.5-4.8,2.5l0.3,0.1l-4.7,4.1l0.8,6.1l-5.5-3.1l-2.5,1.1c-1.8,1.4-3.7,2.8-5.5,4.1c-2.3,1.7-4.9,2.9-7,4.9
				c-5.1,4.7-9.2,10.4-13.1,16.1c-1.9,2.8-4.1,5.5-4.9,8.8c-0.4,1.6,0.8,3.6,0,5.1c-0.7,1.3-3.4,1.1-3.8,2.6c-0.2,1,1.5,1.9,1.5,2.8
				c0,0.9,0.8,3.2,0.8,3.9c0,0.7-2.4,0.3-3,1.1c-0.3,0.4-0.2,1-0.2,1.5c0.1,0.9,1.3,1.9,0.7,2.6c-1,1.2-3.3-0.7-4.7,0
				c-2.6,1.4-2.8,5.2-4.7,7.3c-2.4,2.6-5.7,4.3-8.5,6.5c-4.2,3.3-10.4,5.3-12.3,10.3c-0.5,1.2,1.3,2.8,0.6,3.9
				c-0.4,0.7-1.7,0.1-2.3,0.7c-1.2,1.3-0.8,3.5-0.9,5.2c-0.1,1.5-1.1,3.4,0,4.5c1.1,1.1,3.7-1.2,4.7,0c0.4,0.4-0.2,1.1-0.4,1.7
				c-0.3,0.9-0.4,2-1,2.8c-0.2,0.4-0.6,0.6-0.9,0.9c-0.5,0.4-1.4,0.5-1.5,1.1c-0.1,0.7,0.5,1.4,1.1,1.9c0.6,0.5,1.9-0.1,2.3,0.6
				c0.8,1.2-0.8,2.8-0.8,4.3c0.1,1.5-0.2,3.6,1.1,4.3c1.8,1,4.2-0.6,5.9-1.7c0.8-0.5,1.1-1.4,1.7-2.1c0.6-0.8,1.2-1.6,1.9-2.2
				c1.6-1.5,3.7-2.3,5.1-3.9c1.2-1.4,0.8-4.9,2.7-4.9c1.3,0.1,1.1,2.3,1.5,3.6c0.4,1,0.4,2.1,0.9,3c0.7,1.1,2.1,1.6,2.8,2.6
				c2,2.9,2.6,6.5,3.8,9.7c0.6,1.7,1.2,3.4,1.9,5.1c0.9,2.2,2.5,5.2,2.9,6.5c0.4,1.3,2,2.2,2.5,3.6c0.6,1.7,0.2,4.7,0.2,5.4
				c0,0.7,0.2,1.3,0.7,1.5c0.8,0.3,1.8-0.6,2.3-1.3c1.2-1.5,0.6-3.8,1.5-5.4c0.4-0.8,1.1-1.4,1.7-2.1c1-1,2.6-1.5,3.4-2.6
				c0.7-1,0.9-2.3,1.1-3.6c0.4-2.9,0.1-5.9,0-8.8c-0.1-1.7-1.1-3.5-0.4-5.1c0.5-1,1.8-1.3,2.7-2.1c0.9-0.8,1.7-1.6,2.7-2.4
				c0.7-0.6,1.5-1,2.1-1.7c1-1,2-2.1,2.5-3.4c0.3-0.9,0.6-2.1,0-2.8c-0.3-0.3-1.1,0.2-1.3-0.2c-0.2-0.3,0.1-0.7,0.2-1.1
				c0.1-0.5,0.2-1,0.2-1.5c0-0.5,0-1-0.4-1.3c-1-0.9-2.9,0.2-4-0.6c-1.1-0.7-1.6-2.1-2.1-3.4c-0.4-1-0.6-2.1-0.6-3.2
				c0-1.3,0.6-2.5,0.7-3.7c0.2-1.4-0.2-2.9,0.2-4.3c0.4-1.4,1.4-2.6,1.9-3.9c0.3-0.9,0.4-1.9,0.8-2.8c0.5-1.2,1.2-2.3,1.9-3.4
				c0.9-1.3,2-2.4,2.8-3.7c0.6-0.8,1.2-1.7,1.5-2.6c0.4-1,0.3-2.2,0.8-3.2c0.4-0.8,1-1.4,1.5-2.1c0.8-1,2.1-1.6,2.5-2.8
				c0.2-0.7,0.2-1.6-0.2-2.2c-0.2-0.3-0.6-0.3-0.8-0.6c-0.5-0.8-0.7-1.9-0.6-2.8c0.1-0.8,0.7-1.5,1.1-2.3c0.9-1.4,2.3-2.5,3-3.9
				c0.4-0.8,0.4-1.8,0.7-2.6c0.2-0.5,0.7-1,0.9-1.5c0.7-1.4,0.3-3.4,1.5-4.3c0.9-0.7,2.3-0.1,3.4-0.4c0.6-0.1,1.2-0.7,1.8-0.6
				c1.9,0.6,2.6,3,3.7,4.7c1.2,1.8,2.6,3.5,3,5.6c0.3,1.5,0,3-0.4,4.5c-0.8,3.4-2.4,6.5-3.8,9.7c-1,2.3-2,4.7-3.4,6.7
				c-1.4,2-3.9,3.1-4.9,5.2c-1.4,3.1-1.7,6.8-1.1,10.1c0.8,4.9,2.5,10.4,6.5,13.5c2.1,1.6,5.4,2.2,8,1.5c2.5-0.7,3.5-3.8,5.7-5.2
				c2.7-1.8,5.6-3.4,8.7-4.1c1.6-0.4,3.3-0.2,4.9,0c2.9,0.4,6.2,0.4,8.3,2.2c0.9,0.8,1.3,2.2,1.5,3.4c0.3,1.2,0.6,2.7,0,3.7
				c-1.9,3.2-6.3,4.4-9.9,5.6c-1.6,0.5-3.3,0.6-4.9,0.8c-3.8,0.3-9.1-2.6-11.4,0.4c-0.6,0.8,0.3,2.1,0.8,3c0.9,1.7,3.1,2.7,3.8,4.5
				c0.6,1.6-0.4,3.4,0,5.2c0.4,1.9,2.1,1.4,3,2.2c1.8,1.8,5.7,3.7,4.5,6c-0.5,1-2.3,0.3-3.4,0c-1.4-0.3-2.4-1.5-3.8-1.9
				c-2.1-0.6-4.3-0.8-6.5-0.8c-2.4,0-5.6-0.7-7.2,1.1c-1.6,1.8-0.6,4.7-0.4,7.1c0.2,2.8,0.6,5.7,1.9,8.2c1.3,2.4,5,3.4,5.7,6
				c0.3,1.1-0.3,2.3-0.8,3.4c-1,2.2-2.7,4-4.5,5.6c-1.6,1.4-3.2,3-5.3,3.4c-2.8,0.5-5.5-1.4-8.3-1.9c-4.1-0.7-8.3-1.8-12.5-1.5
				c-5.2,0.3-13.6,3.7-15.2,3.7c-1.5,0-6.4,1.9-8,1.9c-1.5,0-3.4,1.8-4.9,1.1c-3-1.3-3.8-5.3-4.9-8.2c-1-2.5-1.7-5.2-1.5-7.9
				c0.2-2.1,1.7-3.9,2.3-6c0.7-2.2,1.8-4.5,1.5-6.7c-0.3-1.8-1-4-2.7-4.9c-1.6-0.8-3.9-0.3-5.3,0.7c-2.2,1.6-3.1,4.8-3.4,7.5
				c-0.2,2.3,1.1,4.5,1.5,6.7c0.6,3,0.6,6.1,1.5,9c1.1,3.4,5.9,6.2,4.9,9.7c-0.4,1.3-2.5,1.3-3.4,2.2c-1.4,1.5-1.3,4.2-3,5.2
				c-1.5,0.9-3.5,0.3-5.3,0.4c-1.1,0-2.3,0.3-3.4,0c-2.2-0.5-4.6-4.7-6.1-3c-1.4,1.6,4.1,3.1,3.8,5.2c-0.3,1.7-2.8,2-4.2,3
				c-2.8,2-5.3,4.4-8.3,6c-1.8,0.9-4.3,1.9-7.2,2.8c-4.9,2-8.1,4.6-15.2,5.7c0,0-0.1,0.1-0.2,0.1c-2.2,0.8-5.8,1.9-7.8,3
				c-2.6,1.4-4.5,3.7-7.2,4.9c-1.1,0.5-2.3,0.9-3.4,0.8c-2.2-0.3-3.5-2.8-5.7-3.4c-1.3-0.4-2.8-0.2-4.2,0c-0.9,0.1-1.9,0.2-2.7,0.8
				c-1.3,1.1-2.4,2.8-2.3,4.5c0.1,0.9,0.9,1.6,1.5,2.2c1.4,1.6,3.3,2.8,4.9,4.1c2.2,1.8,4.9,3.1,6.8,5.2c0.7,0.8,1.1,1.7,1.5,2.6
				c1.1,2.5,2.3,5.1,2.7,7.9c0.2,1.6-0.4,3.4-0.4,4.9c0,1.5-0.1,4.1-0.8,6c-1,2.7-2.7,5.2-4.5,7.5c-1.7,2.1-3.4,4.8-6.1,5.6
				c-1.4,0.4-2.8-0.3-4.2-0.8c-2.1-0.6-4-1.8-6.1-2.6c-2.5-1-5-2.1-7.6-3c-1.7-0.6-3.5-1-5.3-1.5c-3.4-0.9-6.7-2.3-10.3-2.6
				c-2.3-0.2-4.6,0.1-6.8,0.4c-1.3,0.2-3.2-0.4-3.8,0.7c-0.9,1.8,2.6,3.3,2.7,5.2c0.1,1.9-1.1,3.7-2.3,5.2c-1.2,1.5-3.6,1.8-4.5,3.4
				c-0.5,0.9-0.2,2-0.4,3c-0.4,2-0.7,4.3-1.9,6c-0.5,0.8-1.5,1.3-2.3,1.9c-1.5,1.2-3.5,1.8-4.6,3.4c-1.7,2.6-1.7,5.9-2.3,9
				c-0.2,0.9-0.2,1.7-0.4,2.6c-0.4,2.3-0.8,4.5-1.1,6.7c-0.2,1.4-1,2.9-0.4,4.1c1.8,3.6,9.5,5.2,10.2,6.7c0.8,1.5,3.5,3.9,5.7,5.2
				c1.2,0.7,2.5,1.2,3.8,1.5c2.6,0.6,5.3,0.6,8,0.8c3.4,0.2,6.8,0,10.2,0c4.6,0.1,9.3,1.6,13.7,0.4c2.2-0.6,3.7-2.7,5.7-3.7
				c1.7-0.9,3.7-1.2,5.3-2.2c1.8-1.1,3-3.8,4.9-4.1c1.9-0.4,0.3-3,0.4-4.5c0-2-0.8-4-0.4-6c0.5-2,1.9-3.6,3-5.2
				c1.1-1.7,2-3.8,3.8-4.9c1.3-0.8,2.6,0,4.5-0.8c1.9-0.7,4-2.6,6.1-3.7c1.7-0.9,3.5-1.5,5.3-2.2c1.4-0.5,3.4-0.3,4.2-1.5
				c1-1.5-0.5-3.5-0.4-5.2c0.1-1.8-0.2-4.1,1.1-5.2c2-1.7,5.3-0.7,8-0.7c2,0,4.1,0.6,6.1,0.4c3.7-0.5,7.5-1.3,10.6-3.4
				c1.5-1,2.2-2.8,3.4-4.1c2-2,3.7-4.9,6.4-5.6c2-0.5,4.8-0.1,6.1,1.5c1.3,1.7-0.8,4.4,0,6.4c0.4,1,1.5,1.5,2.3,2.3
				c0.8,0.7,1.5,1.5,2.3,2.2c1.1,1.1,2.4,2.2,3.4,3.4c1.1,1.3,2,2.8,3,4.1c1,1.3,1.8,2.7,3,3.7c1.3,1.1,3.2,1.2,4.5,2.3
				c1.6,1.3,2.1,3.6,3.8,4.9c1.4,1,3.3,1.2,4.9,1.9c0.9,0.4,1.9,0.6,2.7,1.1c0.7,0.5,1.2,1.3,1.9,1.9c1.3,1.2,2.7,2.4,4.2,3.4
				c2.2,1.4,4.7,2.2,6.8,3.7c1.5,1.1,3.4,2.1,4.2,3.7c0.5,1,0.1,2.2,0,3.4c-0.2,1.5-0.8,3-1.1,4.5c-0.3,1.4-1.7,3-0.8,4.1
				c0.5,0.6,1.5,0,2.3,0c1.9,0,1.9-1.1,2.7-1.9c1.5-1.6,3-3.5,3.4-5.6c0.3-1.5-0.1-3.1-0.8-4.5c-0.5-0.9-1.8-1.3-2.3-2.2
				c-0.6-1.3-1.1-3-0.4-4.1c0.4-0.7,1.5-0.9,2.3-0.8c0.9,0.1,1.4,1.2,2.3,1.5c2.3,0.8,5.3,2.2,7.2,0.8c0.7-0.5,0.8-1.8,0.4-2.6
				c-1.4-2.8-5.5-3.2-8.3-4.5c-2.2-1-4.9-1.1-6.8-2.6c-1.9-1.5-2.1-4.6-4.2-6c-2.7-1.8-6.7-0.7-9.5-2.3c-2.5-1.4-4.7-3.5-6.1-6
				c-1.2-2.2-0.2-5.3-1.5-7.5c-0.1-0.1,0.2-1.2-0.1-2.6c-1.7-1.8-1.5-1.1-3.1-2.1c-1.1-1.3-2.1-3.2-2.3-3.4c-1.2-1.8-3-1.1-2.9-3.2
				c0.1-1.6,1.6-2.7,2.3-4.1c1-2.1,0.6-5.2,2.7-6.4c1.8-1,4.1,0.1,6.1,0.8c1.4,0.5,2.5,1.6,3.8,2.2c1.8,0.8,4.1,0.6,5.7,1.9
				c0.5,4.9,0.2,6.1,3.1,4.4c0.7,1.5,1.4,3.1,2.2,4.6c0.9,1.4,1.4,3,2.7,4.1c1.4,1.3,3.3,1.7,4.9,2.6c3.4,2.1,6.7,4.4,9.9,6.7
				c2.6,1.9,6.5,3,7.6,6c0.5,1.5-1.2,2.9-1.1,4.5c0.1,2.2,1.5,4.3,2.3,6.4c0.6,1.6,1.2,3.3,1.9,4.9c0.8,1.8,1.5,3.6,2.7,5.2
				c1.7,2.5,5.7,5.2,6.1,6.7c0.4,1.5-1,1.7-0.8,2.6c0.4,1.7,3.1,2.1,3.8,3.7c0.6,1.4-0.6,3.1,0,4.5c0.8,2,2.5,3.8,4.5,4.5
				c2.3,0.8,5.1,0.4,7.2-0.8c1.4-0.8,2.4-2.3,3-3.7c0.4-1,0.3-2.2,0.4-3.4c0.1-1.5,0.4-3.1,0-4.5c-0.5-1.6-1.9-2.6-2.7-4.1
				c-0.9-1.8-1.2-3.8-1.9-5.6c-0.7-1.7-2.1-3.1-2.3-4.9c-0.2-1.7-0.4-4.2,1.1-4.9c1.4-0.6,2.3,2.4,3.8,2.2c1.5-0.1,2.1-2.2,3.4-3
				c1.9-1.3,4.4-1.5,6.1-3c0.8-0.7,0.9-2.3,1.9-2.6c1-0.3,4.6,0.2,4.2-1.2L464.8,1101.7z"/>
			<path id="path3019_00000106860134932140332000000007330794630524258183_" class="st4" d="M294.8,625.1l-6.6-3.7l-6.9,3.2l1.6-7.2
				l-5.2-5.4l7.6-0.8l3.6-6.5l3.1,6.7l7.5,1.4l-5.7,4.9L294.8,625.1z"/>
			<path id="path3019-8_00000047021928874230069730000008942901628416685215_" class="st4" d="M324.4,584.6l-6.6-3.7l-6.9,3.2
				l1.6-7.2l-5.2-5.4l7.6-0.8l3.6-6.5l3.1,6.7l7.5,1.4l-5.7,4.9L324.4,584.6z"/>
			<path id="path3019-3_00000025439052887473964430000012229316514598340524_" class="st4" d="M351.8,561.5l-6.6-3.7l-6.9,3.2
				l1.6-7.2l-5.2-5.4l7.6-0.8l3.6-6.5l3.1,6.7l7.5,1.4l-5.7,4.9L351.8,561.5z"/>
			<path id="path3019-6_00000085227350697292662800000009365881792813015191_" class="st4" d="M380,534.8l-6.6-3.7l-6.9,3.2l1.6-7.2
				l-5.2-5.4l7.6-0.8l3.6-6.5l3.1,6.7l7.5,1.4l-5.7,4.9L380,534.8z"/>
			<path id="path3019-2_00000066483553087332089330000016343565052459039399_" class="st4" d="M408.2,518.2l-6.6-3.7l-6.9,3.2
				l1.6-7.2l-5.2-5.4l7.6-0.8l3.6-6.5l3.1,6.7l7.5,1.4l-5.7,4.9L408.2,518.2z"/>
			<path id="path3019-30_00000147215295421463563620000012298222242681949578_" class="st4" d="M437.1,505.9l-6.6-3.7l-6.9,3.2
				l1.6-7.2l-5.2-5.4l7.6-0.8l3.6-6.5l3.1,6.7l7.5,1.4l-5.7,4.9L437.1,505.9z"/>
			<path id="path3019-5_00000176044361747661393970000014115871490093613244_" class="st4" d="M294.8,918.5l-6.6-3.7l-6.9,3.2
				l1.6-7.2l-5.2-5.4l7.6-0.8l3.6-6.5l3.1,6.7l7.5,1.4l-5.7,4.9L294.8,918.5z"/>
			<path id="path3019-0_00000097502268931161430660000013303970573231909262_" class="st4" d="M324.4,957.5l-6.6-3.7l-6.9,3.2
				l1.6-7.2l-5.2-5.4l7.6-0.8l3.6-6.5l3.1,6.7l7.5,1.4l-5.7,4.9L324.4,957.5z"/>
			<path id="path3019-31_00000040567896279236527810000003682263022997097884_" class="st4" d="M348.9,988.5l-6.6-3.7l-6.9,3.2
				l1.6-7.2l-5.2-5.4l7.6-0.8l3.6-6.5l3.1,6.7l7.5,1.4l-5.7,4.9L348.9,988.5z"/>
			<path id="path3019-35_00000176729379840663637640000016047962451998439296_" class="st4" d="M380,1015.3l-6.6-3.7l-6.9,3.2
				l1.6-7.2l-5.2-5.4l7.6-0.8l3.6-6.5l3.1,6.7l7.5,1.4l-5.7,4.9L380,1015.3z"/>
			<path id="path3019-9_00000054248033759058649290000001840469370668387512_" class="st4" d="M410.4,1037.7l-6.6-3.7l-6.9,3.2
				l1.6-7.2l-5.2-5.4l7.6-0.8l3.6-6.5l3.1,6.7l7.5,1.4l-5.7,4.9L410.4,1037.7z"/>
			<path id="path3019-22_00000016772843582630433730000001067361714439768747_" class="st4" d="M437.1,1052.1l-6.6-3.7l-6.9,3.2
				l1.6-7.2l-5.2-5.4l7.6-0.8l3.6-6.5l3.1,6.7l7.5,1.4l-5.7,4.9L437.1,1052.1z"/>
			<path id="rect3882-67_00000134963977557845069560000013456617704605661606_" class="st4" d="M427.7,890.2h0.6
				c0.9,0,1.6,0.7,1.6,1.6v121.8c0,0.9-0.7,1.6-1.6,1.6h-0.6c-0.9,0-1.6-0.7-1.6-1.6V891.8C426.1,890.9,426.8,890.2,427.7,890.2z"/>
			<path id="rect3882-67-8_00000008848480689752589620000001601692159948230077_" class="st4" d="M399.5,888.1h0.6
				c0.9,0,1.6,0.7,1.6,1.6v106.6c0,0.9-0.7,1.6-1.6,1.6h-0.6c-0.9,0-1.6-0.7-1.6-1.6V889.7C397.9,888.8,398.6,888.1,399.5,888.1z"/>
			<path id="rect3882-67-5_00000160191028054681697920000015803604088805736624_" class="st4" d="M372,888.1h0.6
				c0.9,0,1.6,0.7,1.6,1.6v89.2c0,0.9-0.7,1.6-1.6,1.6H372c-0.9,0-1.6-0.7-1.6-1.6v-89.2C370.4,888.8,371.1,888.1,372,888.1z"/>
			<path id="rect3882-67-4_00000011734982412398241430000002012908937397780140_" class="st4" d="M343.9,887.3h0.6
				c0.9,0,1.6,0.7,1.6,1.6v62.5c0,0.9-0.7,1.6-1.6,1.6h-0.6c-0.9,0-1.6-0.7-1.6-1.6v-62.5C342.2,888.1,343,887.3,343.9,887.3z"/>
			<path id="rect3882-67-2_00000100341520076131099960000007307111659559907259_" class="st4" d="M315.7,888.1h0.6
				c0.9,0,1.6,0.7,1.6,1.6v31.4c0,0.9-0.7,1.6-1.6,1.6h-0.6c-0.9,0-1.6-0.7-1.6-1.6v-31.4C314.1,888.8,314.8,888.1,315.7,888.1z"/>
			<path id="rect3882-67-53_00000140696205468708085860000015793067774149322926_" class="st4" d="M288.2,927.8h0.6
				c0.9,0,1.6,0.7,1.6,1.6v53.8c0,0.9-0.7,1.6-1.6,1.6h-0.6c-0.9,0-1.6-0.7-1.6-1.6v-53.8C286.6,928.5,287.3,927.8,288.2,927.8z"/>
			<path id="rect3882-67-6_00000045605323425437176150000004268824037681387168_" class="st4" d="M316.4,965.4h0.6
				c0.9,0,1.6,0.7,1.6,1.6v45.9c0,0.9-0.7,1.6-1.6,1.6h-0.6c-0.9,0-1.6-0.7-1.6-1.6V967C314.8,966.1,315.5,965.4,316.4,965.4z"/>
			<path id="rect3882-67-7_00000038381044817587514200000012854627810381281973_" class="st4" d="M343.9,994.3h0.6
				c0.9,0,1.6,0.7,1.6,1.6v40.1c0,0.9-0.7,1.6-1.6,1.6h-0.6c-0.9,0-1.6-0.7-1.6-1.6v-40.1C342.2,995,343,994.3,343.9,994.3z"/>
			<path id="rect3882-67-3_00000138567784038786657600000015486271744900719007_" class="st4" d="M374.2,1022.4h0.6
				c0.9,0,1.6,0.7,1.6,1.6v28.5c0,0.9-0.7,1.6-1.6,1.6h-0.6c-0.9,0-1.6-0.7-1.6-1.6V1024C372.6,1023.2,373.3,1022.4,374.2,1022.4z"
				/>
			<path id="rect3882-67-0_00000085929792132454973410000004909548419714711212_" class="st4" d="M401.7,1042.7h0.6
				c0.9,0,1.6,0.7,1.6,1.6v27.8c0,0.9-0.7,1.6-1.6,1.6h-0.6c-0.9,0-1.6-0.7-1.6-1.6v-27.8C400,1043.4,400.8,1042.7,401.7,1042.7z"/>
			<path id="rect3882-67-87_00000104667325048069686020000010967465883429555079_" class="st4" d="M429.1,1058.6h0.6
				c0.9,0,1.6,0.7,1.6,1.6v22.8c0,0.9-0.7,1.6-1.6,1.6h-0.6c-0.9,0-1.6-0.7-1.6-1.6v-22.8C427.5,1059.3,428.2,1058.6,429.1,1058.6z"
				/>
			<path id="rect3882-67-06_00000070832314816284556570000005360662349407085205_" class="st4" d="M343.9,568.4h0.6
				c0.9,0,1.6,0.7,1.6,1.6v70.8c0,0.9-0.7,1.6-1.6,1.6h-0.6c-0.9,0-1.6-0.7-1.6-1.6V570C342.3,569.2,343,568.4,343.9,568.4z"/>
			<path id="rect3882-67-00_00000107547053255296266450000014115408437381339025_" class="st4" d="M317.5,592.2h0.6
				c0.9,0,1.6,0.7,1.6,1.6v47.3c0,0.9-0.7,1.6-1.6,1.6h-0.6c-0.9,0-1.6-0.7-1.6-1.6v-47.3C315.9,592.9,316.6,592.2,317.5,592.2z"/>
			<path id="rect3882-67-63_00000147187295812143212430000009632563337391558284_" class="st4" d="M289,626.9h0.6
				c0.9,0,1.6,0.7,1.6,1.6v13.7c0,0.9-0.7,1.6-1.6,1.6H289c-0.9,0-1.6-0.7-1.6-1.6v-13.7C287.3,627.6,288.1,626.9,289,626.9z"/>
			<path id="rect3882-67-69_00000096760129875695192340000000468494202778903221_" class="st4" d="M289.3,558.2h0.6
				c0.9,0,1.6,0.7,1.6,1.6v27.8c0,0.9-0.7,1.6-1.6,1.6h-0.6c-0.9,0-1.6-0.7-1.6-1.6v-27.8C287.7,558.9,288.4,558.2,289.3,558.2z"/>
			<path id="rect3882-67-694_00000021819325239338433670000001183873907626057649_" class="st4" d="M317.8,522.1h0.6
				c0.9,0,1.6,0.7,1.6,1.6v22.4c0,0.9-0.7,1.6-1.6,1.6h-0.6c-0.9,0-1.6-0.7-1.6-1.6v-22.4C316.2,522.8,316.9,522.1,317.8,522.1z"/>
			<path id="rect3882-67-694-6_00000146463478753128165880000004184509385227106447_" class="st4" d="M344.2,502h0.6
				c0.9,0,1.6,0.7,1.6,1.6v22.4c0,0.9-0.7,1.6-1.6,1.6h-0.6c-0.9,0-1.6-0.7-1.6-1.6v-22.4C342.6,502.8,343.3,502,344.2,502z"/>
			<path id="rect3882-67-694-2_00000023241056260508933900000008103202138451406247_" class="st4" d="M374.2,477.5h0.6
				c0.9,0,1.6,0.7,1.6,1.6v22.4c0,0.9-0.7,1.6-1.6,1.6h-0.6c-0.9,0-1.6-0.7-1.6-1.6v-22.4C372.6,478.2,373.3,477.5,374.2,477.5z"/>
			<path id="rect3882-67-694-7_00000134966041683685229190000012489091505381137832_" class="st4" d="M400.2,462.7h0.6
				c0.9,0,1.6,0.7,1.6,1.6v19.9c0,0.9-0.7,1.6-1.6,1.6h-0.6c-0.9,0-1.6-0.7-1.6-1.6v-19.9C398.6,463.4,399.3,462.7,400.2,462.7z"/>
			<path id="rect3882-67-694-28_00000105409254917149592170000001557848284136126377_" class="st4" d="M430.9,451.8h0.6
				c0.9,0,1.6,0.7,1.6,1.6v18.1c0,0.9-0.7,1.6-1.6,1.6h-0.6c-0.9,0-1.6-0.7-1.6-1.6v-18.1C429.3,452.5,430,451.8,430.9,451.8z"/>
			<path id="rect3882-67-694-64_00000038372619005418887930000015556377626581915018_" class="st4" d="M428.7,514.7h0.6
				c0.9,0,1.6,0.7,1.6,1.6v46.2c0,0.9-0.7,1.6-1.6,1.6h-0.6c-0.9,0-1.6-0.7-1.6-1.6v-46.2C427.1,515.4,427.9,514.7,428.7,514.7z"/>
			<path id="rect3882-67-694-26_00000032646645024364828740000008576630842016412293_" class="st4" d="M400.9,526.2h0.6
				c0.9,0,1.6,0.7,1.6,1.6v35.8c0,0.9-0.7,1.6-1.6,1.6h-0.6c-0.9,0-1.6-0.7-1.6-1.6v-35.8C399.3,527,400,526.2,400.9,526.2z"/>
			<path id="rect3882-67-694-1_00000115510714613356991700000016098265566657307548_" class="st4" d="M374.9,545h0.6
				c0.9,0,1.6,0.7,1.6,1.6v46.6c0,0.9-0.7,1.6-1.6,1.6h-0.6c-0.9,0-1.6-0.7-1.6-1.6v-46.6C373.3,545.7,374,545,374.9,545z"/>
			<path id="path9175_00000123399114230592457890000000998235092677144709_" class="st4" d="M734.6,940.9c-11,0-19.6,8.1-20.5,19.8
				c-0.6,13.7,6.8,21.6,15.1,21.7c9.2-0.1,16.3-5.1,19.7-19.4C748.3,962.8,751.5,944.3,734.6,940.9L734.6,940.9z M732.1,943.3
				c0.6,0,1.3,0,2,0.1c10.7,5.2,9,9.6,8.9,18.9c-1.6,8.2-4.8,18.8-14,17.2c0,0-12.1-0.5-9.5-19.8
				C721.9,949.5,725.9,943.5,732.1,943.3L732.1,943.3z"/>
			<path id="path7994-4_00000159470781315597651840000010946977324217507755_" class="st4" d="M620.8,949.8l0-4.9l0.1-3.6
				c0-0.6-28.6-0.3-28.6-0.3s-1,0.8-1.1,1.3c-0.1,0.6,0.1,1.2,0.5,1.6c0.5,0.4,2,0.5,2,0.5l3.1-0.2c0,0-0.7,21.5-4.7,31.4
				c-0.3,0.7-0.7,1.3-1.3,1.8c-0.5,0.4-1.1,0.7-1.6,1c-1.1,0.6-3.7,0.5-3.4,1.6c0.4,1.6,3.5,0.3,5.2,0.3c2.1,0.1,6.3,0.2,6.3,0.2
				h6.2l7.1,0.3l4.9-0.3l3.3-2c0,0,0.6-1.9,0.9-2.8c0.3-0.9,0.8-1.8,0.7-2.8c-0.1-0.6-0.3-1.3-0.9-1.6c-0.3-0.2-0.8-0.2-1.1,0
				c-1.2,0.9-0.2,3-1.1,4.1c-0.5,0.7-2.4,1.5-2.4,1.5l-2.4,1l-5.1,0.7h-7.1l-1.4-0.7l-1.4-1.6l0.7-3.8l2-10.5l1.8-0.7h8.7l0.7,0.7
				v4.4l1.3,1.2l1.3-1.2l-0.4-6.3l2.4-4.6l-0.9-1.5h-0.7l-1.6,2.5l-1.3,1.5l-1.6,0.7l-4.7,0.5h-2.7L601,959l2.7-14.8l4.7-0.7h5.2
				l3.3,0.2l0.9,2l0.5,4.3C619.2,950.6,620,950.2,620.8,949.8L620.8,949.8z"/>
			<path id="path7996_00000132053934165194162410000000057382306164317579_" class="st4" d="M630.4,941.8l6.4,0.2l5.4-0.1h2.9
				l0.4,0.7l-0.2,0.7c0,0-0.5,0.1-0.8,0.1h-1.2l-2,0.3l-1.2,0.7l-0.2,0.4l-0.4,2.1l-3.6,21.9l-0.3,3.1l0.1,2.6l1,1.9l3.5,2l4.9,0.3
				l4-0.9l2.4-1.9l2-2.3l1.5-3.6l1.2-6.1l1.5-8.3l0.8-4.1c0-2,0-2.1,0.1-3.2l0.1-2l-0.1-1.3l-0.1-1.1l-0.9-0.3H656l-1-0.3l-0.2-0.8
				l0.1-0.6l1-0.1l3.9,0.1l4.5,0.1l2.2,0.1l0.1,1l-0.3,0.6c-0.7-0.1-1.4,0-2.1,0.1c-1.3,0.3-1.3,1.6-1.9,2.4l-1.9,7.4L657,971
				l-2.9,6.3c-1.9,2-4,3-6.3,3.4c-2.6,0.6-5.1,0.9-7.7,0.5c-2.7-0.3-4.9-1.3-6.9-2.4c-1.4-1.1-2.4-2.8-3.3-4.7
				c0.1-4.5,0.4-8.9,1.1-13.2l2.5-15c0.4-1.4,0.1-2.2-0.7-2.4l-3.3-0.2l-0.1-0.8L630.4,941.8z"/>
			<path id="path9170_00000072969332658259606920000016930189801164811399_" class="st4" d="M678.4,941.7c-0.6,0.4-1,1-0.7,1.8
				l3.7,1l-5.1,32.2c0,0.3,0,0.6-0.1,0.8c-0.2,0.2-0.3,0.1-0.8,0.3c-1,0.4-2.6,1.2-3.4,1.8c-0.3,0.2,0.2,1,0.5,1
				c6.4,1.1,14.5,0,14.8,0.3l0.3-1.4l-4.7-0.9c-0.6-0.1-1.2-1-1.1-1.6c1.4-5.4,2.5-15.9,3.7-16l2.1,0.8c1.1,0.6,1.4,1,1.6,0.9
				c0,0,3.9,13.6,9.8,17.3c2.2,1.4,5.5,1.6,8,0.8c0.5-0.2,1.4-0.6,1.3-1.1c-0.1-0.6-1.2-0.5-1.8-0.7l-4.1-1.6l-8.6-16
				c11.8-5.5,12.3-14.6,3.2-19.2L678.4,941.7L678.4,941.7z M687.3,980.9L687.3,980.9C687.3,981,687.3,980.9,687.3,980.9z
				 M690.8,943.8c0.7,0,1.5,0.1,1.9,0.1c1.3,0,2.6,0,3.7,0.7c1.2,0.8,1.8,2,2.1,3.4c0.3,1.4,0,2.8-0.3,4.2c-0.3,1.7-0.6,3.5-1.7,4.9
				c-0.9,1.2-2.3,2-3.7,2.5c-1.3,0.5-2.7,0.5-4.1,0.4c-0.9-0.1-2.8,0.3-2.7-0.6c0.6-6.1,2.5-13.4,2.4-14.9
				C688.4,943.9,689.6,943.8,690.8,943.8z"/>
			<path id="path6400_00000018228326998001598180000014212986022533436564_" class="st4" d="M557.9,992.1c0.8,5.1,5.4,4.2,5.8,0
				l5.8-20.6c4.4-10.4-2.5-9.6-5.4-5.1c-42.7-4.6-58.7,1.6-64.7,5.8c-20,14.1-24.6,28.9-24.2,44.1c0.8,30.4,25.7,37.7,37.2,40.1
				c7.9,1.7,21.3,1.6,32.2-0.7c4.3-0.9,6.9-2.8,9.8-6.1c5.5-6.5,9.8-24.2,9.8-24.2c-1.5-3.2-3.7-2.6-6.1-1.1
				c-5.3,11.7-13.2,24.1-23.8,24.2c0,0-33.2,2.4-37.2-30.3c-3.3-27,18.4-45.5,38.7-47.3c22.9-2,22.8,12.3,22.8,12.3L557.9,992.1z"/>
			<path id="path7994-4-8_00000122682953460062217170000005426827765363509691_" class="st4" d="M619.5,1006.8l0-7.3l0.1-5.3
				c0-0.9-44.8-0.4-44.8-0.4s-1.5,1.2-1.7,2c-0.2,0.8,0.1,1.9,0.8,2.4c0.8,0.6,3.1,0.7,3.1,0.7l4.8-0.2c0,0-1.1,32-7.4,46.7
				c-0.4,1-1.1,1.9-2,2.7c-0.7,0.6-1.7,1-2.5,1.5c-1.7,0.9-5.8,0.7-5.4,2.4c0.6,2.3,5.5,0.4,8.2,0.5c3.3,0.1,9.9,0.2,9.9,0.2h9.6
				l11,0.5l7.6-0.5l5.1-2.9c0,0,1-2.8,1.4-4.2c0.4-1.4,1.3-2.7,1.1-4.2c-0.1-0.9-0.5-2-1.4-2.4c-0.5-0.3-1.3-0.3-1.7,0
				c-1.9,1.3-0.3,4.4-1.7,6.1c-0.8,1.1-3.7,2.2-3.7,2.2l-3.7,1.5l-7.9,1h-11l-2.3-1l-2.3-2.4l1.1-5.6l3.1-15.7l2.8-1h13.6l1.1,1v6.6
				l2,1.7l2-1.7l-0.6-9.3l3.7-6.9l-1.4-2.2h-1.1l-2.5,3.7l-2,2.2l-2.5,1l-7.4,0.7h-4.2l-2-0.5l4.2-22l7.4-1h8.2l5.1,0.2l1.4,2.9
				l0.8,6.4C617,1008,618.2,1007.4,619.5,1006.8L619.5,1006.8z"/>
			<path id="path6420_00000048467887748429980450000016474718520868732061_" class="st4" d="M621.1,1048.8l5.4-0.4
				c1.6-0.2,3.1,2,4.7-3.6l11.6-35.8c1.8-8-4.4-8.8-12.3-8.7v-5.8h22l22,43.7l6.1-30c2.3-7.8-0.8-6-2.9-7.6h-7.9v-5.4l30.3-0.4
				l-0.4,5.4c-3,0.7-6.5-1.9-8.7,4l-9.7,41.2l3.6,5.4c2.1,2.7,3.2,4.9-0.4,4.7l-13.4,0.4l-23.8-43.7l-8.3,30
				c-3.5,7.6,1.4,5.9,5.1,5.8l9.8,0.4v5.8l-33.2,0.7L621.1,1048.8z"/>
			<path id="path6422_00000025432150616780781620000008254413404362069900_" class="st4" d="M706,1054.2v-4.7l9.4-2.2
				c2.2,0.8,3.4-2.5,4.7-5.4l11.2-37.6c3.9-8.9-4.6-6.1-8.7-6.1c-5.5,2.8-10.9,6.5-12.6,14.1c-6.3,2.4-5.7-0.2-5.4-2.5l4.3-11.9
				c1.6-1.9,1.4-4.6,6.5-4.7l47.7,0.4c3.8-0.1,4.4,3.2,3.5,6.9l-1.7,9.7c-3.6,5.8-5.1,2.2-6.9-0.4l1.1-6.1
				c-0.1-6.2-12.9-7.4-15.5-1.1l-11.2,40.8c-2.1,4.9,3.3,3.5,6.5,4c4.4,2.6,5.5,5.3,6.1,7.9L706,1054.2z"/>
			<path id="path5835" class="st4" d="M741.2,901.1c16.5-0.8,51.9-17.3,69.3-40.1c23-29.9,44.2-60.5,54.5-97.5
				c10.1-36,19.4-62.9,9.2-114.5c-2.8-14.2-11.8-45.5-49.9-50.3c-31-3.9-54.2,16-67.7,25c-12.7,8.6-47.2,39.6-63.4,87.8
				c-8.8,26.3-13.2,42.8-14.2,53.7l-4.4,46.7c-0.3,3.5-0.5,7.4-0.9,12.9l-15.5,26.2c-5.2,6.9-5.9,12.6-37.8,13
				c-31.3-0.7-61.2-1.4-94.4-2.1c-4.2-1.4,2.7-4.5,4.1-6.5c0,0,65.7-42.6,90.2-69.7c30.8-34.1,70.9-72.3,67.9-114.1
				c-2.3-32.1-22.8-69.8-67.4-72.1c-53.8-2.7-96.4,60.7-96.4,60.7c-2.3,3-4,11.8,7.3,5.7c0,0,44.9-31.7,74.1-29.3
				c30.9,2.6,37,37.8,36.8,48c-0.9,41-35.2,86.2-65.6,113.8c-33.4,30.4-98.8,81.9-98.8,81.9c-4,3.2-9.1,9.9-2.3,12.4l173.9-1.3
				c8.9,0.8,13.2-3.1,14.5-9.9l11.7-35.2C682.6,874.7,699.7,903,741.2,901.1L741.2,901.1z M805.7,613.2c1.1,0,2.3,0.1,3.3,0.5
				c38.3,12.9,20.4,97.8,9.2,144.9c-11,46.2-45.8,129.5-72.2,122.9c-37.9-9.4-21.2-100.7-9.2-149.1
				C747.4,689.6,782.5,613.5,805.7,613.2L805.7,613.2z"/>
		</g>
	</g>
</g>
</svg>
