<?xml version="1.0" encoding="utf-8"?>
<!-- Generator: Adobe Illustrator 28.1.0, SVG Export Plug-In . SVG Version: 6.00 Build 0)  -->
<svg version="1.1" xmlns="http://www.w3.org/2000/svg" xmlns:xlink="http://www.w3.org/1999/xlink" x="0px" y="0px"
	 viewBox="0 0 850.4 850.4" style="enable-background:new 0 0 850.4 850.4;" xml:space="preserve">
<style type="text/css">
	.st0{fill:#D8AE3A;stroke:#000000;stroke-width:5;}
	.st1{fill:#F4C356;stroke:#AA7F09;stroke-width:2.9149;}
	.st2{fill:url(#path7998-6_00000072273301203445627760000001984231558479096198_);}
	.st3{fill:#261908;fill-opacity:0.1294;}
	.st4{fill:#160C00;fill-opacity:0.1294;}
	.st5{fill:#261908;fill-opacity:0.3137;}
</style>
<g id="Layer_1">
	<g id="g7815">
		<path id="path7026" class="st0" d="M270.1,801.8c0,0,5.1,8.7,14,11.8c8.9,3.1,15.8-0.8,15.8-0.8s8.4-6.1,17.5-3.7
			c9.1,2.5,13.3,12.1,13.3,12.1c7.8,11.6,18.3,3.4,18.3,3.4s3.8-5.6,13.1-4c9.3,1.5,12.9,8.8,12.9,8.8s7.1,6.9,16.5,7.7
			c9.4,0.9,15.1-4.8,15.1-4.8s7.6-5.6,17-5.4c9.4,0.2,14.7,5.8,14.7,5.8s8.1,5.7,17.5,5.2c9.4-0.5,14.2-7.1,14.2-7.1
			s6.6-6.4,15.9-7.9c9.3-1.4,15.5,3.4,15.5,3.4s9,4.5,18.1,2.4c9.2-2.1,12.8-9.1,12.8-9.1s5.5-7.5,14.5-10.2
			c9-2.8,15.8,1.1,15.8,1.1s9.5,3,18.2-0.3c8.8-3.4,11.4-11,11.4-11s4.3-8.4,12.8-12.4c8.5-4,15.7-1.3,15.7-1.3s10,1.7,18-3.1
			c8.1-4.8,9.4-12.6,9.4-12.6s3-8.8,10.7-14.1c7.7-5.4,15.4-3.8,15.4-3.8s10,0.1,17.3-5.8c7.3-5.9,7.5-13.9,7.5-13.9
			s1.6-9.2,8.4-15.7c6.8-6.4,14.6-6,14.6-6s9.8-1.5,16.1-8.4c6.4-6.9,5.2-14.9,5.2-14.9s0.2-9.2,5.9-16.7c5.6-7.5,13.5-8.3,13.5-8.3
			s9.6-3,14.7-10.9c5.1-7.9,2.8-15.5,2.8-15.5s-1.3-9.2,3.1-17.5c4.5-8.3,12-10.3,12-10.3s8.9-4.5,12.7-13
			c3.8-8.6,0.3-15.8,0.3-15.8s-2.8-8.9,0.3-17.8c3.1-8.8,10.3-12,10.3-12s8.1-5.8,10.5-14.9c2.5-9.1-2.1-15.6-2.1-15.6
			s-4.2-8.4-2.4-17.6c1.7-9.2,8.3-13.4,8.3-13.4s7-7,8.1-16.3c1-9.3-4.5-15.1-4.5-15.1s-5.4-7.7-5.1-17.1c0.3-9.4,6-14.5,6-14.5
			s5.8-7.9,5.4-17.3c-0.4-9.4-6.9-14.3-6.9-14.3s-6.4-6.7-7.7-15.9c-1.3-9.3,3.6-15.4,3.6-15.4s4.6-8.9,2.6-18c-2-9.2-9-12.9-9-12.9
			s-7.5-5.6-10.1-14.6c-2.7-9,1.2-15.7,1.2-15.7s3.1-9.4-0.2-18.2c-3.3-8.8-10.9-11.4-10.9-11.4s-8.4-4.4-12.3-12.9
			c-3.9-8.5-1.2-15.7-1.2-15.7s1.7-9.9-3-18c-4.7-8.1-12.5-9.6-12.5-9.6s-8.8-3.1-14.1-10.8c-5.3-7.8-3.6-15.4-3.6-15.4
			s0.1-9.9-5.7-17.3c-5.8-7.4-13.9-7.6-13.9-7.6s-9.3-1.7-15.6-8.6c-6.4-6.9-5.9-14.6-5.9-14.6s-1.4-9.7-8.2-16.2
			c-6.8-6.5-14.9-5.4-14.9-5.4s-9.2-0.3-16.7-6.1c-7.4-5.8-8.2-13.6-8.2-13.6s-2.9-9.6-10.7-14.8c-7.8-5.2-15.5-3-15.5-3
			s-9.2,1.1-17.4-3.5c-8.2-4.6-10.1-12.2-10.1-12.2s-4.3-9-12.8-13c-8.5-4-15.8-0.7-15.8-0.7s-9,2.6-17.8-0.8
			c-8.8-3.3-11.8-10.5-11.8-10.5S552,32.5,543,29.8c-9-2.7-15.7,1.7-15.7,1.7s-8.5,3.9-17.7,1.8c-9.2-2-13.3-8.7-13.3-8.7
			s-6.8-7.3-16.1-8.6c-9.3-1.3-15.3,4-15.3,4s-7.8,5.1-17.2,4.5c-9.4-0.6-14.4-6.6-14.4-6.6s-7.8-6.1-17.2-6.1
			c-9.4,0.1-14.5,6.3-14.5,6.3s-7,6.3-16.4,7.1c-9.4,0.8-15.2-4.3-15.2-4.3s-8.6-4.9-17.9-3.4c-9.3,1.4-13.4,8.4-13.4,8.4
			s-5.9,7.1-15,9.4c-9.1,2.3-15.8-1.9-15.8-1.9s-9.3-3.6-18.3-0.6c-8.9,3-11.9,10.3-11.9,10.3s-4.8,8-13.4,11.6
			c-8.7,3.6-15.8,0.5-15.8,0.5s-9.7-2.1-18.1,2.1c-8.4,4.2-10.2,12-10.2,12s-3.5,8.8-11.6,13.6c-8.1,4.8-15.5,2.9-15.5,2.9
			s-10-0.6-17.6,4.9c-7.6,5.5-8.2,13.4-8.2,13.4s-2.1,9-9.3,15.1c-7.2,6.1-14.9,5.2-14.9,5.2s-9.9,1-16.6,7.5
			c-6.7,6.6-6.1,14.6-6.1,14.6s-0.6,9.4-6.8,16.4c-6.2,7.1-13.9,7.5-13.9,7.5s-9.5,2.5-15.2,10c-5.7,7.5-3.7,15.4-3.7,15.4
			s0.7,9.2-4.1,17.2c-4.9,8-12.6,9.6-12.6,9.6s-9.2,4-13.5,12.3c-4.3,8.4-1.2,15.7-1.2,15.7s2.2,9-1.3,17.7
			c-3.6,8.7-10.9,11.5-10.9,11.5S29,285.1,26.1,294c-2.9,8.9,1.3,15.7,1.3,15.7s3.6,8.6,1.4,17.7c-2.2,9.1-9,13-9,13
			s-7.5,6.6-9,15.8c-1.5,9.3,3.7,15.3,3.7,15.3s5,7.9,4.2,17.3c-0.8,9.3-6.9,14.2-6.9,14.2s-6.3,7.6-6.4,17
			c-0.1,9.4,6.1,14.6,6.1,14.6s6.2,7.1,6.8,16.5c0.6,9.4-4.5,15.1-4.5,15.1s-5.2,8.7-3.6,17.9c1.5,9.3,8.3,13.4,8.3,13.4
			s7.1,6,9.3,15.1c2.2,9.1-2.1,15.7-2.1,15.7s-3.7,9.3-0.8,18.2c2.9,8.9,10.3,12,10.3,12s8.1,4.8,11.6,13.5
			c3.5,8.7,0.4,15.8,0.4,15.8s-2.1,9.6,2,18.1c4.1,8.4,12,10.3,12,10.3s8.5,3.6,13.4,11.6c4.9,8,2.8,15.6,2.8,15.6s-0.7,10,4.8,17.6
			c5.5,7.6,13.4,8.3,13.4,8.3s9.1,2.2,15.1,9.4c6,7.2,5.1,15,5.1,15s0.9,9.8,7.4,16.6c6.5,6.8,14.6,6.2,14.6,6.2s9.4,0.8,16.4,7
			c7,6.3,7.3,14,7.3,14s2.3,9.8,9.9,15.4c7.6,5.6,15.3,3.8,15.3,3.8s9.2-0.6,17.2,4.4c8,5,9.5,12.7,9.5,12.7s3.8,9.3,12.1,13.7
			c8.3,4.4,15.7,1.5,15.7,1.5s9.1-2,17.7,1.8c8.6,3.8,11.2,11.3,11.2,11.3"/>
		<path id="path7998" class="st1" d="M817.6,426.2c0,213.9-175.7,387.2-392.3,387.2S32.9,640.1,32.9,426.2
			c0-213.9,175.7-387.2,392.3-387.2S817.6,212.3,817.6,426.2z"/>
		
			<linearGradient id="path7998-6_00000073687772106354022600000006822525563469489807_" gradientUnits="userSpaceOnUse" x1="871.5479" y1="-1121.2932" x2="3550.1233" y2="-1121.2932" gradientTransform="matrix(0.1226 0 0 -0.1871 148.3 417.7525)">
			<stop  offset="0" style="stop-color:#E6E6E6"/>
			<stop  offset="1" style="stop-color:#CCCCCC;stop-opacity:0.7459"/>
		</linearGradient>
		<path id="path7998-6" style="fill:url(#path7998-6_00000073687772106354022600000006822525563469489807_);" d="M583.4,619.3
			c-1.4,2.6-2.3,5.5-2.6,8.7c-0.2,2.9,0.1,5.6,0.6,7.9C582.5,630.5,583.1,624.9,583.4,619.3L583.4,619.3z"/>
	</g>
</g>
<g id="Layer_2">
	<g id="layer1_00000039104535573305115690000002093071951238417334_" transform="translate(-135.66 -346.14)">
		<g id="g7815_00000103266374862731695790000018203107942854582944_">
			<path id="path7759_00000145023552608055087420000012086674558761646743_" class="st3" d="M248.8,759.6c5.8,0.2,11.4-2.6,17.1-3.9
				c2.4-0.5,4.9-0.9,7.3-1.4c1.8-0.4,3.5-1.4,5.4-1.4c2.7,0,5.3,0.9,7.8,1.9c1.2,0.5,2.3,2.6,3.4,1.9c1.3-0.7,0.1-2.9,0-4.3
				c-0.1-1.9-1.7-4.2-0.5-5.8c1.1-1.4,3.7-0.3,5.4-1c2.1-0.8,5-1.3,5.9-3.4c0.6-1.6,1.5-4.8-1.5-4.8s-7.1,0.4-10.3-1
				c-1.8-0.8-3.8-2-4.4-3.9c-1.1-3.7,3.8-7.4,2.9-11.1c-1-4-6.7-5.4-8.3-9.2c-0.9-2.2,0.2-4.9-0.5-7.2c-0.6-1.9-1.9-3.6-2.9-5.3
				c-1.4-2.3-4.3-4.1-4.4-6.7c-0.2-3.8,3.4-9.6,5.4-10.1c2-0.5,4.8-2,4.4-3.9c-0.6-3-5.7-2.8-8.8-2.9c-1.2,0-2.4,1.5-3.4,1
				c-1-0.6-1.2-2.2-1-3.4c0.6-2.5,5.8-3.2,5.4-5.8c-0.3-1.6-2.7-2.3-4.4-2.4c-1.8-0.1-3.5,0.9-4.9,1.9c-2.2,1.6-3.7,4.1-5.4,6.3
				c-0.9,1.1-2.5,2-2.4,3.4c0,1.3,2.5,1.6,2.4,2.9c-0.1,2-3.1,2.7-4.4,4.3c-0.8,1-2.4,2.2-2,3.4c0.5,1.3,2.8,0.7,3.9,1.4
				c1.2,0.8,2.6,1.9,2.9,3.4c0.3,1.5-1.2,2.8-1.5,4.3c-0.1,0.8-0.4,1.7,0,2.4c0.6,0.9,2.6,0.4,2.9,1.4c0.5,1.5-3.2,3.3-2,4.3
				c2.1,1.9,4.6-3.6,7.3-4.3c0.8-0.2,1.8-0.5,2.4,0c1.2,0.9,0.8,2.9,1,4.3c0.2,1.4,0,2.4,0,4.3c0,1.9-0.2,4.5,0,6.7
				c0.2,1.5,1.3,2.9,1,4.3c-0.5,2.1-2.1,4.1-3.9,5.3c-1.5,1-3.6,0.9-5.4,1.4c-1.3,0.4-3.4,0.2-3.9,1.4c-0.8,1.9,2.9,3.7,2.4,5.8
				c-0.4,2-2.5,3.6-4.4,4.3c-2,0.8-5.1-1.7-6.3,0c-0.6,0.8,0.1,2.3,1,2.9c2.7,1.8,6.5-0.8,9.8-0.5c2.5,0.3,5.8,0,7.3,1.9
				c0.8,1,0.2,2.6,0,3.9c-0.2,1-0.2,2.2-1,2.9c-3.4,2.8-9.2,0-13.2,1.9c-3,1.4-8.1,3.5-7.3,6.7C245.7,759.8,247.7,759.6,248.8,759.6
				L248.8,759.6z"/>
			<path id="path7761_00000066482419937875292650000012911895416080421808_" class="st3" d="M220.9,735.1c-1.8-2.7-0.5-7.4,2-9.6
				c2.5-2.3,7-0.4,10.3-1.4c1.4-0.4,3.7-0.5,3.9-1.9c0.2-1.1-1.4-1.9-2.4-2.4c-2.1-1-5.5,0.9-6.8-1c-1.7-2.4-0.4-6.8,2-8.7
				c1.5-1.2,4.1-0.8,5.9,0c1.2,0.5,1.2,2.6,2.4,2.9c1.7,0.4,3.9-0.5,4.9-1.9c1.3-1.9-1.6-5.2,0-6.7c1.5-1.5,4.3-0.4,6.3,0
				c2.3,0.5,5.1,1,6.3,2.9c1.3,2,1.1,5.1,0,7.2c-0.8,1.6-3.6,1.7-4.4,3.4c-1.2,2.5,0.1,5.5,0,8.2c-0.1,2.4,1.1,5.4-0.5,7.2
				c-1.8,2.1-5.5,1.4-8.3,1.9c-4,0.8-8.1,2-12.2,1.9C227,736.9,222.6,737.7,220.9,735.1L220.9,735.1z"/>
			<path id="path7745_00000151540481185833977020000010724083001375118525_" class="st3" d="M286.6,855.8c-1.1,0-2.1,0.7-2.9,1.4
				c-0.7,0.6-1.5,1.5-1.5,2.4c0,1.5,1.3,2.8,2.4,3.9c1.9,1.7,4.4,4.2,6.8,3.4c1.7-0.6,1.7-3.2,2.4-4.8c0.4-0.9,1.4-2,1-2.9
				C293.6,856.4,289.6,855.7,286.6,855.8L286.6,855.8z"/>
			<path id="path7747_00000115472611041805046480000004509098751501922480_" class="st3" d="M338.6,845.6c1.7-1.5,1.1-4.5,1.5-6.7
				c0.3-2.1,1.2-4.3,0.5-6.3c-0.2-0.6-0.8-1.2-1.5-1.4c-1.8-0.7-4.2-1.1-5.9,0c-1.8,1.2-2.1,3.7-2.4,5.8c-0.4,2.4-0.7,5.1,0.5,7.2
				c0.6,1,1.8,1.7,2.9,1.9C335.6,846.4,337.5,846.6,338.6,845.6L338.6,845.6z"/>
			<path id="path7749_00000002381757647409862890000013703113265182439579_" class="st3" d="M339.6,853.7c0.1,1-1.6,1.4-2,2.4
				c-0.6,1.7,0.2,3.5,0,5.3c-0.2,1.3-1,1.9-1,3.9s0.3,3.8-1,4.8c-1.3,1-3.3,0-4.9,0c-1.1,0-3.4,2.4-3.4,0s-0.1-4.2,0-6.3
				c0.1-2.3-0.1-4.6,0.5-6.7c0.6-2.4,1.1-5.1,2.9-6.7c0.9-0.8,2.3-1.2,3.4-1C336.5,849.9,339.3,851.5,339.6,853.7L339.6,853.7z"/>
			<path id="path7755_00000070094841930081808530000007374113925739096731_" class="st3" d="M384.8,877.5c2.1,2.2-0.1,6.1-0.5,9.2
				c-0.2,1.6,0.2,3.7-1,4.8c-1.5,1.5-4.2,1-6.3,1c-2.8,0-5.6-0.7-8.3-1.4c-2.7-0.7-5.8-1-7.8-2.9c-1.4-1.3-1.9-3.4-2.4-5.3
				c-0.4-1.4-1.1-3-0.5-4.3c0.5-1,1.5-1.9,2.9-1.9c1.5,0-2.4-1,5.9,0c8.3,1,6.2,0.8,9.3,1C379,877.7,382.8,875.4,384.8,877.5
				L384.8,877.5z"/>
			<path id="path7757_00000090989605504311677260000010468796353760001950_" class="st3" d="M458.7,891.8c-0.1,3.3-3.8,5.9-6.8,7.2
				c-2.5,1.1-5.5,0-8.3,0c-2.6,0-5.9,2.4-7.8,0c-2-2.4-5-2.7-4.4-4.8c0.7-2.4,4.9-1.3,7.3-1.9c3.1-0.7,6.8-1,9.3-1.9
				c2.4-1,5.3-2.7,7.8-1.9C457.2,888.9,458.7,890.3,458.7,891.8z"/>
			<path id="path7757-8_00000087375927019868308350000014300531557863329170_" class="st3" d="M457.6,913.7
				c-0.1,3.3-3.8,5.9-6.8,7.2c-2.5,1.1-5.5,0-8.3,0c-2.6,0-5.9,2.4-7.8,0c-2-2.4-5-2.7-4.4-4.8c0.7-2.4,4.9-1.3,7.3-1.9
				c3.1-0.7,6.8-1,9.3-1.9c2.4-1,5.3-2.7,7.8-1.9C456.1,910.8,457.7,912.2,457.6,913.7z"/>
			<path id="path7745-1_00000150802993487438225620000008029578131256578960_" class="st3" d="M370.8,897.3c-1.1,0-2.1,0.7-2.9,1.4
				c-0.7,0.6-1.5,1.5-1.5,2.4c0,1.5,1.3,2.8,2.4,3.9c1.9,1.7,4.4,4.2,6.8,3.4c1.7-0.6,1.7-3.2,2.4-4.8c0.4-0.9,1.4-2,1-2.9
				C377.9,898,373.8,897.2,370.8,897.3L370.8,897.3z"/>
			<path id="path7763_00000036216581045674090490000018228998753460943034_" class="st3" d="M386.5,691.1c-1.5,2.5-0.8,5.9,0,8.7
				c0.3,0.9,0.5,2.3,1.5,2.4c1.7,0.2,2.7-2.3,3.4-3.9c1.2-2.5,1.6-5.4,1.5-8.2c0-0.7,0.1-1.7-0.5-1.9
				C390.4,687.3,387.6,689.3,386.5,691.1L386.5,691.1z"/>
			<path id="path7769_00000085958737748147053300000018298159426015055526_" class="st3" d="M345.9,713.7c-0.9,1.9-0.5,4.7,1,6.3
				c0.6,0.6,1.6,0.7,2.4,0.5c1.1-0.3,2-1.4,2.4-2.4c0.6-1.3,0.5-3,0-4.3c-0.3-1-0.9-2.2-2-2.4C348.3,711,346.5,712.3,345.9,713.7
				L345.9,713.7z"/>
			<path id="path7769-0_00000132809263415525331060000005656527424093457337_" class="st3" d="M355.7,713.7c-0.9,1.9-0.5,4.7,1,6.3
				c0.6,0.6,1.6,0.7,2.4,0.5c1.1-0.3,2-1.4,2.4-2.4c0.6-1.3,0.5-3,0-4.3c-0.3-1-0.9-2.2-2-2.4C358.1,711,356.3,712.3,355.7,713.7
				L355.7,713.7z"/>
			<path id="path5532_00000108290645018397547760000009500020595372042896_" class="st3" d="M215.3,905.1c-1.4-4.7-4.3-9.5,9.8-14.2
				c12.5-0.7,20.3,1.1,19.7,7.7c-2.9,5.5-5.2,8.1-8.8,9.8C224.4,907.3,221.7,906.2,215.3,905.1L215.3,905.1z"/>
			<path id="path5536_00000061435321599981792970000013689557018396549039_" class="st4" d="M458.1,1125
				c98.5,43.8,454.5,14.6,475.3-349.5c9.7-169.8-139.3-413.3-478.5-358.2l1.1,153.1l0.5,0.1c0.3-5-37.7-9.4-37.3-4.4
				c-0.8-2-3.7-3.2-3.6-5.4c0-1,1.4-1.5,1.8-2.4c0.6-1.2,1.7-2.9,0.8-4c-0.5-0.7-1.4-0.8-2.4-0.8l0,0c-1,0.1-2,0.4-2.9,0.6
				c-1.9,0.5-3.5,1.6-5.1,2.7l0.4,0.1l-5,4.4l0.9,6.5l-5.9-3.3l-2.6,1.2c-2,1.5-3.9,3-5.9,4.4c-2.5,1.8-5.3,3.1-7.5,5.2
				c-5.4,5-9.9,11.1-14,17.2c-2,3-4.4,5.9-5.3,9.4c-0.5,1.7,0.8,3.8,0,5.4c-0.8,1.4-3.7,1.2-4,2.8c-0.3,1.1,1.6,2,1.6,3
				c0,1,0.8,3.4,0.8,4.2c0,0.8-2.5,0.3-3.2,1.2c-0.3,0.4-0.2,1.1-0.2,1.6c0.1,1,1.4,2,0.8,2.8c-1,1.3-3.6-0.8-5.1,0
				c-2.8,1.5-3,5.5-5.1,7.8c-2.6,2.8-6.1,4.6-9.1,7c-4.5,3.6-11.1,5.7-13.2,11c-0.5,1.3,1.4,3,0.6,4.2c-0.5,0.7-1.9,0.2-2.4,0.8
				c-1.3,1.4-0.8,3.7-1,5.6c-0.1,1.6-1.2,3.7,0,4.8c1.2,1.2,4-1.3,5.1,0c0.4,0.5-0.2,1.2-0.4,1.8c-0.3,1-0.5,2.1-1,3
				c-0.3,0.4-0.7,0.7-1,1c-0.5,0.4-1.5,0.6-1.6,1.2c-0.2,0.8,0.6,1.5,1.2,2c0.7,0.5,2-0.1,2.5,0.6c0.9,1.3-0.9,3-0.8,4.6
				c0.1,1.6-0.2,3.8,1.2,4.6c1.9,1.1,4.5-0.6,6.3-1.8c0.8-0.5,1.2-1.5,1.8-2.2c0.7-0.8,1.3-1.7,2-2.4c1.7-1.6,4-2.5,5.5-4.2
				c1.3-1.5,0.8-5.3,2.8-5.2c1.4,0.1,1.2,2.5,1.6,3.8c0.4,1.1,0.4,2.3,1,3.2c0.7,1.2,2.3,1.7,3,2.8c2.1,3.1,2.7,6.9,4.1,10.4
				c0.7,1.8,1.3,3.6,2,5.4c1,2.4,2.6,5.6,3.1,7c0.4,1.4,2.1,2.3,2.6,3.8c0.6,1.8,0.2,5,0.2,5.8c0,0.8,0.2,1.4,0.8,1.6
				c0.9,0.3,1.9-0.7,2.5-1.4c1.2-1.6,0.7-4,1.6-5.8c0.4-0.8,1.1-1.5,1.8-2.2c1.1-1.1,2.8-1.6,3.7-2.8c0.8-1.1,1-2.5,1.2-3.8
				c0.5-3.1,0.1-6.3,0-9.4c-0.1-1.8-1.1-3.8-0.4-5.4c0.5-1.1,1.9-1.4,2.8-2.2c1-0.8,1.9-1.8,2.8-2.6c0.7-0.6,1.6-1.1,2.2-1.8
				c1-1.1,2.2-2.2,2.6-3.6c0.3-1,0.7-2.2,0-3c-0.3-0.4-1.1,0.2-1.4-0.2c-0.2-0.3,0.1-0.8,0.2-1.2c0.1-0.5,0.2-1.1,0.2-1.6
				c0-0.5,0-1.1-0.4-1.4c-1.1-0.9-3.1,0.2-4.3-0.6c-1.2-0.8-1.7-2.3-2.2-3.6c-0.4-1.1-0.6-2.2-0.6-3.4c0-1.4,0.6-2.7,0.8-4
				c0.2-1.5-0.2-3.1,0.2-4.6c0.4-1.5,1.5-2.7,2-4.2c0.4-1,0.4-2,0.8-3c0.5-1.3,1.3-2.5,2-3.6c0.9-1.4,2.1-2.6,3-4
				c0.6-0.9,1.2-1.8,1.6-2.8c0.4-1.1,0.3-2.3,0.8-3.4c0.4-0.8,1-1.5,1.6-2.2c0.8-1,2.2-1.7,2.6-3c0.3-0.8,0.2-1.7-0.2-2.4
				c-0.2-0.3-0.6-0.3-0.8-0.6c-0.6-0.9-0.7-2-0.6-3c0.1-0.9,0.7-1.7,1.2-2.4c0.9-1.5,2.5-2.6,3.2-4.2c0.4-0.9,0.4-1.9,0.8-2.8
				c0.3-0.6,0.7-1,1-1.6c0.7-1.5,0.3-3.6,1.6-4.6c1-0.8,2.5-0.2,3.7-0.4c0.7-0.1,1.3-0.8,2-0.6c2,0.6,2.8,3.2,3.9,5
				c1.2,1.9,2.8,3.8,3.2,6c0.3,1.6,0,3.2-0.4,4.8c-0.8,3.6-2.5,7-4.1,10.4c-1.1,2.5-2.1,5-3.6,7.2c-1.5,2.1-4.2,3.3-5.3,5.6
				c-1.5,3.3-1.8,7.2-1.2,10.8c0.9,5.2,2.6,11.2,6.9,14.4c2.3,1.7,5.7,2.4,8.5,1.6c2.7-0.8,3.8-4.1,6.1-5.6c2.8-1.9,6-3.6,9.3-4.4
				c1.7-0.4,3.5-0.2,5.3,0c3.1,0.4,6.6,0.4,8.9,2.4c1,0.9,1.4,2.3,1.6,3.6c0.3,1.3,0.7,2.9,0,4c-2,3.5-6.7,4.7-10.6,6
				c-1.7,0.6-3.5,0.6-5.3,0.8c-4,0.4-9.7-2.8-12.2,0.4c-0.7,0.9,0.3,2.2,0.8,3.2c1,1.9,3.3,2.9,4.1,4.8c0.6,1.8-0.4,3.6,0,5.6
				c0.4,2,2.3,1.5,3.2,2.4c1.9,1.9,6.1,4,4.9,6.4c-0.5,1.1-2.5,0.3-3.7,0c-1.5-0.3-2.6-1.6-4-2c-2.2-0.7-4.6-0.9-6.9-0.8
				c-2.6,0.1-6-0.7-7.7,1.2c-1.7,1.9-0.6,5.1-0.4,7.6c0.3,3,0.6,6.2,2,8.8c1.4,2.6,5.3,3.6,6.1,6.4c0.3,1.2-0.3,2.5-0.8,3.6
				c-1.1,2.3-2.9,4.3-4.9,6c-1.7,1.5-3.5,3.2-5.7,3.6c-3,0.5-5.9-1.5-8.9-2c-4.4-0.8-8.9-1.9-13.4-1.6c-5.6,0.3-14.6,4-16.2,4
				s-6.9,2-8.5,2c-1.6,0-3.6,1.9-5.3,1.2c-3.2-1.3-4.1-5.6-5.3-8.8c-1-2.7-1.9-5.6-1.6-8.4c0.2-2.3,1.8-4.2,2.4-6.4
				c0.7-2.4,2-4.8,1.6-7.2c-0.3-2-1.1-4.3-2.8-5.2c-1.7-0.9-4.2-0.3-5.7,0.8c-2.4,1.8-3.3,5.1-3.6,8c-0.3,2.4,1.1,4.8,1.6,7.2
				c0.6,3.2,0.6,6.5,1.6,9.6c1.2,3.7,6.3,6.7,5.3,10.4c-0.4,1.4-2.7,1.3-3.7,2.4c-1.5,1.6-1.4,4.5-3.2,5.6c-1.6,1-3.8,0.3-5.7,0.4
				c-1.2,0-2.5,0.3-3.7,0c-2.4-0.5-4.9-5-6.5-3.2c-1.5,1.7,4.4,3.3,4,5.6c-0.3,1.8-3,2.1-4.5,3.2c-3,2.1-5.7,4.7-8.9,6.4
				c-1.9,1-4.6,2-7.7,3c-5.3,2.1-8.7,4.9-16.2,6.1c0,0-0.1,0.1-0.2,0.1c-2.3,0.9-6.2,2.1-8.3,3.2c-2.7,1.5-4.9,4-7.7,5.2
				c-1.1,0.5-2.4,1-3.7,0.8c-2.3-0.4-3.8-3-6.1-3.6c-1.4-0.4-3-0.2-4.5,0c-1,0.1-2.1,0.2-2.8,0.8c-1.4,1.1-2.5,3-2.4,4.8
				c0.1,1,1,1.7,1.6,2.4c1.5,1.7,3.5,3,5.3,4.4c2.4,1.9,5.3,3.3,7.3,5.6c0.7,0.8,1.2,1.8,1.6,2.8c1.2,2.7,2.5,5.5,2.8,8.4
				c0.2,1.7-0.4,3.6-0.4,5.2c0,1.6-0.1,4.4-0.8,6.4c-1,2.9-2.9,5.6-4.9,8c-1.9,2.3-3.7,5.2-6.5,6c-1.5,0.4-3-0.4-4.5-0.8
				c-2.3-0.7-4.3-1.9-6.5-2.8c-2.7-1.1-5.4-2.3-8.1-3.2c-1.9-0.6-3.8-1.1-5.7-1.6c-3.6-1-7.2-2.4-11-2.8c-2.4-0.2-4.9,0.1-7.3,0.4
				c-1.4,0.2-3.5-0.4-4.1,0.8c-0.9,1.9,2.8,3.5,2.8,5.6c0.1,2-1.2,4-2.4,5.6c-1.3,1.6-3.8,1.9-4.9,3.6c-0.5,0.9-0.2,2.2-0.4,3.2
				c-0.5,2.2-0.8,4.6-2,6.4c-0.6,0.9-1.6,1.4-2.4,2c-1.6,1.2-3.8,1.9-4.9,3.6c-1.9,2.7-1.8,6.4-2.4,9.6c-0.2,0.9-0.3,1.9-0.4,2.8
				c-0.4,2.4-0.9,4.8-1.2,7.2c-0.2,1.5-1.1,3.1-0.4,4.4c1.9,3.9,10.1,5.6,11,7.2c0.8,1.6,3.7,4.1,6.1,5.6c1.2,0.8,2.6,1.3,4.1,1.6
				c2.8,0.7,5.7,0.7,8.5,0.8c3.6,0.2,7.3,0,11,0c4.9,0.1,9.9,1.7,14.6,0.4c2.3-0.7,3.9-2.9,6.1-4c1.8-1,3.9-1.3,5.7-2.4
				c2-1.2,3.3-4,5.3-4.4c2-0.4,0.4-3.2,0.4-4.8c0-2.1-0.9-4.3-0.4-6.4c0.5-2.1,2-3.8,3.2-5.6c1.2-1.8,2.2-4.1,4.1-5.2
				c1.4-0.8,2.8,0,4.9-0.8c2-0.8,4.2-2.8,6.5-4c1.8-0.9,3.8-1.7,5.7-2.4c1.5-0.6,3.6-0.3,4.5-1.6c1-1.6-0.5-3.7-0.4-5.6
				c0.1-1.9-0.2-4.3,1.2-5.6c2.1-1.9,5.7-0.7,8.5-0.8c2.2,0,4.3,0.7,6.5,0.4c3.9-0.5,8.1-1.4,11.4-3.6c1.6-1.1,2.3-3,3.7-4.4
				c2.1-2.2,3.9-5.3,6.9-6c2.2-0.5,5.1-0.1,6.5,1.6c1.4,1.8-0.9,4.7,0,6.8c0.4,1,1.6,1.6,2.4,2.4c0.8,0.8,1.6,1.6,2.4,2.4
				c1.2,1.2,2.5,2.3,3.7,3.6c1.2,1.4,2.1,3,3.2,4.4c1.1,1.4,1.9,2.9,3.2,4c1.4,1.1,3.5,1.3,4.9,2.4c1.7,1.4,2.3,3.9,4,5.2
				c1.5,1.1,3.5,1.3,5.3,2c1,0.4,2,0.6,2.8,1.2c0.8,0.5,1.3,1.4,2,2c1.4,1.3,2.9,2.5,4.5,3.6c2.3,1.5,5.1,2.4,7.3,4
				c1.6,1.2,3.6,2.2,4.5,4c0.5,1.1,0.1,2.4,0,3.6c-0.2,1.6-0.9,3.2-1.2,4.8c-0.3,1.5-1.8,3.3-0.8,4.4c0.5,0.6,1.6,0,2.4,0
				c2,0,2.1-1.2,2.8-2c1.6-1.7,3.2-3.7,3.7-6c0.3-1.6-0.1-3.4-0.8-4.8c-0.5-1-1.9-1.4-2.4-2.4c-0.6-1.3-1.2-3.2-0.4-4.4
				c0.5-0.7,1.6-0.9,2.4-0.8c1,0.1,1.5,1.3,2.4,1.6c2.4,0.9,5.7,2.4,7.7,0.8c0.8-0.6,0.8-2,0.4-2.8c-1.5-3-5.8-3.4-8.9-4.8
				c-2.4-1.1-5.3-1.2-7.3-2.8c-2.1-1.6-2.3-4.9-4.5-6.4c-2.9-1.9-7.1-0.7-10.2-2.4c-2.7-1.5-5-3.7-6.5-6.4c-1.3-2.4-0.2-5.7-1.6-8
				c-0.1-0.1,0.2-1.3-0.1-2.7c-1.8-1.9-1.6-1.2-3.4-2.2c-1.2-1.4-2.3-3.4-2.4-3.7c-1.3-1.9-3.2-1.1-3.1-3.4c0.1-1.7,1.7-2.9,2.4-4.4
				c1.1-2.2,0.7-5.6,2.8-6.8c1.9-1.1,4.4,0.1,6.5,0.8c1.5,0.5,2.6,1.8,4.1,2.4c1.9,0.9,4.4,0.7,6.1,2c0.6,5.2,0.2,6.6,3.3,4.7
				c0.8,1.6,1.4,3.4,2.4,4.9c0.9,1.5,1.6,3.2,2.8,4.4c1.5,1.3,3.6,1.8,5.3,2.8c3.6,2.2,7.1,4.7,10.5,7.2c2.8,2,7,3.2,8.1,6.4
				c0.5,1.6-1.3,3.2-1.2,4.8c0.1,2.4,1.6,4.6,2.4,6.8c0.7,1.7,1.3,3.5,2,5.2c0.9,1.9,1.7,3.9,2.8,5.6c1.8,2.7,6.1,5.6,6.5,7.2
				c0.4,1.6-1.1,1.9-0.8,2.8c0.5,1.8,3.3,2.3,4.1,4c0.6,1.5-0.6,3.3,0,4.8c0.9,2.1,2.7,4.1,4.9,4.8c2.4,0.9,5.4,0.4,7.7-0.8
				c1.5-0.8,2.6-2.4,3.2-4c0.5-1.1,0.3-2.4,0.4-3.6c0.1-1.6,0.5-3.3,0-4.8c-0.5-1.7-2.1-2.8-2.8-4.4c-0.9-1.9-1.2-4-2-6
				c-0.7-1.8-2.3-3.3-2.5-5.2c-0.2-1.8-0.4-4.5,1.2-5.2c1.5-0.6,2.5,2.5,4.1,2.4c1.6-0.2,2.3-2.3,3.6-3.2c2-1.3,4.7-1.7,6.5-3.2
				c0.9-0.7,0.9-2.5,2-2.8c1.1-0.3,4.9,0.2,4.5-1.2L458.1,1125z"/>
			<path id="path3019_00000106860134932140332000000007330794630524258183_" class="st5" d="M276.1,614.8l-7.1-4l-7.4,3.4l1.7-7.7
				l-5.6-5.7l8.1-0.8l3.9-6.9l3.3,7.2l8,1.5L275,607L276.1,614.8z"/>
			<path id="path3019-8_00000047021928874230069730000008942901628416685215_" class="st5" d="M307.8,571.5l-7.1-4l-7.4,3.4l1.7-7.7
				l-5.6-5.7l8.1-0.8l3.9-6.9l3.3,7.2l8,1.5l-6.1,5.3L307.8,571.5z"/>
			<path id="path3019-3_00000025439052887473964430000012229316514598340524_" class="st5" d="M337.2,546.8l-7.1-4l-7.4,3.4l1.7-7.7
				l-5.6-5.7l8.1-0.8l3.9-6.9l3.3,7.2l8,1.5l-6.1,5.3L337.2,546.8z"/>
			<path id="path3019-6_00000085227350697292662800000009365881792813015191_" class="st5" d="M367.3,518.1l-7.1-4l-7.4,3.4l1.7-7.7
				l-5.6-5.7l8.1-0.8l3.9-6.9l3.3,7.2l8,1.5l-6.1,5.3L367.3,518.1z"/>
			<path id="path3019-2_00000066483553087332089330000016343565052459039399_" class="st5" d="M397.5,500.4l-7.1-4l-7.4,3.4l1.7-7.7
				l-5.6-5.7l8.1-0.8l3.9-6.9l3.3,7.2l8,1.5l-6.1,5.3L397.5,500.4z"/>
			<path id="path3019-30_00000147215295421463563620000012298222242681949578_" class="st5" d="M428.4,487.2l-7.1-4l-7.4,3.4
				l1.7-7.7l-5.6-5.7l8.1-0.8l3.9-6.9l3.3,7.2l8,1.5l-6.1,5.3L428.4,487.2z"/>
			<path id="path3019-5_00000176044361747661393970000014115871490093613244_" class="st5" d="M276.1,928.8l-7.1-4l-7.4,3.4l1.7-7.7
				l-5.6-5.7l8.1-0.8l3.9-6.9l3.3,7.2l8,1.5L275,921L276.1,928.8z"/>
			<path id="path3019-0_00000097502268931161430660000013303970573231909262_" class="st5" d="M307.8,970.6l-7.1-4l-7.4,3.4l1.7-7.7
				l-5.6-5.7l8.1-0.8l3.9-6.9l3.3,7.2l8,1.5l-6.1,5.3L307.8,970.6z"/>
			<path id="path3019-31_00000040567896279236527810000003682263022997097884_" class="st5" d="M334.1,1003.9l-7.1-4l-7.4,3.4
				l1.7-7.7l-5.6-5.7l8.1-0.8l3.9-6.9l3.3,7.2l8,1.5L333,996L334.1,1003.9z"/>
			<path id="path3019-35_00000176729379840663637640000016047962451998439296_" class="st5" d="M367.3,1032.5l-7.1-4l-7.4,3.4
				l1.7-7.7l-5.6-5.7l8.1-0.8l3.9-6.9l3.3,7.2l8,1.5l-6.1,5.3L367.3,1032.5z"/>
			<path id="path3019-9_00000054248033759058649290000001840469370668387512_" class="st5" d="M399.8,1056.5l-7.1-4l-7.4,3.4
				l1.7-7.7l-5.6-5.7l8.1-0.8l3.9-6.9l3.3,7.2l8,1.5l-6.1,5.3L399.8,1056.5z"/>
			<path id="path3019-22_00000016772843582630433730000001067361714439768747_" class="st5" d="M428.4,1071.9l-7.1-4l-7.4,3.4
				l1.7-7.7l-5.6-5.7l8.1-0.8l3.9-6.9l3.3,7.2l8,1.5l-6.1,5.3L428.4,1071.9z"/>
			<path id="rect3882-67_00000134963977557845069560000013456617704605661606_" class="st5" d="M418.4,898.6h0.7
				c1,0,1.7,0.8,1.7,1.7v130.3c0,1-0.8,1.7-1.7,1.7h-0.7c-1,0-1.7-0.8-1.7-1.7V900.3C416.6,899.4,417.4,898.6,418.4,898.6z"/>
			<path id="rect3882-67-8_00000008848480689752589620000001601692159948230077_" class="st5" d="M388.2,896.3h0.7
				c1,0,1.7,0.8,1.7,1.7v114.1c0,1-0.8,1.7-1.7,1.7h-0.7c-1,0-1.7-0.8-1.7-1.7V898C386.5,897.1,387.2,896.3,388.2,896.3z"/>
			<path id="rect3882-67-5_00000160191028054681697920000015803604088805736624_" class="st5" d="M358.8,896.3h0.7
				c1,0,1.7,0.8,1.7,1.7v95.5c0,1-0.8,1.7-1.7,1.7h-0.7c-1,0-1.7-0.8-1.7-1.7V898C357.1,897.1,357.9,896.3,358.8,896.3z"/>
			<path id="rect3882-67-4_00000011734982412398241430000002012908937397780140_" class="st5" d="M328.6,895.5h0.7
				c1,0,1.7,0.8,1.7,1.7v66.9c0,1-0.8,1.7-1.7,1.7h-0.7c-1,0-1.7-0.8-1.7-1.7v-66.9C326.9,896.3,327.7,895.5,328.6,895.5z"/>
			<path id="rect3882-67-2_00000100341520076131099960000007307111659559907259_" class="st5" d="M298.5,896.3h0.7
				c1,0,1.7,0.8,1.7,1.7v33.7c0,1-0.8,1.7-1.7,1.7h-0.7c-1,0-1.7-0.8-1.7-1.7V898C296.7,897.1,297.5,896.3,298.5,896.3z"/>
			<path id="rect3882-67-53_00000140696205468708085860000015793067774149322926_" class="st5" d="M269.1,938.8h0.7
				c1,0,1.7,0.8,1.7,1.7v57.6c0,1-0.8,1.7-1.7,1.7h-0.7c-1,0-1.7-0.8-1.7-1.7v-57.6C267.4,939.6,268.1,938.8,269.1,938.8z"/>
			<path id="rect3882-67-6_00000045605323425437176150000004268824037681387168_" class="st5" d="M299.3,979h0.7
				c1,0,1.7,0.8,1.7,1.7v49.1c0,1-0.8,1.7-1.7,1.7h-0.7c-1,0-1.7-0.8-1.7-1.7v-49.1C297.5,979.8,298.3,979,299.3,979z"/>
			<path id="rect3882-67-7_00000038381044817587514200000012854627810381281973_" class="st5" d="M328.6,1010h0.7
				c1,0,1.7,0.8,1.7,1.7v42.9c0,1-0.8,1.7-1.7,1.7h-0.7c-1,0-1.7-0.8-1.7-1.7v-42.9C326.9,1010.8,327.7,1010,328.6,1010z"/>
			<path id="rect3882-67-3_00000138567784038786657600000015486271744900719007_" class="st5" d="M361.1,1040.1h0.7
				c1,0,1.7,0.8,1.7,1.7v30.6c0,1-0.8,1.7-1.7,1.7h-0.7c-1,0-1.7-0.8-1.7-1.7v-30.6C359.4,1040.9,360.2,1040.1,361.1,1040.1z"/>
			<path id="rect3882-67-0_00000085929792132454973410000004909548419714711212_" class="st5" d="M390.5,1061.8h0.7
				c1,0,1.7,0.8,1.7,1.7v29.8c0,1-0.8,1.7-1.7,1.7h-0.7c-1,0-1.7-0.8-1.7-1.7v-29.8C388.8,1062.6,389.6,1061.8,390.5,1061.8z"/>
			<path id="rect3882-67-87_00000104667325048069686020000010967465883429555079_" class="st5" d="M419.9,1078.8h0.7
				c1,0,1.7,0.8,1.7,1.7v24.4c0,1-0.8,1.7-1.7,1.7h-0.7c-1,0-1.7-0.8-1.7-1.7v-24.4C418.2,1079.6,418.9,1078.8,419.9,1078.8z"/>
			<path id="rect3882-67-06_00000070832314816284556570000005360662349407085205_" class="st5" d="M328.7,554.2h0.7
				c1,0,1.7,0.8,1.7,1.7v75.8c0,1-0.8,1.7-1.7,1.7h-0.7c-1,0-1.7-0.8-1.7-1.7v-75.8C327,554.9,327.8,554.2,328.7,554.2z"/>
			<path id="rect3882-67-00_00000107547053255296266450000014115408437381339025_" class="st5" d="M300.4,579.6h0.7
				c1,0,1.7,0.8,1.7,1.7V632c0,1-0.8,1.7-1.7,1.7h-0.7c-1,0-1.7-0.8-1.7-1.7v-50.7C298.7,580.4,299.4,579.6,300.4,579.6z"/>
			<path id="rect3882-67-63_00000147187295812143212430000009632563337391558284_" class="st5" d="M269.9,616.7h0.7
				c1,0,1.7,0.8,1.7,1.7v14.7c0,1-0.8,1.7-1.7,1.7h-0.7c-1,0-1.7-0.8-1.7-1.7v-14.7C268.1,617.5,268.9,616.7,269.9,616.7z"/>
			<path id="rect3882-67-69_00000096760129875695192340000000468494202778903221_" class="st5" d="M270.3,543.2h0.7
				c1,0,1.7,0.8,1.7,1.7v29.8c0,1-0.8,1.7-1.7,1.7h-0.7c-1,0-1.7-0.8-1.7-1.7V545C268.5,544,269.3,543.2,270.3,543.2z"/>
			<path id="rect3882-67-694_00000021819325239338433670000001183873907626057649_" class="st5" d="M300.8,504.5h0.7
				c1,0,1.7,0.8,1.7,1.7v24c0,1-0.8,1.7-1.7,1.7h-0.7c-1,0-1.7-0.8-1.7-1.7v-24C299.1,505.3,299.8,504.5,300.8,504.5z"/>
			<path id="rect3882-67-694-6_00000146463478753128165880000004184509385227106447_" class="st5" d="M329,483.1h0.7
				c1,0,1.7,0.8,1.7,1.7v24c0,1-0.8,1.7-1.7,1.7H329c-1,0-1.7-0.8-1.7-1.7v-24C327.3,483.9,328.1,483.1,329,483.1z"/>
			<path id="rect3882-67-694-2_00000023241056260508933900000008103202138451406247_" class="st5" d="M361.1,456.8h0.7
				c1,0,1.7,0.8,1.7,1.7v24c0,1-0.8,1.7-1.7,1.7h-0.7c-1,0-1.7-0.8-1.7-1.7v-24C359.4,457.6,360.2,456.8,361.1,456.8z"/>
			<path id="rect3882-67-694-7_00000134966041683685229190000012489091505381137832_" class="st5" d="M389,440.9h0.7
				c1,0,1.7,0.8,1.7,1.7v21.3c0,1-0.8,1.7-1.7,1.7H389c-1,0-1.7-0.8-1.7-1.7v-21.3C387.2,441.7,388,440.9,389,440.9z"/>
			<path id="rect3882-67-694-28_00000105409254917149592170000001557848284136126377_" class="st5" d="M421.8,429.3h0.7
				c1,0,1.7,0.8,1.7,1.7v19.3c0,1-0.8,1.7-1.7,1.7h-0.7c-1,0-1.7-0.8-1.7-1.7v-19.3C420.1,430.1,420.9,429.3,421.8,429.3z"/>
			<path id="rect3882-67-694-64_00000038372619005418887930000015556377626581915018_" class="st5" d="M419.5,496.6h0.7
				c1,0,1.7,0.8,1.7,1.7v49.5c0,1-0.8,1.7-1.7,1.7h-0.7c-1,0-1.7-0.8-1.7-1.7v-49.5C417.8,497.4,418.6,496.6,419.5,496.6z"/>
			<path id="rect3882-67-694-26_00000032646645024364828740000008576630842016412293_" class="st5" d="M389.7,509h0.7
				c1,0,1.7,0.8,1.7,1.7V549c0,1-0.8,1.7-1.7,1.7h-0.7c-1,0-1.7-0.8-1.7-1.7v-38.3C388,509.8,388.8,509,389.7,509z"/>
			<path id="rect3882-67-694-1_00000115510714613356991700000016098265566657307548_" class="st5" d="M361.9,529.1h0.7
				c1,0,1.7,0.8,1.7,1.7v49.9c0,1-0.8,1.7-1.7,1.7h-0.7c-1,0-1.7-0.8-1.7-1.7v-49.9C360.2,529.9,360.9,529.1,361.9,529.1z"/>
			<path id="path9175_00000123399114230592457890000000998235092677144709_" class="st5" d="M746.9,952.9c-11.7,0-21,8.7-22,21.2
				c-0.7,14.7,7.3,23.1,16.2,23.3c9.8-0.1,17.5-5.5,21-20.8C761.5,976.3,765,956.5,746.9,952.9L746.9,952.9z M744.2,955.4
				c0.7,0,1.4,0,2.1,0.1c11.4,5.6,9.6,10.2,9.6,20.3c-1.8,8.8-5.2,20.1-15,18.4c0,0-13-0.6-10.1-21.1
				C733.3,962,737.6,955.6,744.2,955.4L744.2,955.4z"/>
			<path id="path7994-4_00000159470781315597651840000010946977324217507755_" class="st5" d="M625.1,962.4l0-5.2l0.1-3.8
				c0-0.6-30.6-0.3-30.6-0.3s-1,0.8-1.2,1.4c-0.1,0.6,0.1,1.3,0.6,1.8c0.5,0.5,2.1,0.5,2.1,0.5l3.3-0.2c0,0-0.8,23-5,33.6
				c-0.3,0.7-0.8,1.4-1.4,1.9c-0.5,0.5-1.1,0.7-1.7,1.1c-1.2,0.6-4,0.5-3.7,1.8c0.4,1.7,3.7,0.3,5.6,0.4c2.3,0.1,6.8,0.2,6.8,0.2
				h6.6l7.6,0.4l5.2-0.4l3.5-2.1c0,0,0.7-2,1-3c0.3-1,0.9-2,0.8-3c-0.1-0.7-0.4-1.4-1-1.8c-0.3-0.2-0.9-0.2-1.2,0
				c-1.3,0.9-0.2,3.2-1.2,4.4c-0.6,0.8-2.5,1.6-2.5,1.6l-2.5,1.1l-5.4,0.7h-7.6l-1.5-0.7l-1.5-1.8l0.8-4.1l2.1-11.3l1.9-0.7h9.3
				l0.8,0.7v4.8l1.4,1.2l1.4-1.2l-0.4-6.7l2.5-4.9l-1-1.6h-0.8l-1.7,2.6l-1.4,1.6l-1.7,0.7l-5,0.5h-2.9l-1.4-0.4l2.9-15.9l5-0.7h5.6
				l3.5,0.2l1,2.1l0.5,4.6C623.3,963.2,624.2,962.8,625.1,962.4L625.1,962.4z"/>
			<path id="path7996_00000132053934165194162410000000057382306164317579_" class="st5" d="M635.3,953.8l6.8,0.2l5.8-0.1h3.1
				l0.4,0.7l-0.2,0.7c0,0-0.5,0.1-0.9,0.1h-1.3l-2.1,0.4l-1.2,0.7l-0.2,0.4l-0.4,2.2l-3.8,23.4l-0.3,3.4l0.1,2.8l1.1,2.1l3.7,2.1
				l5.3,0.4l4.3-0.9l2.6-2.1l2.2-2.5l1.6-3.9l1.3-6.5l1.6-8.9l0.9-4.4c0-2.1,0-2.2,0.1-3.4l0.1-2.2l-0.1-1.4l-0.1-1.2l-1-0.4h-2
				l-1.1-0.3l-0.2-0.9l0.1-0.7l1-0.1l4.2,0.1l4.9,0.1l2.4,0.1l0.1,1.1l-0.3,0.6c-0.8-0.1-1.5,0-2.3,0.1c-1.4,0.3-1.4,1.7-2.1,2.6
				l-2,7.9l-3.7,18.8l-3.1,6.7c-2,2.2-4.3,3.2-6.7,3.7c-2.7,0.6-5.5,0.9-8.2,0.6c-2.9-0.3-5.2-1.3-7.4-2.6c-1.5-1.2-2.5-3-3.5-5
				c0.2-4.8,0.5-9.5,1.2-14.1l2.7-16c0.4-1.5,0.1-2.4-0.8-2.6l-3.5-0.2l-0.1-0.9L635.3,953.8z"/>
			<path id="path9170_00000072969332658259606920000016930189801164811399_" class="st5" d="M686.8,953.8c-0.7,0.5-1.1,1-0.8,1.9
				l4,1.1l-5.5,34.4c0,0.3,0.1,0.7-0.1,0.9c-0.2,0.2-0.3,0.1-0.8,0.3c-1,0.4-2.7,1.2-3.6,1.9c-0.3,0.2,0.2,1.1,0.6,1.1
				c6.8,1.2,15.5,0,15.8,0.3l0.3-1.4l-5-1c-0.6-0.1-1.3-1-1.2-1.7c1.4-5.7,2.6-17,4-17.2l2.2,0.9c1.2,0.6,1.5,1,1.7,1
				c0,0,4.2,14.6,10.5,18.5c2.4,1.5,5.9,1.7,8.6,0.9c0.6-0.2,1.5-0.6,1.4-1.1c-0.1-0.6-1.3-0.5-2-0.8l-4.4-1.7l-9.2-17.1
				c12.7-5.9,13.1-15.6,3.4-20.5L686.8,953.8L686.8,953.8z M696.3,995.7L696.3,995.7C696.3,995.7,696.3,995.7,696.3,995.7z M700,956
				c0.8,0,1.6,0.1,2.1,0.1c1.4,0,2.8,0,4,0.8c1.3,0.9,1.9,2.2,2.2,3.6c0.3,1.5,0,3-0.3,4.5c-0.4,1.8-0.7,3.8-1.8,5.3
				c-1,1.2-2.4,2.2-4,2.7c-1.4,0.5-2.9,0.5-4.4,0.4c-1-0.1-3,0.3-2.9-0.6c0.7-6.5,2.7-14.4,2.6-15.9
				C697.5,956.1,698.7,955.9,700,956z"/>
			<path id="path6400_00000018228326998001598180000014212986022533436564_" class="st5" d="M557.7,1007.7c0.9,5.4,5.8,4.5,6.2,0
				l6.2-22c4.7-11.1-2.7-10.2-5.8-5.4c-45.7-4.9-62.8,1.7-69.2,6.2c-21.4,15.1-26.4,30.9-25.9,47.2c0.9,32.6,27.5,40.4,39.8,42.9
				c8.5,1.8,22.9,1.7,34.4-0.8c4.6-1,7.4-3,10.4-6.6c5.9-7,10.4-25.9,10.4-25.9c-1.6-3.5-4-2.8-6.6-1.2
				c-5.6,12.6-14.2,25.8-25.5,25.9c0,0-35.6,2.5-39.8-32.5c-3.5-28.9,19.7-48.7,41.4-50.7c24.5-2.2,24.4,13.1,24.4,13.1
				L557.7,1007.7z"/>
			<path id="path7994-4-8_00000122682953460062217170000005426827765363509691_" class="st5" d="M623.7,1023.4l-0.1-7.8l0.1-5.7
				c0-0.9-48-0.5-48-0.5s-1.6,1.2-1.8,2.1c-0.2,0.9,0.2,2,0.9,2.6c0.8,0.7,3.3,0.8,3.3,0.8l5.2-0.3c0,0-1.2,34.2-7.9,50
				c-0.5,1.1-1.2,2.1-2.1,2.9c-0.8,0.7-1.8,1.1-2.7,1.6c-1.9,1-6.2,0.8-5.8,2.6c0.6,2.5,5.9,0.4,8.8,0.5c3.5,0.1,10.6,0.3,10.6,0.3
				h10.3l11.8,0.5l8.2-0.5l5.5-3.1c0,0,1.1-3,1.5-4.5c0.5-1.5,1.4-2.9,1.2-4.5c-0.1-1-0.6-2.1-1.5-2.6c-0.5-0.3-1.3-0.3-1.8,0
				c-2,1.4-0.4,4.7-1.8,6.5c-0.9,1.1-3.9,2.4-3.9,2.4l-3.9,1.6l-8.5,1h-11.8l-2.4-1l-2.4-2.6l1.2-6l3.3-16.8l3-1h14.6l1.2,1v7.1
				l2.1,1.8l2.1-1.8l-0.6-10l3.9-7.3l-1.5-2.4h-1.2l-2.7,3.9l-2.1,2.4l-2.7,1l-7.9,0.8h-4.5l-2.1-0.5l4.5-23.6l7.9-1h8.8l5.5,0.3
				l1.5,3.1l0.8,6.8C621,1024.7,622.3,1024.1,623.7,1023.4L623.7,1023.4z"/>
			<path id="path6420_00000048467887748429980450000016474718520868732061_" class="st5" d="M625.4,1068.4l5.8-0.4
				c1.7-0.2,3.4,2.1,5-3.9l12.4-38.3c1.9-8.6-4.7-9.4-13.1-9.3v-6.2h23.6l23.6,46.8l6.6-32.1c2.5-8.3-0.9-6.4-3.1-8.1h-8.5v-5.8
				l32.5-0.4l-0.4,5.8c-3.2,0.7-7-2-9.3,4.3l-10.4,44.1l3.9,5.8c2.3,2.9,3.5,5.2-0.4,5l-14.3,0.4l-25.5-46.8l-8.9,32.1
				c-3.8,8.2,1.5,6.3,5.4,6.2l10.4,0.4v6.2l-35.6,0.8L625.4,1068.4z"/>
			<path id="path6422_00000025432150616780781620000008254413404362069900_" class="st5" d="M716.3,1074.2v-5l10-2.3
				c2.4,0.9,3.6-2.7,5-5.8l12-40.2c4.2-9.6-4.9-6.5-9.3-6.6c-5.9,3-11.7,7-13.5,15.1c-6.7,2.5-6.1-0.2-5.8-2.7l4.6-12.8
				c1.7-2,1.5-4.9,7-5l51,0.4c4.1-0.1,4.8,3.5,3.8,7.4l-1.8,10.4c-3.9,6.2-5.5,2.4-7.3-0.4l1.2-6.6c-0.1-6.6-13.8-8-16.6-1.2
				l-12,43.7c-2.3,5.2,3.5,3.8,7,4.3c4.7,2.8,5.9,5.7,6.6,8.5L716.3,1074.2z"/>
			<path id="path5835" class="st5" d="M697,584.4l-12.3,18.4c-4.4,7.5-10.4,8.2-16.8,7.6l-100.4-3.8l-56.7,164l5.4,4.6
				c41.4-16.3,113-31.6,113.4,56c0.1,25.6-35.3,83.4-68.2,82c-13.4-0.6-31.3-11.9-32.9-24.5c-2.4-18.6-2.7-47.1-39.9-39.8
				c-15.6,3-29.2,22.2-16.8,48.3c5.5,11.6,29,22.3,46,28.3c12.9,4.6,27,6.7,40.6,5.4c25.2-2.5,56.8-13,72.1-24.5
				c8.8-6.6,40.8-35,47.5-70.6l6.2-0.7c0.8,32.4,1.9,89.7,64.4,95c11.2,1,62.7-22,80.5-42.9c26.5-31.1,47.8-65.7,59-105.8
				c10.9-39.1,21-68.2,9.9-124.2c-3.1-15.4-16.5-46.4-39.1-52.1c-32.8-8.3-64.9,6.2-78.1,17.6c-11.1,9.6-58.4,48.9-75.9,101.2
				c-9.6,28.5-15.9,49.2-18.4,70.5h-6.1c3.8-25.2-17.1-43.6-36.1-56.7c-25.9-17.9-59.2-20.1-94.2-12.2L579,651l111.1,1.5l24.5-59.8
				L697,584.4z M823.7,618.3c1.2,0,2.5,0.1,3.6,0.5c41.5,14,22.1,106.1,9.9,157.1c-11.9,50.1-49.6,140.4-78.1,133.3
				c-41-10.2-22.9-109.3-10-161.7C760.6,701.1,798.6,618.6,823.7,618.3L823.7,618.3z"/>
		</g>
	</g>
</g>
</svg>
