<?xml version="1.0" encoding="utf-8"?>
<!-- Generator: Adobe Illustrator 28.1.0, SVG Export Plug-In . SVG Version: 6.00 Build 0)  -->
<svg version="1.1" xmlns="http://www.w3.org/2000/svg" xmlns:xlink="http://www.w3.org/1999/xlink" x="0px" y="0px"
	 viewBox="0 0 850.4 850.4" style="enable-background:new 0 0 850.4 850.4;" xml:space="preserve">
<style type="text/css">
	.st0{fill:#B9A464;fill-opacity:0.9932;stroke:#000000;stroke-width:5;}
	.st1{fill:#D0C27B;}
	.st2{fill:url(#path7998_00000150084431948983568360000003777762777683934350_);}
	.st3{fill:url(#path7998-6_00000078762345908090670930000011189835789556730301_);}
	.st4{fill-opacity:0.3137;}
	.st5{fill-opacity:0.1294;}
	.st6{fill-opacity:0.3246;}
</style>
<g id="Layer_1">
	<g id="layer3" transform="translate(-13.377 -26.164)">
		<g id="g4633">
			<path id="path3165" class="st0" d="M776.4,446.5c0,195.2-157.3,353.4-351.4,353.4S73.5,641.7,73.5,446.5S230.8,93.2,424.9,93.2
				S776.4,251.4,776.4,446.5L776.4,446.5z"/>
			<path id="path3167" class="st1" d="M762.3,444.4c0,186.3-149.9,337.3-334.9,337.3S92.5,630.7,92.5,444.4
				c0-186.3,149.9-337.3,334.9-337.3S762.3,258.1,762.3,444.4z"/>
			
				<linearGradient id="path7998_00000123411151118153972280000002757812808462357641_" gradientUnits="userSpaceOnUse" x1="-72.1383" y1="661.9094" x2="1146.062" y2="661.9094" gradientTransform="matrix(0.4164 0 0 -0.6985 202.89 908.9941)">
				<stop  offset="0" style="stop-color:#E6E6E6"/>
				<stop  offset="1" style="stop-color:#CCCCCC;stop-opacity:0.7459"/>
			</linearGradient>
			<path id="path7998" style="fill:url(#path7998_00000123411151118153972280000002757812808462357641_);" d="M680.1,446.6
				c0,141.3-113.6,255.8-253.6,255.8S172.9,587.9,172.9,446.6c0-141.3,113.6-255.8,253.6-255.8S680.1,305.3,680.1,446.6L680.1,446.6
				z"/>
			
				<linearGradient id="path7998-6_00000031920678327150808320000010554312099273624232_" gradientUnits="userSpaceOnUse" x1="-72.3944" y1="622.7374" x2="1146.259" y2="622.7374" gradientTransform="matrix(0.4164 0 0 -0.6985 202.89 908.9941)">
				<stop  offset="0" style="stop-color:#E6E6E6"/>
				<stop  offset="1" style="stop-color:#CCCCCC;stop-opacity:0.7459"/>
			</linearGradient>
			<path id="path7998-6" style="fill:url(#path7998-6_00000031920678327150808320000010554312099273624232_);" d="M679.8,459.9
				c-2.1,4.4-3.5,9.4-4,14.7c-0.2,4.9,0.1,9.4,1,13.5C678.3,478.9,679.3,469.5,679.8,459.9L679.8,459.9z"/>
			<path id="path9175" class="st4" d="M714.7,438.6c-20.8,0-37.1,14.8-38.9,36c-1.2,25,12.9,39.2,28.7,39.5
				c17.4-0.2,31-9.3,37.3-35.3C740.6,478.3,746.8,444.7,714.7,438.6z M710,442.8c1.2,0,2.5,0,3.8,0.2c20.2,9.4,17.1,17.4,16.9,34.4
				c-3.1,14.9-9.2,34.1-26.6,31.3c0,0-23-1-18-35.9C690.7,454.1,698.3,443.2,710,442.8L710,442.8z"/>
			<path id="path7759" class="st5" d="M457,436.5c5.1,0.1,9.9-2.3,14.8-3.4c2.1-0.5,4.2-0.8,6.3-1.3c1.6-0.4,3-1.3,4.7-1.3
				c2.3,0,4.6,0.8,6.8,1.7c1.1,0.4,2,2.3,3,1.7c1.1-0.6,0.1-2.5,0-3.8c-0.1-1.7-1.5-3.7-0.4-5.1c1-1.3,3.2-0.3,4.7-0.8
				c1.8-0.7,4.4-1.1,5.1-3c0.5-1.4,1.3-4.2-1.3-4.2c-2.5,0-6.2,0.3-8.9-0.8c-1.6-0.7-3.3-1.8-3.8-3.4c-1-3.2,3.3-6.5,2.5-9.7
				c-0.8-3.5-5.8-4.7-7.2-8c-0.8-2,0.2-4.3-0.4-6.3c-0.5-1.7-1.6-3.1-2.5-4.7c-1.2-2-3.7-3.6-3.8-5.9c-0.1-3.3,3-8.5,4.7-8.9
				s4.1-1.7,3.8-3.4c-0.5-2.6-4.9-2.5-7.6-2.5c-1,0-2.1,1.3-3,0.8c-0.9-0.5-1.1-2-0.8-3c0.5-2.2,5-2.8,4.7-5.1
				c-0.2-1.4-2.4-2-3.8-2.1c-1.5-0.1-3,0.8-4.2,1.7c-1.9,1.4-3.2,3.6-4.7,5.5c-0.7,1-2.2,1.7-2.1,3c0,1.1,2.2,1.4,2.1,2.5
				c-0.1,1.8-2.7,2.4-3.8,3.8c-0.7,0.9-2.1,1.9-1.7,3c0.4,1.1,2.4,0.6,3.4,1.3c1.1,0.7,2.3,1.7,2.5,3c0.3,1.3-1.1,2.5-1.3,3.8
				c-0.1,0.7-0.4,1.5,0,2.1c0.5,0.8,2.2,0.4,2.5,1.3c0.5,1.3-2.7,2.9-1.7,3.8c1.8,1.6,4-3.1,6.3-3.8c0.7-0.2,1.6-0.4,2.1,0
				c1,0.8,0.7,2.5,0.8,3.8c0.1,1.3,0,2.1,0,3.8c0,1.7-0.2,4,0,5.9c0.1,1.3,1.1,2.5,0.8,3.8c-0.4,1.9-1.8,3.6-3.4,4.7
				c-1.3,0.9-3.1,0.8-4.7,1.3c-1.1,0.4-2.9,0.2-3.4,1.3c-0.7,1.7,2.5,3.3,2.1,5.1c-0.3,1.8-2.1,3.1-3.8,3.8c-1.7,0.7-4.4-1.5-5.5,0
				c-0.5,0.7,0.1,2,0.8,2.5c2.3,1.6,5.7-0.7,8.5-0.4c2.2,0.2,5,0,6.3,1.7c0.7,0.9,0.2,2.3,0,3.4c-0.1,0.9-0.2,2-0.8,2.5
				c-2.9,2.5-8,0-11.4,1.7c-2.6,1.3-7,3.1-6.3,5.9C454.3,436.7,456,436.5,457,436.5L457,436.5z"/>
			<path id="path4129" class="st5" d="M622.6,226.1c-1,0.1-2.1,0.4-3,0.6c-2,0.5-3.7,1.7-5.3,2.9l0.4,0.1l-5.3,4.6l0.9,6.9l-6.1-3.5
				l-2.7,1.3c-2,1.6-4.1,3.2-6.2,4.7c-2.6,1.9-5.5,3.3-7.8,5.5c-5.7,5.3-10.3,11.7-14.6,18.2c-2.1,3.1-4.6,6.3-5.5,9.9
				c-0.5,1.8,0.9,4,0,5.7c-0.8,1.5-3.8,1.3-4.2,3c-0.3,1.2,1.7,2.1,1.7,3.2s0.9,3.6,0.9,4.4c0,0.8-2.6,0.3-3.4,1.3
				c-0.3,0.4-0.2,1.1-0.2,1.7c0.1,1,1.5,2.1,0.8,3c-1.1,1.4-3.7-0.8-5.3,0c-2.9,1.6-3.1,5.8-5.3,8.3c-2.7,3-6.4,4.9-9.5,7.4
				c-4.7,3.8-11.6,6-13.8,11.6c-0.5,1.4,1.4,3.2,0.6,4.4c-0.5,0.8-2,0.2-2.5,0.8c-1.3,1.5-0.9,3.9-1.1,5.9c-0.1,1.7-1.2,3.9,0,5.1
				c1.2,1.2,4.2-1.4,5.3,0c0.4,0.5-0.2,1.3-0.4,1.9c-0.3,1.1-0.5,2.2-1.1,3.2c-0.3,0.4-0.7,0.7-1.1,1.1c-0.5,0.5-1.5,0.6-1.7,1.3
				c-0.2,0.8,0.6,1.6,1.3,2.1c0.7,0.5,2.1-0.1,2.6,0.6c0.9,1.4-0.9,3.2-0.9,4.9c0.1,1.7-0.2,4,1.3,4.9c2,1.1,4.7-0.6,6.6-1.9
				c0.8-0.6,1.3-1.6,1.9-2.3c0.7-0.8,1.3-1.8,2.1-2.5c1.7-1.7,4.1-2.6,5.7-4.4c1.3-1.6,0.9-5.6,3-5.5c1.5,0.1,1.2,2.7,1.7,4
				c0.4,1.1,0.4,2.4,1.1,3.4c0.8,1.2,2.4,1.8,3.2,3c2.2,3.3,2.9,7.3,4.2,11c0.7,1.9,1.4,3.8,2.1,5.7c1,2.5,2.8,5.9,3.2,7.4
				c0.4,1.5,2.2,2.5,2.7,4c0.6,1.9,0.2,5.3,0.2,6.1c0,0.8,0.2,1.5,0.8,1.7c0.9,0.3,2-0.7,2.6-1.5c1.3-1.7,0.7-4.2,1.7-6.1
				c0.5-0.9,1.2-1.6,1.9-2.3c1.2-1.1,2.9-1.6,3.8-3c0.8-1.2,1-2.6,1.3-4c0.5-3.3,0.1-6.6,0-9.9c-0.1-1.9-1.2-4-0.4-5.7
				c0.5-1.2,2-1.5,3-2.3c1-0.9,1.9-1.9,3-2.7c0.8-0.7,1.6-1.2,2.3-1.9c1.1-1.1,2.3-2.3,2.8-3.8c0.3-1,0.7-2.4,0-3.2
				c-0.3-0.4-1.2,0.2-1.5-0.2c-0.3-0.3,0.1-0.8,0.2-1.3c0.1-0.6,0.2-1.1,0.2-1.7c0-0.5,0-1.1-0.4-1.5c-1.1-1-3.2,0.2-4.4-0.6
				c-1.2-0.8-1.8-2.4-2.3-3.8c-0.4-1.1-0.6-2.4-0.6-3.6c0-1.4,0.7-2.8,0.8-4.2c0.2-1.6-0.2-3.3,0.2-4.8c0.4-1.6,1.5-2.9,2.1-4.4
				c0.4-1,0.4-2.2,0.9-3.2c0.5-1.3,1.3-2.6,2.1-3.8c1-1.5,2.2-2.8,3.2-4.2c0.6-1,1.3-1.9,1.7-3c0.5-1.1,0.3-2.5,0.9-3.6
				c0.4-0.9,1.1-1.6,1.7-2.3c0.9-1.1,2.3-1.8,2.8-3.2c0.3-0.8,0.2-1.8-0.2-2.5c-0.2-0.3-0.7-0.3-0.9-0.6c-0.6-0.9-0.8-2.1-0.6-3.2
				c0.1-0.9,0.8-1.7,1.3-2.6c1-1.6,2.6-2.8,3.4-4.4c0.5-0.9,0.4-2,0.8-3c0.3-0.6,0.8-1.1,1.1-1.7c0.7-1.5,0.4-3.8,1.7-4.9
				c1-0.8,2.6-0.2,3.8-0.4c0.7-0.1,1.4-0.8,2-0.6c2.1,0.7,2.9,3.4,4.1,5.3c1.3,2,2.9,4,3.4,6.3c0.3,1.7,0,3.4-0.4,5.1
				c-0.9,3.8-2.7,7.4-4.2,11c-1.1,2.6-2.2,5.3-3.8,7.6c-1.5,2.2-4.4,3.5-5.5,5.9c-1.6,3.5-1.9,7.6-1.3,11.4
				c0.9,5.5,2.8,11.8,7.2,15.2c2.4,1.8,6,2.5,8.9,1.7c2.8-0.8,3.9-4.3,6.3-5.9c3-2,6.2-3.9,9.7-4.6c1.8-0.4,3.7-0.2,5.5,0
				c3.2,0.4,6.9,0.4,9.3,2.5c1.1,0.9,1.4,2.4,1.7,3.8c0.3,1.4,0.7,3,0,4.2c-2.1,3.7-7,4.9-11,6.3c-1.7,0.6-3.7,0.7-5.5,0.9
				c-4.2,0.4-10.1-3-12.7,0.4c-0.7,0.9,0.3,2.3,0.9,3.4c1,2,3.5,3,4.2,5.1c0.7,1.9-0.4,3.8,0,5.9c0.4,2.1,2.4,1.5,3.4,2.5
				c2,2,6.3,4.2,5.1,6.8c-0.6,1.1-2.6,0.3-3.8,0c-1.5-0.4-2.7-1.7-4.2-2.1c-2.3-0.7-4.8-0.9-7.2-0.9c-2.7,0.1-6.2-0.7-8,1.3
				c-1.8,2-0.7,5.4-0.4,8c0.3,3.2,0.6,6.5,2.1,9.3c1.5,2.7,5.5,3.8,6.3,6.8c0.3,1.3-0.3,2.6-0.9,3.8c-1.2,2.4-3.1,4.5-5.1,6.3
				c-1.7,1.6-3.6,3.4-5.9,3.8c-3.1,0.6-6.2-1.6-9.3-2.1c-4.6-0.8-9.3-2-14-1.7c-5.8,0.4-15.2,4.2-16.9,4.2c-1.7,0-7.2,2.1-8.9,2.1
				c-1.7,0-3.8,2-5.5,1.3c-3.3-1.4-4.2-5.9-5.5-9.3c-1.1-2.8-1.9-5.9-1.7-8.9c0.2-2.4,1.9-4.5,2.5-6.8c0.7-2.5,2-5,1.7-7.6
				c-0.3-2.1-1.1-4.6-3-5.5c-1.8-0.9-4.3-0.4-5.9,0.8c-2.5,1.9-3.5,5.4-3.8,8.5c-0.3,2.6,1.2,5.1,1.7,7.6c0.7,3.4,0.6,6.9,1.7,10.2
				c1.3,3.9,6.6,7,5.5,11c-0.4,1.5-2.8,1.4-3.8,2.5c-1.6,1.7-1.5,4.7-3.4,5.9c-1.7,1.1-3.9,0.4-5.9,0.4c-1.3,0-2.6,0.3-3.8,0
				c-2.5-0.6-5.1-5.3-6.8-3.4c-1.6,1.8,4.6,3.5,4.2,5.9c-0.3,1.9-3.1,2.3-4.6,3.4c-3.1,2.3-5.9,4.9-9.3,6.8c-2,1.1-4.8,2.1-8,3.2
				c11.6,0,22.9,0.1,22.9,0.7l-0.1,6.5l0.1,8.9c-1.3,0.8-2.7,1.5-4,0.3l-0.8-7.8l-1.5-3.6l-5.4-0.3h-8.7l-7.8,1.2l-4.5,26.9l2.1,0.6
				h4.5l7.8-0.9l2.7-1.2l2.1-2.7l2.7-4.5h1.2l1.5,2.7l-3.9,8.4l0.6,11.4l-2.1,2.1l-2.1-2.1v-8.1l-1.2-1.2h-14.3l-3,1.2l-3.3,19.2
				l-1.2,6.9l2.4,3l2.4,1.2h11.7l8.4-1.2l3.9-1.8c0,0,3-1.4,3.9-2.7c1.4-2.1-0.2-5.9,1.8-7.5c0.5-0.4,1.3-0.3,1.8,0
				c0.9,0.6,1.4,1.9,1.5,3c0.2,1.7-0.8,3.4-1.2,5.1c-0.5,1.7-1.5,5.1-1.5,5.1l-5.4,3.6l-8.1,0.6l-11.7-0.6h-10.2c0,0-7-0.1-10.5-0.3
				c-2.9-0.1-8.1,2.2-8.7-0.6c-0.4-2.1,3.8-1.9,5.7-3c0.9-0.6,1.9-1,2.7-1.8c0.9-0.9,1.6-2.1,2.1-3.3c6.5-17.7,7.7-55.3,7.8-56.9
				c0,0-0.1,0.1-0.2,0.1c-2.4,1-6.4,2.2-8.7,3.4c-2.9,1.5-5.1,4.2-8,5.5c-1.2,0.5-2.5,1.1-3.8,0.9c-2.4-0.4-4-3.2-6.3-3.8
				c-1.5-0.4-3.1-0.2-4.7,0c-1,0.1-2.2,0.2-3,0.9c-1.5,1.2-2.7,3.2-2.5,5.1c0.1,1,1,1.8,1.7,2.5c1.6,1.8,3.6,3.1,5.5,4.7
				c2.5,2,5.5,3.5,7.6,5.9c0.7,0.9,1.2,1.9,1.7,3c1.3,2.9,2.6,5.8,3,8.9c0.2,1.8-0.4,3.8-0.4,5.5s-0.1,4.6-0.9,6.8
				c-1.1,3.1-3,5.9-5.1,8.5c-1.9,2.4-3.8,5.5-6.8,6.3c-1.5,0.4-3.2-0.4-4.7-0.9c-2.4-0.7-4.5-2-6.8-3c-2.8-1.2-5.6-2.4-8.5-3.4
				c-1.9-0.7-3.9-1.1-5.9-1.7c-3.8-1-7.5-2.6-11.4-3c-2.5-0.3-5.1,0.1-7.6,0.4c-1.4,0.2-3.6-0.5-4.2,0.8c-1,2,2.9,3.7,3,5.9
				c0.1,2.1-1.2,4.2-2.5,5.9c-1.3,1.7-4,2-5.1,3.8c-0.6,1-0.2,2.3-0.4,3.4c-0.5,2.3-0.8,4.8-2.1,6.8c-0.6,0.9-1.7,1.4-2.5,2.1
				c-1.7,1.3-3.9,2-5.1,3.8c-1.9,2.9-1.9,6.7-2.5,10.1c-0.2,1-0.3,2-0.4,3c-0.4,2.5-0.9,5.1-1.3,7.6c-0.2,1.5-1.1,3.2-0.4,4.6
				c2,4.1,10.6,5.9,11.4,7.6c0.8,1.7,3.9,4.4,6.3,5.9c1.3,0.8,2.8,1.3,4.2,1.7c2.9,0.7,5.9,0.7,8.9,0.9c3.8,0.2,7.6-0.1,11.4,0
				c5.1,0.1,10.4,1.8,15.2,0.4c2.4-0.7,4.1-3,6.3-4.2c1.9-1,4.1-1.4,5.9-2.5c2-1.3,3.4-4.2,5.5-4.7c2.1-0.4,0.4-3.4,0.4-5.1
				c0-2.3-0.9-4.6-0.4-6.8c0.5-2.2,2.1-4,3.4-5.9c1.3-1.9,2.3-4.3,4.2-5.5c1.5-0.9,3,0,5.1-0.9c2.1-0.8,4.4-3,6.8-4.2
				c1.9-1,3.9-1.7,5.9-2.5c1.5-0.6,3.7-0.3,4.6-1.7c1.1-1.7-0.5-3.9-0.4-5.9c0.1-2-0.2-4.6,1.3-5.9c2.2-2,5.9-0.8,8.9-0.8
				c2.3,0,4.5,0.7,6.8,0.4c4.1-0.5,8.4-1.5,11.8-3.8c1.7-1.1,2.4-3.2,3.8-4.7c2.2-2.3,4.1-5.6,7.2-6.3c2.3-0.6,5.3-0.1,6.8,1.7
				c1.5,1.9-0.9,5,0,7.2c0.5,1.1,1.7,1.7,2.5,2.6c0.8,0.8,1.7,1.7,2.5,2.5c1.3,1.3,2.6,2.4,3.8,3.8c1.2,1.5,2.2,3.1,3.4,4.7
				c1.1,1.4,2,3.1,3.4,4.2c1.5,1.2,3.6,1.3,5.1,2.6c1.8,1.5,2.4,4.1,4.2,5.5c1.6,1.2,3.7,1.4,5.5,2.1c1,0.4,2.1,0.7,3,1.3
				c0.8,0.6,1.4,1.4,2.1,2.1c1.5,1.3,3,2.7,4.6,3.8c2.4,1.6,5.3,2.5,7.6,4.2c1.7,1.2,3.8,2.3,4.6,4.2c0.5,1.2,0.2,2.5,0,3.8
				c-0.2,1.7-0.9,3.4-1.3,5.1c-0.3,1.5-1.9,3.4-0.9,4.6c0.5,0.6,1.7,0,2.5,0c2.1,0,2.1-1.2,3-2.1c1.7-1.8,3.4-3.9,3.8-6.3
				c0.3-1.7-0.1-3.5-0.9-5.1c-0.5-1.1-2-1.5-2.5-2.5c-0.7-1.4-1.3-3.4-0.4-4.7c0.5-0.7,1.7-1,2.5-0.9c1,0.1,1.6,1.4,2.5,1.7
				c2.5,0.9,5.9,2.5,8.1,0.9c0.8-0.6,0.9-2.1,0.4-3c-1.6-3.2-6.1-3.6-9.3-5.1c-2.5-1.2-5.5-1.3-7.6-3c-2.1-1.7-2.4-5.2-4.6-6.8
				c-3-2.1-7.4-0.8-10.6-2.6c-2.8-1.6-5.3-3.9-6.8-6.8c-1.4-2.5-0.3-6-1.7-8.5c-0.1-0.2-0.2-0.3-0.3-0.4c-2.8,0.4-5.7,0.5-8.5,0.1
				c-4.5-0.5-8.1-2.3-11.4-4.4c-2.3-2-3.9-5.1-5.4-8.6c0.2-8.1,0.7-16.2,1.8-24l4.1-27.2c0.6-2.6,0.2-4.1-1.2-4.4l-5.4-0.3l-0.1-1.5
				l1.4-1.3l10.6,0.3l9-0.1h4.8l0.6,1.3l-0.3,1.3c0,0-0.8,0.1-1.4,0.1h-2l-3.3,0.6l-1.9,1.3l-0.3,0.7l-0.6,3.8l-5.9,39.8l-0.4,5.7
				l0.2,4.8l1.7,3.5l5.7,3.6l2.4,0.2c-0.2-0.2-0.4-0.5-0.6-0.7c-1.4-2-2.7-4.4-2.5-6.8c0.1-1.8,1.8-3.1,2.5-4.7
				c1.1-2.3,0.7-5.9,3-7.2c2-1.1,4.6,0.1,6.8,0.9c1.6,0.5,2.7,1.8,4.2,2.5c2,0.9,4.6,0.7,6.3,2.1c0.5,0.4,1,1,1.4,1.5l1.2-3.1l2-11
				l2.4-15.1l1.4-7.4c0.1-3.6,0-3.8,0.1-5.8l0.2-3.7l-0.1-2.3l-0.2-2l-1.5-0.6h-3.1l-1.7-0.5l-0.3-1.5l0.1-1.1l1.6-0.2l6.4,0.1
				l7.5,0.1l3.7,0.1l0.1,1.8l-0.4,1.1c-1.2-0.1-2.3-0.1-3.5,0.1c-2.2,0.6-2.2,2.9-3.2,4.4l-3.1,13.4l-5.7,31.9l-2.1,4.9
				c0.8,1.7,1.5,3.5,2.5,5.1c1,1.6,1.6,3.4,3,4.6c1.5,1.4,3.7,1.9,5.5,3c3.8,2.3,7.4,4.9,11,7.6c2.9,2.2,7.3,3.4,8.5,6.8
				c0.6,1.6-1.3,3.3-1.3,5.1c0.1,2.5,1.7,4.8,2.5,7.2c0.7,1.8,1.3,3.7,2.1,5.5c0.9,2,1.7,4.1,3,5.9c1.9,2.8,6.4,5.9,6.8,7.6
				c0.4,1.7-1.1,2-0.9,3c0.5,1.9,3.5,2.4,4.2,4.2c0.6,1.6-0.6,3.5,0,5.1c0.9,2.2,2.8,4.3,5.1,5.1c2.5,0.9,5.7,0.4,8-0.9
				c1.6-0.9,2.7-2.6,3.4-4.2c0.5-1.2,0.4-2.5,0.4-3.8c0.1-1.7,0.5-3.5,0-5.1c-0.5-1.8-2.2-3-3-4.6c-1-2-1.3-4.3-2.1-6.3
				c-0.7-1.9-2.3-3.5-2.6-5.5c-0.2-1.9-0.5-4.8,1.3-5.5c1.5-0.6,2.6,2.7,4.2,2.5c1.7-0.2,2.4-2.4,3.8-3.4c2.1-1.4,4.9-1.7,6.8-3.4
				c0.9-0.8,1-2.6,2.1-3c1.2-0.4,2.3,0.8,3.4,1.3c1.3,0.6,2.4,1.8,3.8,2.1c2.5,0.6,5.3,0.7,7.6-0.4c1.6-0.8,2-3.1,3.4-4.2
				c2-1.5,5.2-1,6.8-3c1-1.2,1.4-3.2,0.9-4.7c-1.4-3.9-7.6-4.3-9.3-8c-1.4-3.1-0.2-6.8,0-10.2c0.2-3,0-6.3-0.1-9.5
				c-2.1-5.5-3.1-12.1-2.7-19.6c1.6-19.6,15.6-33.6,34-35.8c-0.6-10.6-2.1-21.1-3.7-31.5c-1.9-12.6-4-25.3-7.2-37.6
				c-1.3-5.2-3.3-10.2-5.1-15.2c-2.8-8.1-5.5-16.3-8.9-24.1c-1.2-2.7-2.5-5.3-3.8-7.8l-5.4,2.5l1.5-6.8l-4.9-5l4-0.4
				c-2.3-5-4.3-10.2-7-15c-1.8-3.2-3.7-6.3-5.7-9.4l0.2,1.8l-6.1-3.5l-6.4,3l1.5-6.8l-4.8-5l7-0.7l0.3-0.5c-0.1-0.2-0.2-0.3-0.4-0.5
				c-3.6-4.8-7.3-9.7-11.8-13.5c-1.9-1.6-3.9-3.7-6-5.8l0.5,3.5l-6.1-3.5l-6.4,3l1.5-6.8l-4.8-5l3.1-0.3c-1.1-0.3-2.1-0.3-3.2-0.1
				c0.9-1.5,2.2-2.6,3.8-2.4c2.8,0.2,1.3-0.8,1.5-1.5c0.4-1.4-0.1-2.9-0.6-4.2c-0.8-2.1-3.9-3.4-3.8-5.7c0-1.1,1.5-1.6,1.9-2.5
				c0.6-1.3,1.7-3.1,0.8-4.2C624.6,226.2,623.6,226,622.6,226.1L622.6,226.1z"/>
			<path id="path4125" class="st5" d="M710,442.8c-10,0.3-17,8.4-21.7,22.5c0.9,0,1.8,0.1,2.7,0c2.7-0.3,5.4,0.1,8-0.4
				c3.7-0.7,8.4-0.8,10.6-3.8C713.1,456.1,710.6,449,710,442.8C710,442.8,710,442.8,710,442.8L710,442.8z"/>
			<path id="path7761" class="st5" d="M426.5,410.7c-1.6-2.4-0.4-6.5,1.7-8.5c2.2-2.1,6-0.4,8.9-1.3c1.2-0.4,3.2-0.4,3.4-1.7
				c0.2-1-1.2-1.7-2.1-2.1c-1.8-0.9-4.8,0.8-5.9-0.8c-1.5-2.1-0.3-6,1.7-7.6c1.3-1.1,3.5-0.7,5.1,0c1,0.5,1,2.3,2.1,2.5
				c1.5,0.4,3.4-0.4,4.2-1.7c1.1-1.6-1.4-4.5,0-5.9c1.3-1.3,3.7-0.4,5.5,0c2,0.4,4.4,0.8,5.5,2.5c1.1,1.8,0.9,4.4,0,6.3
				c-0.7,1.4-3.1,1.5-3.8,3c-1.1,2.2,0.1,4.8,0,7.2c-0.1,2.1,0.9,4.7-0.4,6.3c-1.6,1.9-4.8,1.2-7.2,1.7c-3.5,0.7-7,1.8-10.6,1.7
				C431.8,412.3,428,413,426.5,410.7L426.5,410.7z"/>
			<path id="path7745" class="st5" d="M490.8,547.8c-0.9,0-1.8,0.6-2.5,1.3c-0.6,0.6-1.3,1.3-1.3,2.1c0,1.3,1.1,2.5,2.1,3.4
				c1.6,1.5,3.8,3.7,5.9,3c1.5-0.5,1.5-2.8,2.1-4.2c0.3-0.8,1.2-1.7,0.8-2.5C497,548.4,493.4,547.7,490.8,547.8L490.8,547.8z"/>
			<path id="path7747" class="st5" d="M542.4,533c1.5-1.4,1-3.9,1.3-5.9c0.3-1.8,1.1-3.8,0.4-5.5c-0.2-0.6-0.7-1-1.3-1.3
				c-1.6-0.6-3.7-0.9-5.1,0c-1.5,1-1.8,3.3-2.1,5.1c-0.3,2.1-0.6,4.5,0.4,6.3c0.5,0.9,1.6,1.5,2.5,1.7
				C539.9,533.7,541.5,533.8,542.4,533L542.4,533z"/>
			<path id="path7749" class="st5" d="M545.4,543.5c0.1,0.9-1.4,1.3-1.7,2.1c-0.5,1.5,0.2,3.1,0,4.7c-0.1,1.2-0.8,1.7-0.8,3.4
				c0,1.7,0.3,3.3-0.8,4.2c-1.1,0.9-2.8,0-4.2,0c-1,0-3,2.1-3,0s-0.1-3.7,0-5.5c0.1-2,0-4,0.4-5.9c0.5-2.1,0.9-4.5,2.5-5.9
				c0.8-0.7,2-1.1,3-0.8C542.7,540.1,545.2,541.5,545.4,543.5L545.4,543.5z"/>
			<path id="path7755" class="st5" d="M589.4,569.8c1.8,1.9-0.1,5.4-0.4,8c-0.2,1.4,0.2,3.2-0.8,4.2c-1.3,1.3-3.6,0.9-5.5,0.8
				c-2.4,0-4.8-0.6-7.2-1.3c-2.3-0.6-5-0.9-6.8-2.5c-1.2-1.2-1.7-3-2.1-4.7c-0.3-1.2-1-2.7-0.4-3.8c0.4-0.9,1.3-1.7,2.5-1.7
				c1.3,0-2.1-0.8,5.1,0c7.2,0.8,5.3,0.7,8,0.8C584.3,569.9,587.7,567.9,589.4,569.8L589.4,569.8z"/>
			<path id="path7757" class="st5" d="M692.2,554.1c-0.1,2.9-3.3,5.2-5.9,6.3c-2.2,1-4.8,0-7.2,0c-2.3,0-5.1,2.1-6.8,0
				c-1.7-2.1-4.3-2.4-3.8-4.2c0.6-2.1,4.2-1.2,6.3-1.7c2.7-0.6,5.9-0.8,8-1.7c2.1-0.8,4.6-2.4,6.8-1.7
				C690.9,551.5,692.2,552.8,692.2,554.1L692.2,554.1z"/>
			<path id="path7763" class="st5" d="M593.6,369.2c-1.3,2.2-0.7,5.2,0,7.6c0.2,0.8,0.5,2,1.3,2.1c1.5,0.1,2.3-2,3-3.4
				c1.1-2.2,1.4-4.8,1.3-7.2c0-0.6,0.1-1.4-0.4-1.7C597,365.9,594.6,367.6,593.6,369.2L593.6,369.2z"/>
			<path id="path7765" class="st5" d="M559.8,392.1c-0.6,0.6,0,1.7,0,2.5c0,1-0.5,2.1,0,3c0.6,0.9,1.9,1.5,3,1.3
				c1.3-0.3,2-1.8,2.5-3c0.6-1.3,1.4-3.2,0.4-4.2C564.3,390.2,561.1,390.6,559.8,392.1L559.8,392.1z"/>
			<path id="path7769" class="st5" d="M550.5,394.2c-0.8,1.7-0.4,4.2,0.8,5.5c0.5,0.5,1.4,0.6,2.1,0.4c1-0.3,1.7-1.2,2.1-2.1
				c0.5-1.2,0.4-2.6,0-3.8c-0.3-0.9-0.8-2-1.7-2.1C552.6,391.9,551,393,550.5,394.2L550.5,394.2z"/>
			<path id="path3019-4" class="st6" d="M610.4,241.1l-6.1-3.5l-6.4,3l1.5-6.8l-4.9-5l7-0.7l3.4-6.1l2.9,6.3l6.9,1.3l-5.3,4.6
				L610.4,241.1z"/>
			<path id="path3019-1" class="st4" d="M637.6,260.3l-6.1-3.5l-6.4,3l1.5-6.8l-4.9-5l7-0.7l3.4-6.1l2.9,6.3l6.9,1.3l-5.3,4.6
				L637.6,260.3z"/>
			<path id="path3019-56" class="st4" d="M663.9,290.2l-6.1-3.5l-6.4,3l1.5-6.8l-4.9-5l7-0.7l3.4-6.1l2.9,6.3l6.9,1.3l-5.3,4.6
				L663.9,290.2z"/>
			<path id="path3019-56-2" class="st4" d="M688.2,325.5l-6.1-3.5l-6.4,3l1.5-6.8l-4.9-5l7-0.7l3.4-6.1l2.9,6.3l6.9,1.3l-5.3,4.6
				L688.2,325.5z"/>
			<path id="path3017" class="st4" d="M186.7,577.1l196.5,2.7l2.7-10.8l-33.5-6c-21.5-4.8-32.8-18.5-32-42.5L399.1,231H391
				c-37.2,21.1-77.6,37.1-125.9,40.7l-1.8,6.6l46.1,3.3c5.7,0.4,17.2,3.7,13.2,18.8l-55.3,207.9c-6.2,28-18.5,52.5-67.3,55.3
				l-10.5,1.8L186.7,577.1z"/>
			<path id="path7994-4" class="st4" d="M530,454.7l-0.1-8.9l0.1-6.5c0-1.1-47.3-0.5-47.3-0.5s-1.6,1.4-1.8,2.4
				c-0.2,1,0.2,2.3,0.9,3c0.8,0.8,3.3,0.9,3.3,0.9l5.1-0.3c0,0-1.2,39.1-7.8,57.1c-0.4,1.2-1.2,2.4-2.1,3.3
				c-0.8,0.8-1.8,1.2-2.7,1.8c-1.8,1.1-6.1,0.9-5.7,3c0.6,2.8,5.8,0.5,8.7,0.6c3.5,0.2,10.5,0.3,10.5,0.3h10.2l11.7,0.6l8.1-0.6
				l5.4-3.6c0,0,1-3.4,1.5-5.1c0.4-1.7,1.4-3.4,1.2-5.1c-0.1-1.1-0.5-2.4-1.5-3c-0.5-0.3-1.3-0.4-1.8,0c-2,1.6-0.3,5.4-1.8,7.5
				c-0.9,1.3-3.9,2.7-3.9,2.7l-3.9,1.8l-8.4,1.2h-11.7l-2.4-1.2l-2.4-3l1.2-6.9l3.3-19.1l3-1.2h14.4l1.2,1.2v8.1l2.1,2.1l2.1-2.1
				l-0.6-11.4l3.9-8.4l-1.5-2.7h-1.2l-2.7,4.5l-2.1,2.7l-2.7,1.2L504,472h-4.5l-2.1-0.6l4.5-26.9l7.8-1.2h8.7l5.4,0.3l1.5,3.6
				l0.8,7.8C527.4,456.1,528.7,455.4,530,454.7L530,454.7z"/>
			<path id="path7996" class="st4" d="M545.8,440.2l10.6,0.3l9-0.1h4.8l0.6,1.3l-0.3,1.3c0,0-0.8,0.1-1.4,0.1h-2l-3.3,0.6l-1.9,1.3
				l-0.3,0.7l-0.6,3.8l-5.9,39.8l-0.4,5.7l0.2,4.8l1.7,3.5l5.7,3.6l8.1,0.6l6.7-1.6l4-3.5l3.4-4.2l2.5-6.6l2-11l2.4-15.1l1.4-7.4
				c0.1-3.6,0-3.8,0.1-5.8l0.2-3.7l-0.1-2.3l-0.2-2l-1.5-0.6h-3.1l-1.7-0.5l-0.3-1.5l0.1-1.2l1.6-0.2l6.5,0.1l7.5,0.1l3.7,0.1
				l0.1,1.8l-0.4,1.1c-1.2-0.1-2.3-0.1-3.5,0.1c-2.2,0.6-2.2,2.9-3.2,4.4l-3.1,13.4l-5.7,31.9l-4.8,11.4c-3.1,3.7-6.7,5.4-10.4,6.2
				c-4.2,1.1-8.5,1.6-12.7,1c-4.5-0.5-8.1-2.3-11.4-4.4c-2.3-2-3.9-5.1-5.4-8.6c0.2-8.1,0.7-16.2,1.8-24l4.1-27.2
				c0.6-2.6,0.2-4.1-1.2-4.4l-5.4-0.3l-0.1-1.5L545.8,440.2z"/>
			<path id="path9170" class="st4" d="M616.9,440.1c-1.1,0.8-1.7,1.7-1.2,3.3l6.1,1.8l-8.4,58.5c-0.1,0.5,0.1,1.1-0.2,1.5
				c-0.3,0.4-0.5,0.2-1.3,0.6c-1.6,0.8-4.2,2.1-5.6,3.2c-0.5,0.4,0.3,1.8,0.9,1.9c10.5,2,23.9,0.1,24.4,0.5l0.4-2.5l-7.8-1.6
				c-1-0.2-2-1.8-1.8-2.9c2.2-9.7,4.1-28.9,6.1-29.2l3.4,1.5c1.9,1,2.3,1.7,2.7,1.6c0,0,6.5,24.7,16.2,31.4
				c3.7,2.5,9.1,2.9,13.3,1.5c0.9-0.3,2.3-1,2.1-1.9c-0.2-1.1-2-0.9-3-1.3l-6.8-2.9l-14.2-29c19.6-10,20.3-26.6,5.2-34.9
				L616.9,440.1L616.9,440.1z M631.5,511.3L631.5,511.3C631.6,511.4,631.6,511.4,631.5,511.3z M637.3,443.8c1.2,0,2.4,0.1,3.2,0.2
				c2.2,0.1,4.4,0.1,6.1,1.3c2,1.4,3,3.7,3.4,6.1c0.5,2.5,0,5.1-0.4,7.6c-0.6,3.1-1,6.4-2.9,9c-1.5,2.1-3.7,3.7-6.1,4.6
				c-2.1,0.8-4.5,0.9-6.7,0.8c-1.5-0.1-4.6,0.5-4.5-1.1c1-11.1,4.2-24.4,4-27.1C633.4,444,635.3,443.8,637.3,443.8L637.3,443.8z"/>
			<path id="path3019" class="st4" d="M559.6,205.2l-6.1-3.5l-6.4,3l1.5-6.8l-4.9-5l7-0.7l3.4-6.1l2.9,6.3l6.9,1.3l-5.3,4.6
				L559.6,205.2z"/>
			<path id="path3019-5" class="st4" d="M585.2,222.6l-6.1-3.5l-6.4,3l1.5-6.8l-4.9-5l7-0.7l3.4-6.1l2.9,6.3l6.9,1.3l-5.3,4.6
				L585.2,222.6z"/>
			<path id="path3019-56-7" class="st4" d="M687,588.6l-6.1-3.5l-6.4,3l1.5-6.8l-4.9-5l7-0.7l3.4-6.1l2.9,6.3l6.9,1.3l-5.3,4.6
				L687,588.6z"/>
			<path id="path3019-56-23" class="st4" d="M661.2,620.4l-6.1-3.5l-6.4,3l1.5-6.8l-4.9-5l7-0.7l3.4-6.1l2.9,6.3l6.9,1.3l-5.3,4.6
				L661.2,620.4z"/>
			<path id="path3019-56-70" class="st4" d="M637.5,649.1l-6.1-3.5l-6.4,3l1.5-6.8l-4.9-5l7-0.7l3.4-6.1l2.9,6.3l6.9,1.3l-5.3,4.6
				L637.5,649.1z"/>
			<path id="path3019-56-8" class="st4" d="M610.8,671.6l-6.1-3.5l-6.4,3l1.5-6.8l-4.9-5l7-0.7l3.4-6.1l2.9,6.3l6.9,1.3l-5.3,4.6
				L610.8,671.6z"/>
			<path id="path3019-56-76" class="st4" d="M585.4,691.9l-6.1-3.5l-6.4,3l1.5-6.8l-4.9-5l7-0.7l3.4-6.1l2.9,6.3l6.9,1.3l-5.3,4.6
				L585.4,691.9z"/>
			<path id="path3019-56-73" class="st4" d="M559.6,707.1l-6.1-3.5l-6.4,3l1.5-6.8l-4.9-5l7-0.7l3.4-6.1l2.9,6.3l6.9,1.3l-5.3,4.6
				L559.6,707.1z"/>
			<path id="rect3882" class="st4" d="M554.3,158.9h0.6c0.8,0,1.5,0.7,1.5,1.5V175c0,0.8-0.7,1.5-1.5,1.5h-0.6
				c-0.8,0-1.5-0.7-1.5-1.5v-14.7C552.8,159.5,553.5,158.9,554.3,158.9z"/>
			<path id="rect3882-6" class="st4" d="M579.2,173.4h0.6c0.8,0,1.5,0.7,1.5,1.5v14.7c0,0.8-0.7,1.5-1.5,1.5h-0.6
				c-0.8,0-1.5-0.7-1.5-1.5v-14.7C577.7,174,578.3,173.4,579.2,173.4z"/>
			<path id="rect3882-5" class="st4" d="M604.6,187.7h0.6c0.8,0,1.5,0.7,1.5,1.5v14.7c0,0.8-0.7,1.5-1.5,1.5h-0.6
				c-0.8,0-1.5-0.7-1.5-1.5v-14.7C603.1,188.4,603.8,187.7,604.6,187.7z"/>
			<path id="rect3882-63" class="st4" d="M631.2,208.7h0.6c0.8,0,1.5,0.7,1.5,1.5v14.7c0,0.8-0.7,1.5-1.5,1.5h-0.6
				c-0.8,0-1.5-0.7-1.5-1.5v-14.7C629.7,209.3,630.4,208.7,631.2,208.7z"/>
			<path id="rect3882-0" class="st4" d="M656.3,233.2h0.6c0.8,0,1.5,0.7,1.5,1.5v21.4c0,0.8-0.7,1.5-1.5,1.5h-0.6
				c-0.8,0-1.5-0.7-1.5-1.5v-21.4C654.8,233.9,655.5,233.2,656.3,233.2z"/>
			<path id="rect3882-2" class="st4" d="M682.7,263.4h0.6c0.8,0,1.5,0.7,1.5,1.5v26.5c0,0.8-0.7,1.5-1.5,1.5h-0.6
				c-0.8,0-1.5-0.7-1.5-1.5v-26.5C681.2,264.1,681.8,263.4,682.7,263.4z"/>
			<path id="rect3882-67" class="st4" d="M552.8,215h0.6c0.8,0,1.5,0.7,1.5,1.5v89.3c0,0.8-0.7,1.5-1.5,1.5h-0.6
				c-0.8,0-1.5-0.7-1.5-1.5v-89.3C551.3,215.6,552,215,552.8,215z"/>
			<path id="rect3882-07" class="st4" d="M579.8,228.4h0.6c0.8,0,1.5,0.7,1.5,1.5v20.2c0,0.8-0.7,1.5-1.5,1.5h-0.6
				c-0.8,0-1.5-0.7-1.5-1.5v-20.2C578.3,229.1,578.9,228.4,579.8,228.4z"/>
			<path id="rect3882-3" class="st4" d="M553.1,713.9h0.6c0.8,0,1.5,0.7,1.5,1.5v14.7c0,0.8-0.7,1.5-1.5,1.5h-0.6
				c-0.8,0-1.5-0.7-1.5-1.5v-14.7C551.6,714.6,552.3,713.9,553.1,713.9z"/>
			<path id="rect3882-03" class="st4" d="M580.4,700.2h0.6c0.8,0,1.5,0.7,1.5,1.5v14.7c0,0.8-0.7,1.5-1.5,1.5h-0.6
				c-0.8,0-1.5-0.7-1.5-1.5v-14.7C578.9,700.8,579.5,700.2,580.4,700.2z"/>
			<path id="rect3882-673" class="st4" d="M604.6,679.2h0.6c0.8,0,1.5,0.7,1.5,1.5v21.1c0,0.8-0.7,1.5-1.5,1.5h-0.6
				c-0.8,0-1.5-0.7-1.5-1.5v-21.1C603.1,679.9,603.8,679.2,604.6,679.2z"/>
			<path id="rect3882-1" class="st4" d="M631.5,656.2h0.6c0.8,0,1.5,0.7,1.5,1.5v23.2c0,0.8-0.7,1.5-1.5,1.5h-0.6
				c-0.8,0-1.5-0.7-1.5-1.5v-23.2C630,656.9,630.7,656.2,631.5,656.2z"/>
			<path id="rect3882-53" class="st4" d="M655.2,628.4h0.6c0.8,0,1.5,0.7,1.5,1.5V654c0,0.8-0.7,1.5-1.5,1.5h-0.6
				c-0.8,0-1.5-0.7-1.5-1.5v-24.1C653.7,629.1,654.3,628.4,655.2,628.4z"/>
			<path id="rect3882-38" class="st4" d="M681.5,595.8h0.6c0.8,0,1.5,0.7,1.5,1.5v26.5c0,0.8-0.7,1.5-1.5,1.5h-0.6
				c-0.8,0-1.5-0.7-1.5-1.5v-26.5C680,596.4,680.7,595.8,681.5,595.8z"/>
			<path id="rect3882-28" class="st4" d="M553.7,580.2h0.6c0.8,0,1.5,0.5,1.5,1.2v90.3c0,0.7-0.7,1.2-1.5,1.2h-0.6
				c-0.8,0-1.5-0.5-1.5-1.2v-90.3C552.2,580.7,552.9,580.2,553.7,580.2z"/>
			<path id="rect3882-64" class="st4" d="M580.1,606.5h0.6c0.8,0,1.5,0.7,1.5,1.5v50.8c0,0.8-0.7,1.5-1.5,1.5h-0.6
				c-0.8,0-1.5-0.7-1.5-1.5V608C578.6,607.2,579.2,606.5,580.1,606.5z"/>
			<path id="rect3882-9" class="st4" d="M603.4,581.7h0.6c0.8,0,1.5,0.7,1.5,1.5v58c0,0.8-0.7,1.5-1.5,1.5h-0.6
				c-0.8,0-1.5-0.7-1.5-1.5v-58C601.9,582.4,602.6,581.7,603.4,581.7z"/>
			<path id="rect3882-57" class="st4" d="M631.5,581.7h0.6c0.8,0,1.5,0.7,1.5,1.5v35c0,0.8-0.7,1.5-1.5,1.5h-0.6
				c-0.8,0-1.5-0.7-1.5-1.5v-35C630,582.4,630.7,581.7,631.5,581.7z"/>
		</g>
	</g>
</g>
<g id="Layer_2">
</g>
</svg>
