<?xml version="1.0" encoding="utf-8"?>
<!-- Generator: Adobe Illustrator 28.1.0, SVG Export Plug-In . SVG Version: 6.00 Build 0)  -->
<svg version="1.1" id="Layer_1" xmlns="http://www.w3.org/2000/svg" xmlns:xlink="http://www.w3.org/1999/xlink" x="0px" y="0px"
	 viewBox="0 0 850.4 850.4" style="enable-background:new 0 0 850.4 850.4;" xml:space="preserve">
<style type="text/css">
	.st0{fill:#C6C5C4;stroke:#000000;stroke-width:5;}
	.st1{fill:#E2E2E2;}
	.st2{fill:url(#path7998_00000158017434828040530120000003007607036797634211_);}
	.st3{fill:url(#path7998-6_00000069364063875215676850000014147815252944440741_);}
	.st4{fill-opacity:0.3137;}
	.st5{fill-opacity:0.1294;}
	.st6{fill-opacity:0.3246;}
</style>
<g id="layer2" transform="translate(-137.24 -270.45)">
	<g id="g4234" transform="translate(-149.29 -258.57)">
		<path id="path3165" class="st0" d="M1121.5,954.4c0,224.4-183.3,406.2-409.5,406.2s-409.5-181.9-409.5-406.2
			s183.3-406.2,409.5-406.2S1121.5,730,1121.5,954.4z"/>
		<path id="path3167" class="st1" d="M1105.2,952.2c0,214.2-174.7,387.8-390.2,387.8s-390.2-173.6-390.2-387.8
			c0-214.2,174.7-387.8,390.2-387.8S1105.2,738,1105.2,952.2z"/>
		
			<linearGradient id="path7998_00000142876993896126843030000005925515039833524148_" gradientUnits="userSpaceOnUse" x1="395.9479" y1="607.1944" x2="3098.0884" y2="607.1944" gradientTransform="matrix(0.2187 0 0 -0.362 331.7602 1174.3174)">
			<stop  offset="0" style="stop-color:#D0C27B"/>
			<stop  offset="1" style="stop-color:#D0C27B;stop-opacity:0.7778"/>
		</linearGradient>
		<path id="path7998" style="fill:url(#path7998_00000142876993896126843030000005925515039833524148_);" d="M1009.4,954.5
			c0,162.4-132.3,294.1-295.5,294.1s-295.5-131.7-295.5-294.1c0-162.4,132.3-294.1,295.5-294.1S1009.4,792.1,1009.4,954.5z"/>
		
			<linearGradient id="path7998-6_00000095337281541658965160000005339526489311870609_" gradientUnits="userSpaceOnUse" x1="395.3798" y1="520.3192" x2="3098.5254" y2="520.3192" gradientTransform="matrix(0.2187 0 0 -0.362 331.7602 1174.3174)">
			<stop  offset="0" style="stop-color:#E6E6E6"/>
			<stop  offset="1" style="stop-color:#CCCCCC;stop-opacity:0.7459"/>
		</linearGradient>
		<path id="path7998-6" style="fill:url(#path7998-6_00000095337281541658965160000005339526489311870609_);" d="M1009,969.7
			c-2.5,5.1-4.1,10.7-4.6,16.9c-0.3,5.7,0.2,10.8,1.1,15.5C1007.3,991.5,1008.4,980.7,1009,969.7L1009,969.7z"/>
		<path id="path9175" class="st4" d="M1049.7,945.2c-24.2,0-43.3,17-45.3,41.4c-1.4,28.7,15.1,45.1,33.4,45.4
			c20.3-0.2,36.1-10.7,43.4-40.6C1079.9,990.9,1087.1,952.2,1049.7,945.2L1049.7,945.2z M1044.2,950.1c1.4,0,2.9,0,4.4,0.3
			c23.6,10.8,19.9,20,19.7,39.6c-3.6,17.2-10.7,39.2-31,35.9c0,0-26.8-1.1-20.9-41.3C1021.7,963.1,1030.6,950.5,1044.2,950.1
			L1044.2,950.1z"/>
		<path id="path7759" class="st5" d="M749.4,942.9c5.9,0.2,11.5-2.7,17.3-3.9c2.5-0.5,4.9-0.9,7.4-1.5c1.8-0.4,3.5-1.4,5.4-1.5
			c2.7,0,5.4,0.9,7.9,1.9c1.2,0.5,2.3,2.6,3.5,1.9c1.3-0.7,0.1-2.9,0-4.4c-0.1-2-1.7-4.3-0.5-5.8c1.1-1.4,3.7-0.3,5.4-1
			c2.1-0.8,5.1-1.3,5.9-3.4c0.6-1.6,1.5-4.9-1.5-4.9s-7.2,0.4-10.4-1c-1.8-0.8-3.9-2-4.4-3.9c-1.1-3.7,3.9-7.4,3-11.2
			c-1-4-6.8-5.4-8.4-9.2c-1-2.2,0.2-5-0.5-7.3c-0.6-2-1.9-3.6-3-5.3c-1.4-2.3-4.3-4.1-4.4-6.8c-0.2-3.8,3.5-9.7,5.4-10.2
			c2-0.5,4.8-2,4.4-3.9c-0.6-3-5.8-2.9-8.9-2.9c-1.2,0-2.4,1.5-3.5,1c-1-0.6-1.3-2.3-1-3.4c0.6-2.6,5.9-3.2,5.4-5.8
			c-0.3-1.6-2.7-2.3-4.4-2.4c-1.8-0.1-3.5,0.9-4.9,1.9c-2.3,1.6-3.7,4.1-5.4,6.3c-0.9,1.1-2.5,2-2.5,3.4c0,1.3,2.5,1.7,2.5,2.9
			c-0.1,2.1-3.2,2.7-4.4,4.4c-0.8,1-2.4,2.2-2,3.4c0.5,1.3,2.8,0.7,3.9,1.5c1.2,0.9,2.7,1.9,3,3.4c0.3,1.5-1.2,2.9-1.5,4.4
			c-0.1,0.8-0.4,1.7,0,2.4c0.6,0.9,2.6,0.4,3,1.5c0.5,1.5-3.2,3.3-2,4.4c2.2,1.9,4.6-3.6,7.4-4.4c0.8-0.2,1.8-0.5,2.5,0
			c1.2,0.9,0.8,2.9,1,4.4c0.2,1.5,0,2.4,0,4.4c0,1.9-0.3,4.6,0,6.8c0.2,1.5,1.3,2.9,1,4.4c-0.5,2.2-2.1,4.1-3.9,5.3
			c-1.5,1-3.6,0.9-5.4,1.5c-1.3,0.4-3.4,0.2-3.9,1.5c-0.8,1.9,2.9,3.8,2.5,5.8c-0.4,2-2.5,3.6-4.4,4.4c-2,0.8-5.2-1.7-6.4,0
			c-0.6,0.8,0.1,2.3,1,2.9c2.7,1.8,6.6-0.8,9.9-0.5c2.5,0.3,5.8-0.1,7.4,1.9c0.8,1,0.2,2.6,0,3.9c-0.2,1-0.2,2.3-1,2.9
			c-3.4,2.8-9.3,0-13.3,1.9c-3,1.4-8.2,3.6-7.4,6.8C746.3,943,748.2,942.8,749.4,942.9L749.4,942.9z"/>
		<path id="path4129" class="st5" d="M942.4,700.9c-1.2,0.1-2.4,0.4-3.5,0.7c-2.3,0.6-4.3,1.9-6.2,3.3l0.5,0.1l-6.1,5.3l1.1,7.9
			l-7.1-4l-3.2,1.5c-2.4,1.8-4.7,3.6-7.2,5.4c-3,2.1-6.4,3.8-9.1,6.3c-6.6,6.1-12,13.5-17,20.9c-2.5,3.6-5.3,7.2-6.4,11.4
			c-0.6,2.1,1,4.6,0,6.6c-0.9,1.8-4.5,1.5-4.9,3.4c-0.3,1.3,2,2.4,2,3.6c0,1.2,1,4.1,1,5.1c0,1-3.1,0.4-3.9,1.5
			c-0.4,0.5-0.3,1.3-0.2,1.9c0.1,1.2,1.7,2.5,1,3.4c-1.2,1.6-4.3-1-6.1,0c-3.3,1.8-3.6,6.7-6.2,9.5c-3.2,3.4-7.4,5.6-11.1,8.5
			c-5.4,4.4-13.5,6.9-16,13.4c-0.6,1.6,1.7,3.6,0.7,5.1c-0.5,0.9-2.3,0.2-3,1c-1.5,1.7-1,4.5-1.2,6.8c-0.2,1.9-1.4,4.5,0,5.9
			c1.4,1.4,4.9-1.6,6.1,0c0.5,0.6-0.3,1.5-0.5,2.2c-0.3,1.2-0.6,2.6-1.3,3.6c-0.3,0.5-0.8,0.8-1.2,1.2c-0.6,0.5-1.8,0.7-2,1.5
			c-0.2,0.9,0.7,1.9,1.5,2.4c0.8,0.6,2.4-0.1,3,0.7c1,1.6-1.1,3.7-1,5.6c0.1,1.9-0.2,4.6,1.5,5.6c2.3,1.3,5.4-0.7,7.7-2.2
			c1-0.6,1.5-1.8,2.2-2.7c0.8-1,1.5-2,2.5-2.9c2-1.9,4.8-3,6.6-5.1c1.6-1.8,1-6.4,3.5-6.3c1.7,0.1,1.4,3,2,4.6
			c0.5,1.3,0.5,2.7,1.2,3.9c0.9,1.4,2.7,2,3.7,3.4c2.6,3.7,3.3,8.4,4.9,12.6c0.8,2.2,1.6,4.4,2.5,6.6c1.2,2.9,3.2,6.8,3.7,8.5
			c0.5,1.7,2.6,2.8,3.2,4.6c0.7,2.2,0.3,6.1,0.3,7.1c0,1,0.3,1.7,1,1.9c1.1,0.3,2.3-0.8,3-1.7c1.5-1.9,0.8-4.9,2-7
			c0.5-1,1.4-1.9,2.2-2.7c1.3-1.3,3.4-1.9,4.4-3.4c0.9-1.3,1.2-3,1.5-4.6c0.6-3.8,0.1-7.6,0-11.4c-0.1-2.2-1.4-4.6-0.5-6.6
			c0.6-1.3,2.3-1.7,3.5-2.7c1.2-1,2.3-2.1,3.5-3.1c0.9-0.8,1.9-1.4,2.7-2.2c1.3-1.3,2.7-2.7,3.2-4.4c0.4-1.2,0.8-2.7,0-3.6
			c-0.4-0.4-1.4,0.2-1.7-0.3c-0.3-0.4,0.2-1,0.2-1.4c0.1-0.7,0.3-1.3,0.2-2c0-0.6,0-1.3-0.5-1.7c-1.3-1.1-3.7,0.2-5.2-0.7
			c-1.5-0.9-2.1-2.8-2.7-4.4c-0.5-1.3-0.7-2.7-0.7-4.1c0-1.7,0.8-3.2,1-4.9c0.2-1.8-0.2-3.8,0.3-5.6c0.5-1.8,1.8-3.3,2.5-5.1
			c0.4-1.2,0.5-2.5,1-3.7c0.6-1.5,1.5-3,2.5-4.4c1.1-1.7,2.6-3.2,3.7-4.9c0.7-1.1,1.5-2.2,2-3.4c0.5-1.3,0.4-2.8,1-4.1
			c0.5-1,1.3-1.8,2-2.7c1-1.3,2.7-2.1,3.2-3.7c0.3-0.9,0.2-2.1-0.3-2.9c-0.2-0.4-0.8-0.4-1-0.7c-0.7-1-0.9-2.4-0.7-3.6
			c0.1-1.1,0.9-2,1.5-2.9c1.1-1.8,3-3.2,3.9-5.1c0.5-1.1,0.5-2.3,1-3.4c0.3-0.7,0.9-1.2,1.2-1.9c0.9-1.8,0.4-4.4,2-5.6
			c1.2-0.9,3-0.2,4.4-0.5c0.8-0.2,1.6-1,2.4-0.7c2.5,0.8,3.4,3.9,4.8,6.1c1.5,2.3,3.4,4.6,3.9,7.3c0.4,1.9-0.1,3.9-0.5,5.8
			c-1,4.4-3.1,8.5-4.9,12.6c-1.3,3-2.5,6.1-4.4,8.8c-1.8,2.5-5.1,4-6.4,6.8c-1.9,4-2.2,8.8-1.5,13.1c1.1,6.4,3.2,13.6,8.4,17.5
			c2.8,2.1,7,2.9,10.4,1.9c3.2-0.9,4.6-4.9,7.4-6.8c3.5-2.3,7.3-4.4,11.3-5.3c2.1-0.5,4.3-0.3,6.4,0c3.7,0.5,8,0.5,10.8,2.9
			c1.2,1,1.6,2.8,2,4.4c0.3,1.6,0.8,3.5,0,4.9c-2.5,4.2-8.2,5.7-12.8,7.3c-2,0.7-4.3,0.8-6.4,1c-4.9,0.5-11.8-3.4-14.8,0.5
			c-0.8,1.1,0.4,2.7,1,3.9c1.2,2.3,4.1,3.5,4.9,5.9c0.8,2.1-0.5,4.4,0,6.8c0.5,2.4,2.8,1.8,3.9,2.9c2.3,2.3,7.4,4.9,5.9,7.8
			c-0.7,1.3-3,0.3-4.4,0c-1.8-0.4-3.2-1.9-4.9-2.4c-2.7-0.8-5.6-1-8.4-1c-3.2,0.1-7.2-0.8-9.4,1.5c-2.1,2.3-0.8,6.2-0.5,9.2
			c0.3,3.6,0.7,7.5,2.5,10.7c1.7,3.1,6.4,4.4,7.4,7.8c0.4,1.4-0.3,3-1,4.4c-1.4,2.8-3.6,5.2-5.9,7.3c-2,1.8-4.2,3.9-6.9,4.4
			c-3.7,0.6-7.2-1.8-10.8-2.4c-5.4-0.9-10.8-2.3-16.3-2c-6.8,0.4-17.7,4.9-19.7,4.9c-2,0-8.4,2.4-10.4,2.4c-2,0-4.4,2.3-6.4,1.5
			c-3.9-1.6-4.9-6.8-6.4-10.7c-1.2-3.2-2.3-6.8-2-10.2c0.2-2.8,2.2-5.1,3-7.8c0.9-2.9,2.4-5.8,2-8.7c-0.3-2.4-1.3-5.2-3.5-6.3
			c-2.1-1-5-0.4-6.9,1c-2.9,2.1-4.1,6.2-4.4,9.7c-0.3,3,1.4,5.8,2,8.7c0.8,3.9,0.7,7.9,2,11.7c1.5,4.5,7.6,8.1,6.4,12.6
			c-0.5,1.7-3.2,1.6-4.4,2.9c-1.8,1.9-1.7,5.4-3.9,6.8c-2,1.2-4.6,0.4-6.9,0.5c-1.5,0.1-3,0.3-4.4,0c-2.9-0.7-6-6.1-7.9-3.9
			c-1.8,2.1,5.4,4.1,4.9,6.8c-0.4,2.2-3.6,2.6-5.4,3.9c-3.6,2.6-6.9,5.7-10.8,7.8c-2.3,1.2-5.6,2.5-9.3,3.7
			c13.5,0,26.7,0.2,26.7,0.8l-0.1,7.4l0.1,10.2c-1.5,0.9-3.1,1.7-4.6,0.4l-0.9-9l-1.7-4.1l-6.3-0.3h-10.1l-9.1,1.4l-5.2,30.9
			l2.4,0.7h5.2l9.1-1l3.1-1.4l2.4-3.1l3.1-5.1h1.4l1.7,3.1l-4.5,9.6l0.7,13.1l-2.4,2.4l-2.4-2.4v-9.3l-1.4-1.4H798l-3.5,1.4l-3.8,22
			l-1.4,7.9l2.8,3.4l2.8,1.4h13.6l9.7-1.4l4.5-2.1c0,0,3.5-1.6,4.5-3.1c1.7-2.4-0.3-6.8,2.1-8.6c0.5-0.4,1.5-0.4,2.1,0
			c1.1,0.7,1.6,2.2,1.7,3.4c0.2,2-0.9,3.9-1.4,5.9c-0.5,2-1.7,5.9-1.7,5.9l-6.3,4.1l-9.4,0.7l-13.6-0.7H789c0,0-8.1-0.1-12.2-0.3
			c-3.4-0.2-9.4,2.6-10.1-0.7c-0.5-2.4,4.5-2.2,6.6-3.4c1.1-0.6,2.3-1.2,3.1-2.1c1.1-1.1,1.9-2.4,2.4-3.8c7.5-20.3,9-63.6,9.1-65.4
			c0,0-0.1,0.1-0.3,0.1c-2.8,1.1-7.5,2.5-10.1,3.9c-3.3,1.8-5.9,4.8-9.4,6.3c-1.4,0.6-2.9,1.2-4.4,1c-2.8-0.5-4.6-3.6-7.4-4.4
			c-1.7-0.5-3.6-0.2-5.4,0c-1.2,0.2-2.5,0.2-3.5,1c-1.7,1.4-3.1,3.7-3,5.8c0.1,1.2,1.2,2,2,2.9c1.9,2.1,4.2,3.6,6.4,5.4
			c2.9,2.3,6.4,4,8.9,6.8c0.9,1,1.4,2.2,2,3.4c1.5,3.3,3,6.7,3.5,10.2c0.3,2.1-0.5,4.4-0.5,6.3c0,1.9-0.1,5.3-1,7.8
			c-1.3,3.6-3.5,6.8-5.9,9.7c-2.3,2.8-4.4,6.3-7.9,7.3c-1.8,0.5-3.7-0.4-5.4-1c-2.7-0.8-5.2-2.3-7.9-3.4c-3.3-1.4-6.5-2.8-9.9-3.9
			c-2.3-0.8-4.6-1.3-6.9-1.9c-4.4-1.2-8.8-3-13.3-3.4c-2.9-0.3-5.9,0.1-8.9,0.5c-1.7,0.2-4.2-0.5-4.9,1c-1.1,2.3,3.4,4.3,3.5,6.8
			c0.1,2.5-1.4,4.9-3,6.8c-1.5,1.9-4.7,2.3-5.9,4.4c-0.7,1.1-0.2,2.6-0.5,3.9c-0.6,2.7-0.9,5.5-2.5,7.8c-0.7,1.1-1.9,1.6-3,2.4
			c-1.9,1.5-4.6,2.4-5.9,4.4c-2.2,3.3-2.2,7.7-3,11.7c-0.2,1.1-0.3,2.3-0.5,3.4c-0.5,2.9-1.1,5.8-1.5,8.8c-0.2,1.8-1.3,3.7-0.5,5.3
			c2.3,4.7,12.3,6.8,13.3,8.7c1,1.9,4.6,5,7.4,6.8c1.5,0.9,3.2,1.5,4.9,2c3.4,0.8,6.9,0.8,10.4,1c4.4,0.2,8.9-0.1,13.3,0
			c5.9,0.1,12.1,2.1,17.7,0.5c2.8-0.8,4.8-3.5,7.4-4.9c2.2-1.2,4.8-1.6,6.9-2.9c2.4-1.5,4-4.9,6.4-5.4c2.5-0.5,0.5-3.9,0.5-5.8
			c0-2.6-1.1-5.3-0.5-7.8c0.6-2.5,2.5-4.6,3.9-6.8c1.5-2.2,2.6-5,4.9-6.3c1.7-1,3.4,0,5.9-1c2.5-1,5.1-3.4,7.9-4.9
			c2.2-1.1,4.6-2,6.9-2.9c1.8-0.7,4.4-0.4,5.4-2c1.3-1.9-0.6-4.5-0.5-6.8c0.2-2.3-0.3-5.3,1.5-6.8c2.6-2.3,6.9-0.9,10.4-1
			c2.6,0,5.3,0.8,7.9,0.5c4.8-0.6,9.8-1.7,13.8-4.4c1.9-1.3,2.8-3.7,4.4-5.4c2.6-2.6,4.8-6.4,8.4-7.3c2.6-0.6,6.2-0.2,7.9,2
			c1.7,2.2-1.1,5.7,0,8.3c0.5,1.3,2,2,3,2.9c1,1,2,1.9,3,2.9c1.5,1.5,3.1,2.8,4.4,4.4c1.5,1.7,2.6,3.6,3.9,5.4
			c1.3,1.6,2.3,3.5,3.9,4.9c1.7,1.4,4.2,1.5,5.9,2.9c2.1,1.7,2.8,4.7,4.9,6.3c1.8,1.4,4.3,1.6,6.4,2.4c1.2,0.5,2.4,0.8,3.5,1.5
			c1,0.6,1.6,1.7,2.5,2.4c1.7,1.5,3.5,3.1,5.4,4.4c2.8,1.9,6.1,2.9,8.9,4.9c2,1.4,4.4,2.7,5.4,4.9c0.6,1.3,0.2,2.9,0,4.4
			c-0.2,2-1,3.9-1.5,5.9c-0.4,1.8-2.2,4-1,5.3c0.6,0.7,2,0,3,0c2.5,0,2.5-1.4,3.5-2.4c2-2.1,3.9-4.5,4.4-7.3c0.4-1.9-0.1-4.1-1-5.8
			c-0.6-1.2-2.4-1.7-3-2.9c-0.8-1.6-1.5-3.9-0.5-5.4c0.6-0.9,1.9-1.1,3-1c1.2,0.2,1.8,1.6,3,2c3,1.1,6.9,2.9,9.4,1
			c0.9-0.7,1-2.4,0.5-3.4c-1.9-3.6-7.1-4.1-10.8-5.9c-2.9-1.3-6.4-1.5-8.9-3.4c-2.5-1.9-2.8-6-5.4-7.8c-3.5-2.4-8.6-0.9-12.3-2.9
			c-3.2-1.8-6.1-4.5-7.9-7.8c-1.6-2.9-0.3-6.9-2-9.7c-0.1-0.2-0.2-0.3-0.3-0.5c-3.3,0.5-6.6,0.6-9.9,0.1c-5.2-0.5-9.4-2.6-13.3-5.1
			c-2.7-2.3-4.6-5.9-6.3-9.8c0.3-9.3,0.8-18.6,2.1-27.6l4.8-31.2c0.7-3,0.2-4.7-1.4-5.1l-6.3-0.4l-0.1-1.7l1.6-1.5l12.3,0.4
			l10.5-0.1h5.5l0.7,1.4l-0.4,1.5c0,0-1,0.1-1.6,0.1h-2.4l-3.8,0.7l-2.2,1.4l-0.4,0.9l-0.7,4.4l-6.9,45.7l-0.5,6.6l0.2,5.5l2,4
			l6.6,4.1l2.8,0.2c-0.2-0.3-0.5-0.5-0.7-0.8c-1.6-2.3-3.2-5-3-7.8c0.1-2,2.1-3.5,3-5.4c1.3-2.7,0.8-6.8,3.5-8.3
			c2.3-1.3,5.4,0.1,7.9,1c1.8,0.6,3.2,2.1,4.9,2.9c2.4,1.1,5.4,0.8,7.4,2.4c0.6,0.5,1.2,1.1,1.7,1.7l1.4-3.6l2.4-12.6l2.8-17.4
			l1.6-8.5c0.1-4.1,0-4.4,0.1-6.7l0.3-4.3l-0.1-2.7l-0.2-2.3l-1.7-0.7h-3.6l-2-0.6l-0.4-1.7l0.1-1.3l1.9-0.3l7.5,0.1l8.8,0.1
			l4.3,0.1l0.1,2.1l-0.5,1.2c-1.4-0.1-2.7-0.1-4.1,0.1c-2.6,0.6-2.6,3.3-3.7,5.1l-3.6,15.4l-6.6,36.7l-2.4,5.6
			c0.9,2,1.8,4.1,2.9,5.9c1.1,1.8,1.9,3.9,3.5,5.3c1.8,1.6,4.3,2.2,6.4,3.4c4.4,2.7,8.6,5.7,12.8,8.7c3.4,2.5,8.5,3.9,9.9,7.8
			c0.7,1.9-1.6,3.8-1.5,5.8c0.1,2.9,1.9,5.5,3,8.3c0.8,2.1,1.5,4.3,2.5,6.3c1,2.3,2,4.7,3.5,6.8c2.2,3.2,7.4,6.8,7.9,8.8
			c0.5,1.9-1.3,2.3-1,3.4c0.6,2.2,4,2.7,4.9,4.9c0.8,1.8-0.8,4,0,5.8c1.1,2.5,3.3,4.9,5.9,5.9c3,1,6.6,0.5,9.4-1
			c1.8-1,3.1-3,3.9-4.9c0.6-1.4,0.4-2.9,0.5-4.4c0.1-1.9,0.6-4,0-5.9c-0.6-2-2.5-3.4-3.5-5.3c-1.1-2.3-1.5-4.9-2.5-7.3
			c-0.9-2.2-2.7-4-3-6.3c-0.2-2.2-0.5-5.5,1.5-6.3c1.8-0.7,3,3.1,4.9,2.9c2-0.2,2.8-2.8,4.4-3.9c2.4-1.6,5.7-2,7.9-3.9
			c1.1-0.9,1.1-3,2.5-3.4c1.3-0.4,2.7,0.9,3.9,1.5c1.5,0.7,2.8,2.1,4.4,2.4c2.9,0.7,6.2,0.8,8.9-0.5c1.9-0.9,2.3-3.6,3.9-4.9
			c2.3-1.7,6.1-1.2,7.9-3.4c1.1-1.4,1.6-3.6,1-5.4c-1.6-4.4-8.9-5-10.8-9.2c-1.6-3.5-0.2-7.8,0-11.7c0.2-3.5,0.1-7.2-0.2-11
			c-2.4-6.3-3.6-13.9-3.2-22.6c1.9-22.5,18.2-38.7,39.7-41.1c-0.7-12.1-2.4-24.2-4.3-36.3c-2.2-14.5-4.6-29.1-8.4-43.3
			c-1.6-6-3.8-11.7-5.9-17.5c-3.3-9.3-6.4-18.7-10.4-27.7c-1.4-3.1-2.9-6-4.5-9l-6.3,2.9l1.7-7.8l-5.7-5.8l4.7-0.5
			c-2.6-5.8-5-11.7-8.2-17.3c-2.1-3.7-4.3-7.2-6.6-10.8l0.3,2.1l-7.1-4l-7.4,3.4l1.7-7.8l-5.7-5.8l8.2-0.8l0.3-0.6
			c-0.1-0.2-0.3-0.4-0.4-0.5c-4.2-5.5-8.5-11.1-13.8-15.6c-2.2-1.8-4.6-4.3-7-6.7l0.5,4l-7.1-4l-7.4,3.4l1.7-7.8l-5.7-5.8l3.6-0.4
			c-1.2-0.3-2.5-0.4-3.7-0.1c1.1-1.7,2.5-3,4.4-2.8c3.3,0.3,1.5-0.9,1.7-1.7c0.5-1.6-0.2-3.3-0.8-4.9c-1-2.5-4.5-3.9-4.4-6.6
			c0-1.2,1.7-1.8,2.2-2.9c0.7-1.5,2-3.6,1-4.9C944.7,701,943.6,700.9,942.4,700.9L942.4,700.9z"/>
		<path id="path4125" class="st5" d="M1044.2,950.1c-11.7,0.3-19.9,9.6-25.3,25.8c1.1,0,2.1,0.1,3.1,0c3.1-0.3,6.3,0.1,9.4-0.5
			c4.3-0.8,9.8-0.9,12.3-4.4C1047.8,965.4,1045,957.3,1044.2,950.1C1044.3,950.1,1044.3,950.1,1044.2,950.1L1044.2,950.1z"/>
		<path id="path7761" class="st5" d="M713.9,913.2c-1.8-2.8-0.5-7.5,2-9.7c2.5-2.4,7-0.4,10.4-1.5c1.4-0.4,3.7-0.5,3.9-1.9
			c0.2-1.1-1.4-1.9-2.5-2.4c-2.1-1-5.6,0.9-6.9-1c-1.7-2.5-0.4-6.9,2-8.8c1.5-1.2,4.1-0.8,5.9,0c1.2,0.5,1.2,2.6,2.5,2.9
			c1.7,0.4,3.9-0.5,4.9-1.9c1.3-1.9-1.6-5.2,0-6.8c1.5-1.5,4.3-0.5,6.4,0c2.3,0.5,5.1,1,6.4,2.9c1.3,2,1.1,5.1,0,7.3
			c-0.8,1.7-3.6,1.7-4.4,3.4c-1.2,2.5,0.1,5.5,0,8.3c-0.1,2.4,1.1,5.4-0.5,7.3c-1.9,2.2-5.6,1.4-8.4,1.9c-4.1,0.8-8.2,2-12.3,1.9
			C720.1,915.1,715.7,915.8,713.9,913.2L713.9,913.2z"/>
		<path id="path7745" class="st5" d="M788.9,1070.8c-1.1,0-2.1,0.7-3,1.5c-0.7,0.6-1.5,1.5-1.5,2.4c0,1.5,1.3,2.9,2.5,3.9
			c1.9,1.7,4.5,4.2,6.9,3.4c1.7-0.6,1.8-3.2,2.5-4.9c0.4-0.9,1.4-2,1-2.9C796,1071.4,791.9,1070.6,788.9,1070.8L788.9,1070.8z"/>
		<path id="path7747" class="st5" d="M849,1053.7c1.7-1.6,1.1-4.5,1.5-6.8c0.3-2.1,1.2-4.3,0.5-6.3c-0.2-0.6-0.8-1.2-1.5-1.5
			c-1.8-0.7-4.3-1.1-5.9,0c-1.8,1.2-2.1,3.8-2.5,5.8c-0.4,2.4-0.7,5.2,0.5,7.3c0.6,1,1.8,1.7,3,1.9
			C846,1054.6,847.9,1054.7,849,1053.7L849,1053.7z"/>
		<path id="path7749" class="st5" d="M852.5,1065.9c0.1,1-1.6,1.5-2,2.4c-0.6,1.7,0.2,3.6,0,5.3c-0.2,1.3-1,1.9-1,3.9
			c0,1.9,0.3,3.8-1,4.9c-1.3,1-3.3,0-4.9,0c-1.2,0-3.5,2.4-3.5,0c0-2.4-0.1-4.2,0-6.3c0.1-2.3-0.1-4.6,0.5-6.8
			c0.6-2.4,1.1-5.2,3-6.8c0.9-0.8,2.3-1.2,3.5-1C849.3,1062,852.2,1063.6,852.5,1065.9L852.5,1065.9z"/>
		<path id="path7755" class="st5" d="M903.7,1096.1c2.2,2.2-0.1,6.2-0.5,9.2c-0.2,1.6,0.2,3.7-1,4.9c-1.6,1.5-4.2,1-6.4,1
			c-2.8,0-5.6-0.7-8.4-1.5c-2.7-0.7-5.8-1-7.9-2.9c-1.5-1.3-1.9-3.5-2.5-5.3c-0.4-1.4-1.1-3-0.5-4.4c0.5-1.1,1.5-1.9,3-1.9
			c1.5,0-2.5-1,5.9,0c8.4,1,6.2,0.8,9.4,1C897.8,1096.2,901.7,1093.9,903.7,1096.1L903.7,1096.1z"/>
		<path id="path7757" class="st5" d="M1023.5,1078.1c-0.1,3.3-3.8,6-6.9,7.3c-2.6,1.1-5.6,0-8.4,0c-2.6,0-5.9,2.4-7.9,0
			c-2-2.4-5.1-2.8-4.4-4.9c0.7-2.4,4.9-1.4,7.4-1.9c3.1-0.7,6.9-1,9.4-1.9c2.5-1,5.3-2.8,7.9-1.9
			C1022,1075.1,1023.5,1076.6,1023.5,1078.1L1023.5,1078.1z"/>
		<path id="path7763" class="st5" d="M908.6,865.5c-1.6,2.5-0.8,5.9,0,8.8c0.3,0.9,0.5,2.3,1.5,2.4c1.7,0.2,2.7-2.3,3.5-3.9
			c1.2-2.5,1.6-5.5,1.5-8.3c0-0.7,0.1-1.7-0.5-1.9C912.6,861.7,909.8,863.7,908.6,865.5L908.6,865.5z"/>
		<path id="path7765" class="st5" d="M869.2,891.8c-0.7,0.7,0,1.9,0,2.9c0,1.1-0.6,2.5,0,3.4c0.7,1,2.2,1.7,3.5,1.5
			c1.5-0.3,2.4-2,3-3.4c0.6-1.5,1.6-3.7,0.5-4.9C874.5,889.7,870.8,890.1,869.2,891.8L869.2,891.8z"/>
		<path id="path7769" class="st5" d="M858.4,894.2c-0.9,1.9-0.5,4.8,1,6.3c0.6,0.6,1.7,0.7,2.5,0.5c1.1-0.3,2-1.4,2.5-2.4
			c0.6-1.3,0.5-3,0-4.4c-0.3-1-0.9-2.3-2-2.4C860.8,891.5,859,892.8,858.4,894.2L858.4,894.2z"/>
		<path id="path3019-4" class="st6" d="M928.1,718.3l-7.1-4l-7.4,3.4l1.7-7.8l-5.7-5.8l8.2-0.8l3.9-7l3.3,7.3l8.1,1.5l-6.1,5.3
			L928.1,718.3z"/>
		<path id="path3019-1" class="st4" d="M959.8,740.3l-7.1-4l-7.4,3.4l1.7-7.8l-5.7-5.8l8.2-0.8l3.9-7l3.3,7.3l8.1,1.5l-6.1,5.3
			L959.8,740.3z"/>
		<path id="path3019-56" class="st4" d="M990.5,774.6l-7.1-4l-7.4,3.4l1.7-7.8l-5.7-5.8l8.2-0.8l3.9-7l3.3,7.3l8.1,1.5l-6.1,5.3
			L990.5,774.6z"/>
		<path id="path3019-56-2" class="st4" d="M1018.9,815.2l-7.1-4l-7.4,3.4l1.7-7.8l-5.7-5.8l8.2-0.8l3.9-7l3.3,7.3l8.1,1.5l-6.1,5.3
			L1018.9,815.2z"/>
		<path id="path7994-4" class="st4" d="M834.5,963.7l-0.1-10.2l0.1-7.4c0-1.2-55.1-0.6-55.1-0.6s-1.9,1.6-2.1,2.8
			c-0.2,1.2,0.2,2.6,1,3.4c0.9,0.9,3.8,1,3.8,1l5.9-0.3c0,0-1.4,44.9-9.1,65.7c-0.5,1.4-1.4,2.7-2.4,3.8c-0.9,0.9-2.1,1.4-3.1,2.1
			c-2.1,1.3-7.1,1-6.6,3.4c0.7,3.3,6.7,0.5,10.1,0.7c4.1,0.2,12.2,0.3,12.2,0.3H801l13.6,0.7l9.4-0.7l6.3-4.1c0,0,1.2-3.9,1.7-5.8
			c0.5-1.9,1.6-3.9,1.4-5.8c-0.2-1.3-0.6-2.8-1.7-3.4c-0.6-0.4-1.5-0.4-2.1,0c-2.3,1.8-0.4,6.2-2.1,8.6c-1,1.5-4.5,3.1-4.5,3.1
			l-4.5,2.1l-9.8,1.4h-13.6l-2.8-1.4l-2.8-3.4l1.4-7.9l3.8-22l3.5-1.4H815l1.4,1.4v9.3l2.4,2.4l2.4-2.4l-0.7-13.1l4.5-9.6l-1.7-3.1
			h-1.4l-3.1,5.2l-2.4,3.1l-3.1,1.4l-9.1,1h-5.2l-2.4-0.7l5.2-31l9.1-1.4h10.1l6.3,0.3l1.7,4.1l0.9,9
			C831.4,965.4,833,964.6,834.5,963.7L834.5,963.7z"/>
		<path id="path7996" class="st4" d="M852.9,947.1l12.3,0.4l10.5-0.1h5.5l0.7,1.5l-0.4,1.5c0,0-1,0.1-1.6,0.1h-2.3l-3.8,0.7
			l-2.2,1.5l-0.4,0.9l-0.7,4.4l-6.9,45.7l-0.5,6.6l0.2,5.5l2,4l6.7,4.1l9.5,0.7l7.8-1.8l4.7-4l3.9-4.9l3-7.5l2.3-12.6l2.8-17.4
			l1.6-8.5c0.1-4.1,0-4.4,0.1-6.7l0.2-4.3l-0.1-2.7l-0.2-2.3l-1.7-0.7h-3.6l-2-0.6l-0.4-1.7l0.1-1.3l1.8-0.2l7.5,0.1l8.7,0.1
			l4.3,0.1l0.1,2.1l-0.5,1.2c-1.4-0.1-2.7-0.1-4.1,0.1c-2.6,0.6-2.6,3.3-3.7,5.1l-3.6,15.4l-6.7,36.7l-5.5,13.1
			c-3.7,4.2-7.8,6.2-12.1,7.2c-4.9,1.2-9.9,1.8-14.8,1.1c-5.2-0.5-9.4-2.6-13.3-5.1c-2.7-2.3-4.6-5.9-6.3-9.8
			c0.3-9.3,0.8-18.6,2.1-27.6l4.8-31.2c0.7-3,0.2-4.7-1.4-5.1l-6.3-0.4l-0.1-1.7L852.9,947.1z"/>
		<path id="path9170" class="st4" d="M935.7,946.9c-1.2,0.9-2,2-1.4,3.8l7.1,2.1l-9.8,67.2c-0.1,0.6,0.1,1.3-0.3,1.7
			c-0.3,0.4-0.6,0.3-1.5,0.7c-1.8,0.9-4.9,2.4-6.5,3.7c-0.5,0.4,0.4,2.1,1.1,2.2c12.2,2.3,27.9,0.1,28.4,0.6l0.5-2.8l-9.1-1.9
			c-1.2-0.2-2.4-2-2.1-3.3c2.6-11.2,4.8-33.2,7.1-33.5l4,1.7c2.2,1.2,2.7,2,3.1,1.9c0,0,7.5,28.4,18.8,36.1
			c4.3,2.9,10.6,3.3,15.5,1.7c1.1-0.3,2.7-1.2,2.5-2.2c-0.2-1.2-2.4-1-3.5-1.5l-8-3.3l-16.5-33.4c22.8-11.4,23.6-30.5,6.1-40.1
			L935.7,946.9L935.7,946.9z M952.8,1028.9L952.8,1028.9C952.8,1028.9,952.8,1028.9,952.8,1028.9z M959.5,951.2
			c1.4,0,2.8,0.2,3.7,0.2c2.5,0.1,5.1,0.1,7.1,1.5c2.3,1.7,3.5,4.3,4,7.1c0.6,2.9,0,5.9-0.5,8.8c-0.7,3.5-1.2,7.4-3.3,10.3
			c-1.7,2.4-4.4,4.2-7.1,5.3c-2.4,1-5.2,1-7.8,0.9c-1.8-0.1-5.4,0.5-5.2-1.2c1.2-12.7,4.9-28.1,4.7-31.1
			C955,951.5,957.2,951.2,959.5,951.2L959.5,951.2z"/>
		<path id="path3019" class="st4" d="M869,677l-7.1-4l-7.4,3.4l1.7-7.8l-5.7-5.8l8.2-0.8l3.9-7l3.3,7.3l8.1,1.5l-6.1,5.3L869,677z"
			/>
		<path id="path3019-5" class="st4" d="M898.9,696.9l-7.1-4l-7.4,3.4l1.7-7.8l-5.7-5.8l8.2-0.8l3.9-7l3.3,7.3l8.1,1.5l-6.1,5.3
			L898.9,696.9z"/>
		<path id="path3019-56-7" class="st4" d="M1017.4,1117.8l-7.1-4l-7.4,3.4l1.7-7.8l-5.7-5.8l8.2-0.8l3.9-7l3.3,7.3l8.1,1.5l-6.1,5.3
			L1017.4,1117.8z"/>
		<path id="path3019-56-23" class="st4" d="M987.3,1154.2l-7.1-4l-7.4,3.4l1.7-7.8l-5.7-5.8l8.2-0.8l3.9-7l3.3,7.3l8.1,1.5l-6.1,5.3
			L987.3,1154.2z"/>
		<path id="path3019-56-70" class="st4" d="M959.7,1187.3l-7.1-4l-7.4,3.4l1.7-7.8l-5.7-5.8l8.2-0.8l3.9-7l3.3,7.3l8.1,1.5l-6.1,5.3
			L959.7,1187.3z"/>
		<path id="path3019-56-8" class="st4" d="M928.7,1213.1l-7.1-4l-7.4,3.4l1.7-7.8l-5.7-5.8l8.2-0.8l3.9-7l3.3,7.3l8.1,1.5l-6.1,5.3
			L928.7,1213.1z"/>
		<path id="path3019-56-76" class="st4" d="M899.1,1236.4l-7.1-4l-7.4,3.4l1.7-7.8l-5.7-5.8l8.2-0.8l3.9-7l3.3,7.3l8.1,1.5l-6.1,5.3
			L899.1,1236.4z"/>
		<path id="path3019-56-73" class="st4" d="M869,1253.9l-7.1-4l-7.4,3.4l1.7-7.8l-5.7-5.8l8.2-0.8l3.9-7l3.3,7.3l8.1,1.5l-6.1,5.3
			L869,1253.9z"/>
		<path id="rect3882" class="st4" d="M862.9,623.7h0.7c1,0,1.7,0.8,1.7,1.7v16.8c0,1-0.8,1.7-1.7,1.7h-0.7c-1,0-1.7-0.8-1.7-1.7
			v-16.8C861.1,624.5,861.9,623.7,862.9,623.7z"/>
		<path id="rect3882-6" class="st4" d="M891.8,640.4h0.7c1,0,1.7,0.8,1.7,1.7v16.8c0,1-0.8,1.7-1.7,1.7h-0.7c-1,0-1.7-0.8-1.7-1.7
			v-16.8C890,641.2,890.8,640.4,891.8,640.4z"/>
		<path id="rect3882-5" class="st4" d="M921.4,656.9h0.7c1,0,1.7,0.8,1.7,1.7v16.8c0,1-0.8,1.7-1.7,1.7h-0.7c-1,0-1.7-0.8-1.7-1.7
			v-16.8C919.7,657.7,920.4,656.9,921.4,656.9z"/>
		<path id="rect3882-63" class="st4" d="M952.4,681h0.7c1,0,1.7,0.8,1.7,1.7v16.8c0,1-0.8,1.7-1.7,1.7h-0.7c-1,0-1.7-0.8-1.7-1.7
			v-16.8C950.7,681.7,951.5,681,952.4,681z"/>
		<path id="rect3882-0" class="st4" d="M981.7,709.1h0.7c1,0,1.7,0.8,1.7,1.7v24.5c0,1-0.8,1.7-1.7,1.7h-0.7c-1,0-1.7-0.8-1.7-1.7
			v-24.5C980,709.9,980.7,709.1,981.7,709.1z"/>
		<path id="rect3882-2" class="st4" d="M1012.4,743.9h0.7c1,0,1.7,0.8,1.7,1.7V776c0,1-0.8,1.7-1.7,1.7h-0.7c-1,0-1.7-0.8-1.7-1.7
			v-30.4C1010.6,744.7,1011.4,743.9,1012.4,743.9z"/>
		<path id="rect3882-67" class="st4" d="M861.1,688.2h0.7c1,0,1.7,0.8,1.7,1.7v102.6c0,1-0.8,1.7-1.7,1.7h-0.7c-1,0-1.7-0.8-1.7-1.7
			V689.9C859.4,689,860.1,688.2,861.1,688.2z"/>
		<path id="rect3882-07" class="st4" d="M892.5,703.6h0.7c1,0,1.7,0.8,1.7,1.7v23.1c0,1-0.8,1.7-1.7,1.7h-0.7c-1,0-1.7-0.8-1.7-1.7
			v-23.1C890.7,704.4,891.5,703.6,892.5,703.6z"/>
		<path id="rect3882-3" class="st4" d="M861.5,1261.8h0.7c1,0,1.7,0.8,1.7,1.7v16.8c0,1-0.8,1.7-1.7,1.7h-0.7c-1,0-1.7-0.8-1.7-1.7
			v-16.8C859.7,1262.6,860.5,1261.8,861.5,1261.8z"/>
		<path id="rect3882-03" class="st4" d="M893.2,1246h0.7c1,0,1.7,0.8,1.7,1.7v16.8c0,1-0.8,1.7-1.7,1.7h-0.7c-1,0-1.7-0.8-1.7-1.7
			v-16.8C891.4,1246.7,892.2,1246,893.2,1246z"/>
		<path id="rect3882-673" class="st4" d="M921.4,1221.9h0.7c1,0,1.7,0.8,1.7,1.7v24.2c0,1-0.8,1.7-1.7,1.7h-0.7
			c-1,0-1.7-0.8-1.7-1.7v-24.2C919.7,1222.7,920.4,1221.9,921.4,1221.9z"/>
		<path id="rect3882-1" class="st4" d="M952.8,1195.4h0.7c1,0,1.7,0.8,1.7,1.7v26.7c0,1-0.8,1.7-1.7,1.7h-0.7c-1,0-1.7-0.8-1.7-1.7
			v-26.7C951,1196.2,951.8,1195.4,952.8,1195.4z"/>
		<path id="rect3882-53" class="st4" d="M980.3,1163.4h0.7c1,0,1.7,0.8,1.7,1.7v27.7c0,1-0.8,1.7-1.7,1.7h-0.7c-1,0-1.7-0.8-1.7-1.7
			v-27.7C978.6,1164.2,979.3,1163.4,980.3,1163.4z"/>
		<path id="rect3882-38" class="st4" d="M1011,1125.9h0.7c1,0,1.7,0.8,1.7,1.7v30.5c0,1-0.8,1.7-1.7,1.7h-0.7c-1,0-1.7-0.8-1.7-1.7
			v-30.5C1009.2,1126.7,1010,1125.9,1011,1125.9z"/>
		<path id="rect3882-28" class="st4" d="M862.2,1108.1h0.7c1,0,1.7,0.6,1.7,1.4v103.8c0,0.8-0.8,1.4-1.7,1.4h-0.7
			c-1,0-1.7-0.6-1.7-1.4v-103.8C860.4,1108.7,861.2,1108.1,862.2,1108.1z"/>
		<path id="rect3882-64" class="st4" d="M892.8,1138.3h0.7c1,0,1.7,0.8,1.7,1.7v58.4c0,1-0.8,1.7-1.7,1.7h-0.7c-1,0-1.7-0.8-1.7-1.7
			v-58.4C891.1,1139.1,891.9,1138.3,892.8,1138.3z"/>
		<path id="rect3882-9" class="st4" d="M920,1109.8h0.7c1,0,1.7,0.8,1.7,1.7v66.7c0,1-0.8,1.7-1.7,1.7H920c-1,0-1.7-0.8-1.7-1.7
			v-66.7C918.3,1110.6,919,1109.8,920,1109.8z"/>
		<path id="rect3882-57" class="st4" d="M952.8,1109.8h0.7c1,0,1.7,0.8,1.7,1.7v40.2c0,1-0.8,1.7-1.7,1.7h-0.7c-1,0-1.7-0.8-1.7-1.7
			v-40.2C951,1110.6,951.8,1109.8,952.8,1109.8z"/>
		<path id="path3914" class="st4" d="M396.3,1077.4c68.8-49.4,124.8-103.6,180.3-159.5c16.6-16.7,41.5-41.4,46.9-92.9
			c2.6-25.2-7.4-60.6-44.3-63.5c-52-4-77.6,37.7-94.8,49c-6.4,2.6-15.3,0.9-16.4-9.5c-5.7,2.9,38-61,70.2-78.1
			c25-13.3,64.3-16.4,84.3-10.9c35.8,9.7,67.6,36.4,65.6,90.5c-2.3,62.4-27.6,86.5-56.2,120.2c-38.1,44.8-138.9,121.8-138.9,121.8
			h120.2c0,0,11.9,1,29.7-10.9c9.6-6.4,20.3-28.1,20.3-28.1l15.6,6.2l-35.9,87.4l-237.3,1.6L396.3,1077.4z"/>
	</g>
</g>
</svg>
