<?xml version="1.0" encoding="utf-8"?>
<!-- Generator: Adobe Illustrator 28.1.0, SVG Export Plug-In . SVG Version: 6.00 Build 0)  -->
<svg version="1.1" xmlns="http://www.w3.org/2000/svg" xmlns:xlink="http://www.w3.org/1999/xlink" x="0px" y="0px"
	 viewBox="0 0 850.4 850.4" style="enable-background:new 0 0 850.4 850.4;" xml:space="preserve">
<style type="text/css">
	.st0{opacity:0.45;fill:#78DDBE;}
	.st1{opacity:0.5;fill:#FFFFFF;}
	.st2{fill:#F71A14;}
	.st3{fill:#1666F4;}
	.st4{fill:#03F203;}
	.st5{fill:#FFE739;}
	.st6{opacity:0.45;fill:#5F9382;}
	.st7{opacity:0.9;fill:#FFFFFF;}
	.st8{fill:#97CEBB;}
</style>
<g id="Layer_2">
	<circle class="st0" cx="424.5" cy="425.5" r="393"/>
</g>
<g id="Layer_4">
	<path class="st1" d="M551.5,94.5c0,0,18,135-263,253c0,0-117,22-148,324l16,30c0,0,0-96,14-148c0,0,143-98,221-246
		c0,0,99-45,148-130c0,0-37,141-193,219c0,0-172,273-190,305c0,0,25,2,27,2c0,0,159-268,180-297c0,0,199-83,220-274
		c0,0,50,168-42,363c0,0-88,209-333,208c0,0,229,39,342-190c0,0,112-190,47-411c0,0-22-8-27-8H551.5z"/>
	<path class="st1" d="M484.5,56.5c0,0-188-38-348,135c0,0-159,166-55,408c0,0,168-50,310-292C391.5,307.5,481.5,153.5,484.5,56.5z"
		/>
</g>
<g id="Layer_3">
	<path class="st2" d="M570.5,94.5c0,0-241-12-434,158c0,0-144,144,20,449c0,0-17-303,179-368C335.5,333.5,546.5,257.5,570.5,94.5z"
		/>
	<path class="st3" d="M570.5,94.5c0,0-5,148-235,239c0,0-180,32-179,368c0,0,170-281,190-304C346.5,397.5,542.5,327.5,570.5,94.5z"
		/>
	<path class="st4" d="M570.5,94.5c0,0-12,215-224,303l-190,304c0,0,274,45,393-224C549.5,477.5,641.5,292.5,570.5,94.5z"/>
	<path class="st5" d="M570.5,94.5c0,0,79.8,182.8-36.6,414.9c0,0-96.4,219.1-377.4,192.1c0,0,197,57,303-40c0,0,60-71,111-112
		c0,0,153-118,121-315C691.5,234.5,678.5,118.5,570.5,94.5z"/>
</g>
<g id="Layer_5">
	<path class="st6" d="M731.5,186.5c0,0-174-233-466-117c0,0-196,76-227,295c0,0-37,164,85,307c0,0-107-131-67-317
		c0,0,35-168,188-252c0,0,116-70,266-42C510.5,60.5,651.5,89.5,731.5,186.5z"/>
	<ellipse transform="matrix(0.5901 -0.8073 0.8073 0.5901 -35.6593 291.7659)" class="st7" cx="269.5" cy="181" rx="80" ry="68.5"/>
	
		<ellipse transform="matrix(0.6603 -0.751 0.751 0.6603 -252.5291 726.8467)" class="st8" cx="677.2" cy="642.6" rx="76.4" ry="30.5"/>
</g>
<g id="Layer_6">
	<g>
		<path d="M819.5,421.5c1,129.3-66.6,255.8-174.2,327.4C382,924.3,31.6,737.9,30,421.5C31.6,105,382-81.4,645.3,94.1
			C752.9,165.7,820.5,292.2,819.5,421.5L819.5,421.5z M819.5,421.5C820,174.9,591.7-11.4,350.2,38.1C169.6,73.7,35.8,237.4,37,421.5
			c-1.5,183.7,133,348.1,313.2,383.4C591.7,854.5,820,668.1,819.5,421.5L819.5,421.5z"/>
	</g>
</g>
</svg>
