<?xml version="1.0" encoding="utf-8"?>
<!-- Generator: Adobe Illustrator 28.1.0, SVG Export Plug-In . SVG Version: 6.00 Build 0)  -->
<svg version="1.1" xmlns="http://www.w3.org/2000/svg" xmlns:xlink="http://www.w3.org/1999/xlink" x="0px" y="0px"
	 viewBox="0 0 850.4 850.4" style="enable-background:new 0 0 850.4 850.4;" xml:space="preserve">
<style type="text/css">
	.st0{display:none;}
	.st1{fill:#FFDD17;}
</style>
<g id="Layer_1" class="st0">
	
		<image style="display:inline;overflow:visible;opacity:0.48;" width="1930" height="1887" xlink:href="IMG_7786.png"  transform="matrix(0.4764 0 0 0.4764 -12 -16)">
	</image>
</g>
<g id="Layer_2">
	<path d="M679.5,107.5c0,0-75-102-247-99c0,0-88-1-124,23c0,0-30,12-41,15c0,0-46,13-119,81c0,0-16,9-23,28c0,0-10,17-17,19
		c0,0-34,31-52,100c0,0-13,44-12,71c0,0-7,41-5,61c0,0,2,4-5,10c0,0-10,10,0,30c0,0,1,4-1,13c0,0-4,10,18,68c0,0,5,12,6,23
		c0,0,7,52,32,86c0,0,13,16,25,43c0,0,19,44,93,82c0,0,2,13,13,10c0,0,1,9,11,13c0,0,5-1,10,5c0,0,18,10,34,18c0,0,34,15,54,14
		c0,0,30,4,54,16c0,0,18,6,42,5c0,0,11-1,18,2c0,0,53,6,136-25c0,0,73-18,114-59c0,0,5-5,9-5c0,0,64-47,82-118c0,0,0-20,14-42
		c0,0,36-84,27-178c0,0-5-28-3-45c0,0,2-16-14-43C808.5,329.5,759.5,179.5,679.5,107.5z"/>
	<path class="st1" d="M538.3,790.9c-9.7-5.3-76.9-42.8-107.7-83.5c-1.1-1.5-0.5-3.6,1.3-4.2c5.6-1.8,17.1-4.6,29.3-1.8
		c0.2,0,0.4,0.1,0.6,0.2c1.9,0.9,12.6,5.9,22.6,6.9c0.1,0,0.1,0,0.2,0c0.9,0,7.3,0.3,13.8,4.9c0.1,0.1,0.2,0.1,0.2,0.1
		c1.7,0.9,20.7,11,37.9,12.9c0,0,7,1,12,4c0,0,13.1,6.5,21.2,6.1c0.5,0,1.1,0.1,1.6,0.3c4.1,2.4,24.5,14.4,30.1,23.3
		c0.1,0.2,0.2,0.3,0.4,0.5c0.6,0.6,2.2,2.1,4.2,3.5c1.6,1.2,1.4,3.7-0.4,4.6c-3.8,1.9-10.4,4.5-19.8,5.7c-0.1,0-0.3,0-0.4,0.1
		c-2.4,0.7-26.6,8.1-44.6,16.4C539.9,791.3,539.1,791.3,538.3,790.9z"/>
	<path class="st1" d="M453.4,792.3c-21.3-18.3-64.3-56.9-77.8-80.8c-1.3-2.2-4-3.2-6.4-2.2c-8.9,3.6-29.5,11.5-40.3,13.2
		c-0.2,0-0.4,0.1-0.7,0.1c-3.7,1.1-38.5,11.5-53.7,21.9c0,0-10,6,3,13c0,0,45.9,27,117.9,39c0.1,0,0.2,0,0.3,0.1
		c1.4,0.3,13.2,3,18.9,3c0,0,19.9,0.9,35.2,1.8C454.6,801.6,457.1,795.5,453.4,792.3z"/>
	<path class="st1" d="M331.8,647.5c-7.3-13.3-27.6-49.5-39-62.7c-0.2-0.2-0.3-0.4-0.5-0.7c-2-3.6-18.8-33.5-25.9-55.9
		c-0.5-1.7-2.1-2.9-3.8-3c-6.7-0.5-23.2-1.3-31.9,0.2c-0.1,0-0.2,0-0.3,0c-1.9,0.2-19.3,1.4-37.8-6.5c-0.7-0.3-1.4-0.4-2.2-0.3
		c-9,0.9-70.5,5.7-114.9-33.1c0,0-3-2-0.1,7.8c0,0.2,0.1,0.3,0.1,0.5c0.4,2.4,4.3,23.2,9,29.8c0,0,7,11,9,35.8c0,0.1,0,0.2,0,0.3
		c0.4,2.7,6.5,39.2,20.9,52.7c0.1,0.1,0.2,0.2,0.2,0.2c2.2,2.5,34.9,40.1,44.7,57.6c0.1,0.2,0.2,0.4,0.4,0.5
		c2.4,3,25,31.4,45.8,41.1c2.1,1,4.5,0.1,5.6-1.9c4.6-8.4,19.6-29.4,59-37.4c0.2,0,0.4-0.1,0.6-0.2c3.3-1.2,34.1-12.4,58.3-18.6
		C331.8,653.1,333.2,650,331.8,647.5z"/>
	<path class="st1" d="M143.3,262.7c-4.4-6.8-19.8-31.2-24.2-46.9c-0.3-1-1.5-1.2-2.1-0.5c-6,7.4-27.8,37-32.2,81.6
		c-0.1,1.2,1.3,1.8,2.1,1c7.7-8,32.6-31.9,55.5-33.4C143.3,264.5,143.8,263.5,143.3,262.7z"/>
	<path class="st1" d="M217.9,311.8c5.6,14.3,25.8,71.8,0.9,108.3c-0.1,0.2-0.2,0.5-0.2,0.7c-0.1,4-2.1,38.4-50.9,51.6
		c-0.1,0-0.1,0-0.2,0c-2.1,0.3-50.2,7.5-79.2-26.3c-1-1.1-2.9-0.2-2.4,1.3c0.8,2.5,2,5.3,3.7,7c0,0,24,24,78,24c0,0,12.9,0,21.9,3
		c0.1,0,0.2,0,0.2,0.1c2.8,0.3,51.8,6.5,67.4,4.2c0.8-0.1,1.4-0.9,1.2-1.7c-2.6-12.1-20.2-100.1-5-163.2c0.2-0.7-0.3-1.5-1-1.7
		c-5.2-1.3-24.5-6.1-32.5-9.2C218.5,309.6,217.4,310.7,217.9,311.8z"/>
	<path class="st1" d="M185.5,325.5c0,0-10-33-54-22c0,0-25-2-25,43c0,0,0,55,17,70c0,0,16,23,57,0
		C180.5,416.5,208.5,393.5,185.5,325.5z M164.5,359.5c-4-1-6,2-6,2c-3,4,3,4,3,4c7,5-1,15-1,15c-4,15-20,17-20,17c-14,3-17-8-17-8
		c-6-29,2-28,2-28c4,1,5-3,5-3c2-9,11-13,11-13c10-11,23,7,23,7C170.5,361.5,164.5,359.5,164.5,359.5z"/>
	<path class="st1" d="M253.9,280.9c-24.6-2.9-109.2-18-113.2-87.3c-0.1-1.9,0.5-3.8,1.7-5.3c8.5-10.7,46.3-56.5,97.2-90.7
		c0,0,60.8-39.3,115.5-48.2c2.1-0.3,3.5,2,2.3,3.7c-10.7,15-44.4,64-52.7,97.5c0,0-32.8,93.1-42.2,124.8
		C261.2,279,257.6,281.3,253.9,280.9z"/>
	<path class="st1" d="M296.3,281c-0.5,2.1,0.7,4.2,2.8,4.7c14.3,3.7,72.2,9.4,198.3-85.2c0,0,98.5-76,138.1-85.1
		c3.1-0.7,4.2-4.6,1.8-6.8C617,90.4,546.4,37.2,426.1,49.4c-0.4,0-0.9,0.2-1.3,0.3C417.3,53.3,342,92.3,296.3,281z"/>
	<path class="st1" d="M286.9,331.7c-1.9,18.7-6.9,84.9,10.5,149.9c0.6,2.3,2.7,3.8,5.1,3.8c41.5-1,391.7-12.6,484.1-119.7
		c1.2-1.4,1.6-3.2,1.1-5c-6.5-20.5-49.7-152.5-112.2-211.5c-1.2-1.2-2.9-1.6-4.6-1.3c-13.5,2.9-75.6,17.4-105,49.1
		c-0.2,0.2-0.4,0.4-0.7,0.6c-3.2,2.3-26.2,19-36.7,26.4c-0.6,0.4-0.3,1.4,0.4,1.4c10.2,0.8,52.2,7.7,76.7,68.9
		c0,0,27.3,71.2-5.7,99.9c-0.8,0.7-1.4,1.6-1.7,2.6c-2.2,8-15,44.7-67.4,47.5c-0.2,0-0.3,0-0.5,0.1c-4.2,0.7-66.4,10-82.8-75
		c0,0-11.9-48.6,5.5-90.5c0.6-1.5-1.1-3-2.5-2c-19,12.9-89.2,56.7-157.9,50.1C289.7,326.8,287.2,328.9,286.9,331.7z"/>
	<path class="st1" d="M564.5,301.5c0,0-3-30-35-32c0,0-30-10-38,22c0,0-19,61,4,97c0,0,10,23,37,17c0,0,34,2,41-47
		C573.5,358.5,573.5,331.5,564.5,301.5z M544.5,337.5c-2,16-17,24-17,24c-11,6-17-4-17-4c-16.3-18-3.9-29.4,0-32.3
		c0.6-0.5,1-1.2,1.1-2c1.4-14.7,9.9-14.7,9.9-14.7c13-2,17,11,17,11C548.5,326.5,544.5,337.5,544.5,337.5z"/>
	<path class="st1" d="M318.3,524.6c-2.8,0-4.7,2.8-3.7,5.4c4.6,12.1,16.3,41.6,28,59.5c0,0,24.1,38.8,30.8,53.9
		c0.8,1.7,2.7,2.7,4.5,2.2c12.9-3.1,61.6-13.7,114.1-12.2c1,0,1.9-0.3,2.7-1c8.7-7.5,63.9-55.3,78.8-72.9c0.1-0.1,0.1-0.1,0.2-0.2
		c2.1-2.1,33.8-33.6,70.3-34.9c0.4,0,0.7-0.1,1.1-0.2c5.7-1.9,57.6-18.2,85.1,23.5c0.3,0.5,0.5,1,0.6,1.6c0.5,3.5,1.2,16.6-13.1,42
		c0,0.1-0.1,0.1-0.1,0.2c-1.1,2.3-26,52.3-45.4,64.6c-0.3,0.2-0.7,0.5-0.9,0.8c-3.4,4.1-27.9,33.5-34.3,47.1c-0.9,1.8-0.2,4,1.5,5.1
		c4.9,3,15.2,10.3,22.7,22.1c1.3,2.1,4.3,2.5,6.1,0.7c14-13.7,63.9-63.7,67.3-89.5c0,0,6.9-36.4,23.6-55.5c0.3-0.3,0.5-0.7,0.7-1.1
		c3-7.7,32.4-85,31.9-149.4c0-3.1-3.3-5-6-3.4c-16.2,9.6-66.4,36.3-151.6,57.3c-0.3,0.1-0.7,0.2-1,0.4c-4.1,2.3-37,19.1-126.4,23.7
		c-0.1,0-0.3,0-0.4,0c-3.8-0.2-63.8-2.7-101.6,6c-0.2,0-0.3,0.1-0.5,0.1C399.5,520.9,353.3,525,318.3,524.6z"/>
	<path class="st1" d="M531.6,642.8c4.7,1.9,13.4,5.8,18,9.2c1.1,0.8,2.6,0.6,3.5-0.4c10.2-11.9,64-73.6,83.2-64.1
		c0.1,0.1,0.2,0.1,0.4,0.2c1.3,0.9,9,7-0.2,18.9c0,0-42.4,51.7-50.7,63.8c-0.8,1.2-0.5,2.8,0.6,3.6l14.2,10.3c1,0.7,2.5,0.6,3.4-0.3
		c11.4-11.2,80.5-80.3,81.4-112.5c0,0,2-28.8-40.6-18.1c-0.2,0.1-0.5,0.1-0.7,0.1c-4.2-0.1-49.9,1.2-113.6,85.3
		C529.5,640.1,530.1,642.1,531.6,642.8z"/>
</g>
</svg>
