<?xml version="1.0" encoding="utf-8"?>
<!-- Generator: Adobe Illustrator 28.1.0, SVG Export Plug-In . SVG Version: 6.00 Build 0)  -->
<svg version="1.1"
	 id="Layer_1" image-rendering="optimizeQuality" text-rendering="geometricPrecision" shape-rendering="geometricPrecision"
	 xmlns="http://www.w3.org/2000/svg" xmlns:xlink="http://www.w3.org/1999/xlink" x="0px" y="0px" viewBox="0 0 850.4 850.4"
	 style="enable-background:new 0 0 850.4 850.4;" xml:space="preserve">
<style type="text/css">
	.st0{fill-rule:evenodd;clip-rule:evenodd;fill:#FFFFFF;}
	.st1{fill:#1F1A17;}
	.st2{fill-rule:evenodd;clip-rule:evenodd;fill:#1F1A17;}
</style>
<g>
	<path class="st0" d="M343.2,20.6l405.2,144.2c20.3,7.2,30.5,31.3,22.6,53.4L560.9,808.4c-7.9,22.1-31,34.3-51.3,27.1L104.5,691.3
		C84.1,684,74,660,81.9,637.8L292,47.7C299.8,25.5,322.9,13.3,343.2,20.6L343.2,20.6L343.2,20.6z"/>
	<path class="st1" d="M344.4,17.1l405.2,144.2l0,0c11.2,4,19.5,12.5,24,23.1c4.4,10.5,5.1,22.9,0.8,34.9l0,0.1L564.4,809.6l0,0.1
		c-1.2,3.3-2.7,6.4-4.5,9.3c-1.8,2.9-3.8,5.5-6.1,8c-11.7,12.4-29.3,17.7-45.3,12L103.3,694.7l0,0c-3.1-1.1-6-2.6-8.7-4.4
		c-2.7-1.8-5.1-3.9-7.2-6.2c-11-11.9-15-30.2-8.9-47.5L288.5,46.5l0,0c1.2-3.4,2.7-6.5,4.5-9.4c1.8-2.9,3.8-5.5,6.1-8
		C310.9,16.7,328.4,11.4,344.4,17.1L344.4,17.1z M747.2,168.2L342,24c-13.2-4.7-27.8-0.3-37.6,10.1c-1.9,2-3.6,4.3-5.2,6.8
		c-1.5,2.5-2.8,5.2-3.8,8h0l0,0L85.3,639.1c-5.2,14.6-1.9,30.1,7.3,40.1c1.8,1.9,3.8,3.6,5.9,5.1c2.2,1.4,4.5,2.7,7.1,3.6l0,0
		l405.2,144.2c13.2,4.7,27.8,0.3,37.6-10.1c1.9-2,3.6-4.3,5.2-6.8c1.5-2.5,2.8-5.2,3.8-8h0l0,0L767.6,217l0-0.1
		c3.6-10.2,3.1-20.8-0.7-29.6C763.2,178.6,756.3,171.5,747.2,168.2L747.2,168.2L747.2,168.2z"/>
	<path class="st2" d="M307.1,240.7c-0.7,8.1-1.1,17.5,1.7,25.6c-7.5-5.5-16.4-8.7-25.7-9.1c7.3-4.5,12.9-12,17.5-18.7
		c-9.6,3.1-22.6,2.1-30.4-12.4c-5.2-9.7-2-22,6.9-29.7c14.7-12.6,34.2-14.5,53.5-32.1c3.8,25.8,17.7,39.7,21.1,58.7
		c2.1,11.5-3.2,23.1-13.4,27.4C323.3,256.7,312.5,249.2,307.1,240.7L307.1,240.7z"/>
	<path class="st1" d="M293.2,133.4l3.4-9.6c0.3-0.7,1.1-1.1,1.8-0.9l2.1,0.8l0.2,0.1l1,0.2 M294.6,133.9l1-2.9l0,0l2.4-6.7l2.1,0.8
		l0.3,0.1l0.3,0.1l0.4,0.1l0.4,0.1c1.4,0.2,2.5,0,3.3-0.7c0.8-0.6,2.3-2.3,4.4-5l52.4-69l12.8,4.6l-3.5,86.4c0,2.8,0.1,4.7,0.4,5.9
		c0.3,1.2,0.9,2.2,1.9,3.1c0.7,0.5,1.1,0.8,1.2,0.9l2.2,0.8l-3.4,9.6l-30.1-10.7l3.4-9.6l7.2,2.6c1,0.3,1.7,0.3,2.1-0.1
		c0.4-0.4,0.8-1.2,1.1-2.5l0.1-4.9l0.8-15.9l-29.8-10.6l-9.6,12.8c-1.2,1.6-2,2.7-2.3,3.1c-1.8,2.5-1.7,4.1,0.3,4.9l7.3,2.6
		l-3.4,9.6L294.6,133.9L294.6,133.9z M302.2,124c0.1,0,0.2,0,0.4,0c0.6,0,1.1-0.2,1.4-0.4c0.3-0.3,0.9-0.8,1.5-1.6
		c0.7-0.8,1.6-1.9,2.6-3.2l52.4-69c0.4-0.5,1-0.7,1.6-0.5l0,0l12.8,4.6c0.6,0.2,1,0.8,0.9,1.4h0l-3.5,86.3h0c0,0.3,0,0.7,0,1.1
		c0,0.4,0,0.7,0,1c0,1.6,0.1,2.7,0.3,3.5l0,0c0,0.1,0.1,0.3,0.1,0.4c0,0.1,0.1,0.2,0.1,0.3c0.3,0.6,0.7,1.1,1.2,1.6l0,0
		c0.1,0.1,0.3,0.2,0.4,0.3c0.1,0.1,0.2,0.2,0.3,0.2c0.1,0.1,0,0,0,0.1l0,0l2.2,0.8c0.7,0.3,1.1,1.1,0.8,1.8l0,0l-3.4,9.6
		c-0.3,0.7-1.1,1.1-1.8,0.9c0,0-0.1,0-0.1,0l-30-10.7c-0.7-0.3-1.1-1.1-0.9-1.8l0,0l3.4-9.6c0.3-0.7,1.1-1.1,1.8-0.9l7.2,2.6
		c0.3,0.1,0.6,0.2,0.7,0.2c0.1-0.1,0.1-0.2,0.2-0.4c0.1-0.3,0.3-0.7,0.4-1.2l0.1-4.7c0,0,0-0.1,0-0.1l0.7-14.8l-27.9-9.9l-9,12
		c-0.8,1-1.3,1.7-1.5,2c-0.4,0.5-0.7,0.9-0.8,1l0,0l0,0c-0.7,1-1.1,1.7-1,2.2c0,0.2,0.2,0.4,0.7,0.5l0,0l7.3,2.6
		c0.7,0.3,1.1,1.1,0.9,1.8l0,0l-3.4,9.6c-0.3,0.7-1.1,1.1-1.8,0.9l-25.8-9.2c-0.7-0.3-1.1-1.1-0.9-1.8 M336.8,100.9l20.2,7.2
		l1.7-36.6L336.8,100.9L336.8,100.9z M334.6,101.6l23.8,8.5l2-43C360.3,67,334.6,101.6,334.6,101.6z"/>
	<path class="st2" d="M544.2,614.8c0.7-8.1,1.1-17.5-1.7-25.6c7.5,5.5,16.4,8.7,25.7,9.1c-7.3,4.5-12.9,12-17.5,18.7
		c9.6-3.1,22.6-2.1,30.4,12.4c5.2,9.7,2,22-6.9,29.7c-14.7,12.6-34.2,14.5-53.5,32.1c-3.8-25.8-17.7-39.7-21.1-58.7
		c-2.1-11.5,3.2-23.1,13.4-27.4C528,598.9,538.8,606.4,544.2,614.8L544.2,614.8z"/>
	<path class="st1" d="M558.1,722.1l-3.4,9.6c-0.3,0.7-1.1,1.1-1.8,0.9l-2.1-0.8l-0.2-0.1l-1-0.2 M556.7,721.7l-1,2.9l0,0l-2.4,6.7
		l-2.1-0.8l-0.3-0.1l-0.3-0.1l-0.4-0.1l-0.4-0.1c-1.4-0.2-2.5,0-3.3,0.7c-0.8,0.6-2.3,2.3-4.4,5l-52.4,69l-12.8-4.6l3.5-86.4
		c0-2.8-0.1-4.7-0.4-5.9c-0.3-1.2-0.9-2.2-1.9-3.1c-0.7-0.5-1.1-0.8-1.2-0.9l-2.2-0.8l3.4-9.6l30.1,10.7l-3.4,9.6l-7.2-2.6
		c-1-0.3-1.7-0.3-2.1,0.1c-0.4,0.4-0.8,1.2-1.1,2.5l-0.1,4.9l-0.8,15.9l29.8,10.6l9.6-12.8c1.2-1.6,2-2.7,2.3-3.1
		c1.8-2.5,1.7-4.1-0.3-4.9l-7.3-2.6l3.4-9.6L556.7,721.7L556.7,721.7z M549.1,731.5c-0.1,0-0.2,0-0.4,0c-0.6,0-1.1,0.2-1.4,0.4
		c-0.3,0.3-0.9,0.8-1.5,1.6c-0.7,0.8-1.6,1.9-2.6,3.2l-52.4,69c-0.4,0.5-1,0.7-1.6,0.5v0l-12.8-4.6c-0.6-0.2-1-0.8-0.9-1.4l0,0
		l3.5-86.3h0c0-0.3,0-0.7,0-1.1c0-0.4,0-0.7,0-1c0-1.6-0.1-2.7-0.3-3.5l0,0c0-0.1-0.1-0.3-0.1-0.4c0-0.1-0.1-0.2-0.1-0.3
		c-0.3-0.6-0.7-1.1-1.2-1.6l0,0c-0.1-0.1-0.3-0.2-0.4-0.3c-0.1-0.1-0.2-0.2-0.3-0.2c-0.1-0.1,0,0,0-0.1l0,0l-2.2-0.8
		c-0.7-0.3-1.1-1.1-0.9-1.8l0,0l3.4-9.6c0.3-0.7,1.1-1.1,1.8-0.9c0,0,0.1,0,0.1,0l30,10.7c0.7,0.3,1.1,1.1,0.8,1.8l0,0l-3.4,9.6
		c-0.3,0.7-1.1,1.1-1.8,0.9l-7.2-2.6c-0.3-0.1-0.6-0.2-0.7-0.2c-0.1,0.1-0.1,0.2-0.2,0.4c-0.1,0.3-0.3,0.7-0.4,1.2l-0.1,4.7
		c0,0,0,0.1,0,0.1l-0.7,14.8l27.9,9.9l9-12c0.8-1,1.3-1.7,1.5-2c0.4-0.5,0.7-0.9,0.8-1l0,0l0,0c0.7-1,1.1-1.7,1-2.2
		c0-0.2-0.2-0.4-0.7-0.5l0,0l-7.3-2.6c-0.7-0.3-1.1-1.1-0.8-1.8l0,0l3.4-9.6c0.3-0.7,1.1-1.1,1.8-0.9l25.8,9.2
		c0.7,0.3,1.1,1.1,0.9,1.8 M514.5,754.7l-20.2-7.2l-1.7,36.6L514.5,754.7L514.5,754.7z M516.7,754l-23.8-8.5l-2,43L516.7,754
		L516.7,754z"/>
	<path class="st2" d="M411.1,500.6c-1.9,23.6-3.2,50.8,5,74.1c-21.7-16-47.5-25.1-74.4-26.5c21.1-12.9,37.3-34.8,50.7-54.3
		c-27.7,9-65.6,6-88-35.9c-15-28.1-5.8-63.9,20-85.9c42.6-36.4,99.2-42.1,154.9-93.1c11,74.7,51.2,114.9,61.3,170
		c6.1,33.4-9.3,66.9-38.7,79.2C458.1,546.7,426.9,525.1,411.1,500.6L411.1,500.6L411.1,500.6z"/>
</g>
</svg>
