<?xml version="1.0" encoding="utf-8"?>
<!-- Generator: Adobe Illustrator 28.1.0, SVG Export Plug-In . SVG Version: 6.00 Build 0)  -->
<svg version="1.1"
	 id="Layer_1" text-rendering="geometricPrecision" shape-rendering="geometricPrecision" image-rendering="optimizeQuality"
	 xmlns="http://www.w3.org/2000/svg" xmlns:xlink="http://www.w3.org/1999/xlink" x="0px" y="0px" viewBox="0 0 850.4 850.4"
	 style="enable-background:new 0 0 850.4 850.4;" xml:space="preserve">
<style type="text/css">
	.st0{fill-rule:evenodd;clip-rule:evenodd;fill:#FFFFFF;}
	.st1{fill:#1F1A17;}
	.st2{fill-rule:evenodd;clip-rule:evenodd;fill:#1F1A17;}
</style>
<g>
	<path class="st0" d="M187.7,28.4l481.4,2.4c24.1,0.1,43.8,21.8,43.6,48l-3.5,701.2c-0.2,26.3-20.1,47.7-44.2,47.6l-481.3-2.4
		c-24.3-0.2-43.8-21.8-43.7-48.2L143.7,76C143.7,49.7,163.6,28.2,187.7,28.4L187.7,28.4L187.7,28.4z"/>
	<path class="st1" d="M187.7,24.3l481.4,2.4l0,0c13.3,0.1,25.2,6,33.9,15.5c8.5,9.5,13.9,22.3,13.8,36.6l0,0.1l-3.4,701.2l0,0.1
		c0,3.9-0.5,7.8-1.3,11.5c-0.8,3.7-2,7.2-3.5,10.7c-7.8,17.4-24.4,29.5-43.4,29.4l-481.5-2.5l0,0c-3.7,0-7.3-0.5-10.8-1.4
		c-3.5-0.9-6.8-2.2-9.9-3.9c-16-8.5-27-26.4-27-46.9L139.5,76l0,0c0-4,0.4-7.9,1.3-11.6c0.8-3.7,2-7.2,3.5-10.7
		C152.2,36.3,168.7,24.2,187.7,24.3L187.7,24.3z M669.1,34.9l-481.4-2.4c-15.7-0.1-29.5,10-36,24.6c-1.3,2.8-2.2,5.9-3,9.1
		c-0.7,3.2-1,6.5-1.1,9.9l0,0l0,0l-3.5,701.2c-0.1,17.3,9.1,32.5,22.6,39.7c2.6,1.3,5.3,2.4,8.1,3.2c2.8,0.7,5.8,1.2,8.8,1.2l0,0
		l481.4,2.4c15.7,0.1,29.5-10,36-24.6c1.3-2.8,2.2-5.9,3-9.1c0.7-3.2,1-6.5,1.1-9.9l0,0l0,0l3.6-701.3l0-0.1
		c0-12.1-4.4-23.1-11.7-31C689.9,39.9,680,35,669.1,34.9L669.1,34.9L669.1,34.9z"/>
	<path class="st2" d="M231,274.3c2.3,8.8,5.3,18.9,11.3,26.4c-10-3-20.5-3.1-30.5-0.1c6-7.5,9.2-17.5,11.6-26.2
		c-9,6.8-23.1,10.6-36.7-1.8c-9.1-8.3-10.3-22.5-3.7-33.9c10.9-18.8,30.8-28,44.6-53.7c13.6,25.8,33.4,35.4,44,54.2
		c6.5,11.4,5.2,25.6-4,33.9C254.1,285.2,239.9,281.3,231,274.3L231,274.3z"/>
	<path class="st1" d="M176.6,166.1l0-11.4c0.1-0.9,0.8-1.6,1.6-1.6l2.5,0.1l0.2,0l1.1-0.2 M178.3,166.1l0-3.4l0,0l0.1-8l2.5,0.1
		l0.4,0l0.4,0l0.5,0l0.5,0c1.6-0.3,2.6-0.9,3.2-2c0.6-0.9,1.6-3.3,2.8-6.9l29.8-92.3l15.2,0.1l28.3,92.6c1,3,1.8,4.9,2.6,6.1
		c0.8,1.2,1.8,2,3.2,2.6c0.9,0.3,1.5,0.4,1.6,0.5l2.6,0l0,11.4l-35.8-0.2l0-11.4l8.6,0.1c1.2-0.1,1.9-0.3,2.2-0.9
		c0.3-0.6,0.4-1.6,0.2-3l-1.7-5.2l-5-17.1l-35.4-0.2l-5.4,17.1c-0.7,2.1-1.1,3.6-1.3,4.1c-1,3.3-0.3,5,2.1,5.1l8.7,0l0,11.4
		L178.3,166.1L178.3,166.1z M182.7,152.8c0.1,0,0.2-0.1,0.4-0.1c0.6-0.2,1.1-0.6,1.3-0.9c0.2-0.4,0.7-1.2,1-2.2
		c0.4-1.1,1-2.6,1.6-4.3l29.8-92.3c0.2-0.7,0.8-1.1,1.5-1.1l0,0l15.2,0.1c0.7,0,1.4,0.5,1.5,1.1l0,0l28.2,92.5l0,0
		c0.1,0.3,0.3,0.7,0.4,1.2c0.1,0.4,0.3,0.7,0.4,1.1c0.6,1.7,1.1,2.8,1.6,3.6l0,0c0,0.1,0.2,0.3,0.3,0.4c0,0.1,0.2,0.2,0.2,0.3
		c0.5,0.5,1.1,0.9,1.9,1.2l0,0c0.1,0.1,0.4,0.1,0.5,0.2c0.1,0.1,0.3,0.1,0.4,0.1c0.1,0.1,0,0,0,0.1l0,0l2.6,0
		c0.9,0.1,1.6,0.8,1.5,1.6l0,0l0,11.4c-0.1,0.9-0.8,1.6-1.6,1.6l-0.1,0l-35.7-0.2c-0.9-0.1-1.6-0.8-1.6-1.6l0,0l0-11.4
		c0.1-0.9,0.8-1.6,1.6-1.6l8.6,0.1c0.4,0,0.7,0,0.8,0c0.1-0.1,0-0.2,0.1-0.5c0-0.4,0.1-0.9,0-1.4l-1.6-5l0-0.1l-4.7-15.9l-33.1-0.1
		l-5.1,16c-0.5,1.4-0.7,2.3-0.8,2.7c-0.2,0.7-0.4,1.2-0.5,1.4l0,0l0,0c-0.4,1.3-0.5,2.2-0.2,2.7c0.1,0.2,0.4,0.3,0.9,0.3l0,0l8.7,0
		c0.9,0.1,1.6,0.8,1.6,1.6l0,0l0,11.4c-0.1,0.9-0.8,1.6-1.6,1.6l-30.7-0.2c-0.9-0.1-1.6-0.8-1.6-1.6 M210.7,115.6l24,0.1l-11.7-39.3
		L210.7,115.6L210.7,115.6z M208.6,117.2l28.3,0.2l-13.8-46.2C223,71.1,208.6,117.2,208.6,117.2z"/>
	<path class="st2" d="M619.9,581.8c-2.3-8.8-5.3-18.9-11.3-26.4c10,3,20.5,3.1,30.5,0.1c-6,7.5-9.2,17.5-11.6,26.2
		c9-6.8,23.1-10.6,36.7,1.8c9.1,8.3,10.3,22.5,3.7,33.9c-10.9,18.8-30.8,28-44.6,53.7c-13.6-25.8-33.4-35.4-44-54.2
		c-6.5-11.4-5.2-25.6,4-33.9C597,571,611.1,574.9,619.9,581.8L619.9,581.8z"/>
	<path class="st1" d="M674.3,690l0,11.4c-0.1,0.9-0.8,1.6-1.6,1.6l-2.5-0.1l-0.2,0l-1.1,0.2 M672.7,690.1l0,3.4l0,0l-0.1,8l-2.5-0.1
		l-0.4,0l-0.4,0l-0.5,0l-0.5,0c-1.6,0.3-2.6,0.9-3.2,2c-0.6,0.9-1.6,3.3-2.8,6.9l-29.8,92.3l-15.2-0.1L589.2,710
		c-1-3-1.8-4.9-2.6-6.1s-1.8-2-3.2-2.6c-0.9-0.3-1.5-0.4-1.6-0.5l-2.6,0l0-11.4l35.8,0.2l0,11.4l-8.6-0.1c-1.2,0.1-1.9,0.3-2.2,0.9
		c-0.3,0.6-0.4,1.6-0.2,3l1.7,5.2l5,17.1l35.4,0.2l5.4-17.1c0.7-2.1,1.1-3.6,1.3-4.1c1-3.3,0.3-5-2.1-5.1l-8.7,0l0-11.4L672.7,690.1
		L672.7,690.1z M668.3,703.2c-0.1,0-0.2,0.1-0.4,0.1c-0.6,0.2-1.1,0.6-1.3,0.9c-0.2,0.4-0.7,1.2-1,2.2c-0.4,1.1-1,2.6-1.6,4.3
		l-29.8,92.3c-0.2,0.7-0.8,1.1-1.5,1.1l0,0l-15.2-0.1c-0.7,0-1.4-0.5-1.5-1.1l0,0l-28.2-92.5l0,0c-0.1-0.3-0.3-0.7-0.4-1.2
		c-0.1-0.4-0.3-0.7-0.4-1.1c-0.6-1.7-1.1-2.8-1.6-3.6l0,0c0-0.1-0.2-0.3-0.3-0.4s-0.2-0.2-0.2-0.3c-0.5-0.5-1.1-0.9-1.9-1.2l0,0
		c-0.1-0.1-0.4-0.1-0.5-0.2s-0.3-0.1-0.4-0.1c-0.1-0.1,0,0,0-0.1l0,0l-2.6,0c-0.9-0.1-1.6-0.8-1.6-1.6l0,0l0-11.4
		c0.1-0.9,0.8-1.6,1.6-1.6l0.1,0l35.7,0.2c0.9,0.1,1.6,0.8,1.5,1.6l0,0l0,11.4c-0.1,0.9-0.8,1.6-1.6,1.6l-8.6-0.1
		c-0.4,0-0.7,0-0.8,0c-0.1,0.1,0,0.2-0.1,0.5c0,0.4-0.1,0.9,0,1.4l1.6,5l0,0.1l4.7,15.9l33.1,0.1l5.1-16c0.5-1.4,0.7-2.3,0.8-2.7
		c0.2-0.7,0.4-1.2,0.5-1.4l0,0l0,0c0.4-1.3,0.5-2.2,0.2-2.7c-0.1-0.2-0.4-0.3-0.9-0.3l0,0l-8.7,0c-0.9-0.1-1.6-0.8-1.5-1.6l0,0
		l0-11.4c0.1-0.9,0.8-1.6,1.6-1.6l30.7,0.2c0.9,0.1,1.6,0.8,1.6,1.6 M640.3,740.5l-24-0.1l11.7,39.3L640.3,740.5L640.3,740.5z
		 M642.4,739l-28.3-0.2l13.8,46.2L642.4,739L642.4,739z"/>
	<path class="st2" d="M437.1,510.4c6.7,25.6,15.4,54.8,32.7,76.4c-28.8-8.9-59.5-8.9-88.4-0.5c17.5-21.4,26.5-50.6,33.5-76.1
		c-25.9,19.8-67.1,30.6-106.2-5.4c-26.2-24.1-29.8-65.4-10.7-98.1c31.5-54.2,89.2-81.2,129.2-155.7
		c39.3,74.8,96.6,102.4,127.7,156.9c18.8,33,14.9,74.1-11.6,98C503.8,541.7,462.8,530.4,437.1,510.4L437.1,510.4L437.1,510.4z"/>
</g>
</svg>
