<?xml version="1.0" encoding="utf-8"?>
<!-- Generator: Adobe Illustrator 28.0.0, SVG Export Plug-In . SVG Version: 6.00 Build 0)  -->
<svg version="1.1"
	 id="svg262" xmlns:sodipodi="http://sodipodi.sourceforge.net/DTD/sodipodi-0.dtd" xmlns:inkscape="http://www.inkscape.org/namespaces/inkscape" xmlns:svg="http://www.w3.org/2000/svg" xmlns:ooo="http://xml.openoffice.org/svg/export"
	 xmlns="http://www.w3.org/2000/svg" xmlns:xlink="http://www.w3.org/1999/xlink" x="0px" y="0px" viewBox="0 0 850.4 850.4"
	 style="enable-background:new 0 0 850.4 850.4;" xml:space="preserve">
<style type="text/css">
	.st0{fill-rule:evenodd;clip-rule:evenodd;}
	.st1{fill-rule:evenodd;clip-rule:evenodd;fill:#00FF00;}
</style>
<sodipodi:namedview  bordercolor="#000000" borderopacity="0.25" id="namedview264" inkscape:current-layer="layer1" inkscape:cx="106.92009" inkscape:cy="116.52283" inkscape:deskcolor="#d1d1d1" inkscape:document-units="mm" inkscape:pagecheckerboard="0" inkscape:pageopacity="0.0" inkscape:showpageshadow="2" inkscape:window-height="1016" inkscape:window-maximized="1" inkscape:window-width="1850" inkscape:window-x="0" inkscape:window-y="0" inkscape:zoom="3.4885866" pagecolor="#ffffff" showgrid="false">
	</sodipodi:namedview>
<g id="layer1" transform="translate(0,-0.34190208)" inkscape:groupmode="layer" inkscape:label="Layer 1">
	<path id="path249" class="st0" d="M381.1,835.4l32.8,0.8l29.7-2.4l41.4,7.8l11,6.1v-13.6l8,1.4c22.2,3.7,49.8,3.9,62.4,0.3
		c16.8-4.9,35.5-14.4,50.2-26c17.5-13.5,57.7-55.8,71.9-75.8c62.3-87.8,109.5-210.1,125.2-323.9c1.5-11.9,2.4-30.7,2.5-50.4V352
		c-0.1-24.3-1.2-48.7-3.5-61.9c-10.4-61.9-32.5-103.1-68.4-127.5c-18.6-12.6-66.1-30.9-91.9-35.4c-11.8-2.1-25-4.6-29.1-5.7
		c-9.7-2.4-71.6-10.1-94-11.8c-9.4-0.6-28-2.1-41.1-3.2s-37.1-2.6-53.4-3.5c-16.2-0.8-29.6-1.7-29.6-1.8c0-2.5-11.2-57.2-12.2-59.5
		c-0.7-1.8-1.7-7.9-1.9-13.7c-0.8-12.6-3.2-15.8-12.4-16.2c-3.9-0.1-10.4-0.7-14.6-1.4C360,9.8,348,8.7,337.6,8
		c-24-1.8-25.4-1-24.7,17.8c0.6,14,0.7,14.2,11.8,24.1c11,9.9,15.1,18,24.1,46.1l1.8,5.6l-20.1,1.5c-22.9,1.5-56.6,6.4-70.5,10
		c-117,30.3-151.7,48.6-191.2,100.9c-27.8,36.9-35.2,61.9-36.9,124.6c-0.1,6.9-0.3,13.5-0.3,19.6v1.2c0,27.9,1.9,47.7,7.4,79.4
		c14,81.9,52.9,181.7,99.1,254c20.8,32.5,32.2,47,56.1,72c47.3,49.5,87.2,71.7,130,72.7c10.7,0.3,23.6-0.4,28.6-1.5l9.2-1.8v4.6
		L381.1,835.4z"/>
	<path id="path410" class="st1" d="M500.1,819.8c-10.1-2.5-26.6-6.5-36.8-9c-10.1-2.5-23.2-5.6-29.1-6.7c-11-2.1-31.4-0.8-37.5,2.4
		c-4.6,2.5-37.3,12.2-51.6,15.5c-15,3.3-42.6-0.3-60.8-7.9c-40.4-17.1-80.6-52.9-118.7-106c-7.2-10-28.4-43.9-28.4-45.2
		c0-0.4-4.4-8.2-9.7-17.2c-5.4-9-9.7-16.9-9.7-17.5c0-0.6-3.1-7.6-6.8-15.5c-3.6-8-8.3-18.6-10.4-23.3c-2.2-4.7-5.4-12.2-7.4-16.5
		s-3.6-8.6-3.6-9.4s-1.4-4.6-3.1-8.3s-4.2-10.7-5.6-15.4c-1.4-4.7-3.3-10.5-4.4-12.9c-1-2.5-3.3-9.7-5-16.2
		c-1.8-6.5-5.3-19.2-7.9-28.2c-11.5-40.1-17.1-82.7-17.2-131.7c0-50.8,3.2-71.1,15.5-99.1c8.6-19.4,36.6-54.3,47-58.6
		c3.3-1.4,6.5-4.2,7.1-6.1c1-3.5,21.1-16.4,45.7-29.4c5.8-3.1,13.5-5.6,16.8-5.6c3.3,0,11.7-2.9,18.6-6.5c7.6-3.9,25.1-9.3,45.8-14
		c41.9-9.6,114.6-19.3,114.6-15.4c0,0.4,10.3,28.3,22.6,62c12.5,33.6,22.5,61.3,22.2,61.6s-8.7-1.7-18.9-4.3
		c-20-5.1-46.4-16.9-64.1-28.6c-10.7-7.1-20.1-9.4-20.1-5.3c0,6.9,44.4,31.6,76.7,42.7c15.8,5.4,19.8,6,49.5,5.8
		c46.4,0,65.1-5.4,106.9-30.7c9-5.4,18.2-11.5,20.5-13.7c2.5-2.2,6.4-5.4,8.7-7.2c3.1-2.4,3.5-3.2,1-3.1c-3.3,0-4,0.3-40.2,20.3
		c-30,16.5-47.5,22.6-66.6,23.3l-15,0.6l-16.8-60.6c-9-33.2-16.5-61.2-16.7-62.3c-0.1-2.1,63-0.1,98.1,3.2
		c81.9,7.5,154.3,19.8,183.6,31.4c10.7,4.3,20,8.5,20.5,9.3c0.7,0.8,8,5.3,16.7,9.7c38.3,20,60.5,58.8,72.3,126.6
		c7.2,41.2,0.4,137.9-13,185.7c-7.5,26.6-13.6,47-15.4,50.8c-1.1,2.4-3.1,8.7-4.4,14.2c-1.2,5.3-3.2,10.7-4,11.8
		c-1,1.2-2.9,6.1-4.3,10.8c-2.6,8.7-4.6,13.3-12.9,31.6c-2.5,5.4-4.6,10.5-4.6,11.2c0,2.9-27.9,59.1-33.3,66.9
		c-3.1,4.4-5.6,9-5.6,9.9c0,1-2.9,5.6-6.4,10.1c-3.6,4.7-6.5,9.3-6.5,10.3s-1.1,2.9-2.2,4.3c-1.2,1.4-8.7,11.4-16.7,22.1
		c-32.3,43.6-72.2,75.9-104.1,84.4c-6.5,1.7-12.4,3.6-13,4.4C549.8,827.5,518.9,824.3,500.1,819.8z"/>
</g>
</svg>
