<?xml version="1.0" encoding="utf-8"?>
<!-- Generator: Adobe Illustrator 28.0.0, SVG Export Plug-In . SVG Version: 6.00 Build 0)  -->
<svg version="1.1" id="Layer_1" xmlns="http://www.w3.org/2000/svg" xmlns:xlink="http://www.w3.org/1999/xlink" x="0px" y="0px"
	 viewBox="0 0 850.4 850.4" style="enable-background:new 0 0 850.4 850.4;" xml:space="preserve">
<style type="text/css">
	.st0{fill:#FFFFFF;}
</style>
<g id="Layer_1_00000152229540293815217960000006512781525581921461_">
	<path id="path909" d="M487.5,13c-2.3-0.1-4.7,0.5-7.8,1.6C352.4,51.7,224.9,89.3,97.9,127C70.3,267.3,41.6,406.2,13.7,545.7
		c-0.9,4-0.7,5,3,8.2c109.3,95.2,220.3,189.5,330,283.5c128.2-47.9,256.3-95.7,385.1-143.8c6.7-3.2,8-3.8,8.7-10.3
		c32.5-139,64.7-278.5,96.7-417.5C725.4,182.8,612.2,100.8,499,18C494.4,14.7,491.2,13.1,487.5,13L487.5,13z"/>
	<path id="path903" class="st0" d="M484.5,28.9c-2.3-0.1-4.7,0.5-7.8,1.6L134.9,130.8c-2.8,0.7-2.7,1.4-0.3,3.3L438,376.3
		c5.6,4.6,8.2,5.2,16,2.8l340.3-117.9c7.8-2.9,8.3-3.6,0.3-8.9L495.9,33.9C491.3,30.7,488.2,29,484.5,28.9L484.5,28.9z"/>
	<path id="path901" d="M445.5,58.3c6.8-0.1,14,0.7,21.4,2.3c29.8,6.5,50.9,24.7,47.1,40.6c-3.8,15.8-31.1,23.3-60.9,16.8
		c-29.8-6.5-50.9-24.6-47.1-40.4C408.9,65.7,425.1,58.4,445.5,58.3z"/>
	<path id="path899" d="M252.8,116.9c6.8-0.1,14.1,0.7,21.6,2.3c29.8,6.5,50.8,24.6,46.9,40.4c-3.8,15.8-31.1,23.5-60.9,16.9
		c-29.8-6.5-50.8-24.7-46.9-40.6C216.4,124.1,232.4,117,252.8,116.9z"/>
	<path id="path897" d="M544.8,131.8c6.8-0.1,14.1,0.9,21.6,2.5c29.8,6.5,50.8,24.6,46.9,40.4s-31.1,23.3-60.9,16.8
		c-29.8-6.5-50.8-24.6-46.9-40.4C508.3,139.2,524.3,131.9,544.8,131.8z"/>
	<path id="path895" class="st0" d="M113.4,150.6c-0.6,0.2-0.8,1.1-1.2,3.1L35.1,539.2c-0.9,4-0.7,5,3,8.2l292.7,252.3
		c6.8,6.5,8.2,6.4,9.2-1.5l85.3-390.9c1.8-5.3-0.1-8.3-3.1-10.7L116.5,152.5C115,151.1,114.1,150.4,113.4,150.6L113.4,150.6z"/>
	<path id="path893" d="M351.2,194.5c6.8-0.1,14.2,0.7,21.6,2.3c29.8,6.5,50.8,24.6,46.9,40.4c-3.8,15.8-31.1,23.3-60.9,16.8
		c-29.8-6.5-50.8-24.6-46.9-40.4C314.8,201.8,330.8,194.7,351.2,194.5z"/>
	<path id="path891" d="M646.2,207.4c6.8-0.1,14.1,0.7,21.6,2.3c29.8,6.5,50.8,24.6,46.9,40.4c-3.8,15.8-31.1,23.5-60.9,16.9
		c-29.8-6.5-50.8-24.7-46.9-40.6C609.8,214.7,625.8,207.6,646.2,207.4z"/>
	<path id="path889" d="M132.4,221.6c1.2-0.1,2.4-0.1,3.6,0c14,0.7,29.2,13.9,38.1,35c11.8,28.1,7.9,59.6-8.7,70.4
		c-16.6,10.7-39.6-3.3-51.4-31.4c-11.8-28.1-7.9-59.6,8.7-70.4C125.7,223.1,129,221.9,132.4,221.6L132.4,221.6z"/>
	<path id="path887" d="M452.6,272.2c6.8-0.1,14.1,0.7,21.6,2.3c29.8,6.5,50.8,24.6,46.9,40.4c-3.8,15.8-31.1,23.3-60.9,16.8
		c-29.8-6.5-50.8-24.6-46.9-40.4C416.2,279.5,432.2,272.3,452.6,272.2z"/>
	<path id="path885" class="st0" d="M810.2,283c-0.7,0.1-1.6,0.4-2.6,0.8L458.1,404.9c-7.1,2.9-6.9,4.1-8.1,9.5l-85.1,389.7
		c-0.3,5.7-2.4,8.3,4.3,5.3l344.3-128.6c6.7-3.2,8-3.8,8.7-10.3l89.3-384.2C812.3,283.5,812.1,282.6,810.2,283L810.2,283z"/>
	<path id="path883" d="M753.5,346.2c9.8,0.2,17.6,4.9,21,14.1c6.8,18.4-6.3,47.8-29.5,65.7c-23.2,17.9-47.6,17.5-54.4-0.9
		c-6.8-18.4,6.3-47.8,29.5-65.7C731.7,350.4,743.6,346,753.5,346.2z"/>
	<path id="path881" d="M329.9,379.9c14.2,0.4,29.7,13.7,38.7,35.1c11.8,28.1,8,59.6-8.5,70.4c-16.6,10.7-39.6-3.4-51.4-31.5
		c-11.8-28.1-7.9-59.5,8.7-70.2c3.1-2,6.3-3.2,9.8-3.6C328,380,329,379.9,329.9,379.9z"/>
	<path id="path879" d="M205.1,425c14.2,0.4,29.7,13.7,38.7,35.1c11.8,28.1,8,59.6-8.5,70.4s-39.6-3.4-51.4-31.5
		c-11.8-28.1-7.9-59.5,8.7-70.2c3.1-2,6.3-3.2,9.8-3.6C203.3,425,204.2,424.9,205.1,425z"/>
	<path id="path877" d="M83.8,462c1.2-0.1,2.4-0.1,3.6,0c14,0.7,29,14,37.9,35.1c11.8,28.1,8,59.5-8.5,70.2
		c-16.6,10.7-39.6-3.3-51.4-31.4c-11.8-28.1-7.9-59.6,8.7-70.4C77.1,463.5,80.3,462.3,83.8,462L83.8,462z"/>
	<path id="path875" d="M622.3,506.9c9.6,0.3,17.3,5.1,20.7,14.1c6.8,18.4-6.5,47.8-29.7,65.7c-23.2,17.9-47.6,17.5-54.4-0.9
		c-6.8-18.4,6.5-47.8,29.7-65.7c10.2-7.8,20.5-12.2,29.5-13C619.6,506.9,621,506.8,622.3,506.9z"/>
	<path id="path873" d="M275.5,624c1.2-0.1,2.4-0.1,3.6,0c14,0.7,29.2,13.9,38.1,35c11.8,28.1,7.9,59.6-8.7,70.4
		c-16.6,10.7-39.5-3.3-51.3-31.4c-11.8-28.1-8-59.6,8.5-70.4C268.8,625.6,272,624.4,275.5,624z"/>
	<path id="path3924" d="M480,672c9.8,0.2,17.6,4.8,21,14c6.8,18.4-6.3,47.8-29.5,65.7c-23.2,17.9-47.6,17.6-54.4-0.8
		c-6.8-18.4,6.3-47.8,29.5-65.7C458.2,676.3,470.2,671.9,480,672L480,672z"/>
</g>
</svg>
