<?xml version="1.0" encoding="utf-8"?>
<!-- Generator: Adobe Illustrator 28.1.0, SVG Export Plug-In . SVG Version: 6.00 Build 0)  -->
<svg version="1.1" id="Layer_1" xmlns="http://www.w3.org/2000/svg" xmlns:xlink="http://www.w3.org/1999/xlink" x="0px" y="0px"
	 viewBox="0 0 850.4 850.4" style="enable-background:new 0 0 850.4 850.4;" xml:space="preserve">
<style type="text/css">
	.st0{fill:#FF692E;stroke:#000000;stroke-width:2.9118;stroke-miterlimit:10;}
	.st1{fill:#2CD2FF;stroke:#000000;stroke-width:2.9118;stroke-miterlimit:10;}
</style>
<g>
	<path class="st0" d="M350.7,278.4c0,0-23.3-166-8.7-198c0,0,20.4-96.1,139.8-72.8c0,0,195.1,32,212.6,151.4
		c0,0,11.6,55.3-49.5,104.8c0,0-93,86.9-128,88.6C516.8,352.4,397.3,342.5,350.7,278.4z"/>
	<path class="st0" d="M267.3,430.1c0,0-166.6-17.9-194.2-39.8c0,0-88.2-43.2-36.5-153.3c0,0,78.7-181.4,198.7-169.2
		c0,0,56.5,2.2,89.6,73.6c0,0,61.6,111.4,54.7,145.8C379.6,287.1,340.7,400.5,267.3,430.1z"/>
	<path class="st0" d="M371.9,564.8c0,0-67.8,153.3-97.1,172.8c0,0-68,70.9-157.1-12c0,0-148.8-130.2-100.6-240.8
		c0,0,19.3-53.1,97.4-62.9c0,0,124.9-24.7,155.5-7.6C269.9,414.3,366.1,485.8,371.9,564.8z"/>
	<path class="st0" d="M537.8,501.7c0,0,124.5,112.2,133.9,146.1c0,0,46.1,86.7-60.3,145.6c0,0-170.1,100.8-260.2,20.6
		c0,0-44.5-34.9-29.4-112.1c0,0,15.4-126.3,41.2-150.1C363,551.7,461,482.6,537.8,501.7z"/>
	<path class="st0" d="M539.7,324.7c0,0,149.6-75.6,184.6-72.2c0,0,97.5-11.7,114,108.8c0,0,32.6,195-74.7,250.1
		c0,0-48.6,28.9-115.2-13c0,0-112.3-60-125.2-92.6C523.3,505.8,494.1,389.5,539.7,324.7z"/>
	<circle class="st1" cx="401.7" cy="419.6" r="174.7"/>
</g>
</svg>
