<?xml version="1.0" encoding="utf-8"?>
<!-- Generator: Adobe Illustrator 28.0.0, SVG Export Plug-In . SVG Version: 6.00 Build 0)  -->
<svg version="1.1" id="Layer_1" xmlns="http://www.w3.org/2000/svg" xmlns:xlink="http://www.w3.org/1999/xlink" x="0px" y="0px"
	 viewBox="0 0 850.4 850.4" style="enable-background:new 0 0 850.4 850.4;" xml:space="preserve">
<style type="text/css">
	.st0{fill:#3389A6;}
	.st1{fill:#F9F087;}
	.st2{fill:#827E5F;}
	.st3{fill:#97D1DB;}
</style>
<g>
	<path class="st0" d="M476.4,142.1c-1.1-24.6-9.5-61.5-50.4-59.5c-2,0.1-3.8-1.1-4.7-3.1c-4.7-10.7-23.5-43.3-77.1-31.1
		c-0.8,0.2-1.7,0.2-2.5-0.1c-9.7-3.1-77.2-22.3-97.9,31.2c-0.8,2-2.7,3.2-4.8,3.1c-18.8-0.7-104.4,0-79.6,73.2
		c0.9,2.5-0.2,5.3-2.5,6.5c-13.4,6.7-52.8,30.7-23.8,72c0.2,0.3,0.5,0.6,0.8,0.9c2.3,2.1,13.7,12.9,22,28.2c2,3.6-0.7,8.1-4.7,7.8
		c-19.1-1.4-63.4-2.4-75.3,16.7c-1,1.6-2.7,2.5-4.4,2.4c-12.9-0.8-61.9-0.3-53.4,56.8c0.2,1.4-0.1,2.9-0.9,4c-5,6.7-21.1,33.5-1,76
		c0.6,1.2,0.7,2.5,0.4,3.8c-3.5,12.6-20,83.6,48.5,86c2.1,0.1,3.9,1.4,4.6,3.5c4.2,12.4,21.5,53.5,66.6,43.1c0.1,0,0.2-0.1,0.4-0.1
		c0.8-0.2,4-1.2,8.7-2.5c5.2-1.4,8.5,5.5,4.4,9.1c-15.6,13.9-30.7,37.7-19.2,74c0,0,4.4,14,17.2,15.7c3,0.4,5.1,3.4,4.3,6.6
		c-3.5,13.5-7.8,44.7,16.7,70.6c0.1,0.1,0.2,0.2,0.3,0.3c1.9,1.7,18.9,16,51.6,2c2.5-1.1,5.3,0.1,6.4,2.7
		c5.4,12.8,25.2,45.1,81.4,23.8c1.2-0.5,2.6-0.4,3.8,0.1c10.2,4.9,62.5,25.4,99.6-46.7c2-3.8,7.2-3.6,8.9,0.3
		c7,16.1,22.4,45.5,40.9,45.7c1.5,0,2.8,0.8,3.7,2c7.4,10.1,41.3,51.9,71.8,20.3c1.9-2,4.9-2.1,6.9-0.2c13.6,13,62.7,53.5,83.7-17.8
		c0.7-2.4,2.9-3.9,5.3-3.6c9.9,1.2,35.3-0.7,42.8-48.3c0.2-1.3,0.8-2.5,1.8-3.3c6.4-5.3,30.5-29,10.2-73.7c-2.2-4.9,3.4-9.7,7.5-6.4
		c5.6,4.4,12.1,9.8,18.8,15.9c0.2,0.2,0.4,0.4,0.7,0.5c4.9,3,54.5,31.7,69.6-45.5c0.5-2.4,2.6-4.1,4.9-4.1
		c14.5,0,61.3-6.4,37.9-93.5c-0.4-1.7-0.1-3.5,0.9-4.8c7.1-8.8,32-45.2-11.2-79.9c-1.4-1.1-2.2-2.9-2-4.7c1.3-13.4,1.7-70-79.5-79.6
		c-4.4-0.5-6.1-6.4-2.6-9.3c11.3-9.1,22.8-28,11.3-65.6c-0.3-0.8-0.3-1.7-0.2-2.5c2-11.6,15.3-100.7-49.8-103.7
		c-2-0.1-3.8-1.5-4.5-3.5c-5.7-16.9-35.6-88.4-117.4-44.4c-1.5,0.8-3.2,0.8-4.6,0c-9.5-5.3-48.1-21.7-82.3,35.2
		C483,148.9,476.6,147.2,476.4,142.1z"/>
	<path class="st1" d="M413.7,327.8c0,0-94.4-12.4-115,37.2c0,0-35.4,61.4,57.5,131.5c0,0,131.3,60.8,193.2-7.5
		c0,0,35.4-34.1-14.7-102.3C534.7,386.7,493.4,337.1,413.7,327.8z"/>
	<g>
		<path class="st2" d="M448.5,385.8c0,0-10.7,1.1-12.2,13.1c0,0,1.9,10.4,15.6,7.6c0,0,10.2-6.4,6.8-13.6
			C458.8,393,455.3,385.8,448.5,385.8z"/>
		<path class="st2" d="M407.2,399.3c0,0-10.7,1.1-12.2,13.2c0,0,1.9,10.5,15.6,7.7c0,0,10.3-6.4,6.8-13.6
			C417.5,406.5,414,399.3,407.2,399.3z"/>
		<path class="st2" d="M351.1,442.8c0,0-8.9,0.9-10.2,11c0,0,1.6,8.7,13,6.4c0,0,8.6-5.4,5.7-11.3
			C359.6,448.8,356.8,442.8,351.1,442.8z"/>
		<path class="st2" d="M351.1,349.1c0,0-8.9,0.9-10.2,11c0,0,1.6,8.7,13,6.4c0,0,8.6-5.4,5.7-11.3
			C359.6,355.1,356.8,349.1,351.1,349.1z"/>
		<path class="st2" d="M475.2,362.5c0,0-8.9,0.9-10.2,11c0,0,1.6,8.7,13,6.4c0,0,8.6-5.4,5.7-11.3
			C483.7,368.5,480.9,362.5,475.2,362.5z"/>
		<path class="st2" d="M516.5,379.3c0,0-8.9,0.9-10.2,11c0,0,1.6,8.7,13,6.4c0,0,8.6-5.4,5.7-11.3
			C525.1,385.2,522.2,379.3,516.5,379.3z"/>
		<path class="st2" d="M492.8,413.1c0,0-10.4,1.1-11.8,12.8c0,0,1.9,10.2,15.2,7.4c0,0,10-6.2,6.6-13.2
			C502.7,420.1,499.4,413.1,492.8,413.1z"/>
		<path class="st2" d="M445,346.2c0,0-10.4,1.1-11.8,12.8c0,0,1.9,10.2,15.2,7.4c0,0,10-6.2,6.6-13.2
			C455,353.2,451.7,346.2,445,346.2z"/>
		<path class="st2" d="M400.5,369.6c0,0-10.4,1.1-11.8,12.8c0,0,1.9,10.2,15.2,7.4c0,0,10-6.2,6.6-13.2
			C410.4,376.6,407.1,369.6,400.5,369.6z"/>
		<path class="st2" d="M400.5,332.8c0,0-10.4,1.1-11.8,12.8c0,0,1.9,10.2,15.2,7.4c0,0,10-6.2,6.6-13.2
			C410.4,339.8,407.1,332.8,400.5,332.8z"/>
		<path class="st2" d="M362.3,383c0,0-10.4,1.1-11.8,12.8c0,0,1.9,10.2,15.2,7.4c0,0,10-6.2,6.6-13.2C372.2,390,368.9,383,362.3,383
			z"/>
		<path class="st2" d="M317.7,369.6c0,0-10.4,1.1-11.8,12.8c0,0,1.9,10.2,15.2,7.4c0,0,10-6.2,6.6-13.2
			C327.7,376.6,324.4,369.6,317.7,369.6z"/>
		<path class="st2" d="M320.9,423.2c0,0-10.4,1.1-11.8,12.8c0,0,1.9,10.2,15.2,7.4c0,0,10-6.2,6.6-13.2
			C330.9,430.1,327.5,423.2,320.9,423.2z"/>
		<path class="st2" d="M537.3,413.1c0,0-10.4,1.1-11.8,12.8c0,0,1.9,10.2,15.2,7.4c0,0,10-6.2,6.6-13.2
			C547.3,420.1,544,413.1,537.3,413.1z"/>
		<path class="st2" d="M515,460c0,0-10.4,1.1-11.8,12.8c0,0,1.9,10.2,15.2,7.4c0,0,10-6.2,6.6-13.2C525,466.9,521.7,460,515,460z"/>
		<path class="st2" d="M480,449.9c0,0-10.4,1.1-11.8,12.8c0,0,1.9,10.2,15.2,7.4c0,0,10-6.2,6.6-13.2
			C490,456.9,486.7,449.9,480,449.9z"/>
		<path class="st2" d="M486.4,486.7c0,0-10.4,1.1-11.8,12.8c0,0,1.9,10.2,15.2,7.4c0,0,10-6.2,6.6-13.2
			C496.4,493.7,493,486.7,486.4,486.7z"/>
		<path class="st2" d="M445,470c0,0-10.4,1.1-11.8,12.8c0,0,1.9,10.2,15.2,7.4c0,0,10-6.2,6.6-13.2C455,477,451.7,470,445,470z"/>
		<path class="st2" d="M403.6,486.7c0,0-10.4,1.1-11.8,12.8c0,0,1.9,10.2,15.2,7.4c0,0,10-6.2,6.6-13.2
			C413.6,493.7,410.3,486.7,403.6,486.7z"/>
		<path class="st2" d="M403.6,449.9c0,0-10.4,1.1-11.8,12.8c0,0,1.9,10.2,15.2,7.4c0,0,10-6.2,6.6-13.2
			C413.6,456.9,410.3,449.9,403.6,449.9z"/>
		<path class="st2" d="M441.8,423.2c0,0-10.4,1.1-11.8,12.8c0,0,1.9,10.2,15.2,7.4c0,0,10-6.2,6.6-13.2
			C451.8,430.1,448.5,423.2,441.8,423.2z"/>
		<path class="st2" d="M381.4,416.5c0,0-10.4,1.1-11.8,12.8c0,0,1.9,10.2,15.2,7.4c0,0,10-6.2,6.6-13.2
			C391.3,423.5,388,416.5,381.4,416.5z"/>
	</g>
	<g>
		<path class="st3" d="M430.6,298.3c6.5-18.5,65.1-190.8-24.1-182.3c-3.3,0.3-6.2-2.5-6.2-6c-0.1-10.8-3.5-30.4-27-31.7
			c-0.3,0-0.6,0-0.9,0c-2.5,0.2-13.3,1.7-18.8,10.1c-2.2,3.3-6.7,3.8-9.2,0.7c-9.8-12.2-31.5-30.9-65-16c-0.5,0.2-1,0.5-1.4,0.9
			c-3.3,2.8-17.9,16.3-18.5,36.1c-0.1,4.3-4.1,7.2-7.9,5.6c-12.2-5.2-34.8-11.6-53.1,1.3c0,0-35.4,21.7-14.7,49.6
			c0,0,10.7,12.7-6.5,17.2c0,0-40.7,10.7-20.1,35.5c0,0,32.2,43.1,70.4,55.7c0.3,0.1,0.5,0.2,0.8,0.3c4.4,2.3,46.9,24.9,62.6,42.2
			c0.8,0.9,1.8,1.5,2.9,1.8c4.3,1,15.3,2.9,20.5-2.3c2.3-2.3,2.2-6.3-0.1-8.6c-5-5.1-16.1-16.3-27.9-28.2c-5.4-5.4,2-14.1,7.7-9.1
			c5.9,5.2,12.1,11.3,18.4,18.4c0.7,0.8,1.6,1.4,2.5,1.7c4.3,1.4,15.9,4.2,13.4-6.3c0,0-32.6-62.4-50.3-77.9c0,0,47.9,37.9,62.3,83
			c0.4,1.2,1,2.2,2,2.9c3,2.3,9.5,5.7,12-6.5c0.2-1.2,0.1-2.4-0.3-3.5c-4.2-10.8-28.2-70.8-48.7-105.6c-2.9-4.8,1.7-10.8,6.8-8.9
			c2.7,1,5.3,2.4,7.5,4.7c0.4,0.4,0.7,0.8,1,1.3c4.1,7,37.1,65.2,40.7,110.3c0.2,2.7,2,5,4.5,5.6c4.8,1,12.2,0.5,14.6-11
			c0.1-0.5,0.2-1,0.1-1.6c-0.1-3.6-0.7-19.1-2.1-35.8c-0.6-7.5,9.7-9.3,11.4-2c2.7,11.6,4.7,26.7,5,46.1c0,0,4.3,12,11.3-3.1
			c0.2-0.5,0.4-0.9,0.5-1.4c0.1-0.3,0.1-0.7,0.2-1.2c1.4-7.2,11.5-6.2,11.4,1.2c0,4.5-0.1,9.2-0.2,14c0,0,1.4,12.6,10.3,6
			C429.4,300.4,430.2,299.4,430.6,298.3z"/>
		<path class="st3" d="M474.5,284.8c0,0-9.5-104.6,61.2-153.1c0.7-0.5,1.5-0.7,2.3-0.8c4.5-0.3,19.4-0.3,23,13
			c1,3.6,5.1,4.8,7.7,2.2c10.1-10.2,30.3-24.8,58.1-15.2c0,0,36.7,9.9,32.7,48.1c-0.3,3.1,2,5.7,4.9,5.5
			c11.5-0.8,36.7,0.1,47.6,21.8c0,0,12.8,25.4-8.1,43.9c-2,1.8-2.1,4.9-0.4,7c6.7,7.9,18.1,27.2-6,48.4c-0.4,0.4-0.9,0.7-1.4,0.9
			c-8.3,3.2-82.9,32.9-123.8,64.8c-0.2,0.1-0.4,0.3-0.6,0.4c-2.3,1.2-16.2,7.9-18.3-6.4c-0.2-1.6,0.3-3.2,1.4-4.3
			c4.4-4.3,17.1-16.5,33-29.1c4.5-3.6,0.2-10.9-4.8-8.3c-13.4,7.1-27.5,16.6-38.5,28.6c-0.9,1-2.1,1.5-3.4,1.5
			c-4.3-0.1-13.4-1.9-9.8-15.2c0.2-0.8,0.7-1.6,1.3-2.2c5-4.8,29.5-27.6,58.9-43.6c5.1-2.8,1.8-10.9-3.6-8.9
			c-15.7,5.6-34.3,16.1-53.4,35.6c-0.7,0.7-1.6,1.2-2.6,1.3c-4.8,0.6-19.2,1.8-15.9-5.6c0,0,63.6-65.5,91-82.5
			c1-0.6,1.7-1.5,2.1-2.6c1.5-4.6,3.8-16.2-13.4-8.6c-0.4,0.2-0.9,0.5-1.2,0.8c-6.4,5.7-68.2,61.3-78.5,76.9c0,0-10.8,10-9.8-5.2
			c0.1-0.9,0.4-1.8,0.9-2.5c7-9.7,57.9-79.8,79.9-99.9c2.3-2.2,2-6-0.6-7.8c-3.2-2.1-8.2-3.2-15.6,1.1c-0.5,0.3-1,0.7-1.4,1.2
			c-5.8,7.7-55.2,73.2-69.7,96.8c-2.2,3.5-7.3,2.7-8.3-1.4c-0.7-2.6-0.7-6.2,0.6-11.4c0-0.2,0.1-0.4,0.2-0.6
			c0.8-2.1,6.1-16.7,13.2-32c2.6-5.6-5.2-10-8.1-4.6c-5,9.4-9.7,21.6-12.9,37.5c0,0.2-0.1,0.4-0.1,0.7
			C484,274.2,481.8,299.7,474.5,284.8z"/>
		<path class="st3" d="M591.3,395.4c8.2-6.2,53.8-37.9,124.5-28.5c0.1,0,0.2,0,0.3,0c3.4,0.2,83.1,5.1,57.6,71.3
			c-1,2.7,0.5,5.6,3.2,6c9.5,1.3,27.7,7.1,28.5,31.9c0,0.4,0,0.7-0.1,1.1c-0.5,2.3-2.7,11.2-10.3,16.7c-2.4,1.7-2.3,5.4,0,7.2
			c7.4,5.6,17.9,17.9,14.1,40.5c0,0.1,0,0.3-0.1,0.4c-0.7,2.8-9.2,34.2-43.7,32.1c-3.3-0.2-5.6,3.5-3.9,6.5
			c5.7,10.5,10.2,29.7-19.6,44.6c-0.4,0.2-0.9,0.4-1.4,0.4c-5.2,0.6-36.7,1.9-60.9-43c-0.2-0.3-0.4-0.7-0.7-0.9
			c-4.7-4.8-50.9-51.5-78.5-59.9c-0.9-0.3-1.7-0.9-2.3-1.7c-2.9-4.4-10.2-18.7,12-22.9c0.4-0.1,0.7-0.1,1.1-0.1
			c6.4,0.5,65.8,6.6,96.7,46.7c0.6,0.7,1.3,1.2,2.1,1.5c3.5,1,12.4,2.1,13.3-10.6c0.1-1.3-0.3-2.7-1.3-3.6
			c-8.3-8.2-53.6-50.5-115.3-54.3c-1.6-0.1-3.1-1.2-3.7-2.8c-1.6-4.8-2.4-14.2,16.9-13.7c0.3,0,0.6,0,0.9,0.1
			c5.9,1.4,69.7,17.4,117.3,54.3c1.9,1.5,4.7,1,6-1.1c1.7-2.9,2.9-7.8,0.4-15c-0.3-0.9-0.9-1.7-1.7-2.2c-8-5-55-33.3-107.1-46
			c-1.2-0.3-2.3-1.1-2.8-2.3c-1.6-3.6-3.1-11.3,11.3-14.1c0.3-0.1,0.7-0.1,1-0.1c5.3,0.2,51.8,2.3,74,9.1c1.8,0.5,3.6-0.2,4.6-1.8
			c2.7-4.4,5.9-12.8-7.9-14.7c0,0-59.4-9.7-104.9-0.3c-1.2,0.3-2.5-0.1-3.5-1c-2-1.9-3.6-6.4,3.1-16.8c0.6-0.9,1.4-1.5,2.4-1.8
			c3.1-0.9,10.7-2.9,20.3-5c5.2-1.1,4-9.4-1.3-8.6c-11.8,1.7-24,5.4-35,12.7c-1.4,0.9-3.3,1-4.6-0.1c-1.5-1.2-3.1-3.4-2.7-7.2
			C589.8,397.2,590.4,396.1,591.3,395.4z"/>
		<path class="st3" d="M252.1,340.8c-20.3-13.8-123.9-80.2-159.3-24.1c-1.3,2-3.7,2.8-5.9,1.9c-9.3-4-33.7-11.4-45.2,13.7
			c-0.2,0.4-0.3,0.8-0.4,1.3c-0.6,3.1-2.2,16.2,8.4,27.5c2.5,2.6,1.8,6.9-1.4,8.4c-6.6,3.2-14.8,10.4-15.1,26.1
			c0,0.6,0.1,1.2,0.2,1.7c1,3.2,4.9,14.1,15.7,19.8c3.5,1.9,3.7,7,0.3,9.1c-8.7,5.4-17.8,15.5-16.2,34.3c0,0,0.6,47.2,56.3,30.1
			c0,0,17-4.6,14.5,22.3c-0.1,0.6,0,1.2,0.1,1.8c1.6,6.8,13.9,47.7,69,6.9c0.2-0.2,0.5-0.3,0.7-0.4c5.6-2.7,70.3-33.7,111.3-40.1
			c3.6-0.6,5.5-4.9,3.4-8c-3.3-5.1-9.3-10.7-19.5-8.9c0,0-63.2,11.4-83.7,24.5c-2.3,1.5-5.5,0.9-6.8-1.6c-1.2-2.3-0.7-5.7,5.7-10.2
			c0.2-0.2,0.5-0.3,0.8-0.4c3.2-1.5,24.8-11.8,44-18.6c5.1-1.8,4.2-9.5-1.1-10.1c-7.6-0.8-16.5-1.4-26.6-1.6
			c-6.1-0.1-6.6-9.6-0.5-10.3c14-1.7,29.3-2.7,45.2-2.2c1.4,0,2.8-0.5,3.7-1.6c3.3-3.6,9.3-12.4-0.7-18.4c-0.6-0.4-1.3-0.6-2-0.6
			c-8.6-0.8-69.7-6.5-119.5-0.9c-4.5,0.5-7.2-5.2-4.1-8.7c2-2.3,5.2-4.7,10.1-6.8c0.5-0.2,1-0.3,1.6-0.4c8.6-0.5,84-5.1,113.7-6
			c2.8-0.1,5.1-2.7,4.8-5.6c-0.6-4.7-4-10.7-17.9-10.6c0,0-68.3-7-89.4-7.4c-4.9-0.1-6.8-7-2.5-9.5c3-1.9,8.5-3.4,17.8-3.7
			c0.4,0,0.8,0,1.2,0.1c7.1,1.6,76.5,17,90.5-6C255.1,345.4,254.3,342.3,252.1,340.8z"/>
		<path class="st3" d="M267.8,521.4c0,0-122,48.6-110.7,104.1c0,0.1,0.1,0.3,0.1,0.4c0.5,2,5.2,18.3,18.8,21.1
			c3.2,0.7,5,4.3,3.5,7.4c-7.4,14.5-19.9,47.2,6.7,63.9c0.2,0.1,0.4,0.2,0.6,0.3c2.4,1.1,17.6,6.5,43.8-8.8c2.8-1.7,6.4,0.1,7,3.4
			c2.3,12.2,9.4,35.5,30,35.8c0,0,26.4,2.7,37.6-19c1.7-3.3,6.2-3.5,8.2-0.3c5.9,9.5,18.3,21.4,41.1,13.4c0,0,62.2-18,56.4-184.3
			c0-1.1-0.4-2.1-1-2.9c-2.8-3.9-11.2-14-15.2-2.9c0,0,0.1,6.9-0.1,16.6c-0.1,6.4-9.1,6.8-9.7,0.4c-0.7-7.5-1.4-14.5-2.3-20.2
			c-0.8-5.5-8.2-5.8-9.5-0.4c-0.2,0.8-0.4,1.7-0.6,2.7c0,0-4.1,23.5-10.2,49.8c-1.5,6.4-10.6,4.3-9.5-2.2l6-33.2
			c0.5-2.8-1.3-5.6-4-6c-5.4-0.8-13.5-0.3-14.4,10.1c0,0.5-0.2,1-0.3,1.5l-36.9,92.3c-0.2,0.5-0.5,0.9-0.8,1.3
			c-1.9,2.2-8.4,9-10.6-3.6c-0.2-0.9-0.1-1.8,0.2-2.6c2.8-7.7,17.8-49.6,29.5-77.4c2.1-5.1-3.9-9.6-7.7-5.8
			c-1.9,1.8-3.8,3.8-5.8,5.9c-4.1,4.4-10.7-1.2-7.5-6.3c10.6-16.9,25.5-33.6,46.2-43.9c2.3-1.2,3.4-3.9,2.5-6.5
			c-1.6-4.3-6.3-9.1-20.8-4.4c-0.4,0.1-0.7,0.3-1,0.5c-5.1,3.1-50.3,30.5-75.5,59.3c-0.6,0.7-1.4,1.2-2.4,1.5
			c-4,1.1-14.6,2.9-10.7-8.8c0.2-0.6,0.5-1.2,1-1.7c4.1-4.8,28-32.2,45.2-42.6c3.4-2,3.2-7.3-0.3-9
			C281.2,518.5,275.4,517.7,267.8,521.4z"/>
		<path class="st3" d="M445.7,549.6c-0.8,0.8-1.3,2-1.4,3.1c-0.6,14.2-5,114.5-3.1,143.7c0,0,0.6,49.9,32.7,40.8
			c2.7-0.8,5.3,1.2,5.5,4.1c0.8,11.5,6,35.3,34.2,35.9c0.5,0,0.9-0.1,1.4-0.2c3.3-1,17.4-6,23.5-18.4c1.5-3.1,5.6-3.4,7.5-0.5
			c7.2,10.9,22,27.4,43,19.3c0.3-0.1,0.5-0.2,0.7-0.4c3.1-1.8,23.9-14.8,26.9-37.3c0.4-2.8,2.8-4.6,5.4-4c10.9,2.6,35,3.8,25.2-41.7
			c-0.4-1.9,0.4-3.8,1.9-4.8c6.1-4.3,19.8-18.4,8.8-54.5c-0.1-0.4-0.3-0.7-0.4-1c-4.1-7.1-53.3-90.9-99.3-93.9
			c-1.3-0.1-2.6,0.5-3.5,1.5c-2.4,2.7-6,8.2-0.2,12.7c0.3,0.2,0.6,0.5,0.9,0.9c4.2,5.7,43.7,59.6,46.8,89c0,0.3,0,0.6,0,1
			c-0.1,0.9-0.3,2.7-0.8,4.4c-1.3,3.9-6.5,4.2-8.2,0.4c-6.4-14.4-31.6-69.5-51-87.8c-3.1-2.9-7.9,0-7.2,4.3c0.3,1.5,0.7,3.3,1.5,5.4
			c0,0,41.7,84.4,45,126.7c0.2,2.7-1.9,4.9-4.4,4.9h-1.2c-1.9,0-3.5-1.2-4.1-3c-5.6-16.2-32.8-93.1-49.6-120.4
			c-2.7-4.3-9.1-1.6-8,3.5c0,0.1,0,0.2,0.1,0.3c0,0,23.3,73.4,30.2,102.8c1.1,4.6-4.3,7.7-7.5,4.3c-10-10.6-25.4-38.9-33.7-114.3
			c-0.2-1.4-0.9-2.7-2.1-3.5c-3.4-2.1-10.1-4.5-9.2,9.4c0,0,3.1,88.7,11,112.5c0,0-21.7-83.3-23.6-123.5c-0.1-2.3-1.8-4.1-4-4.3
			c-2.9-0.3-6.6,0.7-7.4,7.2c0,0-7.5,70.6,0,104.4c0,0-9.9-97.6-8.8-123.7c0-0.7-0.1-1.5-0.4-2.1
			C457.7,549.6,453.2,541.6,445.7,549.6z"/>
	</g>
</g>
</svg>
