<?xml version="1.0" encoding="utf-8"?>
<!-- Generator: Adobe Illustrator 28.0.0, SVG Export Plug-In . SVG Version: 6.00 Build 0)  -->
<svg version="1.1" xmlns="http://www.w3.org/2000/svg" xmlns:xlink="http://www.w3.org/1999/xlink" x="0px" y="0px"
	 viewBox="0 0 850.4 850.4" style="enable-background:new 0 0 850.4 850.4;" xml:space="preserve">
<style type="text/css">
	.st0{display:none;}
	.st1{fill:#00C926;}
	.st2{fill:#FF88F1;}
	.st3{fill:#FFFFFF;}
</style>
<g id="Layer_1" class="st0">
	
		<image style="display:inline;overflow:visible;opacity:0.32;" width="671" height="869" xlink:href="../../../Froggie1004/clipart archive/frog2.jpeg"  transform="matrix(1.3306 0 0 1.4921 -21.21 -241.4698)">
	</image>
</g>
<g id="Layer_2">
	<g>
		<path d="M679.4,431.4c0,0,37.6-102.2-35.7-217.8c0,0,25.1-78-43.4-105c0,0-73.8-23.5-98,43.4c0,0-76.8-32.8-157.9-24.1
			c0,0-38.4-60.1-103.4-45.8c0,0-47.1,6.8-61.3,70c0,0-9.9,47.1,15.5,75.5c0,0-48.3,60.4-52,136.6c0,0-53.3-30.7-80.5-31.3
			c0,0-14.9,1.9-50.8,55.1c0,0-13.6,29.1,8,49.5c0,0,46.4,44.6,101.6,75.5c0,0,3.7,37.8,19.2,64.4c0,0-63.2,17.3-121.4,9.3
			c0,0-16.3-1.3-10.7,10.9c0,0,16.6,9,46.8,15.9c0,0,14.6,2.7,5,8.8c0,0-16.5,8-28,11.5c0,0-8,2.7-1.5,8c0,0,10,4.2,32.9,4.2
			c0,0,30.2-1.1,39.8-3.1c0,0-2.3,10.7-18,22.6c0,0-7.3,6.9,7.3,7.7c0,0,61.5-4.4,88.4-41.2c0,0,8.1,2.8,11.5,11.7
			c0,0,2.1,22.8-35.3,58.1c0,0-6.2,5.3-0.4,6.7c0,0,68.1-14.4,85.1,10.1c0,0,2.6,4.9,9.2,0c0,0,30.5-23.3,70.1-11.2
			c0,0,6,1.4,2.6-4.7c0,0-73.9-38.7-93.3-91.9c0,0,27.3-12.1,35.5-18.6c0,0,124.6,61.2,185.7,54.6c0,0,63.9-6.9,106.6-22.2
			c0,0-19.3,22-19.3,28.8c0,0,2.8,12,46,14l-2.8,5.2c0,0-49.6,27.6-63.6,36c0,0-4,5.6,6.4,5.6c0,0,60.4-7.6,70,20.4
			c0,0,1.6,2,6.8-1.6c0,0,25.6-18.4,71.2,0c0,0,18.8-2,12.4-10c0,0-32-28.4-52-45.2c0,0,39.2-4,84.4,10c0,0,9.2,2,17.6,2
			c0,0,44.8,2.8,60,12c0,0,9.8-1.5,17.7-1.5c0,0,27.3,0.3,15.2-6.5c0,0-10.3-2.2-27.8-12.6c0,0-3-2,2.5-2.5c0,0,34-5.3,42.6-23.9
			c0,0,2-7.4-14.2-5.6c0,0-23.3,4.1-37.8-1c0,0-2-1.5,1.8-3.3c0,0,21.1-12.7,17.3-17.8c0,0-1.8-2-19.8,1.5c0,0-79.1,10.2-119.8-2.7
			c0,0,91.6-108.9,113.9-142c0,0,41.2-54.9,12.4-82.8c0,0-32.6-32.6-64.3-14.2C735.5,387.2,685.6,440,679.4,431.4z"/>
		<path class="st1" d="M177.4,626.9c0,0-23.1-27.8-31.7-42.3c0,0-74.9,14.6-110.5,12.4c0,0-6.5,1,3.5,4.7c0,0,19.6,6.4,32.7,10.5
			c0,0,16.9,6-21.7,21.7c0,0-6.4,5.2,5.6,5.2c0,0,37.1,0.7,55.5-3.4c0,0,6.4-2.6,3.7,5.2c0,0-4,10.4-16.1,20.6c0,0-3.2,3.7,6.8,3.7
			C105.2,665.5,153.6,661.4,177.4,626.9z"/>
		<path class="st1" d="M141.9,372.5c0,0-45-28.1-74.6-31.8c0,0-7.5-1.1-15.7,7.1c0,0-27,26.2-36,53.2c0,0-4.9,12.7,12.4,30.7
			c0,0,34.7,35.2,94.8,70.4c0,0,8.5-72.5,19.1-94.6C141.9,407.5,140.1,386.1,141.9,372.5z M127,426.8c-9.7-14-17.5-15.9-17.5-15.9
			c-5.1-1.2-9.3-5.8-9.3-5.8c-6.6-5.4-25.3-8.5-25.3-8.5c-15.5-4.7-10.1-9.3-10.1-9.3c20.6-3.9,64.5,30.3,64.5,30.3
			C129.7,421,127,426.8,127,426.8z"/>
		<path class="st1" d="M671.6,468c0,0,5.9-18.4,6.9-27.5c0,0,11.8,0.3,58.6-47.5c0,0,9-9,31.2,0c0,0,33.6,10.9,31.7,36.5
			c0,0,2.8,26.9-30.3,69.4c0,0-64.8,79.4-103,124.3c0,0-7.6,6.6,2.4,8.5c0,0,61.4,17,121.5,3.3c0,0,11.7-1.4,2.1,5.3
			c0,0-19.5,8.6-13.6,13.3c0,0,33.4,6,53.7,0c0,0,11.4-2.1,4.1,4.5c0,0-18.7,17.6-45.3,13.8c0,0-5.9-1-5.9,3.1
			c0,0-13.1-2.1-38.4-20.1c0,0-6.6-1.7-4.8,5.5c0,0,26.1,17.1,54.7,28c0,0,7.3,3.8-2.8,4.5c0,0-34.4-10.7-63.8-11.5
			c0,0-69.1-13.5-93.2-13.1c0,0,39.6-71,42.6-127.5c0,0,57.6-59.5,68-107.3c0,0,0.6-8-9.6-2.8c0,0-3.1,3.5-3.1,8.9
			c0,0-4.3,38.1-54.7,87.1C680.3,526.9,681.2,486.8,671.6,468z"/>
		<path class="st1" d="M624.6,678.5c0,0-3.5-1.5,2.9-11.1c0,0,35.8-57.8,42.3-105.4c0,0,7.7-50.1-5.7-88.4c0,0-2.4-5.7,0.4-12.6
			c0,0,26.8-61.3,10.4-160c0,0-15.3-54.8-34.9-76.8c0,0-4.8-6.9-6.7-2.8c0,0-3.2,9.1-7.7,9.1c0,0-7.6-2.8-2.9-9.1
			c0,0,14-16.5,14.8-34.2c0,0,9-58.7-39.6-69.3c0,0-36.7-9.4-61.8,3.5c0,0-21.6,11.8-27.2,36.2c0,0-4.8-0.9-7.4,1.7
			c0,0-66.3-34.4-154.8-25.4c0,0-21.1,1.9-15-1.9c0,0,5.3-4.2-1.1-11.3c0,0-25.7-36.2-78.8-33.8c0,0-51.2,5.6-62,62
			c0,0-11.7,43.7,11.7,71.4c0,0,7.4-9.1,11.5-8.2c0,0,6.3,0.2,6.3,4c0,0-0.8,3.4-5.7,4.8c0,0-21.9,19.1-37.7,52.4
			c0,0-31.6,56.3-27,134.1c0,0-15.3,53.3-17.3,105.3c0,0-3.1,51,54.5,108.1c0,0,12.6,12.9,12.6,22.1c0,0,3.8,10.6-23.9,50.5
			c0,0-6.2,6.2,1,4.8c0,0,48.9-8.5,72.3,13.8c0,0,26.8-15.1,52.8-15.1c0,0-47.6-32.3-59.7-49.4c0,0-26.7-41.1-34.2-63
			c0,0-6.7-18.9-16.7-26c0,0-5.4-5,2.1-6.7c0,0,10.2,7.5,10.6-11.7c0,0,6.5-45.1-16.9-70.2c0,0-2.8-3.2-0.7-5.8c0,0,2.7-2.7,8.6,3.9
			c0,0,25.9,21.5,12.8,87c0,0-2.8,5.8,1.3,11.4c0,0,15.4,26.9,18.8,38.5c0,0,21.9-7.5,31.7-15c0,0-30.1-17.2-38.9-26.9
			c0,0-4.1-6.6,5-3.4c0,0,71.9,40.9,125.1,56.9c0,0,70.9,29.3,125.5,18.6c0,0,71.6-9.7,98.2-24.3c0,0,24.7-14.5,27.5-14.5
			c0,0,6-1.4,3.2,4.2c0,0-24.7,11.3-51.5,45c0,0-16,14,36.2,14.4c0,0,22.8-38.7,21.8-71.9c0,0-16.4-37.7-3-90.8c0,0,4.3-6.5,7.6-0.6
			c0,0-11,44.8,1.6,78.6c0,0,5.6,13.5,19.9,14.5c0,0,5.9,1.8,0,5.5c0,0-9.2,2.7-16.2,1.7c0,0-12.3,45.7-26.2,66.5
			c0,0-5.9,10.2-6.6,17.8c0,0-1,3.3-5.3,0.3c0,0-4.9-1.6-12.2,6.3c0,0-5.1,4.1-15.5,6.8c0,0-13.7,5.4-16.8,12.6
			c0,0,46.4-2.9,57.4,15.7c0,0,3.5,5.8,11.6,1c0,0,28.6-14.9,64.6,3.3c0,0,4.3-1.3,0-8.5C672.1,718.8,635.6,686.5,624.6,678.5z
			 M543.1,137.8c33.6-15.8,62.6,0,62.6,0c21.7,14.5,20.1,49.4,20.1,49.4c-4,49.4-47.1,46.8-47.1,46.8c-50.1-4-58-42.2-58-42.2
			C514.7,154.3,543.1,137.8,543.1,137.8z M207.1,183.9c-25-50.1,21.1-78.4,21.1-78.4c19.1-9.2,36.9-5.3,36.9-5.3
			c46.1,9.1,47.4,52.7,47.4,52.7c-3.9,54-44.8,61.9-44.8,61.9C228.2,217.5,207.1,183.9,207.1,183.9z M637.2,364.5
			c4.2,4.4,0,7.6,0,7.6c-6.7,1.6-3.1,25-3.1,25c1.1,9.8-3.3,5.4-3.3,5.4c-12-17.4-7.6-41.4-7.6-41.4c-6.5-17.4-33.7-33.7-33.7-33.7
			c-4.4,4.9-7.6,1.6-7.6,1.6c-6.5-9.8-28.3-1.6-28.3-1.6c-18.5,6.5-22.3,0-22.3,0c-10.3-23.9-50.6-22.9-50.6-22.9
			c-35.9-0.5-62.6,12.5-62.6,12.5c-20.1,7.1-25,0.5-25,0.5c-16.3-16.3-39.2-23.9-39.2-23.9c-30.5-8.7-81.6,0-81.6,0
			c-9.8,3.3-29.4,9.3-29.4,9.3c-31,8.7-49.5,53.5-49.5,53.5c10.1,11.4,6.3,33.6,6.3,33.6c-5.9,0.4-4.6-6.3-4.6-6.3
			c-2.5-20.6-24.4-29.9-24.4-29.9c-9.7-4.6-6.1-6.7-6.1-6.7c7.8-5.4,21.1,4.2,21.1,4.2c2.6,1.7,5.7-5.9,5.7-5.9
			c16.8-40.5,57-60.5,57-60.5c52.2-28.3,145.3-32.7,145.3-32.7C460,248.6,515,273.6,515,273.6c69.7,25.6,117.6,79.5,117.6,79.5
			c3.8-6.5,12.5-6.4,12.5-6.4c7.6,0.7,0,5.8,0,5.8C633.1,356.3,637.2,364.5,637.2,364.5z"/>
		<path class="st2" d="M577.5,318.4c0,0-114.1-95.9-296.2-35.4c0,0,30.9,1.9,45.1,0.8c0,0,40.7-3.6,67.6,22.9c0,0,8.1,10.2,17.3,6.1
			c0,0,22.4-12.7,58-14.2c0,0,52.2-3,59.5,14.2c0,0,6.6,11.2,18.3,8.6C547.1,321.4,567.2,316.8,577.5,318.4z"/>
		<path class="st3" d="M602.5,148.1c0,0-15.3-14.7-46.8-7.1c0,0-19.8,2.6-26.9,29c0,0-10.2,23.3,19.8,44.2c0,0,33,21.8,58.5,0
			C607.1,214.1,633,185.7,602.5,148.1z M557.2,179.2c-0.9,11.2-10.1,11.2-10.1,11.2c-10.7-0.3-10.7-10.7-10.7-10.7
			c0-9.1,9.1-11.7,9.1-11.7C557.8,167.4,557.2,179.2,557.2,179.2z"/>
		<path class="st3" d="M289.4,119.3c0,0-13.7-15.7-39-13.6c0,0-36.1,4.1-42.4,42.7c0,0-2.9,36.8,31.3,53.4c0,0,31.3,18,55.2-15.5
			C294.5,186.3,317.8,151.7,289.4,119.3z M288.3,164.4c-1.1,10.1-9.9,10.5-9.9,10.5c-9.9-1.1-9.9-9.2-9.9-9.2
			c-0.7-11.8,9.9-11.8,9.9-11.8C289.4,155.4,288.3,164.4,288.3,164.4z"/>
		<path d="M269,324c0,0,9.5,2.3,12.4-3.6c0,0,9.1-1.8,24.2,1.4c0,0,9.8,2.7,15.6,2.6c0,0,29.4,4.4,47.4,22.8c0,0,17.7,15.7,43.3,7.5
			c0,0,6.8-4.1,13.3-4.4c0,0,18.1-3.5,30.7-10.8c0,0,31.1-8.3,46.8,4c0,0,13.3,12.3,28.3,10.9c0,0,2-1.4-4.8-4.1
			c0,0-7.5-3.1-10.6-8.9c0,0-8.5-11.6-40.3-11.6c0,0-26.3,0.7-50.2,15.4c0,0-16.7,6.5-26.9,6.5c0,0-15.7,1-25.6-13.2
			c0,0-21.2-21.7-67.2-23.7C305.4,314.8,279.6,313.4,269,324z"/>
		<path d="M536.2,353.3c0,0,7.6,2.8,19.7,1.8c0,0,13.4-0.8,18.9,5c0,0,2.4,3.3,2.7-1.5c0,0,0.8-7.3-16.1-7.8
			C561.4,350.8,546.5,353.5,536.2,353.3z"/>
		<path d="M241.7,666.1c0,0-4.4,3.5,0,5.4c0,0,8.6,2.3,16.6,2.1C258.3,673.5,258.7,667.7,241.7,666.1z"/>
		<path d="M206.4,673.6c0,0,0,4.2,2.8,1.6c0,0,7.9-8.8,15.4,0.8c0,0,1.9,2.2,4,3.8c0,0,9.6,23.2,16.8,20.4c0,0,0.9-2.9-2.1-7.1
			c0,0-2.8-3.3-3.6-8.2c0,0-10.4-21.7-22.6-21.3C217.1,663.7,207.8,663.3,206.4,673.6z"/>
	</g>
</g>
</svg>
