<?xml version="1.0" encoding="utf-8"?>
<!-- Generator: Adobe Illustrator 28.1.0, SVG Export Plug-In . SVG Version: 6.00 Build 0)  -->
<svg version="1.1"
	 id="Layer_1" xmlns:svg="http://www.w3.org/2000/svg" xmlns:dc="http://purl.org/dc/elements/1.1/" xmlns:rdf="http://www.w3.org/1999/02/22-rdf-syntax-ns#" xmlns:cc="http://web.resource.org/cc/"
	 xmlns="http://www.w3.org/2000/svg" xmlns:xlink="http://www.w3.org/1999/xlink" x="0px" y="0px" viewBox="0 0 850.4 850.4"
	 style="enable-background:new 0 0 850.4 850.4;" xml:space="preserve">
<style type="text/css">
	.st0{fill-rule:evenodd;clip-rule:evenodd;}
	.st1{fill-rule:evenodd;clip-rule:evenodd;fill:#FFFFFF;}
</style>
<g>
	<path class="st0" d="M373.5,27.6c0.2,5.4-7.9,2.5-7.8,7.8c-0.7,6.5,7.3,4.2,11,6.3c-5,7.6-18.7,1.1-20.4-4.7
		C358.3,30.1,364,27,373.5,27.6z"/>
	<path class="st0" d="M528.6,38.6c1.3,6.6,7.6,8,7.8,15.7c-8.7,0.9-12.9-2.8-17.2-6.3C517.7,40.2,520.8,37.1,528.6,38.6z"/>
	<path class="st0" d="M469.1,46.4c-2.6,5.3-11.3,4.3-14.1,9.4c-1.1,5.8,2.7,6.7,1.6,12.5c-5.8,0.1-9.1-2.4-12.5-4.7v-11
		C449.7,48.9,460,41.6,469.1,46.4L469.1,46.4z"/>
	<path class="st0" d="M386,52.7c-4.6,3.7-10.1,6.6-12.5,12.5c0.7,4.5,5.5,4.9,4.7,11c-1.9,1.8-5.5,1.8-9.4,1.6
		C358.3,65.5,369.7,46.1,386,52.7z"/>
	<path class="st0" d="M611.6,69.9c-4.4,11.5,3.8,13.4,6.3,21.9c-12.5,2.3-33.3-14.7-25.1-28.2C601,63.8,607,66.1,611.6,69.9z"/>
	<path class="st0" d="M307.7,66.8c-6.1,8.9-17,16.4-14.1,29.8C277.8,95.7,291.2,64.1,307.7,66.8z"/>
	<path class="st0" d="M541.1,69.9c-4.8,8.7,1.8,14.6,3.1,21.9c-9.6,3.5-18.7-6.1-17.2-18.8C530.2,70.6,536.2,65.8,541.1,69.9
		L541.1,69.9z"/>
	<path class="st0" d="M480,79.3c-7.9,8-22.9,16.9-11,31.3C443.7,113.9,453.3,72.3,480,79.3z"/>
	<path class="st0" d="M397,88.7c-3,6.9-13.3,6.5-15.7,14.1c-2.5,9.3,5.5,8.1,4.7,15.7C362,116.9,376.5,77.2,397,88.7z"/>
	<path class="st0" d="M245,95c-7.4,8.3-16.8,14.5-23.5,23.5C215.3,108.5,229.5,93.4,245,95z"/>
	<path class="st0" d="M661.7,99.7c-1.7,7.4-13.4-0.2-7.8-4.7C657.1,95.9,659,98.2,661.7,99.7z"/>
	<path class="st0" d="M652.3,104.4h-4.7c0.9-5-2.9-4.8,0-7.8C650.4,98,653,99.4,652.3,104.4z"/>
	<path class="st0" d="M642.9,104.4c-1.7,3.1-13,2.7-11-3.1C635.9,97.4,639.6,102.8,642.9,104.4z"/>
	<path class="st0" d="M627.3,110.6c4.1,9.5-2.2,16.2,0,23.5c2.3,7.7,10.4,7.9,12.5,17.2C613.6,155.3,579.9,92.9,627.3,110.6z"/>
	<path class="st0" d="M312.4,109.1c-4.1,11.6-16,15.3-15.7,31.3C283,130.4,297.4,109.3,312.4,109.1z"/>
	<path class="st0" d="M555.2,113.8c-0.4,6.4-4.4,9.2-6.3,14.1c1.3,8.1,10,8.8,9.4,18.8C540.6,153,526.4,111.1,555.2,113.8z"/>
	<path class="st0" d="M179.3,127.8h4.7c8,17-5.6,36.3-23.5,37.6C167.4,153.4,186.5,144.5,179.3,127.8z"/>
	<path class="st0" d="M489.4,131c-8.6,8.5-17.7,14.9-11,31.3c-11.6,0.1-12.4-10.5-12.5-21.9C471.3,135.8,479.5,125.8,489.4,131z"/>
	<path class="st0" d="M679,132.5h6.3c2.1,2,2.1,7.4,0,9.4C681.5,140.4,677.5,139.2,679,132.5z"/>
	<path class="st0" d="M248.2,134.1c-7.4,9.3-17.3,16.1-23.5,26.6C214.2,150.8,234.1,134.7,248.2,134.1z"/>
	<path class="st0" d="M406.4,138.8c-9.3,7.2-15.2,23.4-12.5,37.6C372.8,169.9,387.7,132.3,406.4,138.8z"/>
	<path class="st0" d="M646.1,154.5c0.2,5.1-6.4,7.5-9.4,4.7C638,155.8,640.5,153.6,646.1,154.5z"/>
	<path class="st0" d="M329.6,156c-3.6,13-23.7,16.5-18.8,32.9C295.2,178.4,313.9,155.3,329.6,156z"/>
	<path class="st0" d="M647.6,173.3c-10.1,6.8-20.6,19.1-14.1,37.6c-12.2-4.3-23.5-19.3-20.4-32.9
		C616.5,163.7,636.4,164.4,647.6,173.3L647.6,173.3z"/>
	<path class="st0" d="M570.9,178c-9.3,10.2-13.7,23.3-7.8,37.6C539,215.3,543.7,165.2,570.9,178z"/>
	<path class="st0" d="M429.9,182.7c-4.6,7.8-14.1,6.1-20.4,11c-8.7,6.8-10.6,17.9-15.7,28.2C377.4,203.7,406.4,170.2,429.9,182.7z"
		/>
	<path class="st0" d="M263.8,182.7c-11.8,6-21,14.5-29.8,23.5C234.1,189.4,248.7,179.2,263.8,182.7z"/>
	<path class="st0" d="M122.9,184.2c2.5-0.4,2.7,1.5,4.7,1.6c1.5,14-5.9,19.2-11,26.6C112,208.5,122.9,194,122.9,184.2z"/>
	<path class="st0" d="M188.7,192.1c-15.8-6.7-17.8,13.3-28.2,17.2C155.6,197.4,182.2,173.2,188.7,192.1z"/>
	<path class="st0" d="M506.7,188.9c-11.3,8.1-24.7,13.9-23.5,34.5C459.8,211.8,487,178.6,506.7,188.9z"/>
	<path class="st0" d="M353.1,203c-21.4,1.6-29.3,16.6-36,32.9C303.2,219.9,334.9,187,353.1,203z"/>
	<path class="st1" d="M685.2,212.4c-4.5,0.3-8.6,0.2-7.8-4.7C679.7,205.4,685.5,207.6,685.2,212.4z"/>
	<path class="st0" d="M285.8,220.3c-16.2,4.2-25.4,15.3-37.6,23.5C246.5,223.2,269.2,212.4,285.8,220.3z"/>
	<path class="st1" d="M674.3,221.8c3.3-3.7,11.2,1.3,11,6.3C679.5,228.1,678.2,223.7,674.3,221.8z"/>
	<path class="st0" d="M384.5,256.3c0.6,6.7-1.5,16.1,1.6,20.4c15.3-7.5,3.9-48.1,15.7-50.1c4.4,5.2,1.1,24.9-1.6,32.9
		c7.8-1.6,7.2-11.6,17.2-11c0.5,7.9-6.9,7.7-7.8,14.1c-0.4,5.6,1.1,9.4,4.7,11c5.9-10.3,6.9-43.3,23.5-25.1c-2.1,2.6-8.9,0.5-11,3.1
		c-0.7,4.9,3.3,5,7.8,4.7c0.5,6.8-8.7,3.9-7.8,11c14.6,4.2,16.6-17.9,18.8-31.3c5.9,3.3,8.2,4.1,14.1,4.7
		c-0.2,6.3-6.3,12.5-1.6,18.8c3.5-1.7,6.9-3.6,9.4-6.3c6.4,10.6-7.2,17.8-15.7,14.1c-3.2-6-0.3-12,0-18.8
		c-8.1,19.8-19.4,30.8-43.9,31.3c0.1-4.8-5.6-3.8-4.7-9.4c-4.9,0.9-2.4,9.1-4.7,12.5c-4.1,0.4-6.7-0.6-6.3-4.7
		c-8.8,5.1-16.3,12.7-29.8,9.4C355.9,270,367.2,250.1,384.5,256.3L384.5,256.3z M370.4,281.4c5.4-2.4,10-12.2,6.3-18.8
		C367.2,260.6,363.8,277.4,370.4,281.4z"/>
	<path class="st0" d="M144.8,237.5c-3.4,3.5-5.2-2.7-9.4-3.1c-12.1,4.6-19.9,13.5-23.5,26.6C101.7,246.4,135.4,213.3,144.8,237.5z"
		/>
	<path class="st0" d="M635.1,228.1c2.1,7-6.3,7.6-9.4,4.7C626.3,228.7,629.5,227.2,635.1,228.1z"/>
	<path class="st1" d="M653.9,228.1c5.6,0.6,10,2.6,11,7.8C658.6,235.9,653.1,235.1,653.9,228.1z"/>
	<path class="st1" d="M672.7,231.2c4.3-4.1,10.2,3.3,11,7.8C676.9,239.5,677.5,232.7,672.7,231.2L672.7,231.2z"/>
	<path class="st0" d="M361,292.3c-1.8-0.3-2.8,0.3-3.1,1.6c-9.7-3.9-7.6-19.5-7.8-32.9c-6.9,7.2-4.6,23.6-9.4,32.9
		c-6.1-0.2-5.7-6.8-6.3-12.5c-4.7,6.3-2.7,24.4-20.4,21.9c-3.8-4.1-6.1-9.2-1.6-14.1c4.1-0.5,4,3.3,4.7,6.3
		c16.6-6.2,5.7-38.8,18.8-51.7c7.3,2.7-0.1,19.9,4.7,25.1c6.5-10.7,5.8-28.6,18.8-32.9C355.8,251.3,357.5,275.3,361,292.3L361,292.3
		z"/>
	<path class="st0" d="M649.2,245.3c-4.4,3.9-9-1.4-14.1-1.6v-4.7C638.9,236.8,649.4,238.6,649.2,245.3z"/>
	<path class="st0" d="M624.1,239.1h9.4c-0.2,5-3.6,6.9-9.4,6.3V239.1z"/>
	<path class="st1" d="M765.1,240.6c-9.2,9.9-0.7,25.6,4.7,34.5C760.2,271.5,750.4,245.4,765.1,240.6z"/>
	<path class="st0" d="M213.7,245.3c-13.3,5.4-23.8,13.8-32.9,23.5C177.3,253.4,199.4,238.2,213.7,245.3z"/>
	<path class="st1" d="M724.4,242.2c-6.6,2.8-13.1,14-7.8,23.5C707.9,267.2,711.7,238.9,724.4,242.2z"/>
	<path class="st0" d="M616.3,254.7c-18.4,3.5-27,16.8-26.6,39.2c-8.1-2.7-14.5-12.6-15.7-18.8C569,248.6,602.9,229.8,616.3,254.7z"
		/>
	<path class="st0" d="M93.1,246.9c9.2,8.4,2,26.5-4.7,32.9c-4.5-5.4,3.8-23.7-4.7-31.3C85.6,246.7,89.2,246.7,93.1,246.9z"/>
	<path class="st0" d="M542.7,264.1c-24.9-1.6-35.5,18.2-32.9,39.2C471.7,288.5,521.7,232.6,542.7,264.1z"/>
	<path class="st1" d="M664.9,256.3c-3.8,6.1-19.4,0.4-25.1,4.7C637.9,253.6,657.8,256.3,664.9,256.3z"/>
	<path class="st1" d="M376.6,262.6c3.7,6.5-0.8,16.4-6.3,18.8C363.8,277.4,367.2,260.6,376.6,262.6z"/>
	<path class="st0" d="M292,287.6c-4.5,4.5-9.3-5.4-12.5,1.6c-1.5,5.7,6.2,2.2,9.4,3.1c-0.8,7-8.9,6.8-11,12.5
		c0.6,2.1,2.8,2.5,3.1,4.7c9,0.6,9-7.7,15.7-9.4c1.5,15.1-17.1,20.5-25.1,12.5c-4.3,6.9-14.5,14.8-23.5,7.8
		c-9.9,8.9-21.8,6.2-32.9,14.1c-15.1-9.2-0.6-37.5,20.4-34.5c3.2,5.3-3.8,14.9,0,20.4c13.2-2.9,7.1-33.1,23.5-31.3
		c4.2,0.5,13.4,8.5,3.1,14.1c-2.3-1.3-3.4-3.9-3.1-7.8c-8.7,0.3-9.6,13.6-4.7,18.8c17.8,1.7,19.1-12.6,17.2-26.6
		C276.3,282.7,290.9,274.4,292,287.6z M220,325.2c8.1-0.3,10.9-14.1,7.8-20.4C222.5,308.3,215.4,316.9,220,325.2z"/>
	<path class="st0" d="M218.4,290.8c-0.7,11.9-4.1,21-17.2,20.4c-0.6-7.3,8.2-5.4,7.8-12.5c-1-14.4-18.6-8.4-25.1-3.1
		c-2.9,3.4,0.3,12.8-3.1,15.7c-21.6-7.8,8-31.1,23.5-29.8C210.8,281.9,214.8,286.9,218.4,290.8z"/>
	<path class="st0" d="M314,282.9c-0.1,6.4-9.5,9.3-14.1,6.3C298.4,281.3,309.6,280.1,314,282.9z"/>
	<path class="st0" d="M151.1,292.3c-16.8-3.2-16.7,10.5-26.6,14.1C122.9,292,147.1,272.5,151.1,292.3z"/>
	<path class="st0" d="M462.8,289.2c-10.3,12.7-27.1,18.8-28.2,40.7C416.5,311.6,441.5,282.9,462.8,289.2z"/>
	<path class="st0" d="M198,293.9c2.5,12-0.1,35.9-7.8,48.6c-16.8,10.9-30.4-17.2-9.4-17.2c0.2,4.8-5.5,7-1.6,11
		C193.5,330.1,188.3,304.5,198,293.9L198,293.9z"/>
	<path class="st1" d="M776.1,297c1.4,1.2,3.5,1.7,6.3,1.6c-0.8,1.3-1.6,2.5-1.6,4.7c-1.8-1.3-4.2-2.1-7.8-1.6
		C774,300.1,776.5,300.1,776.1,297L776.1,297z"/>
	<path class="st1" d="M628.8,303.3c8.7,6.4,19.2-0.5,28.2,0c-5.4,9.8-11.9,0.4-21.9,6.3c0,3.1,4.3,2,3.1,6.3
		C634,312.8,629.7,309.7,628.8,303.3L628.8,303.3z"/>
	<path class="st0" d="M115,315.8c-6.5,0.3-7.7-4.9-12.5-6.3c-4.9,1.9-8.3,5.3-14.1,6.3C85.9,301.2,117.9,300.1,115,315.8z"/>
	<path class="st1" d="M227.8,304.9c3.1,6.3,0.3,20.1-7.8,20.4C215.4,316.9,222.5,308.3,227.8,304.9z"/>
	<path class="st0" d="M386,314.3c-17.6,2.3-26.3,13.4-36,23.5c-0.8,4.9,2.8,5.5,1.6,11C331.4,331.2,370.6,295.7,386,314.3L386,314.3
		z"/>
	<path class="st1" d="M614.7,308c3.6,0.5,7.3,1,6.3,6.3C617,314.1,614.9,312,614.7,308L614.7,308z"/>
	<path class="st1" d="M740.1,309.6c-5.5,9.4-12.3,34.2-4.7,45.4C725.8,346.6,721.6,311.3,740.1,309.6L740.1,309.6z"/>
	<path class="st1" d="M790.2,328.4c-4.4-1.6-6.5-1.6-11,0c-1.1,13.7,3.6,21.5,6.3,31.3c-9.1-9.8-18.2-44.8,1.6-48.6
		C790.8,314.8,793.5,322,790.2,328.4L790.2,328.4z"/>
	<path class="st1" d="M705.6,323.7c11.5,13.3,9.1,40.2-6.3,43.9C707.5,356.1,710,340.2,705.6,323.7L705.6,323.7z"/>
	<path class="st1" d="M636.7,326.8c31.5,14,4.2,70.2-25.1,47c-0.3-3.4,1.3-5,4.7-4.7c-0.1-4.6-3.6-5.8-6.3-7.8
		c4-4.3,10.7,8.2,17.2,1.6c0.4-4.1-0.6-6.7-4.7-6.3c0.4-3.7,6.9-0.9,7.8,0c3.2-0.4,3.1-4.2,4.7-6.3c-0.5-5.8-6.7-5.9-9.4-9.4
		c2.4-4.2,6.8,2.5,9.4,3.1C637.3,337.2,632.3,335.3,636.7,326.8L636.7,326.8z"/>
	<path class="st0" d="M69.6,351.8c-8.3-3.4-5.6-23.7-20.4-15.7C49.6,320.1,77.3,331.7,69.6,351.8z"/>
	<path class="st0" d="M299.9,334.6c-11,8.4-26.3,12.4-31.3,26.6C260.9,342.4,289.6,320.7,299.9,334.6L299.9,334.6z"/>
	<path class="st0" d="M563,336.2c-16.4,4.8-39.8,20.3-34.5,47C491.6,366.2,533.7,305.4,563,336.2L563,336.2z"/>
	<path class="st0" d="M329.6,376.9c5.6,3,13.7-5.1,21.9-4.7c4.2,15.3-18.4,14.2-29.8,18.8c-10.3-18.1,8.2-29,11-43.9
		c-0.3-1.3-1.6-1.6-1.6-3.1c-13.7-3.8-7,12.8-20.4,9.4c-4.7-25,32.5-29.2,32.9-4.7C343.9,362.4,331.4,362.3,329.6,376.9L329.6,376.9
		z"/>
	<path class="st0" d="M491,355c-22.5-9.6-44.8,10.8-47,36C411.9,364.2,476.1,321.2,491,355L491,355z"/>
	<path class="st0" d="M230.9,351.8c-11.7,11.3-27.7,18.3-31.3,37.6C189.6,369.9,212.7,348.4,230.9,351.8z"/>
	<path class="st0" d="M30.4,355c2.1,0.6,2.5,2.8,4.7,3.1c-1.2,9.8,1.3,23.3-6.3,26.6C32.4,374.3,30.6,362.3,30.4,355z"/>
	<path class="st0" d="M160.5,361.2c-13.1,5.2-23,13.6-26.6,28.2C123.8,375,145.1,350.5,160.5,361.2z"/>
	<path class="st0" d="M768.2,361.2c5.4-1.1,5.6,5.5,3.1,7.8C768.2,367.9,765,364.4,768.2,361.2z"/>
	<path class="st0" d="M400.1,369.1c-6.8,7.3-21.3,6.9-28.2,14.1c-4.6,6.4-5,16.9-9.4,23.5C342.3,386.3,375.1,354.1,400.1,369.1z"/>
	<path class="st0" d="M575.6,369.1c5.7,0,7,4.5,11,6.3c-0.3,5-11.6,3.6-14.1,1.6C572.2,373,574.9,372.1,575.6,369.1z"/>
	<path class="st0" d="M111.9,392.6c-16.3-2.2-26.4,9.7-29.8,25.1C67,396.7,102.1,365.8,111.9,392.6z"/>
	<path class="st0" d="M318.7,391c-18.8,5.2-32,16-36,36C265.5,404.9,299,376.9,318.7,391L318.7,391z"/>
	<path class="st0" d="M782.3,434.9c14.4-8.5,17.8-33.2,14.1-47c20.4,0.2,19.8,66.3,0,67.4C786.9,455.7,781,443.6,782.3,434.9z"/>
	<path class="st1" d="M752.6,391c-4.6,8.3-7.7,29.3-17.2,37.6C728.5,415.1,736.1,386,752.6,391L752.6,391z"/>
	<path class="st1" d="M683.7,398.8c3.5,10.8-8.9,19.3-4.7,36C660.1,430.7,674.3,403.1,683.7,398.8L683.7,398.8z"/>
	<path class="st0" d="M68,414.5c-15.8-2.3-17.3,9.8-23.5,17.2C38.7,418.8,61.7,391.9,68,414.5z"/>
	<path class="st0" d="M246.6,412.9c1,6.8-7.3,4.2-12.5,4.7c-10.5,4.2-11.6,17.6-20.4,23.5C205.9,417.7,232.5,396.8,246.6,412.9z"/>
	<path class="st1" d="M632,459.9c13.1-9.3,29.8-21.8,21.9-47C667.4,434.5,655.6,460.7,632,459.9L632,459.9z"/>
	<path class="st1" d="M580.3,419.2h6.3c15.9,23.8-1.4,64-36,51.7c-1-4.7-6-5.5-4.7-12.5c4.1,0.9,5.6-0.6,4.7-4.7
		c4.9-0.8,3.5,4.8,9.4,3.1c4.9-2,0.8-3.2,3.1-7.8c2.9,3.1,5.7,0.5,9.4,0c1.3-5.4-2.3-6-1.6-11c2.8-0.2,3.3,1.9,6.3,1.6
		C572.9,428.7,581.9,430.9,580.3,419.2L580.3,419.2z"/>
	<path class="st0" d="M502,431.7c-20.1,2.4-36.1,19.5-39.2,43.9C430.4,453.8,478.6,396.9,502,431.7z"/>
	<path class="st0" d="M35.1,428.6c2.7,6.2,6.1,11.7,6.3,20.4c-6-5-9-12.9-14.1-18.8C29.1,428.9,31.5,428.1,35.1,428.6z"/>
	<path class="st0" d="M184,442.7c-16.4-2.8-26.7,5.6-34.5,15.7C141.3,436.7,175.7,422,184,442.7z"/>
	<path class="st1" d="M525.4,431.7c2.5-0.4,2.7,1.5,4.7,1.6c-3.1,1.1,1,9.3-4.7,7.8C528.8,437.9,524.7,436.7,525.4,431.7
		L525.4,431.7z"/>
	<path class="st0" d="M425.2,453.7c-24.8-2.9-42.2,11-45.4,34.5C351.7,463.4,405.8,421.2,425.2,453.7L425.2,453.7z"/>
	<path class="st0" d="M754.2,453.7c1.1,5.8-2.7,6.7-1.6,12.5c-5.4,0.1-0.9-9.5-6.3-9.4C747.7,454.5,750.2,453.4,754.2,453.7z"/>
	<path class="st0" d="M127.6,467.8c-11.9,0.1-20.7,1.8-25.1,12.5C83.8,465.1,124.4,444,127.6,467.8z"/>
	<path class="st0" d="M346.9,472.5c-6.7,8.5-19.6,3.8-28.2,7.8c-7.8,3.7-8.6,12.5-17.2,12.5C296.8,465.9,334.2,453.9,346.9,472.5
		L346.9,472.5z"/>
	<path class="st1" d="M722.8,463.1c1.4,8.8-15.9,28.6-9.4,50.1C692.2,505,706.6,466.7,722.8,463.1L722.8,463.1z"/>
	<path class="st0" d="M791.7,469.3c8.2,22.5,1.2,66.7-25.1,54.8c2.6-16.1,18.9-22.8,17.2-40.7c-0.7-7.8-7.1-7.8-4.7-15.7
		C783.6,463.6,786.9,469.2,791.7,469.3z"/>
	<path class="st1" d="M657,477.2c-8.5,11.9-22.9,17.9-21.9,39.2C620.5,504.6,641.6,473.8,657,477.2L657,477.2z"/>
	<path class="st0" d="M79,483.4v7.8c-11-2.7-9.9,6.8-17.2,7.8c-3.1-3.3-1.2-10.4,0-14.1C67.1,484.3,73.7,479.3,79,483.4z"/>
	<path class="st0" d="M277.9,497.5c-3.6,7.8-10.5,0.9-15.7,1.6c-11.1,1.5-16.2,10.3-26.6,12.5C230.4,482,275.8,481.3,277.9,497.5z"
		/>
	<path class="st0" d="M472.2,494.4c1.3,1.8,2.1,4.2,1.6,7.8c-3.9,0.2-7.5,0.2-9.4-1.6C464.7,496.3,467.1,494,472.2,494.4
		L472.2,494.4z"/>
	<path class="st1" d="M492.6,497.5c-0.5,3.7-4.8,3.5-6.3,6.3C481.6,501,487.2,495.4,492.6,497.5z"/>
	<path class="st0" d="M50.8,508.5c-6.4-0.1-7.6,5-14.1,4.7C31.6,499.8,52,495.7,50.8,508.5L50.8,508.5z"/>
	<path class="st1" d="M603.8,503.8c14.7,7.4-1.3,39.3-21.9,36C594.5,533.6,612.5,521.6,603.8,503.8z"/>
	<path class="st0" d="M209,521c-12.3-4.1-21.3,4.7-31.3,11C167.6,510.8,206.2,499,209,521L209,521z"/>
	<path class="st0" d="M448.7,513.2c2-2.1,7.4-2.1,9.4,0C458.4,520.9,448.9,520.3,448.7,513.2z"/>
	<path class="st0" d="M467.5,516.3c2.3,7.3-11.9,9.3-11,1.6C458.5,515.7,463.3,516.4,467.5,516.3z"/>
	<path class="st1" d="M688.4,516.3c1.5,2.7,5.8,2.6,4.7,7.8c-3.9-4.7-7.7-1.3-12.5-3.1C680.2,516.6,690.8,522.9,688.4,516.3
		L688.4,516.3z"/>
	<path class="st0" d="M439.3,525.7c-0.4-5.3,5.8-8.1,9.4-4.7C449.6,526.6,444.1,525.8,439.3,525.7L439.3,525.7z"/>
	<path class="st0" d="M462.8,524.2c1.7,6.1,4.1,11.6,4.7,18.8C458,540.4,462.6,528.7,462.8,524.2z"/>
	<path class="st0" d="M458.1,525.7c-2.8,7.4,1,8.2,1.6,15.7c-3.6,0.5-6-0.3-7.8-1.6c0.7-5.8,2.9-8-3.1-9.4
		C450,527.1,452.5,524.9,458.1,525.7L458.1,525.7z"/>
	<path class="st0" d="M158.9,543c-11.6-0.1-25.7-0.3-28.2,12.5c-8.7-4.1-2.7-17.2,1.6-21.9C143.1,530.4,157,532.6,158.9,543z"/>
	<path class="st0" d="M713.4,535.1c6.5-0.8,2.2,7.6,0,7.8C709.7,542.6,712.5,536.1,713.4,535.1z"/>
	<path class="st0" d="M359.4,549.2c-24-1-33.4,12.5-39.2,29.8C288.1,558.7,347.1,515.5,359.4,549.2z"/>
	<path class="st0" d="M763.5,544.5c5.3,26.7-12.5,65.8-37.6,51.7c18.9-5,26-35.8,14.1-53.3C747.7,537.5,757.2,538.4,763.5,544.5
		L763.5,544.5z"/>
	<path class="st0" d="M776.1,591.5c-1.2-13.4,11.7-25.8,15.7-39.2c-0.1-6.9-0.3-13.9,6.3-14.1C806,555.3,795.3,586.9,776.1,591.5
		L776.1,591.5z"/>
	<path class="st0" d="M455,543c8.9,0,10.8,7,12.5,14.1h-9.4C456.5,552.9,454.9,548.8,455,543z"/>
	<path class="st0" d="M707.2,546.1c1.4-1.2,3.5-1.7,6.3-1.6c0.5,3.6-0.3,6-1.6,7.8C707.7,552.8,706.7,550.2,707.2,546.1L707.2,546.1
		z"/>
	<path class="st1" d="M679,547.7c-3.9,5-11,6.7-15.7,11c1.4,4.6,2.3,1.8,6.3,1.6c-4.9,12.3-14.1,20.4-15.7,36
		C638.8,579.3,657,550.7,679,547.7L679,547.7z"/>
	<path class="st0" d="M111.9,568c-10.3-1.8-14.4-4-21.9,1.6C75,549.8,119.7,550.2,111.9,568z"/>
	<path class="st1" d="M610,558.6c-12.9-4.1-25.2,7.2-32.9,17.2C569.6,565.2,602.2,544.7,610,558.6z"/>
	<path class="st0" d="M292,591.5c-5.1-1.1-6.9-5.6-9.4-9.4c-17.4-1.7-29.2,2.2-34.5,12.5C222.5,561.8,300.6,554.8,292,591.5
		L292,591.5z"/>
	<path class="st1" d="M458.1,564.9c3.8,0.9,3.5,5.9,4.7,9.4C457.9,574.4,458.1,569.6,458.1,564.9z"/>
	<path class="st0" d="M83.7,586.8H68C56.5,567,83,570.8,83.7,586.8z"/>
	<path class="st0" d="M362.5,585.2c-0.6-5.9,7.1-8.1,11-4.7C373.1,586.8,367.1,587.3,362.5,585.2L362.5,585.2z"/>
	<path class="st1" d="M530.1,580.5c-11.2,2.7-27,6.5-31.3,20.4C494.5,585.6,516.5,578.3,530.1,580.5L530.1,580.5z"/>
	<path class="st0" d="M376.6,580.5h6.3c2.9,1.8-0.8,10.2,6.3,7.8c-3.2,7.8-6-1.9-12.5,0V580.5L376.6,580.5z"/>
	<path class="st1" d="M400.1,583.7c5.3,0.5,1.6,9.9,6.3,11C402.5,598.9,400.5,588.1,400.1,583.7L400.1,583.7z"/>
	<path class="st0" d="M362.5,586.8c0.4,5.3-5.8,8.1-9.4,4.7C352.7,586.3,358.9,583.4,362.5,586.8L362.5,586.8z"/>
	<path class="st0" d="M229.4,618.1c-8.9-7-17.6-18-32.9-15.7c-5.2,0.8-7.6,3.8-12.5,6.3C165.2,572.8,236.2,585,229.4,618.1z"/>
	<path class="st0" d="M368.8,586.8c1.4,1.2,3.5,1.7,6.3,1.6c1.4,6.7-3.8,6.7-9.4,6.3C364.3,589.7,368.1,589.8,368.8,586.8
		L368.8,586.8z"/>
	<path class="st0" d="M351.6,594.6c2.6,7.4-9,8.6-7.8,1.6C345.5,594.9,347.9,594.2,351.6,594.6z"/>
	<path class="st0" d="M364.1,600.9c-4.8,0.1-10.3,0.9-9.4-4.7C357.5,593.6,367.2,592.9,364.1,600.9L364.1,600.9z"/>
	<path class="st0" d="M768.2,600.9c3.4,26-13.1,53.5-34.5,54.8c6.5-15.4,22.1-21.8,18.8-47C757.2,606,761.5,596.5,768.2,600.9
		L768.2,600.9z"/>
	<path class="st0" d="M675.8,607.2c-0.2,4.5-2,7.4-7.8,6.3v-4.7C669.8,607.4,672.2,606.7,675.8,607.2L675.8,607.2z"/>
	<path class="st0" d="M314,608.7c3.9-0.2,7.5-0.2,9.4,1.6c-1.3,3.4-3.9,5.5-9.4,4.7V608.7L314,608.7z"/>
	<path class="st0" d="M710.3,610.3c15.2,26.8-14.9,67.6-40.7,53.3c14.9-2.8,35.1-29.8,17.2-40.7
		C690.1,614.1,696.7,608.7,710.3,610.3L710.3,610.3z"/>
	<path class="st0" d="M179.3,644.8c-12.5-8.9-23.2-18.5-40.7-11C127.6,598.8,182.9,621.9,179.3,644.8z"/>
	<path class="st0" d="M314,616.6c-0.2,7.2-5.3,6.5,1.6,9.4c1.3,5.9-7,5.5-9.4,3.1c-1.1-4.3,3.1-3.2,3.1-6.3
		c-1.8,0.3-2.8-0.3-3.1-1.6c-2.9,0.2-1,5.3-3.1,6.3h-7.8C297.6,620.8,306.6,613.4,314,616.6L314,616.6z"/>
	<path class="st1" d="M464.4,615c21.9,17.5-11.5,48.9-36,34.5c-0.6-5.3,6.8-2.6,9.4-4.7c0-3.7-2.7-4.6-1.6-9.4
		c4.6,1.2,3,8.5,9.4,7.8c4-3.6,2.2-7,1.6-12.5c2.8,1.4,2.6,5.8,6.3,6.3c7.4-3-2.6-7.9,0-15.7c2.6,2.1,2.4,7,4.7,9.4
		C463.4,628.7,463.8,621.8,464.4,615L464.4,615z"/>
	<path class="st1" d="M622.6,618.1c-21.3,1.1-24.6,20.3-37.6,29.8C580.4,628.7,608.4,608.8,622.6,618.1z"/>
	<path class="st1" d="M339,655.7c-1.2-8,3.3-10.3,3.1-17.2c3.1,6.4,10.8-0.3,9.4-7.8c4.1-0.5,1.2,6.1,6.3,4.7c6-1.4,1.1-6.3,1.6-11
		c2.8,1.4,2.9,5.5,4.7,7.8c8.1-1.3,6.4-12.4,18.8-9.4C411.7,651.6,358.6,677.9,339,655.7L339,655.7z"/>
	<path class="st0" d="M647.6,626c2.5-1.9,5.9-1.4,9.4,0v4.7c-1.8-0.3-2.8,0.3-3.1,1.6C649.9,632.1,651.6,626.1,647.6,626L647.6,626z
		"/>
	<path class="st0" d="M138.5,666.7c-10-5.2-10.6-19.7-29.8-15.7c-1.3-4.4-5.1-6.4-4.7-12.5C119.5,626,140,652.4,138.5,666.7z"/>
	<path class="st0" d="M270.1,640.1c-3.9,0.2-7.5,0.2-9.4-1.6c1.3-3.4,3.9-5.5,9.4-4.7V640.1L270.1,640.1z"/>
	<path class="st0" d="M245,643.2c2.1,7-6.3,7.6-9.4,4.7C236.1,642,240.9,641.5,245,643.2z"/>
	<path class="st1" d="M563,641.6c-2.7,3-1.8,9.6-7.8,9.4C555.6,645.8,557.1,641.4,563,641.6L563,641.6z"/>
	<path class="st0" d="M229.4,652.6c-3.9,0.2-7.5,0.2-9.4-1.6C219.9,643.7,231.7,642.7,229.4,652.6L229.4,652.6z"/>
	<path class="st1" d="M542.7,647.9c-14.6,5.2-25.7,14-34.5,25.1C511.6,655.1,524.6,647.1,542.7,647.9L542.7,647.9z"/>
	<path class="st0" d="M218.4,652.6c-5.6,7.5,6.7,0.5,6.3,9.4c-3.8-0.6-3.4,2.9-7.8,1.6c-0.9-5.3-4.1-8.5-9.4-9.4
		C209.1,648.3,214.5,649.6,218.4,652.6z"/>
	<path class="st0" d="M249.7,649.5c1.8,1.9,1.8,5.5,1.6,9.4c-1.9-1.8-2.8-4.5-7.8-3.1C242.8,650.8,244.8,648.8,249.7,649.5z"/>
	<path class="st0" d="M198,655.7c-1.1,3.1-4.2,4.2-7.8,4.7C182.8,655.5,194,649.2,198,655.7z"/>
	<path class="st0" d="M238.8,654.2c1.2,7.7-7.9,5.3-3.1,12.5h-4.7c-1.1-5.4,1.5-3.8-1.6-11C231.2,653.9,234.9,654,238.8,654.2z"/>
	<path class="st0" d="M207.5,658.9c-0.2,5.8-7.4,10.3-12.5,6.3C195.2,659.3,202.3,654.8,207.5,658.9z"/>
	<path class="st1" d="M287.3,657.3c1.3,4.2,8.6,7.1,9.4,0c13.5,3.4,23.1,7.4,21.9,20.4c-2.1,22.5-45.1,19.4-51.7,0
		c0-3.7,2.7-4.6,1.6-9.4c4.8,2.3,8,0.3,7.8-6.3C280.5,667.7,286.6,663.5,287.3,657.3z"/>
	<path class="st0" d="M163.6,668.3c-2.9,3.1-5.7,0.5-9.4,0C153.1,661.4,165.6,658.9,163.6,668.3z"/>
	<path class="st0" d="M722.8,665.1c-2.4,26.9-22.9,43.8-47,43.9c8.2-9.6,27-16.9,21.9-34.5C702.6,667.9,714.4,658.7,722.8,665.1
		L722.8,665.1z"/>
	<path class="st0" d="M190.2,665.1c1.5,7.8-4.7,7.8-9.4,9.4C176.5,669.1,182.3,663.2,190.2,665.1z"/>
	<path class="st1" d="M339,665.1c1.9,7.1-10.6-0.1-11,4.7C324.6,664.4,335.9,666.5,339,665.1L339,665.1z"/>
	<path class="st0" d="M166.7,666.7c4.1-0.4,6.7,0.6,6.3,4.7C168.9,671.9,166.3,670.8,166.7,666.7z"/>
	<path class="st1" d="M470.6,673c-15.2-4.7-32.3,0.6-37.6,11C425.9,674.2,462.3,657.9,470.6,673L470.6,673z"/>
	<path class="st0" d="M160.5,671.4c4.9-0.7,7,1.4,6.3,6.3C162.1,680.8,156.2,676.4,160.5,671.4z"/>
	<path class="st0" d="M653.9,676.1c-3,5.2,0.6,11.5-3.1,18.8c-7.9,15.3-46.7,34.2-54.8,11c3.5-3.6,6.1,0.5,11,0
		C630.4,705.3,628.4,659.6,653.9,676.1L653.9,676.1z"/>
	<path class="st0" d="M589.7,674.5h6.3C597.8,680,587.2,681.8,589.7,674.5z"/>
	<path class="st0" d="M182.4,677.7v7.8c-1.9,1.8-5.5,1.8-9.4,1.6c-2.2-1-0.2-6-3.1-6.3C174.1,678.4,176.9,674.8,182.4,677.7
		L182.4,677.7z"/>
	<path class="st0" d="M581.8,682.4h-4.7v-6.3C582.4,674.5,582.3,678.3,581.8,682.4z"/>
	<path class="st1" d="M254.4,679.2h3.1c-0.3,1.8,0.3,2.8,1.6,3.1c-1.4,4.6-2.3,1.8-6.3,1.6C252.4,681.4,254.4,681.3,254.4,679.2z"/>
	<path class="st0" d="M196.5,712.1c-5.3,1.3-19.5-10.7-28.2-1.6c-6.2-4.3-17.8-10.3-15.7-18.8C156.6,675.7,192.8,699.9,196.5,712.1z
		"/>
	<path class="st0" d="M572.4,690.2c0.7,4.9-1.4,7-6.3,6.3C565.4,691.6,567.5,689.5,572.4,690.2z"/>
	<path class="st0" d="M505.1,694.9c-2.9,3.9-1.3,12.3-9.4,11c-4.2-4.7,0.4-10,1.6-14.1C502,690.6,500.3,696.1,505.1,694.9
		L505.1,694.9z"/>
	<path class="st1" d="M398.6,698c11.7,6.9-5.6,13.2-6.3,21.9c-4.4-1.8-8.1-1.8-12.5,0c4.8,10.4,19.9,10.4,28.2,17.2
		c-9.4-2.2-29.8-6.8-42.3,0c2-6.3,10.7-6,17.2-7.8c-2-7.4-9.1-9.7-17.2-11c0.3-1.8,2.9-1.3,4.7-1.6c3.4,0.3,0.7-5.6,1.6-7.8
		c2.8,3.3,7.9,9.8,14.1,4.7c-2.2-3-8.2-7-4.7-11c2.1,0.5,1.3,3.9,1.6,6.3c3.9,0.2,7.5,0.2,9.4-1.6c0.6-3.8-2.9-3.4-1.6-7.8
		c4.2-1.1,3,3.2,4.7,4.7C398.3,704.1,396.4,699,398.6,698L398.6,698z"/>
	<path class="st0" d="M480,698c4.5,0.7,7.1,3.3,7.8,7.8c-1.5,1.1-2.4,2.8-3.1,4.7c-4.4,1.3-4.1-2.2-7.8-1.6
		C475.8,703.3,480.3,703,480,698L480,698z"/>
	<path class="st0" d="M508.2,699.6c3.8-0.6,3.4,2.9,7.8,1.6c-2.8,9.5,3.2,10.2,0,17.2c-3.5-3.8-8.5-6.1-12.5-9.4
		C505,705.8,506.7,702.8,508.2,699.6L508.2,699.6z"/>
	<path class="st0" d="M491,705.9c4.8-0.1,6.1,3.3,9.4,4.7c-1.6,6.1,0.8,6.5-1.6,11c-6.8,1.6-7.2-3.2-11-4.7
		C489,713.3,489.3,708.8,491,705.9L491,705.9z"/>
	<path class="st0" d="M527,709v6.3h-6.3C515.9,711,522.7,704.1,527,709z"/>
	<path class="st0" d="M559.9,707.4c5.7-0.5,10.2,0.2,14.1,1.6c0,7.8,3.2,11.5,1.6,18.8c-3.8,17.1-51,34.5-56.4,11
		c14.2-6.7,35.1-6.7,42.3-20.4C562.2,711.5,556.7,713.2,559.9,707.4L559.9,707.4z"/>
	<path class="st0" d="M658.6,712.1c1.9,24.9-30.2,44.3-54.8,37.6c12.8-12.3,35.4-14.8,39.2-36c2.7,0.1,4.1-1.2,4.7-3.1
		C652.7,709.7,654.9,711.6,658.6,712.1L658.6,712.1z"/>
	<path class="st0" d="M503.5,718.4h6.3C511.6,723.8,501,725.7,503.5,718.4z"/>
	<path class="st0" d="M502,723.1c-0.1,4.2-3.6,7.5-6.3,4.7C495.2,723.7,497.8,722.6,502,723.1L502,723.1z"/>
	<path class="st0" d="M486.3,726.2c6.2,4.3,11.6,9.3,15.7,15.7c-5.3,24-34.8,27.2-59.5,20.4c-3.1-3.7-3.6-10-3.1-17.2
		c10.5,13.2,37.5,10,47-1.6C487.5,736.6,484.3,729,486.3,726.2L486.3,726.2z"/>
	<path class="st1" d="M348.4,729.4c4.5,6.4-9.8,21.5-1.6,26.6C335,757.9,346.5,732.8,348.4,729.4z"/>
	<path class="st0" d="M263.8,741.9c5.1,0.1,8.4,2,9.4,6.3c0.7,3.3-2.2,3-4.7,3.1c2.6,3.6,5.9,6.7,6.3,12.5
		c-13.5-4-32.4-24.3-45.4-9.4c-8.9-2.6-16.6-6.3-15.7-18.8c16.7-12.4,37,3.5,50.1,12.5C268.5,747.1,262.3,744.8,263.8,741.9z"/>
	<path class="st0" d="M326.5,754.4c-7.6,10.6-21.5,3.5-36,6.3c-4.4-6.3-1.8-13.6-3.1-20.4C296.7,752.2,313,747.8,326.5,754.4
		L326.5,754.4z"/>
	<path class="st1" d="M356.3,745c6.2-0.5,0.2,9.5,0,12.5C345.4,755.4,357.4,751.1,356.3,745z"/>
	<path class="st0" d="M589.7,756c-4.2,25.1-31,27.5-58,29.8c-0.2-4-2.9-5.5-4.7-7.8c15.8-7.7,40.6-6.4,43.9-26.6
		C580.7,750.9,585.2,749.3,589.7,756z"/>
	<path class="st0" d="M287.3,767c12.6,8.3,31.1,16.5,50.1,9.4c0.8,2.3,2.3,3.9,3.1,6.3C328.9,799.1,285.2,783.8,287.3,767L287.3,767
		z"/>
	<path class="st0" d="M502,793.6c-5.8,2.4-12.7,6.4-20.4,7.8c-14,2.6-36.4,1.4-39.2-14.1c14.1,2.8,41.5,2.4,47-12.5
		C501.1,770.1,509,783.8,502,793.6L502,793.6z"/>
	<path class="st0" d="M368.8,790.5c7.2-1.5,39.1,7.8,43.9-12.5C457.3,798.6,372.6,814.4,368.8,790.5z"/>
	<path class="st0" d="M433,817.1c-11.9,14.8-47.9,11.2-59.5-1.6c7.4-1.5,16.2,6,29.8,3.1C410.2,811.3,426,804.2,433,817.1L433,817.1
		z"/>
	<path class="st0" d="M63.3,630.7C19.8,547.4-0.1,441.6,24.2,339.3C36.4,287.6,60.4,238.9,86.8,203c53.1-79.2,126.1-139.8,224-170.7
		c145-45.9,305.1,3.6,391.6,81.5c68.7,61.8,124.7,152.5,133.1,267.9c8.3,114.4-32.2,218.1-86.2,286.7
		c-66.2,84.2-160.6,152.9-299.2,166c-84.7,8.1-171.2-19.6-235-51.7c-3.8-1.9-6.8-5.4-11-7.8C145.7,741.1,103.2,687.4,63.3,630.7
		L63.3,630.7z M154.2,723.1c-5.3-3,1.7,6.4,1.6,6.3c17.9,19.8,50.2,32.3,70.5,47c0.4-5.7-10-8.7-6.3-12.5c18,6,38.7,9.4,45.4,26.6
		c-15.2,3.6-25.7-10.7-39.2-14.1c20.6,17.5,52.3,23.9,79.9,34.5c-3.9-7.6-15.7-7.3-17.2-17.2c16.9-2.1,50.9,2.6,56.4,21.9
		c-14.5,5.4-26.2-3.6-37.6-6.3c42.1,18.3,95.2,19.5,147.2,18.8c4.6-6.1-7.2-7.5-1.6-14.1c20.1,5.6,31.9-17.8,56.4-7.8
		c3.4,6.3-3.3,7.2,0,11c5.1-5.6,18-9,25.1-7.8c0.3-2.3-0.6-5.8,1.6-6.3c20.6-2.8,31-18,50.1-20.4c1.7-0.2,4.1,4.8,6.3,4.7
		c-0.3,0,6.9-3.5,9.4-4.7c11.6-5.3,9.2-8.9,17.2-15.7c11.5-9.7,26.9-16.9,37.6-25.1c3.1,0,2,4.3,6.3,3.1
		c8.4-7.3,18.8-12.5,21.9-25.1c56-42.2,98.7-97.6,119-175.4c4.3-7.2,11.6-19.7,9.4-28.2c-0.4,5.3-3.4,8.1-9.4,7.8
		c-7.2-2-3.4-8.9-3.1-15.7c3.9,0.2,4.8,2.9,7.8,0c3.2-7.2,3.3-17.6,7.8-23.5c5.1-1.9,1.2,5.1,6.3,3.1c-2-16.7,0.2-22.6,1.6-40.7
		c-7.6-0.2-12.7-9.5-7.8-17.2c3.6,0.7,4.2,6.9,7.8,3.1c-0.4-13.5,6.3-19.8,4.7-34.5c-4-1.7-5.5,6.7-7.8,1.6
		c0.6-10.8,9.1-13.3,4.7-25.1c-1.4-4.3-2.9,4.2-7.8,1.6c-9.8-13.1-13.8-39-7.8-51.7c4.5,10.1,3.4,34.2,11,36
		c-2.2-5.1-3.6-11-4.7-17.2c-0.6-5.8,6.3-4.1,4.7-11c-16.7-46.5-30.2-96.2-54.8-134.7c-28.1-33.5-54.9-68.3-89.3-95.6
		c-4.6,1.4-4.8,1.4-9.4,0c-0.4-2.8-2.7-3.6-6.3-3.1C622.5,58,539.1,26.5,467.5,21.3c-11.2-0.8-18.7,0.1-23.5,6.3
		c-0.3,6,7.3,4.2,6.3,11c-8.8,1-12.7-3-15.7-7.8c-0.3-5,4.2-5.2,3.1-11c-51.2-0.9-96.2,10.5-137.8,23.5c-3.5,7.5-13.1,8.9-15.7,17.2
		c2,2.2,8.3,0.1,6.3,6.3c-4.8,1.1-5.7-1.6-9.4-1.6c-2.5-5-0.7-8.5,0-14.1c-82.8,39.4-148.9,95.4-198.9,167.6
		c-2.8,29-26.4,37.3-32.9,62.7c2.1,6.2,7.6,25.2-1.6,28.2c-1-7.6-1-8,0-15.7c-9.1,6.7-9.7,20.4-12.5,31.3
		c-18.6,71-19.7,156.3,1.6,222.4c2.1,3.8,3.1,1,4.7,3.1c-3.2,13.7,9.3,25.1,11,39.2c7.9,3,14,7.9,15.7,17.2
		c-4.5,1.9-7.1-9.4-7.8-1.6c9.9,19.3,21,37.5,34.5,53.3c11.3-5.8,25.1,12.3,29.8,23.5c-9-1.5-13.2-7.7-20.4-11
		c10.3,20.5,27.6,34,45.4,47c7.9-2.2,23,7.2,29.8,15.7C168.1,739.1,160.9,727.7,154.2,723.1L154.2,723.1z"/>
	<path class="st1" d="M179.3,734.1c-6.7-8.5-21.9-17.8-29.8-15.7c-17.8-13-35.2-26.5-45.4-47c7.1,3.3,11.4,9.5,20.4,11
		c-4.6-11.2-18.5-29.3-29.8-23.5c-13.4-15.8-24.5-34-34.5-53.3c0.7-7.8,3.3,3.5,7.8,1.6c-1.7-9.3-7.7-14.2-15.7-17.2
		c-1.7-14-14.2-25.5-11-39.2c-1.6-2.2-2.6,0.7-4.7-3.1c-21.3-66.2-20.2-151.4-1.6-222.4c2.9-10.9,3.5-24.6,12.5-31.3
		c-1,7.6-1,8,0,15.7c9.2-3,3.7-22,1.6-28.2c6.5-25.4,30-33.7,32.9-62.7c50-72.2,116.1-128.2,198.9-167.6c-0.7,5.6-2.5,9,0,14.1
		c3.7,0,4.6,2.7,9.4,1.6c2-6.2-4.3-4.1-6.3-6.3c2.6-8.4,12.2-9.7,15.7-17.2c41.6-13,86.7-24.4,137.8-23.5c1,5.7-3.4,6-3.1,11
		c3,4.9,6.9,8.8,15.7,7.8c1-6.8-6.6-4.9-6.3-11c4.8-6.1,12.3-7.1,23.5-6.3c71.6,5.2,155,36.7,194.2,78.3c3.6-0.4,5.9,0.4,6.3,3.1
		c4.6,1.4,4.8,1.4,9.4,0c34.4,27.2,61.2,62.1,89.3,95.6c24.7,38.5,38.1,88.2,54.8,134.7c1.6,6.9-5.3,5.1-4.7,11
		c1.1,6.2,2.5,12.1,4.7,17.2c-7.6-1.8-6.5-25.9-11-36c-6,12.7-2,38.6,7.8,51.7c4.9,2.6,6.4-5.8,7.8-1.6c4.4,11.8-4.1,14.3-4.7,25.1
		c2.3,5.2,3.8-3.3,7.8-1.6c1.6,14.6-5.1,21-4.7,34.5c-3.6,3.8-4.2-2.4-7.8-3.1c-4.9,7.7,0.2,17,7.8,17.2c-1.3,18.1-3.5,24-1.6,40.7
		c-5.1,1.9-1.2-5.1-6.3-3.1c-4.5,5.9-4.6,16.3-7.8,23.5c-3,2.9-3.9,0.2-7.8,0c-0.2,6.7-4.1,13.7,3.1,15.7c6.1,0.3,9-2.5,9.4-7.8
		c2.2,8.5-5.1,21-9.4,28.2c-20.3,77.8-63,133.3-119,175.4c-3.1,12.6-13.5,17.8-21.9,25.1c-4.3,1.1-3.2-3.1-6.3-3.1
		c-10.7,8.1-26.1,15.4-37.6,25.1c-8,6.8-5.6,10.3-17.2,15.7c-2.5,1.2-9.7,4.7-9.4,4.7c-2.2,0.1-4.6-4.9-6.3-4.7
		c-19.1,2.4-29.5,17.5-50.1,20.4c-2.1,0.5-1.3,3.9-1.6,6.3c-7.1-1.2-19.9,2.2-25.1,7.8c-3.3-3.8,3.4-4.6,0-11
		c-24.4-10-36.3,13.4-56.4,7.8c-5.7,6.6,6.2,8,1.6,14.1c-52.1,0.7-105.2-0.5-147.2-18.8c11.4,2.7,23.1,11.7,37.6,6.3
		c-5.5-19.4-39.5-24.1-56.4-21.9c1.6,9.9,13.3,9.7,17.2,17.2c-27.6-10.5-59.3-17-79.9-34.5c13.5,3.4,23.9,17.7,39.2,14.1
		c-6.7-17.3-27.4-20.6-45.4-26.6c-3.8,3.9,6.6,6.9,6.3,12.5c-20.3-14.7-52.6-27.2-70.5-47c0.1,0.1-6.8-9.3-1.6-6.3
		C160.9,727.7,168.1,739.1,179.3,734.1L179.3,734.1z M653.9,95c-5.6,4.5,6.2,12.1,7.8,4.7C658.9,98.2,657.1,95.9,653.9,95z
		 M647.6,96.5c-2.9,3,0.9,2.8,0,7.8h4.7C653,99.4,650.4,98,647.6,96.5z M304.6,638.5c-6.5,2.7-10.3-0.2-18.8,1.6
		c-0.5-2.1-2.2-3-1.6-6.3h-7.8c-2.4,14.5-18.7,3.9-25.1,9.4c-1.2,5.9,6,3.4,6.3,7.8c-6.7,5.8-1.5,21-6.3,25.1
		c2.6-5.9-2-12.1-3.1-18.8c-5.7-1.1-4.2,8.3-9.4,3.1c-1,7.8,4.3,9.2,6.3,14.1c-5.3,4.9-8.5-2-9.4-6.3c-17.5,0.1-34.8-3.3-43.9,7.8
		c2.7,7.7,5.8,15.1,9.4,21.9c-3-0.4-3.5,1.8-6.3,1.6c-3.6-4.4-1.3-6.7-4.7-12.5c-4.5-0.3-8,0.4-9.4,3.1c9.4,8.4,20.5,15,23.5,29.8
		c5.8,1.6,3.1-5.3,6.3-6.3c-2.1,9.3,7.5,8.5,12.5,6.3c-0.2,3.9-2.9,4.8,0,7.8c6.5,1.2,9.7-0.7,11-4.7c4.5,9.6,23.8,19.5,29.8,17.2
		c-14.9-16.6-41.6-32.1-61.1-34.5h7.8c-0.1-7.3-7.9-6.7-7.8-14.1c6.5,0.8,10,4.7,15.7,6.3c2.2-2,0.7-7.7,4.7-7.8
		c0,4.2-0.6,8.9,1.6,11c6.1,0.9,4-6.4,7.8-7.8v7.8c4.7,2.2,5.6-0.7,12.5,0c0.5-3.7,1.6-6.7,4.7-7.8c3.8,4,3.3,12.4,3.1,20.4
		c-4.6,0.1-5.8,3.6-7.8,6.3c9.5,0.1,10.3,18.8,20.4,11c-0.9,7.7,2,11.5,7.8,12.5c7.4-9.4-5.7-9.5-11-15.7c-0.7-0.9-0.2-5.5-1.6-7.8
		c-6.3-10.5-1.5,3.1,6.3,0c-3.9,5.5,4,9.9,7.8,12.5c3-1.9-3.4-9.9,3.1-11c1.4,15.8-1.2,24.7,0,34.5c18-2-3-18.2,7.8-25.1
		c3.8,6.7,8,12.9,18.8,12.5c1.7-4-4.8-7.5,0-9.4c2.5,2.2,1.7,7.7,4.7,9.4c5.4,0.7,4.7-4.7,7.8-6.3c0.5,7.2,9.8,0.5,12.5,0
		c0.9-2.3-1.8-8.1,1.6-7.8c3,3.9-1.3,6.2,1.6,11c-1.5,4.8-7.6,4.9-7.8,11c1.7,4.1,6.8,4.7,7.8,9.4c-4-0.8-6.1-2.7-6.3,3.1
		c9.4-0.3,25.4-0.7,34.5-3.1c14.9,11.2,56.8,9.3,58-12.5c-10.1-11.7-1.6-18.2,1.6-31.3c-2.1-1.6-3.1-4.2-6.3-4.7
		c-3.3,4-3.3,11.3-6.3,15.7c-0.4-2.2-2.6-2.6-3.1-4.7c3.3-5.9,5.7-12.7,6.3-17.2c4.2,2.7,8.8,11.2,14.1,7.8c-1.7,6.9,5.3,5.1,4.7,11
		c-3.1,0-2-4.3-6.3-3.1c-3,5.9-3.4,14.3-6.3,20.4c2.7,3.1,3.7,7.8,7.8,9.4c3.5-2.8,2-9.6,3.1-11c7.4,1.9,2.4,6.8,9.4,7.8
		c-3.1-5.7,3.2-7.2,3.1-14.1c-3-0.7-2.8-4.5-7.8-3.1c-2.7,1,0.1,7.4-3.1,7.8c0-7.9,1.5-14.2,6.3-17.2c-3.9,6.9,2.8,10.1,7.8,12.5
		c1.6-4.2,3.2-8.3,3.1-14.1c-2.1-2.2-11.3-5.3-7.8-7.8c4.1,5,9.9,5.7,12.5,4.7c1.7,5.4-7.8,12.7,0,14.1c4.6-1.3-0.9-5,0-7.8
		c5.9,2.8,8.6,5.8,17.2,3.1c-6.5-6.7-18.3-14.5-20.4-23.5c4.2,3.2,9.7,16.2,15.7,7.8c-2.1,7,0.2,6.3,4.7,9.4
		c1.6-2.1,2.6-4.7,4.7-6.3c1.1,4.8-1.6,5.7-1.6,9.4c5.8,6.1,14.1,0.6,18.8,0c-8.2-4.3-13-12-20.4-17.2c8.4-0.4,9.4-12.4,4.7-17.2
		c3.1,5.7,7.8-0.4,9.4,1.6c-2.8,3-0.4,9.6,4.7,9.4c7.7-3,2.3-13.1,9.4-14.1c-1.8,7,4.8,5.6,7.8,7.8c-1.1-4.2,3.2-3,4.7-4.7
		c-4.9,5.4,4,14.3,9.4,9.4c-0.3,4.5-0.2,8.5,4.7,7.8c1.5-8.9,7.3,3.2,9.4-6.3c-1.9-3.3-9.4-1-11-4.7c9.3-2,10.6,4,17.2,4.7
		c9-1.8,12.2-10.3,20.4-4.7c2.3-5.9-4.3-3-3.1-7.8c8.4,0.1,8.9,4.8,15.7,0v-15.7c-3.9-0.9-12.2-5.5-9.4-7.8
		c4.9,1.4,7.3,5.2,12.5,6.3c3.7-2.5,1.9-10.7,7.8-11c-0.4,6.4-4.8,8.8-4.7,15.7c26.4,1.1,54.6-12.7,65.8-36
		c-2.9-9.7-3-22.1-6.3-31.3c9.7,1,1.4,12.9,12.5,14.1c0.4-2.2,2.6-2.6,3.1-4.7c-1.5-3.2-5.1-4.3-7.8-6.3c4.3,0.7,1.5-5.8,4.7-6.3
		c0.8,3.9,3.8,5.6,6.3,7.8c-5.9,1.4-0.1,10.7,6.3,9.4c-4.9-9.8,3.1-10.1-1.6-17.2c26.2,2.8,46.6-20.4,42.3-47
		c-2.2-13.3-16.1-21.5-11-31.3c6.5,7.6,4,15.2,11,23.5c4.3-8.7-1.4-24.2-9.4-29.8c2.6,0,0.9-4.3,3.1-4.7c2.4,4.9,4.6,10,7.8,14.1
		c8.1-2.3,6.7,4.8,14.1,3.1v-6.3c-3.6-2.2-5.9,4-6.3,0c-0.1-2-2-2.2-1.6-4.7c37.1,17,50-49.7,25.1-67.4c4.1-3.7-2.2-10.3-7.8-9.4
		c-4.1,4.9,1.3,10.3,4.7,12.5h-6.3c-1-6.3-2.7-11.9-11-11c-4.9,3.1,5.4,7.8,1.6,9.4c-1.4-3.3-4.8-4.6-4.7-9.4
		c2.3-2.4,8.9-0.5,7.8-6.3c-1.1-3.1-9.3,1-7.8-4.7c8.9-1.3,14,14.5,17.2,4.7c4.2,3.7,9,6.6,11,12.5c35.3,5.7,33.4-34.5,31.3-62.7
		c-2.4-4.5-7.3,3.3-9.4-1.6c4.9-5.1,11.7,1.3,12.5-7.8c-6.9-3-5.5-0.5-12.5-6.3c-3.8,2.1,1.7,5.8-1.6,6.3c0-7.3-12.1-2.5-15.7-6.3
		c9.8,0.4,9.4-4.4,18.8-1.6c0.8-6.1-4-6.5-4.7-11c-4.7-0.4-9.5,4.4-11-1.6c4.2,0,9.2,0.9,9.4-3.1c-2.4-4.3-5.4-8.2-11-9.4
		c7.8-0.9,13-2.8,18.8,0c-3.8-0.6-3.4,2.9-7.8,1.6c-2.2,10,7.8,10.8,14.1,7.8c-4.6-9-6.5-20.7-17.2-23.5c7.4,1.4,4.3-3.8,6.3-4.7
		c-0.5,3.6,4.5,1.7,4.7,4.7c-3.1,9.1,15.8,18.5,6.3,29.8c9.8-1.8,11.8,8.9,21.9,11c24.4-19.6,0.7-44.2-4.7-67.4
		c-3.2-13.8-1.5-27.4-3.1-40.7c-2.2-2.5-8.2-1.2-7.8-6.3c-0.2-2.8,1.6-3.7,4.7-3.1c0-7.8-11.4-4.2-11-12.5c3.1,0,2,4.3,6.3,3.1
		c-4.2-7.5-0.6-20.8-15.7-20.4c-2.2,4.5,4.3,8,0,9.4c-3.5-7.7-12.9-1.1-18.8-4.7c0.6-2.2,1.9-2.6,0-4.7c2.9,4,9.7,4,11-1.6
		c-4.1-8.3-11.4-11.7-18.8-9.4c6.8-1.2,7.5-5.1,7.8-9.4c0.9,3.2,2.4,5.9,7.8,4.7c-4.2,7,4.8,12.4,9.4,15.7c5.6-2.9-1-7.3,1.6-9.4
		c3.2,3.1,3.3,9.2,9.4,9.4c-9.1-12.9-13.1-30.7-25.1-40.7c2.6,7.9,11.8,17.4,9.4,25.1c-7.3-15.1-16.9-28-31.3-36
		c1.8-3.9,6.5,3.8,6.3-3.1c-7.3-1.5-17.6-0.2-20.4-6.3c5.7-1.2,8.7,3.9,12.5,0c-2.2-6.7-12.4-5.4-15.7-11c4.8-1.1,4.6,2.7,9.4,1.6
		c-12.7-18.4-26.8-51.2-53.3-45.4c3.1-3.6,3.1-4.2,0-7.8c-10.7,2.3-24.1,2-31.3,7.8c4.9,18.2,28.8,14.5,43.9,7.8
		c14.4,5.9,25.6,15.1,29.8,31.3c-10.8,11.1-26.5-5.9-32.9-14.1c-4.2-1.8-9.2,3-9.4,0c2.1-3.1,7-3.5,11-4.7c-2.1-6.3-0.5-4.1,4.7-3.1
		c1.3-4.4-2.2-4.1-1.6-7.8c-9.6,0.4-14,5.8-23.5,6.3c3.5,11.3,7.4,25.7,3.1,32.9h12.5c2.2-5.5-9.5-4.9-4.7-7.8c4.7,1,9,2.4,9.4,7.8
		c-2.3,1.9-7,1.4-6.3,6.3c1.6,4.7,11.2,1.4,14.1,4.7c-8.2,3.7-18.8,6.9-23.5,6.3c0.6-5.2,8.3-3.2,7.8-9.4c-8.7-1.3-26.4-12.1-29.8,0
		c18.4-0.1,17.5,19,29.8,25.1c3.6-0.6,2.1-6.3,4.7-7.8c6.2,1.9,8.6-1.7,12.5,3.1c-7.9,0.5-12.4,4.3-18.8,6.3
		c16.5,39.2-25.2,18.9-39.2,28.2c4.8,3.5,17.2-0.5,17.2,7.8c-4.7,0.3-5.3-5.8-9.4-1.6c2.8,11.3,15.4,12.8,23.5,18.8
		c-15.4,3.5-21,3.8-36,0c-0.7,3-4.5,2.8-3.1,7.8c4.2,0,9.2-0.9,9.4,3.1c-7.4,6.6,4.5,14.7,3.1,25.1c7.1,0.5,17.9-7.4,21.9,0
		c-7.8-1.6-6.7,3.2-7.8,4.7c-5.4-8.5-23.3-0.1-17.2,7.8c6.2-3.2,20.6,1.8,21.9-6.3c0.5,3.2,3.1,4.2,4.7,6.3
		c-6.1-0.4-10,1.5-12.5,4.7c-16.5-7.5-31.9,8.4-51.7,4.7v7.8c4.1-0.4,7.8-0.5,6.3,4.7c-4.4-3.6-12.5-0.9-11,6.3
		c0.9,2.7,7.4-0.1,7.8,3.1c-3.2,0.4-0.4,6.9-4.7,6.3c2.4-8.2-13-5.7-9.4,1.6c2,4.1,9.4-1.2,9.4,1.6c-1.4,2.7-0.5,7.8-3.1,9.4
		c-2.1-1-2.9-3.3-3.1-6.3c-3.9-0.2-7.5-0.2-9.4,1.6c1.1,7.8,11.9,5.9,11,15.7c-4.7-2.2-9.6-1.8-11,3.1c2.5,2.2,8.1,1.3,9.4,4.7
		c-4.8,7,7.6,10.1,9.4,15.7c-5.5,2.6-8.3-0.4-15.7,1.6c-0.1,4.8,3.3,6.1,4.7,9.4c7.4,0.8,15.2-9.8,15.7,1.6c-2-2.2-6.8-1.6-11-1.6
		c-3.8,3.7,2.3,2.9,1.6,7.8c-3.6-2.1-5.2-6.3-12.5-4.7c2.7-3.9-3.9-8.9-7.8-11c-2.1,4.1-2.7,9.9-11,7.8c1.3,7.6,13.8,3.9,12.5,14.1
		c-3.1-4.7-11.5-4.2-12.5-11c-3.7,0.5-5.9,2.5-11,1.6c-3.5,4.3-6.4,12.3-6.3,15.7c-6.7-2-8-0.1-11,4.7c1.5,1.7,5.8,0.5,4.7,4.7
		c-3,0.2-1.1,5.2-4.7,4.7c-2.1-0.5-3-2.2-6.3-1.6c-3.8,5-1.9,5.5,0,11c-6.2-0.9-6.9,3.5-7.8,7.8c9.4,0,4.8,7.5,11,12.5
		c-4.8,1.2-1.9-5.4-7.8-3.1c0.1,2.2-0.7,3.4-1.6,4.7c1.7,3,7.2,2.2,9.4,4.7c-3.4,12.8,16.2,28.3,18.8,45.4
		c-11.9-4.8-9.2-24.2-21.9-28.2c3-3.8-1.3-10.3-6.3-11c-3.8,0.9-3.5,5.9-4.7,9.4c6.5,2.9,6.7,12.1,11,17.2
		c-6.4-3-8.3-10.5-14.1-14.1c-0.2,2.9-5.3,1-6.3,3.1c-1.6,6.8,8.7,11.4,1.6,14.1c-2.1-3.1-3-7.5-4.7-11c-6.4,3.7-8.3,4-15.7,4.7
		c1.1,7.6-3.2,5.1-9.4,7.8c-2,6.7,4.4,5,6.3,7.8c-4.6,5.7-15-0.2-20.4-3.1c-0.3,1.2-1.3,1.8-3.1,1.6c-1.3,10.3,15.3,7.1,17.2,9.4
		c-7.6,6.9-9.8,18.7-3.1,28.2c-10.7,6.9,5,21.1,1.6,29.8c-2.5-3.7-3-9.5-4.7-14.1h-11c-5.9,9.1-6.7,16.4-6.3,25.1
		c-2.3-0.3-1.4-3.8-1.6-6.3c-11.1,6-26.6,8.2-40.7,3.1c-0.6-4.7-2.5-7.9-4.7-11c5.6-5.4,3.3-7.8,1.6-15.7c3-0.3,3.5,1.8,6.3,1.6
		c4-9.3,14.6-17.4,26.6-17.2c-1.2-4.8,4.3-3,3.1-7.8c-21.6-25.5-63.1,2.6-51.7,32.9H386c-1.7,5.8,3.3,5.1,4.7,7.8
		c-2.2-0.1-3.4,0.7-4.7,1.6c-1-3.6-8.2-4.4-11-1.6c2.1,8.6,12.7,6.3,18.8,6.3c4.8-2.8-5.8-6.1,0-9.4c3.3,2.5,5,6.5,9.4,7.8
		c-3,1.7-7.4,2-11,3.1c1.2,15.8,3.7,25.5,9.4,39.2c3.7,1,11.4-2,12.5,1.6h-15.7c-3.7-7.8-6.6-16.3-7.8-26.6h-7.8
		c-2.8,10.1,5.8,17.1,3.1,21.9c-2.9-6-6.3-11.4-7.8-18.8h-7.8c-2.6,5.5,1.6,8.9-1.6,12.5c-0.5-2.1-2.2-3-1.6-6.3
		c-13.9,3.6-26.8,2.9-39.2,3.1c-1.2,4.8,4.3,3,3.1,7.8c-3.6,5.6-9.2,3.1-14.1,4.7c-2,6.7,4.4,5,6.3,7.8c-8,10.1,7.6,28.9,3.1,36
		c-0.9-5.3-7-5.5-11-7.8c2.7,0.1,4.9-0.3,6.3-1.6c0.8-5.5-1.3-8.1-4.7-9.4c-1.5,2.1-5.3,2-6.3,4.7c0-3.7-2.7-4.6-1.6-9.4
		c3,0.7,2.8,4.5,7.8,3.1c-2.9-4.7-1.2-4.4-3.1-9.4c-11,3.1-13.2-3.7-21.9,0V626c-5.5-0.8-8.1,1.3-9.4,4.7
		C288.7,634.4,298.7,634.5,304.6,638.5L304.6,638.5z M448.7,521c-3.6-3.4-9.8-0.6-9.4,4.7C444.1,525.8,449.6,526.6,448.7,521
		L448.7,521z M270.1,633.8c-5.5-0.8-8.1,1.3-9.4,4.7c1.9,1.8,5.5,1.8,9.4,1.6V633.8L270.1,633.8z M263.8,748.2
		c-13.2-9-33.5-24.9-50.1-12.5c-1,12.5,6.8,16.2,15.7,18.8c13-14.9,32,5.4,45.4,9.4c-0.4-5.9-3.6-8.9-6.3-12.5
		c2.5-0.2,5.4,0.2,4.7-3.1c-1-4.3-4.3-6.1-9.4-6.3C262.3,744.8,268.5,747.1,263.8,748.2z M287.3,740.3c1.3,6.8-1.3,14,3.1,20.4
		c14.5-2.7,28.4,4.3,36-6.3C313,747.8,296.7,752.2,287.3,740.3L287.3,740.3z M497.3,691.8c-1.2,4.1-5.8,9.4-1.6,14.1
		c8.1,1.4,6.5-7,9.4-11C500.3,696.1,502.1,690.6,497.3,691.8L497.3,691.8z M566.2,696.5c4.9,0.7,7-1.4,6.3-6.3
		C567.5,689.5,565.4,691.6,566.2,696.5z M595.9,674.5h-6.3C587.2,681.8,597.8,680,595.9,674.5z M711.9,552.4
		c1.3-1.8,2.1-4.2,1.6-7.8c-2.7-0.1-4.9,0.3-6.3,1.6C706.7,550.2,707.7,552.8,711.9,552.4L711.9,552.4z M798,538.3
		c-6.6,0.2-6.4,7.2-6.3,14.1c-4,13.4-16.9,25.7-15.7,39.2C795.3,586.9,806,555.3,798,538.3z M356.3,37c1.6,5.8,15.4,12.3,20.4,4.7
		c-3.6-2.1-11.7,0.2-11-6.3c-0.1-5.3,8-2.4,7.8-7.8C364,27,358.3,30.1,356.3,37z M519.2,48c4.4,3.5,8.5,7.2,17.2,6.3
		c-0.2-7.6-6.6-9.1-7.8-15.7C520.9,37.1,517.7,40.2,519.2,48z M444,52.7v11c3.4,2.3,6.7,4.8,12.5,4.7c1.1-5.8-2.7-6.7-1.6-12.5
		c2.8-5.1,11.5-4.1,14.1-9.4C460,41.6,449.7,48.9,444,52.7L444,52.7z M368.8,77.7c3.9,0.2,7.5,0.2,9.4-1.6c0.8-6.1-4-6.5-4.7-11
		c2.4-5.9,7.9-8.8,12.5-12.5C369.7,46.1,358.3,65.5,368.8,77.7z M592.8,63.6c-8.2,13.5,12.5,30.5,25.1,28.2
		c-2.5-8.6-10.7-10.4-6.3-21.9C607,66.1,601,63.8,592.8,63.6z M293.6,96.5c-2.9-13.3,8-20.8,14.1-29.8
		C291.2,64,277.8,95.7,293.6,96.5z M527,73c-1.5,12.7,7.6,22.3,17.2,18.8c-1.3-7.3-7.9-13.2-3.1-21.9C536.2,65.8,530.2,70.6,527,73
		L527,73z M469.1,110.6c-12-14.5,3.1-23.3,11-31.3C453.3,72.3,443.7,113.8,469.1,110.6z M386,118.4c0.8-7.6-7.2-6.4-4.7-15.7
		c2.4-7.6,12.7-7.2,15.7-14.1C376.5,77.2,362.1,116.9,386,118.4z M221.6,118.4c6.7-9,16.1-15.2,23.5-23.5
		C229.5,93.4,215.3,108.5,221.6,118.4z M632,101.2c-2,5.8,9.3,6.2,11,3.1C639.6,102.8,635.9,97.4,632,101.2z M639.8,151.3
		c-2.2-9.3-10.2-9.5-12.5-17.2c-2.2-7.3,4.1-14,0-23.5C579.9,92.9,613.6,155.3,639.8,151.3z M296.7,140.4
		c-0.3-16,11.6-19.7,15.7-31.3C297.4,109.3,283,130.4,296.7,140.4z M558.3,146.6c0.6-10-8.1-10.7-9.4-18.8c1.9-4.9,5.9-7.7,6.3-14.1
		C526.4,111.1,540.6,153,558.3,146.6z M160.5,165.4c17.9-1.3,31.5-20.5,23.5-37.6h-4.7C186.5,144.5,167.4,153.4,160.5,165.4z
		 M465.9,140.4c0.1,11.4,1,22,12.5,21.9c-6.7-16.4,2.3-22.8,11-31.3C479.5,125.8,471.3,135.8,465.9,140.4z M224.7,160.7
		c6.2-10.5,16.1-17.4,23.5-26.6C234.1,134.7,214.2,150.8,224.7,160.7z M393.9,176.4c-2.7-14.2,3.3-30.4,12.5-37.6
		C387.7,132.3,372.8,169.9,393.9,176.4z M636.7,159.2c3,2.8,9.6,0.4,9.4-4.7C640.5,153.6,638,155.8,636.7,159.2z M310.8,188.9
		c-4.9-16.4,15.2-19.9,18.8-32.9C314,155.3,295.2,178.4,310.8,188.9z M613.2,178c-3.2,13.6,8.1,28.6,20.4,32.9
		c-6.5-18.5,4-30.8,14.1-37.6C636.4,164.4,616.5,163.7,613.2,178L613.2,178z M563.1,215.6c-5.9-14.3-1.4-27.4,7.8-37.6
		C543.7,165.2,539,215.3,563.1,215.6z M393.9,221.8c5.1-10.3,7-21.4,15.7-28.2c6.2-4.9,15.8-3.2,20.4-11
		C406.4,170.2,377.4,203.7,393.9,221.8z M234.1,206.2c8.8-9,18-17.5,29.8-23.5C248.7,179.2,234.2,189.4,234.1,206.2z M116.6,212.4
		c5.1-7.4,12.4-12.6,11-26.6c-2-0.1-2.2-2-4.7-1.6C123,194,112,208.5,116.6,212.4z M160.5,209.3c10.4-3.9,12.4-23.9,28.2-17.2
		C182.2,173.2,155.6,197.3,160.5,209.3z M483.2,223.4c-1.2-20.6,12.2-26.4,23.5-34.5C487.1,178.6,459.8,211.8,483.2,223.4z
		 M317.1,235.9c6.7-16.3,14.6-31.3,36-32.9C334.9,187,303.2,219.9,317.1,235.9L317.1,235.9z M248.2,243.8
		c12.1-8.2,21.4-19.3,37.6-23.5C269.2,212.4,246.5,223.2,248.2,243.8z M111.9,261c3.6-13.1,11.4-22,23.5-26.6c4.2,0.4,6,6.6,9.4,3.1
		C135.4,213.3,101.7,246.4,111.9,261z M625.7,232.8c3.1,2.9,11.5,2.3,9.4-4.7C629.5,227.2,626.3,228.7,625.7,232.8z M635.1,239.1
		v4.7c5.1,0.2,9.7,5.5,14.1,1.6C649.4,238.6,638.9,236.8,635.1,239.1z M624.1,245.3c5.8,0.6,9.2-1.3,9.4-6.3h-9.4V245.3z
		 M180.8,268.8c9.1-9.7,19.6-18,32.9-23.5C199.5,238.2,177.3,253.4,180.8,268.8z M574,275.1c1.2,6.2,7.6,16.1,15.7,18.8
		c-0.4-22.3,8.2-35.6,26.6-39.2C602.9,229.8,569,248.6,574,275.1z M83.7,248.5c8.5,7.6,0.2,25.9,4.7,31.3
		c6.7-6.4,13.9-24.5,4.7-32.9C89.2,246.7,85.6,246.7,83.7,248.5z M509.8,303.3c-2.6-21,7.9-40.7,32.9-39.2
		C521.7,232.6,471.7,288.5,509.8,303.3z M124.4,306.4c10-3.6,9.9-17.3,26.6-14.1C147.1,272.5,122.9,292,124.4,306.4z M434.6,329.9
		c1.1-21.9,17.9-28,28.2-40.7C441.5,282.9,416.5,311.6,434.6,329.9z M88.4,315.8c5.8-1,9.2-4.4,14.1-6.3c4.9,1.4,6,6.5,12.5,6.3
		C117.9,300.1,85.9,301.2,88.4,315.8z M351.6,348.7c1.3-5.4-2.3-6-1.6-11c9.7-10.1,18.5-21.2,36-23.5
		C370.6,295.7,331.4,331.2,351.6,348.7z M49.2,336.2c14.8-8,12.1,12.3,20.4,15.7C77.3,331.7,49.6,320.1,49.2,336.2L49.2,336.2z
		 M268.5,361.2c5.1-14.3,20.4-18.3,31.3-26.6C289.6,320.7,260.9,342.4,268.5,361.2z M528.6,383.2c-5.4-26.7,18.1-42.2,34.5-47
		C533.7,305.4,491.6,366.2,528.6,383.2z M444,391c2.2-25.2,24.4-45.6,47-36C476.1,321.2,411.8,364.2,444,391L444,391z M199.6,389.4
		c3.6-19.3,19.6-26.3,31.3-37.6C212.7,348.4,189.6,369.9,199.6,389.4z M28.9,384.7c7.6-3.4,5.1-16.9,6.3-26.6
		c-2.2-0.4-2.6-2.6-4.7-3.1C30.6,362.3,32.4,374.3,28.9,384.7z M133.8,389.4c3.6-14.6,13.5-23,26.6-28.2
		C145.2,350.5,123.8,375,133.8,389.4z M771.4,369.1c2.5-2.3,2.3-8.9-3.1-7.8C765,364.4,768.2,367.9,771.4,369.1z M362.5,406.7
		c4.4-6.6,4.8-17.1,9.4-23.5c6.9-7.2,21.4-6.8,28.2-14.1C375.1,354.1,342.3,386.3,362.5,406.7z M572.4,376.9
		c2.5,2.1,13.8,3.4,14.1-1.6c-3.9-1.8-5.2-6.2-11-6.3C574.9,372.1,572.2,373,572.4,376.9z M82.1,417.6c3.4-15.3,13.5-27.2,29.8-25.1
		C102.1,365.7,67,396.7,82.1,417.6z M282.6,427c4-20,17.2-30.8,36-36C299,376.9,265.5,404.9,282.6,427L282.6,427z M796.4,455.2
		c19.8-1,20.4-67.2,0-67.4c3.7,13.8,0.3,38.5-14.1,47C781,443.6,786.9,455.7,796.4,455.2z M44.5,431.7c6.2-7.4,7.7-19.5,23.5-17.2
		C61.7,391.9,38.7,418.8,44.5,431.7z M213.7,441.1c8.7-5.9,9.9-19.3,20.4-23.5c5.3-0.5,13.6,2.1,12.5-4.7
		C232.5,396.8,205.9,417.7,213.7,441.1z M462.8,475.6c3-24.3,19.1-41.5,39.2-43.9C478.6,396.8,430.4,453.8,462.8,475.6z M27.3,430.2
		c5,5.9,8.1,13.8,14.1,18.8c-0.2-8.7-3.6-14.2-6.3-20.4C31.5,428.1,29.1,428.9,27.3,430.2z M149.5,458.4
		c7.7-10.1,18.1-18.5,34.5-15.7C175.7,422,141.3,436.7,149.5,458.4z M379.8,488.1c3.2-23.5,20.6-37.4,45.4-34.5
		C405.8,421.2,351.7,463.4,379.8,488.1L379.8,488.1z M746.3,456.8c5.4-0.1,0.9,9.5,6.3,9.4c-1.1-5.8,2.7-6.7,1.6-12.5
		C750.2,453.4,747.7,454.5,746.3,456.8z M102.5,480.3c4.4-10.7,13.2-12.4,25.1-12.5C124.4,444,83.9,465.1,102.5,480.3z M301.5,492.8
		c8.7,0,9.4-8.9,17.2-12.5c8.6-4,21.5,0.7,28.2-7.8C334.2,453.9,296.8,465.9,301.5,492.8L301.5,492.8z M779.2,467.8
		c-2.4,7.9,4,7.9,4.7,15.7c1.7,18-14.6,24.6-17.2,40.7c26.3,11.8,33.2-32.4,25.1-54.8C787,469.2,783.6,463.6,779.2,467.8z M61.8,485
		c-1.2,3.7-3.1,10.8,0,14.1c7.4-1,6.2-10.5,17.2-7.8v-7.8C73.7,479.2,67.1,484.3,61.8,485z M235.7,511.6
		c10.4-2.3,15.6-11.1,26.6-12.5c5.1-0.7,12,6.2,15.7-1.6C275.8,481.3,230.4,482,235.7,511.6z M464.4,500.7c1.9,1.8,5.5,1.8,9.4,1.6
		c0.5-3.6-0.3-6-1.6-7.8C467.1,494,464.7,496.3,464.4,500.7L464.4,500.7z M36.7,513.2c6.5,0.3,7.7-4.8,14.1-4.7
		C52,495.7,31.7,499.8,36.7,513.2L36.7,513.2z M177.7,532c10-6.3,19.1-15.1,31.3-11C206.2,499,167.7,510.8,177.7,532L177.7,532z
		 M456.6,517.9c-0.9,7.8,13.2,5.7,11-1.6C463.3,516.4,458.6,515.7,456.6,517.9z M458.1,513.2c-2-2.1-7.4-2.1-9.4,0
		C449,520.3,458.4,520.9,458.1,513.2z M467.5,543c-0.6-7.2-3-12.7-4.7-18.8C462.6,528.7,458,540.4,467.5,543z M448.7,530.4
		c6,1.4,3.8,3.6,3.1,9.4c1.8,1.3,4.2,2.1,7.8,1.6c-0.6-7.4-4.3-8.2-1.6-15.7C452.6,524.9,450,527.1,448.7,530.4L448.7,530.4z
		 M132.3,533.6c-4.3,4.7-10.2,17.8-1.6,21.9c2.5-12.8,16.6-12.6,28.2-12.5C157,532.6,143.1,530.4,132.3,533.6z M713.4,543
		c2.2-0.2,6.5-8.6,0-7.8C712.5,536.1,709.8,542.6,713.4,543z M320.3,579c5.8-17.2,15.2-30.8,39.2-29.8
		C347.1,515.5,288.1,558.6,320.3,579L320.3,579z M740.1,543c11.9,17.5,4.8,48.2-14.1,53.3c25.1,14.1,42.9-24.9,37.6-51.7
		C757.2,538.4,747.8,537.5,740.1,543L740.1,543z M458.1,557h9.4c-1.8-7.1-3.7-14.1-12.5-14.1C454.9,548.8,456.6,552.9,458.1,557z
		 M90,569.6c7.6-5.5,11.6-3.4,21.9-1.6C119.7,550.2,75.1,549.8,90,569.6z M248.2,594.6c5.3-10.4,17.1-14.3,34.5-12.5
		c2.5,3.8,4.3,8.3,9.4,9.4C300.7,554.8,222.5,561.7,248.2,594.6L248.2,594.6z M68.1,586.8h15.7C83,570.8,56.5,567,68.1,586.8z
		 M365.7,594.6c5.6,0.4,10.8,0.4,9.4-6.3c-2.7,0.1-4.9-0.3-6.3-1.6C368.2,589.8,364.4,589.7,365.7,594.6L365.7,594.6z M373.5,580.5
		c-3.8-3.4-11.6-1.2-11,4.7C367.1,587.3,373.1,586.7,373.5,580.5L373.5,580.5z M376.7,588.4c6.5-1.9,9.4,7.8,12.5,0
		c-7.1,2.4-3.4-6-6.3-7.8h-6.3V588.4L376.7,588.4z M353.2,591.5c3.6,3.4,9.8,0.6,9.4-4.7C359,583.4,352.8,586.3,353.2,591.5
		L353.2,591.5z M184,608.7c4.9-2.5,7.3-5.5,12.5-6.3c15.3-2.3,24,8.6,32.9,15.7C236.3,585,165.2,572.8,184,608.7z M343.8,596.2
		c-1.2,7.1,10.5,5.9,7.8-1.6C348,594.2,345.6,594.9,343.8,596.2z M354.7,596.2c-0.9,5.6,4.6,4.8,9.4,4.7
		C367.2,592.9,357.5,593.6,354.7,596.2L354.7,596.2z M752.6,608.7c3.3,25.2-12.3,31.6-18.8,47c21.3-1.4,37.8-28.8,34.5-54.8
		C761.5,596.5,757.3,606,752.6,608.7L752.6,608.7z M668,608.7v4.7c5.9,1.2,7.6-1.8,7.8-6.3C672.2,606.7,669.8,607.4,668,608.7
		L668,608.7z M314,615c5.5,0.8,8.1-1.3,9.4-4.7c-1.9-1.8-5.5-1.8-9.4-1.6V615L314,615z M686.8,622.8c17.8,11-2.3,37.9-17.2,40.7
		c25.9,14.4,55.9-26.5,40.7-53.3C696.7,608.7,690.1,614.1,686.8,622.8L686.8,622.8z M138.6,633.8c17.5-7.6,28.3,2.1,40.7,11
		C183,621.9,127.6,598.8,138.6,633.8z M295.2,627.5h7.8c2.2-1,0.2-6,3.1-6.3c0.3,1.2,1.3,1.8,3.1,1.6c0,3.1-4.3,2-3.1,6.3
		c2.4,2.4,10.7,2.8,9.4-3.1c-6.9-2.9-1.7-2.2-1.6-9.4C306.7,613.4,297.7,620.7,295.2,627.5L295.2,627.5z M653.9,632.2
		c0.3-1.2,1.3-1.8,3.1-1.6V626c-3.5-1.4-6.9-1.9-9.4,0C651.7,626.1,649.9,632.1,653.9,632.2L653.9,632.2z M104.1,638.5
		c-0.4,6.1,3.4,8.1,4.7,12.5c19.2-4,19.8,10.5,29.8,15.7C140,652.4,119.5,626,104.1,638.5z M235.7,647.9c3.1,2.9,11.5,2.3,9.4-4.7
		C240.9,641.5,236.2,642,235.7,647.9z M220,651c1.9,1.8,5.5,1.8,9.4,1.6C231.7,642.7,220,643.7,220,651L220,651z M207.5,654.2
		c5.3,0.9,8.5,4.1,9.4,9.4c4.4,1.3,4.1-2.2,7.8-1.6c0.5-8.9-11.9-1.9-6.3-9.4C214.6,649.6,209.1,648.3,207.5,654.2z M243.5,655.7
		c5-1.3,5.9,1.4,7.8,3.1c0.2-3.9,0.2-7.5-1.6-9.4C244.9,648.8,242.8,650.8,243.5,655.7z M190.3,660.4c3.7-0.5,6.7-1.6,7.8-4.7
		C194.1,649.2,182.9,655.5,190.3,660.4z M229.4,655.7c3.1,7.2,0.5,5.6,1.6,11h4.7c-4.7-7.3,4.3-4.8,3.1-12.5
		C235,654,231.3,653.9,229.4,655.7z M195,665.1c5.2,4,12.3-0.5,12.5-6.3C202.3,654.8,195.2,659.3,195,665.1z M154.2,668.3
		c3.7,0.5,6.5,3.1,9.4,0C165.6,658.9,153.1,661.4,154.2,668.3z M697.8,674.5c5,17.6-13.7,24.9-21.9,34.5c24,0,44.6-17,47-43.9
		C714.5,658.7,702.7,667.9,697.8,674.5L697.8,674.5z M180.9,674.5c4.7-1.6,10.9-1.6,9.4-9.4C182.3,663.2,176.5,669.1,180.9,674.5z
		 M173,671.4c0.5-4.1-2.2-5.1-6.3-4.7C166.3,670.8,168.9,671.9,173,671.4z M166.8,677.7c0.7-4.9-1.4-7-6.3-6.3
		C156.2,676.4,162.1,680.8,166.8,677.7z M606.9,705.9c-4.9,0.5-7.5-3.6-11,0c8.1,23.2,46.9,4.3,54.8-11c3.8-7.3,0.1-13.6,3.1-18.8
		C628.4,659.6,630.4,705.3,606.9,705.9L606.9,705.9z M169.9,680.8c2.9,0.2,1,5.3,3.1,6.3c3.9,0.2,7.5,0.2,9.4-1.6v-7.8
		C177,674.8,174.1,678.5,169.9,680.8L169.9,680.8z M575.6,685.5c-0.4,4.1,0.6,6.7,4.7,6.3c-1-6.7,5.7-5.8,9.4-7.8
		C586.1,671.5,583.5,688.1,575.6,685.5L575.6,685.5z M577.2,676.1v6.3h4.7C582.3,678.3,582.4,674.5,577.2,676.1z M152.7,691.8
		c-2.1,8.5,9.5,14.5,15.7,18.8c8.6-9.2,22.9,2.9,28.2,1.6C192.9,699.9,156.6,675.7,152.7,691.8z M476.9,709c3.8-0.6,3.4,2.9,7.8,1.6
		c0.8-1.9,1.7-3.6,3.1-4.7c-0.7-4.5-3.3-7.1-7.8-7.8C480.3,703,475.9,703.3,476.9,709L476.9,709z M503.6,709c4.1,3.3,9,5.6,12.5,9.4
		c3.2-7-2.8-7.8,0-17.2c-4.4,1.3-4.1-2.2-7.8-1.6C506.8,702.8,505.1,705.8,503.6,709L503.6,709z M487.9,716.8
		c3.8,1.5,4.1,6.3,11,4.7c2.4-4.5,0-4.9,1.6-11c-3.3-1.4-4.6-4.8-9.4-4.7C489.3,708.8,489,713.3,487.9,716.8L487.9,716.8z
		 M520.8,715.3h6.3V709C522.7,704.1,515.9,711,520.8,715.3z M561.5,718.4c-7.2,13.7-28.1,13.6-42.3,20.4c5.4,23.5,52.6,6.1,56.4-11
		c1.6-7.3-1.6-11-1.6-18.8c-3.9-1.3-8.4-2-14.1-1.6C556.7,713.2,562.2,711.5,561.5,718.4L561.5,718.4z M647.7,710.6
		c-0.6,2-2,3.2-4.7,3.1c-3.8,21.3-26.4,23.7-39.2,36c24.6,6.7,56.7-12.7,54.8-37.6C655,711.6,652.7,709.6,647.7,710.6L647.7,710.6z
		 M509.8,718.4h-6.3C501.1,725.7,511.7,723.8,509.8,718.4z M495.7,727.8c2.7,2.8,6.2-0.5,6.3-4.7
		C497.9,722.6,495.2,723.7,495.7,727.8L495.7,727.8z M486.3,743.5c-9.5,11.6-36.5,14.8-47,1.6c-0.5,7.3,0,13.6,3.1,17.2
		c24.8,6.8,54.3,3.6,59.5-20.4c-4.1-6.4-9.5-11.4-15.7-15.7C484.4,729,487.5,736.6,486.3,743.5L486.3,743.5z M570.9,751.3
		c-3.3,20.2-28.1,18.9-43.9,26.6c1.8,2.3,4.5,3.8,4.7,7.8c27-2.2,53.8-4.7,58-29.8C585.2,749.3,580.7,750.9,570.9,751.3z
		 M340.7,782.6c-0.8-2.3-2.3-3.9-3.1-6.3c-19,7.1-37.5-1.1-50.1-9.4C285.2,783.8,328.9,799.1,340.7,782.6L340.7,782.6z M489.5,774.8
		c-5.5,15-32.9,15.3-47,12.5c2.7,15.5,25.1,16.7,39.2,14.1c7.7-1.4,14.5-5.5,20.4-7.8C509.1,783.8,501.1,770.1,489.5,774.8
		L489.5,774.8z M412.7,777.9c-4.7,20.3-36.6,11.1-43.9,12.5C372.7,814.4,457.4,798.6,412.7,777.9z M403.3,818.6
		c-13.6,2.8-22.3-4.7-29.8-3.1c11.7,12.8,47.6,16.3,59.5,1.6C426,804.2,410.2,811.3,403.3,818.6L403.3,818.6z M685.3,141.9
		c2.1-2,2.1-7.4,0-9.4H679C677.6,139.2,681.6,140.4,685.3,141.9z"/>
	<path class="st0" d="M282.6,630.7c1.3-3.4,3.9-5.5,9.4-4.7v6.3c8.7-3.7,10.9,3.1,21.9,0c1.9,5,0.2,4.7,3.1,9.4
		c-5,1.3-4.8-2.5-7.8-3.1c-1.1,4.8,1.6,5.7,1.6,9.4c1-2.7,4.7-2.6,6.3-4.7c3.4,1.3,5.5,3.9,4.7,9.4c-1.4,1.2-3.5,1.7-6.3,1.6
		c4,2.3,10,2.5,11,7.8c4.4-7.2-11.2-26-3.1-36c-1.8-2.9-8.3-1.1-6.3-7.8c4.9-1.6,10.5,0.9,14.1-4.7c1.2-4.8-4.3-3-3.1-7.8
		c12.3-0.2,25.2,0.4,39.2-3.1c-0.7,3.3,1.1,4.1,1.6,6.3c3.2-3.6-1.1-7,1.6-12.5h7.8c1.5,7.4,4.9,12.8,7.8,18.8
		c2.6-4.8-5.9-11.8-3.1-21.9h7.8c1.2,10.3,4.1,18.9,7.8,26.6h15.7c-1.2-3.5-8.8-0.6-12.5-1.6c-5.7-13.6-8.2-23.3-9.4-39.2
		c3.6-1.1,8-1.4,11-3.1c-4.4-1.3-6.1-5.4-9.4-7.8c-5.8,3.3,4.8,6.6,0,9.4c-6.1,0.1-16.7,2.4-18.8-6.3c2.8-2.8,10-2.1,11,1.6
		c1.3-0.8,2.5-1.6,4.7-1.6c-1.4-2.8-6.4-2-4.7-7.8h4.7c-11.4-30.3,30.1-58.4,51.7-32.9c1.2,4.8-4.3,3-3.1,7.8
		c-12-0.2-22.7,7.9-26.6,17.2c-2.8,0.2-3.3-1.9-6.3-1.6c1.7,7.9,4,10.2-1.6,15.7c2.2,3,4.1,6.3,4.7,11c14.1,5,29.6,2.8,40.7-3.1
		c0.1,2.5-0.8,6,1.6,6.3c-0.4-8.7,0.4-16,6.3-25.1h11c1.7,4.6,2.2,10.4,4.7,14.1c3.4-8.7-12.3-22.8-1.6-29.8
		c-6.7-9.5-4.5-21.3,3.1-28.2c-2-2.3-18.5,0.9-17.2-9.4c1.8,0.3,2.8-0.3,3.1-1.6c5.3,2.9,15.8,8.8,20.4,3.1
		c-1.8-2.9-8.3-1.1-6.3-7.8c6.2-2.7,10.4-0.2,9.4-7.8c7.4-0.7,9.3-1,15.7-4.7c1.7,3.5,2.6,7.8,4.7,11c7.1-2.7-3.2-7.3-1.6-14.1
		c1-2.2,6-0.2,6.3-3.1c5.8,3.6,7.7,11.1,14.1,14.1c-4.2-5.2-4.4-14.4-11-17.2c1.2-3.5,0.9-8.5,4.7-9.4c4.9,0.7,9.3,7.2,6.3,11
		c12.7,4,10,23.4,21.9,28.2c-2.5-17.1-22.2-32.6-18.8-45.4c-2.2-2.5-7.7-1.7-9.4-4.7c0.8-1.3,1.6-2.5,1.6-4.7c5.9-2.3,3,4.3,7.8,3.1
		c-6.2-5-1.6-12.5-11-12.5c0.9-4.3,1.7-8.8,7.8-7.8c-1.9-5.4-3.8-5.9,0-11c3.3-0.7,4.1,1.1,6.3,1.6c3.6,0.5,1.7-4.5,4.7-4.7
		c1.1-4.2-3.2-3-4.7-4.7c3-4.8,4.3-6.7,11-4.7c-0.1-3.4,2.7-11.4,6.3-15.7c5.1,0.9,7.3-1.1,11-1.6c1,6.8,9.4,6.3,12.5,11
		c1.3-10.2-11.2-6.5-12.5-14.1c8.3,2,8.8-3.7,11-7.8c4,2.1,10.5,7.1,7.8,11c7.3-1.6,8.9,2.6,12.5,4.7c0.8-4.9-5.4-4.1-1.6-7.8
		c4.2,0,8.9-0.6,11,1.6c-0.5-11.4-8.3-0.7-15.7-1.6c-1.4-3.3-4.8-4.6-4.7-9.4c7.3-1.9,10.2,1,15.7-1.6c-1.8-5.5-14.2-8.7-9.4-15.7
		c-1.3-3.4-6.9-2.5-9.4-4.7c1.4-5,6.3-5.3,11-3.1c0.9-9.8-9.9-7.9-11-15.7c1.9-1.8,5.5-1.8,9.4-1.6c0.2,2.9,1,5.2,3.1,6.3
		c2.6-1.6,1.7-6.7,3.1-9.4c0-2.8-7.4,2.5-9.4-1.6c-3.6-7.2,11.8-9.8,9.4-1.6c4.3,0.7,1.5-5.8,4.7-6.3c-0.4-3.3-6.9-0.4-7.8-3.1
		c-1.5-7.1,6.6-9.9,11-6.3c1.6-5.2-2.2-5.1-6.3-4.7v-7.8c19.8,3.7,35.2-12.2,51.7-4.7c2.6-3.2,6.4-5.1,12.5-4.7
		c-1.6-2.1-4.2-3.1-4.7-6.3c-1.4,8-15.7,3.1-21.9,6.3c-6.1-7.9,11.8-16.4,17.2-7.8c1.1-1.5,0-6.3,7.8-4.7c-4-7.4-14.8,0.5-21.9,0
		c1.4-10.4-10.5-18.5-3.1-25.1c-0.2-4-5.2-3.1-9.4-3.1c-1.3-5,2.5-4.8,3.1-7.8c15,3.8,20.6,3.5,36,0c-8.1-6-20.7-7.5-23.5-18.8
		c4.1-4.2,4.7,1.9,9.4,1.6c0-8.3-12.4-4.3-17.2-7.8c13.9-9.3,55.6,11,39.2-28.2c6.4-1.9,10.9-5.8,18.8-6.3
		c-3.9-4.8-6.4-1.3-12.5-3.1c-2.6,1.6-1.1,7.2-4.7,7.8c-12.2-6-11.3-25.2-29.8-25.1c3.4-12.1,21-1.3,29.8,0c0.5,6.2-7.2,4.2-7.8,9.4
		c4.7,0.7,15.3-2.6,23.5-6.3c-2.9-3.3-12.5,0-14.1-4.7c-0.7-4.9,3.9-4.4,6.3-6.3c-0.4-5.4-4.7-6.8-9.4-7.8c-4.8,2.9,6.9,2.3,4.7,7.8
		h-12.5c4.3-7.2,0.4-21.6-3.1-32.9c9.5-0.5,13.9-5.9,23.5-6.3c-0.6,3.8,2.9,3.4,1.6,7.8c-5.2-1-6.8-3.2-4.7,3.1
		c-4,1.2-8.9,1.6-11,4.7c0.2,3,5.2-1.8,9.4,0c6.4,8.2,22.1,25.2,32.9,14.1c-4.1-16.2-15.3-25.4-29.8-31.3c-15,6.6-39,10.4-43.9-7.8
		c7.2-5.8,20.6-5.5,31.3-7.8c3.1,3.6,3.1,4.2,0,7.8c26.5-5.8,40.6,27,53.3,45.4c-4.8,1.1-4.6-2.7-9.4-1.6c3.3,5.6,13.5,4.3,15.7,11
		c-3.8,3.9-6.8-1.2-12.5,0c2.8,6.1,13,4.7,20.4,6.3c0.2,6.9-4.4-0.7-6.3,3.1c14.4,8,24,20.9,31.3,36c2.4-7.7-6.8-17.2-9.4-25.1
		c11.9,10,16,27.9,25.1,40.7c-6.1-0.1-6.2-6.3-9.4-9.4c-2.5,2.1,4,6.5-1.6,9.4c-4.6-3.3-13.6-8.7-9.4-15.7c-5.4,1.2-6.9-1.5-7.8-4.7
		c-0.3,4.3-1,8.2-7.8,9.4c7.4-2.3,14.7,1.1,18.8,9.4c-1.3,5.5-8.1,5.6-11,1.6c1.9,2.1,0.6,2.5,0,4.7c5.8,3.6,15.3-3,18.8,4.7
		c4.3-1.4-2.2-4.9,0-9.4c15.1-0.4,11.5,12.9,15.7,20.4c-4.3,1.1-3.2-3.1-6.3-3.1c-0.5,8.3,10.9,4.7,11,12.5
		c-3.1-0.5-4.9,0.3-4.7,3.1c-0.3,5,5.6,3.8,7.8,6.3c1.6,13.3-0.1,26.9,3.1,40.7c5.4,23.2,29.1,47.7,4.7,67.4
		c-10.1-2-12.2-12.8-21.9-11c9.6-11.2-9.3-20.6-6.3-29.8c-0.2-3-5.2-1.1-4.7-4.7c-1.9,0.9,1.2,6.1-6.3,4.7
		c10.7,2.8,12.7,14.5,17.2,23.5c-6.3,3-16.3,2.2-14.1-7.8c4.4,1.3,4.1-2.2,7.8-1.6c-5.8-2.8-11-0.9-18.8,0c5.6,1.2,8.5,5.1,11,9.4
		c-0.2,4-5.2,3.1-9.4,3.1c1.4,6,6.3,1.1,11,1.6c0.7,4.5,5.5,4.9,4.7,11c-9.4-2.9-9,1.9-18.8,1.6c3.6,3.8,15.6-1,15.7,6.3
		c3.3-0.4-2.3-4.2,1.6-6.3c7,5.8,5.6,3.2,12.5,6.3c-0.9,9.1-7.6,2.7-12.5,7.8c2.1,4.8,7-2.9,9.4,1.6c2,28.2,3.9,68.3-31.3,62.7
		c-1.9-5.9-6.8-8.9-11-12.5c-3.2,9.8-8.4-6-17.2-4.7c-1.5,5.7,6.8,1.6,7.8,4.7c1.1,5.8-5.5,3.9-7.8,6.3c-0.1,4.8,3.3,6.1,4.7,9.4
		c3.8-1.6-6.4-6.3-1.6-9.4c8.2-0.9,10,4.7,11,11h6.3c-3.4-2.2-8.8-7.6-4.7-12.5c5.7-0.9,11.9,5.7,7.8,9.4
		c25,17.7,12.1,84.3-25.1,67.4c-0.4,2.5,1.5,2.7,1.6,4.7c0.4,4,2.7-2.2,6.3,0v6.3c-7.4,1.6-6-5.5-14.1-3.1
		c-3.2-4.1-5.4-9.2-7.8-14.1c-2.3,0.4-0.5,4.7-3.1,4.7c8,5.6,13.7,21.1,9.4,29.8c-7-8.3-4.4-15.9-11-23.5c-5.1,9.9,8.8,18,11,31.3
		c4.3,26.6-16.1,49.8-42.3,47c4.7,7.1-3.3,7.5,1.6,17.2c-6.4,1.3-12.1-8-6.3-9.4c-2.4-2.3-5.5-3.9-6.3-7.8c-3.2,0.4-0.4,6.9-4.7,6.3
		c2.8,1.9,6.3,3.1,7.8,6.3c-0.6,2.1-2.8,2.5-3.1,4.7c-11.1-1.2-2.8-13.1-12.5-14.1c3.3,9.3,3.4,21.7,6.3,31.3
		c-11.2,23.3-39.4,37.1-65.8,36c-0.1-6.8,4.3-9.3,4.7-15.7c-6,0.3-4.1,8.4-7.8,11c-5.2-1-7.7-4.9-12.5-6.3c-2.8,2.4,5.5,6.9,9.4,7.8
		v15.7c-6.7,4.8-7.3,0.1-15.7,0c-1.2,4.8,5.4,1.9,3.1,7.8c-8.1-5.6-11.3,2.9-20.4,4.7c-6.6-0.7-7.9-6.7-17.2-4.7
		c1.5,3.7,9,1.4,11,4.7c-2.1,9.4-7.9-2.7-9.4,6.3c-4.9,0.7-5-3.3-4.7-7.8c-5.4,4.9-14.3-4-9.4-9.4c-1.5,1.7-5.8,0.5-4.7,4.7
		c-3-2.2-9.6-0.9-7.8-7.8c-7.1,1-1.7,11.1-9.4,14.1c-5.1,0.2-7.5-6.4-4.7-9.4c-1.6-2-6.3,4.2-9.4-1.6c4.7,4.9,3.7,16.8-4.7,17.2
		c7.3,5.2,12.2,12.9,20.4,17.2c-4.7,0.6-13,6.1-18.8,0c0-3.7,2.7-4.6,1.6-9.4c-2.1,1.5-3.1,4.2-4.7,6.3c-4.5-3.1-6.8-2.4-4.7-9.4
		c-6,8.3-11.4-4.7-15.7-7.8c2,9,13.8,16.8,20.4,23.5c-8.6,2.7-11.3-0.4-17.2-3.1c-0.9,2.8,4.6,6.5,0,7.8c-7.8-1.4,1.7-8.7,0-14.1
		c-2.6,1-8.4,0.3-12.5-4.7c-3.4,2.5,5.8,5.6,7.8,7.8c0.1,5.8-1.6,9.9-3.1,14.1c-5.1-2.4-11.7-5.6-7.8-12.5c-4.8,3-6.3,9.4-6.3,17.2
		c3.3-0.4,0.4-6.9,3.1-7.8c5-1.3,4.8,2.5,7.8,3.1c0,6.9-6.2,8.4-3.1,14.1c-7-1.1-2-5.9-9.4-7.8c-1.2,1.3,0.4,8.2-3.1,11
		c-4.2-1.6-5.2-6.3-7.8-9.4c2.8-6,3.2-14.5,6.3-20.4c4.3-1.1,3.2,3.1,6.3,3.1c0.6-5.8-6.3-4.1-4.7-11c-5.3,3.4-9.9-5.1-14.1-7.8
		c-0.5,4.5-3,11.4-6.3,17.2c0.6,2.1,2.8,2.5,3.1,4.7c2.9-4.4,3-11.7,6.3-15.7c3.2,0.5,4.2,3.1,6.3,4.7c-3.2,13.1-11.6,19.6-1.6,31.3
		c-1.1,21.8-43,23.8-58,12.5c-9,2.5-25.1,2.8-34.5,3.1c0.2-5.8,2.3-3.9,6.3-3.1c-1-4.7-6.2-5.3-7.8-9.4c0.2-6.1,6.4-6.2,7.8-11
		c-2.9-4.8,1.4-7-1.6-11c-3.4-0.3-0.7,5.6-1.6,7.8c-2.7,0.5-12.1,7.2-12.5,0c-3.1,1.6-2.5,6.9-7.8,6.3c-3-1.7-2.2-7.2-4.7-9.4
		c-4.8,1.9,1.7,5.4,0,9.4c-10.8,0.3-15-5.9-18.8-12.5c-10.9,6.8,10.2,23.1-7.8,25.1c-1.2-9.8,1.4-18.6,0-34.5
		c-6.5,1.1-0.1,9.1-3.1,11c-3.9-2.6-11.8-7.1-7.8-12.5c-7.8,3.1-12.5-10.5-6.3,0c1.4,2.3,0.8,7,1.6,7.8c5.3,6.1,18.4,6.3,11,15.7
		c-5.8-1-8.7-4.8-7.8-12.5c-10.1,7.9-10.8-10.8-20.4-11c2-2.7,3.2-6.2,7.8-6.3c0.1-8,0.7-16.4-3.1-20.4c-3.1,1.1-4.2,4.2-4.7,7.8
		c-6.9-0.7-7.8,2.2-12.5,0v-7.8c-3.8,1.4-1.7,8.7-7.8,7.8c-2.2-2-1.6-6.8-1.6-11c-4,0.2-2.5,5.8-4.7,7.8c-5.7-1.6-9.1-5.5-15.7-6.3
		c0,7.4,7.8,6.8,7.8,14.1h-7.8c19.5,2.3,46.2,17.8,61.1,34.5c-6,2.2-25.3-7.7-29.8-17.2c-1.2,4-4.5,5.9-11,4.7c-2.9-3-0.2-3.9,0-7.8
		c-5,2.2-14.7,3-12.5-6.3c-3.2,1-0.4,7.9-6.3,6.3c-3-14.8-14.1-21.4-23.5-29.8c1.4-2.7,4.9-3.5,9.4-3.1c3.4,5.9,1.1,8.1,4.7,12.5
		c2.8,0.2,3.3-1.9,6.3-1.6c-3.6-6.8-6.7-14.2-9.4-21.9c9.1-11.1,26.4-7.7,43.9-7.8c0.9,4.3,4.1,11.1,9.4,6.3
		c-1.9-4.9-7.3-6.3-6.3-14.1c5.1,5.2,3.7-4.2,9.4-3.1c1.1,6.7,5.7,12.9,3.1,18.8c4.8-4.1-0.4-19.3,6.3-25.1c-0.3-4.4-7.4-2-6.3-7.8
		c6.3-5.5,22.7,5.1,25.1-9.4h7.8c-0.7,3.3,1.1,4.1,1.6,6.3c8.5-1.8,12.3,1.2,18.8-1.6C298.7,634.6,288.7,634.4,282.6,630.7
		L282.6,630.7z M642.9,112.2c0.2,2.9,1,5.2,3.1,6.3c2.9-5.9,16-1.7,18.8-7.8C658.2,111.3,649,115.9,642.9,112.2z M693,184.2
		c4.5,4.9,14.6,4.2,12.5,15.7c-5.3,2-10.9-3.5-12.5,0c7.3,1.6,9.4,8.3,11,15.7c31,10.7,13.5-35.5-3.1-39.2c0,2.8,4.2,9.1,0,11
		C698.5,186.9,694.3,180.6,693,184.2z M677.4,207.7c-0.7,4.9,3.3,5,7.8,4.7C685.5,207.6,679.7,205.4,677.4,207.7z M685.2,228.1
		c0.2-5-7.6-10-11-6.3C678.2,223.6,679.5,228.1,685.2,228.1z M664.9,235.9c-1-5.3-5.3-7.2-11-7.8
		C653.1,235.1,658.6,235.9,664.9,235.9z M683.7,239.1c-0.8-4.5-6.7-12-11-7.8C677.5,232.7,676.9,239.5,683.7,239.1L683.7,239.1z
		 M769.8,275.1c-5.4-8.8-13.9-24.6-4.7-34.5C750.4,245.4,760.1,271.5,769.8,275.1z M663.3,275.1c7,3.4,2.5,5.7,1.6,12.5
		c36.5,32.7,42.9-43.4,11-43.9c-0.8,4.9,2.8,5.5,1.6,11c-4,1.2-7.2-6.1-9.4-1.6c6.1,0.8,16.1,10.3,7.8,15.7c-5.4-3.2-8.3-6.1-12.5,0
		c7.5-1.2,10.3,2.2,12.5,6.3C672.5,280.5,659.3,271.8,663.3,275.1L663.3,275.1z M716.5,265.7c-5.2-9.5,1.2-20.7,7.8-23.5
		C711.7,238.9,707.9,267.2,716.5,265.7z M639.8,261c5.6-4.3,21.3,1.4,25.1-4.7C657.8,256.3,637.9,253.6,639.8,261z M644.5,273.5
		c3.6,0.4,5.9-0.4,6.3-3.1c-5.8,1-7.8-9.8-11-6.3C641,267.8,648.8,269,644.5,273.5L644.5,273.5z M777.6,278.2
		c-2.5,7.6-12.1,0.2-14.1,6.3c5.5-1,10.8,12.1,9.4,7.8c0.2-3.9-2.5-4.8-3.1-7.8c2.1-1.6,5.8-1.5,7.8-3.1
		C783.6,293.7,784.8,285.1,777.6,278.2L777.6,278.2z M762,303.3c9.5,4.4,2.3,16.1,11,20.4c-1.1-4.8,1.6-5.7,1.6-9.4
		c-7.3-1.1-6.3-18.7-12.5-15.7C764.4,299,763,302,762,303.3L762,303.3z M772.9,301.7c3.6-0.5,6,0.3,7.8,1.6
		c-0.1-2.2,0.7-3.4,1.6-4.7c-2.7,0.1-4.9-0.3-6.3-1.6C776.5,300.1,773.9,300.1,772.9,301.7L772.9,301.7z M638.2,315.8
		c1.1-4.3-3.1-3.2-3.1-6.3c10-5.9,16.6,3.6,21.9-6.3c-9-0.5-19.5,6.4-28.2,0C629.7,309.7,633.9,312.8,638.2,315.8L638.2,315.8z
		 M621,314.3c1.1-5.3-2.6-5.7-6.3-6.3C614.9,312,617,314.1,621,314.3L621,314.3z M735.3,355c-7.6-11.2-0.8-36,4.7-45.4
		C721.5,311.2,725.8,346.6,735.3,355L735.3,355z M787,311.1c-19.8,3.7-10.7,38.7-1.6,48.6c-2.7-9.8-7.4-17.7-6.3-31.3
		c4.4-1.6,6.5-1.6,11,0C793.5,322,790.8,314.8,787,311.1L787,311.1z M699.3,367.5c15.4-3.6,17.7-30.6,6.3-43.9
		C710,340.2,707.5,356.1,699.3,367.5z M635.1,344c-2.6-0.6-7-7.4-9.4-3.1c2.7,3.5,8.9,3.6,9.4,9.4c-1.6,2.1-1.5,5.8-4.7,6.3
		c-0.9-0.9-7.4-3.7-7.8,0c4.1-0.5,5.1,2.2,4.7,6.3c-6.5,6.6-13.3-5.8-17.2-1.6c2.7,2,6.2,3.2,6.3,7.8c-3.4-0.3-5,1.3-4.7,4.7
		c29.3,23.2,56.5-33,25.1-47C632.3,335.3,637.3,337.2,635.1,344L635.1,344z M595.9,365.9c-1.8-0.3-1.7-2.5-1.6-4.7
		c-3.9-0.2-4.9-3-6.3,1.6C591.2,362.5,594.8,369.5,595.9,365.9L595.9,365.9z M735.3,428.6c9.6-8.3,12.6-29.3,17.2-37.6
		C736.1,385.9,728.5,415.1,735.3,428.6L735.3,428.6z M679,434.9c-4.2-16.8,8.2-25.2,4.7-36C674.3,403.1,660.1,430.7,679,434.9
		L679,434.9z M653.9,412.9c7.8,25.2-8.8,37.7-21.9,47C655.6,460.7,667.4,434.5,653.9,412.9L653.9,412.9z M577.1,439.6
		c-3,0.3-3.5-1.8-6.3-1.6c-0.8,4.9,2.8,5.5,1.6,11c-3.7,0.5-6.5,3.1-9.4,0c-2.3,4.6,1.8,5.8-3.1,7.8c-5.9,1.7-4.5-3.9-9.4-3.1
		c0.9,4.1-0.6,5.6-4.7,4.7c-1.3,7.1,3.7,7.8,4.7,12.5c34.6,12.3,52-27.9,36-51.7h-6.3C581.9,430.9,572.9,428.7,577.1,439.6
		L577.1,439.6z M525.4,441.1c5.7,1.5,1.6-6.8,4.7-7.8c-2-0.1-2.2-2-4.7-1.6C524.7,436.7,528.8,437.9,525.4,441.1L525.4,441.1z
		 M548.9,481.9c-6-5-7.4-14.6-14.1-18.8C538.7,469.2,542.2,483.9,548.9,481.9z M713.4,513.2c-6.5-21.5,10.8-41.4,9.4-50.1
		C706.6,466.7,692.2,505,713.4,513.2L713.4,513.2z M635.1,516.3c-0.9-21.3,13.4-27.3,21.9-39.2C641.6,473.8,620.5,504.6,635.1,516.3
		L635.1,516.3z M486.3,503.8c1.4-2.8,5.8-2.6,6.3-6.3C487.2,495.4,481.6,501,486.3,503.8z M581.8,539.8c20.7,3.3,36.6-28.7,21.9-36
		C612.4,521.6,594.5,533.6,581.8,539.8z M511.3,546.1c-3.5,4.6-10.5-8.1-6.3,1.6c-0.4,3.2-4.2,3.1-6.3,4.7c-1.4-2.3-2.3-5-6.3-4.7
		c4.3,6.8-4.1,3.6-3.1,11c31.1,17.4,62.2-24.8,37.6-43.9c0.7,6.4-0.6,15.8-6.3,11c2.6,7,0.2,15.2-7.8,11
		C512.8,542,515.7,543.4,511.3,546.1L511.3,546.1z M680.5,521c4.8,1.8,8.6-1.5,12.5,3.1c1.1-5.3-3.2-5.1-4.7-7.8
		C690.8,522.9,680.2,516.6,680.5,521L680.5,521z M653.9,596.2c1.6-15.6,10.7-23.7,15.7-36c-3.9,0.2-4.9,3-6.3-1.6
		c4.7-4.2,11.8-6,15.7-11C657,550.7,638.8,579.3,653.9,596.2L653.9,596.2z M577.1,575.8c7.7-10,20-21.4,32.9-17.2
		C602.2,544.6,569.6,565.2,577.1,575.8z M462.8,574.3c-1.2-3.5-0.9-8.5-4.7-9.4C458.1,569.5,457.9,574.4,462.8,574.3z M498.8,600.9
		c4.4-13.9,20.1-17.6,31.3-20.4C516.5,578.3,494.5,585.6,498.8,600.9L498.8,600.9z M406.4,594.6c-4.7-1.1-1-10.5-6.3-11
		C400.5,588.1,402.5,598.9,406.4,594.6L406.4,594.6z M641.4,604c-2.7-0.6,0.3-2,0-4.7c-2.6,0.2-14.2-0.9-9.4,1.6
		C637.8,598.3,639.1,608.2,641.4,604L641.4,604z M458.1,630.7c-2.3-2.4-2.1-7.3-4.7-9.4c-2.6,7.8,7.4,12.7,0,15.7
		c-3.7-0.5-3.5-4.8-6.3-6.3c0.7,5.5,2.4,8.9-1.6,12.5c-6.4,0.6-4.8-6.7-9.4-7.8c-1.1,4.8,1.6,5.7,1.6,9.4c-2.6,2.1-10-0.6-9.4,4.7
		c24.5,14.5,58-17,36-34.5C463.8,621.8,463.4,628.7,458.1,630.7L458.1,630.7z M585,647.9c13-9.5,16.3-28.6,37.6-29.8
		C608.4,608.8,580.4,628.7,585,647.9z M382.9,622.8c-12.4-3-10.7,8.1-18.8,9.4c-1.8-2.3-1.9-6.4-4.7-7.8c-0.4,4.7,4.4,9.5-1.6,11
		c-5,1.4-2.1-5.2-6.3-4.7c1.4,7.5-6.3,14.2-9.4,7.8c0.2,7-4.4,9.2-3.1,17.2C358.6,677.9,411.7,651.6,382.9,622.8L382.9,622.8z
		 M574,646.3c-1.4,6.4-5.9,5.1-9.4,6.3c5.5,0.2,5.6,5.9,7.8,9.4c0.5-6.2,4.8,1.2,6.3-3.1c-7-1.4-5.1-12.1,0-14.1
		c-4.6-1.2-7.8-3.7-11-6.3C566.5,644.4,573.7,641.9,574,646.3L574,646.3z M555.2,651c6,0.2,5.1-6.4,7.8-9.4
		C557.1,641.4,555.6,645.7,555.2,651L555.2,651z M508.2,673c8.8-11.1,19.8-19.8,34.5-25.1C524.6,647.1,511.6,655.1,508.2,673
		L508.2,673z M276.4,662c0.2,6.5-3.1,8.5-7.8,6.3c1.1,4.8-1.6,5.7-1.6,9.4c6.6,19.4,49.6,22.5,51.7,0c1.2-13-8.4-17-21.9-20.4
		c-0.8,7.1-8.1,4.2-9.4,0C286.6,663.5,280.5,667.6,276.4,662z M328.1,669.8c0.4-4.8,12.9,2.5,11-4.7
		C335.9,666.5,324.6,664.4,328.1,669.8L328.1,669.8z M433,683.9c5.3-10.3,22.4-15.6,37.6-11C462.3,657.9,425.9,674.2,433,683.9
		L433,683.9z M252.9,683.9c3.9,0.2,4.9,3,6.3-1.6c-1.2-0.3-1.8-1.3-1.6-3.1h-3.1C254.3,681.3,252.4,681.4,252.9,683.9z M395.4,704.3
		c-1.7-1.5-0.5-5.8-4.7-4.7c-1.3,4.4,2.2,4.1,1.6,7.8c-1.9,1.8-5.5,1.8-9.4,1.6c-0.3-2.3,0.6-5.8-1.6-6.3c-3.5,4,2.5,7.9,4.7,11
		c-6.2,5.1-11.3-1.4-14.1-4.7c-0.9,2.3,1.8,8.1-1.6,7.8c-1.8,0.2-4.4-0.3-4.7,1.6c8.2,1.2,15.2,3.6,17.2,11
		c-6.5,1.8-15.2,1.5-17.2,7.8c12.5-6.8,32.9-2.2,42.3,0c-8.3-6.8-23.4-6.9-28.2-17.2c4.4-1.8,8.1-1.8,12.5,0c0.6-8.7,18-15,6.3-21.9
		C396.4,699,398.3,704.1,395.4,704.3L395.4,704.3z M346.9,756c-8.2-5.2,6-20.3,1.6-26.6C346.5,732.8,335,757.9,346.9,756z
		 M356.3,757.6c0.2-3,6.2-13.1,0-12.5C357.4,751.1,345.4,755.4,356.3,757.6z"/>
	<path class="st1" d="M664.9,110.6c-2.8,6.1-15.8,1.9-18.8,7.8c-2.1-1-2.9-3.3-3.1-6.3C649,115.9,658.2,111.3,664.9,110.6z"/>
	<path class="st1" d="M700.9,187.4c4.2-1.9,0-8.2,0-11c16.6,3.7,34.1,49.9,3.1,39.2c-1.5-7.3-3.6-14.1-11-15.7c1.6-3.5,7.2,2,12.5,0
		c2-11.4-8.1-10.7-12.5-15.7C694.3,180.6,698.5,186.9,700.9,187.4z"/>
	<path class="st1" d="M675.8,275.1c-2.2-4.1-5.1-7.5-12.5-6.3c4.3-6.1,7.1-3.2,12.5,0c8.3-5.3-1.7-14.8-7.8-15.7
		c2.2-4.6,5.4,2.8,9.4,1.6c1.3-5.4-2.3-6-1.6-11c31.9,0.5,25.5,76.6-11,43.9c0.9-6.9,5.5-9.1-1.6-12.5
		C659.3,271.8,672.6,280.5,675.8,275.1L675.8,275.1z"/>
	<path class="st1" d="M639.8,264.1c3.2-3.6,5.2,7.2,11,6.3c-0.4,2.8-2.7,3.6-6.3,3.1C648.8,269,641,267.8,639.8,264.1L639.8,264.1z"
		/>
	<path class="st1" d="M777.6,281.4c-2.1,1.6-5.8,1.5-7.8,3.1c0.7,3,3.4,3.9,3.1,7.8c1.4,4.3-3.9-8.8-9.4-7.8
		c2-6.1,11.6,1.4,14.1-6.3C784.8,285.1,783.6,293.7,777.6,281.4L777.6,281.4z"/>
	<path class="st1" d="M762,298.6c6.3-3.1,5.2,14.6,12.5,15.7c0,3.7-2.7,4.6-1.6,9.4c-8.6-4.2-1.4-16-11-20.4
		C763.1,302,764.4,299,762,298.6L762,298.6z"/>
	<path class="st1" d="M588.1,362.8c1.4-4.6,2.3-1.8,6.3-1.6c-0.1,2.2-0.3,4.4,1.6,4.7C594.8,369.5,591.2,362.5,588.1,362.8
		L588.1,362.8z"/>
	<path class="st1" d="M534.8,463.1c6.7,4.2,8.1,13.8,14.1,18.8C542.2,483.9,538.7,469.2,534.8,463.1z"/>
	<path class="st1" d="M512.9,536.7c8,4.2,10.5-4,7.8-11c5.7,4.9,7-4.6,6.3-11c24.6,19.1-6.5,61.2-37.6,43.9c-1-7.4,7.4-4.2,3.1-11
		c3.9-0.3,4.9,2.4,6.3,4.7c2.1-1.6,5.8-1.5,6.3-4.7c-4.2-9.7,2.7,3,6.3-1.6C515.7,543.4,512.8,542,512.9,536.7L512.9,536.7z"/>
	<path class="st1" d="M632,600.9c-4.8-2.4,6.8-1.4,9.4-1.6c0.3,2.7-2.7,4.1,0,4.7C639.1,608.2,637.8,598.3,632,600.9L632,600.9z"/>
	<path class="st1" d="M567.7,638.5c3.2,2.5,6.4,5.1,11,6.3c-5.1,2-7,12.7,0,14.1c-1.4,4.3-5.8-3.1-6.3,3.1c-2.2-3.5-2.3-9.2-7.8-9.4
		c3.5-1.2,8,0.2,9.4-6.3C573.7,641.9,566.5,644.4,567.7,638.5L567.7,638.5z"/>
	<path class="st0" d="M589.7,683.9c-3.7,2-10.4,1.1-9.4,7.8c-4.1,0.5-5.1-2.2-4.7-6.3C583.5,688.1,586,671.5,589.7,683.9
		L589.7,683.9z"/>
</g>
<g>
	<g>
		<path d="M186.5,288.2c1-0.4,2.2,0.6,3.3,3.2c2,3.6,4,7.2,5.9,10.8c0.1,0.3,0.2,0.5,0.3,0.8c0.7,1.7,0.5,2.8-0.6,3.5
			c-2,1.7-3.4,2.7-4.3,3c-0.6,0.2-1,0-1.5-0.6c-0.1-0.3-0.3-0.8-0.5-1.4c-1.4-1.7-2.8-2.9-4.2-3.5c-2.1-0.5-4-0.4-5.7,0.3
			c-1.3,0.6-1.9,1.5-1.9,3c0.2,0.8,0.4,1.4,0.6,1.9c1.7,3.6,4.4,5.4,8.1,5.5c3.5,0,6.7,0.6,9.4,1.8c3,1.3,4.6,2.3,4.9,3
			c0.4-0.2,2.1,2.1,5.2,6.7c0.4,0.6,0.7,1.2,1,1.9c0.1,0.2,0.2,0.4,0.3,0.6c1.1,2.5,1.6,4.7,1.3,6.4c-0.1,2-0.9,4-2.4,6.1
			c-1.8,2-3.9,3.5-6.3,4.5c-3.7,1.5-6.6,2-8.5,1.6c-1.9,0-3.9-0.6-6-1.8c-0.2,0-0.3,0.1-0.5,0.1c0,0-0.1,0-0.1,0
			c-0.1,0-0.2,0.8-0.3,2.2c-0.2,0.4-0.5,0.7-1,1c-0.7,0.3-1.6,0.6-2.6,0.9c-0.4,0.1-1-0.4-1.7-1.6c-1.2-2.1-2.7-4.6-4.4-7.4
			c-0.2-0.4-1.2-2.2-2.8-5.5c-0.6-1.2-0.5-2,0.3-2.4c1.4-1.1,2.9-2.1,4.4-3.3c0.1-0.1,0.2-0.1,0.4-0.2c0.9-0.4,1.9,0.1,2.9,1.6
			c2,3.3,3.2,4.8,3.7,4.6c0.7,0.6,2,0.8,3.8,0.7c1-0.2,1.6-0.4,1.8-0.5c1.9-0.8,3.1-2.1,3.6-4.1c0.1-0.6-0.1-1.3-0.4-2
			c-0.7-1.5-2.1-2.9-4.4-4.4c-2.3-1-4.5-1.5-6.8-1.6c-2.5-0.1-4.5-0.4-6.2-1c-3.9-1.1-6.8-3.6-8.7-7.5c-0.2-0.3-0.3-0.7-0.5-1
			c-1.5-3-1.9-5.6-1.3-7.9c0.4-2.3,2.1-4.8,5.2-7.3c1.3-1.1,2.5-1.9,3.6-2.4c0.2-0.1,0.4-0.2,0.6-0.3c1.2-0.5,3.7-0.9,7.3-1
			c0,0,0.1,0,0.1,0c0.5-0.2,0.5-0.8,0-1.8c-0.5-1-0.5-1.8-0.1-2.3c0.5-0.4,1.5-1,2.9-1.6C185.2,288.7,186.1,288.3,186.5,288.2z"/>
		<path d="M205.6,284c0.1,0,0.3-0.1,0.4-0.1c0.7-0.3,1.4,0.1,2.1,1.1c0.8,2.7,1.7,5.3,2.5,8c0.3,0.4,0.6,0.6,1,0.5
			c0.7-0.4,2-1.7,4-3.7c0.2-0.1,0.4-0.1,0.6-0.2c1-0.2,1.6,0,1.9,0.7c0,0.1,0.1,0.2,0.1,0.4c0.1,0.2,0.4,1.6,0.9,4.2
			c0.9,3,0.7,4.8-0.6,5.3c-3.1,2.2-4.7,3.5-4.8,3.9c-0.1,1.2,0.7,3.7,2.3,7.5c0.2,0.5,0.4,0.9,0.6,1.4c1.4,3.5,2.5,5.2,3.3,5.3
			c0.1,0.1,0.4,0.2,0.7,0c0.4-0.1,0.8-1,1.3-2.5c0.4-0.4,0.8-0.6,1-0.7c0.7-0.2,2.5,0.3,5.4,1.7c0.1,0.2,0.2,0.4,0.4,0.6
			c0,0.1,0,0.1,0.1,0.2c0.5,2.1,0.4,4.7-0.4,7.7c-1.3,3-3,4.9-5.3,5.7c-2.7,1-5.7,0.3-9-2c-3-2.1-6.4-7.3-10.1-15.7
			c-0.1-0.3-0.3-0.6-0.4-0.9c-0.5-1.1-1-2.1-1.5-3.1c-4.5-10.6-6.7-16.1-6.6-16.6c0.3-0.5,1.8-2,4.7-4.4
			C203,285.6,204.8,284.3,205.6,284z"/>
		<path d="M234,279c0.4-0.1,0.7-0.3,1.1-0.4c2.5-0.9,5.2-0.5,8.3,1.2c3,2.4,5.2,5.5,6.7,9.4c1.7,4.6,2.1,9.3,1.2,14.2
			c0,0.9,0.1,1.6,0.3,2.3c0.1,0.2,0.1,0.3,0.2,0.5c0.4,1.1,1.2,1.9,2.4,2.3c2,0.5,3,0.9,3.2,1.3c0,0.1,0.1,0.2,0.1,0.4
			c0.2,0.5-0.1,1.2-0.7,2.2c-1.3,3.1-2.6,4.9-4,5.4c-1,0.4-2,0.4-2.9,0.1c-2.3-1.4-3.6-2-4.1-1.9c-0.1,0-0.1,0-0.2,0.1
			c-0.2,0.1-1.3,0.8-3.3,2.1c-0.4,0.1-0.8,0.3-1.1,0.4c-2.3,0.8-4.6,0.5-7.1-0.9c-1.9-1.4-3.5-3.5-4.6-6.3c-0.7-1.8-0.9-4.1-0.6-6.9
			c0.9-2.4,2.4-4,4.4-4.7c0.9-0.3,2.7-0.6,5.4-0.8c0.8-0.3,1-1.7,0.4-4.2c0.1,0,0-0.7-0.5-1.9c-1-2.5-2.2-3.6-3.6-3.1
			c-1.1,0.4-1.6,1.4-1.6,3.2c0,0.6,0.3,1.8,0.7,3.5c-0.1,1.1-0.7,1.8-1.6,2.1c0,0-1,0.6-2.8,1.7c-1.2,0.4-2.3-0.1-3.2-1.6
			c-0.8-1.4-1.3-2.3-1.4-2.5c-2-4.8-0.3-9.8,5.3-14.9C231.8,280.1,233,279.4,234,279z M236.9,309.6c0.1,0.3,0.2,0.6,0.4,0.9
			c0.7,1.1,1.5,1.5,2.4,1.2c0.1,0,0.1,0,0.2-0.1c1.6-1,2.1-2.1,1.6-3.4c0-0.1-0.1-0.2-0.1-0.3c-0.6-1.4-1.6-2-3.1-1.7
			c-0.1,0-0.1,0-0.2,0.1C237,306.7,236.5,307.8,236.9,309.6z"/>
		<path d="M274.3,262.6c0.1,0,0.3-0.1,0.4-0.1c0.7-0.2,1.5,0.3,2.1,1.5c1.8,5.6,3.5,11.6,5.3,17.8c2.9,9.5,4.5,15.9,4.8,19.2
			c0.2,2.2,0.2,4.9,0,8c-1.4,5.7-3.4,9.3-5.8,10.8c-1.1,1-2.5,1.8-4,2.3c-3.8,1.2-7.3-0.3-10.6-4.4c-1-1.5-1.8-2.9-2.2-4.2
			c-1-2.7-0.9-4.5,0.1-5.4c0.6-0.5,2.8-1.6,6.7-3.4c1.4-0.3,2.2,0,2.4,0.8c0.4,1.5,0.6,2.4,0.7,2.6c0.4,1,0.9,1.6,1.5,1.7
			c0.2-0.1,0.4-0.1,0.6-0.2c0.9-0.5,1.6-1.9,2.1-4.3c0-2.7-0.5-5.1-1.2-7.3c-0.4-1.2-0.8-1.7-1.3-1.5c-0.1,0-0.7,0.7-1.6,1.9
			c-1.2,1.1-2.5,1.9-4,2.4c-1.8,0.6-4,0.1-6.8-1.2c-2.5-1.7-4.5-4.5-5.9-8.3c-0.1,0-0.3-0.6-0.8-1.9c-0.1-0.2-0.1-0.4-0.2-0.5
			c-0.2-0.5-0.5-0.7-0.8-0.7c0,0-0.1,0-0.1,0c-0.6,0.4-1.2,0.7-1.8,1.1c-0.8,0.3-1.5-0.1-2-1.2c-1-4.6-1.8-7.6-2.3-9.1
			c-0.1-0.8,0.6-1.8,2-3c4.5-4.8,7.3-7.4,8.2-7.6c0.8-0.3,1.5,0.1,2,1c0,0,0,0.1,0,0.1c0.2,1.8,1.3,5.8,3.3,11.9
			c1.6,4.4,2.9,6.7,4.1,6.9c0.2-0.1,0.4-0.1,0.6-0.2c0.5-0.2,0.8-1.6,0.8-4.3c0.2-2.3-0.3-5.3-1.6-8.9c-0.7-1.6-1.3-3.2-2-4.8
			c-0.4-1.2,0-2.2,1.4-3.1C271.7,264.3,273.7,262.8,274.3,262.6z"/>
		<path d="M345.9,234.9c1.1,0,1.8,0.4,2.1,1.3c0,0.2,0.1,0.3,0.1,0.5c1.1,4.3,1.4,6.5,1.1,6.6c-0.6,1.3-1.7,2.6-3.4,3.8
			c-0.8,0.6-1.1,1.3-0.9,2.1c1.5,5.4,3.2,11.3,5,17.7c1.8,6.4,3.1,10.8,3.9,13.2c0.3,0.3,0.6,0.5,0.9,0.4c1.1-0.8,1.8-1.2,2.2-1.3
			c0.9,0,1.5,0.4,1.8,1.3c0.2,1.1,0.3,1.8,0.4,2c0.1,0.5,0.6,1.8,1.6,4.1c0,0.1,0,0.1,0,0.2c0.3,1.3-0.9,2.4-3.5,3.5
			c-2.1,1.3-4.8,3.3-8.1,6c-0.2,0-0.3,0.1-0.5,0.1c-0.9,0.2-1.7-0.3-2.1-1.6c-2-7.7-3.2-12-3.4-12.8c-1.8-6.5-2.8-9.6-3.2-9.6
			c-0.3-0.1-0.5-0.1-0.7,0c0,0-0.1,0-0.1,0c-0.8,0.2-2.3,1.4-4.4,3.7c-0.4,0.6-0.5,1.3-0.3,2c1.1,3.9,2.6,8.5,4.4,13.7
			c0.3,1.1-0.1,2-1.1,2.7c-5.9,3.4-9.3,5.2-10.3,5.5c-0.1,0-0.1,0-0.2,0.1c-1.3,0.3-2.3-0.4-2.8-2.4c-0.2-0.6-0.3-1.2-0.5-1.8
			c-0.3-1.1-0.9-2.8-1.7-5.1c-0.2-0.8,0.6-2.1,2.5-3.8c0.6-0.8,0.9-1.5,0.7-2.1c-0.1-0.4-0.2-0.8-0.3-1.2c-0.3-0.9-0.4-1.5-0.4-1.8
			c-4.1-11.4-6.7-18.1-7.3-20.3c-0.3-0.6-0.7-0.8-1.2-0.7c-0.8,0.6-1.6,1.2-2.5,1.8c-0.3,0.1-0.4,0.1-0.4,0.2
			c-1.2,0.3-2.1-0.5-2.7-2.4c-1.2-2.9-2-4.9-2.4-6.1c0,0,0-0.1,0-0.1c-0.4-1.3,0.1-2.5,1.5-3.6c1-1,3.7-3.3,8.1-6.9
			c1.3-1.3,2.3-2,3.1-2.2c1.5-0.4,2.7,0.5,3.3,2.6c2.9,9.9,4.2,14.9,4,14.9c1.7,5.6,2.7,8.3,3.1,8.2c0.2,0,0.4,0,0.6,0
			c0.1,0,0.1,0,0.2,0c0.8-0.3,2.4-1.6,4.9-4c0.3-0.6,0.3-1.2,0.2-1.6c-0.9-3-1.7-6.1-2.6-9.1c-0.5-1.7-1.2-4.1-2.2-7.2
			c-0.4-1.2,1-2.9,4.1-5C341.6,237,344.8,235.1,345.9,234.9z"/>
		<path d="M366.5,243.5c0.6-0.1,1.1-0.2,1.7-0.4c4.5-1,9.2,1.1,14.1,6.3c2.8,4,4.4,7,4.9,9.1c0.4,0.8,0.9,2.5,1.6,5
			c0.8,3.3,0.8,6.6,0.1,9.8c-0.7,2.4-1.7,4.5-2.9,6.5c-1.5,2.1-3.8,3.5-6.7,4.2c-0.5,0.1-1.1,0.2-1.6,0.3c-2.6,0.5-5.6-0.2-9-2.3
			c-2.1-1.6-4.2-3.9-6.4-7c-1.3-2.1-2.6-5.8-4-11.2c-1.1-4.1-1.2-7.7-0.3-10.7c0.2-1.4,1-3.1,2.5-5.2
			C362.4,245.6,364.4,244.1,366.5,243.5z M368.8,261.9c0,0.1,0,0.1,0,0.2c1,4,2.3,7.1,4,9.4c1.8,2.2,3,3.2,3.9,3c0.1,0,0.1,0,0.2,0
			c0.8-0.2,1.4-1.6,1.7-4.3c-0.5-6.5-2.5-11.8-5.9-16c-0.8-1-1.9-1.2-3.3-0.4C368,254.5,367.8,257.2,368.8,261.9z"/>
		<path d="M412.7,233.8c2.5-0.2,4.9,1.3,7.2,4.3c0.4,0.4,0.7,0.5,1.1,0.5c0.3,0,1.7-1.1,4.1-3.2c1.3-1,3-1.6,4.8-1.7
			c0.2,0,0.4,0,0.6,0c3.4-0.2,6.1,2,8.1,6.5c0.5,1.4,0.9,3,1.2,4.8c0.4,1.9,0.9,7.3,1.6,16c0.1,0.9,0.3,2.1,0.5,3.5
			c0,0.2,0.1,0.4,0.1,0.6c0.1,0.6,0.4,1,0.9,1.2c0,0,0.1,0,0.1,0c0.6,0,1.2-0.7,1.8-2.2c0.4-0.7,0.9-1,1.5-1c1,0,1.7,1.1,2.1,3.5
			c0.1,0.7,0.2,1.3,0.3,2c0.3,1.7,0.1,3.1-0.5,4.1c-1.3,2.4-2.8,3.9-4.3,4.6c-1.1,0.5-2.1,0.8-2.8,0.8c-1.9,0.1-4.1-1.1-6.4-3.4
			c-1.9-1.9-3.2-5.1-3.8-9.6c-1.7-10.2-2.7-16.2-3.1-17.9c-0.1-0.6-0.4-0.9-0.9-1.2c-0.1,0-0.2,0-0.3,0c-1,0.1-2.2,1.5-3.5,4.4
			c-0.1,0.3-0.1,0.7,0,1.2c0.7,2.8,1.7,7.6,2.9,14.5c0.6,2.2,0.5,3.6-0.3,4.2c-0.8,1-2.9,2.9-6.2,5.9c-0.3,0.1-0.6,0.2-0.9,0.3
			c-0.9,0.1-1.5-0.5-1.9-1.6c-0.5-3.6-1.7-10.8-3.8-21.4c-1.1-4.3-1.9-6.4-2.5-6.3c-0.1,0-0.2,0-0.3,0c-0.8,0.1-1.6,1.2-2.4,3.3
			c-0.7,0.8-0.9,2.4-0.5,4.9c0.4,2.5,1.6,8.3,3.5,17.7c-0.1,0.7-0.5,1.3-0.9,1.7c-3.1,1.8-6.2,3.7-9.2,5.6c-0.2,0.2-0.5,0.2-0.8,0.3
			c-0.1,0-0.2,0-0.3,0c-1.3,0.1-2.3-1-3.2-3.3c-0.9-2.2-1.4-3.4-1.5-3.7c0-0.1,0-0.2-0.1-0.3c-0.3-1.3,0.7-2.7,3-4.2
			c0.5-0.6,0.6-1.2,0.5-1.9c-0.5-2.3-1.3-5.9-2.4-10.7c-0.7-3.1-1.3-4.6-1.8-4.5c-0.1,0-0.2,0-0.3,0c-0.1,0-0.6,0.6-1.5,1.6
			c-0.2,0.2-0.5,0.3-1,0.5c-1.2-0.1-1.9-0.7-2.2-1.9c-0.1-0.4-0.3-1.3-0.5-2.5c-0.7-2.4-1.2-3.9-1.3-4.5c-0.3-1.2,0.5-2.7,2.5-4.8
			c2.7-3.3,5.6-5.1,8.5-5.3c2.3-0.2,4.3,0.9,6.2,3.2c0.2,0.1,0.4,0.2,0.7,0.4c0,0,0.1,0,0.1,0c0.4,0,1.3-0.9,2.6-2.5
			C409.7,234.7,411.4,233.9,412.7,233.8z"/>
		<path d="M458.6,226.5c0.3,0,0.7,0,1,0c3-0.1,6.2,1.7,9.6,5.6c1.8,2.3,3.1,4.9,3.9,8c0.5,1.7,0.8,2.7,0.9,3.1
			c0.1,3.2-3.2,5.6-9.9,7.3c-1.3,0.5-2,1.3-1.9,2.2c0.2,1.1,1.1,2.4,2.6,4.1c0.5,0.5,1.1,0.7,1.7,0.7c1-0.4,1.5-1.5,1.4-3.4
			c0-0.5,0-0.9-0.1-1.4c-0.1-1.3,1-2,3.2-2c0.7,0,2-0.1,4-0.2c1.4,0.3,2.2,1.2,2.3,2.8c0.1,1.8-0.4,4-1.3,6.5
			c-0.9,2.1-2,3.7-3.1,4.7c-1.6,1.4-3.8,2.4-6.6,2.9c-0.4,0.1-0.8,0.1-1.1,0.1c-2.9,0.1-5.8-1-8.9-3.2c-3.3-3.3-5.4-6.2-6-8.6
			c-1.2-3-2-6.8-2.4-11.5c0-0.2,0-0.3,0-0.5c-0.6-8.3,2.3-13.9,8.7-16.6C457.4,226.6,458.1,226.5,458.6,226.5z M457.9,238.2
			c0.2,3,0.8,4.5,1.9,4.4c0,0,0.1,0,0.1,0c1.9-0.4,2.7-1.6,2.6-3.6c0-0.2,0-0.4,0-0.6c-0.5-2.1-1.5-3.2-3-3.1
			C458.3,235.5,457.8,236.5,457.9,238.2z"/>
	</g>
</g>
</svg>
