<?xml version="1.0" encoding="utf-8"?>
<!-- Generator: Adobe Illustrator 28.1.0, SVG Export Plug-In . SVG Version: 6.00 Build 0)  -->
<svg version="1.1" id="Layer_2" xmlns="http://www.w3.org/2000/svg" xmlns:xlink="http://www.w3.org/1999/xlink" x="0px" y="0px"
	 viewBox="0 0 850.4 850.4" style="enable-background:new 0 0 850.4 850.4;" xml:space="preserve">
<style type="text/css">
	.st0{fill:#DD0B43;}
</style>
<g>
	<path class="st0" d="M616.6,596.4c0,0,179.9-147.8,176.2-302.1C787.7,76.4,600.2,69.1,600.2,69.1
		C453.5,55.7,424.9,206.8,424.9,206.8C280.6,84.2,167,183,167,183c-91.2,92.7-65.5,236.8-65.5,236.8
		C126.9,587.6,297,644.2,297,644.2c126.6,55,189.9,181.2,189.9,181.2C511.4,679.2,616.6,596.4,616.6,596.4"/>
	<path d="M615.5,635.4c0,0,210.4-168.7,190-361.3l0.1-11.3c0,0-1-214-198.6-241c0,0-118.5-18.4-194.1,142.7
		c0,0,70.3-153.5,210-114.2c0,0,165.9,40.1,145,289.5c0,0-8.9,126.3-136.4,246.4c0,0-90.1,94.9-145.2,236.2c0,0-66.1-118.8-202-170
		c0,0-120.3-48.4-170.4-142.4c0,0-76.1-112.4-22.9-266.5c0,0,39.6-111.4,156.4-126c0,0,91.8-10.1,175.5,68.9c0,0,8.5,3,2.4-3.9
		c0,0-10.5-12.1-18.4-18.5c0,0-131.6-116.3-244-40.3c0,0-120.3,65.6-120.3,231.2c0,0-8.1,220.8,242.3,308.8
		c0,0,145.6,57.1,197.5,162.6c0,0,4.7,9.8,9.2-6c0,0,32.3-91.7,116.6-177.6L615.5,635.4z"/>
</g>
</svg>
