<?xml version="1.0" encoding="utf-8"?>
<!-- Generator: Adobe Illustrator 28.1.0, SVG Export Plug-In . SVG Version: 6.00 Build 0)  -->
<svg version="1.1" id="Layer_1" xmlns="http://www.w3.org/2000/svg" xmlns:xlink="http://www.w3.org/1999/xlink" x="0px" y="0px"
	 viewBox="0 0 850.4 850.4" style="enable-background:new 0 0 850.4 850.4;" xml:space="preserve">
<style type="text/css">
	.st0{display:none;}
	.st1{fill:#DD0B43;}
</style>
<g id="Layer_1_00000110440256230839304170000001046304669776027301_" class="st0">
	
		<image style="display:inline;overflow:visible;opacity:0.42;enable-background:new    ;" width="1227" height="992" xlink:href="../../../Froggie1004/clipart archive/heart1.jpeg"  transform="matrix(0.6929 0 0 0.7786 7.2126 38.99)">
	</image>
</g>
<g id="Layer_2_00000106861648123023084610000001413190186513913009_">
	<g>
		<path class="st1" d="M258.3,260c0,0,19-92.2,116.9-84.1c0,0,126.7,4.4,128.5,137.4c0,0,105.8-13.3,126.7,145.6
			c0,0,116.2-55,186.2,52c0,0,45.4,88.4-31.5,168.6c0,0-31.5,58.6-174.8,60.2c0,0-99.6,11.1-152.8,54.6c0,0,28.1-74.3-18.7-172.2
			c0,0-41.2-67.1-52.6-124.4c0,0-70.2,50.6-86.5,139.7c0,0-42.2-77-126.7-110.6c0,0-113.5-34.5-130.4-136.9
			c0,0-17.2-87.9,43.7-144.5C86.2,245.4,162,185.1,258.3,260z"/>
		<path d="M246.2,233.7c0,0-87.8-71-162.8-24.6c0,0-80.2,40-80.2,141.1c0,0-5.4,134.7,161.6,188.4c0,0,97.1,34.8,131.7,99.2
			c0,0,3.1,6,6.1-3.7c0,0,21.5-55.9,77.8-108.4c0,0,9,47.2,35.7,121.4c0,0,31.1,62,21.9,164.1c0,0,63.2-63.7,183.4-64.5
			c0,0,80.4,6,132.3-25.1c0,0,129.3-73.6,82.5-219.4c0,0-31.2-96.1-169.3-76.4c0,0,141.9-15.9,154.7,138.8c0,0,9.4,137-152.7,162.5
			c0,0-145.5,6.9-223.7,73.9c0,0,24-113-20.4-194.2c0,0-33.9-57.7-39.4-85.6c0,0,141-102.9,127.4-220.5c0,0,86.2,0.8,122,123.2
			c0,0,6.3,3.7,6.3-6.4c0,0-9.7-132-129.6-123.8c0,0,0-130.5-131.8-147c0,0-79-11.2-129.4,87c0,0,46.9-93.7,140.1-69.7
			c0,0,110.7,24.5,96.7,176.6c0,0-5.9,77.1-91,150.3c0,0-60.1,57.9-96.9,144.1c0,0-44.1-72.5-134.7-103.7c0,0-80.2-29.6-113.6-86.9
			c0,0-50.8-68.6-15.3-162.6c0,0,26.4-68,104.4-76.8c0,0,61.2-6.2,117,42c0,0,5.7,1.9,1.6-2.4C258.5,245.1,251.5,237.7,246.2,233.7z
			"/>
	</g>
</g>
</svg>
