<?xml version="1.0" encoding="utf-8"?>
<!-- Generator: Adobe Illustrator 28.1.0, SVG Export Plug-In . SVG Version: 6.00 Build 0)  -->
<svg version="1.1" xmlns="http://www.w3.org/2000/svg" xmlns:xlink="http://www.w3.org/1999/xlink" x="0px" y="0px"
	 viewBox="0 0 850.4 850.4" style="enable-background:new 0 0 850.4 850.4;" xml:space="preserve">
<style type="text/css">
	.st0{fill:#C1C1C1;}
	.st1{fill:#E8E8E8;}
	.st2{fill:#A8A8A8;}
</style>
<g id="Layer_2">
	<path d="M195.7,780.5c0,0,1.2,33-19.8,34c0,0-49.6,9-75.6-12c0,0-16.1-17-8.7-44c0,0,11.2-19,6.2-30c0,0-18.6-72-27.3-90
		c0,0-44.6-147-44.6-231c0,0-2.5-122,68.1-218c0,0,64.4-98,172.2-138c0,0,120.2-51,282.5-9c0,0,157.3,38,229.2,190
		c0,0,55.8,109,37.2,238c0,0-5,69-60.7,191c0,0-49.6,97-13.6,106c0,0,6.2,1,3.7,9c0,0-5,37-6.2,48c0,0-12.4,8-49.6,6
		c0,0-38.4,0-52-14c0,0-6.2-78,24.8-156c0,0,48.3-126,48.3-163c0,0,18.6-125-32.2-222c0,0-63.2-130-241.6-136c0,0-142.5-17-235.4,89
		c0,0-64.4,61-66.9,197c0,0,0,125,48.3,278C182.1,703.5,198.2,760.5,195.7,780.5z"/>
</g>
<g id="Layer_3">
	<path class="st0" d="M169.1,809c-8,1.8-39.7,7.3-62.2-13.2c-0.2-0.2-0.4-0.4-0.5-0.6c-1.4-2.7-9.9-20.7,1.3-45.4
		c0.1-0.1,0.1-0.3,0.2-0.4c1-1.3,6.6-10-1.4-33.8c0,0-16.1-56.9-24.7-76.9c0-0.1,0-0.1-0.1-0.2c-0.9-2.8-27.3-85.8-33.4-134.9
		c0,0-21-126.9,7.4-204.9c0-0.1,0-0.1,0.1-0.2c0.6-2.5,14.9-60.5,73.1-130.9c0,0,48.6-62.2,114.6-89.3c1.8-0.7,3.9,0.4,3.8,2
		c-0.5,6.9,1.8,20.7,28.8,16.3c0.2,0,0.4-0.1,0.6-0.2c4.6-1.8,64.2-24,124.8-25.9c0,0,76.8-6,149.9,18c0,0,34.7,12.1,41.5-9.6
		c0.4-1.3,2.1-1.9,3.6-1.4c16.2,5.8,95.7,37.7,154.4,128c0,0,53.3,82,59.5,184c0,0,12.4,96-45.8,230c0,0-34.6,73.8-39.6,102.9
		c0,0.1,0,0.1-0.1,0.2c-0.6,1.9-8.9,28.5-0.6,40.7c1,1.4-0.4,3.1-2.4,3.1c-15.6-0.6-58.7-3.2-57.6-13.8c0,0-5-25,27.3-124
		c0,0,33.7-88,36.2-164c0,0,5.2-107-38.2-194c0,0-42.6-93-151.6-124c0,0-107.8-36-219.3-5c0,0-95.4,25-147.4,105c0,0-48.3,64-52,159
		c0,0-3.7,105,21.1,202c0,0,17.3,67.8,24.7,97.9c0,0.1,0,0.2,0.1,0.3c0.7,1.8,9.2,22.8,1.7,39.9c-0.3,0.6-1,1.1-1.8,1.3
		c-5.6,1.2-28.4,6-49.9,6.6c-3.3,0.1-3.4,4.1-0.1,4.2c0.5,0,1.1,0,1.8-0.1c0,0,34.3-3.7,45.8-2.2c0.9,0.1,1.6,0.6,1.9,1.2
		c1.8,3.3,6.7,15.5,6.8,50.4C171,807.9,170.2,808.7,169.1,809z"/>
	<path class="st1" d="M114.7,757.6c0.5,0,1.1,0,1.8-0.1c0,0,34.3-3.7,45.8-2.2c0.9,0.1,1.6,0.6,1.9,1.2c1.8,3.3,6.7,15.5,6.8,50.4
		c0,0.9-0.8,1.8-1.9,2c-8,1.8-39.7,7.3-62.2-13.2c-0.2-0.2-0.4-0.4-0.5-0.6c-1.4-2.7-8.4-20.2-1.7-37.4L114.7,757.6z"/>
	<path class="st1" d="M733.8,772.4c-10.1-0.5-53.8-2.4-64.8-2.8c-1.4-0.1-2.6,0.8-2.7,1.9c-1,8.3-4.7,39.9-4.7,46c0,0,0,5,8.7,6
		c0,0,36.7,4,49.3,3c0.2,0,0.3,0,0.5-0.1c1.5-0.3,9.8-2.4,10.9-6.9c0,0,6.6-33.8,5.3-45.2C736.1,773.3,735.1,772.5,733.8,772.4z"/>
	<path class="st2" d="M261.1,70.3c0.2-0.5,0.6-0.9,1.2-1.2c8.1-3.7,70.5-30.5,166.4-29.6c0,0,99.7,0,144.5,26.8
		c0.3,0.2,0.5,0.4,0.7,0.6c1.5,2,7.5,11.3-9.9,9.6c-0.2,0-0.3,0-0.5-0.1c-4.4-1.1-72.5-18-137.2-19.9c-0.1,0-0.1,0-0.2,0
		c-2.8,0-80.5,1.4-149.8,25C276.3,81.5,253.3,90.3,261.1,70.3z"/>
	<path d="M662.4,144.4l8.3,8.4c3.9,4,3.1,9.9-1.8,13.1l-4.5,2.9c-5,3.2-12.2,2.5-16.2-1.5l-8.3-8.4c-3.9-4-3.1-9.9,1.8-13.1l4.5-2.9
		C651.2,139.8,658.4,140.4,662.4,144.4z"/>
	<path d="M207.5,158.5l-7.9,8.7c-3.8,4.1-11,5-16.1,2l-4.7-2.8c-5.1-3-6.2-8.9-2.5-13l7.9-8.7c3.8-4.1,11-5,16.1-2l4.7,2.8
		C210.1,148.5,211.2,154.3,207.5,158.5z"/>
	<path d="M106.3,565.8l4.3,15c1.1,3.7-1.9,7.5-6.5,8.4h0c-4.6,0.9-9.3-1.5-10.4-5.2l-4.3-15c-1.1-3.7,1.9-7.5,6.5-8.4h0
		C100.6,559.7,105.3,562,106.3,565.8z"/>
	<path d="M753.5,584.4l-7.4,14.2c-1.8,3.5-6.9,5.2-11.3,3.7h0c-4.4-1.5-6.5-5.6-4.6-9.1l7.4-14.2c1.8-3.5,6.9-5.2,11.3-3.7l0,0
		C753.2,576.8,755.3,580.9,753.5,584.4z"/>
	<path d="M779.9,434.1v13.4c0,4.4-3.6,8-8,8h-2.3c-4.4,0-8-3.6-8-8v-13.4c0-4.4,3.6-8,8-8h2.3C776.3,426.2,779.9,429.7,779.9,434.1z
		"/>
	<path d="M91.1,434.1v13.4c0,4.4-3.6,8-8,8h-2.3c-4.4,0-8-3.6-8-8v-13.4c0-4.4,3.6-8,8-8h2.3C87.5,426.2,91.1,429.7,91.1,434.1z"/>
	<path d="M115.9,289.2l-5.6,12.6c-1.8,4.1-7.5,6.3-12.7,4.9l-2.6-0.7c-5.1-1.5-7.8-6.1-6-10.2l5.6-12.6c1.8-4.1,7.5-6.3,12.7-4.9
		l2.6,0.7C115,280.4,117.8,285,115.9,289.2z"/>
	<path d="M754.2,283.6l4.4,12.9c1.4,4.2-1.7,8.7-6.9,9.8l-2.6,0.6c-5.3,1.2-10.7-1.4-12.2-5.6l-4.4-12.9c-1.4-4.2,1.7-8.7,6.9-9.8
		l2.6-0.6C747.3,276.8,752.8,279.3,754.2,283.6z"/>
</g>
</svg>
