<?xml version="1.0" encoding="utf-8"?>
<!-- Generator: Adobe Illustrator 28.1.0, SVG Export Plug-In . SVG Version: 6.00 Build 0)  -->
<svg version="1.1"
	 id="Layer_1" xmlns:svg="http://www.w3.org/2000/svg" xmlns:cc="http://web.resource.org/cc/" xmlns:dc="http://purl.org/dc/elements/1.1/" xmlns:rdf="http://www.w3.org/1999/02/22-rdf-syntax-ns#"
	 xmlns="http://www.w3.org/2000/svg" xmlns:xlink="http://www.w3.org/1999/xlink" x="0px" y="0px" viewBox="0 0 850.4 850.4"
	 style="enable-background:new 0 0 850.4 850.4;" xml:space="preserve">
<style type="text/css">
	.st0{fill:#F99DBB;stroke:#000000;stroke-width:4;stroke-miterlimit:10;}
</style>
<path class="st0" d="M606.7,555.8c-76.5,11.2-157.2,23.1-243.8,15.7c-26.8,37.5-36.7,85-87.1,72.5c-38.2-9.5-20.7-43.1-36.3-84.2
	c-6.4-16.8-33.1-26.4-51.3-42c-27.6-23.8-42.2-52.2-69.4-60c-29.9-8.6-60.8,2.6-90.3-5.8c-0.6-30.5-38.7-94-6.3-111.3
	c22.4-12,32.7,18.6,54.2,17.9c27-0.8,60.5-57.2,81.1-69.4c23.4-13.9,52.8-12.9,54.1-39.3c1.5-31-46.9-33.1-42.3-63.1
	c5-32.8,73.4-17.8,93.3-6.3c29.6,17.2,28.7,42,63.3,48c49.7,8.6,123.5-15.2,180.6-15.5c93.2-0.5,209.8,12.8,262,71.6
	c20,22.5,13.1,33,33.3,66.1c10,16.3,39.6,24.6,39.3,54.1c-0.3,25.7-26.2,25.1-39,45.2c-14.7,23.1-19.1,73.9-32.8,108.4
	c-14.4,36.2-30.4,75.5-57,84.4C645.8,665.1,642.2,603.8,606.7,555.8L606.7,555.8z M811,413.8l15,0c-2.5-8.5,4.2-7.8,3-15.1
	c-5.1-4.9-7.5-12.6-18.1-12L811,413.8z"/>
</svg>
