<?xml version="1.0" encoding="utf-8"?>
<!-- Generator: Adobe Illustrator 28.1.0, SVG Export Plug-In . SVG Version: 6.00 Build 0)  -->
<svg version="1.1" xmlns="http://www.w3.org/2000/svg" xmlns:xlink="http://www.w3.org/1999/xlink" x="0px" y="0px"
	 viewBox="0 0 850.4 850.4" style="enable-background:new 0 0 850.4 850.4;" xml:space="preserve">
<style type="text/css">
	
		.st0{fill-rule:evenodd;clip-rule:evenodd;fill:#83BBFF;fill-opacity:0.5;stroke:#000000;stroke-width:9.8881;stroke-miterlimit:10;}
	
		.st1{fill-rule:evenodd;clip-rule:evenodd;fill:#FF2C2C;fill-opacity:0.5;stroke:#000000;stroke-width:9.8881;stroke-miterlimit:10;}
	.st2{clip-path:url(#path1412_00000062166991967225047960000017548367541496430765_);}
	.st3{fill:#E5A87F;}
	.st4{fill:#FFFFFF;}
	.st5{clip-path:url(#path1412_00000118380355278671570020000005079207040431718537_);}
	.st6{clip-path:url(#path1412_00000052809788088448614480000018157949688118874021_);}
	.st7{fill-rule:evenodd;clip-rule:evenodd;fill:none;stroke:#000000;stroke-width:9.8881;stroke-miterlimit:10;}
</style>
<g id="Layer_2">
	<path id="path1412_00000083808364280369546720000018292267029885885101_" class="st0" d="M544.7,817.1l276.7-0.8V525.7l0.3-227.2
		l-0.3-278.5l-277.1,2c0,0-64.6,3.1-53.8,58.6c10.8,55.6,102.3,18.5,64.6,98.8c-25.9,31.1-74.4,45.6-117.7,47.1
		c-16,0.6-31-0.8-44.1-3.6c-0.6-0.1-1.2-0.2-1.8-0.3c-37.3-4.8-75.2-19.2-97.1-45.5c-37.7-80.3,53.7-43.2,64.5-98.8
		c10.6-54.7-51.2-58.4-53.1-58.5H26.2l0,0l0.4,276c0,0,3.1,64.6,58.6,53.8c45.2-8.7,29.1-70.8,64.6-73.6c8.2-0.6,19.1,1.9,34.2,9
		c31.1,25.9,45.6,74.4,47.1,117.7c0.6,16-0.8,31-3.6,44.1c-0.1,0.6-0.2,1.2-0.3,1.8c-4.8,37.4-19.3,75.2-45.5,97.1
		c-80.3,37.7-43.2-53.8-98.8-64.6c-40.5-7.8-53,24.1-56.9,42.2v293h289.2L544.7,817.1z"/>
</g>
<g id="Layer_3">
	<path id="path1412_00000130620025558324141440000009315556611732471222_" class="st1" d="M821.7,298.5l-0.3-278.5l-277.1,2
		c0,0-64.6,3.1-53.8,58.6c10.8,55.6,102.3,18.5,64.6,98.8c-25.9,31.1-74.4,45.6-117.7,47.1c-16,0.6-31-0.8-44.1-3.6
		c-0.6-0.1-1.2-0.2-1.8-0.3c-37.3-4.8-75.2-19.2-97.1-45.5c-37.7-80.3,53.7-43.2,64.5-98.8c10.6-54.7-51.2-58.4-53.1-58.5H26.2l0,0
		l0.4,276c0,0,3.1,64.6,58.6,53.8c45.2-8.7,29.1-70.8,64.6-73.6c8.2-0.6,19.1,1.9,34.2,9c31.1,25.9,45.6,74.4,47.1,117.7
		c0.6,16-0.8,31-3.6,44.1c-0.1,0.6-0.2,1.2-0.3,1.8c-4.8,37.4-19.3,75.2-45.5,97.1c-80.3,37.7-43.2-53.8-98.8-64.6
		c-40.5-7.8-53,24.1-56.9,42.2v293h289.2l229.3,0.8l276.7-0.8V525.7L821.7,298.5z"/>
</g>
<g id="Layer_4">
	<g>
		<defs>
			<path id="path1412_00000124851388232788747180000008392120627681987218_" d="M26.2,19.9l0.4,276c0,0,3.1,64.6,58.6,53.8
				c45.2-8.7,29.1-70.8,64.6-73.6c8.2-0.6,19.1,1.9,34.2,9c31.1,25.9,45.6,74.4,47.1,117.7c0.6,16-0.8,31-3.6,44.1
				c-0.1,0.6-0.2,1.2-0.3,1.8c-4.8,37.4-19.3,75.2-45.5,97.1c-80.3,37.7-43.2-53.8-98.8-64.6c-40.5-7.8-53,24.1-56.9,42.2v293h289.2
				c17.7,3.5,51.9,15.6,43.8,57.3c-10.8,55.6-102.1,18.5-64.5,98.8c21.8,26.2,59.7,40.7,97.1,45.5c0.6,0.1,1.2,0.2,1.8,0.3
				c13.2,2.8,28.2,4.2,44.1,3.6c43.3-1.6,91.8-16.1,117.7-47.1c37.7-80.3-53.8-43.2-64.6-98.8c-10.8-55.5,53.8-58.6,53.8-58.6
				l276.7-0.8V525.7c4-18.1,16.5-49.7,56.8-41.9c55.6,10.8,18.5,102.2,98.8,64.6c26.2-21.8,40.6-59.8,45.5-97.1
				c0.1-0.6,0.2-1.1,0.3-1.7c2.8-13.2,4.2-28.2,3.6-44.1c-1.6-43.3-16.1-91.8-47.1-117.7c-80.3-37.7-43.2,53.8-98.8,64.6
				c-55.5,10.8-58.6-53.8-58.6-53.8l-0.3-278.5l-277.1,2c0,0-64.6,3.1-53.8,58.6c10.8,55.6,102.3,18.5,64.6,98.8
				c-25.9,31.1-74.4,45.6-117.7,47.1c-16,0.6-31-0.8-44.1-3.6c-0.6-0.1-1.2-0.2-1.8-0.3c-37.3-4.8-75.2-19.2-97.1-45.5
				c-37.7-80.3,53.7-43.2,64.5-98.8c10.6-54.7-51.2-58.4-53.1-58.5L26.2,19.9L26.2,19.9z"/>
		</defs>
		<clipPath id="path1412_00000011730306264701933390000008567356933875393409_">
			<use xlink:href="#path1412_00000124851388232788747180000008392120627681987218_"  style="overflow:visible;"/>
		</clipPath>
		
			<g id="Layer_2_00000181053755657408051530000000593620159610222253_" style="clip-path:url(#path1412_00000011730306264701933390000008567356933875393409_);">
			<path class="st3" d="M-141.9,264.6c0,0-1.9,75.4,79.8,68.1c0,0,79.8,20.9,132.1-95.5c0,0,17.3,69.1,102.6-42.4
				c0,0,65.5,9.1,110.1-48.6c0,0,109.6-94.1-28.8-197.4c0,0-81.3-91-6.6-148.8c0,0,154.7-49.8,188.9-250.4c0,0,21-116.7-45.9-91.8
				c0,0-218.9,86.5-326.4,333.1l-43.3-19.2c0,0,17.2-89.6,102.3-250.9c0,0,34.9-91.8-14.7-103.7c0,0-63.4,39.3-177.1,212.5
				c0,0-43.6,122,0,165.3c0,0-81,38.1-150.4,194.1c0,0-50.1,74-23.6,175.8C-243,164.6-303.5,248.3-141.9,264.6z"/>
			<path class="st4" d="M-39.4,28.8c0,0-65.9,16.1-55-72.6c0,0-16.1-95.9,49.1-95.9c0,0,71.2-11,63.8,76
				C18.4-63.7,19.6,17.8-39.4,28.8z"/>
		</g>
		
			<g id="Layer_1_00000000204259782162587560000012808511627345653163_" style="clip-path:url(#path1412_00000011730306264701933390000008567356933875393409_);">
			<g id="layer1_00000120523952564167832840000005507079191946989998_">
				<path d="M-113.2,340.1c0-5.9-1.5-7.4-7.4-7.4c-5.9,0-7.4-1.5-7.4-7.4s-1.5-7.4-7.4-7.4c-6.8,0-7.4-0.9-7.4-14.7
					s-0.6-14.7-7.4-14.7c-5.9,0-7.4-1.5-7.4-7.4v-7.4h-29.5h-29.5v-7.4c0-6.8-0.9-7.4-14.7-7.4c-13.8,0-14.7-0.6-14.7-7.4
					c0-5.9-1.5-7.4-7.4-7.4c-6.8,0-7.4-0.9-7.4-14.7c0-13.8-0.6-14.7-7.4-14.7c-7,0-7.4-0.6-7.4-22.1s0.2-22.1,7.4-22.1
					c5.9,0,7.4-1.5,7.4-7.4s-1.5-7.4-7.4-7.4h-7.4v-44.2V67h7.4c7,0,7.4-0.6,7.4-22.1s0.2-22.1,7.4-22.1c6.8,0,7.4-0.9,7.4-14.7
					s0.6-14.7,7.4-14.7c7,0,7.4-0.6,7.4-22.1s0.2-22.1,7.4-22.1h7.4v-29.7v-29.5h7.4c6.8,0,7.4-0.9,7.4-14.7v-14.7h22.1
					c21.5,0,22.1-0.2,22.1-7.4c0-5.9,1.5-7.4,7.4-7.4s7.4-1.5,7.4-7.4c0-5.9,1.5-7.4,7.4-7.4s7.4-1.5,7.4-7.4s1.5-7.4,7.4-7.4
					c5.9,0,7.4-1.5,7.4-7.4s1.5-7.4,7.4-7.4h7.4v-29.5V-258h-7.4h-7.4v-29.5V-317h7.4c7,0,7.4-0.6,7.4-22.1s0.2-22.1,7.4-22.1
					c6.8,0,7.4-0.9,7.4-14.7s0.6-14.7,7.4-14.7c5.9,0,7.4-1.5,7.4-7.4c0-5.9,1.5-7.4,7.4-7.4c6.8,0,7.4-0.9,7.4-14.7
					S-53-435-46.2-435c5.9,0,7.4-1.5,7.4-7.4c0-5.9,1.5-7.4,7.4-7.4s7.4-1.5,7.4-7.4c0-5.9,1.5-7.4,7.4-7.4s7.4-1.5,7.4-7.4
					c0-5.9,1.5-7.4,7.4-7.4c6.8,0,7.4-0.9,7.4-14.7s0.6-14.7,7.4-14.7c5.9,0,7.4-1.5,7.4-7.4s1.5-7.4,7.4-7.4s7.4-1.5,7.4-7.4
					s1.5-7.4,7.4-7.4s7.4-1.5,7.4-7.4c0-5.9,1.5-7.4,7.4-7.4s7.4-1.5,7.4-7.4s1.5-7.4,7.4-7.4c6.8,0,7.4-0.9,7.4-14.7v-14.3h14.7
					c13.8,0,14.7-0.6,14.7-7.4c0-5.9,1.5-7.4,7.4-7.4c5.9,0,7.4,1.5,7.4,7.4s1.5,7.4,7.4,7.4c5.9,0,7.4,1.5,7.4,7.4
					c0,5.9,1.5,7.4,7.4,7.4h7.4v44.2v44.2h-7.4c-7,0-7.4,0.6-7.4,22.1c0,21.5-0.2,22.1-7.4,22.1c-6.8,0-7.4,0.9-7.4,14.7
					c0,13.8-0.6,14.7-7.4,14.7c-6.8,0-7.4,0.9-7.4,14.7c0,13.8-0.6,14.7-7.4,14.7s-7.4,0.9-7.4,14.7s-0.6,14.7-7.4,14.7
					c-6.8,0-7.4,0.9-7.4,14.7c0,13.8-0.6,14.7-7.4,14.7h-7.4v29.5v29.5h7.4c6.8,0,7.4-0.9,7.4-14.7c0-13.8,0.6-14.7,7.4-14.7
					c5.9,0,7.4-1.5,7.4-7.4s1.5-7.4,7.4-7.4c6.8,0,7.4-0.9,7.4-14.7c0-13.8,0.6-14.7,7.4-14.7c5.9,0,7.4-1.5,7.4-7.4
					c0-5.9,1.5-7.4,7.4-7.4c5.9,0,7.4-1.5,7.4-7.4s1.5-7.4,7.4-7.4s7.4-1.5,7.4-7.4c0-5.9,1.5-7.4,7.4-7.4s7.4-1.5,7.4-7.4
					c0-5.9,1.5-7.4,7.4-7.4s7.4-1.5,7.4-7.4c0-5.9,1.5-7.4,7.4-7.4s7.4-1.5,7.4-7.4c0-5.9,1.5-7.4,7.4-7.4c5.9,0,7.4-1.5,7.4-7.4
					s1.5-7.4,7.4-7.4s7.4-1.5,7.4-7.4c0-5.9,1.5-7.4,7.4-7.4c5.9,0,7.4-1.5,7.4-7.4c0-5.9,1.5-7.4,7.4-7.4c5.9,0,7.4-1.5,7.4-7.4
					c0-5.9,1.5-7.4,7.4-7.4s7.4-1.5,7.4-7.4c0-6.8,0.9-7.4,14.7-7.4s14.7-0.6,14.7-7.4c0-5.9,1.5-7.4,7.4-7.4s7.4-1.5,7.4-7.4
					c0-7,0.6-7.4,22.1-7.4c21.5,0,22.1-0.2,22.1-7.4c0-6.8,0.9-7.4,14.7-7.4s14.7-0.6,14.7-7.4c0-7,0.6-7.4,22.1-7.4
					s22.1,0.2,22.1,7.4c0,5.9,1.5,7.4,7.4,7.4s7.4,1.5,7.4,7.4c0,5.9,1.5,7.4,7.4,7.4h7.4v51.7v51.7h-7.4c-7,0-7.4,0.6-7.4,22.1
					c0,21.5-0.2,22.1-7.4,22.1c-7,0-7.4,0.6-7.4,22.1c0,21.5-0.2,22.1-7.4,22.1c-6.8,0-7.4,0.9-7.4,14.7s-0.6,14.7-7.4,14.7
					c-5.9,0-7.4,1.5-7.4,7.4s-1.5,7.4-7.4,7.4s-7.4,1.5-7.4,7.4s-1.5,7.4-7.4,7.4c-5.9,0-7.4,1.5-7.4,7.4s-1.5,7.4-7.4,7.4
					s-7.4,1.5-7.4,7.4c0,5.9-1.5,7.4-7.4,7.4s-7.4,1.5-7.4,7.4s-1.5,7.4-7.4,7.4s-7.4,1.5-7.4,7.4c0,5.9-1.5,7.4-7.4,7.4
					s-7.4,1.5-7.4,7.4s-1.5,7.4-7.4,7.4s-7.4,1.5-7.4,7.4c0,6.8-0.9,7.4-14.7,7.4s-14.7,0.6-14.7,7.4s-0.9,7.4-14.7,7.4H241v22.1
					c0,21.5-0.2,22.1-7.4,22.1c-5.9,0-7.4,1.5-7.4,7.4c0,5.9,1.5,7.4,7.4,7.4c6.8,0,7.4,0.9,7.4,14.7s0.6,14.7,7.4,14.7
					s7.4,0.9,7.4,14.7v14.7h14.7c13.8,0,14.7,0.6,14.7,7.4c0,5.9,1.5,7.4,7.4,7.4s7.4,1.5,7.4,7.4s1.5,7.4,7.4,7.4
					c6.8,0,7.4,0.9,7.4,14.7s0.6,14.7,7.4,14.7c6.8,0,7.4,0.9,7.4,14.7s0.6,14.7,7.4,14.7h7.4V66v44.2h-7.4c-6.8,0-7.4,0.9-7.4,14.7
					s-0.6,14.7-7.4,14.7c-5.9,0-7.4,1.5-7.4,7.4s-1.5,7.4-7.4,7.4s-7.4,1.5-7.4,7.4s-1.5,7.4-7.4,7.4s-7.4,1.5-7.4,7.4
					c0,6.8-0.9,7.4-14.7,7.4s-14.7,0.6-14.7,7.4s-0.9,7.4-14.7,7.4s-14.7,0.6-14.7,7.4s-0.9,7.4-14.7,7.4c-13.8,0-14.7,0.6-14.7,7.4
					c0,7-0.6,7.4-22.1,7.4s-22.1,0.2-22.1,7.4c0,5.9-1.5,7.4-7.4,7.4s-7.4,1.5-7.4,7.4s-1.5,7.4-7.4,7.4s-7.4,1.5-7.4,7.4v7.4H93.5
					H64v7.4c0,5.9-1.5,7.4-7.4,7.4s-7.4,1.5-7.4,7.4s-1.5,7.4-7.4,7.4s-7.4,1.5-7.4,7.4s-1.5,7.4-7.4,7.4s-7.4,1.5-7.4,7.4
					c0,6.8-0.9,7.4-14.7,7.4s-14.7,0.6-14.7,7.4v7.4h-51.7h-51.7L-113.2,340.1L-113.2,340.1z M-9.9,310.6c0-5.9,1.5-7.4,7.4-7.4
					s7.4-1.5,7.4-7.4s1.5-7.4,7.4-7.4s7.4-1.5,7.4-7.4s1.5-7.4,7.4-7.4c6.8,0,7.4-0.9,7.4-14.7c0-13.8,0.6-14.7,7.4-14.7
					s7.4-0.9,7.4-14.7s0.6-14.7,7.4-14.7c5.9,0,7.4-1.5,7.4-7.4c0-6.8,0.9-7.4,14.7-7.4h14.7V222c0,21.5,0.2,22.1,7.4,22.1
					c5.9,0,7.4-1.5,7.4-7.4s1.5-7.4,7.4-7.4c5.9,0,7.4-1.5,7.4-7.4s1.5-7.4,7.4-7.4s7.4-1.5,7.4-7.4s1.5-7.4,7.4-7.4
					c7,0,7.4-0.6,7.4-22.1v-22.1h14.7c13.8,0,14.7,0.6,14.7,7.4v7.4H212h29v-7.4c0-5.9,1.5-7.4,7.4-7.4s7.4-1.5,7.4-7.4
					c0-5.9,1.5-7.4,7.4-7.4s7.4-1.5,7.4-7.4c0-5.9,1.5-7.4,7.4-7.4s7.4-1.5,7.4-7.4s1.5-7.4,7.4-7.4h7.4V59.2V7.5h-7.4
					c-5.9,0-7.4-1.5-7.4-7.4s-1.5-7.4-7.4-7.4s-7.4-1.5-7.4-7.4s-1.5-7.4-7.4-7.4s-7.4-1.5-7.4-7.4c0-6.8-0.9-7.4-14.7-7.4h-14.7
					v-14.7c0-13.8-0.6-14.7-7.4-14.7c-7,0-7.4-0.6-7.4-22.1s-0.2-22.1-7.4-22.1c-6.8,0-7.4-0.9-7.4-14.7s-0.6-14.7-7.4-14.7
					c-5.9,0-7.4-1.5-7.4-7.4s1.5-7.4,7.4-7.4c6.8,0,7.4-0.9,7.4-14.7s0.6-14.7,7.4-14.7c5.9,0,7.4-1.5,7.4-7.4s1.5-7.4,7.4-7.4
					c5.9,0,7.4-1.5,7.4-7.4c0-6.8,0.9-7.4,14.7-7.4s14.7-0.6,14.7-7.4c0-6.8,0.9-7.4,14.7-7.4s14.7-0.6,14.7-7.4s0.9-7.4,14.7-7.4
					s14.7-0.6,14.7-7.4c0-5.9,1.5-7.4,7.4-7.4s7.4-1.5,7.4-7.4s1.5-7.4,7.4-7.4s7.4-1.5,7.4-7.4s1.5-7.4,7.4-7.4s7.4-1.5,7.4-7.4
					s1.5-7.4,7.4-7.4c6.8,0,7.4-0.9,7.4-14.7c0-13.8,0.6-14.7,7.4-14.7s7.4-0.9,7.4-14.7c0-13.8,0.6-14.7,7.4-14.7
					c7,0,7.4-0.6,7.4-22.1s0.2-22.1,7.4-22.1h7.4v-59.1v-59.1h-22.1c-21.5,0-22.1,0.2-22.1,7.4c0,5.9-1.5,7.4-7.4,7.4
					s-7.4,1.5-7.4,7.4c0,6.8-0.9,7.4-14.7,7.4s-14.7,0.6-14.7,7.4c0,6.8-0.9,7.4-14.7,7.4s-14.7,0.6-14.7,7.4c0,5.9-1.5,7.4-7.4,7.4
					s-7.4,1.5-7.4,7.4c0,5.9-1.5,7.4-7.4,7.4s-7.4,1.5-7.4,7.4c0,6.8-0.9,7.4-14.7,7.4s-14.7,0.6-14.7,7.4c0,5.9-1.5,7.4-7.4,7.4
					c-5.9,0-7.4,1.5-7.4,7.4c0,5.9-1.5,7.4-7.4,7.4s-7.4,1.5-7.4,7.4c0,5.9-1.5,7.4-7.4,7.4s-7.4,1.5-7.4,7.4c0,5.9-1.5,7.4-7.4,7.4
					c-6.8,0-7.4,0.9-7.4,14.7c0,13.8-0.6,14.7-7.4,14.7c-5.9,0-7.4,1.5-7.4,7.4s-1.5,7.4-7.4,7.4s-7.4,1.5-7.4,7.4
					c0,5.9-1.5,7.4-7.4,7.4c-6.8,0-7.4,0.9-7.4,14.7s-0.6,14.7-7.4,14.7s-7.4,0.9-7.4,14.7c0,13.8-0.6,14.7-7.4,14.7
					c-7,0-7.4,0.6-7.4,22.1s-0.2,22.1-7.4,22.1c-6.8,0-7.4,0.9-7.4,14.7c0,13.8-0.6,14.7-7.4,14.7c-5.9,0-7.4,1.5-7.4,7.4
					s-1.5,7.4-7.4,7.4s-7.4,1.5-7.4,7.4s-1.5,7.4-7.4,7.4s-7.4-1.5-7.4-7.4s-1.5-7.4-7.4-7.4c-6.8,0-7.4-0.9-7.4-14.7v-14.7H-2.5
					h-37v7.4c0,6.8-0.9,7.4-14.7,7.4s-14.7,0.6-14.7,7.4c0,5.9-1.5,7.4-7.4,7.4s-7.4,1.5-7.4,7.4c0,6.8-0.9,7.4-14.7,7.4
					s-14.7,0.6-14.7,7.4c0,5.9-1.5,7.4-7.4,7.4s-7.4,1.5-7.4,7.4s-1.5,7.4-7.4,7.4c-6.8,0-7.4,0.9-7.4,14.7s-0.6,14.7-7.4,14.7
					c-5.9,0-7.4,1.5-7.4,7.4s-1.5,7.4-7.4,7.4c-6.8,0-7.4,0.9-7.4,14.7s-0.6,14.7-7.4,14.7s-7.4,0.9-7.4,14.7
					c0,13.8-0.6,14.7-7.4,14.7s-7.4,0.9-7.4,14.7s-0.6,14.7-7.4,14.7c-7,0-7.4,0.6-7.4,22.1s-0.2,22.1-7.4,22.1h-7.4v44.2v44.2h22.1
					c21.5,0,22.1-0.2,22.1-7.4c0-5.9,1.5-7.4,7.4-7.4c5.9,0,7.4-1.5,7.4-7.4c0-7,0.6-7.4,22.1-7.4s22.1,0.2,22.1,7.4
					c0,5.9-1.5,7.4-7.4,7.4c-6.8,0-7.4,0.9-7.4,14.7s-0.6,14.7-7.4,14.7s-7.4,0.9-7.4,14.7s0.6,14.7,7.4,14.7s7.4,0.9,7.4,14.7v14.7
					h59.1h59.5v-14.7c0-13.8,0.6-14.7,7.4-14.7s7.4-0.9,7.4-14.7s-0.6-14.7-7.4-14.7c-5.9,0-7.4-1.5-7.4-7.4c0-6.8-0.9-7.4-14.7-7.4
					h-14.7v-14.7c0-13.8,0.6-14.7,7.4-14.7c5.9,0,7.4,1.5,7.4,7.4v7.4h29.4h29.5v-7.4c0-6.8,0.9-7.4,14.7-7.4h14.7V96.1
					c0-13.8,0.6-14.7,7.4-14.7h7.4V111v29.5H49.2c-13.8,0-14.7,0.6-14.7,7.4s-0.9,7.4-14.7,7.4H5.1v29.8v29.5h-7.4
					c-6.8,0-7.4,0.9-7.4,14.7c0,13.8-0.6,14.7-7.4,14.7c-5.9,0-7.4,1.5-7.4,7.4s-1.5,7.4-7.4,7.4c-6.8,0-7.4,0.9-7.4,14.7
					s-0.6,14.7-7.4,14.7c-5.9,0-7.4,1.5-7.4,7.4c0,7-0.6,7.4-22.1,7.4s-22.1-0.2-22.1-7.4c0-5.9-1.5-7.4-7.4-7.4s-7.4-1.5-7.4-7.4
					s-1.5-7.4-7.4-7.4c-6.8,0-7.4,0.9-7.4,14.7s0.6,14.7,7.4,14.7c5.9,0,7.4,1.5,7.4,7.4v7.4h51.7h51.8V310.6z M-187,207.3v-22.1
					h-22.1h-22.1v14.7c0,13.8,0.6,14.7,7.4,14.7c5.9,0,7.4,1.5,7.4,7.4c0,6.8,0.9,7.4,14.7,7.4h14.7V207.3z M-39.4-235.6
					c0-7,0.6-7.4,22.1-7.4s22.1-0.2,22.1-7.4c0-5.9,1.5-7.4,7.4-7.4c7,0,7.4-0.6,7.4-22.1c0-21.5,0.2-22.1,7.4-22.1
					c7,0,7.4-0.6,7.4-22.1c0-21.5,0.2-22.1,7.4-22.1c6.8,0,7.4-0.9,7.4-14.7s0.6-14.7,7.4-14.7s7.4-0.9,7.4-14.7
					c0-13.8,0.6-14.7,7.4-14.7S79-406,79-419.9s0.6-14.7,7.4-14.7c6.8,0,7.4-0.9,7.4-14.7s0.6-14.7,7.4-14.7s7.4-0.9,7.4-14.7
					c0-13.8,0.6-14.7,7.4-14.7h7.4v-37v-37.3h-14.7c-13.8,0-14.7,0.6-14.7,7.4c0,5.9-1.5,7.4-7.4,7.4c-5.9,0-7.4,1.5-7.4,7.4
					s-1.5,7.4-7.4,7.4c-6.8,0-7.4,0.9-7.4,14.7s-0.6,14.7-7.4,14.7c-5.9,0-7.4,1.5-7.4,7.4c0,5.9-1.5,7.4-7.4,7.4
					c-6.8,0-7.4,0.9-7.4,14.7c0,13.8-0.6,14.7-7.4,14.7c-5.9,0-7.4,1.5-7.4,7.4c0,5.9-1.5,7.4-7.4,7.4s-7.4,1.5-7.4,7.4
					c0,5.9-1.5,7.4-7.4,7.4c-6.8,0-7.4,0.9-7.4,14.7c0,13.8-0.6,14.7-7.4,14.7c-5.9,0-7.4,1.5-7.4,7.4c0,5.9-1.5,7.4-7.4,7.4
					s-7.4,1.5-7.4,7.4c0,5.9-1.5,7.4-7.4,7.4c-7,0-7.4,0.6-7.4,22.1s-0.2,22.1-7.4,22.1h-7.4v37v37h7.4c6.8,0,7.4,0.9,7.4,14.7
					c0,13.8,0.6,14.7,7.4,14.7C-40.9-228.2-39.4-229.7-39.4-235.6z M63.9-265.1c0-5.9-1.5-7.4-7.4-7.4s-7.4,1.5-7.4,7.4
					s1.5,7.4,7.4,7.4S63.9-259.2,63.9-265.1z"/>
				<path d="M-98.5,30.1v-37h-7.4h-7.4v-51.7v-51.7h7.4c5.9,0,7.4-1.5,7.4-7.4s1.5-7.4,7.4-7.4c5.9,0,7.4-1.5,7.4-7.4
					s1.5-7.4,7.4-7.4s7.4-1.5,7.4-7.4v-7.4h29.5h29.4v7.4c0,6.8,0.9,7.4,14.7,7.4h14.7v14.7c0,13.8,0.6,14.7,7.4,14.7h7.4v59.1V7.8
					h7.4c6.8,0,7.4,0.9,7.4,14.7v14.7H-2.5h-51.7v7.4c0,6.8-0.9,7.4-14.7,7.4s-14.7,0.6-14.7,7.4c0,5.9-1.5,7.4-7.4,7.4h-7.4V30.1
					H-98.5z M-54.2-6.8v-29.5h7.4c5.9,0,7.4-1.5,7.4-7.4s1.5-7.4,7.4-7.4s7.4,1.5,7.4,7.4s1.5,7.4,7.4,7.4s7.4-1.5,7.4-7.4
					s-1.5-7.4-7.4-7.4s-7.4-1.5-7.4-7.4c0-6.8,0.9-7.4,14.7-7.4H4.9v-22c0-21.5-0.2-22.1-7.4-22.1c-5.9,0-7.4-1.5-7.4-7.4v-7.4
					h-29.5H-69v14.7c0,13.8-0.6,14.7-7.4,14.7h-7.4v51.7V7.8h7.4c5.9,0,7.4,1.5,7.4,7.4s1.5,7.4,7.4,7.4h7.4V-6.8z"/>
				<path d="M123-147c0-5.9-1.5-7.4-7.4-7.4c-6.8,0-7.4-0.9-7.4-14.7s0.6-14.7,7.4-14.7c7,0,7.4-0.6,7.4-22.1s0.2-22.1,7.4-22.1
					c6.8,0,7.4-0.9,7.4-14.7c0-13.8,0.6-14.7,7.4-14.7s7.4-0.9,7.4-14.7c0-13.8,0.6-14.7,7.4-14.7s7.4-0.9,7.4-14.7
					c0-13.8,0.6-14.7,7.4-14.7c5.9,0,7.4-1.5,7.4-7.4s1.5-7.4,7.4-7.4c6.8,0,7.4-0.9,7.4-14.7c0-13.8,0.6-14.7,7.4-14.7
					c5.9,0,7.4-1.5,7.4-7.4c0-5.9,1.5-7.4,7.4-7.4c5.9,0,7.4-1.5,7.4-7.4c0-5.9,1.5-7.4,7.4-7.4s7.4-1.5,7.4-7.4
					c0-5.9,1.5-7.4,7.4-7.4s7.4-1.5,7.4-7.4c0-5.9,1.5-7.4,7.4-7.4s7.4-1.5,7.4-7.4c0-6.8,0.9-7.4,14.7-7.4s14.7-0.6,14.7-7.4
					c0-5.9,1.5-7.4,7.4-7.4s7.4-1.5,7.4-7.4c0-5.9,1.5-7.4,7.4-7.4s7.4-1.5,7.4-7.4c0-7,0.6-7.4,22.1-7.4s22.1,0.2,22.1,7.4
					c0,6.8-0.9,7.4-14.7,7.4s-14.7,0.6-14.7,7.4c0,5.9-1.5,7.4-7.4,7.4s-7.4,1.5-7.4,7.4c0,5.9-1.5,7.4-7.4,7.4s-7.4,1.5-7.4,7.4
					c0,5.9-1.5,7.4-7.4,7.4s-7.4,1.5-7.4,7.4c0,5.9-1.5,7.4-7.4,7.4s-7.4,1.5-7.4,7.4c0,5.9-1.5,7.4-7.4,7.4s-7.4,1.5-7.4,7.4
					c0,5.9-1.5,7.4-7.4,7.4s-7.4,1.5-7.4,7.4c0,5.9-1.5,7.4-7.4,7.4s-7.4,1.5-7.4,7.4c0,5.9-1.5,7.4-7.4,7.4
					c-6.8,0-7.4,0.9-7.4,14.7s-0.6,14.7-7.4,14.7c-5.9,0-7.4,1.5-7.4,7.4s-1.5,7.4-7.4,7.4c-7,0-7.4,0.6-7.4,22.1
					c0,21.5-0.2,22.1-7.4,22.1c-5.9,0-7.4,1.5-7.4,7.4s1.5,7.4,7.4,7.4s7.4,1.5,7.4,7.4s-1.5,7.4-7.4,7.4s-7.4,1.5-7.4,7.4
					s-1.5,7.4-7.4,7.4h-7.4v37v37h-22.1C123.6-139.7,123-139.9,123-147z"/>
			</g>
		</g>
	</g>
</g>
<g id="Layer_6">
	<g>
		<defs>
			<path id="path1412_00000156589754941263383900000014856927102239449995_" d="M26.2,19.9l0.4,276c0,0,3.1,64.6,58.6,53.8
				c45.2-8.7,29.1-70.8,64.6-73.6c8.2-0.6,19.1,1.9,34.2,9c31.1,25.9,45.6,74.4,47.1,117.7c0.6,16-0.8,31-3.6,44.1
				c-0.1,0.6-0.2,1.2-0.3,1.8c-4.8,37.4-19.3,75.2-45.5,97.1c-80.3,37.7-43.2-53.8-98.8-64.6c-40.5-7.8-53,24.1-56.9,42.2v293h289.2
				c17.7,3.5,51.9,15.6,43.8,57.3c-10.8,55.6-102.1,18.5-64.5,98.8c21.8,26.2,59.7,40.7,97.1,45.5c0.6,0.1,1.2,0.2,1.8,0.3
				c13.2,2.8,28.2,4.2,44.1,3.6c43.3-1.6,91.8-16.1,117.7-47.1c37.7-80.3-53.8-43.2-64.6-98.8c-10.8-55.5,53.8-58.6,53.8-58.6
				l276.7-0.8V525.7c4-18.1,16.5-49.7,56.8-41.9c55.6,10.8,18.5,102.2,98.8,64.6c26.2-21.8,40.6-59.8,45.5-97.1
				c0.1-0.6,0.2-1.1,0.3-1.7c2.8-13.2,4.2-28.2,3.6-44.1c-1.6-43.3-16.1-91.8-47.1-117.7c-80.3-37.7-43.2,53.8-98.8,64.6
				c-55.5,10.8-58.6-53.8-58.6-53.8l-0.3-278.5l-277.1,2c0,0-64.6,3.1-53.8,58.6c10.8,55.6,102.3,18.5,64.6,98.8
				c-25.9,31.1-74.4,45.6-117.7,47.1c-16,0.6-31-0.8-44.1-3.6c-0.6-0.1-1.2-0.2-1.8-0.3c-37.3-4.8-75.2-19.2-97.1-45.5
				c-37.7-80.3,53.7-43.2,64.5-98.8c10.6-54.7-51.2-58.4-53.1-58.5L26.2,19.9L26.2,19.9z"/>
		</defs>
		<clipPath id="path1412_00000116216639003940963580000000597847786502337410_">
			<use xlink:href="#path1412_00000156589754941263383900000014856927102239449995_"  style="overflow:visible;"/>
		</clipPath>
		
			<g id="Layer_2_00000168111122816653144320000011943148874549195150_" style="clip-path:url(#path1412_00000116216639003940963580000000597847786502337410_);">
			<path class="st3" d="M-475.7,1386.2c0,0-1.9,75.4,79.8,68.1c0,0,79.8,20.9,132.1-95.5c0,0,17.3,69.1,102.6-42.4
				c0,0,65.5,9.1,110.1-48.6c0,0,109.6-94.1-28.8-197.4c0,0-81.3-91-6.6-148.8c0,0,154.7-49.8,188.9-250.4c0,0,21-116.7-45.9-91.8
				c0,0-218.9,86.5-326.4,333.1l-43.3-19.2c0,0,17.2-89.6,102.3-250.9c0,0,34.9-91.8-14.7-103.7c0,0-63.4,39.3-177.1,212.5
				c0,0-43.6,122,0,165.3c0,0-81,38.1-150.4,194.1c0,0-50.1,74-23.6,175.8C-576.8,1286.3-637.2,1369.9-475.7,1386.2z"/>
			<path class="st4" d="M-373.2,1150.4c0,0-65.9,16.1-55-72.6c0,0-16.1-95.9,49.1-95.9c0,0,71.2-11,63.8,76
				C-315.4,1058-314.1,1139.4-373.2,1150.4z"/>
		</g>
		
			<g id="Layer_1_00000147195705054378100250000007342381121196604058_" style="clip-path:url(#path1412_00000116216639003940963580000000597847786502337410_);">
			<g id="layer1_00000075863325665591179200000013506182713162944137_">
				<path d="M-447,1461.8c0-5.9-1.5-7.4-7.4-7.4c-5.9,0-7.4-1.5-7.4-7.4c0-5.9-1.5-7.4-7.4-7.4c-6.8,0-7.4-0.9-7.4-14.7
					c0-13.8-0.6-14.7-7.4-14.7c-5.9,0-7.4-1.5-7.4-7.4v-7.4H-521h-29.5v-7.4c0-6.8-0.9-7.4-14.7-7.4c-13.8,0-14.7-0.6-14.7-7.4
					c0-5.9-1.5-7.4-7.4-7.4c-6.8,0-7.4-0.9-7.4-14.7c0-13.8-0.6-14.7-7.4-14.7c-7,0-7.4-0.6-7.4-22.1s0.2-22.1,7.4-22.1
					c5.9,0,7.4-1.5,7.4-7.4s-1.5-7.4-7.4-7.4h-7.4v-44.2v-44.2h7.4c7,0,7.4-0.6,7.4-22.1s0.2-22.1,7.4-22.1c6.8,0,7.4-0.9,7.4-14.7
					c0-13.8,0.6-14.7,7.4-14.7c7,0,7.4-0.6,7.4-22.1c0-21.5,0.2-22.1,7.4-22.1h7.4V1041v-29.5h7.4c6.8,0,7.4-0.9,7.4-14.7v-14.7
					h22.1c21.5,0,22.1-0.2,22.1-7.4c0-5.9,1.5-7.4,7.4-7.4c5.9,0,7.4-1.5,7.4-7.4c0-5.9,1.5-7.4,7.4-7.4c5.9,0,7.4-1.5,7.4-7.4
					c0-5.9,1.5-7.4,7.4-7.4c5.9,0,7.4-1.5,7.4-7.4c0-5.9,1.5-7.4,7.4-7.4h7.4v-29.5v-29.5h-7.4h-7.4v-29.5v-29.5h7.4
					c7,0,7.4-0.6,7.4-22.1c0-21.5,0.2-22.1,7.4-22.1c6.8,0,7.4-0.9,7.4-14.7c0-13.8,0.6-14.7,7.4-14.7c5.9,0,7.4-1.5,7.4-7.4
					c0-5.9,1.5-7.4,7.4-7.4c6.8,0,7.4-0.9,7.4-14.7c0-13.8,0.6-14.7,7.4-14.7c5.9,0,7.4-1.5,7.4-7.4s1.5-7.4,7.4-7.4
					s7.4-1.5,7.4-7.4s1.5-7.4,7.4-7.4s7.4-1.5,7.4-7.4c0-5.9,1.5-7.4,7.4-7.4c6.8,0,7.4-0.9,7.4-14.7c0-13.8,0.6-14.7,7.4-14.7
					c5.9,0,7.4-1.5,7.4-7.4s1.5-7.4,7.4-7.4s7.4-1.5,7.4-7.4c0-5.9,1.5-7.4,7.4-7.4s7.4-1.5,7.4-7.4s1.5-7.4,7.4-7.4
					s7.4-1.5,7.4-7.4s1.5-7.4,7.4-7.4c6.8,0,7.4-0.9,7.4-14.7v-14.3h14.7c13.8,0,14.7-0.6,14.7-7.4c0-5.9,1.5-7.4,7.4-7.4
					s7.4,1.5,7.4,7.4c0,5.9,1.5,7.4,7.4,7.4s7.4,1.5,7.4,7.4s1.5,7.4,7.4,7.4h7.4v44.2v44.2h-7.4c-7,0-7.4,0.6-7.4,22.1
					s-0.2,22.1-7.4,22.1c-6.8,0-7.4,0.9-7.4,14.7c0,13.8-0.6,14.7-7.4,14.7s-7.4,0.9-7.4,14.7s-0.6,14.7-7.4,14.7s-7.4,0.9-7.4,14.7
					c0,13.8-0.6,14.7-7.4,14.7s-7.4,0.9-7.4,14.7c0,13.8-0.6,14.7-7.4,14.7h-7.4v29.5v29.5h7.4c6.8,0,7.4-0.9,7.4-14.7
					c0-13.8,0.6-14.7,7.4-14.7c5.9,0,7.4-1.5,7.4-7.4c0-5.9,1.5-7.4,7.4-7.4c6.8,0,7.4-0.9,7.4-14.7c0-13.8,0.6-14.7,7.4-14.7
					c5.9,0,7.4-1.5,7.4-7.4s1.5-7.4,7.4-7.4s7.4-1.5,7.4-7.4c0-5.9,1.5-7.4,7.4-7.4s7.4-1.5,7.4-7.4c0-5.9,1.5-7.4,7.4-7.4
					c5.9,0,7.4-1.5,7.4-7.4s1.5-7.4,7.4-7.4s7.4-1.5,7.4-7.4s1.5-7.4,7.4-7.4s7.4-1.5,7.4-7.4c0-5.9,1.5-7.4,7.4-7.4
					c5.9,0,7.4-1.5,7.4-7.4s1.5-7.4,7.4-7.4s7.4-1.5,7.4-7.4s1.5-7.4,7.4-7.4s7.4-1.5,7.4-7.4c0-5.9,1.5-7.4,7.4-7.4
					c5.9,0,7.4-1.5,7.4-7.4s1.5-7.4,7.4-7.4s7.4-1.5,7.4-7.4c0-6.8,0.9-7.4,14.7-7.4s14.7-0.6,14.7-7.4c0-5.9,1.5-7.4,7.4-7.4
					s7.4-1.5,7.4-7.4c0-7,0.6-7.4,22.1-7.4s22.1-0.2,22.1-7.4c0-6.8,0.9-7.4,14.7-7.4s14.7-0.6,14.7-7.4c0-7,0.6-7.4,22.1-7.4
					s22.1,0.2,22.1,7.4c0,5.9,1.5,7.4,7.4,7.4s7.4,1.5,7.4,7.4s1.5,7.4,7.4,7.4h7.4v51.7v51.7h-7.4c-7,0-7.4,0.6-7.4,22.1
					c0,21.5-0.2,22.1-7.4,22.1c-7,0-7.4,0.6-7.4,22.1s-0.2,22.1-7.4,22.1c-6.8,0-7.4,0.9-7.4,14.7c0,13.8-0.6,14.7-7.4,14.7
					c-5.9,0-7.4,1.5-7.4,7.4c0,5.9-1.5,7.4-7.4,7.4c-5.9,0-7.4,1.5-7.4,7.4c0,5.9-1.5,7.4-7.4,7.4s-7.4,1.5-7.4,7.4
					c0,5.9-1.5,7.4-7.4,7.4s-7.4,1.5-7.4,7.4c0,5.9-1.5,7.4-7.4,7.4s-7.4,1.5-7.4,7.4c0,5.9-1.5,7.4-7.4,7.4S-3,879.1-3,885
					c0,5.9-1.5,7.4-7.4,7.4s-7.4,1.5-7.4,7.4c0,5.9-1.5,7.4-7.4,7.4s-7.4,1.5-7.4,7.4c0,6.8-0.9,7.4-14.7,7.4s-14.7,0.6-14.7,7.4
					S-63,937-76.8,937h-15.9v22.1c0,21.5-0.2,22.1-7.4,22.1c-5.9,0-7.4,1.5-7.4,7.4c0,5.9,1.5,7.4,7.4,7.4c6.8,0,7.4,0.9,7.4,14.7
					c0,13.8,0.6,14.7,7.4,14.7s7.4,0.9,7.4,14.7v14.7h14.7c13.8,0,14.7,0.6,14.7,7.4c0,5.9,1.5,7.4,7.4,7.4s7.4,1.5,7.4,7.4
					s1.5,7.4,7.4,7.4c6.8,0,7.4,0.9,7.4,14.7c0,13.8,0.6,14.7,7.4,14.7s7.4,0.9,7.4,14.7c0,13.8,0.6,14.7,7.4,14.7h7.4v44.2v44.2
					H3.4c-6.8,0-7.4,0.9-7.4,14.7c0,13.8-0.6,14.7-7.4,14.7c-5.9,0-7.4,1.5-7.4,7.4c0,5.9-1.5,7.4-7.4,7.4s-7.4,1.5-7.4,7.4
					s-1.5,7.4-7.4,7.4s-7.4,1.5-7.4,7.4c0,6.8-0.9,7.4-14.7,7.4s-14.7,0.6-14.7,7.4c0,6.8-0.9,7.4-14.7,7.4s-14.7,0.6-14.7,7.4
					c0,6.8-0.9,7.4-14.7,7.4s-14.7,0.6-14.7,7.4c0,7-0.6,7.4-22.1,7.4s-22.1,0.2-22.1,7.4c0,5.9-1.5,7.4-7.4,7.4s-7.4,1.5-7.4,7.4
					s-1.5,7.4-7.4,7.4s-7.4,1.5-7.4,7.4v7.4h-29.5h-29.5v7.4c0,5.9-1.5,7.4-7.4,7.4s-7.4,1.5-7.4,7.4s-1.5,7.4-7.4,7.4
					s-7.4,1.5-7.4,7.4c0,5.9-1.5,7.4-7.4,7.4s-7.4,1.5-7.4,7.4c0,6.8-0.9,7.4-14.7,7.4c-13.8,0-14.7,0.6-14.7,7.4v7.4h-51.7H-447
					L-447,1461.8L-447,1461.8z M-343.7,1432.2c0-5.9,1.5-7.4,7.4-7.4s7.4-1.5,7.4-7.4c0-5.9,1.5-7.4,7.4-7.4s7.4-1.5,7.4-7.4
					c0-5.9,1.5-7.4,7.4-7.4c6.8,0,7.4-0.9,7.4-14.7c0-13.8,0.6-14.7,7.4-14.7s7.4-0.9,7.4-14.7c0-13.8,0.6-14.7,7.4-14.7
					c5.9,0,7.4-1.5,7.4-7.4c0-6.8,0.9-7.4,14.7-7.4h14.7v22.1c0,21.5,0.2,22.1,7.4,22.1c5.9,0,7.4-1.5,7.4-7.4s1.5-7.4,7.4-7.4
					c5.9,0,7.4-1.5,7.4-7.4c0-5.9,1.5-7.4,7.4-7.4s7.4-1.5,7.4-7.4s1.5-7.4,7.4-7.4c7,0,7.4-0.6,7.4-22.1V1277h14.7
					c13.8,0,14.7,0.6,14.7,7.4v7.4h29.5h29v-7.4c0-5.9,1.5-7.4,7.4-7.4s7.4-1.5,7.4-7.4s1.5-7.4,7.4-7.4c5.9,0,7.4-1.5,7.4-7.4
					c0-5.9,1.5-7.4,7.4-7.4s7.4-1.5,7.4-7.4c0-5.9,1.5-7.4,7.4-7.4h7.4v-51.7v-51.7h-7.4c-5.9,0-7.4-1.5-7.4-7.4s-1.5-7.4-7.4-7.4
					s-7.4-1.5-7.4-7.4s-1.5-7.4-7.4-7.4c-5.9,0-7.4-1.5-7.4-7.4c0-6.8-0.9-7.4-14.7-7.4h-14.7V1070c0-13.8-0.6-14.7-7.4-14.7
					c-7,0-7.4-0.6-7.4-22.1c0-21.5-0.2-22.1-7.4-22.1c-6.8,0-7.4-0.9-7.4-14.7c0-13.8-0.6-14.7-7.4-14.7c-5.9,0-7.4-1.5-7.4-7.4
					c0-5.9,1.5-7.4,7.4-7.4c6.8,0,7.4-0.9,7.4-14.7s0.6-14.7,7.4-14.7c5.9,0,7.4-1.5,7.4-7.4c0-5.9,1.5-7.4,7.4-7.4
					c5.9,0,7.4-1.5,7.4-7.4c0-6.8,0.9-7.4,14.7-7.4s14.7-0.6,14.7-7.4c0-6.8,0.9-7.4,14.7-7.4s14.7-0.6,14.7-7.4
					c0-6.8,0.9-7.4,14.7-7.4s14.7-0.6,14.7-7.4c0-5.9,1.5-7.4,7.4-7.4s7.4-1.5,7.4-7.4c0-5.9,1.5-7.4,7.4-7.4s7.4-1.5,7.4-7.4
					c0-5.9,1.5-7.4,7.4-7.4s7.4-1.5,7.4-7.4c0-5.9,1.5-7.4,7.4-7.4c6.8,0,7.4-0.9,7.4-14.7s0.6-14.7,7.4-14.7s7.4-0.9,7.4-14.7
					s0.6-14.7,7.4-14.7c7,0,7.4-0.6,7.4-22.1c0-21.5,0.2-22.1,7.4-22.1h7.4v-59.1v-59.1H62.6c-21.5,0-22.1,0.2-22.1,7.4
					c0,5.9-1.5,7.4-7.4,7.4s-7.4,1.5-7.4,7.4c0,6.8-0.9,7.4-14.7,7.4s-14.7,0.6-14.7,7.4c0,6.8-0.9,7.4-14.7,7.4s-14.7,0.6-14.7,7.4
					c0,5.9-1.5,7.4-7.4,7.4s-7.4,1.5-7.4,7.4s-1.5,7.4-7.4,7.4s-7.4,1.5-7.4,7.4c0,6.8-0.9,7.4-14.7,7.4s-14.7,0.6-14.7,7.4
					c0,5.9-1.5,7.4-7.4,7.4s-7.4,1.5-7.4,7.4s-1.5,7.4-7.4,7.4s-7.4,1.5-7.4,7.4c0,5.9-1.5,7.4-7.4,7.4c-5.9,0-7.4,1.5-7.4,7.4
					c0,5.9-1.5,7.4-7.4,7.4c-6.8,0-7.4,0.9-7.4,14.7c0,13.8-0.6,14.7-7.4,14.7c-5.9,0-7.4,1.5-7.4,7.4s-1.5,7.4-7.4,7.4
					s-7.4,1.5-7.4,7.4c0,5.9-1.5,7.4-7.4,7.4c-6.8,0-7.4,0.9-7.4,14.7c0,13.8-0.6,14.7-7.4,14.7s-7.4,0.9-7.4,14.7
					c0,13.8-0.6,14.7-7.4,14.7c-7,0-7.4,0.6-7.4,22.1c0,21.5-0.2,22.1-7.4,22.1c-6.8,0-7.4,0.9-7.4,14.7c0,13.8-0.6,14.7-7.4,14.7
					c-5.9,0-7.4,1.5-7.4,7.4c0,5.9-1.5,7.4-7.4,7.4s-7.4,1.5-7.4,7.4c0,5.9-1.5,7.4-7.4,7.4s-7.4-1.5-7.4-7.4c0-5.9-1.5-7.4-7.4-7.4
					c-6.8,0-7.4-0.9-7.4-14.7v-14.7h-36.3h-37v7.4c0,6.8-0.9,7.4-14.7,7.4c-13.8,0-14.7,0.6-14.7,7.4c0,5.9-1.5,7.4-7.4,7.4
					s-7.4,1.5-7.4,7.4c0,6.8-0.9,7.4-14.7,7.4c-13.8,0-14.7,0.6-14.7,7.4c0,5.9-1.5,7.4-7.4,7.4c-5.9,0-7.4,1.5-7.4,7.4
					c0,5.9-1.5,7.4-7.4,7.4c-6.8,0-7.4,0.9-7.4,14.7s-0.6,14.7-7.4,14.7c-5.9,0-7.4,1.5-7.4,7.4c0,5.9-1.5,7.4-7.4,7.4
					c-6.8,0-7.4,0.9-7.4,14.7s-0.6,14.7-7.4,14.7c-6.8,0-7.4,0.9-7.4,14.7s-0.6,14.7-7.4,14.7s-7.4,0.9-7.4,14.7
					c0,13.8-0.6,14.7-7.4,14.7c-7,0-7.4,0.6-7.4,22.1s-0.2,22.1-7.4,22.1h-7.4v44.2v44.2h22.1c21.5,0,22.1-0.2,22.1-7.4
					c0-5.9,1.5-7.4,7.4-7.4s7.4-1.5,7.4-7.4c0-7,0.6-7.4,22.1-7.4s22.1,0.2,22.1,7.4c0,5.9-1.5,7.4-7.4,7.4c-6.8,0-7.4,0.9-7.4,14.7
					c0,13.8-0.6,14.7-7.4,14.7c-6.8,0-7.4,0.9-7.4,14.7c0,13.8,0.6,14.7,7.4,14.7c6.8,0,7.4,0.9,7.4,14.7v14.7h59.1h59.5v-14.7
					c0-13.8,0.6-14.7,7.4-14.7c6.8,0,7.4-0.9,7.4-14.7c0-13.8-0.6-14.7-7.4-14.7c-5.9,0-7.4-1.5-7.4-7.4c0-6.8-0.9-7.4-14.7-7.4
					h-14.7v-14.7c0-13.8,0.6-14.7,7.4-14.7c5.9,0,7.4,1.5,7.4,7.4v7.4h29.4h29.5v-7.4c0-6.8,0.9-7.4,14.7-7.4h14.7v-14.7
					c0-13.8,0.6-14.7,7.4-14.7h7.4v29.5v29.5h-14.7c-13.8,0-14.7,0.6-14.7,7.4c0,6.8-0.9,7.4-14.7,7.4h-14.7v29.8v29.5h-7.4
					c-6.8,0-7.4,0.9-7.4,14.7c0,13.8-0.6,14.7-7.4,14.7c-5.9,0-7.4,1.5-7.4,7.4s-1.5,7.4-7.4,7.4c-6.8,0-7.4,0.9-7.4,14.7
					c0,13.8-0.6,14.7-7.4,14.7c-5.9,0-7.4,1.5-7.4,7.4c0,7-0.6,7.4-22.1,7.4s-22.1-0.2-22.1-7.4c0-5.9-1.5-7.4-7.4-7.4
					s-7.4-1.5-7.4-7.4s-1.5-7.4-7.4-7.4c-6.8,0-7.4,0.9-7.4,14.7c0,13.8,0.6,14.7,7.4,14.7c5.9,0,7.4,1.5,7.4,7.4v7.4h51.7h51.8
					V1432.2z M-520.8,1328.9v-22.1h-22.1H-565v14.7c0,13.8,0.6,14.7,7.4,14.7c5.9,0,7.4,1.5,7.4,7.4c0,6.8,0.9,7.4,14.7,7.4h14.7
					V1328.9z M-373.2,886c0-7,0.6-7.4,22.1-7.4c21.5,0,22.1-0.2,22.1-7.4c0-5.9,1.5-7.4,7.4-7.4c7,0,7.4-0.6,7.4-22.1
					c0-21.5,0.2-22.1,7.4-22.1c7,0,7.4-0.6,7.4-22.1s0.2-22.1,7.4-22.1c6.8,0,7.4-0.9,7.4-14.7c0-13.8,0.6-14.7,7.4-14.7
					c6.8,0,7.4-0.9,7.4-14.7s0.6-14.7,7.4-14.7c6.8,0,7.4-0.9,7.4-14.7c0-13.8,0.6-14.7,7.4-14.7s7.4-0.9,7.4-14.7
					c0-13.8,0.6-14.7,7.4-14.7s7.4-0.9,7.4-14.7c0-13.8,0.6-14.7,7.4-14.7h7.4v-37v-37.3H-225c-13.8,0-14.7,0.6-14.7,7.4
					c0,5.9-1.5,7.4-7.4,7.4c-5.9,0-7.4,1.5-7.4,7.4s-1.5,7.4-7.4,7.4c-6.8,0-7.4,0.9-7.4,14.7c0,13.8-0.6,14.7-7.4,14.7
					c-5.9,0-7.4,1.5-7.4,7.4c0,5.9-1.5,7.4-7.4,7.4c-6.8,0-7.4,0.9-7.4,14.7c0,13.8-0.6,14.7-7.4,14.7c-5.9,0-7.4,1.5-7.4,7.4
					s-1.5,7.4-7.4,7.4s-7.4,1.5-7.4,7.4c0,5.9-1.5,7.4-7.4,7.4c-6.8,0-7.4,0.9-7.4,14.7c0,13.8-0.6,14.7-7.4,14.7
					c-5.9,0-7.4,1.5-7.4,7.4s-1.5,7.4-7.4,7.4s-7.4,1.5-7.4,7.4c0,5.9-1.5,7.4-7.4,7.4c-7,0-7.4,0.6-7.4,22.1
					c0,21.5-0.2,22.1-7.4,22.1h-7.4v37v37h7.4c6.8,0,7.4,0.9,7.4,14.7c0,13.8,0.6,14.7,7.4,14.7C-374.7,893.5-373.2,892-373.2,886z
					 M-269.9,856.5c0-5.9-1.5-7.4-7.4-7.4s-7.4,1.5-7.4,7.4c0,5.9,1.5,7.4,7.4,7.4S-269.9,862.4-269.9,856.5z"/>
				<path d="M-432.3,1151.8v-37h-7.4h-7.4v-51.7v-51.7h7.4c5.9,0,7.4-1.5,7.4-7.4c0-5.9,1.5-7.4,7.4-7.4c5.9,0,7.4-1.5,7.4-7.4
					c0-5.9,1.5-7.4,7.4-7.4s7.4-1.5,7.4-7.4V967h29.5h29.4v7.4c0,6.8,0.9,7.4,14.7,7.4h14.7v14.7c0,13.8,0.6,14.7,7.4,14.7h7.4v59.1
					v59.1h7.4c6.8,0,7.4,0.9,7.4,14.7v14.7h-51.7h-51.7v7.4c0,6.8-0.9,7.4-14.7,7.4c-13.8,0-14.7,0.6-14.7,7.4
					c0,5.9-1.5,7.4-7.4,7.4h-7.4v-36.7H-432.3z M-387.9,1114.8v-29.5h7.4c5.9,0,7.4-1.5,7.4-7.4c0-5.9,1.5-7.4,7.4-7.4
					s7.4,1.5,7.4,7.4c0,5.9,1.5,7.4,7.4,7.4s7.4-1.5,7.4-7.4c0-5.9-1.5-7.4-7.4-7.4s-7.4-1.5-7.4-7.4c0-6.8,0.9-7.4,14.7-7.4h14.7
					v-22c0-21.5-0.2-22.1-7.4-22.1c-5.9,0-7.4-1.5-7.4-7.4v-7.4h-29.5h-29.5v14.7c0,13.8-0.6,14.7-7.4,14.7h-7.4v51.7v51.7h7.4
					c5.9,0,7.4,1.5,7.4,7.4c0,5.9,1.5,7.4,7.4,7.4h7.4V1114.8z"/>
				<path d="M-210.8,974.7c0-5.9-1.5-7.4-7.4-7.4c-6.8,0-7.4-0.9-7.4-14.7c0-13.8,0.6-14.7,7.4-14.7c7,0,7.4-0.6,7.4-22.1
					s0.2-22.1,7.4-22.1c6.8,0,7.4-0.9,7.4-14.7s0.6-14.7,7.4-14.7s7.4-0.9,7.4-14.7s0.6-14.7,7.4-14.7s7.4-0.9,7.4-14.7
					c0-13.8,0.6-14.7,7.4-14.7c5.9,0,7.4-1.5,7.4-7.4c0-5.9,1.5-7.4,7.4-7.4c6.8,0,7.4-0.9,7.4-14.7s0.6-14.7,7.4-14.7
					c5.9,0,7.4-1.5,7.4-7.4c0-5.9,1.5-7.4,7.4-7.4s7.4-1.5,7.4-7.4s1.5-7.4,7.4-7.4c5.9,0,7.4-1.5,7.4-7.4s1.5-7.4,7.4-7.4
					s7.4-1.5,7.4-7.4c0-5.9,1.5-7.4,7.4-7.4s7.4-1.5,7.4-7.4c0-6.8,0.9-7.4,14.7-7.4s14.7-0.6,14.7-7.4c0-5.9,1.5-7.4,7.4-7.4
					s7.4-1.5,7.4-7.4c0-5.9,1.5-7.4,7.4-7.4s7.4-1.5,7.4-7.4c0-7,0.6-7.4,22.1-7.4s22.1,0.2,22.1,7.4c0,6.8-0.9,7.4-14.7,7.4
					s-14.7,0.6-14.7,7.4c0,5.9-1.5,7.4-7.4,7.4s-7.4,1.5-7.4,7.4s-1.5,7.4-7.4,7.4s-7.4,1.5-7.4,7.4s-1.5,7.4-7.4,7.4
					s-7.4,1.5-7.4,7.4c0,5.9-1.5,7.4-7.4,7.4s-7.4,1.5-7.4,7.4s-1.5,7.4-7.4,7.4s-7.4,1.5-7.4,7.4s-1.5,7.4-7.4,7.4
					s-7.4,1.5-7.4,7.4c0,5.9-1.5,7.4-7.4,7.4s-7.4,1.5-7.4,7.4c0,5.9-1.5,7.4-7.4,7.4c-6.8,0-7.4,0.9-7.4,14.7
					c0,13.8-0.6,14.7-7.4,14.7c-5.9,0-7.4,1.5-7.4,7.4c0,5.9-1.5,7.4-7.4,7.4c-7,0-7.4,0.6-7.4,22.1c0,21.5-0.2,22.1-7.4,22.1
					c-5.9,0-7.4,1.5-7.4,7.4s1.5,7.4,7.4,7.4s7.4,1.5,7.4,7.4c0,5.9-1.5,7.4-7.4,7.4s-7.4,1.5-7.4,7.4c0,5.9-1.5,7.4-7.4,7.4h-7.4
					v37v37h-22.1C-210.2,982-210.8,981.7-210.8,974.7z"/>
			</g>
		</g>
	</g>
</g>
<g id="Layer_8">
	<g>
		<defs>
			<path id="path1412_00000153676655423798926580000014331446973940430242_" d="M821.7,298.5l-0.3-278.5l-277.1,2
				c0,0-64.6,3.1-53.8,58.6c10.8,55.6,102.3,18.5,64.6,98.8c-25.9,31.1-74.4,45.6-117.7,47.1c-16,0.6-31-0.8-44.1-3.6
				c-0.6-0.1-1.2-0.2-1.8-0.3c-37.3-4.8-75.2-19.2-97.1-45.5c-37.7-80.3,53.7-43.2,64.5-98.8c10.6-54.7-51.2-58.4-53.1-58.5H26.2
				l0,0l0.4,276c0,0,3.1,64.6,58.6,53.8c45.2-8.7,29.1-70.8,64.6-73.6c8.2-0.6,19.1,1.9,34.2,9c31.1,25.9,45.6,74.4,47.1,117.7
				c0.6,16-0.8,31-3.6,44.1c-0.1,0.6-0.2,1.2-0.3,1.8c-4.8,37.4-19.3,75.2-45.5,97.1c-80.3,37.7-43.2-53.8-98.8-64.6
				c-40.5-7.8-53,24.1-56.9,42.2v293h289.2l229.3,0.8l276.7-0.8V525.7L821.7,298.5z"/>
		</defs>
		<clipPath id="path1412_00000063633787428991551010000016124623104242779266_">
			<use xlink:href="#path1412_00000153676655423798926580000014331446973940430242_"  style="overflow:visible;"/>
		</clipPath>
		
			<g id="Layer_2_00000018199119150307574070000012669491302523912121_" style="clip-path:url(#path1412_00000063633787428991551010000016124623104242779266_);">
			<path class="st3" d="M327.2,789.7c0,0-1.9,75.4,79.8,68.1c0,0,79.8,20.9,132.1-95.5c0,0,17.3,69.1,102.6-42.4
				c0,0,65.5,9.1,110.1-48.6c0,0,109.6-94.1-28.8-197.4c0,0-81.3-91-6.6-148.8c0,0,154.7-49.8,188.9-250.4c0,0,21-116.7-45.9-91.8
				c0,0-218.9,86.5-326.4,333.1l-43.3-19.2c0,0,17.2-89.6,102.3-250.9c0,0,34.9-91.8-14.7-103.7c0,0-63.4,39.3-177.1,212.5
				c0,0-43.6,122,0,165.3c0,0-81,38.1-150.4,194.1c0,0-50.1,74-23.6,175.8C226.1,689.7,165.7,773.4,327.2,789.7z"/>
			<path class="st4" d="M429.7,553.9c0,0-65.9,16.1-55-72.6c0,0-16.1-95.9,49.1-95.9c0,0,71.2-11,63.8,76
				C487.5,461.4,488.8,542.9,429.7,553.9z"/>
		</g>
		
			<g id="Layer_1_00000178203738861901230160000014515336404005579441_" style="clip-path:url(#path1412_00000063633787428991551010000016124623104242779266_);">
			<g id="layer1_00000001662215334292476260000003096621815830254523_">
				<path d="M355.9,865.2c0-5.9-1.5-7.4-7.4-7.4c-5.9,0-7.4-1.5-7.4-7.4c0-5.9-1.5-7.4-7.4-7.4c-6.8,0-7.4-0.9-7.4-14.7
					s-0.6-14.7-7.4-14.7c-5.9,0-7.4-1.5-7.4-7.4v-7.4h-29.5h-29.5v-7.4c0-6.8-0.9-7.4-14.7-7.4c-13.8,0-14.7-0.6-14.7-7.4
					c0-5.9-1.5-7.4-7.4-7.4c-6.8,0-7.4-0.9-7.4-14.7s-0.6-14.7-7.4-14.7c-7,0-7.4-0.6-7.4-22.1s0.2-22.1,7.4-22.1
					c5.9,0,7.4-1.5,7.4-7.4c0-5.9-1.5-7.4-7.4-7.4h-7.4v-44.2v-44.2h7.4c7,0,7.4-0.6,7.4-22.1s0.2-22.1,7.4-22.1
					c6.8,0,7.4-0.9,7.4-14.7s0.6-14.7,7.4-14.7c7,0,7.4-0.6,7.4-22.1c0-21.5,0.2-22.1,7.4-22.1h7.4v-29.7V415h7.4
					c6.8,0,7.4-0.9,7.4-14.7v-14.7h22.1c21.5,0,22.1-0.2,22.1-7.4c0-5.9,1.5-7.4,7.4-7.4c5.9,0,7.4-1.5,7.4-7.4
					c0-5.9,1.5-7.4,7.4-7.4c5.9,0,7.4-1.5,7.4-7.4s1.5-7.4,7.4-7.4c5.9,0,7.4-1.5,7.4-7.4s1.5-7.4,7.4-7.4h7.4v-29.5v-29.5h-7.4
					h-7.4v-29.5v-29.5h7.4c7,0,7.4-0.6,7.4-22.1s0.2-22.1,7.4-22.1c6.8,0,7.4-0.9,7.4-14.7c0-13.8,0.6-14.7,7.4-14.7
					c5.9,0,7.4-1.5,7.4-7.4s1.5-7.4,7.4-7.4c6.8,0,7.4-0.9,7.4-14.7s0.6-14.7,7.4-14.7c5.9,0,7.4-1.5,7.4-7.4s1.5-7.4,7.4-7.4
					s7.4-1.5,7.4-7.4c0-5.9,1.5-7.4,7.4-7.4s7.4-1.5,7.4-7.4s1.5-7.4,7.4-7.4c6.8,0,7.4-0.9,7.4-14.7s0.6-14.7,7.4-14.7
					c5.9,0,7.4-1.5,7.4-7.4s1.5-7.4,7.4-7.4s7.4-1.5,7.4-7.4s1.5-7.4,7.4-7.4s7.4-1.5,7.4-7.4s1.5-7.4,7.4-7.4
					c5.9,0,7.4-1.5,7.4-7.4s1.5-7.4,7.4-7.4c6.8,0,7.4-0.9,7.4-14.7v-14.3h14.7c13.8,0,14.7-0.6,14.7-7.4c0-5.9,1.5-7.4,7.4-7.4
					c5.9,0,7.4,1.5,7.4,7.4c0,5.9,1.5,7.4,7.4,7.4s7.4,1.5,7.4,7.4s1.5,7.4,7.4,7.4h7.4v44.2v44.2h-7.4c-7,0-7.4,0.6-7.4,22.1
					s-0.2,22.1-7.4,22.1c-6.8,0-7.4,0.9-7.4,14.7s-0.6,14.7-7.4,14.7c-6.8,0-7.4,0.9-7.4,14.7s-0.6,14.7-7.4,14.7
					c-6.8,0-7.4,0.9-7.4,14.7c0,13.8-0.6,14.7-7.4,14.7s-7.4,0.9-7.4,14.7c0,13.8-0.6,14.7-7.4,14.7h-7.4v29.5v29.5h7.4
					c6.8,0,7.4-0.9,7.4-14.7c0-13.8,0.6-14.7,7.4-14.7c5.9,0,7.4-1.5,7.4-7.4s1.5-7.4,7.4-7.4c6.8,0,7.4-0.9,7.4-14.7
					c0-13.8,0.6-14.7,7.4-14.7c5.9,0,7.4-1.5,7.4-7.4s1.5-7.4,7.4-7.4s7.4-1.5,7.4-7.4c0-5.9,1.5-7.4,7.4-7.4c5.9,0,7.4-1.5,7.4-7.4
					s1.5-7.4,7.4-7.4c5.9,0,7.4-1.5,7.4-7.4s1.5-7.4,7.4-7.4c5.9,0,7.4-1.5,7.4-7.4c0-5.9,1.5-7.4,7.4-7.4c5.9,0,7.4-1.5,7.4-7.4
					s1.5-7.4,7.4-7.4s7.4-1.5,7.4-7.4c0-5.9,1.5-7.4,7.4-7.4c5.9,0,7.4-1.5,7.4-7.4s1.5-7.4,7.4-7.4c5.9,0,7.4-1.5,7.4-7.4
					s1.5-7.4,7.4-7.4c5.9,0,7.4-1.5,7.4-7.4s1.5-7.4,7.4-7.4c5.9,0,7.4-1.5,7.4-7.4c0-6.8,0.9-7.4,14.7-7.4s14.7-0.6,14.7-7.4
					c0-5.9,1.5-7.4,7.4-7.4c5.9,0,7.4-1.5,7.4-7.4c0-7,0.6-7.4,22.1-7.4s22.1-0.2,22.1-7.4c0-6.8,0.9-7.4,14.7-7.4
					s14.7-0.6,14.7-7.4c0-7,0.6-7.4,22.1-7.4s22.1,0.2,22.1,7.4c0,5.9,1.5,7.4,7.4,7.4c5.9,0,7.4,1.5,7.4,7.4s1.5,7.4,7.4,7.4h7.4
					v51.7V89h-7.4c-7,0-7.4,0.6-7.4,22.1s-0.2,22.1-7.4,22.1c-7,0-7.4,0.6-7.4,22.1s-0.2,22.1-7.4,22.1c-6.8,0-7.4,0.9-7.4,14.7
					s-0.6,14.7-7.4,14.7c-5.9,0-7.4,1.5-7.4,7.4s-1.5,7.4-7.4,7.4c-5.9,0-7.4,1.5-7.4,7.4s-1.5,7.4-7.4,7.4c-5.9,0-7.4,1.5-7.4,7.4
					s-1.5,7.4-7.4,7.4c-5.9,0-7.4,1.5-7.4,7.4c0,5.9-1.5,7.4-7.4,7.4c-5.9,0-7.4,1.5-7.4,7.4s-1.5,7.4-7.4,7.4
					c-5.9,0-7.4,1.5-7.4,7.4s-1.5,7.4-7.4,7.4c-5.9,0-7.4,1.5-7.4,7.4s-1.5,7.4-7.4,7.4c-5.9,0-7.4,1.5-7.4,7.4
					c0,6.8-0.9,7.4-14.7,7.4s-14.7,0.6-14.7,7.4c0,6.8-0.9,7.4-14.7,7.4h-15.9v22.1c0,21.5-0.2,22.1-7.4,22.1
					c-5.9,0-7.4,1.5-7.4,7.4s1.5,7.4,7.4,7.4c6.8,0,7.4,0.9,7.4,14.7c0,13.8,0.6,14.7,7.4,14.7c6.8,0,7.4,0.9,7.4,14.7v14.7h14.7
					c13.8,0,14.7,0.6,14.7,7.4c0,5.9,1.5,7.4,7.4,7.4c5.9,0,7.4,1.5,7.4,7.4s1.5,7.4,7.4,7.4c6.8,0,7.4,0.9,7.4,14.7
					c0,13.8,0.6,14.7,7.4,14.7s7.4,0.9,7.4,14.7s0.6,14.7,7.4,14.7h7.4v44.2v44.2h-7.4c-6.8,0-7.4,0.9-7.4,14.7s-0.6,14.7-7.4,14.7
					c-5.9,0-7.4,1.5-7.4,7.4c0,5.9-1.5,7.4-7.4,7.4c-5.9,0-7.4,1.5-7.4,7.4c0,5.9-1.5,7.4-7.4,7.4c-5.9,0-7.4,1.5-7.4,7.4
					c0,6.8-0.9,7.4-14.7,7.4s-14.7,0.6-14.7,7.4c0,6.8-0.9,7.4-14.7,7.4s-14.7,0.6-14.7,7.4s-0.9,7.4-14.7,7.4s-14.7,0.6-14.7,7.4
					c0,7-0.6,7.4-22.1,7.4s-22.1,0.2-22.1,7.4c0,5.9-1.5,7.4-7.4,7.4c-5.9,0-7.4,1.5-7.4,7.4c0,5.9-1.5,7.4-7.4,7.4
					c-5.9,0-7.4,1.5-7.4,7.4v7.4h-29.5h-29.5v7.4c0,5.9-1.5,7.4-7.4,7.4c-5.9,0-7.4,1.5-7.4,7.4c0,5.9-1.5,7.4-7.4,7.4
					c-5.9,0-7.4,1.5-7.4,7.4s-1.5,7.4-7.4,7.4s-7.4,1.5-7.4,7.4c0,6.8-0.9,7.4-14.7,7.4c-13.8,0-14.7,0.6-14.7,7.4v7.4h-51.7h-51.7
					L355.9,865.2L355.9,865.2z M459.2,835.7c0-5.9,1.5-7.4,7.4-7.4s7.4-1.5,7.4-7.4c0-5.9,1.5-7.4,7.4-7.4s7.4-1.5,7.4-7.4
					c0-5.9,1.5-7.4,7.4-7.4c6.8,0,7.4-0.9,7.4-14.7s0.6-14.7,7.4-14.7c6.8,0,7.4-0.9,7.4-14.7c0-13.8,0.6-14.7,7.4-14.7
					c5.9,0,7.4-1.5,7.4-7.4c0-6.8,0.9-7.4,14.7-7.4h14.7v22.1c0,21.5,0.2,22.1,7.4,22.1c5.9,0,7.4-1.5,7.4-7.4
					c0-5.9,1.5-7.4,7.4-7.4c5.9,0,7.4-1.5,7.4-7.4c0-5.9,1.5-7.4,7.4-7.4c5.9,0,7.4-1.5,7.4-7.4s1.5-7.4,7.4-7.4
					c7,0,7.4-0.6,7.4-22.1v-22.1h14.7c13.8,0,14.7,0.6,14.7,7.4v7.4h29.5h29v-7.4c0-5.9,1.5-7.4,7.4-7.4c5.9,0,7.4-1.5,7.4-7.4
					c0-5.9,1.5-7.4,7.4-7.4c5.9,0,7.4-1.5,7.4-7.4c0-5.9,1.5-7.4,7.4-7.4c5.9,0,7.4-1.5,7.4-7.4c0-5.9,1.5-7.4,7.4-7.4h7.4v-51.7
					v-51.7H762c-5.9,0-7.4-1.5-7.4-7.4c0-5.9-1.5-7.4-7.4-7.4c-5.9,0-7.4-1.5-7.4-7.4s-1.5-7.4-7.4-7.4c-5.9,0-7.4-1.5-7.4-7.4
					c0-6.8-0.9-7.4-14.7-7.4h-14.7v-14.7c0-13.8-0.6-14.7-7.4-14.7c-7,0-7.4-0.6-7.4-22.1s-0.2-22.1-7.4-22.1
					c-6.8,0-7.4-0.9-7.4-14.7c0-13.8-0.6-14.7-7.4-14.7c-5.9,0-7.4-1.5-7.4-7.4s1.5-7.4,7.4-7.4c6.8,0,7.4-0.9,7.4-14.7
					c0-13.8,0.6-14.7,7.4-14.7c5.9,0,7.4-1.5,7.4-7.4s1.5-7.4,7.4-7.4c5.9,0,7.4-1.5,7.4-7.4c0-6.8,0.9-7.4,14.7-7.4
					s14.7-0.6,14.7-7.4c0-6.8,0.9-7.4,14.7-7.4s14.7-0.6,14.7-7.4c0-6.8,0.9-7.4,14.7-7.4s14.7-0.6,14.7-7.4c0-5.9,1.5-7.4,7.4-7.4
					c5.9,0,7.4-1.5,7.4-7.4c0-5.9,1.5-7.4,7.4-7.4s7.4-1.5,7.4-7.4s1.5-7.4,7.4-7.4c5.9,0,7.4-1.5,7.4-7.4s1.5-7.4,7.4-7.4
					c6.8,0,7.4-0.9,7.4-14.7c0-13.8,0.6-14.7,7.4-14.7s7.4-0.9,7.4-14.7s0.6-14.7,7.4-14.7c7,0,7.4-0.6,7.4-22.1s0.2-22.1,7.4-22.1
					h7.4V60V0.9h-22.1c-21.5,0-22.1,0.2-22.1,7.4c0,5.9-1.5,7.4-7.4,7.4c-5.9,0-7.4,1.5-7.4,7.4c0,6.8-0.9,7.4-14.7,7.4
					s-14.7,0.6-14.7,7.4s-0.9,7.4-14.7,7.4s-14.7,0.6-14.7,7.4c0,5.9-1.5,7.4-7.4,7.4c-5.9,0-7.4,1.5-7.4,7.4s-1.5,7.4-7.4,7.4
					c-5.9,0-7.4,1.5-7.4,7.4c0,6.8-0.9,7.4-14.7,7.4s-14.7,0.6-14.7,7.4c0,5.9-1.5,7.4-7.4,7.4c-5.9,0-7.4,1.5-7.4,7.4
					c0,5.9-1.5,7.4-7.4,7.4c-5.9,0-7.4,1.5-7.4,7.4c0,5.9-1.5,7.4-7.4,7.4c-5.9,0-7.4,1.5-7.4,7.4s-1.5,7.4-7.4,7.4
					c-6.8,0-7.4,0.9-7.4,14.7c0,13.8-0.6,14.7-7.4,14.7c-5.9,0-7.4,1.5-7.4,7.4c0,5.9-1.5,7.4-7.4,7.4s-7.4,1.5-7.4,7.4
					s-1.5,7.4-7.4,7.4c-6.8,0-7.4,0.9-7.4,14.7c0,13.8-0.6,14.7-7.4,14.7c-6.8,0-7.4,0.9-7.4,14.7c0,13.8-0.6,14.7-7.4,14.7
					c-7,0-7.4,0.6-7.4,22.1s-0.2,22.1-7.4,22.1c-6.8,0-7.4,0.9-7.4,14.7s-0.6,14.7-7.4,14.7c-5.9,0-7.4,1.5-7.4,7.4
					s-1.5,7.4-7.4,7.4c-5.9,0-7.4,1.5-7.4,7.4s-1.5,7.4-7.4,7.4c-5.9,0-7.4-1.5-7.4-7.4s-1.5-7.4-7.4-7.4c-6.8,0-7.4-0.9-7.4-14.7
					v-14.7h-36.3h-37v7.4c0,6.8-0.9,7.4-14.7,7.4c-13.8,0-14.7,0.6-14.7,7.4c0,5.9-1.5,7.4-7.4,7.4s-7.4,1.5-7.4,7.4
					c0,6.8-0.9,7.4-14.7,7.4c-13.8,0-14.7,0.6-14.7,7.4c0,5.9-1.5,7.4-7.4,7.4c-5.9,0-7.4,1.5-7.4,7.4s-1.5,7.4-7.4,7.4
					c-6.8,0-7.4,0.9-7.4,14.7c0,13.8-0.6,14.7-7.4,14.7c-5.9,0-7.4,1.5-7.4,7.4s-1.5,7.4-7.4,7.4c-6.8,0-7.4,0.9-7.4,14.7
					c0,13.8-0.6,14.7-7.4,14.7c-6.8,0-7.4,0.9-7.4,14.7c0,13.8-0.6,14.7-7.4,14.7c-6.8,0-7.4,0.9-7.4,14.7c0,13.8-0.6,14.7-7.4,14.7
					c-7,0-7.4,0.6-7.4,22.1s-0.2,22.1-7.4,22.1h-7.4v44.2v44.2h22.1c21.5,0,22.1-0.2,22.1-7.4c0-5.9,1.5-7.4,7.4-7.4
					s7.4-1.5,7.4-7.4c0-7,0.6-7.4,22.1-7.4s22.1,0.2,22.1,7.4c0,5.9-1.5,7.4-7.4,7.4c-6.8,0-7.4,0.9-7.4,14.7s-0.6,14.7-7.4,14.7
					c-6.8,0-7.4,0.9-7.4,14.7s0.6,14.7,7.4,14.7c6.8,0,7.4,0.9,7.4,14.7V739h59.1h59.5v-14.7c0-13.8,0.6-14.7,7.4-14.7
					c6.8,0,7.4-0.9,7.4-14.7s-0.6-14.7-7.4-14.7c-5.9,0-7.4-1.5-7.4-7.4c0-6.8-0.9-7.4-14.7-7.4H415v-14.7c0-13.8,0.6-14.7,7.4-14.7
					c5.9,0,7.4,1.5,7.4,7.4v7.4h29.4h29.5v-7.4c0-6.8,0.9-7.4,14.7-7.4h14.7v-14.7c0-13.8,0.6-14.7,7.4-14.7h7.4v29.5v29.5h-14.7
					c-13.8,0-14.7,0.6-14.7,7.4c0,6.8-0.9,7.4-14.7,7.4h-14.7v29.8v29.5h-7.4c-6.8,0-7.4,0.9-7.4,14.7s-0.6,14.7-7.4,14.7
					c-5.9,0-7.4,1.5-7.4,7.4c0,5.9-1.5,7.4-7.4,7.4c-6.8,0-7.4,0.9-7.4,14.7s-0.6,14.7-7.4,14.7c-5.9,0-7.4,1.5-7.4,7.4
					c0,7-0.6,7.4-22.1,7.4s-22.1-0.2-22.1-7.4c0-5.9-1.5-7.4-7.4-7.4s-7.4-1.5-7.4-7.4c0-5.9-1.5-7.4-7.4-7.4
					c-6.8,0-7.4,0.9-7.4,14.7s0.6,14.7,7.4,14.7c5.9,0,7.4,1.5,7.4,7.4v7.4h51.7h51.8V835.7z M282.1,732.4v-22.1H260h-22.1V725
					c0,13.8,0.6,14.7,7.4,14.7c5.9,0,7.4,1.5,7.4,7.4c0,6.8,0.9,7.4,14.7,7.4h14.7V732.4z M429.7,289.5c0-7,0.6-7.4,22.1-7.4
					c21.5,0,22.1-0.2,22.1-7.4c0-5.9,1.5-7.4,7.4-7.4c7,0,7.4-0.6,7.4-22.1s0.2-22.1,7.4-22.1c7,0,7.4-0.6,7.4-22.1
					s0.2-22.1,7.4-22.1c6.8,0,7.4-0.9,7.4-14.7c0-13.8,0.6-14.7,7.4-14.7s7.4-0.9,7.4-14.7c0-13.8,0.6-14.7,7.4-14.7
					c6.8,0,7.4-0.9,7.4-14.7s0.6-14.7,7.4-14.7c6.8,0,7.4-0.9,7.4-14.7s0.6-14.7,7.4-14.7s7.4-0.9,7.4-14.7s0.6-14.7,7.4-14.7h7.4
					v-37v-37.3h-14.7c-13.8,0-14.7,0.6-14.7,7.4c0,5.9-1.5,7.4-7.4,7.4c-5.9,0-7.4,1.5-7.4,7.4s-1.5,7.4-7.4,7.4
					c-6.8,0-7.4,0.9-7.4,14.7s-0.6,14.7-7.4,14.7c-5.9,0-7.4,1.5-7.4,7.4c0,5.9-1.5,7.4-7.4,7.4c-6.8,0-7.4,0.9-7.4,14.7
					s-0.6,14.7-7.4,14.7c-5.9,0-7.4,1.5-7.4,7.4c0,5.9-1.5,7.4-7.4,7.4s-7.4,1.5-7.4,7.4s-1.5,7.4-7.4,7.4c-6.8,0-7.4,0.9-7.4,14.7
					s-0.6,14.7-7.4,14.7c-5.9,0-7.4,1.5-7.4,7.4s-1.5,7.4-7.4,7.4s-7.4,1.5-7.4,7.4s-1.5,7.4-7.4,7.4c-7,0-7.4,0.6-7.4,22.1
					s-0.2,22.1-7.4,22.1H400v37v37h7.4c6.8,0,7.4,0.9,7.4,14.7c0,13.8,0.6,14.7,7.4,14.7C428.2,296.9,429.7,295.4,429.7,289.5z
					 M533,260c0-5.9-1.5-7.4-7.4-7.4c-5.9,0-7.4,1.5-7.4,7.4s1.5,7.4,7.4,7.4C531.5,267.4,533,265.9,533,260z"/>
				<path d="M370.6,555.3v-37h-7.4h-7.4v-51.7V415h7.4c5.9,0,7.4-1.5,7.4-7.4s1.5-7.4,7.4-7.4c5.9,0,7.4-1.5,7.4-7.4
					s1.5-7.4,7.4-7.4s7.4-1.5,7.4-7.4v-7.4h29.5h29.4v7.4c0,6.8,0.9,7.4,14.7,7.4h14.7V400c0,13.8,0.6,14.7,7.4,14.7h7.4v59.1v59.1
					h7.4c6.8,0,7.4,0.9,7.4,14.7v14.7h-51.7H415v7.4c0,6.8-0.9,7.4-14.7,7.4c-13.8,0-14.7,0.6-14.7,7.4c0,5.9-1.5,7.4-7.4,7.4h-7.4
					v-36.7L370.6,555.3L370.6,555.3z M415,518.3v-29.5h7.4c5.9,0,7.4-1.5,7.4-7.4s1.5-7.4,7.4-7.4s7.4,1.5,7.4,7.4s1.5,7.4,7.4,7.4
					s7.4-1.5,7.4-7.4s-1.5-7.4-7.4-7.4s-7.4-1.5-7.4-7.4c0-6.8,0.9-7.4,14.7-7.4h14.7v-22c0-21.5-0.2-22.1-7.4-22.1
					c-5.9,0-7.4-1.5-7.4-7.4v-7.4h-29.5h-29.5v14.7c0,13.8-0.6,14.7-7.4,14.7h-7.4v51.7v51.7h7.4c5.9,0,7.4,1.5,7.4,7.4
					c0,5.9,1.5,7.4,7.4,7.4h7.4V518.3z"/>
				<path d="M592.1,378.1c0-5.9-1.5-7.4-7.4-7.4c-6.8,0-7.4-0.9-7.4-14.7c0-13.8,0.6-14.7,7.4-14.7c7,0,7.4-0.6,7.4-22.1
					s0.2-22.1,7.4-22.1c6.8,0,7.4-0.9,7.4-14.7c0-13.8,0.6-14.7,7.4-14.7c6.8,0,7.4-0.9,7.4-14.7c0-13.8,0.6-14.7,7.4-14.7
					s7.4-0.9,7.4-14.7s0.6-14.7,7.4-14.7c5.9,0,7.4-1.5,7.4-7.4s1.5-7.4,7.4-7.4c6.8,0,7.4-0.9,7.4-14.7s0.6-14.7,7.4-14.7
					c5.9,0,7.4-1.5,7.4-7.4s1.5-7.4,7.4-7.4c5.9,0,7.4-1.5,7.4-7.4s1.5-7.4,7.4-7.4c5.9,0,7.4-1.5,7.4-7.4c0-5.9,1.5-7.4,7.4-7.4
					c5.9,0,7.4-1.5,7.4-7.4c0-5.9,1.5-7.4,7.4-7.4c5.9,0,7.4-1.5,7.4-7.4c0-6.8,0.9-7.4,14.7-7.4c13.8,0,14.7-0.6,14.7-7.4
					c0-5.9,1.5-7.4,7.4-7.4c5.9,0,7.4-1.5,7.4-7.4c0-5.9,1.5-7.4,7.4-7.4c5.9,0,7.4-1.5,7.4-7.4c0-7,0.6-7.4,22.1-7.4
					s22.1,0.2,22.1,7.4c0,6.8-0.9,7.4-14.7,7.4s-14.7,0.6-14.7,7.4c0,5.9-1.5,7.4-7.4,7.4c-5.9,0-7.4,1.5-7.4,7.4s-1.5,7.4-7.4,7.4
					c-5.9,0-7.4,1.5-7.4,7.4c0,5.9-1.5,7.4-7.4,7.4c-5.9,0-7.4,1.5-7.4,7.4c0,5.9-1.5,7.4-7.4,7.4c-5.9,0-7.4,1.5-7.4,7.4
					c0,5.9-1.5,7.4-7.4,7.4c-5.9,0-7.4,1.5-7.4,7.4s-1.5,7.4-7.4,7.4s-7.4,1.5-7.4,7.4s-1.5,7.4-7.4,7.4c-5.9,0-7.4,1.5-7.4,7.4
					s-1.5,7.4-7.4,7.4c-6.8,0-7.4,0.9-7.4,14.7c0,13.8-0.6,14.7-7.4,14.7c-5.9,0-7.4,1.5-7.4,7.4s-1.5,7.4-7.4,7.4
					c-7,0-7.4,0.6-7.4,22.1s-0.2,22.1-7.4,22.1c-5.9,0-7.4,1.5-7.4,7.4s1.5,7.4,7.4,7.4c5.9,0,7.4,1.5,7.4,7.4s-1.5,7.4-7.4,7.4
					c-5.9,0-7.4,1.5-7.4,7.4c0,5.9-1.5,7.4-7.4,7.4h-7.4v37v37h-22.1C592.7,385.4,592.1,385.2,592.1,378.1z"/>
			</g>
		</g>
	</g>
</g>
<g id="Layer_7">
	<path id="path1412_00000137842949841991107260000013234406528241226665_" class="st7" d="M544.7,817.1l276.7-0.8V525.7l0.3-227.2
		l-0.3-278.5l-277.1,2c0,0-64.6,3.1-53.8,58.6c10.8,55.6,102.3,18.5,64.6,98.8c-25.9,31.1-74.4,45.6-117.7,47.1
		c-16,0.6-31-0.8-44.1-3.6c-0.6-0.1-1.2-0.2-1.8-0.3c-37.3-4.8-75.2-19.2-97.1-45.5c-37.7-80.3,53.7-43.2,64.5-98.8
		c10.6-54.7-51.2-58.4-53.1-58.5H26.2l0,0l0.4,276c0,0,3.1,64.6,58.6,53.8c45.2-8.7,29.1-70.8,64.6-73.6c8.2-0.6,19.1,1.9,34.2,9
		c31.1,25.9,45.6,74.4,47.1,117.7c0.6,16-0.8,31-3.6,44.1c-0.1,0.6-0.2,1.2-0.3,1.8c-4.8,37.4-19.3,75.2-45.5,97.1
		c-80.3,37.7-43.2-53.8-98.8-64.6c-40.5-7.8-53,24.1-56.9,42.2v293h289.2L544.7,817.1z"/>
</g>
</svg>
