<?xml version="1.0" encoding="utf-8"?>
<!-- Generator: Adobe Illustrator 28.1.0, SVG Export Plug-In . SVG Version: 6.00 Build 0)  -->
<svg version="1.1" id="Layer_2" xmlns="http://www.w3.org/2000/svg" xmlns:xlink="http://www.w3.org/1999/xlink" x="0px" y="0px"
	 viewBox="0 0 850.4 850.4" style="enable-background:new 0 0 850.4 850.4;" xml:space="preserve">
<style type="text/css">
	.st0{fill:#004C3D;}
</style>
<path class="st0" d="M812.5,517.7c0,0-15.7-1.4-24.9,26.7c0,0-20.3,56.6-68.4,85.1l-26.9-30.4l3.5-78.2l-49-54.6
	c0,0,15.8-63.1-31.6-118.1c0,0,42.2-54.2,120.8,0c0,0,54,6.8,87.4-3.1c0,0,17.2-8.3,0-26.6c0,0-57.9-72.4-140.4-44.8
	c0,0-41.7,13.5-84,61.5c0,0-18.2-16.7-121.3,0.5c0,0-93.8,22.9-106.1-59.9c0,0,15.2-15.1,26.5-17.2c0,0-80.3-182.5-214.5-151.4v30.5
	c0,0-29.3-7.4-51.6,7.4c0,0,26.4,1.7,41.2,24.9c0,0-32.1,4.6-31.7,57c0,0,1.2,35.3-16.5,71.1c0,0-8.7,24,3.7,35.8
	c0,0,12.4,7.2,29.7-4.1c0,0,5.8-6.4,5.4-16.4c0,0,1.6-20.4,26.4-30c0,0,38.3-9.8,39.6-50.9c0,0,4.1-4.8,6.2,6.1
	c0,0,42.2,108,6.1,187c0,0-75.7,130.2-87.5,144c0,0-10.8,15.4-17.9,22.1c0,0-9.7,12.5-12.3,30.7c0,0-46.2-25.7-62.9-87.3
	c0,0-7.8-24.5-29.4-15.8c0,0-19.4,10.3-7.8,43c0,0,48.3,145.7,285.3,186.3c0,0,182,37.3,356-37.3c0,0,139.3-57.5,166.6-163.6
	C832.1,547.9,838.5,520.9,812.5,517.7z M425.2,712.1C266.9,716.7,152.5,644,152.5,644c-15.2-38.3,124-167,124-167
	c102.9,78.4,249.1-20.4,249.1-20.4c34,58,94.4,63.6,94.4,63.6c11.1,9,36.1,19.1,36.1,19.1l15.4,64.7l25.5,40
	C584.8,716.9,425.2,712.1,425.2,712.1z"/>
</svg>
