<?xml version="1.0" encoding="utf-8"?>
<!-- Generator: Adobe Illustrator 28.1.0, SVG Export Plug-In . SVG Version: 6.00 Build 0)  -->
<svg version="1.1"
	 id="svg2" xmlns:inkscape="http://www.inkscape.org/namespaces/inkscape" xmlns:sodipodi="http://sodipodi.sourceforge.net/DTD/sodipodi-0.dtd" xmlns:dc="http://purl.org/dc/elements/1.1/" xmlns:cc="http://creativecommons.org/ns#" xmlns:rdf="http://www.w3.org/1999/02/22-rdf-syntax-ns#" xmlns:ns1="http://sozi.baierouge.fr" xmlns:svg="http://www.w3.org/2000/svg"
	 xmlns="http://www.w3.org/2000/svg" xmlns:xlink="http://www.w3.org/1999/xlink" x="0px" y="0px" viewBox="0 0 850.4 850.4"
	 style="enable-background:new 0 0 850.4 850.4;" xml:space="preserve">
<style type="text/css">
	.st0{fill-rule:evenodd;clip-rule:evenodd;fill:#FF8080;stroke:#000000;stroke-width:47.0593;stroke-linejoin:round;}
	.st1{fill-rule:evenodd;clip-rule:evenodd;fill:#C83737;stroke:#000000;stroke-width:39.2646;stroke-linejoin:round;}
</style>
<sodipodi:namedview  bordercolor="#666666" borderlayer="true" borderopacity="1.0" gridtolerance="10000" guidetolerance="10" id="base" inkscape:current-layer="layer1" inkscape:cx="-4.2970289" inkscape:cy="40.574232" inkscape:document-units="px" inkscape:pageopacity="0.0" inkscape:pageshadow="2" inkscape:window-height="744" inkscape:window-width="1280" inkscape:window-x="0" inkscape:window-y="22" inkscape:zoom="2.9775825" objecttolerance="10" pagecolor="#ffffff" showgrid="false">
	</sodipodi:namedview>
<g id="layer1" transform="translate(-66.38 -391.32)" inkscape:groupmode="layer" inkscape:label="Layer 1">
	
		<path id="path3196" sodipodi:cx="63.287571" sodipodi:cy="63.762524" sodipodi:rx="58.06308" sodipodi:ry="58.06308" sodipodi:type="arc" class="st0" d="
		M801.8,862.3c-25.3,175.7-184.3,297-355,271S158.2,943.6,183.5,767.9s184.3-297,355-271C709.2,523,827.1,686.6,801.8,862.3z"/>
	<path id="path3257" sodipodi:nodetypes="ccsssccsssc" class="st1" d="M548.3,498.8c34.6,6.4,66.9,18.4,96.1,35.1
		c56.3-22.3,98.2-26.6,125-3.3c56.1,48.7-46.1,259.1-171.8,382.6c-131.3,128.9-340.4,247.1-388.5,177.3
		c-25.7-37.3-9.8-79.5,3.6-121.3c-17.5-33.6-24.7-72.8-29.8-111.6c-93.3,123.8-115.3,261.8-62.4,316.5
		C231.4,1288.9,491,1133.5,662,961.6C866.5,755.9,940.5,517,859.2,443.8C797.6,388.2,616,444.3,548.3,498.8L548.3,498.8z"/>
</g>
</svg>
