<?xml version="1.0" encoding="utf-8"?>
<!-- Generator: Adobe Illustrator 28.1.0, SVG Export Plug-In . SVG Version: 6.00 Build 0)  -->
<svg version="1.1" id="Layer_1" xmlns="http://www.w3.org/2000/svg" xmlns:xlink="http://www.w3.org/1999/xlink" x="0px" y="0px"
	 viewBox="0 0 850.4 850.4" style="enable-background:new 0 0 850.4 850.4;" xml:space="preserve">
<style type="text/css">
	.st0{fill:#ED2024;}
	.st1{fill:#E93F25;}
	.st2{fill:#E74D27;}
	.st3{fill:#E45E27;}
	.st4{fill:#F26B36;}
	.st5{fill:#F47722;}
	.st6{fill:#F58336;}
	.st7{fill:#F49139;}
	.st8{fill:#F2A33A;}
</style>
<path d="M428.6,673.1c0,0-126.2,133.2-222.7,169.1c-5.6,2.1-11.9,0.6-16.1-3.6C144.6,793.1-99,523.3,128.1,203.8
	c0,0,88.6-193.3,313.2-184.5c3.7,0.1,7.4-0.9,10.4-3c9.7-6.9,42.6-20.3,139-0.3c0,0,147.7,36.3,170.9,123.6c0.9,3.3,2.9,6.1,5.8,8
	c10.3,6.9,36,31.8,50.3,113.2c0,0,19.3,113.7-16.2,159.8c-2.3,2.9-3.1,6.7-2.4,10.3c2.9,15.2,4.2,60.8-54.3,139.4
	c0,0-53.7,59.8-100.6,52.1c-5-0.8-9.9,1.6-12.3,6c-6.2,11.3-24.3,29.8-76,28.1c0,0-63.4,1.6-107-20.7c-4.6-2.3-10,1.1-9.6,6.2
	C440,651,438.3,662.7,428.6,673.1z"/>
<path class="st0" d="M175.3,798.5c0,0-233.4-255.6-44.5-566.8c0,0,13.9-30.6,58.3-19.4c0,0,94.5,11.1,150,72.2c0,0,16.7,16.2,0,47
	c0,0-94.5,164.2,66.7,292c0,0,16.7,11.1,5.6,33.3c0,0-94.5,111.1-211.2,161.1C200.3,818,189.2,818,175.3,798.5z"/>
<path class="st1" d="M161.4,195.6c0,0,111.1-5.6,194.5,83.4c0,0,5.4,16.7,27.7,0c0,0,89-61.1,155.7-61.1c0,0,11.1,2.8,0-34.7
	c0,0-22.2-87.5-88.9-143.1c0,0-19.4-13.9-90,5.6c0,0-123.9,30.6-193.4,127.8C167,173.4,150.3,195.6,161.4,195.6z"/>
<path class="st2" d="M470.1,35.2c0,0,69.2,54.8,91.4,166c0,0,0,11.1,16.7,16.7c0,0,61.1,16.7,88.9,66.7c0,0,5.6,16.7,27.8-5.6
	c0,0,50-44.5,50-138.9c0,0-2.8-25-50-61.1c0,0-75-63.9-211.2-55.6C483.7,23.4,462,24.9,470.1,35.2z"/>
<path class="st3" d="M761.6,178.9c0,0,5.6,72.2-66.7,122.2c0,0-11.1,11.1-5.6,22.2c0,0,13.6,37.4-1.6,82.6c0,0-9.6,11.9,12.7,17.4
	c0,0,77.8,16.7,105.6-50c0,0,22.2-94.5-33.3-200C772.7,173.4,761.6,167.8,761.6,178.9z"/>
<path class="st4" d="M685.7,431.9c0,0,34.2,22.1,89.7-0.2c0,0,19.4-2.8,8.3,36.1c0,0-44.5,138.9-138.9,138.9c0,0-41.4-24.7-54-92.9
	c0,0-1.5-18.2,9.6-23.8c0,0,38.9-16.7,66.7-50C667.1,440.1,676.6,423.8,685.7,431.9z"/>
<path class="st5" d="M578.2,506.8c0,0-10.5,38.9,42,100c0,0,5.4,20.7-29.4,27c0,0-86,23-154.9-27c0,0-12.7-6.6-4.7-33.9
	c0,0,19.1-60.6,52.5-93.9c0,0,7.5-5.6,17.7,0c0,0,21.2,16.7,65.7,16.7C567.1,495.7,583.7,490.1,578.2,506.8z"/>
<path class="st6" d="M472.4,476.5c0,0-42.2,29.2-57.1,93.6c0,0-3.8,25.6-20.5,14.4c0,0-110-86.9-43.9-237.9c0,0,17.5-34.2,50.2-31.5
	c0,0,49.3-2.8,88.2,30.5c0,0,11.1,9.1,0,24c0,0-27.8,26-11.1,87.1C478.2,456.8,483.3,463,472.4,476.5z"/>
<path class="st7" d="M494.2,333.6c0,0-31.7-32-82.2-35c0,0-22.7-8.6,21.7-30.8c0,0,111.1-61.1,177.8-11.1c0,0,19.6,18.2-20.8,73
	c0,0-9.7,8.6-25.1,3.9c0,0-38.1-9.5-54.5,6.8C511.2,340.5,504.7,343.9,494.2,333.6z"/>
<path class="st8" d="M628.2,279c0,0-13.7,43-37.4,65.9c0,0-4.1,8.7,0,13.1c0,0,9.6,21-1.5,37.7c0,0,5.6-38.9-27.8-50
	c0,0-51.2-13.2-67.3,43.4c0,0-10.5,45.5,22.8,73.3c0,0,45.6,33.3,103.4,0c0,0,60.5-36.1,52.2-111.1c0,0-2.8-47.2-38.9-77.8
	C633.7,273.4,628.2,273.4,628.2,279z"/>
</svg>
