<?xml version="1.0" encoding="utf-8"?>
<!-- Generator: Adobe Illustrator 28.0.0, SVG Export Plug-In . SVG Version: 6.00 Build 0)  -->
<svg version="1.1" id="Layer_1" xmlns="http://www.w3.org/2000/svg" xmlns:xlink="http://www.w3.org/1999/xlink" x="0px" y="0px"
	 viewBox="0 0 850.4 850.4" style="enable-background:new 0 0 850.4 850.4;" xml:space="preserve">
<style type="text/css">
	.st0{fill:#E9E8E7;}
</style>
<g>
	<path d="M34.2,11.8c0,0,48.9-32.5,116.4,38.2c0,0,33.5-11.3,71,25.8c0,0,54-15.2,102.8,46.2c0,0,39.1-13.2,84,9
		c0,0,29.9,14.8,37.5,37.2c0,0,39.1-24.4,119.6,34.9c0,0,80.5,59.4,96,197.4c0,0,2.2,120.4,52.2,211.2c0,0,34.9,64.7,94.8,113
		c0,0,31.8,20.4,26.3,40.9c0,0-10.8,69.2-121.9,66.3c0,0-40.2-2-72.5-26.2c0,0-0.4,41.3-194.9,40.1c0,0-121.4,0.9-187.3-105.5
		c0,0-79.6-126.7-23.4-145.7c0,0-121.5-74.2-68.7-147.6c0,0-62.5-10.6-56.7-109.7c0,0,11.1-35.4,28.5-43.8c0,0-59.3-23.1-46.9-95.3
		c0,0-24-17.4-31.6-67.7C59.5,130.7-23.9,72.3,34.2,11.8z"/>
	<g>
		<path class="st0" d="M139.4,60.8c0,0-6.7,48.1-67,59.3c0,0-65-43.1-30.1-88.9C42.3,31.3,66.3-6.1,139.4,60.8z"/>
		<path class="st0" d="M154.5,64.9c0,0-9.4,53.6-69.8,64.9c0,0-9.6-1.3-1.3,23.4c0,0,7,34.3,34.5,34.2c0,0,79.6-8.6,93-91
			c0,0,1.3-23.4-38.6-32.8C172.4,63.5,153.2,60.8,154.5,64.9z"/>
		<path class="st0" d="M222.3,97.3c0,0,2.8,81.3-100.1,102.3c0,0-19.4-1.4-15.1,24c0,0,8.6,65.3,67.7,63.6
			c0,0,106.4-12.7,138.5-133.8c0,0,1.5-45.9-68.3-63.9C244.9,89.7,223.8,83.3,222.3,97.3z"/>
		<path class="st0" d="M324.8,147.6c0,0,5,50-58,110.6c0,0-34.4,35.3-100.3,44.7c0,0-28.6-5.4-39.5,45.2c0,0-5.2,94.6,79.9,88.7
			c0,0,83.7-10,163.1-87.2c0,0,61.6-55.2,72-150.7c0,0,4.9-53.2-84.8-62.3C357.2,136.7,322.4,134.2,324.8,147.6z"/>
		<path class="st0" d="M457.1,193.9c0,0-3.5,104.6-96.5,181.9c0,0-65.7,63.5-165.8,79c0,0-27-1.5-20.9,31.6
			c0,0,9.1,96.2,154.8,120.3c0,0,173.1,10.2,282.2,143c0,0,71.8,90.3,160.9,55.6c0,0,65.8-22.3,30-60.6c0,0-77.2-65.6-104.9-120.4
			c0,0-44.3-76.7-54.5-215.4c0,0-11.7-170.3-128.7-217.8C513.6,191.1,463.6,166.2,457.1,193.9z"/>
		<path class="st0" d="M592.9,751.1c0,0-89.8-116.4-268.4-129.3c0,0-28.9-4-35.8-10.8c0,0-12.4-9.6-8.2,16.5c0,0,22.4,107,142,135.4
			c0,0,94.4,21.6,175.6,4C598.2,766.9,606.7,764.8,592.9,751.1z"/>
		<path class="st0" d="M594.4,782.7c0,0-293,55.5-329.3-167.2c0,0-2.5-14.1-18.9-8.5c0,0-17.8,1.5-10.8,35.8
			c0,0,29.9,251.2,356.5,172.9c0,0,46.6-11.2,35.6-30.4C627.4,785.3,619.1,774.3,594.4,782.7z"/>
	</g>
</g>
</svg>
