<?xml version="1.0" encoding="utf-8"?>
<!-- Generator: Adobe Illustrator 28.1.0, SVG Export Plug-In . SVG Version: 6.00 Build 0)  -->
<svg version="1.1" xmlns="http://www.w3.org/2000/svg" xmlns:xlink="http://www.w3.org/1999/xlink" x="0px" y="0px"
	 viewBox="0 0 850.4 850.4" style="enable-background:new 0 0 850.4 850.4;" xml:space="preserve">
<style type="text/css">
	.st0{display:none;}
	.st1{fill:#92F0FF;stroke:#2E97FF;stroke-width:5;stroke-miterlimit:10;}
	.st2{fill:none;stroke:#2E97FF;stroke-width:5;stroke-miterlimit:10;}
</style>
<g id="Layer_1" class="st0">
	
		<image style="display:inline;overflow:visible;opacity:0.48;" width="167" height="198" xlink:href="867308.png"  transform="matrix(4.3696 0 0 4.2925 52 7)">
	</image>
</g>
<g id="Layer_2">
	<path class="st1" d="M402.7,330.2l-44.4-37.5c0,0,24.3-32.9,57.7-20.9c0,0-13.2-4-13.2-19.9c0,0,0-13,13.2-12c0,0-13.2-3-13.2-19.9
		c0,0,1-14,13.2-14l-18.2-12c0,0-14.2,25.9-33.4,25.9c0,0-23.3-2-29.4-21.9v-40.9c0,0,6.1-8,18.2-8c0,0,19.2-39.9,62.8,32.9
		c0,0-9.1-21.9,2-36.9l-31.4-32.9c0,0-1-11,10.1-9l21.3,16.9c0,0-13.2-12-3-16.9l-17.2-21.9c0,0,0-11,9.1-10c0,0-2-11,5.1-10V41.4
		h6.1l9.1-31.9l11.1,32.9h5.1v19.9c0,0,5.1-2,4.1,9c0,0,9.1-4,9.1,8l-18.2,22.9c0,0,12.2,4,0,16.9l21.3-16.9c0,0,9.1-4,8.1,11
		l-29.4,31.9c0,0,11.1,21.9,0,35.9c0,0,39.5-64.8,60.8-32.9c0,0,18.2,1,20.3,12v41.9c0,0-8.1,16-28.4,16.9c0,0-23.3-2-34.4-24.9
		l-17.2,12c0,0,11.1-2,11.1,13c0,0,4.1,11-9.1,19.9c0,0,13.2,0,11.1,16.9c0,0,1,8-11.1,16.9c0,0,35.5-12,53.7,20.9L453,329.3
		L402.7,330.2z"/>
	<path class="st1" d="M451.6,517.3l44.4,37.5c0,0-24.3,32.9-57.7,20.9c0,0,13.2,4,13.2,19.9c0,0,0,13-13.2,12c0,0,13.2,3,13.2,19.9
		c0,0-1,14-13.2,14l18.2,12c0,0,14.2-25.9,33.4-25.9c0,0,23.3,2,29.4,21.9v40.9c0,0-6.1,8-18.2,8c0,0-19.2,39.9-62.8-32.9
		c0,0,9.1,21.9-2,36.9l31.4,32.9c0,0,1,11-10.1,9l-21.3-16.9c0,0,13.2,12,3,16.9l17.2,21.9c0,0,0,11-9.1,10c0,0,2,11-5.1,10v19.9
		h-6.1l-9.1,31.9l-11.1-32.9H411v-19.9c0,0-5.1,2-4.1-9c0,0-9.1,4-9.1-8l18.2-22.9c0,0-12.2-4,0-16.9l-21.3,16.9c0,0-9.1,4-8.1-11
		l29.4-31.9c0,0-11.1-21.9,0-35.9c0,0-39.5,64.8-60.8,32.9c0,0-18.2-1-20.3-12v-41.9c0,0,8.1-16,28.4-16.9c0,0,23.3,2,34.4,24.9
		l17.2-12c0,0-11.1,2-11.1-13c0,0-4.1-11,9.1-19.9c0,0-13.2,0-11.1-16.9c0,0-1-8,11.1-16.9c0,0-35.5,12-53.7-20.9l42.1-35.7
		L451.6,517.3z"/>
	<path class="st1" d="M503.2,349.3l11.4-56.5c0,0,41.1,4.7,46.9,39.2c0,0-2.9-13.2,11.2-21.1c0,0,11.5-6.4,17.1,5.4
		c0,0-3.8-12.8,11.2-21.1c0,0,12.8-6,18.8,4.4l1.6-21.5c0,0-29.9,0.6-39.4-15.9c0,0-9.7-21,5-36l36.2-20.1c0,0,10,1.3,16,11.7
		c0,0,44.7-3.1,1.8,70c0,0,14.9-18.6,33.6-16.4l13.7-43.1c0,0,9.2-6.3,12.9,4.3l-4.5,26.6c0,0,4.1-17.2,13.5-10.9l10.9-25.5
		c0,0,9.7-5.4,13.3,2.9c0,0,8.7-7.1,11.3-0.6l17.6-9.8l3,5.2l32.7-7.9l-23.6,25.7l2.5,4.3l-17.6,9.8c0,0,4.3,3.4-5.9,7.9
		c0,0,8,5.9-2.6,11.7l-29.3-4.4c0,0,2.4,12.4-15,8.3l25.5,9.9c0,0,8,5.9-5.7,12.3l-42.7-9.5c0,0-13.9,20.3-31.8,17.6
		c0,0,76.8,2,59,35.9c0,0,8.1,16.1-0.6,23.2L674,386.3c0,0-18.1,0.9-28.9-16c0,0-9.7-21,5.1-41.8l-19-8.9c0,0,7.2,8.6-6,15.9
		c0,0-7.7,8.9-22.1,2c0,0,6.5,11.3-9.5,17.9c0,0-6.6,4.8-20.5-1.2c0,0,28,24.5,7.9,56.3l-52.2-18.5L503.2,349.3z"/>
	<path class="st1" d="M524.5,453.9l54.9-20.1c0,0,17.5,36.9-9.4,59.9c0,0,9.9-9.4,24.1-1.7c0,0,11.5,6.3,4.3,17.1
		c0,0,9-9.9,24.1-1.7c0,0,11.9,7.6,6,18.1l19.5-9.9c0,0-16.2-24.8-6.8-41.3c0,0,13.1-19.1,33.7-14.7l36.3,19.8c0,0,4.1,9.1-1.7,19.6
		c0,0,26.1,35.9-59.7,38.1c0,0,23.9,2.8,31.8,19.6l44.5-11.1c0,0,10.2,4.4,3.1,13.1l-25.4,10.1c0,0,17-5.5,16.5,5.6l27.8-4.2
		c0,0,9.7,5.3,4.4,12.7c0,0,10.7,3.6,6.4,9.2l17.7,9.7l-2.9,5.2l23.9,23.3L763,624l-2.5,4.4l-17.7-9.7c0,0-0.7,5.3-9.9-0.9
		c0,0-0.9,9.8-11.5,4L709.8,595c0,0-9.4,8.5-15.1-8.2l4.8,26.5c0,0-0.9,9.8-13.7,1.7l-14.1-40.8c0,0-24.9-1-31.9-17.4
		c0,0,38.4,65.4-0.2,68.3c0,0-9.7,15.2-20.5,11.6l-37.2-20.3c0,0-10.2-14.7-1.3-32.6c0,0,13.1-19.1,38.8-17.6l-2.3-20.6
		c0,0-3.6,10.6-16.9,3.3c0,0-11.7-1.8-13.3-17.5c0,0-6.4,11.3-20.5,1.4c0,0-7.6-3-9.7-17.8c0,0-6.5,36.3-44.6,36.1l-11.3-53.5
		L524.5,453.9z"/>
	<path class="st1" d="M352.6,349.4l-11.4-56.5c0,0-41.1,4.7-46.9,39.2c0,0,2.9-13.2-11.2-21.1c0,0-11.5-6.4-17.1,5.4
		c0,0,3.8-12.8-11.2-21.1c0,0-12.8-6-18.8,4.4l-1.6-21.5c0,0,29.9,0.6,39.4-15.9c0,0,9.7-21-5-36l-36.2-20.1c0,0-10,1.3-16,11.7
		c0,0-44.7-3.1-1.8,70c0,0-14.9-18.6-33.6-16.4l-13.7-43.1c0,0-9.2-6.3-12.9,4.3l4.5,26.6c0,0-4.1-17.2-13.5-10.9l-10.9-25.5
		c0,0-9.7-5.4-13.3,2.9c0,0-8.7-7.1-11.3-0.6l-17.6-9.8l-3,5.2l-32.7-7.9l23.6,25.7l-2.5,4.3l17.6,9.8c0,0-4.3,3.4,5.9,7.9
		c0,0-8,5.9,2.6,11.7l29.3-4.4c0,0-2.4,12.4,15,8.3l-25.5,9.9c0,0-8,5.9,5.7,12.3l42.7-9.5c0,0,13.9,20.3,31.8,17.6
		c0,0-76.8,2-59,35.9c0,0-8.1,16.1,0.6,23.2l37.1,20.6c0,0,18.1,0.9,28.9-16c0,0,9.7-21-5.1-41.8l19-8.9c0,0-7.2,8.6,6,15.9
		c0,0,7.7,8.9,22.1,2c0,0-6.5,11.3,9.5,17.9c0,0,6.6,4.8,20.5-1.2c0,0-28,24.5-7.9,56.3l52.2-18.5L352.6,349.4z"/>
	<path class="st1" d="M331.3,454L276.5,434c0,0-17.5,36.9,9.4,59.9c0,0-9.9-9.4-24.1-1.7c0,0-11.5,6.3-4.3,17.1c0,0-9-9.9-24.1-1.7
		c0,0-11.9,7.6-6,18.1l-19.5-9.9c0,0,16.2-24.8,6.8-41.3c0,0-13.1-19.1-33.7-14.7l-36.3,19.8c0,0-4.1,9.1,1.7,19.6
		c0,0-26.1,35.9,59.7,38.1c0,0-23.9,2.8-31.8,19.6l-44.5-11.1c0,0-10.2,4.4-3.1,13.1l25.4,10.1c0,0-17-5.5-16.5,5.6l-27.8-4.2
		c0,0-9.7,5.3-4.4,12.7c0,0-10.7,3.6-6.4,9.2L79.2,602l2.9,5.2l-23.9,23.3l34.6-6.4l2.5,4.4l17.7-9.7c0,0,0.7,5.3,9.9-0.9
		c0,0,0.9,9.8,11.5,4l11.5-26.8c0,0,9.4,8.5,15.1-8.2l-4.8,26.5c0,0,0.9,9.8,13.7,1.7l14.1-40.8c0,0,24.9-1,31.9-17.4
		c0,0-38.4,65.4,0.2,68.3c0,0,9.7,15.2,20.5,11.6l37.2-20.3c0,0,10.2-14.7,1.3-32.6c0,0-13.1-19.1-38.8-17.6l2.3-20.6
		c0,0,3.6,10.6,16.9,3.3c0,0,11.7-1.8,13.3-17.5c0,0,6.4,11.3,20.5,1.4c0,0,7.6-3,9.7-17.8c0,0,6.5,36.3,44.6,36.1l11.3-53.5
		L331.3,454z"/>
	<polygon class="st1" points="429.2,320.6 324.9,358.4 324.9,490 425.2,528.9 529.5,489.1 529.5,357.5 	"/>
	<polygon class="st1" points="429.2,342.5 348.2,375.4 348.2,473.1 424.2,506 506.2,475.1 506.2,373.4 	"/>
	<polygon class="st1" points="429.2,376.4 383.6,395.3 383.6,455.2 424.2,474.1 469.7,454.2 469.7,394.3 	"/>
	<line class="st1" x1="429.2" y1="320.6" x2="429.2" y2="376.4"/>
	<line class="st1" x1="469.7" y1="394.3" x2="529.5" y2="357.5"/>
	<line class="st1" x1="469.7" y1="454.2" x2="529.5" y2="489.1"/>
	<line class="st1" x1="424.2" y1="474.1" x2="425.2" y2="528.9"/>
	<line class="st1" x1="383.6" y1="455.2" x2="324.9" y2="490"/>
	<line class="st1" x1="383.6" y1="395.3" x2="324.9" y2="358.4"/>
	<line class="st2" x1="429.2" y1="320.6" x2="427.2" y2="9.5"/>
	<line class="st2" x1="529.5" y1="357.5" x2="798.9" y2="212.9"/>
	<line class="st2" x1="529.5" y1="489.1" x2="797.9" y2="630.6"/>
	<line class="st2" x1="425.2" y1="528.9" x2="427.2" y2="838"/>
	<line class="st2" x1="324.9" y1="490" x2="58.5" y2="630.6"/>
	<line class="st2" x1="324.9" y1="358.4" x2="56.5" y2="212.9"/>
</g>
</svg>
