<?xml version="1.0" encoding="utf-8"?>
<!-- Generator: Adobe Illustrator 28.0.0, SVG Export Plug-In . SVG Version: 6.00 Build 0)  -->
<svg version="1.1"
	 id="svg1018" xmlns:sodipodi="http://sodipodi.sourceforge.net/DTD/sodipodi-0.dtd" xmlns:inkscape="http://www.inkscape.org/namespaces/inkscape" xmlns:svg="http://www.w3.org/2000/svg" xmlns:rdf="http://www.w3.org/1999/02/22-rdf-syntax-ns#" xmlns:dc="http://purl.org/dc/elements/1.1/" xmlns:cc="http://creativecommons.org/ns#"
	 xmlns="http://www.w3.org/2000/svg" xmlns:xlink="http://www.w3.org/1999/xlink" x="0px" y="0px" viewBox="0 0 850.4 850.4"
	 style="enable-background:new 0 0 850.4 850.4;" xml:space="preserve">
<style type="text/css">
	.st0{fill-rule:evenodd;clip-rule:evenodd;fill:#F0F0F0;stroke:#000000;stroke-width:11.5792;stroke-linejoin:round;}
	.st1{fill-rule:evenodd;clip-rule:evenodd;}
	.st2{fill:none;stroke:#000000;stroke-width:13.7443;stroke-linejoin:round;stroke-miterlimit:4.2667;}
	.st3{fill:none;stroke:#000000;stroke-width:5.4977;stroke-miterlimit:4.2667;}
	.st4{fill-rule:evenodd;clip-rule:evenodd;fill:url(#circle4544_00000178923045985836768730000001973258131168796350_);}
	.st5{fill-rule:evenodd;clip-rule:evenodd;fill:#FFFFFF;fill-opacity:0.3646;}
	
		.st6{fill:url(#path4691_00000124860627549016398050000010554674509764133027_);stroke:#000000;stroke-width:5.1541;stroke-miterlimit:4.2667;}
	
		.st7{fill:url(#path4703_00000010307910541789855530000006693118636115059851_);stroke:#000000;stroke-width:5.1541;stroke-miterlimit:4.2667;}
	.st8{fill:url(#path4713_00000053528907940190488480000015096574791802929854_);}
</style>
<sodipodi:namedview  bordercolor="#666666" borderopacity="1.0" id="base" inkscape:current-layer="svg1018" inkscape:cx="28.861978" inkscape:cy="42.165714" inkscape:pageopacity="0.0" inkscape:pageshadow="2" inkscape:window-height="705" inkscape:window-maximized="1" inkscape:window-width="1366" inkscape:window-x="-8" inkscape:window-y="-8" inkscape:zoom="2" pagecolor="#ffffff" showgrid="false">
	</sodipodi:namedview>
<g>
	<ellipse id="path1195" class="st0" cx="423.7" cy="424.7" rx="406.2" ry="404.2"/>
	<path id="path1196" inkscape:connector-curvature="0" sodipodi:nodetypes="cccccc" class="st1" d="M233,211.9l155.2-92.4
		l143.2,90.3L465,378.8L288,373L233,211.9z"/>
	<path id="path1197" inkscape:connector-curvature="0" sodipodi:nodetypes="cccccc" class="st1" d="M555.9,514.3l149.4-2.1
		l15.8,133.4L565.6,759l-103.7-91.6L555.9,514.3z"/>
	<path id="path1198" inkscape:connector-curvature="0" sodipodi:nodetypes="cccccc" class="st1" d="M78.8,500.6l127.9,9.7L297.2,669
		l-68.7,80.8L102.2,646.4L78.8,500.6z"/>
	<path id="path1199" inkscape:connector-curvature="0" sodipodi:nodetypes="ccccc" class="st1" d="M40.9,359.5L119,219.8l4.7-61.6
		c-14,0-103,143.5-102.4,206.3C33.3,388.2,40.9,359.5,40.9,359.5z"/>
	<path id="path1200" inkscape:connector-curvature="0" sodipodi:nodetypes="cccccc" class="st1" d="M670.7,116v97.6L763.6,368
		l59.6-5.5c2.8-69.8-72.6-195.4-94.9-206.5C708.7,144.9,670.7,116,670.7,116z"/>
	<path id="path1201" inkscape:connector-curvature="0" sodipodi:nodetypes="cc" class="st2" d="M111.5,217.3l131.4-2.8"/>
	<path id="path1202" inkscape:connector-curvature="0" sodipodi:nodetypes="cccc" class="st1" d="M342.3,27.5L400.9,46l90.2-18.5
		C491.1,27.5,364.6,10.8,342.3,27.5z"/>
	<path id="path1203" inkscape:connector-curvature="0" sodipodi:nodetypes="cc" class="st2" d="M401.8,44.3l-11.2,80.9"/>
	<path id="path1204" inkscape:connector-curvature="0" sodipodi:nodetypes="cc" class="st2" d="M32.3,366.1l54.4,144.5"/>
	<path id="path1205" inkscape:connector-curvature="0" sodipodi:nodetypes="cc" class="st2" d="M206.1,520.1L296,363"/>
	<path id="path1206" inkscape:connector-curvature="0" sodipodi:nodetypes="cc" class="st2" d="M521.8,214.5l156.8-3.9"/>
	<path id="path1207" inkscape:connector-curvature="0" sodipodi:nodetypes="cc" class="st2" d="M458.2,367.5l102.1,158.2"/>
	<path id="path1208" inkscape:connector-curvature="0" sodipodi:nodetypes="cc" class="st2" d="M768.4,363l-70.3,163.7"/>
	<path id="path1209" inkscape:connector-curvature="0" sodipodi:nodetypes="cc" class="st2" d="M286,666.7l187.7-1.1"/>
	<path id="path1210" inkscape:connector-curvature="0" sodipodi:nodetypes="cc" class="st2" d="M225.7,735.9l93.4,78.9"/>
	<path id="path1211" inkscape:connector-curvature="0" sodipodi:nodetypes="cc" class="st2" d="M571.8,742.9L491.1,823"/>
	<path id="path1212" inkscape:connector-curvature="0" sodipodi:nodetypes="cc" class="st2" d="M710.2,642.4l43.2,10.3"/>
	<path id="path1213" inkscape:connector-curvature="0" class="st2" d="M100.3,649.9"/>
	<path id="path1214" inkscape:connector-curvature="0" sodipodi:nodetypes="cc" class="st2" d="M90.6,649.3l18.7-6"/>
	<path id="path1215" inkscape:connector-curvature="0" sodipodi:nodetypes="cc" class="st3" d="M678.3,126.8l-75.8-63"/>
	
		<linearGradient id="circle4544_00000075140457885819095880000002003602915357234107_" gradientUnits="userSpaceOnUse" x1="624.8486" y1="-90.6588" x2="409.8557" y2="464.8297" gradientTransform="matrix(1 0 0 -1 7.629395e-06 851.0381)">
		<stop  offset="0" style="stop-color:#1B1B1B"/>
		<stop  offset="1" style="stop-color:#000000;stop-opacity:0"/>
	</linearGradient>
	
		<path id="circle4544" style="fill-rule:evenodd;clip-rule:evenodd;fill:url(#circle4544_00000075140457885819095880000002003602915357234107_);" d="
		M670.4,106.3c3.6,21.5,5.4,43.2,5.4,64.9c0,223.4-181.1,404.5-404.5,404.5c0,0,0,0,0,0c-88.2-0.2-174-29.2-244.2-82.7
		c31.8,195.7,200.8,339.5,399.1,339.6c223.4,0,404.5-181.1,404.5-404.5c0,0,0,0,0,0C830.5,301.8,771.2,182.7,670.4,106.3z"/>
	<path id="circle4561" inkscape:connector-curvature="0" class="st5" d="M410.9,72.4c-153.2,0-285.3,107.5-316.7,257.4
		c35.2,12.8,72.3,19.4,109.7,19.6C357,349.4,489.2,241.9,520.6,92C485.4,79.2,448.3,72.6,410.9,72.4z"/>
	
		<linearGradient id="path4691_00000055675022762275846760000010865908259050232720_" gradientUnits="userSpaceOnUse" x1="173.6671" y1="361.6578" x2="174.2711" y2="323.606" gradientTransform="matrix(1.0667 0 0 -1.0667 5.373340e-03 907.7524)">
		<stop  offset="0" style="stop-color:#323232"/>
		<stop  offset="1" style="stop-color:#1B1B1B;stop-opacity:0"/>
	</linearGradient>
	
		<path id="path4691" inkscape:connector-curvature="0" style="fill:url(#path4691_00000055675022762275846760000010865908259050232720_);stroke:#000000;stroke-width:5.1541;stroke-miterlimit:4.2667;" d="
		M206.1,520.1l-119.5-9.5l22.7,132.7l116.4,92.6l60.3-69.3L206.1,520.1z"/>
	
		<linearGradient id="path4703_00000122721374738594116080000011570191874359991208_" gradientUnits="userSpaceOnUse" x1="665.4612" y1="608.3002" x2="701.3157" y2="620.8307" gradientTransform="matrix(1.0667 0 0 -1.0667 5.373340e-03 907.7524)">
		<stop  offset="0" style="stop-color:#323232"/>
		<stop  offset="1" style="stop-color:#323232;stop-opacity:0"/>
	</linearGradient>
	
		<path id="path4703" inkscape:connector-curvature="0" style="fill:url(#path4703_00000122721374738594116080000011570191874359991208_);stroke:#000000;stroke-width:5.1541;stroke-miterlimit:4.2667;" d="
		M678.3,126.8l0.3,83.8L768.4,363l54.8-0.6l-91.6-192.9L678.3,126.8z"/>
	
		<linearGradient id="path4713_00000073682596428189684220000017486849758494345403_" gradientUnits="userSpaceOnUse" x1="533.0863" y1="317.4418" x2="553.6221" y2="285.4301" gradientTransform="matrix(1.0667 0 0 -1.0667 5.373340e-03 907.7524)">
		<stop  offset="0" style="stop-color:#1B1B1B"/>
		<stop  offset="1" style="stop-color:#000000;stop-opacity:0"/>
	</linearGradient>
	
		<path id="path4713" inkscape:connector-curvature="0" style="fill:url(#path4713_00000073682596428189684220000017486849758494345403_);" d="
		M473.7,665.6l86.5-139.9l137.9,1l5.1,53.2L507.4,683L473.7,665.6z"/>
</g>
</svg>
