<?xml version="1.0" encoding="utf-8"?>
<!-- Generator: Adobe Illustrator 28.1.0, SVG Export Plug-In . SVG Version: 6.00 Build 0)  -->
<svg version="1.1" xmlns="http://www.w3.org/2000/svg" xmlns:xlink="http://www.w3.org/1999/xlink" x="0px" y="0px"
	 viewBox="0 0 850.4 850.4" style="enable-background:new 0 0 850.4 850.4;" xml:space="preserve">
<style type="text/css">
	.st0{fill:#5A66FF;}
	.st1{fill:#0019FC;}
	.st2{display:none;}
	.st3{display:inline;opacity:0.65;}
	.st4{fill:#FFFFFF;}
</style>
<g id="Layer_1">
	<g>
		<path d="M289.2,237.3c0,0,35.9-140.7,61.4-190.4c0,0,9.9-29,29.9-31.4c0,0,33-0.9,53.8,47.7c0,0,43,83.9,71.8,120.1
			c0,0,21.5,42,75,35c0,0,160.4-21,193.7-23.8c0,0,41.3-8.4,60.2,23.4c0,0,39.9,50.6-53.8,122.2c0,0-73.8,67.2-109.5,99.3
			c0,0-23.1,16.4-5.8,55c0,0,69.5,156.5,78.1,196.9c0,0,14.3,47.7-16.2,83.7c0,0-36.2,28.7-83.7-16.2c0,0-112.3-98.5-125.3-106.6
			c0,0-36.3-30.4-84,10.2c0,0-98.9,82.1-169.4,152.3c0,0-33.5,34.9-70.2,11c0,0-49.7-25.5-15.5-94c0,0,40.3-159.9,41.5-179.6
			c0,0,12.5-44.7-48.7-64.9c0,0-84.2-35.7-125.6-53.8c0,0-50.3-19.1-34.9-56.8c0,0,3.2-33.3,45.4-34.7c0,0,90.3-2.4,168.6-32.9
			C226,309,276.8,288.5,289.2,237.3z"/>
		<path class="st0" d="M796.9,295.3c0,0,28-22.3,19.1-55.1c0,0-9-32.9-60.7-26.1c0,0-148.9,21.1-181.1,23.7c0,0-45.5,7.5-78.8-34.6
			c0,0-48.6-75.7-80.6-130.3c0,0-15.2-33.6-35.5-23.2c0,0-19.6,4.1-40.8,78.1c0,0-31.9,111-41.1,135.4c0,0-10.6,37-44.2,52.2
			c0,0-80.5,35.3-189.5,41.9c0,0-25.1-2.9-28.8,28.5c0,0-9.2,24.4,46,43.5c0,0,109.5,44.5,133.2,59.9c0,0,36.3,16.9,24.2,66.5
			c0,0-28.5,136.9-47.6,192c0,0-9.9,30.7,13.1,52.5c0,0,22.3,28,65-11.6c0,0,108-108.6,170.4-152.4c0,0,42.8-39.7,88.7,3.8
			c0,0,81.5,66.7,121.9,103.2c0,0,41.1,30.2,62.9,7.2c0,0,22.5-29.9,8-69.4c0,0-43.6-119.4-69.2-173.3c0,0-31.9-54.6,10.1-88
			C661.5,419.9,774.4,324.6,796.9,295.3z M215.7,419.6c-10.4-1.2-17.9-10.6-16.7-21c1.2-10.4,10.6-17.9,21-16.7
			c10.4,1.2,17.9,10.6,16.7,21C235.5,413.3,226.1,420.8,215.7,419.6z M412.9,200.2c10.4,1.2,17.9,10.6,16.7,21
			c-1.2,10.4-10.6,17.9-21,16.7c-10.4-1.2-17.9-10.6-16.7-21S402.5,199,412.9,200.2z M291.8,422c2-17.4,17.7-29.8,35.1-27.8
			c17.4,2,29.8,17.7,27.8,35.1c-2,17.4-17.7,29.8-35.1,27.8C302.3,455,289.9,439.3,291.8,422z M332.3,624.1
			c-10.4-1.2-17.9-10.6-16.7-21c1.2-10.4,10.6-17.9,21-16.7c10.4,1.2,17.9,10.6,16.7,21S342.7,625.3,332.3,624.1z M373.1,546
			c-17.4-2-29.8-17.7-27.8-35.1c2-17.4,17.7-29.8,35.1-27.8c17.4,2,29.8,17.7,27.8,35.1S390.5,548,373.1,546z M413,365.8
			c-17.4-2-29.8-17.7-27.8-35.1c2-17.4,17.7-29.8,35.1-27.8c17.4,2,29.8,17.7,27.8,35.1C446,355.4,430.3,367.8,413,365.8z
			 M536,348.1c17.4,2,29.8,17.7,27.8,35.1c-2,17.4-17.7,29.8-35.1,27.8c-17.4-2-29.8-17.7-27.8-35.1
			C503,358.6,518.7,346.1,536,348.1z M522.1,524.9c-17.4-2-29.8-17.7-27.8-35.1c2-17.4,17.7-29.8,35.1-27.8
			c17.4,2,29.8,17.7,27.8,35.1C555.1,514.4,539.4,526.9,522.1,524.9z M591,590.1c-10.4-1.2-17.9-10.6-16.7-21
			c1.2-10.4,10.6-17.9,21-16.7c10.4,1.2,17.9,10.6,16.7,21C610.8,583.9,601.4,591.3,591,590.1z M638.1,347.1
			c-10.4-1.2-17.9-10.6-16.7-21c1.2-10.4,10.6-17.9,21-16.7c10.4,1.2,17.9,10.6,16.7,21C657.9,340.9,648.5,348.3,638.1,347.1z"/>
	</g>
	<circle class="st1" cx="411" cy="219" r="19"/>
	<circle class="st1" cx="417" cy="334" r="32"/>
	<circle class="st1" cx="532" cy="380" r="32"/>
	<circle class="st1" cx="640" cy="328" r="20"/>
	<circle class="st1" cx="526" cy="493" r="32"/>
	<circle class="st1" cx="593" cy="571" r="21"/>
	<circle class="st1" cx="377" cy="515" r="35"/>
	<circle class="st1" cx="334" cy="605" r="19"/>
	<circle class="st1" cx="323" cy="426" r="35"/>
	<circle class="st1" cx="218" cy="401" r="19"/>
</g>
<g id="Layer_2" class="st2">
	<g class="st3">
		
			<image style="overflow:visible;" width="360" height="374" id="_x31_fiN34" xlink:href="BE0748A3C40FAB75.jpg"  transform="matrix(5.8538 0 0 5.8538 -1422 155)">
		</image>
	</g>
</g>
<g id="Layer_3">
	<path d="M420.1,287.3c-1.8,6.3-10,7.9-13.8,2.6c-9.7-13.1-25.6-28.7-44.8-24.5c0,0-50,9-46,120c0,0,0.5,100.5,69,95
		c0,0,43.6,0,50.2-68c0.3-3.4,4.9-4.3,6.5-1.3c10.7,19.3,36.2,55.5,75.3,50.4c0,0,72.5-3.5,22-150c0,0-39-80-86-65
		C452.5,246.5,430.1,251.7,420.1,287.3z"/>
	<path class="st4" d="M532.5,335.5c0,0-24.5-83.5-74.5-70.5c0,0-29.5,6.5-28.5,63.5c0,0,1.5,58.5,37,100c0,0,27.5,29.5,59,13
		C525.5,441.5,561.5,426.5,532.5,335.5z M486.5,321.5c-13,6-21-10-21-10c-10-22,2-32,2-32c12-8,22,8,22,8
		C499.5,314.5,486.5,321.5,486.5,321.5z"/>
	<path class="st4" d="M369.5,283.5c0,0-40-1-44,91c0,0,0,75,44,90c0,0,52,20,57-72C426.5,392.5,425.5,291.5,369.5,283.5z
		 M380.5,342.5c-14,6-26-17-26-17c-9-26,5-32,5-32c15-5,22,14,22,14C390.5,336.5,380.5,342.5,380.5,342.5z"/>
	<circle class="st4" cx="366.5" cy="304.5" r="4.5"/>
	<circle class="st4" cx="478" cy="288" r="5"/>
	<path d="M430.5,194.8c-2.2-0.5-4.5,0.7-5.2,2.9c-0.8,2.6-0.6,6.1,4.5,8.3c0,0,44.4,8.8,61.4,12.8c4.2,1,7.2-4.1,4.2-7.2
		c-0.1-0.1-0.2-0.2-0.3-0.3c-0.6-0.6-1.3-1-2-1.1L430.5,194.8z"/>
	<path d="M365.9,203.2c2.1,2.8,4.6,7.3,2.9,11.9c-0.2,0.6-0.6,1.1-1.1,1.5c-5.7,4.4-46.7,35.9-59.4,43.7c-1.8,1.1-4.2,0.3-4.8-1.7
		c-0.1-0.2-0.1-0.5-0.1-0.8c-0.1-0.9,0.4-1.9,1-2.5l56.7-52.5C362.5,201.5,364.8,201.7,365.9,203.2z"/>
	<path d="M409.3,538.6c0,0,56,24.9,90.3-18.7c0,0,12.5-3.1,12.5,9.3c0,0-43.6,65.4-108.9,21.8C403.1,551.1,396.8,535.5,409.3,538.6z
		"/>
</g>
</svg>
