<?xml version="1.0" encoding="utf-8"?>
<!-- Generator: Adobe Illustrator 28.1.0, SVG Export Plug-In . SVG Version: 6.00 Build 0)  -->
<svg version="1.1" xmlns="http://www.w3.org/2000/svg" xmlns:xlink="http://www.w3.org/1999/xlink" x="0px" y="0px"
	 viewBox="0 0 850.4 850.4" style="enable-background:new 0 0 850.4 850.4;" xml:space="preserve">
<style type="text/css">
	.st0{fill:#7F1D03;}
</style>
<g id="Layer_2">
	<path class="st0" d="M479.5,72.5c0,0-55-18-117,3c0,0-14-52-69-51c0,0-49-2-67,52c0,0-17,53,37,83c0,0-35,56,1,125c0,0,25,51,80,75
		c0,0-12,5-30,22c0,0-12-7-65,8c0,0-146,32-183,81c0,0-31,31-9,70c0,0,19,40,77,18c0,0,58-23,122-74c0,0-20,70,10,144
		c0,0-35,12-38,11c0,0-24-63-88-60c0,0-63,3-88,49c0,0-35,48,18,121c0,0,83,122,157,58c0,0,57-30,115-82c0,0,75,56,167,2
		c0,0,83,67,113,80c0,0,43,44,104-3c0,0,84-58,83-141c0,0-3-66-83-82c0,0-71-19-104,59c0,0-18-4-33-10c0,0,28-64,11-140
		c0,0,88,68,138,73c0,0,41,11,58-32c0,0,24-46-48-89c0,0-33-21-113-43c0,0-72-25-95-18c0,0-13-14-30-24c0,0,74-29,91-113
		c0,0,10-44-15-90c0,0,40-27,27-79c0,0-13-50-71-51C542.5,24.5,497.5,23.5,479.5,72.5z"/>
</g>
<g id="Layer_1">
</g>
</svg>
