<?xml version="1.0" encoding="utf-8"?>
<!-- Generator: Adobe Illustrator 28.0.0, SVG Export Plug-In . SVG Version: 6.00 Build 0)  -->
<svg version="1.1" xmlns="http://www.w3.org/2000/svg" xmlns:xlink="http://www.w3.org/1999/xlink" x="0px" y="0px"
	 viewBox="0 0 850.4 850.4" style="enable-background:new 0 0 850.4 850.4;" xml:space="preserve">
<style type="text/css">
	.st0{display:none;}
	.st1{fill:#8AA0FF;}
	.st2{fill:#FFFFFF;}
	.st3{fill:#FFA05F;}
	.st4{fill:#3676E8;}
	.st5{fill:#FFDF21;}
</style>
<g id="Layer_1" class="st0">
	
		<image style="display:inline;overflow:visible;opacity:0.53;" width="675" height="900" xlink:href="../../../Froggie1004/clipart archive/fish3.jpeg"  transform="matrix(1.2593 0 0 0.9444 0 0)">
	</image>
</g>
<g id="Layer_2">
	<path d="M629.3,346.9c-0.6-2.7-0.3-5.5,0.7-8c10.3-26.6,64.7-192.9-132.5-321.3c0,0-24-16-65,5c0,0-73.5,40.6-135.8,90.5
		c-2,1.6-4.3,2.6-6.8,3c-21.1,3.2-129.3,29.8-176.2,240.8c-0.1,0.5-0.2,1-0.3,1.5c-0.8,7-8.9,65.2-58.3,52.8
		c-1.2-0.3-2.5-0.5-3.7-0.5c-7.3,0-31.7,1.7-38.7,21.5c-0.1,0.3-0.2,0.6-0.4,1C10.4,437.2-5,475.5,38.1,506c5.7,4.1,7.6,11.8,4.4,18
		c-6.8,13.4-17.4,34.9-20,45.5c0,0-8.8,32.2,23.7,31.1c0.9,0,1.9-0.2,2.8-0.4c2.9-0.7,9.2-2.6,14.4-5.9c1.3-0.8,2.7-1.4,4.1-1.8
		c7.4-2,27.1-3.3,43,30.1c0,0,24.6,50.8,48.3,66.8c4.7,3.2,7.2,8.9,6.2,14.5c-4,21.1-8.2,71.9,26.6,129.2c1.5,2.4,3.6,4.4,6.2,5.5
		c3.3,1.4,8.2,1.9,14.7-1.4c0.7-0.3,1.3-0.7,2-0.9c6.6-2.3,44.3-17,63.7-54.4c3.9-7.5,13.5-10.1,20.5-5.4
		c28.2,18.7,93.4,57.6,151.8,59.1c0,0,72.7,4,114.8-27.8c0.1-0.1,0.3-0.2,0.4-0.3c3-2,45.5-32.8,36.8-113.9c0,0-4.5-31.4-12.2-50.3
		c-2.1-5-1-10.8,2.6-14.9c8.1-9,22.3-24.8,33.3-37c3.2-3.6,8.1-5.3,12.8-4.6c11.7,1.8,32,10.8,38.4,50.1c0.1,0.4,0.1,0.8,0.1,1.2
		c0.3,4.3,3.2,33.8,19,50.5c0,0,39,47,71,50c0,0,29,4,33-33c0,0,7-34.9-45.7-137.4c-0.2-0.3-0.4-0.7-0.6-1
		c-3.2-5.2-31.7-54.5-1-111.9c0.2-0.4,0.4-0.8,0.7-1.2c4-6.1,39.8-60.5,75.6-110.4c0,0,17.6-23.8,3.3-36.6c-1.8-1.6-4-2.6-6.4-3.1
		c-10.6-2.2-47.1-6.5-84.9,23.7c0,0-39,33-66,74c0,0-13.6,19.4-21.6,2.8c-0.3-0.5-0.5-1-0.8-1.5
		C650.2,398.3,634.8,372.8,629.3,346.9z"/>
	<path class="st1" d="M275.4,308.4c-2.3-4.3-54-101.4-12.5-165.7c2-3.1-1.3-6.9-4.6-5.3c-28.4,13.8-99.3,62.8-134.7,217.9
		c0,0.1-0.1,0.3-0.1,0.4c-0.5,4.3-10.5,82.3-65,65.8c0,0-32.8-9-40.9,21.8c0,0.2-0.1,0.3-0.1,0.5c-0.5,3.4-4.4,41.6,42.1,63
		c2,0.9,2.8,3.4,1.6,5.3c-7.1,10.9-28.1,44.5-31.6,66c0,0.3-0.1,0.5,0,0.8c0.2,3,2.3,19.5,25.8,9.6c0.1-0.1,0.3-0.1,0.4-0.2
		c2.8-1.6,37.8-19.9,61.8,27c0,0.1,0.1,0.2,0.1,0.2c1.2,2.8,25,57.1,49.1,65.9c1.9,0.7,4.1-0.3,4.7-2.3c2-6.4,8.4-21.5,27.1-41.7
		c0,0,24-28,16-67c0,0-1.9-9.7,5.6-5.2c0.3,0.2,0.5,0.3,0.7,0.6c3,3,26.2,26.7,42.2,50.8c1.3,2,4.2,2.2,5.8,0.4
		c9.8-11.5,38.6-52.2,47.7-141.3c0-0.1,0-0.2,0-0.2c0.1-3.1,1.9-65.4-40.9-166.7C275.5,308.6,275.5,308.5,275.4,308.4z M189.5,494.5
		c-33,19-51-3-51-3c-36-39-3-122-3-122c30-69,77-65,77-65c40,2,39,58,39,58C252.5,456.5,189.5,494.5,189.5,494.5z"/>
	<path class="st2" d="M147.9,371.6c-1,1.1-2.7-0.1-2.1-1.4c9-17.6,31.1-54.2,60.6-55.7c0,0,31-4,36,42c0,0,3.6,47.2-20.4,86.2
		c-0.8,1.2-2.7,0.4-2.3-1c4.5-17.8,12-61.4-16.2-84.1c0,0-0.1-0.1-0.1-0.1C201.9,356.5,175.8,341.1,147.9,371.6z"/>
	<path class="st3" d="M138.2,425.3c-0.8,0.9-2.4,0.2-2.2-1c1.7-11.8,9.1-45.1,38.5-59.8c0,0,25-13,37,20.9c0,0.1,0,0.1,0,0.2
		c0.5,2.1,9.3,46.1-15,83.2c-0.8,1.2-2.6,0.4-2.3-0.9c1.7-7.9,3.2-21.2-2.4-31.8c-0.2-0.4-0.2-0.8,0-1.1c2.1-4.2,14.2-30-2.2-38.4
		c-0.1,0-0.2-0.1-0.2-0.1c-1.5-0.4-15.1-3.6-25.4,17.2c-0.2,0.5-0.8,0.8-1.3,0.7C159.6,413.8,149.1,413.3,138.2,425.3z"/>
	<path class="st2" d="M192.5,405.5c0,0-8-12-20,2c0,0-10,15-10,30c0,0,0,13,11,10c0,0,13-6,19-27
		C192.5,420.5,195.5,414.5,192.5,405.5z"/>
	<path class="st4" d="M327.1,101.5c25.8-19.2,92.1-67.1,123.2-76c0.1,0,0.2-0.1,0.4-0.1c2.2-0.9,27-10.8,53.6,11.9
		c0.1,0.1,0.2,0.2,0.4,0.3c6.3,4,164.2,104.9,122.6,268.7c-0.9,3.6-5.9,3.6-6.9,0.1c-9.1-31.8-41.2-114.7-138.7-171.8
		c-0.1,0-0.1-0.1-0.2-0.1c-2.8-1.4-68-34.2-151.8-26.5C326,108.3,324.2,103.7,327.1,101.5z"/>
	<path class="st1" d="M673.8,418.4c1.7,13,9.3,88.8-28.5,148.4c-1.9,2.9-0.8,6.8,2.3,8.4c11.2,5.9,34.1,22.2,37.9,58.3
		c0,0,5,46.7,34.7,67.8c0.2,0.1,0.4,0.3,0.5,0.4c3.1,2.9,35.2,31.9,55.2,25c0.3-0.1,0.6-0.2,1-0.3c3.1-0.6,21.7-5.7,12.6-47.7
		c0-0.2-0.1-0.3-0.1-0.5c-1.4-4.6-22.9-75.6-51.9-128.8c0,0-26-49,19-117c0,0,37.8-52.7,53.9-75.8c0.1-0.1,0.2-0.2,0.3-0.4
		c2.2-2.7,29.2-36.1,14.9-41.8c0,0-46-15-102,40c0,0-36,37.9-49,60.2C673.9,415.8,673.6,417.1,673.8,418.4z"/>
	<path class="st5" d="M663.5,421.9c-5.6,0.4-22-3.9-39.4-60.1c-0.6-1.9-3.1-2-3.9-0.2c-5.5,13-17.9,47.9-2.8,68.8
		c0.1,0.1,0.1,0.1,0.2,0.2c1.9,2.1,35,40.4,21.6,118.2c-0.4,2.2,2.5,3.4,3.8,1.5c10.2-15.3,30.5-55.6,22.8-126.6
		C665.6,422.7,664.6,421.8,663.5,421.9z"/>
	<path class="st4" d="M224.5,589.3c-0.6,9.5-4.5,32.3-26.9,63.1c0,0.1-0.1,0.1-0.1,0.2c-2.2,2.5-55.8,64-4,162.8
		c0,0.1,0.1,0.1,0.1,0.2c0.5,1.3,7.4,17.3,20.7,9.1c0.2-0.1,0.4-0.2,0.6-0.3c5.1-1.4,72.5-21.7,67.7-118.8c0,0,0-0.1,0-0.1
		c0-2.2,0.9-67.9-54.3-117.7C226.8,586.5,224.6,587.4,224.5,589.3z"/>
	<path class="st4" d="M310.9,763.7c36.3-0.2,160.8-9.2,263.5-116.8c1.6-1.6,4.3-1.2,5.1,0.9c7.9,18.3,35.1,91.4-10.9,142.6
		c-0.1,0.1-0.1,0.1-0.2,0.2c-3.2,3.1-94.7,89.8-259.3-21.1C306.6,767.7,307.8,763.7,310.9,763.7z"/>
	<path class="st3" d="M327.6,120.2c-9-0.4-28.7-0.4-44.3,6c-0.5,0.2-1,0.6-1.4,1c-5.7,7-50.5,67.2-6.4,157.3
		c0,0,45.9,101.8,48,159.8c0,0.1,0,0.2,0,0.3c0.5,4.1,12.4,100.3-49.6,183c-0.8,1.1-0.9,2.6-0.3,3.8c5.6,10,29.7,57.7,14.9,117.9
		c-0.5,2.1,1,4.2,3.2,4.3c5.7,0.2,16.1,0.5,24.4,0.1c2.2-0.1,3.7-2.1,3.2-4.2c-2.9-13-7.4-58.9,39.1-146c0,0,57-98,16-213
		c0,0-23.9-73.8-34-94.9c0-0.1-0.1-0.1-0.1-0.2c-1.3-3.3-38.8-98.2-9.8-170.5C331.5,122.7,330,120.3,327.6,120.2z"/>
	<path class="st3" d="M618.1,335.1c-2.9-11-23-82.8-71.9-139.4c-1.9-2.2-5.3-1.9-6.9,0.5c-12.8,20.3-56,104.6,22.2,218.3
		c0,0,52,84,30,140c0,0-17.3,44.4-19.9,70.6c-0.4,4,4.4,6.3,7.2,3.5c15-14.7,48-49.2,49.7-70.9c0-0.1,0-0.2,0-0.3
		c0.7-3.7,12.2-70.3-9.7-109.3c-0.2-0.4-0.5-0.7-0.7-1c-2.9-2.8-19.3-20.1-16.6-46.6c0,0,3.9-33.9,16.4-62.7
		C618.3,337,618.4,336,618.1,335.1z"/>
	<path class="st5" d="M531.6,181.9c-7.6-6.6-28.2-24.2-43.5-32.6c-2.1-1.1-4.6-0.6-6.1,1.3c-8.9,12-38.4,57.2-26.5,117.7
		c0,0.1,0,0.2,0.1,0.3c1,4.2,28.3,114.5,44,144.9c0,0,16.9,37.7,22.9,47.9c0,0.1,0.1,0.1,0.1,0.2c1.6,2.5,31.4,48.9,13,121.7
		c0,0.1-0.1,0.2-0.1,0.3c-1,3.2-17.9,55.7-35.2,98.7c-1.8,4.5,3.5,8.5,7.3,5.5c14.1-10.8,35.9-28,52.3-42.9c1-1,1.6-2.3,1.5-3.7
		c-0.4-8-0.5-37.5,18.1-80.6c0.1-0.1,0.1-0.3,0.2-0.4c1.7-3,22.6-43.5-10.1-108.8c0,0-22-47-35-68c0,0-61.7-92-2-195.7
		C533.7,185.9,533.3,183.4,531.6,181.9z"/>
	<path class="st3" d="M470.8,140.9c-9.5-5-31.7-15.6-52.5-17.2c-1.8-0.1-3.4,0.7-4.4,2.1c-8.3,12-44.8,70.5-24.4,141.7
		c0,0,11,37,34,80c0,0,48.9,99.8,37,179.7c0,0.2,0,0.4,0,0.5c-0.1,3.3-2,39.5-42,131.7c0,0-21.4,55.3-9.5,74.9
		c1.2,1.9,3.6,2.7,5.7,2c11.4-3.9,49.9-17.7,65-30.2c0.5-0.4,0.9-1,1.2-1.6c5.4-11.1,57.2-119.6,50.5-184.1c0,0-4-30.8-15.9-49.8
		c-0.1-0.1-0.1-0.2-0.2-0.4c-2.3-4.7-47.5-96.7-70.9-208.6c0-0.1-0.1-0.3-0.1-0.4c-1-3.1-13.7-48.2,28.2-113.4
		C474.2,145.5,473.3,142.2,470.8,140.9z"/>
	<path class="st5" d="M398.3,120.7c-11-1.2-34.4-3.3-53.5-1.5c-1.5,0.1-2.7,1.1-3.3,2.5c-5.1,13.3-28.5,83.9,11.9,182.7
		c0,0,46.9,106.7,45,164.7c0,0.2,0,0.3,0,0.5c0.4,4.1,5.3,62.1-38,150.8c0,0-43.2,78.7-30.8,129.9c0.4,1.8,2.1,3.1,4,3
		c9.9-0.5,40.4-2.6,61.3-11.3c1.8-0.8,2.8-2.8,2.3-4.7c-2.4-8.2-5.5-33.9,18.2-90.9c0,0,37-78,38-136c0,0,2-77-33-145
		c0,0-30.7-67.4-36.9-85.8c0-0.1-0.1-0.3-0.2-0.4c-1.9-4-31.9-69.7,17.9-152.6C402.8,124.3,401.2,121.1,398.3,120.7z"/>
</g>
</svg>
